  0
SECTION
  2
BLOCKS
  0
ENDSEC
  0
SECTION
  2
ENTITIES
  0
LINE
  8
0
 10
35.2453
 20
-22.494
 11
35.4901
 21
-22.4759
  0
LINE
  8
0
 10
35.4901
 20
-22.4759
 11
35.7337
 21
-22.4459
  0
LINE
  8
0
 10
35.7337
 20
-22.4459
 11
35.9754
 21
-22.4039
  0
LINE
  8
0
 10
35.9754
 20
-22.4039
 11
36.2149
 21
-22.3502
  0
LINE
  8
0
 10
36.2149
 20
-22.3502
 11
36.4514
 21
-22.2847
  0
LINE
  8
0
 10
36.4514
 20
-22.2847
 11
36.6844
 21
-22.2077
  0
LINE
  8
0
 10
36.6844
 20
-22.2077
 11
36.9134
 21
-22.1194
  0
LINE
  8
0
 10
36.9134
 20
-22.1194
 11
37.1378
 21
-22.0199
  0
LINE
  8
0
 10
37.1378
 20
-22.0199
 11
37.357
 21
-21.9096
  0
LINE
  8
0
 10
37.357
 20
-21.9096
 11
37.5705
 21
-21.7887
  0
LINE
  8
0
 10
37.5705
 20
-21.7887
 11
37.7778
 21
-21.6573
  0
LINE
  8
0
 10
37.7778
 20
-21.6573
 11
37.9785
 21
-21.516
  0
LINE
  8
0
 10
37.9785
 20
-21.516
 11
38.172
 21
-21.3651
  0
LINE
  8
0
 10
38.172
 20
-21.3651
 11
38.3578
 21
-21.2048
  0
LINE
  8
0
 10
38.3578
 20
-21.2048
 11
38.5355
 21
-21.0355
  0
LINE
  8
0
 10
38.5355
 20
-21.0355
 11
38.7048
 21
-20.8578
  0
LINE
  8
0
 10
38.7048
 20
-20.8578
 11
38.8651
 21
-20.672
  0
LINE
  8
0
 10
38.8651
 20
-20.672
 11
39.016
 21
-20.4785
  0
LINE
  8
0
 10
39.016
 20
-20.4785
 11
39.1573
 21
-20.2778
  0
LINE
  8
0
 10
39.1573
 20
-20.2778
 11
39.2887
 21
-20.0705
  0
LINE
  8
0
 10
39.2887
 20
-20.0705
 11
39.4096
 21
-19.857
  0
LINE
  8
0
 10
39.4096
 20
-19.857
 11
39.5199
 21
-19.6378
  0
LINE
  8
0
 10
39.5199
 20
-19.6378
 11
39.6194
 21
-19.4134
  0
LINE
  8
0
 10
39.6194
 20
-19.4134
 11
39.7077
 21
-19.1844
  0
LINE
  8
0
 10
39.7077
 20
-19.1844
 11
39.7847
 21
-18.9514
  0
LINE
  8
0
 10
39.7847
 20
-18.9514
 11
39.8502
 21
-18.7149
  0
LINE
  8
0
 10
39.8502
 20
-18.7149
 11
39.9039
 21
-18.4754
  0
LINE
  8
0
 10
39.9039
 20
-18.4754
 11
39.9459
 21
-18.2337
  0
LINE
  8
0
 10
39.9459
 20
-18.2337
 11
39.9759
 21
-17.9901
  0
LINE
  8
0
 10
39.9759
 20
-17.9901
 11
39.994
 21
-17.7453
  0
LINE
  8
0
 10
39.994
 20
-17.7453
 11
40
 21
-17.5
  0
LINE
  8
0
 10
40
 20
-17.5
 11
40
 21
17.5
  0
LINE
  8
0
 10
40
 20
17.5
 11
39.994
 21
17.7453
  0
LINE
  8
0
 10
39.994
 20
17.7453
 11
39.9759
 21
17.9901
  0
LINE
  8
0
 10
39.9759
 20
17.9901
 11
39.9459
 21
18.2337
  0
LINE
  8
0
 10
39.9459
 20
18.2337
 11
39.9039
 21
18.4754
  0
LINE
  8
0
 10
39.9039
 20
18.4754
 11
39.8502
 21
18.7149
  0
LINE
  8
0
 10
39.8502
 20
18.7149
 11
39.7847
 21
18.9514
  0
LINE
  8
0
 10
39.7847
 20
18.9514
 11
39.7077
 21
19.1844
  0
LINE
  8
0
 10
39.7077
 20
19.1844
 11
39.6194
 21
19.4134
  0
LINE
  8
0
 10
39.6194
 20
19.4134
 11
39.5199
 21
19.6378
  0
LINE
  8
0
 10
39.5199
 20
19.6378
 11
39.4096
 21
19.857
  0
LINE
  8
0
 10
39.4096
 20
19.857
 11
39.2887
 21
20.0705
  0
LINE
  8
0
 10
39.2887
 20
20.0705
 11
39.1573
 21
20.2778
  0
LINE
  8
0
 10
39.1573
 20
20.2778
 11
39.016
 21
20.4785
  0
LINE
  8
0
 10
39.016
 20
20.4785
 11
38.8651
 21
20.672
  0
LINE
  8
0
 10
38.8651
 20
20.672
 11
38.7048
 21
20.8578
  0
LINE
  8
0
 10
38.7048
 20
20.8578
 11
38.5355
 21
21.0355
  0
LINE
  8
0
 10
38.5355
 20
21.0355
 11
38.3578
 21
21.2048
  0
LINE
  8
0
 10
38.3578
 20
21.2048
 11
38.172
 21
21.3651
  0
LINE
  8
0
 10
38.172
 20
21.3651
 11
37.9785
 21
21.516
  0
LINE
  8
0
 10
37.9785
 20
21.516
 11
37.7778
 21
21.6573
  0
LINE
  8
0
 10
37.7778
 20
21.6573
 11
37.5705
 21
21.7887
  0
LINE
  8
0
 10
37.5705
 20
21.7887
 11
37.357
 21
21.9096
  0
LINE
  8
0
 10
37.357
 20
21.9096
 11
37.1378
 21
22.0199
  0
LINE
  8
0
 10
37.1378
 20
22.0199
 11
36.9134
 21
22.1194
  0
LINE
  8
0
 10
36.9134
 20
22.1194
 11
36.6844
 21
22.2077
  0
LINE
  8
0
 10
36.6844
 20
22.2077
 11
36.4514
 21
22.2847
  0
LINE
  8
0
 10
36.4514
 20
22.2847
 11
36.2149
 21
22.3502
  0
LINE
  8
0
 10
36.2149
 20
22.3502
 11
35.9754
 21
22.4039
  0
LINE
  8
0
 10
35.9754
 20
22.4039
 11
35.7337
 21
22.4459
  0
LINE
  8
0
 10
35.7337
 20
22.4459
 11
35.4901
 21
22.4759
  0
LINE
  8
0
 10
35.4901
 20
22.4759
 11
35.2453
 21
22.494
  0
LINE
  8
0
 10
35.2453
 20
22.494
 11
35
 21
22.5
  0
LINE
  8
0
 10
35
 20
22.5
 11
-35
 21
22.5
  0
LINE
  8
0
 10
-35
 20
22.5
 11
-35.2453
 21
22.494
  0
LINE
  8
0
 10
-35.2453
 20
22.494
 11
-35.4901
 21
22.4759
  0
LINE
  8
0
 10
-35.4901
 20
22.4759
 11
-35.7337
 21
22.4459
  0
LINE
  8
0
 10
-35.7337
 20
22.4459
 11
-35.9754
 21
22.4039
  0
LINE
  8
0
 10
-35.9754
 20
22.4039
 11
-36.2149
 21
22.3502
  0
LINE
  8
0
 10
-36.2149
 20
22.3502
 11
-36.4514
 21
22.2847
  0
LINE
  8
0
 10
-36.4514
 20
22.2847
 11
-36.6844
 21
22.2077
  0
LINE
  8
0
 10
-36.6844
 20
22.2077
 11
-36.9134
 21
22.1194
  0
LINE
  8
0
 10
-36.9134
 20
22.1194
 11
-37.1378
 21
22.0199
  0
LINE
  8
0
 10
-37.1378
 20
22.0199
 11
-37.357
 21
21.9096
  0
LINE
  8
0
 10
-37.357
 20
21.9096
 11
-37.5705
 21
21.7887
  0
LINE
  8
0
 10
-37.5705
 20
21.7887
 11
-37.7778
 21
21.6573
  0
LINE
  8
0
 10
-37.7778
 20
21.6573
 11
-37.9785
 21
21.516
  0
LINE
  8
0
 10
-37.9785
 20
21.516
 11
-38.172
 21
21.3651
  0
LINE
  8
0
 10
-38.172
 20
21.3651
 11
-38.3578
 21
21.2048
  0
LINE
  8
0
 10
-38.3578
 20
21.2048
 11
-38.5355
 21
21.0355
  0
LINE
  8
0
 10
-38.5355
 20
21.0355
 11
-38.7048
 21
20.8578
  0
LINE
  8
0
 10
-38.7048
 20
20.8578
 11
-38.8651
 21
20.672
  0
LINE
  8
0
 10
-38.8651
 20
20.672
 11
-39.016
 21
20.4785
  0
LINE
  8
0
 10
-39.016
 20
20.4785
 11
-39.1573
 21
20.2778
  0
LINE
  8
0
 10
-39.1573
 20
20.2778
 11
-39.2887
 21
20.0705
  0
LINE
  8
0
 10
-39.2887
 20
20.0705
 11
-39.4096
 21
19.857
  0
LINE
  8
0
 10
-39.4096
 20
19.857
 11
-39.5199
 21
19.6378
  0
LINE
  8
0
 10
-39.5199
 20
19.6378
 11
-39.6194
 21
19.4134
  0
LINE
  8
0
 10
-39.6194
 20
19.4134
 11
-39.7077
 21
19.1844
  0
LINE
  8
0
 10
-39.7077
 20
19.1844
 11
-39.7847
 21
18.9514
  0
LINE
  8
0
 10
-39.7847
 20
18.9514
 11
-39.8502
 21
18.7149
  0
LINE
  8
0
 10
-39.8502
 20
18.7149
 11
-39.9039
 21
18.4754
  0
LINE
  8
0
 10
-39.9039
 20
18.4754
 11
-39.9459
 21
18.2337
  0
LINE
  8
0
 10
-39.9459
 20
18.2337
 11
-39.9759
 21
17.9901
  0
LINE
  8
0
 10
-39.9759
 20
17.9901
 11
-39.994
 21
17.7453
  0
LINE
  8
0
 10
-39.994
 20
17.7453
 11
-40
 21
17.5
  0
LINE
  8
0
 10
-40
 20
17.5
 11
-40
 21
-17.5
  0
LINE
  8
0
 10
-40
 20
-17.5
 11
-39.994
 21
-17.7453
  0
LINE
  8
0
 10
-39.994
 20
-17.7453
 11
-39.9759
 21
-17.9901
  0
LINE
  8
0
 10
-39.9759
 20
-17.9901
 11
-39.9459
 21
-18.2337
  0
LINE
  8
0
 10
-39.9459
 20
-18.2337
 11
-39.9039
 21
-18.4754
  0
LINE
  8
0
 10
-39.9039
 20
-18.4754
 11
-39.8502
 21
-18.7149
  0
LINE
  8
0
 10
-39.8502
 20
-18.7149
 11
-39.7847
 21
-18.9514
  0
LINE
  8
0
 10
-39.7847
 20
-18.9514
 11
-39.7077
 21
-19.1844
  0
LINE
  8
0
 10
-39.7077
 20
-19.1844
 11
-39.6194
 21
-19.4134
  0
LINE
  8
0
 10
-39.6194
 20
-19.4134
 11
-39.5199
 21
-19.6378
  0
LINE
  8
0
 10
-39.5199
 20
-19.6378
 11
-39.4096
 21
-19.857
  0
LINE
  8
0
 10
-39.4096
 20
-19.857
 11
-39.2887
 21
-20.0705
  0
LINE
  8
0
 10
-39.2887
 20
-20.0705
 11
-39.1573
 21
-20.2778
  0
LINE
  8
0
 10
-39.1573
 20
-20.2778
 11
-39.016
 21
-20.4785
  0
LINE
  8
0
 10
-39.016
 20
-20.4785
 11
-38.8651
 21
-20.672
  0
LINE
  8
0
 10
-38.8651
 20
-20.672
 11
-38.7048
 21
-20.8578
  0
LINE
  8
0
 10
-38.7048
 20
-20.8578
 11
-38.5355
 21
-21.0355
  0
LINE
  8
0
 10
-38.5355
 20
-21.0355
 11
-38.3578
 21
-21.2048
  0
LINE
  8
0
 10
-38.3578
 20
-21.2048
 11
-38.172
 21
-21.3651
  0
LINE
  8
0
 10
-38.172
 20
-21.3651
 11
-37.9785
 21
-21.516
  0
LINE
  8
0
 10
-37.9785
 20
-21.516
 11
-37.7778
 21
-21.6573
  0
LINE
  8
0
 10
-37.7778
 20
-21.6573
 11
-37.5705
 21
-21.7887
  0
LINE
  8
0
 10
-37.5705
 20
-21.7887
 11
-37.357
 21
-21.9096
  0
LINE
  8
0
 10
-37.357
 20
-21.9096
 11
-37.1378
 21
-22.0199
  0
LINE
  8
0
 10
-37.1378
 20
-22.0199
 11
-36.9134
 21
-22.1194
  0
LINE
  8
0
 10
-36.9134
 20
-22.1194
 11
-36.6844
 21
-22.2077
  0
LINE
  8
0
 10
-36.6844
 20
-22.2077
 11
-36.4514
 21
-22.2847
  0
LINE
  8
0
 10
-36.4514
 20
-22.2847
 11
-36.2149
 21
-22.3502
  0
LINE
  8
0
 10
-36.2149
 20
-22.3502
 11
-35.9754
 21
-22.4039
  0
LINE
  8
0
 10
-35.9754
 20
-22.4039
 11
-35.7337
 21
-22.4459
  0
LINE
  8
0
 10
-35.7337
 20
-22.4459
 11
-35.4901
 21
-22.4759
  0
LINE
  8
0
 10
-35.4901
 20
-22.4759
 11
-35.2453
 21
-22.494
  0
LINE
  8
0
 10
-35.2453
 20
-22.494
 11
-35
 21
-22.5
  0
LINE
  8
0
 10
-35
 20
-22.5
 11
35
 21
-22.5
  0
LINE
  8
0
 10
35
 20
-22.5
 11
35.2453
 21
-22.494
  0
LINE
  8
0
 10
-37.5687
 20
18.1017
 11
-37.6372
 21
18.1067
  0
LINE
  8
0
 10
-37.6372
 20
18.1067
 11
-37.7054
 21
18.1151
  0
LINE
  8
0
 10
-37.7054
 20
18.1151
 11
-37.7731
 21
18.1269
  0
LINE
  8
0
 10
-37.7731
 20
18.1269
 11
-37.8402
 21
18.142
  0
LINE
  8
0
 10
-37.8402
 20
18.142
 11
-37.9064
 21
18.1603
  0
LINE
  8
0
 10
-37.9064
 20
18.1603
 11
-37.9716
 21
18.1818
  0
LINE
  8
0
 10
-37.9716
 20
18.1818
 11
-38.0358
 21
18.2066
  0
LINE
  8
0
 10
-38.0358
 20
18.2066
 11
-38.0986
 21
18.2344
  0
LINE
  8
0
 10
-38.0986
 20
18.2344
 11
-38.1599
 21
18.2653
  0
LINE
  8
0
 10
-38.1599
 20
18.2653
 11
-38.2197
 21
18.2992
  0
LINE
  8
0
 10
-38.2197
 20
18.2992
 11
-38.2778
 21
18.3359
  0
LINE
  8
0
 10
-38.2778
 20
18.3359
 11
-38.334
 21
18.3755
  0
LINE
  8
0
 10
-38.334
 20
18.3755
 11
-38.3881
 21
18.4178
  0
LINE
  8
0
 10
-38.3881
 20
18.4178
 11
-38.4402
 21
18.4627
  0
LINE
  8
0
 10
-38.4402
 20
18.4627
 11
-38.4899
 21
18.51
  0
LINE
  8
0
 10
-38.4899
 20
18.51
 11
-38.5373
 21
18.5598
  0
LINE
  8
0
 10
-38.5373
 20
18.5598
 11
-38.5822
 21
18.6118
  0
LINE
  8
0
 10
-38.5822
 20
18.6118
 11
-38.6245
 21
18.666
  0
LINE
  8
0
 10
-38.6245
 20
18.666
 11
-38.664
 21
18.7222
  0
LINE
  8
0
 10
-38.664
 20
18.7222
 11
-38.7008
 21
18.7802
  0
LINE
  8
0
 10
-38.7008
 20
18.7802
 11
-38.7347
 21
18.84
  0
LINE
  8
0
 10
-38.7347
 20
18.84
 11
-38.7656
 21
18.9014
  0
LINE
  8
0
 10
-38.7656
 20
18.9014
 11
-38.7934
 21
18.9642
  0
LINE
  8
0
 10
-38.7934
 20
18.9642
 11
-38.8182
 21
19.0284
  0
LINE
  8
0
 10
-38.8182
 20
19.0284
 11
-38.8397
 21
19.0936
  0
LINE
  8
0
 10
-38.8397
 20
19.0936
 11
-38.858
 21
19.1598
  0
LINE
  8
0
 10
-38.858
 20
19.1598
 11
-38.8731
 21
19.2269
  0
LINE
  8
0
 10
-38.8731
 20
19.2269
 11
-38.8848
 21
19.2946
  0
LINE
  8
0
 10
-38.8848
 20
19.2946
 11
-38.8932
 21
19.3628
  0
LINE
  8
0
 10
-38.8932
 20
19.3628
 11
-38.8983
 21
19.4313
  0
LINE
  8
0
 10
-38.8983
 20
19.4313
 11
-38.9
 21
19.5
  0
LINE
  8
0
 10
-38.9
 20
19.5
 11
-38.8983
 21
19.5687
  0
LINE
  8
0
 10
-38.8983
 20
19.5687
 11
-38.8932
 21
19.6372
  0
LINE
  8
0
 10
-38.8932
 20
19.6372
 11
-38.8848
 21
19.7054
  0
LINE
  8
0
 10
-38.8848
 20
19.7054
 11
-38.8731
 21
19.7731
  0
LINE
  8
0
 10
-38.8731
 20
19.7731
 11
-38.858
 21
19.8402
  0
LINE
  8
0
 10
-38.858
 20
19.8402
 11
-38.8397
 21
19.9064
  0
LINE
  8
0
 10
-38.8397
 20
19.9064
 11
-38.8182
 21
19.9716
  0
LINE
  8
0
 10
-38.8182
 20
19.9716
 11
-38.7934
 21
20.0358
  0
LINE
  8
0
 10
-38.7934
 20
20.0358
 11
-38.7656
 21
20.0986
  0
LINE
  8
0
 10
-38.7656
 20
20.0986
 11
-38.7347
 21
20.1599
  0
LINE
  8
0
 10
-38.7347
 20
20.1599
 11
-38.7008
 21
20.2197
  0
LINE
  8
0
 10
-38.7008
 20
20.2197
 11
-38.664
 21
20.2778
  0
LINE
  8
0
 10
-38.664
 20
20.2778
 11
-38.6245
 21
20.334
  0
LINE
  8
0
 10
-38.6245
 20
20.334
 11
-38.5822
 21
20.3881
  0
LINE
  8
0
 10
-38.5822
 20
20.3881
 11
-38.5373
 21
20.4402
  0
LINE
  8
0
 10
-38.5373
 20
20.4402
 11
-38.4899
 21
20.4899
  0
LINE
  8
0
 10
-38.4899
 20
20.4899
 11
-38.4402
 21
20.5373
  0
LINE
  8
0
 10
-38.4402
 20
20.5373
 11
-38.3881
 21
20.5822
  0
LINE
  8
0
 10
-38.3881
 20
20.5822
 11
-38.334
 21
20.6245
  0
LINE
  8
0
 10
-38.334
 20
20.6245
 11
-38.2778
 21
20.664
  0
LINE
  8
0
 10
-38.2778
 20
20.664
 11
-38.2197
 21
20.7008
  0
LINE
  8
0
 10
-38.2197
 20
20.7008
 11
-38.1599
 21
20.7347
  0
LINE
  8
0
 10
-38.1599
 20
20.7347
 11
-38.0986
 21
20.7656
  0
LINE
  8
0
 10
-38.0986
 20
20.7656
 11
-38.0358
 21
20.7934
  0
LINE
  8
0
 10
-38.0358
 20
20.7934
 11
-37.9716
 21
20.8182
  0
LINE
  8
0
 10
-37.9716
 20
20.8182
 11
-37.9064
 21
20.8397
  0
LINE
  8
0
 10
-37.9064
 20
20.8397
 11
-37.8402
 21
20.858
  0
LINE
  8
0
 10
-37.8402
 20
20.858
 11
-37.7731
 21
20.8731
  0
LINE
  8
0
 10
-37.7731
 20
20.8731
 11
-37.7054
 21
20.8848
  0
LINE
  8
0
 10
-37.7054
 20
20.8848
 11
-37.6372
 21
20.8932
  0
LINE
  8
0
 10
-37.6372
 20
20.8932
 11
-37.5687
 21
20.8983
  0
LINE
  8
0
 10
-37.5687
 20
20.8983
 11
-37.5
 21
20.9
  0
LINE
  8
0
 10
-37.5
 20
20.9
 11
-37.4313
 21
20.8983
  0
LINE
  8
0
 10
-37.4313
 20
20.8983
 11
-37.3628
 21
20.8932
  0
LINE
  8
0
 10
-37.3628
 20
20.8932
 11
-37.2946
 21
20.8848
  0
LINE
  8
0
 10
-37.2946
 20
20.8848
 11
-37.2269
 21
20.8731
  0
LINE
  8
0
 10
-37.2269
 20
20.8731
 11
-37.1598
 21
20.858
  0
LINE
  8
0
 10
-37.1598
 20
20.858
 11
-37.0936
 21
20.8397
  0
LINE
  8
0
 10
-37.0936
 20
20.8397
 11
-37.0284
 21
20.8182
  0
LINE
  8
0
 10
-37.0284
 20
20.8182
 11
-36.9642
 21
20.7934
  0
LINE
  8
0
 10
-36.9642
 20
20.7934
 11
-36.9014
 21
20.7656
  0
LINE
  8
0
 10
-36.9014
 20
20.7656
 11
-36.84
 21
20.7347
  0
LINE
  8
0
 10
-36.84
 20
20.7347
 11
-36.7802
 21
20.7008
  0
LINE
  8
0
 10
-36.7802
 20
20.7008
 11
-36.7222
 21
20.664
  0
LINE
  8
0
 10
-36.7222
 20
20.664
 11
-36.666
 21
20.6245
  0
LINE
  8
0
 10
-36.666
 20
20.6245
 11
-36.6118
 21
20.5822
  0
LINE
  8
0
 10
-36.6118
 20
20.5822
 11
-36.5598
 21
20.5373
  0
LINE
  8
0
 10
-36.5598
 20
20.5373
 11
-36.51
 21
20.4899
  0
LINE
  8
0
 10
-36.51
 20
20.4899
 11
-36.4627
 21
20.4402
  0
LINE
  8
0
 10
-36.4627
 20
20.4402
 11
-36.4178
 21
20.3881
  0
LINE
  8
0
 10
-36.4178
 20
20.3881
 11
-36.3755
 21
20.334
  0
LINE
  8
0
 10
-36.3755
 20
20.334
 11
-36.3359
 21
20.2778
  0
LINE
  8
0
 10
-36.3359
 20
20.2778
 11
-36.2992
 21
20.2197
  0
LINE
  8
0
 10
-36.2992
 20
20.2197
 11
-36.2653
 21
20.1599
  0
LINE
  8
0
 10
-36.2653
 20
20.1599
 11
-36.2344
 21
20.0986
  0
LINE
  8
0
 10
-36.2344
 20
20.0986
 11
-36.2066
 21
20.0358
  0
LINE
  8
0
 10
-36.2066
 20
20.0358
 11
-36.1818
 21
19.9716
  0
LINE
  8
0
 10
-36.1818
 20
19.9716
 11
-36.1603
 21
19.9064
  0
LINE
  8
0
 10
-36.1603
 20
19.9064
 11
-36.142
 21
19.8402
  0
LINE
  8
0
 10
-36.142
 20
19.8402
 11
-36.1269
 21
19.7731
  0
LINE
  8
0
 10
-36.1269
 20
19.7731
 11
-36.1151
 21
19.7054
  0
LINE
  8
0
 10
-36.1151
 20
19.7054
 11
-36.1067
 21
19.6372
  0
LINE
  8
0
 10
-36.1067
 20
19.6372
 11
-36.1017
 21
19.5687
  0
LINE
  8
0
 10
-36.1017
 20
19.5687
 11
-36.1
 21
19.5
  0
LINE
  8
0
 10
-36.1
 20
19.5
 11
-36.1017
 21
19.4313
  0
LINE
  8
0
 10
-36.1017
 20
19.4313
 11
-36.1067
 21
19.3628
  0
LINE
  8
0
 10
-36.1067
 20
19.3628
 11
-36.1151
 21
19.2946
  0
LINE
  8
0
 10
-36.1151
 20
19.2946
 11
-36.1269
 21
19.2269
  0
LINE
  8
0
 10
-36.1269
 20
19.2269
 11
-36.142
 21
19.1598
  0
LINE
  8
0
 10
-36.142
 20
19.1598
 11
-36.1603
 21
19.0936
  0
LINE
  8
0
 10
-36.1603
 20
19.0936
 11
-36.1818
 21
19.0284
  0
LINE
  8
0
 10
-36.1818
 20
19.0284
 11
-36.2066
 21
18.9642
  0
LINE
  8
0
 10
-36.2066
 20
18.9642
 11
-36.2344
 21
18.9014
  0
LINE
  8
0
 10
-36.2344
 20
18.9014
 11
-36.2653
 21
18.84
  0
LINE
  8
0
 10
-36.2653
 20
18.84
 11
-36.2992
 21
18.7802
  0
LINE
  8
0
 10
-36.2992
 20
18.7802
 11
-36.3359
 21
18.7222
  0
LINE
  8
0
 10
-36.3359
 20
18.7222
 11
-36.3755
 21
18.666
  0
LINE
  8
0
 10
-36.3755
 20
18.666
 11
-36.4178
 21
18.6118
  0
LINE
  8
0
 10
-36.4178
 20
18.6118
 11
-36.4627
 21
18.5598
  0
LINE
  8
0
 10
-36.4627
 20
18.5598
 11
-36.51
 21
18.51
  0
LINE
  8
0
 10
-36.51
 20
18.51
 11
-36.5598
 21
18.4627
  0
LINE
  8
0
 10
-36.5598
 20
18.4627
 11
-36.6118
 21
18.4178
  0
LINE
  8
0
 10
-36.6118
 20
18.4178
 11
-36.666
 21
18.3755
  0
LINE
  8
0
 10
-36.666
 20
18.3755
 11
-36.7222
 21
18.3359
  0
LINE
  8
0
 10
-36.7222
 20
18.3359
 11
-36.7802
 21
18.2992
  0
LINE
  8
0
 10
-36.7802
 20
18.2992
 11
-36.84
 21
18.2653
  0
LINE
  8
0
 10
-36.84
 20
18.2653
 11
-36.9014
 21
18.2344
  0
LINE
  8
0
 10
-36.9014
 20
18.2344
 11
-36.9642
 21
18.2066
  0
LINE
  8
0
 10
-36.9642
 20
18.2066
 11
-37.0284
 21
18.1818
  0
LINE
  8
0
 10
-37.0284
 20
18.1818
 11
-37.0936
 21
18.1603
  0
LINE
  8
0
 10
-37.0936
 20
18.1603
 11
-37.1598
 21
18.142
  0
LINE
  8
0
 10
-37.1598
 20
18.142
 11
-37.2269
 21
18.1269
  0
LINE
  8
0
 10
-37.2269
 20
18.1269
 11
-37.2946
 21
18.1151
  0
LINE
  8
0
 10
-37.2946
 20
18.1151
 11
-37.3628
 21
18.1067
  0
LINE
  8
0
 10
-37.3628
 20
18.1067
 11
-37.4313
 21
18.1017
  0
LINE
  8
0
 10
-37.4313
 20
18.1017
 11
-37.5
 21
18.1
  0
LINE
  8
0
 10
-37.5
 20
18.1
 11
-37.5687
 21
18.1017
  0
LINE
  8
0
 10
37.4313
 20
18.1017
 11
37.3628
 21
18.1067
  0
LINE
  8
0
 10
37.3628
 20
18.1067
 11
37.2946
 21
18.1151
  0
LINE
  8
0
 10
37.2946
 20
18.1151
 11
37.2269
 21
18.1269
  0
LINE
  8
0
 10
37.2269
 20
18.1269
 11
37.1598
 21
18.142
  0
LINE
  8
0
 10
37.1598
 20
18.142
 11
37.0936
 21
18.1603
  0
LINE
  8
0
 10
37.0936
 20
18.1603
 11
37.0284
 21
18.1818
  0
LINE
  8
0
 10
37.0284
 20
18.1818
 11
36.9642
 21
18.2066
  0
LINE
  8
0
 10
36.9642
 20
18.2066
 11
36.9014
 21
18.2344
  0
LINE
  8
0
 10
36.9014
 20
18.2344
 11
36.84
 21
18.2653
  0
LINE
  8
0
 10
36.84
 20
18.2653
 11
36.7802
 21
18.2992
  0
LINE
  8
0
 10
36.7802
 20
18.2992
 11
36.7222
 21
18.3359
  0
LINE
  8
0
 10
36.7222
 20
18.3359
 11
36.666
 21
18.3755
  0
LINE
  8
0
 10
36.666
 20
18.3755
 11
36.6118
 21
18.4178
  0
LINE
  8
0
 10
36.6118
 20
18.4178
 11
36.5598
 21
18.4627
  0
LINE
  8
0
 10
36.5598
 20
18.4627
 11
36.51
 21
18.51
  0
LINE
  8
0
 10
36.51
 20
18.51
 11
36.4627
 21
18.5598
  0
LINE
  8
0
 10
36.4627
 20
18.5598
 11
36.4178
 21
18.6118
  0
LINE
  8
0
 10
36.4178
 20
18.6118
 11
36.3755
 21
18.666
  0
LINE
  8
0
 10
36.3755
 20
18.666
 11
36.3359
 21
18.7222
  0
LINE
  8
0
 10
36.3359
 20
18.7222
 11
36.2992
 21
18.7802
  0
LINE
  8
0
 10
36.2992
 20
18.7802
 11
36.2653
 21
18.84
  0
LINE
  8
0
 10
36.2653
 20
18.84
 11
36.2344
 21
18.9014
  0
LINE
  8
0
 10
36.2344
 20
18.9014
 11
36.2066
 21
18.9642
  0
LINE
  8
0
 10
36.2066
 20
18.9642
 11
36.1818
 21
19.0284
  0
LINE
  8
0
 10
36.1818
 20
19.0284
 11
36.1603
 21
19.0936
  0
LINE
  8
0
 10
36.1603
 20
19.0936
 11
36.142
 21
19.1598
  0
LINE
  8
0
 10
36.142
 20
19.1598
 11
36.1269
 21
19.2269
  0
LINE
  8
0
 10
36.1269
 20
19.2269
 11
36.1151
 21
19.2946
  0
LINE
  8
0
 10
36.1151
 20
19.2946
 11
36.1067
 21
19.3628
  0
LINE
  8
0
 10
36.1067
 20
19.3628
 11
36.1017
 21
19.4313
  0
LINE
  8
0
 10
36.1017
 20
19.4313
 11
36.1
 21
19.5
  0
LINE
  8
0
 10
36.1
 20
19.5
 11
36.1017
 21
19.5687
  0
LINE
  8
0
 10
36.1017
 20
19.5687
 11
36.1067
 21
19.6372
  0
LINE
  8
0
 10
36.1067
 20
19.6372
 11
36.1151
 21
19.7054
  0
LINE
  8
0
 10
36.1151
 20
19.7054
 11
36.1269
 21
19.7731
  0
LINE
  8
0
 10
36.1269
 20
19.7731
 11
36.142
 21
19.8402
  0
LINE
  8
0
 10
36.142
 20
19.8402
 11
36.1603
 21
19.9064
  0
LINE
  8
0
 10
36.1603
 20
19.9064
 11
36.1818
 21
19.9716
  0
LINE
  8
0
 10
36.1818
 20
19.9716
 11
36.2066
 21
20.0358
  0
LINE
  8
0
 10
36.2066
 20
20.0358
 11
36.2344
 21
20.0986
  0
LINE
  8
0
 10
36.2344
 20
20.0986
 11
36.2653
 21
20.1599
  0
LINE
  8
0
 10
36.2653
 20
20.1599
 11
36.2992
 21
20.2197
  0
LINE
  8
0
 10
36.2992
 20
20.2197
 11
36.3359
 21
20.2778
  0
LINE
  8
0
 10
36.3359
 20
20.2778
 11
36.3755
 21
20.334
  0
LINE
  8
0
 10
36.3755
 20
20.334
 11
36.4178
 21
20.3881
  0
LINE
  8
0
 10
36.4178
 20
20.3881
 11
36.4627
 21
20.4402
  0
LINE
  8
0
 10
36.4627
 20
20.4402
 11
36.51
 21
20.4899
  0
LINE
  8
0
 10
36.51
 20
20.4899
 11
36.5598
 21
20.5373
  0
LINE
  8
0
 10
36.5598
 20
20.5373
 11
36.6118
 21
20.5822
  0
LINE
  8
0
 10
36.6118
 20
20.5822
 11
36.666
 21
20.6245
  0
LINE
  8
0
 10
36.666
 20
20.6245
 11
36.7222
 21
20.664
  0
LINE
  8
0
 10
36.7222
 20
20.664
 11
36.7802
 21
20.7008
  0
LINE
  8
0
 10
36.7802
 20
20.7008
 11
36.84
 21
20.7347
  0
LINE
  8
0
 10
36.84
 20
20.7347
 11
36.9014
 21
20.7656
  0
LINE
  8
0
 10
36.9014
 20
20.7656
 11
36.9642
 21
20.7934
  0
LINE
  8
0
 10
36.9642
 20
20.7934
 11
37.0284
 21
20.8182
  0
LINE
  8
0
 10
37.0284
 20
20.8182
 11
37.0936
 21
20.8397
  0
LINE
  8
0
 10
37.0936
 20
20.8397
 11
37.1598
 21
20.858
  0
LINE
  8
0
 10
37.1598
 20
20.858
 11
37.2269
 21
20.8731
  0
LINE
  8
0
 10
37.2269
 20
20.8731
 11
37.2946
 21
20.8848
  0
LINE
  8
0
 10
37.2946
 20
20.8848
 11
37.3628
 21
20.8932
  0
LINE
  8
0
 10
37.3628
 20
20.8932
 11
37.4313
 21
20.8983
  0
LINE
  8
0
 10
37.4313
 20
20.8983
 11
37.5
 21
20.9
  0
LINE
  8
0
 10
37.5
 20
20.9
 11
37.5687
 21
20.8983
  0
LINE
  8
0
 10
37.5687
 20
20.8983
 11
37.6372
 21
20.8932
  0
LINE
  8
0
 10
37.6372
 20
20.8932
 11
37.7054
 21
20.8848
  0
LINE
  8
0
 10
37.7054
 20
20.8848
 11
37.7731
 21
20.8731
  0
LINE
  8
0
 10
37.7731
 20
20.8731
 11
37.8402
 21
20.858
  0
LINE
  8
0
 10
37.8402
 20
20.858
 11
37.9064
 21
20.8397
  0
LINE
  8
0
 10
37.9064
 20
20.8397
 11
37.9716
 21
20.8182
  0
LINE
  8
0
 10
37.9716
 20
20.8182
 11
38.0358
 21
20.7934
  0
LINE
  8
0
 10
38.0358
 20
20.7934
 11
38.0986
 21
20.7656
  0
LINE
  8
0
 10
38.0986
 20
20.7656
 11
38.1599
 21
20.7347
  0
LINE
  8
0
 10
38.1599
 20
20.7347
 11
38.2197
 21
20.7008
  0
LINE
  8
0
 10
38.2197
 20
20.7008
 11
38.2778
 21
20.664
  0
LINE
  8
0
 10
38.2778
 20
20.664
 11
38.334
 21
20.6245
  0
LINE
  8
0
 10
38.334
 20
20.6245
 11
38.3881
 21
20.5822
  0
LINE
  8
0
 10
38.3881
 20
20.5822
 11
38.4402
 21
20.5373
  0
LINE
  8
0
 10
38.4402
 20
20.5373
 11
38.4899
 21
20.4899
  0
LINE
  8
0
 10
38.4899
 20
20.4899
 11
38.5373
 21
20.4402
  0
LINE
  8
0
 10
38.5373
 20
20.4402
 11
38.5822
 21
20.3881
  0
LINE
  8
0
 10
38.5822
 20
20.3881
 11
38.6245
 21
20.334
  0
LINE
  8
0
 10
38.6245
 20
20.334
 11
38.664
 21
20.2778
  0
LINE
  8
0
 10
38.664
 20
20.2778
 11
38.7008
 21
20.2197
  0
LINE
  8
0
 10
38.7008
 20
20.2197
 11
38.7347
 21
20.1599
  0
LINE
  8
0
 10
38.7347
 20
20.1599
 11
38.7656
 21
20.0986
  0
LINE
  8
0
 10
38.7656
 20
20.0986
 11
38.7934
 21
20.0358
  0
LINE
  8
0
 10
38.7934
 20
20.0358
 11
38.8182
 21
19.9716
  0
LINE
  8
0
 10
38.8182
 20
19.9716
 11
38.8397
 21
19.9064
  0
LINE
  8
0
 10
38.8397
 20
19.9064
 11
38.858
 21
19.8402
  0
LINE
  8
0
 10
38.858
 20
19.8402
 11
38.8731
 21
19.7731
  0
LINE
  8
0
 10
38.8731
 20
19.7731
 11
38.8848
 21
19.7054
  0
LINE
  8
0
 10
38.8848
 20
19.7054
 11
38.8932
 21
19.6372
  0
LINE
  8
0
 10
38.8932
 20
19.6372
 11
38.8983
 21
19.5687
  0
LINE
  8
0
 10
38.8983
 20
19.5687
 11
38.9
 21
19.5
  0
LINE
  8
0
 10
38.9
 20
19.5
 11
38.8983
 21
19.4313
  0
LINE
  8
0
 10
38.8983
 20
19.4313
 11
38.8932
 21
19.3628
  0
LINE
  8
0
 10
38.8932
 20
19.3628
 11
38.8848
 21
19.2946
  0
LINE
  8
0
 10
38.8848
 20
19.2946
 11
38.8731
 21
19.2269
  0
LINE
  8
0
 10
38.8731
 20
19.2269
 11
38.858
 21
19.1598
  0
LINE
  8
0
 10
38.858
 20
19.1598
 11
38.8397
 21
19.0936
  0
LINE
  8
0
 10
38.8397
 20
19.0936
 11
38.8182
 21
19.0284
  0
LINE
  8
0
 10
38.8182
 20
19.0284
 11
38.7934
 21
18.9642
  0
LINE
  8
0
 10
38.7934
 20
18.9642
 11
38.7656
 21
18.9014
  0
LINE
  8
0
 10
38.7656
 20
18.9014
 11
38.7347
 21
18.84
  0
LINE
  8
0
 10
38.7347
 20
18.84
 11
38.7008
 21
18.7802
  0
LINE
  8
0
 10
38.7008
 20
18.7802
 11
38.664
 21
18.7222
  0
LINE
  8
0
 10
38.664
 20
18.7222
 11
38.6245
 21
18.666
  0
LINE
  8
0
 10
38.6245
 20
18.666
 11
38.5822
 21
18.6118
  0
LINE
  8
0
 10
38.5822
 20
18.6118
 11
38.5373
 21
18.5598
  0
LINE
  8
0
 10
38.5373
 20
18.5598
 11
38.4899
 21
18.51
  0
LINE
  8
0
 10
38.4899
 20
18.51
 11
38.4402
 21
18.4627
  0
LINE
  8
0
 10
38.4402
 20
18.4627
 11
38.3881
 21
18.4178
  0
LINE
  8
0
 10
38.3881
 20
18.4178
 11
38.334
 21
18.3755
  0
LINE
  8
0
 10
38.334
 20
18.3755
 11
38.2778
 21
18.3359
  0
LINE
  8
0
 10
38.2778
 20
18.3359
 11
38.2197
 21
18.2992
  0
LINE
  8
0
 10
38.2197
 20
18.2992
 11
38.1599
 21
18.2653
  0
LINE
  8
0
 10
38.1599
 20
18.2653
 11
38.0986
 21
18.2344
  0
LINE
  8
0
 10
38.0986
 20
18.2344
 11
38.0358
 21
18.2066
  0
LINE
  8
0
 10
38.0358
 20
18.2066
 11
37.9716
 21
18.1818
  0
LINE
  8
0
 10
37.9716
 20
18.1818
 11
37.9064
 21
18.1603
  0
LINE
  8
0
 10
37.9064
 20
18.1603
 11
37.8402
 21
18.142
  0
LINE
  8
0
 10
37.8402
 20
18.142
 11
37.7731
 21
18.1269
  0
LINE
  8
0
 10
37.7731
 20
18.1269
 11
37.7054
 21
18.1151
  0
LINE
  8
0
 10
37.7054
 20
18.1151
 11
37.6372
 21
18.1067
  0
LINE
  8
0
 10
37.6372
 20
18.1067
 11
37.5687
 21
18.1017
  0
LINE
  8
0
 10
37.5687
 20
18.1017
 11
37.5
 21
18.1
  0
LINE
  8
0
 10
37.5
 20
18.1
 11
37.4313
 21
18.1017
  0
LINE
  8
0
 10
-31.0736
 20
-2.49818
 11
-31.147
 21
-2.49277
  0
LINE
  8
0
 10
-31.147
 20
-2.49277
 11
-31.2201
 21
-2.48376
  0
LINE
  8
0
 10
-31.2201
 20
-2.48376
 11
-31.2926
 21
-2.47118
  0
LINE
  8
0
 10
-31.2926
 20
-2.47118
 11
-31.3645
 21
-2.45503
  0
LINE
  8
0
 10
-31.3645
 20
-2.45503
 11
-31.4354
 21
-2.43541
  0
LINE
  8
0
 10
-31.4354
 20
-2.43541
 11
-31.5053
 21
-2.41231
  0
LINE
  8
0
 10
-31.5053
 20
-2.41231
 11
-31.574
 21
-2.38582
  0
LINE
  8
0
 10
-31.574
 20
-2.38582
 11
-31.6413
 21
-2.35597
  0
LINE
  8
0
 10
-31.6413
 20
-2.35597
 11
-31.7071
 21
-2.32288
  0
LINE
  8
0
 10
-31.7071
 20
-2.32288
 11
-31.7711
 21
-2.28659
  0
LINE
  8
0
 10
-31.7711
 20
-2.28659
 11
-31.8333
 21
-2.24719
  0
LINE
  8
0
 10
-31.8333
 20
-2.24719
 11
-31.8935
 21
-2.2048
  0
LINE
  8
0
 10
-31.8935
 20
-2.2048
 11
-31.9516
 21
-2.15952
  0
LINE
  8
0
 10
-31.9516
 20
-2.15952
 11
-32.0073
 21
-2.11142
  0
LINE
  8
0
 10
-32.0073
 20
-2.11142
 11
-32.0607
 21
-2.06065
  0
LINE
  8
0
 10
-32.0607
 20
-2.06065
 11
-32.1114
 21
-2.00732
  0
LINE
  8
0
 10
-32.1114
 20
-2.00732
 11
-32.1595
 21
-1.95158
  0
LINE
  8
0
 10
-32.1595
 20
-1.95158
 11
-32.2048
 21
-1.89354
  0
LINE
  8
0
 10
-32.2048
 20
-1.89354
 11
-32.2472
 21
-1.83334
  0
LINE
  8
0
 10
-32.2472
 20
-1.83334
 11
-32.2866
 21
-1.77115
  0
LINE
  8
0
 10
-32.2866
 20
-1.77115
 11
-32.3229
 21
-1.70709
  0
LINE
  8
0
 10
-32.3229
 20
-1.70709
 11
-32.356
 21
-1.64133
  0
LINE
  8
0
 10
-32.356
 20
-1.64133
 11
-32.3858
 21
-1.57402
  0
LINE
  8
0
 10
-32.3858
 20
-1.57402
 11
-32.4123
 21
-1.50533
  0
LINE
  8
0
 10
-32.4123
 20
-1.50533
 11
-32.4354
 21
-1.43542
  0
LINE
  8
0
 10
-32.4354
 20
-1.43542
 11
-32.455
 21
-1.36446
  0
LINE
  8
0
 10
-32.455
 20
-1.36446
 11
-32.4712
 21
-1.29263
  0
LINE
  8
0
 10
-32.4712
 20
-1.29263
 11
-32.4838
 21
-1.22009
  0
LINE
  8
0
 10
-32.4838
 20
-1.22009
 11
-32.4928
 21
-1.14702
  0
LINE
  8
0
 10
-32.4928
 20
-1.14702
 11
-32.4982
 21
-1.07359
  0
LINE
  8
0
 10
-32.4982
 20
-1.07359
 11
-32.5
 21
-1
  0
LINE
  8
0
 10
-32.5
 20
-1
 11
-32.4982
 21
-0.926392
  0
LINE
  8
0
 10
-32.4982
 20
-0.926392
 11
-32.4928
 21
-0.852966
  0
LINE
  8
0
 10
-32.4928
 20
-0.852966
 11
-32.4838
 21
-0.779892
  0
LINE
  8
0
 10
-32.4838
 20
-0.779892
 11
-32.4712
 21
-0.707352
  0
LINE
  8
0
 10
-32.4712
 20
-0.707352
 11
-32.455
 21
-0.635529
  0
LINE
  8
0
 10
-32.455
 20
-0.635529
 11
-32.4354
 21
-0.56456
  0
LINE
  8
0
 10
-32.4354
 20
-0.56456
 11
-32.4123
 21
-0.494659
  0
LINE
  8
0
 10
-32.4123
 20
-0.494659
 11
-32.3858
 21
-0.425964
  0
LINE
  8
0
 10
-32.3858
 20
-0.425964
 11
-32.356
 21
-0.358658
  0
LINE
  8
0
 10
-32.356
 20
-0.358658
 11
-32.3229
 21
-0.292892
  0
LINE
  8
0
 10
-32.3229
 20
-0.292892
 11
-32.2866
 21
-0.228836
  0
LINE
  8
0
 10
-32.2866
 20
-0.228836
 11
-32.2472
 21
-0.166641
  0
LINE
  8
0
 10
-32.2472
 20
-0.166641
 11
-32.2048
 21
-0.106445
  0
LINE
  8
0
 10
-32.2048
 20
-0.106445
 11
-32.1595
 21
-0.0484009
  0
LINE
  8
0
 10
-32.1595
 20
-0.0484009
 11
-32.1114
 21
0.00732422
  0
LINE
  8
0
 10
-32.1114
 20
0.00732422
 11
-32.0607
 21
0.0606537
  0
LINE
  8
0
 10
-32.0607
 20
0.0606537
 11
-32.0073
 21
0.11142
  0
LINE
  8
0
 10
-32.0073
 20
0.11142
 11
-31.9516
 21
0.159515
  0
LINE
  8
0
 10
-31.9516
 20
0.159515
 11
-31.8935
 21
0.204803
  0
LINE
  8
0
 10
-31.8935
 20
0.204803
 11
-31.8333
 21
0.247192
  0
LINE
  8
0
 10
-31.8333
 20
0.247192
 11
-31.7711
 21
0.286591
  0
LINE
  8
0
 10
-31.7711
 20
0.286591
 11
-31.7071
 21
0.322876
  0
LINE
  8
0
 10
-31.7071
 20
0.322876
 11
-31.6413
 21
0.355972
  0
LINE
  8
0
 10
-31.6413
 20
0.355972
 11
-31.574
 21
0.385818
  0
LINE
  8
0
 10
-31.574
 20
0.385818
 11
-31.5053
 21
0.412308
  0
LINE
  8
0
 10
-31.5053
 20
0.412308
 11
-31.4354
 21
0.43541
  0
LINE
  8
0
 10
-31.4354
 20
0.43541
 11
-31.3645
 21
0.455032
  0
LINE
  8
0
 10
-31.3645
 20
0.455032
 11
-31.2926
 21
0.471176
  0
LINE
  8
0
 10
-31.2926
 20
0.471176
 11
-31.2201
 21
0.483765
  0
LINE
  8
0
 10
-31.2201
 20
0.483765
 11
-31.147
 21
0.492767
  0
LINE
  8
0
 10
-31.147
 20
0.492767
 11
-31.0736
 21
0.498184
  0
LINE
  8
0
 10
-31.0736
 20
0.498184
 11
-31
 21
0.5
  0
LINE
  8
0
 10
-31
 20
0.5
 11
-30.9264
 21
0.498184
  0
LINE
  8
0
 10
-30.9264
 20
0.498184
 11
-30.853
 21
0.492767
  0
LINE
  8
0
 10
-30.853
 20
0.492767
 11
-30.7799
 21
0.483765
  0
LINE
  8
0
 10
-30.7799
 20
0.483765
 11
-30.7074
 21
0.471176
  0
LINE
  8
0
 10
-30.7074
 20
0.471176
 11
-30.6355
 21
0.455032
  0
LINE
  8
0
 10
-30.6355
 20
0.455032
 11
-30.5646
 21
0.43541
  0
LINE
  8
0
 10
-30.5646
 20
0.43541
 11
-30.4947
 21
0.412308
  0
LINE
  8
0
 10
-30.4947
 20
0.412308
 11
-30.426
 21
0.385818
  0
LINE
  8
0
 10
-30.426
 20
0.385818
 11
-30.3587
 21
0.355972
  0
LINE
  8
0
 10
-30.3587
 20
0.355972
 11
-30.2929
 21
0.322876
  0
LINE
  8
0
 10
-30.2929
 20
0.322876
 11
-30.2288
 21
0.286591
  0
LINE
  8
0
 10
-30.2288
 20
0.286591
 11
-30.1666
 21
0.247192
  0
LINE
  8
0
 10
-30.1666
 20
0.247192
 11
-30.1064
 21
0.204803
  0
LINE
  8
0
 10
-30.1064
 20
0.204803
 11
-30.0484
 21
0.159515
  0
LINE
  8
0
 10
-30.0484
 20
0.159515
 11
-29.9927
 21
0.11142
  0
LINE
  8
0
 10
-29.9927
 20
0.11142
 11
-29.9393
 21
0.0606537
  0
LINE
  8
0
 10
-29.9393
 20
0.0606537
 11
-29.8886
 21
0.00732422
  0
LINE
  8
0
 10
-29.8886
 20
0.00732422
 11
-29.8405
 21
-0.0484009
  0
LINE
  8
0
 10
-29.8405
 20
-0.0484009
 11
-29.7952
 21
-0.106445
  0
LINE
  8
0
 10
-29.7952
 20
-0.106445
 11
-29.7528
 21
-0.166641
  0
LINE
  8
0
 10
-29.7528
 20
-0.166641
 11
-29.7134
 21
-0.228836
  0
LINE
  8
0
 10
-29.7134
 20
-0.228836
 11
-29.6771
 21
-0.292892
  0
LINE
  8
0
 10
-29.6771
 20
-0.292892
 11
-29.644
 21
-0.358658
  0
LINE
  8
0
 10
-29.644
 20
-0.358658
 11
-29.6142
 21
-0.425964
  0
LINE
  8
0
 10
-29.6142
 20
-0.425964
 11
-29.5877
 21
-0.494659
  0
LINE
  8
0
 10
-29.5877
 20
-0.494659
 11
-29.5646
 21
-0.56456
  0
LINE
  8
0
 10
-29.5646
 20
-0.56456
 11
-29.545
 21
-0.635529
  0
LINE
  8
0
 10
-29.545
 20
-0.635529
 11
-29.5288
 21
-0.707352
  0
LINE
  8
0
 10
-29.5288
 20
-0.707352
 11
-29.5162
 21
-0.779892
  0
LINE
  8
0
 10
-29.5162
 20
-0.779892
 11
-29.5072
 21
-0.852966
  0
LINE
  8
0
 10
-29.5072
 20
-0.852966
 11
-29.5018
 21
-0.926392
  0
LINE
  8
0
 10
-29.5018
 20
-0.926392
 11
-29.5
 21
-1
  0
LINE
  8
0
 10
-29.5
 20
-1
 11
-29.5018
 21
-1.07359
  0
LINE
  8
0
 10
-29.5018
 20
-1.07359
 11
-29.5072
 21
-1.14702
  0
LINE
  8
0
 10
-29.5072
 20
-1.14702
 11
-29.5162
 21
-1.22009
  0
LINE
  8
0
 10
-29.5162
 20
-1.22009
 11
-29.5288
 21
-1.29263
  0
LINE
  8
0
 10
-29.5288
 20
-1.29263
 11
-29.545
 21
-1.36446
  0
LINE
  8
0
 10
-29.545
 20
-1.36446
 11
-29.5646
 21
-1.43542
  0
LINE
  8
0
 10
-29.5646
 20
-1.43542
 11
-29.5877
 21
-1.50533
  0
LINE
  8
0
 10
-29.5877
 20
-1.50533
 11
-29.6142
 21
-1.57402
  0
LINE
  8
0
 10
-29.6142
 20
-1.57402
 11
-29.644
 21
-1.64133
  0
LINE
  8
0
 10
-29.644
 20
-1.64133
 11
-29.6771
 21
-1.70709
  0
LINE
  8
0
 10
-29.6771
 20
-1.70709
 11
-29.7134
 21
-1.77115
  0
LINE
  8
0
 10
-29.7134
 20
-1.77115
 11
-29.7528
 21
-1.83334
  0
LINE
  8
0
 10
-29.7528
 20
-1.83334
 11
-29.7952
 21
-1.89354
  0
LINE
  8
0
 10
-29.7952
 20
-1.89354
 11
-29.8405
 21
-1.95158
  0
LINE
  8
0
 10
-29.8405
 20
-1.95158
 11
-29.8886
 21
-2.00732
  0
LINE
  8
0
 10
-29.8886
 20
-2.00732
 11
-29.9393
 21
-2.06065
  0
LINE
  8
0
 10
-29.9393
 20
-2.06065
 11
-29.9927
 21
-2.11142
  0
LINE
  8
0
 10
-29.9927
 20
-2.11142
 11
-30.0484
 21
-2.15952
  0
LINE
  8
0
 10
-30.0484
 20
-2.15952
 11
-30.1064
 21
-2.2048
  0
LINE
  8
0
 10
-30.1064
 20
-2.2048
 11
-30.1666
 21
-2.24719
  0
LINE
  8
0
 10
-30.1666
 20
-2.24719
 11
-30.2288
 21
-2.28659
  0
LINE
  8
0
 10
-30.2288
 20
-2.28659
 11
-30.2929
 21
-2.32288
  0
LINE
  8
0
 10
-30.2929
 20
-2.32288
 11
-30.3587
 21
-2.35597
  0
LINE
  8
0
 10
-30.3587
 20
-2.35597
 11
-30.426
 21
-2.38582
  0
LINE
  8
0
 10
-30.426
 20
-2.38582
 11
-30.4947
 21
-2.41231
  0
LINE
  8
0
 10
-30.4947
 20
-2.41231
 11
-30.5646
 21
-2.43541
  0
LINE
  8
0
 10
-30.5646
 20
-2.43541
 11
-30.6355
 21
-2.45503
  0
LINE
  8
0
 10
-30.6355
 20
-2.45503
 11
-30.7074
 21
-2.47118
  0
LINE
  8
0
 10
-30.7074
 20
-2.47118
 11
-30.7799
 21
-2.48376
  0
LINE
  8
0
 10
-30.7799
 20
-2.48376
 11
-30.853
 21
-2.49277
  0
LINE
  8
0
 10
-30.853
 20
-2.49277
 11
-30.9264
 21
-2.49818
  0
LINE
  8
0
 10
-30.9264
 20
-2.49818
 11
-31
 21
-2.5
  0
LINE
  8
0
 10
-31
 20
-2.5
 11
-31.0736
 21
-2.49818
  0
LINE
  8
0
 10
30.9264
 20
-2.49818
 11
30.853
 21
-2.49277
  0
LINE
  8
0
 10
30.853
 20
-2.49277
 11
30.7799
 21
-2.48376
  0
LINE
  8
0
 10
30.7799
 20
-2.48376
 11
30.7074
 21
-2.47118
  0
LINE
  8
0
 10
30.7074
 20
-2.47118
 11
30.6355
 21
-2.45503
  0
LINE
  8
0
 10
30.6355
 20
-2.45503
 11
30.5646
 21
-2.43541
  0
LINE
  8
0
 10
30.5646
 20
-2.43541
 11
30.4947
 21
-2.41231
  0
LINE
  8
0
 10
30.4947
 20
-2.41231
 11
30.426
 21
-2.38582
  0
LINE
  8
0
 10
30.426
 20
-2.38582
 11
30.3587
 21
-2.35597
  0
LINE
  8
0
 10
30.3587
 20
-2.35597
 11
30.2929
 21
-2.32288
  0
LINE
  8
0
 10
30.2929
 20
-2.32288
 11
30.2288
 21
-2.28659
  0
LINE
  8
0
 10
30.2288
 20
-2.28659
 11
30.1666
 21
-2.24719
  0
LINE
  8
0
 10
30.1666
 20
-2.24719
 11
30.1064
 21
-2.2048
  0
LINE
  8
0
 10
30.1064
 20
-2.2048
 11
30.0484
 21
-2.15952
  0
LINE
  8
0
 10
30.0484
 20
-2.15952
 11
29.9927
 21
-2.11142
  0
LINE
  8
0
 10
29.9927
 20
-2.11142
 11
29.9393
 21
-2.06065
  0
LINE
  8
0
 10
29.9393
 20
-2.06065
 11
29.8886
 21
-2.00732
  0
LINE
  8
0
 10
29.8886
 20
-2.00732
 11
29.8405
 21
-1.95158
  0
LINE
  8
0
 10
29.8405
 20
-1.95158
 11
29.7952
 21
-1.89354
  0
LINE
  8
0
 10
29.7952
 20
-1.89354
 11
29.7528
 21
-1.83334
  0
LINE
  8
0
 10
29.7528
 20
-1.83334
 11
29.7134
 21
-1.77115
  0
LINE
  8
0
 10
29.7134
 20
-1.77115
 11
29.6771
 21
-1.70709
  0
LINE
  8
0
 10
29.6771
 20
-1.70709
 11
29.644
 21
-1.64133
  0
LINE
  8
0
 10
29.644
 20
-1.64133
 11
29.6142
 21
-1.57402
  0
LINE
  8
0
 10
29.6142
 20
-1.57402
 11
29.5877
 21
-1.50533
  0
LINE
  8
0
 10
29.5877
 20
-1.50533
 11
29.5646
 21
-1.43542
  0
LINE
  8
0
 10
29.5646
 20
-1.43542
 11
29.545
 21
-1.36446
  0
LINE
  8
0
 10
29.545
 20
-1.36446
 11
29.5288
 21
-1.29263
  0
LINE
  8
0
 10
29.5288
 20
-1.29263
 11
29.5162
 21
-1.22009
  0
LINE
  8
0
 10
29.5162
 20
-1.22009
 11
29.5072
 21
-1.14702
  0
LINE
  8
0
 10
29.5072
 20
-1.14702
 11
29.5018
 21
-1.07359
  0
LINE
  8
0
 10
29.5018
 20
-1.07359
 11
29.5
 21
-1
  0
LINE
  8
0
 10
29.5
 20
-1
 11
29.5018
 21
-0.926392
  0
LINE
  8
0
 10
29.5018
 20
-0.926392
 11
29.5072
 21
-0.852966
  0
LINE
  8
0
 10
29.5072
 20
-0.852966
 11
29.5162
 21
-0.779892
  0
LINE
  8
0
 10
29.5162
 20
-0.779892
 11
29.5288
 21
-0.707352
  0
LINE
  8
0
 10
29.5288
 20
-0.707352
 11
29.545
 21
-0.635529
  0
LINE
  8
0
 10
29.545
 20
-0.635529
 11
29.5646
 21
-0.56456
  0
LINE
  8
0
 10
29.5646
 20
-0.56456
 11
29.5877
 21
-0.494659
  0
LINE
  8
0
 10
29.5877
 20
-0.494659
 11
29.6142
 21
-0.425964
  0
LINE
  8
0
 10
29.6142
 20
-0.425964
 11
29.644
 21
-0.358658
  0
LINE
  8
0
 10
29.644
 20
-0.358658
 11
29.6771
 21
-0.292892
  0
LINE
  8
0
 10
29.6771
 20
-0.292892
 11
29.7134
 21
-0.228836
  0
LINE
  8
0
 10
29.7134
 20
-0.228836
 11
29.7528
 21
-0.166641
  0
LINE
  8
0
 10
29.7528
 20
-0.166641
 11
29.7952
 21
-0.106445
  0
LINE
  8
0
 10
29.7952
 20
-0.106445
 11
29.8405
 21
-0.0484009
  0
LINE
  8
0
 10
29.8405
 20
-0.0484009
 11
29.8886
 21
0.00732422
  0
LINE
  8
0
 10
29.8886
 20
0.00732422
 11
29.9393
 21
0.0606537
  0
LINE
  8
0
 10
29.9393
 20
0.0606537
 11
29.9927
 21
0.11142
  0
LINE
  8
0
 10
29.9927
 20
0.11142
 11
30.0484
 21
0.159515
  0
LINE
  8
0
 10
30.0484
 20
0.159515
 11
30.1064
 21
0.204803
  0
LINE
  8
0
 10
30.1064
 20
0.204803
 11
30.1666
 21
0.247192
  0
LINE
  8
0
 10
30.1666
 20
0.247192
 11
30.2288
 21
0.286591
  0
LINE
  8
0
 10
30.2288
 20
0.286591
 11
30.2929
 21
0.322876
  0
LINE
  8
0
 10
30.2929
 20
0.322876
 11
30.3587
 21
0.355972
  0
LINE
  8
0
 10
30.3587
 20
0.355972
 11
30.426
 21
0.385818
  0
LINE
  8
0
 10
30.426
 20
0.385818
 11
30.4947
 21
0.412308
  0
LINE
  8
0
 10
30.4947
 20
0.412308
 11
30.5646
 21
0.43541
  0
LINE
  8
0
 10
30.5646
 20
0.43541
 11
30.6355
 21
0.455032
  0
LINE
  8
0
 10
30.6355
 20
0.455032
 11
30.7074
 21
0.471176
  0
LINE
  8
0
 10
30.7074
 20
0.471176
 11
30.7799
 21
0.483765
  0
LINE
  8
0
 10
30.7799
 20
0.483765
 11
30.853
 21
0.492767
  0
LINE
  8
0
 10
30.853
 20
0.492767
 11
30.9264
 21
0.498184
  0
LINE
  8
0
 10
30.9264
 20
0.498184
 11
31
 21
0.5
  0
LINE
  8
0
 10
31
 20
0.5
 11
31.0736
 21
0.498184
  0
LINE
  8
0
 10
31.0736
 20
0.498184
 11
31.147
 21
0.492767
  0
LINE
  8
0
 10
31.147
 20
0.492767
 11
31.2201
 21
0.483765
  0
LINE
  8
0
 10
31.2201
 20
0.483765
 11
31.2926
 21
0.471176
  0
LINE
  8
0
 10
31.2926
 20
0.471176
 11
31.3645
 21
0.455032
  0
LINE
  8
0
 10
31.3645
 20
0.455032
 11
31.4354
 21
0.43541
  0
LINE
  8
0
 10
31.4354
 20
0.43541
 11
31.5053
 21
0.412308
  0
LINE
  8
0
 10
31.5053
 20
0.412308
 11
31.574
 21
0.385818
  0
LINE
  8
0
 10
31.574
 20
0.385818
 11
31.6413
 21
0.355972
  0
LINE
  8
0
 10
31.6413
 20
0.355972
 11
31.7071
 21
0.322876
  0
LINE
  8
0
 10
31.7071
 20
0.322876
 11
31.7711
 21
0.286591
  0
LINE
  8
0
 10
31.7711
 20
0.286591
 11
31.8333
 21
0.247192
  0
LINE
  8
0
 10
31.8333
 20
0.247192
 11
31.8935
 21
0.204803
  0
LINE
  8
0
 10
31.8935
 20
0.204803
 11
31.9516
 21
0.159515
  0
LINE
  8
0
 10
31.9516
 20
0.159515
 11
32.0073
 21
0.11142
  0
LINE
  8
0
 10
32.0073
 20
0.11142
 11
32.0607
 21
0.0606537
  0
LINE
  8
0
 10
32.0607
 20
0.0606537
 11
32.1114
 21
0.00732422
  0
LINE
  8
0
 10
32.1114
 20
0.00732422
 11
32.1595
 21
-0.0484009
  0
LINE
  8
0
 10
32.1595
 20
-0.0484009
 11
32.2048
 21
-0.106445
  0
LINE
  8
0
 10
32.2048
 20
-0.106445
 11
32.2472
 21
-0.166641
  0
LINE
  8
0
 10
32.2472
 20
-0.166641
 11
32.2866
 21
-0.228836
  0
LINE
  8
0
 10
32.2866
 20
-0.228836
 11
32.3229
 21
-0.292892
  0
LINE
  8
0
 10
32.3229
 20
-0.292892
 11
32.356
 21
-0.358658
  0
LINE
  8
0
 10
32.356
 20
-0.358658
 11
32.3858
 21
-0.425964
  0
LINE
  8
0
 10
32.3858
 20
-0.425964
 11
32.4123
 21
-0.494659
  0
LINE
  8
0
 10
32.4123
 20
-0.494659
 11
32.4354
 21
-0.56456
  0
LINE
  8
0
 10
32.4354
 20
-0.56456
 11
32.455
 21
-0.635529
  0
LINE
  8
0
 10
32.455
 20
-0.635529
 11
32.4712
 21
-0.707352
  0
LINE
  8
0
 10
32.4712
 20
-0.707352
 11
32.4838
 21
-0.779892
  0
LINE
  8
0
 10
32.4838
 20
-0.779892
 11
32.4928
 21
-0.852966
  0
LINE
  8
0
 10
32.4928
 20
-0.852966
 11
32.4982
 21
-0.926392
  0
LINE
  8
0
 10
32.4982
 20
-0.926392
 11
32.5
 21
-1
  0
LINE
  8
0
 10
32.5
 20
-1
 11
32.4982
 21
-1.07359
  0
LINE
  8
0
 10
32.4982
 20
-1.07359
 11
32.4928
 21
-1.14702
  0
LINE
  8
0
 10
32.4928
 20
-1.14702
 11
32.4838
 21
-1.22009
  0
LINE
  8
0
 10
32.4838
 20
-1.22009
 11
32.4712
 21
-1.29263
  0
LINE
  8
0
 10
32.4712
 20
-1.29263
 11
32.455
 21
-1.36446
  0
LINE
  8
0
 10
32.455
 20
-1.36446
 11
32.4354
 21
-1.43542
  0
LINE
  8
0
 10
32.4354
 20
-1.43542
 11
32.4123
 21
-1.50533
  0
LINE
  8
0
 10
32.4123
 20
-1.50533
 11
32.3858
 21
-1.57402
  0
LINE
  8
0
 10
32.3858
 20
-1.57402
 11
32.356
 21
-1.64133
  0
LINE
  8
0
 10
32.356
 20
-1.64133
 11
32.3229
 21
-1.70709
  0
LINE
  8
0
 10
32.3229
 20
-1.70709
 11
32.2866
 21
-1.77115
  0
LINE
  8
0
 10
32.2866
 20
-1.77115
 11
32.2472
 21
-1.83334
  0
LINE
  8
0
 10
32.2472
 20
-1.83334
 11
32.2048
 21
-1.89354
  0
LINE
  8
0
 10
32.2048
 20
-1.89354
 11
32.1595
 21
-1.95158
  0
LINE
  8
0
 10
32.1595
 20
-1.95158
 11
32.1114
 21
-2.00732
  0
LINE
  8
0
 10
32.1114
 20
-2.00732
 11
32.0607
 21
-2.06065
  0
LINE
  8
0
 10
32.0607
 20
-2.06065
 11
32.0073
 21
-2.11142
  0
LINE
  8
0
 10
32.0073
 20
-2.11142
 11
31.9516
 21
-2.15952
  0
LINE
  8
0
 10
31.9516
 20
-2.15952
 11
31.8935
 21
-2.2048
  0
LINE
  8
0
 10
31.8935
 20
-2.2048
 11
31.8333
 21
-2.24719
  0
LINE
  8
0
 10
31.8333
 20
-2.24719
 11
31.7711
 21
-2.28659
  0
LINE
  8
0
 10
31.7711
 20
-2.28659
 11
31.7071
 21
-2.32288
  0
LINE
  8
0
 10
31.7071
 20
-2.32288
 11
31.6413
 21
-2.35597
  0
LINE
  8
0
 10
31.6413
 20
-2.35597
 11
31.574
 21
-2.38582
  0
LINE
  8
0
 10
31.574
 20
-2.38582
 11
31.5053
 21
-2.41231
  0
LINE
  8
0
 10
31.5053
 20
-2.41231
 11
31.4354
 21
-2.43541
  0
LINE
  8
0
 10
31.4354
 20
-2.43541
 11
31.3645
 21
-2.45503
  0
LINE
  8
0
 10
31.3645
 20
-2.45503
 11
31.2926
 21
-2.47118
  0
LINE
  8
0
 10
31.2926
 20
-2.47118
 11
31.2201
 21
-2.48376
  0
LINE
  8
0
 10
31.2201
 20
-2.48376
 11
31.147
 21
-2.49277
  0
LINE
  8
0
 10
31.147
 20
-2.49277
 11
31.0736
 21
-2.49818
  0
LINE
  8
0
 10
31.0736
 20
-2.49818
 11
31
 21
-2.5
  0
LINE
  8
0
 10
31
 20
-2.5
 11
30.9264
 21
-2.49818
  0
LINE
  8
0
 10
-20.2944
 20
-13.4928
 11
-20.5881
 21
-13.4711
  0
LINE
  8
0
 10
-20.5881
 20
-13.4711
 11
-20.8804
 21
-13.4351
  0
LINE
  8
0
 10
-20.8804
 20
-13.4351
 11
-21.1705
 21
-13.3847
  0
LINE
  8
0
 10
-21.1705
 20
-13.3847
 11
-21.4579
 21
-13.3202
  0
LINE
  8
0
 10
-21.4579
 20
-13.3202
 11
-21.7417
 21
-13.2416
  0
LINE
  8
0
 10
-21.7417
 20
-13.2416
 11
-22.0213
 21
-13.1493
  0
LINE
  8
0
 10
-22.0213
 20
-13.1493
 11
-22.2961
 21
-13.0433
  0
LINE
  8
0
 10
-22.2961
 20
-13.0433
 11
-22.5653
 21
-12.9239
  0
LINE
  8
0
 10
-22.5653
 20
-12.9239
 11
-22.8284
 21
-12.7915
  0
LINE
  8
0
 10
-22.8284
 20
-12.7915
 11
-23.0846
 21
-12.6464
  0
LINE
  8
0
 10
-23.0846
 20
-12.6464
 11
-23.3334
 21
-12.4888
  0
LINE
  8
0
 10
-23.3334
 20
-12.4888
 11
-23.5742
 21
-12.3192
  0
LINE
  8
0
 10
-23.5742
 20
-12.3192
 11
-23.8064
 21
-12.1381
  0
LINE
  8
0
 10
-23.8064
 20
-12.1381
 11
-24.0293
 21
-11.9457
  0
LINE
  8
0
 10
-24.0293
 20
-11.9457
 11
-24.2426
 21
-11.7426
  0
LINE
  8
0
 10
-24.2426
 20
-11.7426
 11
-24.4457
 21
-11.5293
  0
LINE
  8
0
 10
-24.4457
 20
-11.5293
 11
-24.6381
 21
-11.3064
  0
LINE
  8
0
 10
-24.6381
 20
-11.3064
 11
-24.8192
 21
-11.0742
  0
LINE
  8
0
 10
-24.8192
 20
-11.0742
 11
-24.9888
 21
-10.8334
  0
LINE
  8
0
 10
-24.9888
 20
-10.8334
 11
-25.1464
 21
-10.5846
  0
LINE
  8
0
 10
-25.1464
 20
-10.5846
 11
-25.2915
 21
-10.3284
  0
LINE
  8
0
 10
-25.2915
 20
-10.3284
 11
-25.4239
 21
-10.0653
  0
LINE
  8
0
 10
-25.4239
 20
-10.0653
 11
-25.5433
 21
-9.7961
  0
LINE
  8
0
 10
-25.5433
 20
-9.7961
 11
-25.6493
 21
-9.52133
  0
LINE
  8
0
 10
-25.6493
 20
-9.52133
 11
-25.7416
 21
-9.2417
  0
LINE
  8
0
 10
-25.7416
 20
-9.2417
 11
-25.8202
 21
-8.95787
  0
LINE
  8
0
 10
-25.8202
 20
-8.95787
 11
-25.8847
 21
-8.67053
  0
LINE
  8
0
 10
-25.8847
 20
-8.67053
 11
-25.9351
 21
-8.38037
  0
LINE
  8
0
 10
-25.9351
 20
-8.38037
 11
-25.9711
 21
-8.08809
  0
LINE
  8
0
 10
-25.9711
 20
-8.08809
 11
-25.9928
 21
-7.7944
  0
LINE
  8
0
 10
-25.9928
 20
-7.7944
 11
-26
 21
-7.5
  0
LINE
  8
0
 10
-26
 20
-7.5
 11
-25.9928
 21
-7.20558
  0
LINE
  8
0
 10
-25.9928
 20
-7.20558
 11
-25.9711
 21
-6.9119
  0
LINE
  8
0
 10
-25.9711
 20
-6.9119
 11
-25.9351
 21
-6.61961
  0
LINE
  8
0
 10
-25.9351
 20
-6.61961
 11
-25.8847
 21
-6.32945
  0
LINE
  8
0
 10
-25.8847
 20
-6.32945
 11
-25.8202
 21
-6.04211
  0
LINE
  8
0
 10
-25.8202
 20
-6.04211
 11
-25.7416
 21
-5.75829
  0
LINE
  8
0
 10
-25.7416
 20
-5.75829
 11
-25.6493
 21
-5.47865
  0
LINE
  8
0
 10
-25.6493
 20
-5.47865
 11
-25.5433
 21
-5.20389
  0
LINE
  8
0
 10
-25.5433
 20
-5.20389
 11
-25.4239
 21
-4.93466
  0
LINE
  8
0
 10
-25.4239
 20
-4.93466
 11
-25.2915
 21
-4.67162
  0
LINE
  8
0
 10
-25.2915
 20
-4.67162
 11
-25.1464
 21
-4.41537
  0
LINE
  8
0
 10
-25.1464
 20
-4.41537
 11
-24.9888
 21
-4.16656
  0
LINE
  8
0
 10
-24.9888
 20
-4.16656
 11
-24.8192
 21
-3.9258
  0
LINE
  8
0
 10
-24.8192
 20
-3.9258
 11
-24.6381
 21
-3.69363
  0
LINE
  8
0
 10
-24.6381
 20
-3.69363
 11
-24.4457
 21
-3.47064
  0
LINE
  8
0
 10
-24.4457
 20
-3.47064
 11
-24.2426
 21
-3.25735
  0
LINE
  8
0
 10
-24.2426
 20
-3.25735
 11
-24.0293
 21
-3.05429
  0
LINE
  8
0
 10
-24.0293
 20
-3.05429
 11
-23.8064
 21
-2.86192
  0
LINE
  8
0
 10
-23.8064
 20
-2.86192
 11
-23.5742
 21
-2.68074
  0
LINE
  8
0
 10
-23.5742
 20
-2.68074
 11
-23.3334
 21
-2.51117
  0
LINE
  8
0
 10
-23.3334
 20
-2.51117
 11
-23.0846
 21
-2.35362
  0
LINE
  8
0
 10
-23.0846
 20
-2.35362
 11
-22.8284
 21
-2.20847
  0
LINE
  8
0
 10
-22.8284
 20
-2.20847
 11
-22.5653
 21
-2.07605
  0
LINE
  8
0
 10
-22.5653
 20
-2.07605
 11
-22.2961
 21
-1.95671
  0
LINE
  8
0
 10
-22.2961
 20
-1.95671
 11
-22.0213
 21
-1.85072
  0
LINE
  8
0
 10
-22.0213
 20
-1.85072
 11
-21.7417
 21
-1.75835
  0
LINE
  8
0
 10
-21.7417
 20
-1.75835
 11
-21.4579
 21
-1.67981
  0
LINE
  8
0
 10
-21.4579
 20
-1.67981
 11
-21.1705
 21
-1.61528
  0
LINE
  8
0
 10
-21.1705
 20
-1.61528
 11
-20.8804
 21
-1.56493
  0
LINE
  8
0
 10
-20.8804
 20
-1.56493
 11
-20.5881
 21
-1.52888
  0
LINE
  8
0
 10
-20.5881
 20
-1.52888
 11
-20.2944
 21
-1.50722
  0
LINE
  8
0
 10
-20.2944
 20
-1.50722
 11
-20
 21
-1.5
  0
LINE
  8
0
 10
-20
 20
-1.5
 11
-19.7056
 21
-1.50722
  0
LINE
  8
0
 10
-19.7056
 20
-1.50722
 11
-19.4119
 21
-1.52888
  0
LINE
  8
0
 10
-19.4119
 20
-1.52888
 11
-19.1196
 21
-1.56493
  0
LINE
  8
0
 10
-19.1196
 20
-1.56493
 11
-18.8295
 21
-1.61528
  0
LINE
  8
0
 10
-18.8295
 20
-1.61528
 11
-18.5421
 21
-1.67981
  0
LINE
  8
0
 10
-18.5421
 20
-1.67981
 11
-18.2583
 21
-1.75835
  0
LINE
  8
0
 10
-18.2583
 20
-1.75835
 11
-17.9787
 21
-1.85072
  0
LINE
  8
0
 10
-17.9787
 20
-1.85072
 11
-17.7039
 21
-1.95671
  0
LINE
  8
0
 10
-17.7039
 20
-1.95671
 11
-17.4347
 21
-2.07605
  0
LINE
  8
0
 10
-17.4347
 20
-2.07605
 11
-17.1716
 21
-2.20847
  0
LINE
  8
0
 10
-17.1716
 20
-2.20847
 11
-16.9154
 21
-2.35362
  0
LINE
  8
0
 10
-16.9154
 20
-2.35362
 11
-16.6666
 21
-2.51117
  0
LINE
  8
0
 10
-16.6666
 20
-2.51117
 11
-16.4258
 21
-2.68074
  0
LINE
  8
0
 10
-16.4258
 20
-2.68074
 11
-16.1936
 21
-2.86192
  0
LINE
  8
0
 10
-16.1936
 20
-2.86192
 11
-15.9706
 21
-3.05429
  0
LINE
  8
0
 10
-15.9706
 20
-3.05429
 11
-15.7574
 21
-3.25735
  0
LINE
  8
0
 10
-15.7574
 20
-3.25735
 11
-15.5543
 21
-3.47064
  0
LINE
  8
0
 10
-15.5543
 20
-3.47064
 11
-15.3619
 21
-3.69363
  0
LINE
  8
0
 10
-15.3619
 20
-3.69363
 11
-15.1807
 21
-3.9258
  0
LINE
  8
0
 10
-15.1807
 20
-3.9258
 11
-15.0112
 21
-4.16656
  0
LINE
  8
0
 10
-15.0112
 20
-4.16656
 11
-14.8536
 21
-4.41537
  0
LINE
  8
0
 10
-14.8536
 20
-4.41537
 11
-14.7085
 21
-4.67162
  0
LINE
  8
0
 10
-14.7085
 20
-4.67162
 11
-14.576
 21
-4.93466
  0
LINE
  8
0
 10
-14.576
 20
-4.93466
 11
-14.4567
 21
-5.20389
  0
LINE
  8
0
 10
-14.4567
 20
-5.20389
 11
-14.3507
 21
-5.47865
  0
LINE
  8
0
 10
-14.3507
 20
-5.47865
 11
-14.2583
 21
-5.75829
  0
LINE
  8
0
 10
-14.2583
 20
-5.75829
 11
-14.1798
 21
-6.04211
  0
LINE
  8
0
 10
-14.1798
 20
-6.04211
 11
-14.1153
 21
-6.32945
  0
LINE
  8
0
 10
-14.1153
 20
-6.32945
 11
-14.0649
 21
-6.61961
  0
LINE
  8
0
 10
-14.0649
 20
-6.61961
 11
-14.0289
 21
-6.9119
  0
LINE
  8
0
 10
-14.0289
 20
-6.9119
 11
-14.0072
 21
-7.20558
  0
LINE
  8
0
 10
-14.0072
 20
-7.20558
 11
-14
 21
-7.5
  0
LINE
  8
0
 10
-14
 20
-7.5
 11
-14.0072
 21
-7.7944
  0
LINE
  8
0
 10
-14.0072
 20
-7.7944
 11
-14.0289
 21
-8.08809
  0
LINE
  8
0
 10
-14.0289
 20
-8.08809
 11
-14.0649
 21
-8.38037
  0
LINE
  8
0
 10
-14.0649
 20
-8.38037
 11
-14.1153
 21
-8.67053
  0
LINE
  8
0
 10
-14.1153
 20
-8.67053
 11
-14.1798
 21
-8.95787
  0
LINE
  8
0
 10
-14.1798
 20
-8.95787
 11
-14.2583
 21
-9.2417
  0
LINE
  8
0
 10
-14.2583
 20
-9.2417
 11
-14.3507
 21
-9.52133
  0
LINE
  8
0
 10
-14.3507
 20
-9.52133
 11
-14.4567
 21
-9.7961
  0
LINE
  8
0
 10
-14.4567
 20
-9.7961
 11
-14.576
 21
-10.0653
  0
LINE
  8
0
 10
-14.576
 20
-10.0653
 11
-14.7085
 21
-10.3284
  0
LINE
  8
0
 10
-14.7085
 20
-10.3284
 11
-14.8536
 21
-10.5846
  0
LINE
  8
0
 10
-14.8536
 20
-10.5846
 11
-15.0112
 21
-10.8334
  0
LINE
  8
0
 10
-15.0112
 20
-10.8334
 11
-15.1807
 21
-11.0742
  0
LINE
  8
0
 10
-15.1807
 20
-11.0742
 11
-15.3619
 21
-11.3064
  0
LINE
  8
0
 10
-15.3619
 20
-11.3064
 11
-15.5543
 21
-11.5293
  0
LINE
  8
0
 10
-15.5543
 20
-11.5293
 11
-15.7574
 21
-11.7426
  0
LINE
  8
0
 10
-15.7574
 20
-11.7426
 11
-15.9706
 21
-11.9457
  0
LINE
  8
0
 10
-15.9706
 20
-11.9457
 11
-16.1936
 21
-12.1381
  0
LINE
  8
0
 10
-16.1936
 20
-12.1381
 11
-16.4258
 21
-12.3192
  0
LINE
  8
0
 10
-16.4258
 20
-12.3192
 11
-16.6666
 21
-12.4888
  0
LINE
  8
0
 10
-16.6666
 20
-12.4888
 11
-16.9154
 21
-12.6464
  0
LINE
  8
0
 10
-16.9154
 20
-12.6464
 11
-17.1716
 21
-12.7915
  0
LINE
  8
0
 10
-17.1716
 20
-12.7915
 11
-17.4347
 21
-12.9239
  0
LINE
  8
0
 10
-17.4347
 20
-12.9239
 11
-17.7039
 21
-13.0433
  0
LINE
  8
0
 10
-17.7039
 20
-13.0433
 11
-17.9787
 21
-13.1493
  0
LINE
  8
0
 10
-17.9787
 20
-13.1493
 11
-18.2583
 21
-13.2416
  0
LINE
  8
0
 10
-18.2583
 20
-13.2416
 11
-18.5421
 21
-13.3202
  0
LINE
  8
0
 10
-18.5421
 20
-13.3202
 11
-18.8295
 21
-13.3847
  0
LINE
  8
0
 10
-18.8295
 20
-13.3847
 11
-19.1196
 21
-13.4351
  0
LINE
  8
0
 10
-19.1196
 20
-13.4351
 11
-19.4119
 21
-13.4711
  0
LINE
  8
0
 10
-19.4119
 20
-13.4711
 11
-19.7056
 21
-13.4928
  0
LINE
  8
0
 10
-19.7056
 20
-13.4928
 11
-20
 21
-13.5
  0
LINE
  8
0
 10
-20
 20
-13.5
 11
-20.2944
 21
-13.4928
  0
LINE
  8
0
 10
19.7056
 20
-13.4928
 11
19.4119
 21
-13.4711
  0
LINE
  8
0
 10
19.4119
 20
-13.4711
 11
19.1196
 21
-13.4351
  0
LINE
  8
0
 10
19.1196
 20
-13.4351
 11
18.8295
 21
-13.3847
  0
LINE
  8
0
 10
18.8295
 20
-13.3847
 11
18.5421
 21
-13.3202
  0
LINE
  8
0
 10
18.5421
 20
-13.3202
 11
18.2583
 21
-13.2416
  0
LINE
  8
0
 10
18.2583
 20
-13.2416
 11
17.9787
 21
-13.1493
  0
LINE
  8
0
 10
17.9787
 20
-13.1493
 11
17.7039
 21
-13.0433
  0
LINE
  8
0
 10
17.7039
 20
-13.0433
 11
17.4347
 21
-12.9239
  0
LINE
  8
0
 10
17.4347
 20
-12.9239
 11
17.1716
 21
-12.7915
  0
LINE
  8
0
 10
17.1716
 20
-12.7915
 11
16.9154
 21
-12.6464
  0
LINE
  8
0
 10
16.9154
 20
-12.6464
 11
16.6666
 21
-12.4888
  0
LINE
  8
0
 10
16.6666
 20
-12.4888
 11
16.4258
 21
-12.3192
  0
LINE
  8
0
 10
16.4258
 20
-12.3192
 11
16.1936
 21
-12.1381
  0
LINE
  8
0
 10
16.1936
 20
-12.1381
 11
15.9706
 21
-11.9457
  0
LINE
  8
0
 10
15.9706
 20
-11.9457
 11
15.7574
 21
-11.7426
  0
LINE
  8
0
 10
15.7574
 20
-11.7426
 11
15.5543
 21
-11.5293
  0
LINE
  8
0
 10
15.5543
 20
-11.5293
 11
15.3619
 21
-11.3064
  0
LINE
  8
0
 10
15.3619
 20
-11.3064
 11
15.1807
 21
-11.0742
  0
LINE
  8
0
 10
15.1807
 20
-11.0742
 11
15.0112
 21
-10.8334
  0
LINE
  8
0
 10
15.0112
 20
-10.8334
 11
14.8536
 21
-10.5846
  0
LINE
  8
0
 10
14.8536
 20
-10.5846
 11
14.7085
 21
-10.3284
  0
LINE
  8
0
 10
14.7085
 20
-10.3284
 11
14.576
 21
-10.0653
  0
LINE
  8
0
 10
14.576
 20
-10.0653
 11
14.4567
 21
-9.7961
  0
LINE
  8
0
 10
14.4567
 20
-9.7961
 11
14.3507
 21
-9.52133
  0
LINE
  8
0
 10
14.3507
 20
-9.52133
 11
14.2583
 21
-9.2417
  0
LINE
  8
0
 10
14.2583
 20
-9.2417
 11
14.1798
 21
-8.95787
  0
LINE
  8
0
 10
14.1798
 20
-8.95787
 11
14.1153
 21
-8.67053
  0
LINE
  8
0
 10
14.1153
 20
-8.67053
 11
14.0649
 21
-8.38037
  0
LINE
  8
0
 10
14.0649
 20
-8.38037
 11
14.0289
 21
-8.08809
  0
LINE
  8
0
 10
14.0289
 20
-8.08809
 11
14.0072
 21
-7.7944
  0
LINE
  8
0
 10
14.0072
 20
-7.7944
 11
14
 21
-7.5
  0
LINE
  8
0
 10
14
 20
-7.5
 11
14.0072
 21
-7.20558
  0
LINE
  8
0
 10
14.0072
 20
-7.20558
 11
14.0289
 21
-6.9119
  0
LINE
  8
0
 10
14.0289
 20
-6.9119
 11
14.0649
 21
-6.61961
  0
LINE
  8
0
 10
14.0649
 20
-6.61961
 11
14.1153
 21
-6.32945
  0
LINE
  8
0
 10
14.1153
 20
-6.32945
 11
14.1798
 21
-6.04211
  0
LINE
  8
0
 10
14.1798
 20
-6.04211
 11
14.2583
 21
-5.75829
  0
LINE
  8
0
 10
14.2583
 20
-5.75829
 11
14.3507
 21
-5.47865
  0
LINE
  8
0
 10
14.3507
 20
-5.47865
 11
14.4567
 21
-5.20389
  0
LINE
  8
0
 10
14.4567
 20
-5.20389
 11
14.576
 21
-4.93466
  0
LINE
  8
0
 10
14.576
 20
-4.93466
 11
14.7085
 21
-4.67162
  0
LINE
  8
0
 10
14.7085
 20
-4.67162
 11
14.8536
 21
-4.41537
  0
LINE
  8
0
 10
14.8536
 20
-4.41537
 11
15.0112
 21
-4.16656
  0
LINE
  8
0
 10
15.0112
 20
-4.16656
 11
15.1807
 21
-3.9258
  0
LINE
  8
0
 10
15.1807
 20
-3.9258
 11
15.3619
 21
-3.69363
  0
LINE
  8
0
 10
15.3619
 20
-3.69363
 11
15.5543
 21
-3.47064
  0
LINE
  8
0
 10
15.5543
 20
-3.47064
 11
15.7574
 21
-3.25735
  0
LINE
  8
0
 10
15.7574
 20
-3.25735
 11
15.9706
 21
-3.05429
  0
LINE
  8
0
 10
15.9706
 20
-3.05429
 11
16.1936
 21
-2.86192
  0
LINE
  8
0
 10
16.1936
 20
-2.86192
 11
16.4258
 21
-2.68074
  0
LINE
  8
0
 10
16.4258
 20
-2.68074
 11
16.6666
 21
-2.51117
  0
LINE
  8
0
 10
16.6666
 20
-2.51117
 11
16.9154
 21
-2.35362
  0
LINE
  8
0
 10
16.9154
 20
-2.35362
 11
17.1716
 21
-2.20847
  0
LINE
  8
0
 10
17.1716
 20
-2.20847
 11
17.4347
 21
-2.07605
  0
LINE
  8
0
 10
17.4347
 20
-2.07605
 11
17.7039
 21
-1.95671
  0
LINE
  8
0
 10
17.7039
 20
-1.95671
 11
17.9787
 21
-1.85072
  0
LINE
  8
0
 10
17.9787
 20
-1.85072
 11
18.2583
 21
-1.75835
  0
LINE
  8
0
 10
18.2583
 20
-1.75835
 11
18.5421
 21
-1.67981
  0
LINE
  8
0
 10
18.5421
 20
-1.67981
 11
18.8295
 21
-1.61528
  0
LINE
  8
0
 10
18.8295
 20
-1.61528
 11
19.1196
 21
-1.56493
  0
LINE
  8
0
 10
19.1196
 20
-1.56493
 11
19.4119
 21
-1.52888
  0
LINE
  8
0
 10
19.4119
 20
-1.52888
 11
19.7056
 21
-1.50722
  0
LINE
  8
0
 10
19.7056
 20
-1.50722
 11
20
 21
-1.5
  0
LINE
  8
0
 10
20
 20
-1.5
 11
20.2944
 21
-1.50722
  0
LINE
  8
0
 10
20.2944
 20
-1.50722
 11
20.5881
 21
-1.52888
  0
LINE
  8
0
 10
20.5881
 20
-1.52888
 11
20.8804
 21
-1.56493
  0
LINE
  8
0
 10
20.8804
 20
-1.56493
 11
21.1705
 21
-1.61528
  0
LINE
  8
0
 10
21.1705
 20
-1.61528
 11
21.4579
 21
-1.67981
  0
LINE
  8
0
 10
21.4579
 20
-1.67981
 11
21.7417
 21
-1.75835
  0
LINE
  8
0
 10
21.7417
 20
-1.75835
 11
22.0213
 21
-1.85072
  0
LINE
  8
0
 10
22.0213
 20
-1.85072
 11
22.2961
 21
-1.95671
  0
LINE
  8
0
 10
22.2961
 20
-1.95671
 11
22.5653
 21
-2.07605
  0
LINE
  8
0
 10
22.5653
 20
-2.07605
 11
22.8284
 21
-2.20847
  0
LINE
  8
0
 10
22.8284
 20
-2.20847
 11
23.0846
 21
-2.35362
  0
LINE
  8
0
 10
23.0846
 20
-2.35362
 11
23.3334
 21
-2.51117
  0
LINE
  8
0
 10
23.3334
 20
-2.51117
 11
23.5742
 21
-2.68074
  0
LINE
  8
0
 10
23.5742
 20
-2.68074
 11
23.8064
 21
-2.86192
  0
LINE
  8
0
 10
23.8064
 20
-2.86192
 11
24.0293
 21
-3.05429
  0
LINE
  8
0
 10
24.0293
 20
-3.05429
 11
24.2426
 21
-3.25735
  0
LINE
  8
0
 10
24.2426
 20
-3.25735
 11
24.4457
 21
-3.47064
  0
LINE
  8
0
 10
24.4457
 20
-3.47064
 11
24.6381
 21
-3.69363
  0
LINE
  8
0
 10
24.6381
 20
-3.69363
 11
24.8192
 21
-3.9258
  0
LINE
  8
0
 10
24.8192
 20
-3.9258
 11
24.9888
 21
-4.16656
  0
LINE
  8
0
 10
24.9888
 20
-4.16656
 11
25.1464
 21
-4.41537
  0
LINE
  8
0
 10
25.1464
 20
-4.41537
 11
25.2915
 21
-4.67162
  0
LINE
  8
0
 10
25.2915
 20
-4.67162
 11
25.4239
 21
-4.93466
  0
LINE
  8
0
 10
25.4239
 20
-4.93466
 11
25.5433
 21
-5.20389
  0
LINE
  8
0
 10
25.5433
 20
-5.20389
 11
25.6493
 21
-5.47865
  0
LINE
  8
0
 10
25.6493
 20
-5.47865
 11
25.7416
 21
-5.75829
  0
LINE
  8
0
 10
25.7416
 20
-5.75829
 11
25.8202
 21
-6.04211
  0
LINE
  8
0
 10
25.8202
 20
-6.04211
 11
25.8847
 21
-6.32945
  0
LINE
  8
0
 10
25.8847
 20
-6.32945
 11
25.9351
 21
-6.61961
  0
LINE
  8
0
 10
25.9351
 20
-6.61961
 11
25.9711
 21
-6.9119
  0
LINE
  8
0
 10
25.9711
 20
-6.9119
 11
25.9928
 21
-7.20558
  0
LINE
  8
0
 10
25.9928
 20
-7.20558
 11
26
 21
-7.5
  0
LINE
  8
0
 10
26
 20
-7.5
 11
25.9928
 21
-7.7944
  0
LINE
  8
0
 10
25.9928
 20
-7.7944
 11
25.9711
 21
-8.08809
  0
LINE
  8
0
 10
25.9711
 20
-8.08809
 11
25.9351
 21
-8.38037
  0
LINE
  8
0
 10
25.9351
 20
-8.38037
 11
25.8847
 21
-8.67053
  0
LINE
  8
0
 10
25.8847
 20
-8.67053
 11
25.8202
 21
-8.95787
  0
LINE
  8
0
 10
25.8202
 20
-8.95787
 11
25.7416
 21
-9.2417
  0
LINE
  8
0
 10
25.7416
 20
-9.2417
 11
25.6493
 21
-9.52133
  0
LINE
  8
0
 10
25.6493
 20
-9.52133
 11
25.5433
 21
-9.7961
  0
LINE
  8
0
 10
25.5433
 20
-9.7961
 11
25.4239
 21
-10.0653
  0
LINE
  8
0
 10
25.4239
 20
-10.0653
 11
25.2915
 21
-10.3284
  0
LINE
  8
0
 10
25.2915
 20
-10.3284
 11
25.1464
 21
-10.5846
  0
LINE
  8
0
 10
25.1464
 20
-10.5846
 11
24.9888
 21
-10.8334
  0
LINE
  8
0
 10
24.9888
 20
-10.8334
 11
24.8192
 21
-11.0742
  0
LINE
  8
0
 10
24.8192
 20
-11.0742
 11
24.6381
 21
-11.3064
  0
LINE
  8
0
 10
24.6381
 20
-11.3064
 11
24.4457
 21
-11.5293
  0
LINE
  8
0
 10
24.4457
 20
-11.5293
 11
24.2426
 21
-11.7426
  0
LINE
  8
0
 10
24.2426
 20
-11.7426
 11
24.0293
 21
-11.9457
  0
LINE
  8
0
 10
24.0293
 20
-11.9457
 11
23.8064
 21
-12.1381
  0
LINE
  8
0
 10
23.8064
 20
-12.1381
 11
23.5742
 21
-12.3192
  0
LINE
  8
0
 10
23.5742
 20
-12.3192
 11
23.3334
 21
-12.4888
  0
LINE
  8
0
 10
23.3334
 20
-12.4888
 11
23.0846
 21
-12.6464
  0
LINE
  8
0
 10
23.0846
 20
-12.6464
 11
22.8284
 21
-12.7915
  0
LINE
  8
0
 10
22.8284
 20
-12.7915
 11
22.5653
 21
-12.9239
  0
LINE
  8
0
 10
22.5653
 20
-12.9239
 11
22.2961
 21
-13.0433
  0
LINE
  8
0
 10
22.2961
 20
-13.0433
 11
22.0213
 21
-13.1493
  0
LINE
  8
0
 10
22.0213
 20
-13.1493
 11
21.7417
 21
-13.2416
  0
LINE
  8
0
 10
21.7417
 20
-13.2416
 11
21.4579
 21
-13.3202
  0
LINE
  8
0
 10
21.4579
 20
-13.3202
 11
21.1705
 21
-13.3847
  0
LINE
  8
0
 10
21.1705
 20
-13.3847
 11
20.8804
 21
-13.4351
  0
LINE
  8
0
 10
20.8804
 20
-13.4351
 11
20.5881
 21
-13.4711
  0
LINE
  8
0
 10
20.5881
 20
-13.4711
 11
20.2944
 21
-13.4928
  0
LINE
  8
0
 10
20.2944
 20
-13.4928
 11
20
 21
-13.5
  0
LINE
  8
0
 10
20
 20
-13.5
 11
19.7056
 21
-13.4928
  0
LINE
  8
0
 10
-31.0736
 20
-15.4982
 11
-31.147
 21
-15.4928
  0
LINE
  8
0
 10
-31.147
 20
-15.4928
 11
-31.2201
 21
-15.4838
  0
LINE
  8
0
 10
-31.2201
 20
-15.4838
 11
-31.2926
 21
-15.4712
  0
LINE
  8
0
 10
-31.2926
 20
-15.4712
 11
-31.3645
 21
-15.455
  0
LINE
  8
0
 10
-31.3645
 20
-15.455
 11
-31.4354
 21
-15.4354
  0
LINE
  8
0
 10
-31.4354
 20
-15.4354
 11
-31.5053
 21
-15.4123
  0
LINE
  8
0
 10
-31.5053
 20
-15.4123
 11
-31.574
 21
-15.3858
  0
LINE
  8
0
 10
-31.574
 20
-15.3858
 11
-31.6413
 21
-15.356
  0
LINE
  8
0
 10
-31.6413
 20
-15.356
 11
-31.7071
 21
-15.3229
  0
LINE
  8
0
 10
-31.7071
 20
-15.3229
 11
-31.7711
 21
-15.2866
  0
LINE
  8
0
 10
-31.7711
 20
-15.2866
 11
-31.8333
 21
-15.2472
  0
LINE
  8
0
 10
-31.8333
 20
-15.2472
 11
-31.8935
 21
-15.2048
  0
LINE
  8
0
 10
-31.8935
 20
-15.2048
 11
-31.9516
 21
-15.1595
  0
LINE
  8
0
 10
-31.9516
 20
-15.1595
 11
-32.0073
 21
-15.1114
  0
LINE
  8
0
 10
-32.0073
 20
-15.1114
 11
-32.0607
 21
-15.0607
  0
LINE
  8
0
 10
-32.0607
 20
-15.0607
 11
-32.1114
 21
-15.0073
  0
LINE
  8
0
 10
-32.1114
 20
-15.0073
 11
-32.1595
 21
-14.9516
  0
LINE
  8
0
 10
-32.1595
 20
-14.9516
 11
-32.2048
 21
-14.8935
  0
LINE
  8
0
 10
-32.2048
 20
-14.8935
 11
-32.2472
 21
-14.8333
  0
LINE
  8
0
 10
-32.2472
 20
-14.8333
 11
-32.2866
 21
-14.7711
  0
LINE
  8
0
 10
-32.2866
 20
-14.7711
 11
-32.3229
 21
-14.7071
  0
LINE
  8
0
 10
-32.3229
 20
-14.7071
 11
-32.356
 21
-14.6413
  0
LINE
  8
0
 10
-32.356
 20
-14.6413
 11
-32.3858
 21
-14.574
  0
LINE
  8
0
 10
-32.3858
 20
-14.574
 11
-32.4123
 21
-14.5053
  0
LINE
  8
0
 10
-32.4123
 20
-14.5053
 11
-32.4354
 21
-14.4354
  0
LINE
  8
0
 10
-32.4354
 20
-14.4354
 11
-32.455
 21
-14.3645
  0
LINE
  8
0
 10
-32.455
 20
-14.3645
 11
-32.4712
 21
-14.2926
  0
LINE
  8
0
 10
-32.4712
 20
-14.2926
 11
-32.4838
 21
-14.2201
  0
LINE
  8
0
 10
-32.4838
 20
-14.2201
 11
-32.4928
 21
-14.147
  0
LINE
  8
0
 10
-32.4928
 20
-14.147
 11
-32.4982
 21
-14.0736
  0
LINE
  8
0
 10
-32.4982
 20
-14.0736
 11
-32.5
 21
-14
  0
LINE
  8
0
 10
-32.5
 20
-14
 11
-32.4982
 21
-13.9264
  0
LINE
  8
0
 10
-32.4982
 20
-13.9264
 11
-32.4928
 21
-13.853
  0
LINE
  8
0
 10
-32.4928
 20
-13.853
 11
-32.4838
 21
-13.7799
  0
LINE
  8
0
 10
-32.4838
 20
-13.7799
 11
-32.4712
 21
-13.7074
  0
LINE
  8
0
 10
-32.4712
 20
-13.7074
 11
-32.455
 21
-13.6355
  0
LINE
  8
0
 10
-32.455
 20
-13.6355
 11
-32.4354
 21
-13.5646
  0
LINE
  8
0
 10
-32.4354
 20
-13.5646
 11
-32.4123
 21
-13.4947
  0
LINE
  8
0
 10
-32.4123
 20
-13.4947
 11
-32.3858
 21
-13.426
  0
LINE
  8
0
 10
-32.3858
 20
-13.426
 11
-32.356
 21
-13.3587
  0
LINE
  8
0
 10
-32.356
 20
-13.3587
 11
-32.3229
 21
-13.2929
  0
LINE
  8
0
 10
-32.3229
 20
-13.2929
 11
-32.2866
 21
-13.2288
  0
LINE
  8
0
 10
-32.2866
 20
-13.2288
 11
-32.2472
 21
-13.1666
  0
LINE
  8
0
 10
-32.2472
 20
-13.1666
 11
-32.2048
 21
-13.1064
  0
LINE
  8
0
 10
-32.2048
 20
-13.1064
 11
-32.1595
 21
-13.0484
  0
LINE
  8
0
 10
-32.1595
 20
-13.0484
 11
-32.1114
 21
-12.9927
  0
LINE
  8
0
 10
-32.1114
 20
-12.9927
 11
-32.0607
 21
-12.9393
  0
LINE
  8
0
 10
-32.0607
 20
-12.9393
 11
-32.0073
 21
-12.8886
  0
LINE
  8
0
 10
-32.0073
 20
-12.8886
 11
-31.9516
 21
-12.8405
  0
LINE
  8
0
 10
-31.9516
 20
-12.8405
 11
-31.8935
 21
-12.7952
  0
LINE
  8
0
 10
-31.8935
 20
-12.7952
 11
-31.8333
 21
-12.7528
  0
LINE
  8
0
 10
-31.8333
 20
-12.7528
 11
-31.7711
 21
-12.7134
  0
LINE
  8
0
 10
-31.7711
 20
-12.7134
 11
-31.7071
 21
-12.6771
  0
LINE
  8
0
 10
-31.7071
 20
-12.6771
 11
-31.6413
 21
-12.644
  0
LINE
  8
0
 10
-31.6413
 20
-12.644
 11
-31.574
 21
-12.6142
  0
LINE
  8
0
 10
-31.574
 20
-12.6142
 11
-31.5053
 21
-12.5877
  0
LINE
  8
0
 10
-31.5053
 20
-12.5877
 11
-31.4354
 21
-12.5646
  0
LINE
  8
0
 10
-31.4354
 20
-12.5646
 11
-31.3645
 21
-12.545
  0
LINE
  8
0
 10
-31.3645
 20
-12.545
 11
-31.2926
 21
-12.5288
  0
LINE
  8
0
 10
-31.2926
 20
-12.5288
 11
-31.2201
 21
-12.5162
  0
LINE
  8
0
 10
-31.2201
 20
-12.5162
 11
-31.147
 21
-12.5072
  0
LINE
  8
0
 10
-31.147
 20
-12.5072
 11
-31.0736
 21
-12.5018
  0
LINE
  8
0
 10
-31.0736
 20
-12.5018
 11
-31
 21
-12.5
  0
LINE
  8
0
 10
-31
 20
-12.5
 11
-30.9264
 21
-12.5018
  0
LINE
  8
0
 10
-30.9264
 20
-12.5018
 11
-30.853
 21
-12.5072
  0
LINE
  8
0
 10
-30.853
 20
-12.5072
 11
-30.7799
 21
-12.5162
  0
LINE
  8
0
 10
-30.7799
 20
-12.5162
 11
-30.7074
 21
-12.5288
  0
LINE
  8
0
 10
-30.7074
 20
-12.5288
 11
-30.6355
 21
-12.545
  0
LINE
  8
0
 10
-30.6355
 20
-12.545
 11
-30.5646
 21
-12.5646
  0
LINE
  8
0
 10
-30.5646
 20
-12.5646
 11
-30.4947
 21
-12.5877
  0
LINE
  8
0
 10
-30.4947
 20
-12.5877
 11
-30.426
 21
-12.6142
  0
LINE
  8
0
 10
-30.426
 20
-12.6142
 11
-30.3587
 21
-12.644
  0
LINE
  8
0
 10
-30.3587
 20
-12.644
 11
-30.2929
 21
-12.6771
  0
LINE
  8
0
 10
-30.2929
 20
-12.6771
 11
-30.2288
 21
-12.7134
  0
LINE
  8
0
 10
-30.2288
 20
-12.7134
 11
-30.1666
 21
-12.7528
  0
LINE
  8
0
 10
-30.1666
 20
-12.7528
 11
-30.1064
 21
-12.7952
  0
LINE
  8
0
 10
-30.1064
 20
-12.7952
 11
-30.0484
 21
-12.8405
  0
LINE
  8
0
 10
-30.0484
 20
-12.8405
 11
-29.9927
 21
-12.8886
  0
LINE
  8
0
 10
-29.9927
 20
-12.8886
 11
-29.9393
 21
-12.9393
  0
LINE
  8
0
 10
-29.9393
 20
-12.9393
 11
-29.8886
 21
-12.9927
  0
LINE
  8
0
 10
-29.8886
 20
-12.9927
 11
-29.8405
 21
-13.0484
  0
LINE
  8
0
 10
-29.8405
 20
-13.0484
 11
-29.7952
 21
-13.1064
  0
LINE
  8
0
 10
-29.7952
 20
-13.1064
 11
-29.7528
 21
-13.1666
  0
LINE
  8
0
 10
-29.7528
 20
-13.1666
 11
-29.7134
 21
-13.2288
  0
LINE
  8
0
 10
-29.7134
 20
-13.2288
 11
-29.6771
 21
-13.2929
  0
LINE
  8
0
 10
-29.6771
 20
-13.2929
 11
-29.644
 21
-13.3587
  0
LINE
  8
0
 10
-29.644
 20
-13.3587
 11
-29.6142
 21
-13.426
  0
LINE
  8
0
 10
-29.6142
 20
-13.426
 11
-29.5877
 21
-13.4947
  0
LINE
  8
0
 10
-29.5877
 20
-13.4947
 11
-29.5646
 21
-13.5646
  0
LINE
  8
0
 10
-29.5646
 20
-13.5646
 11
-29.545
 21
-13.6355
  0
LINE
  8
0
 10
-29.545
 20
-13.6355
 11
-29.5288
 21
-13.7074
  0
LINE
  8
0
 10
-29.5288
 20
-13.7074
 11
-29.5162
 21
-13.7799
  0
LINE
  8
0
 10
-29.5162
 20
-13.7799
 11
-29.5072
 21
-13.853
  0
LINE
  8
0
 10
-29.5072
 20
-13.853
 11
-29.5018
 21
-13.9264
  0
LINE
  8
0
 10
-29.5018
 20
-13.9264
 11
-29.5
 21
-14
  0
LINE
  8
0
 10
-29.5
 20
-14
 11
-29.5018
 21
-14.0736
  0
LINE
  8
0
 10
-29.5018
 20
-14.0736
 11
-29.5072
 21
-14.147
  0
LINE
  8
0
 10
-29.5072
 20
-14.147
 11
-29.5162
 21
-14.2201
  0
LINE
  8
0
 10
-29.5162
 20
-14.2201
 11
-29.5288
 21
-14.2926
  0
LINE
  8
0
 10
-29.5288
 20
-14.2926
 11
-29.545
 21
-14.3645
  0
LINE
  8
0
 10
-29.545
 20
-14.3645
 11
-29.5646
 21
-14.4354
  0
LINE
  8
0
 10
-29.5646
 20
-14.4354
 11
-29.5877
 21
-14.5053
  0
LINE
  8
0
 10
-29.5877
 20
-14.5053
 11
-29.6142
 21
-14.574
  0
LINE
  8
0
 10
-29.6142
 20
-14.574
 11
-29.644
 21
-14.6413
  0
LINE
  8
0
 10
-29.644
 20
-14.6413
 11
-29.6771
 21
-14.7071
  0
LINE
  8
0
 10
-29.6771
 20
-14.7071
 11
-29.7134
 21
-14.7711
  0
LINE
  8
0
 10
-29.7134
 20
-14.7711
 11
-29.7528
 21
-14.8333
  0
LINE
  8
0
 10
-29.7528
 20
-14.8333
 11
-29.7952
 21
-14.8935
  0
LINE
  8
0
 10
-29.7952
 20
-14.8935
 11
-29.8405
 21
-14.9516
  0
LINE
  8
0
 10
-29.8405
 20
-14.9516
 11
-29.8886
 21
-15.0073
  0
LINE
  8
0
 10
-29.8886
 20
-15.0073
 11
-29.9393
 21
-15.0607
  0
LINE
  8
0
 10
-29.9393
 20
-15.0607
 11
-29.9927
 21
-15.1114
  0
LINE
  8
0
 10
-29.9927
 20
-15.1114
 11
-30.0484
 21
-15.1595
  0
LINE
  8
0
 10
-30.0484
 20
-15.1595
 11
-30.1064
 21
-15.2048
  0
LINE
  8
0
 10
-30.1064
 20
-15.2048
 11
-30.1666
 21
-15.2472
  0
LINE
  8
0
 10
-30.1666
 20
-15.2472
 11
-30.2288
 21
-15.2866
  0
LINE
  8
0
 10
-30.2288
 20
-15.2866
 11
-30.2929
 21
-15.3229
  0
LINE
  8
0
 10
-30.2929
 20
-15.3229
 11
-30.3587
 21
-15.356
  0
LINE
  8
0
 10
-30.3587
 20
-15.356
 11
-30.426
 21
-15.3858
  0
LINE
  8
0
 10
-30.426
 20
-15.3858
 11
-30.4947
 21
-15.4123
  0
LINE
  8
0
 10
-30.4947
 20
-15.4123
 11
-30.5646
 21
-15.4354
  0
LINE
  8
0
 10
-30.5646
 20
-15.4354
 11
-30.6355
 21
-15.455
  0
LINE
  8
0
 10
-30.6355
 20
-15.455
 11
-30.7074
 21
-15.4712
  0
LINE
  8
0
 10
-30.7074
 20
-15.4712
 11
-30.7799
 21
-15.4838
  0
LINE
  8
0
 10
-30.7799
 20
-15.4838
 11
-30.853
 21
-15.4928
  0
LINE
  8
0
 10
-30.853
 20
-15.4928
 11
-30.9264
 21
-15.4982
  0
LINE
  8
0
 10
-30.9264
 20
-15.4982
 11
-31
 21
-15.5
  0
LINE
  8
0
 10
-31
 20
-15.5
 11
-31.0736
 21
-15.4982
  0
LINE
  8
0
 10
30.9264
 20
-15.4982
 11
30.853
 21
-15.4928
  0
LINE
  8
0
 10
30.853
 20
-15.4928
 11
30.7799
 21
-15.4838
  0
LINE
  8
0
 10
30.7799
 20
-15.4838
 11
30.7074
 21
-15.4712
  0
LINE
  8
0
 10
30.7074
 20
-15.4712
 11
30.6355
 21
-15.455
  0
LINE
  8
0
 10
30.6355
 20
-15.455
 11
30.5646
 21
-15.4354
  0
LINE
  8
0
 10
30.5646
 20
-15.4354
 11
30.4947
 21
-15.4123
  0
LINE
  8
0
 10
30.4947
 20
-15.4123
 11
30.426
 21
-15.3858
  0
LINE
  8
0
 10
30.426
 20
-15.3858
 11
30.3587
 21
-15.356
  0
LINE
  8
0
 10
30.3587
 20
-15.356
 11
30.2929
 21
-15.3229
  0
LINE
  8
0
 10
30.2929
 20
-15.3229
 11
30.2288
 21
-15.2866
  0
LINE
  8
0
 10
30.2288
 20
-15.2866
 11
30.1666
 21
-15.2472
  0
LINE
  8
0
 10
30.1666
 20
-15.2472
 11
30.1064
 21
-15.2048
  0
LINE
  8
0
 10
30.1064
 20
-15.2048
 11
30.0484
 21
-15.1595
  0
LINE
  8
0
 10
30.0484
 20
-15.1595
 11
29.9927
 21
-15.1114
  0
LINE
  8
0
 10
29.9927
 20
-15.1114
 11
29.9393
 21
-15.0607
  0
LINE
  8
0
 10
29.9393
 20
-15.0607
 11
29.8886
 21
-15.0073
  0
LINE
  8
0
 10
29.8886
 20
-15.0073
 11
29.8405
 21
-14.9516
  0
LINE
  8
0
 10
29.8405
 20
-14.9516
 11
29.7952
 21
-14.8935
  0
LINE
  8
0
 10
29.7952
 20
-14.8935
 11
29.7528
 21
-14.8333
  0
LINE
  8
0
 10
29.7528
 20
-14.8333
 11
29.7134
 21
-14.7711
  0
LINE
  8
0
 10
29.7134
 20
-14.7711
 11
29.6771
 21
-14.7071
  0
LINE
  8
0
 10
29.6771
 20
-14.7071
 11
29.644
 21
-14.6413
  0
LINE
  8
0
 10
29.644
 20
-14.6413
 11
29.6142
 21
-14.574
  0
LINE
  8
0
 10
29.6142
 20
-14.574
 11
29.5877
 21
-14.5053
  0
LINE
  8
0
 10
29.5877
 20
-14.5053
 11
29.5646
 21
-14.4354
  0
LINE
  8
0
 10
29.5646
 20
-14.4354
 11
29.545
 21
-14.3645
  0
LINE
  8
0
 10
29.545
 20
-14.3645
 11
29.5288
 21
-14.2926
  0
LINE
  8
0
 10
29.5288
 20
-14.2926
 11
29.5162
 21
-14.2201
  0
LINE
  8
0
 10
29.5162
 20
-14.2201
 11
29.5072
 21
-14.147
  0
LINE
  8
0
 10
29.5072
 20
-14.147
 11
29.5018
 21
-14.0736
  0
LINE
  8
0
 10
29.5018
 20
-14.0736
 11
29.5
 21
-14
  0
LINE
  8
0
 10
29.5
 20
-14
 11
29.5018
 21
-13.9264
  0
LINE
  8
0
 10
29.5018
 20
-13.9264
 11
29.5072
 21
-13.853
  0
LINE
  8
0
 10
29.5072
 20
-13.853
 11
29.5162
 21
-13.7799
  0
LINE
  8
0
 10
29.5162
 20
-13.7799
 11
29.5288
 21
-13.7074
  0
LINE
  8
0
 10
29.5288
 20
-13.7074
 11
29.545
 21
-13.6355
  0
LINE
  8
0
 10
29.545
 20
-13.6355
 11
29.5646
 21
-13.5646
  0
LINE
  8
0
 10
29.5646
 20
-13.5646
 11
29.5877
 21
-13.4947
  0
LINE
  8
0
 10
29.5877
 20
-13.4947
 11
29.6142
 21
-13.426
  0
LINE
  8
0
 10
29.6142
 20
-13.426
 11
29.644
 21
-13.3587
  0
LINE
  8
0
 10
29.644
 20
-13.3587
 11
29.6771
 21
-13.2929
  0
LINE
  8
0
 10
29.6771
 20
-13.2929
 11
29.7134
 21
-13.2288
  0
LINE
  8
0
 10
29.7134
 20
-13.2288
 11
29.7528
 21
-13.1666
  0
LINE
  8
0
 10
29.7528
 20
-13.1666
 11
29.7952
 21
-13.1064
  0
LINE
  8
0
 10
29.7952
 20
-13.1064
 11
29.8405
 21
-13.0484
  0
LINE
  8
0
 10
29.8405
 20
-13.0484
 11
29.8886
 21
-12.9927
  0
LINE
  8
0
 10
29.8886
 20
-12.9927
 11
29.9393
 21
-12.9393
  0
LINE
  8
0
 10
29.9393
 20
-12.9393
 11
29.9927
 21
-12.8886
  0
LINE
  8
0
 10
29.9927
 20
-12.8886
 11
30.0484
 21
-12.8405
  0
LINE
  8
0
 10
30.0484
 20
-12.8405
 11
30.1064
 21
-12.7952
  0
LINE
  8
0
 10
30.1064
 20
-12.7952
 11
30.1666
 21
-12.7528
  0
LINE
  8
0
 10
30.1666
 20
-12.7528
 11
30.2288
 21
-12.7134
  0
LINE
  8
0
 10
30.2288
 20
-12.7134
 11
30.2929
 21
-12.6771
  0
LINE
  8
0
 10
30.2929
 20
-12.6771
 11
30.3587
 21
-12.644
  0
LINE
  8
0
 10
30.3587
 20
-12.644
 11
30.426
 21
-12.6142
  0
LINE
  8
0
 10
30.426
 20
-12.6142
 11
30.4947
 21
-12.5877
  0
LINE
  8
0
 10
30.4947
 20
-12.5877
 11
30.5646
 21
-12.5646
  0
LINE
  8
0
 10
30.5646
 20
-12.5646
 11
30.6355
 21
-12.545
  0
LINE
  8
0
 10
30.6355
 20
-12.545
 11
30.7074
 21
-12.5288
  0
LINE
  8
0
 10
30.7074
 20
-12.5288
 11
30.7799
 21
-12.5162
  0
LINE
  8
0
 10
30.7799
 20
-12.5162
 11
30.853
 21
-12.5072
  0
LINE
  8
0
 10
30.853
 20
-12.5072
 11
30.9264
 21
-12.5018
  0
LINE
  8
0
 10
30.9264
 20
-12.5018
 11
31
 21
-12.5
  0
LINE
  8
0
 10
31
 20
-12.5
 11
31.0736
 21
-12.5018
  0
LINE
  8
0
 10
31.0736
 20
-12.5018
 11
31.147
 21
-12.5072
  0
LINE
  8
0
 10
31.147
 20
-12.5072
 11
31.2201
 21
-12.5162
  0
LINE
  8
0
 10
31.2201
 20
-12.5162
 11
31.2926
 21
-12.5288
  0
LINE
  8
0
 10
31.2926
 20
-12.5288
 11
31.3645
 21
-12.545
  0
LINE
  8
0
 10
31.3645
 20
-12.545
 11
31.4354
 21
-12.5646
  0
LINE
  8
0
 10
31.4354
 20
-12.5646
 11
31.5053
 21
-12.5877
  0
LINE
  8
0
 10
31.5053
 20
-12.5877
 11
31.574
 21
-12.6142
  0
LINE
  8
0
 10
31.574
 20
-12.6142
 11
31.6413
 21
-12.644
  0
LINE
  8
0
 10
31.6413
 20
-12.644
 11
31.7071
 21
-12.6771
  0
LINE
  8
0
 10
31.7071
 20
-12.6771
 11
31.7711
 21
-12.7134
  0
LINE
  8
0
 10
31.7711
 20
-12.7134
 11
31.8333
 21
-12.7528
  0
LINE
  8
0
 10
31.8333
 20
-12.7528
 11
31.8935
 21
-12.7952
  0
LINE
  8
0
 10
31.8935
 20
-12.7952
 11
31.9516
 21
-12.8405
  0
LINE
  8
0
 10
31.9516
 20
-12.8405
 11
32.0073
 21
-12.8886
  0
LINE
  8
0
 10
32.0073
 20
-12.8886
 11
32.0607
 21
-12.9393
  0
LINE
  8
0
 10
32.0607
 20
-12.9393
 11
32.1114
 21
-12.9927
  0
LINE
  8
0
 10
32.1114
 20
-12.9927
 11
32.1595
 21
-13.0484
  0
LINE
  8
0
 10
32.1595
 20
-13.0484
 11
32.2048
 21
-13.1064
  0
LINE
  8
0
 10
32.2048
 20
-13.1064
 11
32.2472
 21
-13.1666
  0
LINE
  8
0
 10
32.2472
 20
-13.1666
 11
32.2866
 21
-13.2288
  0
LINE
  8
0
 10
32.2866
 20
-13.2288
 11
32.3229
 21
-13.2929
  0
LINE
  8
0
 10
32.3229
 20
-13.2929
 11
32.356
 21
-13.3587
  0
LINE
  8
0
 10
32.356
 20
-13.3587
 11
32.3858
 21
-13.426
  0
LINE
  8
0
 10
32.3858
 20
-13.426
 11
32.4123
 21
-13.4947
  0
LINE
  8
0
 10
32.4123
 20
-13.4947
 11
32.4354
 21
-13.5646
  0
LINE
  8
0
 10
32.4354
 20
-13.5646
 11
32.455
 21
-13.6355
  0
LINE
  8
0
 10
32.455
 20
-13.6355
 11
32.4712
 21
-13.7074
  0
LINE
  8
0
 10
32.4712
 20
-13.7074
 11
32.4838
 21
-13.7799
  0
LINE
  8
0
 10
32.4838
 20
-13.7799
 11
32.4928
 21
-13.853
  0
LINE
  8
0
 10
32.4928
 20
-13.853
 11
32.4982
 21
-13.9264
  0
LINE
  8
0
 10
32.4982
 20
-13.9264
 11
32.5
 21
-14
  0
LINE
  8
0
 10
32.5
 20
-14
 11
32.4982
 21
-14.0736
  0
LINE
  8
0
 10
32.4982
 20
-14.0736
 11
32.4928
 21
-14.147
  0
LINE
  8
0
 10
32.4928
 20
-14.147
 11
32.4838
 21
-14.2201
  0
LINE
  8
0
 10
32.4838
 20
-14.2201
 11
32.4712
 21
-14.2926
  0
LINE
  8
0
 10
32.4712
 20
-14.2926
 11
32.455
 21
-14.3645
  0
LINE
  8
0
 10
32.455
 20
-14.3645
 11
32.4354
 21
-14.4354
  0
LINE
  8
0
 10
32.4354
 20
-14.4354
 11
32.4123
 21
-14.5053
  0
LINE
  8
0
 10
32.4123
 20
-14.5053
 11
32.3858
 21
-14.574
  0
LINE
  8
0
 10
32.3858
 20
-14.574
 11
32.356
 21
-14.6413
  0
LINE
  8
0
 10
32.356
 20
-14.6413
 11
32.3229
 21
-14.7071
  0
LINE
  8
0
 10
32.3229
 20
-14.7071
 11
32.2866
 21
-14.7711
  0
LINE
  8
0
 10
32.2866
 20
-14.7711
 11
32.2472
 21
-14.8333
  0
LINE
  8
0
 10
32.2472
 20
-14.8333
 11
32.2048
 21
-14.8935
  0
LINE
  8
0
 10
32.2048
 20
-14.8935
 11
32.1595
 21
-14.9516
  0
LINE
  8
0
 10
32.1595
 20
-14.9516
 11
32.1114
 21
-15.0073
  0
LINE
  8
0
 10
32.1114
 20
-15.0073
 11
32.0607
 21
-15.0607
  0
LINE
  8
0
 10
32.0607
 20
-15.0607
 11
32.0073
 21
-15.1114
  0
LINE
  8
0
 10
32.0073
 20
-15.1114
 11
31.9516
 21
-15.1595
  0
LINE
  8
0
 10
31.9516
 20
-15.1595
 11
31.8935
 21
-15.2048
  0
LINE
  8
0
 10
31.8935
 20
-15.2048
 11
31.8333
 21
-15.2472
  0
LINE
  8
0
 10
31.8333
 20
-15.2472
 11
31.7711
 21
-15.2866
  0
LINE
  8
0
 10
31.7711
 20
-15.2866
 11
31.7071
 21
-15.3229
  0
LINE
  8
0
 10
31.7071
 20
-15.3229
 11
31.6413
 21
-15.356
  0
LINE
  8
0
 10
31.6413
 20
-15.356
 11
31.574
 21
-15.3858
  0
LINE
  8
0
 10
31.574
 20
-15.3858
 11
31.5053
 21
-15.4123
  0
LINE
  8
0
 10
31.5053
 20
-15.4123
 11
31.4354
 21
-15.4354
  0
LINE
  8
0
 10
31.4354
 20
-15.4354
 11
31.3645
 21
-15.455
  0
LINE
  8
0
 10
31.3645
 20
-15.455
 11
31.2926
 21
-15.4712
  0
LINE
  8
0
 10
31.2926
 20
-15.4712
 11
31.2201
 21
-15.4838
  0
LINE
  8
0
 10
31.2201
 20
-15.4838
 11
31.147
 21
-15.4928
  0
LINE
  8
0
 10
31.147
 20
-15.4928
 11
31.0736
 21
-15.4982
  0
LINE
  8
0
 10
31.0736
 20
-15.4982
 11
31
 21
-15.5
  0
LINE
  8
0
 10
31
 20
-15.5
 11
30.9264
 21
-15.4982
  0
LINE
  8
0
 10
-37.5687
 20
-20.8983
 11
-37.6372
 21
-20.8932
  0
LINE
  8
0
 10
-37.6372
 20
-20.8932
 11
-37.7054
 21
-20.8848
  0
LINE
  8
0
 10
-37.7054
 20
-20.8848
 11
-37.7731
 21
-20.8731
  0
LINE
  8
0
 10
-37.7731
 20
-20.8731
 11
-37.8402
 21
-20.858
  0
LINE
  8
0
 10
-37.8402
 20
-20.858
 11
-37.9064
 21
-20.8397
  0
LINE
  8
0
 10
-37.9064
 20
-20.8397
 11
-37.9716
 21
-20.8182
  0
LINE
  8
0
 10
-37.9716
 20
-20.8182
 11
-38.0358
 21
-20.7934
  0
LINE
  8
0
 10
-38.0358
 20
-20.7934
 11
-38.0986
 21
-20.7656
  0
LINE
  8
0
 10
-38.0986
 20
-20.7656
 11
-38.1599
 21
-20.7347
  0
LINE
  8
0
 10
-38.1599
 20
-20.7347
 11
-38.2197
 21
-20.7008
  0
LINE
  8
0
 10
-38.2197
 20
-20.7008
 11
-38.2778
 21
-20.664
  0
LINE
  8
0
 10
-38.2778
 20
-20.664
 11
-38.334
 21
-20.6245
  0
LINE
  8
0
 10
-38.334
 20
-20.6245
 11
-38.3881
 21
-20.5822
  0
LINE
  8
0
 10
-38.3881
 20
-20.5822
 11
-38.4402
 21
-20.5373
  0
LINE
  8
0
 10
-38.4402
 20
-20.5373
 11
-38.4899
 21
-20.4899
  0
LINE
  8
0
 10
-38.4899
 20
-20.4899
 11
-38.5373
 21
-20.4402
  0
LINE
  8
0
 10
-38.5373
 20
-20.4402
 11
-38.5822
 21
-20.3881
  0
LINE
  8
0
 10
-38.5822
 20
-20.3881
 11
-38.6245
 21
-20.334
  0
LINE
  8
0
 10
-38.6245
 20
-20.334
 11
-38.664
 21
-20.2778
  0
LINE
  8
0
 10
-38.664
 20
-20.2778
 11
-38.7008
 21
-20.2197
  0
LINE
  8
0
 10
-38.7008
 20
-20.2197
 11
-38.7347
 21
-20.1599
  0
LINE
  8
0
 10
-38.7347
 20
-20.1599
 11
-38.7656
 21
-20.0986
  0
LINE
  8
0
 10
-38.7656
 20
-20.0986
 11
-38.7934
 21
-20.0358
  0
LINE
  8
0
 10
-38.7934
 20
-20.0358
 11
-38.8182
 21
-19.9716
  0
LINE
  8
0
 10
-38.8182
 20
-19.9716
 11
-38.8397
 21
-19.9064
  0
LINE
  8
0
 10
-38.8397
 20
-19.9064
 11
-38.858
 21
-19.8402
  0
LINE
  8
0
 10
-38.858
 20
-19.8402
 11
-38.8731
 21
-19.7731
  0
LINE
  8
0
 10
-38.8731
 20
-19.7731
 11
-38.8848
 21
-19.7054
  0
LINE
  8
0
 10
-38.8848
 20
-19.7054
 11
-38.8932
 21
-19.6372
  0
LINE
  8
0
 10
-38.8932
 20
-19.6372
 11
-38.8983
 21
-19.5687
  0
LINE
  8
0
 10
-38.8983
 20
-19.5687
 11
-38.9
 21
-19.5
  0
LINE
  8
0
 10
-38.9
 20
-19.5
 11
-38.8983
 21
-19.4313
  0
LINE
  8
0
 10
-38.8983
 20
-19.4313
 11
-38.8932
 21
-19.3628
  0
LINE
  8
0
 10
-38.8932
 20
-19.3628
 11
-38.8848
 21
-19.2946
  0
LINE
  8
0
 10
-38.8848
 20
-19.2946
 11
-38.8731
 21
-19.2269
  0
LINE
  8
0
 10
-38.8731
 20
-19.2269
 11
-38.858
 21
-19.1598
  0
LINE
  8
0
 10
-38.858
 20
-19.1598
 11
-38.8397
 21
-19.0936
  0
LINE
  8
0
 10
-38.8397
 20
-19.0936
 11
-38.8182
 21
-19.0284
  0
LINE
  8
0
 10
-38.8182
 20
-19.0284
 11
-38.7934
 21
-18.9642
  0
LINE
  8
0
 10
-38.7934
 20
-18.9642
 11
-38.7656
 21
-18.9014
  0
LINE
  8
0
 10
-38.7656
 20
-18.9014
 11
-38.7347
 21
-18.84
  0
LINE
  8
0
 10
-38.7347
 20
-18.84
 11
-38.7008
 21
-18.7802
  0
LINE
  8
0
 10
-38.7008
 20
-18.7802
 11
-38.664
 21
-18.7222
  0
LINE
  8
0
 10
-38.664
 20
-18.7222
 11
-38.6245
 21
-18.666
  0
LINE
  8
0
 10
-38.6245
 20
-18.666
 11
-38.5822
 21
-18.6118
  0
LINE
  8
0
 10
-38.5822
 20
-18.6118
 11
-38.5373
 21
-18.5598
  0
LINE
  8
0
 10
-38.5373
 20
-18.5598
 11
-38.4899
 21
-18.51
  0
LINE
  8
0
 10
-38.4899
 20
-18.51
 11
-38.4402
 21
-18.4627
  0
LINE
  8
0
 10
-38.4402
 20
-18.4627
 11
-38.3881
 21
-18.4178
  0
LINE
  8
0
 10
-38.3881
 20
-18.4178
 11
-38.334
 21
-18.3755
  0
LINE
  8
0
 10
-38.334
 20
-18.3755
 11
-38.2778
 21
-18.3359
  0
LINE
  8
0
 10
-38.2778
 20
-18.3359
 11
-38.2197
 21
-18.2992
  0
LINE
  8
0
 10
-38.2197
 20
-18.2992
 11
-38.1599
 21
-18.2653
  0
LINE
  8
0
 10
-38.1599
 20
-18.2653
 11
-38.0986
 21
-18.2344
  0
LINE
  8
0
 10
-38.0986
 20
-18.2344
 11
-38.0358
 21
-18.2066
  0
LINE
  8
0
 10
-38.0358
 20
-18.2066
 11
-37.9716
 21
-18.1818
  0
LINE
  8
0
 10
-37.9716
 20
-18.1818
 11
-37.9064
 21
-18.1603
  0
LINE
  8
0
 10
-37.9064
 20
-18.1603
 11
-37.8402
 21
-18.142
  0
LINE
  8
0
 10
-37.8402
 20
-18.142
 11
-37.7731
 21
-18.1269
  0
LINE
  8
0
 10
-37.7731
 20
-18.1269
 11
-37.7054
 21
-18.1151
  0
LINE
  8
0
 10
-37.7054
 20
-18.1151
 11
-37.6372
 21
-18.1067
  0
LINE
  8
0
 10
-37.6372
 20
-18.1067
 11
-37.5687
 21
-18.1017
  0
LINE
  8
0
 10
-37.5687
 20
-18.1017
 11
-37.5
 21
-18.1
  0
LINE
  8
0
 10
-37.5
 20
-18.1
 11
-37.4313
 21
-18.1017
  0
LINE
  8
0
 10
-37.4313
 20
-18.1017
 11
-37.3628
 21
-18.1067
  0
LINE
  8
0
 10
-37.3628
 20
-18.1067
 11
-37.2946
 21
-18.1151
  0
LINE
  8
0
 10
-37.2946
 20
-18.1151
 11
-37.2269
 21
-18.1269
  0
LINE
  8
0
 10
-37.2269
 20
-18.1269
 11
-37.1598
 21
-18.142
  0
LINE
  8
0
 10
-37.1598
 20
-18.142
 11
-37.0936
 21
-18.1603
  0
LINE
  8
0
 10
-37.0936
 20
-18.1603
 11
-37.0284
 21
-18.1818
  0
LINE
  8
0
 10
-37.0284
 20
-18.1818
 11
-36.9642
 21
-18.2066
  0
LINE
  8
0
 10
-36.9642
 20
-18.2066
 11
-36.9014
 21
-18.2344
  0
LINE
  8
0
 10
-36.9014
 20
-18.2344
 11
-36.84
 21
-18.2653
  0
LINE
  8
0
 10
-36.84
 20
-18.2653
 11
-36.7802
 21
-18.2992
  0
LINE
  8
0
 10
-36.7802
 20
-18.2992
 11
-36.7222
 21
-18.3359
  0
LINE
  8
0
 10
-36.7222
 20
-18.3359
 11
-36.666
 21
-18.3755
  0
LINE
  8
0
 10
-36.666
 20
-18.3755
 11
-36.6118
 21
-18.4178
  0
LINE
  8
0
 10
-36.6118
 20
-18.4178
 11
-36.5598
 21
-18.4627
  0
LINE
  8
0
 10
-36.5598
 20
-18.4627
 11
-36.51
 21
-18.51
  0
LINE
  8
0
 10
-36.51
 20
-18.51
 11
-36.4627
 21
-18.5598
  0
LINE
  8
0
 10
-36.4627
 20
-18.5598
 11
-36.4178
 21
-18.6118
  0
LINE
  8
0
 10
-36.4178
 20
-18.6118
 11
-36.3755
 21
-18.666
  0
LINE
  8
0
 10
-36.3755
 20
-18.666
 11
-36.3359
 21
-18.7222
  0
LINE
  8
0
 10
-36.3359
 20
-18.7222
 11
-36.2992
 21
-18.7802
  0
LINE
  8
0
 10
-36.2992
 20
-18.7802
 11
-36.2653
 21
-18.84
  0
LINE
  8
0
 10
-36.2653
 20
-18.84
 11
-36.2344
 21
-18.9014
  0
LINE
  8
0
 10
-36.2344
 20
-18.9014
 11
-36.2066
 21
-18.9642
  0
LINE
  8
0
 10
-36.2066
 20
-18.9642
 11
-36.1818
 21
-19.0284
  0
LINE
  8
0
 10
-36.1818
 20
-19.0284
 11
-36.1603
 21
-19.0936
  0
LINE
  8
0
 10
-36.1603
 20
-19.0936
 11
-36.142
 21
-19.1598
  0
LINE
  8
0
 10
-36.142
 20
-19.1598
 11
-36.1269
 21
-19.2269
  0
LINE
  8
0
 10
-36.1269
 20
-19.2269
 11
-36.1151
 21
-19.2946
  0
LINE
  8
0
 10
-36.1151
 20
-19.2946
 11
-36.1067
 21
-19.3628
  0
LINE
  8
0
 10
-36.1067
 20
-19.3628
 11
-36.1017
 21
-19.4313
  0
LINE
  8
0
 10
-36.1017
 20
-19.4313
 11
-36.1
 21
-19.5
  0
LINE
  8
0
 10
-36.1
 20
-19.5
 11
-36.1017
 21
-19.5687
  0
LINE
  8
0
 10
-36.1017
 20
-19.5687
 11
-36.1067
 21
-19.6372
  0
LINE
  8
0
 10
-36.1067
 20
-19.6372
 11
-36.1151
 21
-19.7054
  0
LINE
  8
0
 10
-36.1151
 20
-19.7054
 11
-36.1269
 21
-19.7731
  0
LINE
  8
0
 10
-36.1269
 20
-19.7731
 11
-36.142
 21
-19.8402
  0
LINE
  8
0
 10
-36.142
 20
-19.8402
 11
-36.1603
 21
-19.9064
  0
LINE
  8
0
 10
-36.1603
 20
-19.9064
 11
-36.1818
 21
-19.9716
  0
LINE
  8
0
 10
-36.1818
 20
-19.9716
 11
-36.2066
 21
-20.0358
  0
LINE
  8
0
 10
-36.2066
 20
-20.0358
 11
-36.2344
 21
-20.0986
  0
LINE
  8
0
 10
-36.2344
 20
-20.0986
 11
-36.2653
 21
-20.1599
  0
LINE
  8
0
 10
-36.2653
 20
-20.1599
 11
-36.2992
 21
-20.2197
  0
LINE
  8
0
 10
-36.2992
 20
-20.2197
 11
-36.3359
 21
-20.2778
  0
LINE
  8
0
 10
-36.3359
 20
-20.2778
 11
-36.3755
 21
-20.334
  0
LINE
  8
0
 10
-36.3755
 20
-20.334
 11
-36.4178
 21
-20.3881
  0
LINE
  8
0
 10
-36.4178
 20
-20.3881
 11
-36.4627
 21
-20.4402
  0
LINE
  8
0
 10
-36.4627
 20
-20.4402
 11
-36.51
 21
-20.4899
  0
LINE
  8
0
 10
-36.51
 20
-20.4899
 11
-36.5598
 21
-20.5373
  0
LINE
  8
0
 10
-36.5598
 20
-20.5373
 11
-36.6118
 21
-20.5822
  0
LINE
  8
0
 10
-36.6118
 20
-20.5822
 11
-36.666
 21
-20.6245
  0
LINE
  8
0
 10
-36.666
 20
-20.6245
 11
-36.7222
 21
-20.664
  0
LINE
  8
0
 10
-36.7222
 20
-20.664
 11
-36.7802
 21
-20.7008
  0
LINE
  8
0
 10
-36.7802
 20
-20.7008
 11
-36.84
 21
-20.7347
  0
LINE
  8
0
 10
-36.84
 20
-20.7347
 11
-36.9014
 21
-20.7656
  0
LINE
  8
0
 10
-36.9014
 20
-20.7656
 11
-36.9642
 21
-20.7934
  0
LINE
  8
0
 10
-36.9642
 20
-20.7934
 11
-37.0284
 21
-20.8182
  0
LINE
  8
0
 10
-37.0284
 20
-20.8182
 11
-37.0936
 21
-20.8397
  0
LINE
  8
0
 10
-37.0936
 20
-20.8397
 11
-37.1598
 21
-20.858
  0
LINE
  8
0
 10
-37.1598
 20
-20.858
 11
-37.2269
 21
-20.8731
  0
LINE
  8
0
 10
-37.2269
 20
-20.8731
 11
-37.2946
 21
-20.8848
  0
LINE
  8
0
 10
-37.2946
 20
-20.8848
 11
-37.3628
 21
-20.8932
  0
LINE
  8
0
 10
-37.3628
 20
-20.8932
 11
-37.4313
 21
-20.8983
  0
LINE
  8
0
 10
-37.4313
 20
-20.8983
 11
-37.5
 21
-20.9
  0
LINE
  8
0
 10
-37.5
 20
-20.9
 11
-37.5687
 21
-20.8983
  0
LINE
  8
0
 10
37.4313
 20
-20.8983
 11
37.3628
 21
-20.8932
  0
LINE
  8
0
 10
37.3628
 20
-20.8932
 11
37.2946
 21
-20.8848
  0
LINE
  8
0
 10
37.2946
 20
-20.8848
 11
37.2269
 21
-20.8731
  0
LINE
  8
0
 10
37.2269
 20
-20.8731
 11
37.1598
 21
-20.858
  0
LINE
  8
0
 10
37.1598
 20
-20.858
 11
37.0936
 21
-20.8397
  0
LINE
  8
0
 10
37.0936
 20
-20.8397
 11
37.0284
 21
-20.8182
  0
LINE
  8
0
 10
37.0284
 20
-20.8182
 11
36.9642
 21
-20.7934
  0
LINE
  8
0
 10
36.9642
 20
-20.7934
 11
36.9014
 21
-20.7656
  0
LINE
  8
0
 10
36.9014
 20
-20.7656
 11
36.84
 21
-20.7347
  0
LINE
  8
0
 10
36.84
 20
-20.7347
 11
36.7802
 21
-20.7008
  0
LINE
  8
0
 10
36.7802
 20
-20.7008
 11
36.7222
 21
-20.664
  0
LINE
  8
0
 10
36.7222
 20
-20.664
 11
36.666
 21
-20.6245
  0
LINE
  8
0
 10
36.666
 20
-20.6245
 11
36.6118
 21
-20.5822
  0
LINE
  8
0
 10
36.6118
 20
-20.5822
 11
36.5598
 21
-20.5373
  0
LINE
  8
0
 10
36.5598
 20
-20.5373
 11
36.51
 21
-20.4899
  0
LINE
  8
0
 10
36.51
 20
-20.4899
 11
36.4627
 21
-20.4402
  0
LINE
  8
0
 10
36.4627
 20
-20.4402
 11
36.4178
 21
-20.3881
  0
LINE
  8
0
 10
36.4178
 20
-20.3881
 11
36.3755
 21
-20.334
  0
LINE
  8
0
 10
36.3755
 20
-20.334
 11
36.3359
 21
-20.2778
  0
LINE
  8
0
 10
36.3359
 20
-20.2778
 11
36.2992
 21
-20.2197
  0
LINE
  8
0
 10
36.2992
 20
-20.2197
 11
36.2653
 21
-20.1599
  0
LINE
  8
0
 10
36.2653
 20
-20.1599
 11
36.2344
 21
-20.0986
  0
LINE
  8
0
 10
36.2344
 20
-20.0986
 11
36.2066
 21
-20.0358
  0
LINE
  8
0
 10
36.2066
 20
-20.0358
 11
36.1818
 21
-19.9716
  0
LINE
  8
0
 10
36.1818
 20
-19.9716
 11
36.1603
 21
-19.9064
  0
LINE
  8
0
 10
36.1603
 20
-19.9064
 11
36.142
 21
-19.8402
  0
LINE
  8
0
 10
36.142
 20
-19.8402
 11
36.1269
 21
-19.7731
  0
LINE
  8
0
 10
36.1269
 20
-19.7731
 11
36.1151
 21
-19.7054
  0
LINE
  8
0
 10
36.1151
 20
-19.7054
 11
36.1067
 21
-19.6372
  0
LINE
  8
0
 10
36.1067
 20
-19.6372
 11
36.1017
 21
-19.5687
  0
LINE
  8
0
 10
36.1017
 20
-19.5687
 11
36.1
 21
-19.5
  0
LINE
  8
0
 10
36.1
 20
-19.5
 11
36.1017
 21
-19.4313
  0
LINE
  8
0
 10
36.1017
 20
-19.4313
 11
36.1067
 21
-19.3628
  0
LINE
  8
0
 10
36.1067
 20
-19.3628
 11
36.1151
 21
-19.2946
  0
LINE
  8
0
 10
36.1151
 20
-19.2946
 11
36.1269
 21
-19.2269
  0
LINE
  8
0
 10
36.1269
 20
-19.2269
 11
36.142
 21
-19.1598
  0
LINE
  8
0
 10
36.142
 20
-19.1598
 11
36.1603
 21
-19.0936
  0
LINE
  8
0
 10
36.1603
 20
-19.0936
 11
36.1818
 21
-19.0284
  0
LINE
  8
0
 10
36.1818
 20
-19.0284
 11
36.2066
 21
-18.9642
  0
LINE
  8
0
 10
36.2066
 20
-18.9642
 11
36.2344
 21
-18.9014
  0
LINE
  8
0
 10
36.2344
 20
-18.9014
 11
36.2653
 21
-18.84
  0
LINE
  8
0
 10
36.2653
 20
-18.84
 11
36.2992
 21
-18.7802
  0
LINE
  8
0
 10
36.2992
 20
-18.7802
 11
36.3359
 21
-18.7222
  0
LINE
  8
0
 10
36.3359
 20
-18.7222
 11
36.3755
 21
-18.666
  0
LINE
  8
0
 10
36.3755
 20
-18.666
 11
36.4178
 21
-18.6118
  0
LINE
  8
0
 10
36.4178
 20
-18.6118
 11
36.4627
 21
-18.5598
  0
LINE
  8
0
 10
36.4627
 20
-18.5598
 11
36.51
 21
-18.51
  0
LINE
  8
0
 10
36.51
 20
-18.51
 11
36.5598
 21
-18.4627
  0
LINE
  8
0
 10
36.5598
 20
-18.4627
 11
36.6118
 21
-18.4178
  0
LINE
  8
0
 10
36.6118
 20
-18.4178
 11
36.666
 21
-18.3755
  0
LINE
  8
0
 10
36.666
 20
-18.3755
 11
36.7222
 21
-18.3359
  0
LINE
  8
0
 10
36.7222
 20
-18.3359
 11
36.7802
 21
-18.2992
  0
LINE
  8
0
 10
36.7802
 20
-18.2992
 11
36.84
 21
-18.2653
  0
LINE
  8
0
 10
36.84
 20
-18.2653
 11
36.9014
 21
-18.2344
  0
LINE
  8
0
 10
36.9014
 20
-18.2344
 11
36.9642
 21
-18.2066
  0
LINE
  8
0
 10
36.9642
 20
-18.2066
 11
37.0284
 21
-18.1818
  0
LINE
  8
0
 10
37.0284
 20
-18.1818
 11
37.0936
 21
-18.1603
  0
LINE
  8
0
 10
37.0936
 20
-18.1603
 11
37.1598
 21
-18.142
  0
LINE
  8
0
 10
37.1598
 20
-18.142
 11
37.2269
 21
-18.1269
  0
LINE
  8
0
 10
37.2269
 20
-18.1269
 11
37.2946
 21
-18.1151
  0
LINE
  8
0
 10
37.2946
 20
-18.1151
 11
37.3628
 21
-18.1067
  0
LINE
  8
0
 10
37.3628
 20
-18.1067
 11
37.4313
 21
-18.1017
  0
LINE
  8
0
 10
37.4313
 20
-18.1017
 11
37.5
 21
-18.1
  0
LINE
  8
0
 10
37.5
 20
-18.1
 11
37.5687
 21
-18.1017
  0
LINE
  8
0
 10
37.5687
 20
-18.1017
 11
37.6372
 21
-18.1067
  0
LINE
  8
0
 10
37.6372
 20
-18.1067
 11
37.7054
 21
-18.1151
  0
LINE
  8
0
 10
37.7054
 20
-18.1151
 11
37.7731
 21
-18.1269
  0
LINE
  8
0
 10
37.7731
 20
-18.1269
 11
37.8402
 21
-18.142
  0
LINE
  8
0
 10
37.8402
 20
-18.142
 11
37.9064
 21
-18.1603
  0
LINE
  8
0
 10
37.9064
 20
-18.1603
 11
37.9716
 21
-18.1818
  0
LINE
  8
0
 10
37.9716
 20
-18.1818
 11
38.0358
 21
-18.2066
  0
LINE
  8
0
 10
38.0358
 20
-18.2066
 11
38.0986
 21
-18.2344
  0
LINE
  8
0
 10
38.0986
 20
-18.2344
 11
38.1599
 21
-18.2653
  0
LINE
  8
0
 10
38.1599
 20
-18.2653
 11
38.2197
 21
-18.2992
  0
LINE
  8
0
 10
38.2197
 20
-18.2992
 11
38.2778
 21
-18.3359
  0
LINE
  8
0
 10
38.2778
 20
-18.3359
 11
38.334
 21
-18.3755
  0
LINE
  8
0
 10
38.334
 20
-18.3755
 11
38.3881
 21
-18.4178
  0
LINE
  8
0
 10
38.3881
 20
-18.4178
 11
38.4402
 21
-18.4627
  0
LINE
  8
0
 10
38.4402
 20
-18.4627
 11
38.4899
 21
-18.51
  0
LINE
  8
0
 10
38.4899
 20
-18.51
 11
38.5373
 21
-18.5598
  0
LINE
  8
0
 10
38.5373
 20
-18.5598
 11
38.5822
 21
-18.6118
  0
LINE
  8
0
 10
38.5822
 20
-18.6118
 11
38.6245
 21
-18.666
  0
LINE
  8
0
 10
38.6245
 20
-18.666
 11
38.664
 21
-18.7222
  0
LINE
  8
0
 10
38.664
 20
-18.7222
 11
38.7008
 21
-18.7802
  0
LINE
  8
0
 10
38.7008
 20
-18.7802
 11
38.7347
 21
-18.84
  0
LINE
  8
0
 10
38.7347
 20
-18.84
 11
38.7656
 21
-18.9014
  0
LINE
  8
0
 10
38.7656
 20
-18.9014
 11
38.7934
 21
-18.9642
  0
LINE
  8
0
 10
38.7934
 20
-18.9642
 11
38.8182
 21
-19.0284
  0
LINE
  8
0
 10
38.8182
 20
-19.0284
 11
38.8397
 21
-19.0936
  0
LINE
  8
0
 10
38.8397
 20
-19.0936
 11
38.858
 21
-19.1598
  0
LINE
  8
0
 10
38.858
 20
-19.1598
 11
38.8731
 21
-19.2269
  0
LINE
  8
0
 10
38.8731
 20
-19.2269
 11
38.8848
 21
-19.2946
  0
LINE
  8
0
 10
38.8848
 20
-19.2946
 11
38.8932
 21
-19.3628
  0
LINE
  8
0
 10
38.8932
 20
-19.3628
 11
38.8983
 21
-19.4313
  0
LINE
  8
0
 10
38.8983
 20
-19.4313
 11
38.9
 21
-19.5
  0
LINE
  8
0
 10
38.9
 20
-19.5
 11
38.8983
 21
-19.5687
  0
LINE
  8
0
 10
38.8983
 20
-19.5687
 11
38.8932
 21
-19.6372
  0
LINE
  8
0
 10
38.8932
 20
-19.6372
 11
38.8848
 21
-19.7054
  0
LINE
  8
0
 10
38.8848
 20
-19.7054
 11
38.8731
 21
-19.7731
  0
LINE
  8
0
 10
38.8731
 20
-19.7731
 11
38.858
 21
-19.8402
  0
LINE
  8
0
 10
38.858
 20
-19.8402
 11
38.8397
 21
-19.9064
  0
LINE
  8
0
 10
38.8397
 20
-19.9064
 11
38.8182
 21
-19.9716
  0
LINE
  8
0
 10
38.8182
 20
-19.9716
 11
38.7934
 21
-20.0358
  0
LINE
  8
0
 10
38.7934
 20
-20.0358
 11
38.7656
 21
-20.0986
  0
LINE
  8
0
 10
38.7656
 20
-20.0986
 11
38.7347
 21
-20.1599
  0
LINE
  8
0
 10
38.7347
 20
-20.1599
 11
38.7008
 21
-20.2197
  0
LINE
  8
0
 10
38.7008
 20
-20.2197
 11
38.664
 21
-20.2778
  0
LINE
  8
0
 10
38.664
 20
-20.2778
 11
38.6245
 21
-20.334
  0
LINE
  8
0
 10
38.6245
 20
-20.334
 11
38.5822
 21
-20.3881
  0
LINE
  8
0
 10
38.5822
 20
-20.3881
 11
38.5373
 21
-20.4402
  0
LINE
  8
0
 10
38.5373
 20
-20.4402
 11
38.4899
 21
-20.4899
  0
LINE
  8
0
 10
38.4899
 20
-20.4899
 11
38.4402
 21
-20.5373
  0
LINE
  8
0
 10
38.4402
 20
-20.5373
 11
38.3881
 21
-20.5822
  0
LINE
  8
0
 10
38.3881
 20
-20.5822
 11
38.334
 21
-20.6245
  0
LINE
  8
0
 10
38.334
 20
-20.6245
 11
38.2778
 21
-20.664
  0
LINE
  8
0
 10
38.2778
 20
-20.664
 11
38.2197
 21
-20.7008
  0
LINE
  8
0
 10
38.2197
 20
-20.7008
 11
38.1599
 21
-20.7347
  0
LINE
  8
0
 10
38.1599
 20
-20.7347
 11
38.0986
 21
-20.7656
  0
LINE
  8
0
 10
38.0986
 20
-20.7656
 11
38.0358
 21
-20.7934
  0
LINE
  8
0
 10
38.0358
 20
-20.7934
 11
37.9716
 21
-20.8182
  0
LINE
  8
0
 10
37.9716
 20
-20.8182
 11
37.9064
 21
-20.8397
  0
LINE
  8
0
 10
37.9064
 20
-20.8397
 11
37.8402
 21
-20.858
  0
LINE
  8
0
 10
37.8402
 20
-20.858
 11
37.7731
 21
-20.8731
  0
LINE
  8
0
 10
37.7731
 20
-20.8731
 11
37.7054
 21
-20.8848
  0
LINE
  8
0
 10
37.7054
 20
-20.8848
 11
37.6372
 21
-20.8932
  0
LINE
  8
0
 10
37.6372
 20
-20.8932
 11
37.5687
 21
-20.8983
  0
LINE
  8
0
 10
37.5687
 20
-20.8983
 11
37.5
 21
-20.9
  0
LINE
  8
0
 10
37.5
 20
-20.9
 11
37.4313
 21
-20.8983
  0
ENDSEC
  0
SECTION
  2
OBJECTS
  0
DICTIONARY
  0
ENDSEC
  0
EOF
