  0
SECTION
  2
BLOCKS
  0
ENDSEC
  0
SECTION
  2
ENTITIES
  0
LINE
  8
0
 10
35.2453
 20
-32.494
 11
35.4901
 21
-32.4759
  0
LINE
  8
0
 10
35.4901
 20
-32.4759
 11
35.7337
 21
-32.4459
  0
LINE
  8
0
 10
35.7337
 20
-32.4459
 11
35.9754
 21
-32.4039
  0
LINE
  8
0
 10
35.9754
 20
-32.4039
 11
36.2149
 21
-32.3502
  0
LINE
  8
0
 10
36.2149
 20
-32.3502
 11
36.4514
 21
-32.2847
  0
LINE
  8
0
 10
36.4514
 20
-32.2847
 11
36.6844
 21
-32.2077
  0
LINE
  8
0
 10
36.6844
 20
-32.2077
 11
36.9134
 21
-32.1194
  0
LINE
  8
0
 10
36.9134
 20
-32.1194
 11
37.1378
 21
-32.0199
  0
LINE
  8
0
 10
37.1378
 20
-32.0199
 11
37.357
 21
-31.9096
  0
LINE
  8
0
 10
37.357
 20
-31.9096
 11
37.5705
 21
-31.7887
  0
LINE
  8
0
 10
37.5705
 20
-31.7887
 11
37.7778
 21
-31.6573
  0
LINE
  8
0
 10
37.7778
 20
-31.6573
 11
37.9785
 21
-31.516
  0
LINE
  8
0
 10
37.9785
 20
-31.516
 11
38.172
 21
-31.3651
  0
LINE
  8
0
 10
38.172
 20
-31.3651
 11
38.3578
 21
-31.2048
  0
LINE
  8
0
 10
38.3578
 20
-31.2048
 11
38.5355
 21
-31.0355
  0
LINE
  8
0
 10
38.5355
 20
-31.0355
 11
38.7048
 21
-30.8578
  0
LINE
  8
0
 10
38.7048
 20
-30.8578
 11
38.8651
 21
-30.672
  0
LINE
  8
0
 10
38.8651
 20
-30.672
 11
39.016
 21
-30.4785
  0
LINE
  8
0
 10
39.016
 20
-30.4785
 11
39.1573
 21
-30.2778
  0
LINE
  8
0
 10
39.1573
 20
-30.2778
 11
39.2887
 21
-30.0705
  0
LINE
  8
0
 10
39.2887
 20
-30.0705
 11
39.4096
 21
-29.857
  0
LINE
  8
0
 10
39.4096
 20
-29.857
 11
39.5199
 21
-29.6378
  0
LINE
  8
0
 10
39.5199
 20
-29.6378
 11
39.6194
 21
-29.4134
  0
LINE
  8
0
 10
39.6194
 20
-29.4134
 11
39.7077
 21
-29.1844
  0
LINE
  8
0
 10
39.7077
 20
-29.1844
 11
39.7847
 21
-28.9514
  0
LINE
  8
0
 10
39.7847
 20
-28.9514
 11
39.8502
 21
-28.7149
  0
LINE
  8
0
 10
39.8502
 20
-28.7149
 11
39.9039
 21
-28.4754
  0
LINE
  8
0
 10
39.9039
 20
-28.4754
 11
39.9459
 21
-28.2337
  0
LINE
  8
0
 10
39.9459
 20
-28.2337
 11
39.9759
 21
-27.9901
  0
LINE
  8
0
 10
39.9759
 20
-27.9901
 11
39.994
 21
-27.7453
  0
LINE
  8
0
 10
39.994
 20
-27.7453
 11
40
 21
-27.5
  0
LINE
  8
0
 10
40
 20
-27.5
 11
40
 21
27.5
  0
LINE
  8
0
 10
40
 20
27.5
 11
39.994
 21
27.7453
  0
LINE
  8
0
 10
39.994
 20
27.7453
 11
39.9759
 21
27.9901
  0
LINE
  8
0
 10
39.9759
 20
27.9901
 11
39.9459
 21
28.2337
  0
LINE
  8
0
 10
39.9459
 20
28.2337
 11
39.9039
 21
28.4754
  0
LINE
  8
0
 10
39.9039
 20
28.4754
 11
39.8502
 21
28.7149
  0
LINE
  8
0
 10
39.8502
 20
28.7149
 11
39.7847
 21
28.9514
  0
LINE
  8
0
 10
39.7847
 20
28.9514
 11
39.7077
 21
29.1844
  0
LINE
  8
0
 10
39.7077
 20
29.1844
 11
39.6194
 21
29.4134
  0
LINE
  8
0
 10
39.6194
 20
29.4134
 11
39.5199
 21
29.6378
  0
LINE
  8
0
 10
39.5199
 20
29.6378
 11
39.4096
 21
29.857
  0
LINE
  8
0
 10
39.4096
 20
29.857
 11
39.2887
 21
30.0705
  0
LINE
  8
0
 10
39.2887
 20
30.0705
 11
39.1573
 21
30.2778
  0
LINE
  8
0
 10
39.1573
 20
30.2778
 11
39.016
 21
30.4785
  0
LINE
  8
0
 10
39.016
 20
30.4785
 11
38.8651
 21
30.672
  0
LINE
  8
0
 10
38.8651
 20
30.672
 11
38.7048
 21
30.8578
  0
LINE
  8
0
 10
38.7048
 20
30.8578
 11
38.5355
 21
31.0355
  0
LINE
  8
0
 10
38.5355
 20
31.0355
 11
38.3578
 21
31.2048
  0
LINE
  8
0
 10
38.3578
 20
31.2048
 11
38.172
 21
31.3651
  0
LINE
  8
0
 10
38.172
 20
31.3651
 11
37.9785
 21
31.516
  0
LINE
  8
0
 10
37.9785
 20
31.516
 11
37.7778
 21
31.6573
  0
LINE
  8
0
 10
37.7778
 20
31.6573
 11
37.5705
 21
31.7887
  0
LINE
  8
0
 10
37.5705
 20
31.7887
 11
37.357
 21
31.9096
  0
LINE
  8
0
 10
37.357
 20
31.9096
 11
37.1378
 21
32.0199
  0
LINE
  8
0
 10
37.1378
 20
32.0199
 11
36.9134
 21
32.1194
  0
LINE
  8
0
 10
36.9134
 20
32.1194
 11
36.6844
 21
32.2077
  0
LINE
  8
0
 10
36.6844
 20
32.2077
 11
36.4514
 21
32.2847
  0
LINE
  8
0
 10
36.4514
 20
32.2847
 11
36.2149
 21
32.3502
  0
LINE
  8
0
 10
36.2149
 20
32.3502
 11
35.9754
 21
32.4039
  0
LINE
  8
0
 10
35.9754
 20
32.4039
 11
35.7337
 21
32.4459
  0
LINE
  8
0
 10
35.7337
 20
32.4459
 11
35.4901
 21
32.4759
  0
LINE
  8
0
 10
35.4901
 20
32.4759
 11
35.2453
 21
32.494
  0
LINE
  8
0
 10
35.2453
 20
32.494
 11
35
 21
32.5
  0
LINE
  8
0
 10
35
 20
32.5
 11
-35
 21
32.5
  0
LINE
  8
0
 10
-35
 20
32.5
 11
-35.2453
 21
32.494
  0
LINE
  8
0
 10
-35.2453
 20
32.494
 11
-35.4901
 21
32.4759
  0
LINE
  8
0
 10
-35.4901
 20
32.4759
 11
-35.7337
 21
32.4459
  0
LINE
  8
0
 10
-35.7337
 20
32.4459
 11
-35.9754
 21
32.4039
  0
LINE
  8
0
 10
-35.9754
 20
32.4039
 11
-36.2149
 21
32.3502
  0
LINE
  8
0
 10
-36.2149
 20
32.3502
 11
-36.4514
 21
32.2847
  0
LINE
  8
0
 10
-36.4514
 20
32.2847
 11
-36.6844
 21
32.2077
  0
LINE
  8
0
 10
-36.6844
 20
32.2077
 11
-36.9134
 21
32.1194
  0
LINE
  8
0
 10
-36.9134
 20
32.1194
 11
-37.1378
 21
32.0199
  0
LINE
  8
0
 10
-37.1378
 20
32.0199
 11
-37.357
 21
31.9096
  0
LINE
  8
0
 10
-37.357
 20
31.9096
 11
-37.5705
 21
31.7887
  0
LINE
  8
0
 10
-37.5705
 20
31.7887
 11
-37.7778
 21
31.6573
  0
LINE
  8
0
 10
-37.7778
 20
31.6573
 11
-37.9785
 21
31.516
  0
LINE
  8
0
 10
-37.9785
 20
31.516
 11
-38.172
 21
31.3651
  0
LINE
  8
0
 10
-38.172
 20
31.3651
 11
-38.3578
 21
31.2048
  0
LINE
  8
0
 10
-38.3578
 20
31.2048
 11
-38.5355
 21
31.0355
  0
LINE
  8
0
 10
-38.5355
 20
31.0355
 11
-38.7048
 21
30.8578
  0
LINE
  8
0
 10
-38.7048
 20
30.8578
 11
-38.8651
 21
30.672
  0
LINE
  8
0
 10
-38.8651
 20
30.672
 11
-39.016
 21
30.4785
  0
LINE
  8
0
 10
-39.016
 20
30.4785
 11
-39.1573
 21
30.2778
  0
LINE
  8
0
 10
-39.1573
 20
30.2778
 11
-39.2887
 21
30.0705
  0
LINE
  8
0
 10
-39.2887
 20
30.0705
 11
-39.4096
 21
29.857
  0
LINE
  8
0
 10
-39.4096
 20
29.857
 11
-39.5199
 21
29.6378
  0
LINE
  8
0
 10
-39.5199
 20
29.6378
 11
-39.6194
 21
29.4134
  0
LINE
  8
0
 10
-39.6194
 20
29.4134
 11
-39.7077
 21
29.1844
  0
LINE
  8
0
 10
-39.7077
 20
29.1844
 11
-39.7847
 21
28.9514
  0
LINE
  8
0
 10
-39.7847
 20
28.9514
 11
-39.8502
 21
28.7149
  0
LINE
  8
0
 10
-39.8502
 20
28.7149
 11
-39.9039
 21
28.4754
  0
LINE
  8
0
 10
-39.9039
 20
28.4754
 11
-39.9459
 21
28.2337
  0
LINE
  8
0
 10
-39.9459
 20
28.2337
 11
-39.9759
 21
27.9901
  0
LINE
  8
0
 10
-39.9759
 20
27.9901
 11
-39.994
 21
27.7453
  0
LINE
  8
0
 10
-39.994
 20
27.7453
 11
-40
 21
27.5
  0
LINE
  8
0
 10
-40
 20
27.5
 11
-40
 21
-27.5
  0
LINE
  8
0
 10
-40
 20
-27.5
 11
-39.994
 21
-27.7453
  0
LINE
  8
0
 10
-39.994
 20
-27.7453
 11
-39.9759
 21
-27.9901
  0
LINE
  8
0
 10
-39.9759
 20
-27.9901
 11
-39.9459
 21
-28.2337
  0
LINE
  8
0
 10
-39.9459
 20
-28.2337
 11
-39.9039
 21
-28.4754
  0
LINE
  8
0
 10
-39.9039
 20
-28.4754
 11
-39.8502
 21
-28.7149
  0
LINE
  8
0
 10
-39.8502
 20
-28.7149
 11
-39.7847
 21
-28.9514
  0
LINE
  8
0
 10
-39.7847
 20
-28.9514
 11
-39.7077
 21
-29.1844
  0
LINE
  8
0
 10
-39.7077
 20
-29.1844
 11
-39.6194
 21
-29.4134
  0
LINE
  8
0
 10
-39.6194
 20
-29.4134
 11
-39.5199
 21
-29.6378
  0
LINE
  8
0
 10
-39.5199
 20
-29.6378
 11
-39.4096
 21
-29.857
  0
LINE
  8
0
 10
-39.4096
 20
-29.857
 11
-39.2887
 21
-30.0705
  0
LINE
  8
0
 10
-39.2887
 20
-30.0705
 11
-39.1573
 21
-30.2778
  0
LINE
  8
0
 10
-39.1573
 20
-30.2778
 11
-39.016
 21
-30.4785
  0
LINE
  8
0
 10
-39.016
 20
-30.4785
 11
-38.8651
 21
-30.672
  0
LINE
  8
0
 10
-38.8651
 20
-30.672
 11
-38.7048
 21
-30.8578
  0
LINE
  8
0
 10
-38.7048
 20
-30.8578
 11
-38.5355
 21
-31.0355
  0
LINE
  8
0
 10
-38.5355
 20
-31.0355
 11
-38.3578
 21
-31.2048
  0
LINE
  8
0
 10
-38.3578
 20
-31.2048
 11
-38.172
 21
-31.3651
  0
LINE
  8
0
 10
-38.172
 20
-31.3651
 11
-37.9785
 21
-31.516
  0
LINE
  8
0
 10
-37.9785
 20
-31.516
 11
-37.7778
 21
-31.6573
  0
LINE
  8
0
 10
-37.7778
 20
-31.6573
 11
-37.5705
 21
-31.7887
  0
LINE
  8
0
 10
-37.5705
 20
-31.7887
 11
-37.357
 21
-31.9096
  0
LINE
  8
0
 10
-37.357
 20
-31.9096
 11
-37.1378
 21
-32.0199
  0
LINE
  8
0
 10
-37.1378
 20
-32.0199
 11
-36.9134
 21
-32.1194
  0
LINE
  8
0
 10
-36.9134
 20
-32.1194
 11
-36.6844
 21
-32.2077
  0
LINE
  8
0
 10
-36.6844
 20
-32.2077
 11
-36.4514
 21
-32.2847
  0
LINE
  8
0
 10
-36.4514
 20
-32.2847
 11
-36.2149
 21
-32.3502
  0
LINE
  8
0
 10
-36.2149
 20
-32.3502
 11
-35.9754
 21
-32.4039
  0
LINE
  8
0
 10
-35.9754
 20
-32.4039
 11
-35.7337
 21
-32.4459
  0
LINE
  8
0
 10
-35.7337
 20
-32.4459
 11
-35.4901
 21
-32.4759
  0
LINE
  8
0
 10
-35.4901
 20
-32.4759
 11
-35.2453
 21
-32.494
  0
LINE
  8
0
 10
-35.2453
 20
-32.494
 11
-35
 21
-32.5
  0
LINE
  8
0
 10
-35
 20
-32.5
 11
35
 21
-32.5
  0
LINE
  8
0
 10
35
 20
-32.5
 11
35.2453
 21
-32.494
  0
LINE
  8
0
 10
-37.5687
 20
28.1017
 11
-37.6372
 21
28.1067
  0
LINE
  8
0
 10
-37.6372
 20
28.1067
 11
-37.7054
 21
28.1151
  0
LINE
  8
0
 10
-37.7054
 20
28.1151
 11
-37.7731
 21
28.1269
  0
LINE
  8
0
 10
-37.7731
 20
28.1269
 11
-37.8402
 21
28.142
  0
LINE
  8
0
 10
-37.8402
 20
28.142
 11
-37.9064
 21
28.1603
  0
LINE
  8
0
 10
-37.9064
 20
28.1603
 11
-37.9716
 21
28.1818
  0
LINE
  8
0
 10
-37.9716
 20
28.1818
 11
-38.0358
 21
28.2066
  0
LINE
  8
0
 10
-38.0358
 20
28.2066
 11
-38.0986
 21
28.2344
  0
LINE
  8
0
 10
-38.0986
 20
28.2344
 11
-38.1599
 21
28.2653
  0
LINE
  8
0
 10
-38.1599
 20
28.2653
 11
-38.2197
 21
28.2992
  0
LINE
  8
0
 10
-38.2197
 20
28.2992
 11
-38.2778
 21
28.3359
  0
LINE
  8
0
 10
-38.2778
 20
28.3359
 11
-38.334
 21
28.3755
  0
LINE
  8
0
 10
-38.334
 20
28.3755
 11
-38.3881
 21
28.4178
  0
LINE
  8
0
 10
-38.3881
 20
28.4178
 11
-38.4402
 21
28.4627
  0
LINE
  8
0
 10
-38.4402
 20
28.4627
 11
-38.4899
 21
28.51
  0
LINE
  8
0
 10
-38.4899
 20
28.51
 11
-38.5373
 21
28.5598
  0
LINE
  8
0
 10
-38.5373
 20
28.5598
 11
-38.5822
 21
28.6118
  0
LINE
  8
0
 10
-38.5822
 20
28.6118
 11
-38.6245
 21
28.666
  0
LINE
  8
0
 10
-38.6245
 20
28.666
 11
-38.664
 21
28.7222
  0
LINE
  8
0
 10
-38.664
 20
28.7222
 11
-38.7008
 21
28.7802
  0
LINE
  8
0
 10
-38.7008
 20
28.7802
 11
-38.7347
 21
28.84
  0
LINE
  8
0
 10
-38.7347
 20
28.84
 11
-38.7656
 21
28.9014
  0
LINE
  8
0
 10
-38.7656
 20
28.9014
 11
-38.7934
 21
28.9642
  0
LINE
  8
0
 10
-38.7934
 20
28.9642
 11
-38.8182
 21
29.0284
  0
LINE
  8
0
 10
-38.8182
 20
29.0284
 11
-38.8397
 21
29.0936
  0
LINE
  8
0
 10
-38.8397
 20
29.0936
 11
-38.858
 21
29.1598
  0
LINE
  8
0
 10
-38.858
 20
29.1598
 11
-38.8731
 21
29.2269
  0
LINE
  8
0
 10
-38.8731
 20
29.2269
 11
-38.8848
 21
29.2946
  0
LINE
  8
0
 10
-38.8848
 20
29.2946
 11
-38.8932
 21
29.3628
  0
LINE
  8
0
 10
-38.8932
 20
29.3628
 11
-38.8983
 21
29.4313
  0
LINE
  8
0
 10
-38.8983
 20
29.4313
 11
-38.9
 21
29.5
  0
LINE
  8
0
 10
-38.9
 20
29.5
 11
-38.8983
 21
29.5687
  0
LINE
  8
0
 10
-38.8983
 20
29.5687
 11
-38.8932
 21
29.6372
  0
LINE
  8
0
 10
-38.8932
 20
29.6372
 11
-38.8848
 21
29.7054
  0
LINE
  8
0
 10
-38.8848
 20
29.7054
 11
-38.8731
 21
29.7731
  0
LINE
  8
0
 10
-38.8731
 20
29.7731
 11
-38.858
 21
29.8402
  0
LINE
  8
0
 10
-38.858
 20
29.8402
 11
-38.8397
 21
29.9064
  0
LINE
  8
0
 10
-38.8397
 20
29.9064
 11
-38.8182
 21
29.9716
  0
LINE
  8
0
 10
-38.8182
 20
29.9716
 11
-38.7934
 21
30.0358
  0
LINE
  8
0
 10
-38.7934
 20
30.0358
 11
-38.7656
 21
30.0986
  0
LINE
  8
0
 10
-38.7656
 20
30.0986
 11
-38.7347
 21
30.1599
  0
LINE
  8
0
 10
-38.7347
 20
30.1599
 11
-38.7008
 21
30.2197
  0
LINE
  8
0
 10
-38.7008
 20
30.2197
 11
-38.664
 21
30.2778
  0
LINE
  8
0
 10
-38.664
 20
30.2778
 11
-38.6245
 21
30.334
  0
LINE
  8
0
 10
-38.6245
 20
30.334
 11
-38.5822
 21
30.3881
  0
LINE
  8
0
 10
-38.5822
 20
30.3881
 11
-38.5373
 21
30.4402
  0
LINE
  8
0
 10
-38.5373
 20
30.4402
 11
-38.4899
 21
30.4899
  0
LINE
  8
0
 10
-38.4899
 20
30.4899
 11
-38.4402
 21
30.5373
  0
LINE
  8
0
 10
-38.4402
 20
30.5373
 11
-38.3881
 21
30.5822
  0
LINE
  8
0
 10
-38.3881
 20
30.5822
 11
-38.334
 21
30.6245
  0
LINE
  8
0
 10
-38.334
 20
30.6245
 11
-38.2778
 21
30.664
  0
LINE
  8
0
 10
-38.2778
 20
30.664
 11
-38.2197
 21
30.7008
  0
LINE
  8
0
 10
-38.2197
 20
30.7008
 11
-38.1599
 21
30.7347
  0
LINE
  8
0
 10
-38.1599
 20
30.7347
 11
-38.0986
 21
30.7656
  0
LINE
  8
0
 10
-38.0986
 20
30.7656
 11
-38.0358
 21
30.7934
  0
LINE
  8
0
 10
-38.0358
 20
30.7934
 11
-37.9716
 21
30.8182
  0
LINE
  8
0
 10
-37.9716
 20
30.8182
 11
-37.9064
 21
30.8397
  0
LINE
  8
0
 10
-37.9064
 20
30.8397
 11
-37.8402
 21
30.858
  0
LINE
  8
0
 10
-37.8402
 20
30.858
 11
-37.7731
 21
30.8731
  0
LINE
  8
0
 10
-37.7731
 20
30.8731
 11
-37.7054
 21
30.8848
  0
LINE
  8
0
 10
-37.7054
 20
30.8848
 11
-37.6372
 21
30.8932
  0
LINE
  8
0
 10
-37.6372
 20
30.8932
 11
-37.5687
 21
30.8983
  0
LINE
  8
0
 10
-37.5687
 20
30.8983
 11
-37.5
 21
30.9
  0
LINE
  8
0
 10
-37.5
 20
30.9
 11
-37.4313
 21
30.8983
  0
LINE
  8
0
 10
-37.4313
 20
30.8983
 11
-37.3628
 21
30.8932
  0
LINE
  8
0
 10
-37.3628
 20
30.8932
 11
-37.2946
 21
30.8848
  0
LINE
  8
0
 10
-37.2946
 20
30.8848
 11
-37.2269
 21
30.8731
  0
LINE
  8
0
 10
-37.2269
 20
30.8731
 11
-37.1598
 21
30.858
  0
LINE
  8
0
 10
-37.1598
 20
30.858
 11
-37.0936
 21
30.8397
  0
LINE
  8
0
 10
-37.0936
 20
30.8397
 11
-37.0284
 21
30.8182
  0
LINE
  8
0
 10
-37.0284
 20
30.8182
 11
-36.9642
 21
30.7934
  0
LINE
  8
0
 10
-36.9642
 20
30.7934
 11
-36.9014
 21
30.7656
  0
LINE
  8
0
 10
-36.9014
 20
30.7656
 11
-36.84
 21
30.7347
  0
LINE
  8
0
 10
-36.84
 20
30.7347
 11
-36.7802
 21
30.7008
  0
LINE
  8
0
 10
-36.7802
 20
30.7008
 11
-36.7222
 21
30.664
  0
LINE
  8
0
 10
-36.7222
 20
30.664
 11
-36.666
 21
30.6245
  0
LINE
  8
0
 10
-36.666
 20
30.6245
 11
-36.6118
 21
30.5822
  0
LINE
  8
0
 10
-36.6118
 20
30.5822
 11
-36.5598
 21
30.5373
  0
LINE
  8
0
 10
-36.5598
 20
30.5373
 11
-36.51
 21
30.4899
  0
LINE
  8
0
 10
-36.51
 20
30.4899
 11
-36.4627
 21
30.4402
  0
LINE
  8
0
 10
-36.4627
 20
30.4402
 11
-36.4178
 21
30.3881
  0
LINE
  8
0
 10
-36.4178
 20
30.3881
 11
-36.3755
 21
30.334
  0
LINE
  8
0
 10
-36.3755
 20
30.334
 11
-36.3359
 21
30.2778
  0
LINE
  8
0
 10
-36.3359
 20
30.2778
 11
-36.2992
 21
30.2197
  0
LINE
  8
0
 10
-36.2992
 20
30.2197
 11
-36.2653
 21
30.1599
  0
LINE
  8
0
 10
-36.2653
 20
30.1599
 11
-36.2344
 21
30.0986
  0
LINE
  8
0
 10
-36.2344
 20
30.0986
 11
-36.2066
 21
30.0358
  0
LINE
  8
0
 10
-36.2066
 20
30.0358
 11
-36.1818
 21
29.9716
  0
LINE
  8
0
 10
-36.1818
 20
29.9716
 11
-36.1603
 21
29.9064
  0
LINE
  8
0
 10
-36.1603
 20
29.9064
 11
-36.142
 21
29.8402
  0
LINE
  8
0
 10
-36.142
 20
29.8402
 11
-36.1269
 21
29.7731
  0
LINE
  8
0
 10
-36.1269
 20
29.7731
 11
-36.1151
 21
29.7054
  0
LINE
  8
0
 10
-36.1151
 20
29.7054
 11
-36.1067
 21
29.6372
  0
LINE
  8
0
 10
-36.1067
 20
29.6372
 11
-36.1017
 21
29.5687
  0
LINE
  8
0
 10
-36.1017
 20
29.5687
 11
-36.1
 21
29.5
  0
LINE
  8
0
 10
-36.1
 20
29.5
 11
-36.1017
 21
29.4313
  0
LINE
  8
0
 10
-36.1017
 20
29.4313
 11
-36.1067
 21
29.3628
  0
LINE
  8
0
 10
-36.1067
 20
29.3628
 11
-36.1151
 21
29.2946
  0
LINE
  8
0
 10
-36.1151
 20
29.2946
 11
-36.1269
 21
29.2269
  0
LINE
  8
0
 10
-36.1269
 20
29.2269
 11
-36.142
 21
29.1598
  0
LINE
  8
0
 10
-36.142
 20
29.1598
 11
-36.1603
 21
29.0936
  0
LINE
  8
0
 10
-36.1603
 20
29.0936
 11
-36.1818
 21
29.0284
  0
LINE
  8
0
 10
-36.1818
 20
29.0284
 11
-36.2066
 21
28.9642
  0
LINE
  8
0
 10
-36.2066
 20
28.9642
 11
-36.2344
 21
28.9014
  0
LINE
  8
0
 10
-36.2344
 20
28.9014
 11
-36.2653
 21
28.84
  0
LINE
  8
0
 10
-36.2653
 20
28.84
 11
-36.2992
 21
28.7802
  0
LINE
  8
0
 10
-36.2992
 20
28.7802
 11
-36.3359
 21
28.7222
  0
LINE
  8
0
 10
-36.3359
 20
28.7222
 11
-36.3755
 21
28.666
  0
LINE
  8
0
 10
-36.3755
 20
28.666
 11
-36.4178
 21
28.6118
  0
LINE
  8
0
 10
-36.4178
 20
28.6118
 11
-36.4627
 21
28.5598
  0
LINE
  8
0
 10
-36.4627
 20
28.5598
 11
-36.51
 21
28.51
  0
LINE
  8
0
 10
-36.51
 20
28.51
 11
-36.5598
 21
28.4627
  0
LINE
  8
0
 10
-36.5598
 20
28.4627
 11
-36.6118
 21
28.4178
  0
LINE
  8
0
 10
-36.6118
 20
28.4178
 11
-36.666
 21
28.3755
  0
LINE
  8
0
 10
-36.666
 20
28.3755
 11
-36.7222
 21
28.3359
  0
LINE
  8
0
 10
-36.7222
 20
28.3359
 11
-36.7802
 21
28.2992
  0
LINE
  8
0
 10
-36.7802
 20
28.2992
 11
-36.84
 21
28.2653
  0
LINE
  8
0
 10
-36.84
 20
28.2653
 11
-36.9014
 21
28.2344
  0
LINE
  8
0
 10
-36.9014
 20
28.2344
 11
-36.9642
 21
28.2066
  0
LINE
  8
0
 10
-36.9642
 20
28.2066
 11
-37.0284
 21
28.1818
  0
LINE
  8
0
 10
-37.0284
 20
28.1818
 11
-37.0936
 21
28.1603
  0
LINE
  8
0
 10
-37.0936
 20
28.1603
 11
-37.1598
 21
28.142
  0
LINE
  8
0
 10
-37.1598
 20
28.142
 11
-37.2269
 21
28.1269
  0
LINE
  8
0
 10
-37.2269
 20
28.1269
 11
-37.2946
 21
28.1151
  0
LINE
  8
0
 10
-37.2946
 20
28.1151
 11
-37.3628
 21
28.1067
  0
LINE
  8
0
 10
-37.3628
 20
28.1067
 11
-37.4313
 21
28.1017
  0
LINE
  8
0
 10
-37.4313
 20
28.1017
 11
-37.5
 21
28.1
  0
LINE
  8
0
 10
-37.5
 20
28.1
 11
-37.5687
 21
28.1017
  0
LINE
  8
0
 10
37.4313
 20
28.1017
 11
37.3628
 21
28.1067
  0
LINE
  8
0
 10
37.3628
 20
28.1067
 11
37.2946
 21
28.1151
  0
LINE
  8
0
 10
37.2946
 20
28.1151
 11
37.2269
 21
28.1269
  0
LINE
  8
0
 10
37.2269
 20
28.1269
 11
37.1598
 21
28.142
  0
LINE
  8
0
 10
37.1598
 20
28.142
 11
37.0936
 21
28.1603
  0
LINE
  8
0
 10
37.0936
 20
28.1603
 11
37.0284
 21
28.1818
  0
LINE
  8
0
 10
37.0284
 20
28.1818
 11
36.9642
 21
28.2066
  0
LINE
  8
0
 10
36.9642
 20
28.2066
 11
36.9014
 21
28.2344
  0
LINE
  8
0
 10
36.9014
 20
28.2344
 11
36.84
 21
28.2653
  0
LINE
  8
0
 10
36.84
 20
28.2653
 11
36.7802
 21
28.2992
  0
LINE
  8
0
 10
36.7802
 20
28.2992
 11
36.7222
 21
28.3359
  0
LINE
  8
0
 10
36.7222
 20
28.3359
 11
36.666
 21
28.3755
  0
LINE
  8
0
 10
36.666
 20
28.3755
 11
36.6118
 21
28.4178
  0
LINE
  8
0
 10
36.6118
 20
28.4178
 11
36.5598
 21
28.4627
  0
LINE
  8
0
 10
36.5598
 20
28.4627
 11
36.51
 21
28.51
  0
LINE
  8
0
 10
36.51
 20
28.51
 11
36.4627
 21
28.5598
  0
LINE
  8
0
 10
36.4627
 20
28.5598
 11
36.4178
 21
28.6118
  0
LINE
  8
0
 10
36.4178
 20
28.6118
 11
36.3755
 21
28.666
  0
LINE
  8
0
 10
36.3755
 20
28.666
 11
36.3359
 21
28.7222
  0
LINE
  8
0
 10
36.3359
 20
28.7222
 11
36.2992
 21
28.7802
  0
LINE
  8
0
 10
36.2992
 20
28.7802
 11
36.2653
 21
28.84
  0
LINE
  8
0
 10
36.2653
 20
28.84
 11
36.2344
 21
28.9014
  0
LINE
  8
0
 10
36.2344
 20
28.9014
 11
36.2066
 21
28.9642
  0
LINE
  8
0
 10
36.2066
 20
28.9642
 11
36.1818
 21
29.0284
  0
LINE
  8
0
 10
36.1818
 20
29.0284
 11
36.1603
 21
29.0936
  0
LINE
  8
0
 10
36.1603
 20
29.0936
 11
36.142
 21
29.1598
  0
LINE
  8
0
 10
36.142
 20
29.1598
 11
36.1269
 21
29.2269
  0
LINE
  8
0
 10
36.1269
 20
29.2269
 11
36.1151
 21
29.2946
  0
LINE
  8
0
 10
36.1151
 20
29.2946
 11
36.1067
 21
29.3628
  0
LINE
  8
0
 10
36.1067
 20
29.3628
 11
36.1017
 21
29.4313
  0
LINE
  8
0
 10
36.1017
 20
29.4313
 11
36.1
 21
29.5
  0
LINE
  8
0
 10
36.1
 20
29.5
 11
36.1017
 21
29.5687
  0
LINE
  8
0
 10
36.1017
 20
29.5687
 11
36.1067
 21
29.6372
  0
LINE
  8
0
 10
36.1067
 20
29.6372
 11
36.1151
 21
29.7054
  0
LINE
  8
0
 10
36.1151
 20
29.7054
 11
36.1269
 21
29.7731
  0
LINE
  8
0
 10
36.1269
 20
29.7731
 11
36.142
 21
29.8402
  0
LINE
  8
0
 10
36.142
 20
29.8402
 11
36.1603
 21
29.9064
  0
LINE
  8
0
 10
36.1603
 20
29.9064
 11
36.1818
 21
29.9716
  0
LINE
  8
0
 10
36.1818
 20
29.9716
 11
36.2066
 21
30.0358
  0
LINE
  8
0
 10
36.2066
 20
30.0358
 11
36.2344
 21
30.0986
  0
LINE
  8
0
 10
36.2344
 20
30.0986
 11
36.2653
 21
30.1599
  0
LINE
  8
0
 10
36.2653
 20
30.1599
 11
36.2992
 21
30.2197
  0
LINE
  8
0
 10
36.2992
 20
30.2197
 11
36.3359
 21
30.2778
  0
LINE
  8
0
 10
36.3359
 20
30.2778
 11
36.3755
 21
30.334
  0
LINE
  8
0
 10
36.3755
 20
30.334
 11
36.4178
 21
30.3881
  0
LINE
  8
0
 10
36.4178
 20
30.3881
 11
36.4627
 21
30.4402
  0
LINE
  8
0
 10
36.4627
 20
30.4402
 11
36.51
 21
30.4899
  0
LINE
  8
0
 10
36.51
 20
30.4899
 11
36.5598
 21
30.5373
  0
LINE
  8
0
 10
36.5598
 20
30.5373
 11
36.6118
 21
30.5822
  0
LINE
  8
0
 10
36.6118
 20
30.5822
 11
36.666
 21
30.6245
  0
LINE
  8
0
 10
36.666
 20
30.6245
 11
36.7222
 21
30.664
  0
LINE
  8
0
 10
36.7222
 20
30.664
 11
36.7802
 21
30.7008
  0
LINE
  8
0
 10
36.7802
 20
30.7008
 11
36.84
 21
30.7347
  0
LINE
  8
0
 10
36.84
 20
30.7347
 11
36.9014
 21
30.7656
  0
LINE
  8
0
 10
36.9014
 20
30.7656
 11
36.9642
 21
30.7934
  0
LINE
  8
0
 10
36.9642
 20
30.7934
 11
37.0284
 21
30.8182
  0
LINE
  8
0
 10
37.0284
 20
30.8182
 11
37.0936
 21
30.8397
  0
LINE
  8
0
 10
37.0936
 20
30.8397
 11
37.1598
 21
30.858
  0
LINE
  8
0
 10
37.1598
 20
30.858
 11
37.2269
 21
30.8731
  0
LINE
  8
0
 10
37.2269
 20
30.8731
 11
37.2946
 21
30.8848
  0
LINE
  8
0
 10
37.2946
 20
30.8848
 11
37.3628
 21
30.8932
  0
LINE
  8
0
 10
37.3628
 20
30.8932
 11
37.4313
 21
30.8983
  0
LINE
  8
0
 10
37.4313
 20
30.8983
 11
37.5
 21
30.9
  0
LINE
  8
0
 10
37.5
 20
30.9
 11
37.5687
 21
30.8983
  0
LINE
  8
0
 10
37.5687
 20
30.8983
 11
37.6372
 21
30.8932
  0
LINE
  8
0
 10
37.6372
 20
30.8932
 11
37.7054
 21
30.8848
  0
LINE
  8
0
 10
37.7054
 20
30.8848
 11
37.7731
 21
30.8731
  0
LINE
  8
0
 10
37.7731
 20
30.8731
 11
37.8402
 21
30.858
  0
LINE
  8
0
 10
37.8402
 20
30.858
 11
37.9064
 21
30.8397
  0
LINE
  8
0
 10
37.9064
 20
30.8397
 11
37.9716
 21
30.8182
  0
LINE
  8
0
 10
37.9716
 20
30.8182
 11
38.0358
 21
30.7934
  0
LINE
  8
0
 10
38.0358
 20
30.7934
 11
38.0986
 21
30.7656
  0
LINE
  8
0
 10
38.0986
 20
30.7656
 11
38.1599
 21
30.7347
  0
LINE
  8
0
 10
38.1599
 20
30.7347
 11
38.2197
 21
30.7008
  0
LINE
  8
0
 10
38.2197
 20
30.7008
 11
38.2778
 21
30.664
  0
LINE
  8
0
 10
38.2778
 20
30.664
 11
38.334
 21
30.6245
  0
LINE
  8
0
 10
38.334
 20
30.6245
 11
38.3881
 21
30.5822
  0
LINE
  8
0
 10
38.3881
 20
30.5822
 11
38.4402
 21
30.5373
  0
LINE
  8
0
 10
38.4402
 20
30.5373
 11
38.4899
 21
30.4899
  0
LINE
  8
0
 10
38.4899
 20
30.4899
 11
38.5373
 21
30.4402
  0
LINE
  8
0
 10
38.5373
 20
30.4402
 11
38.5822
 21
30.3881
  0
LINE
  8
0
 10
38.5822
 20
30.3881
 11
38.6245
 21
30.334
  0
LINE
  8
0
 10
38.6245
 20
30.334
 11
38.664
 21
30.2778
  0
LINE
  8
0
 10
38.664
 20
30.2778
 11
38.7008
 21
30.2197
  0
LINE
  8
0
 10
38.7008
 20
30.2197
 11
38.7347
 21
30.1599
  0
LINE
  8
0
 10
38.7347
 20
30.1599
 11
38.7656
 21
30.0986
  0
LINE
  8
0
 10
38.7656
 20
30.0986
 11
38.7934
 21
30.0358
  0
LINE
  8
0
 10
38.7934
 20
30.0358
 11
38.8182
 21
29.9716
  0
LINE
  8
0
 10
38.8182
 20
29.9716
 11
38.8397
 21
29.9064
  0
LINE
  8
0
 10
38.8397
 20
29.9064
 11
38.858
 21
29.8402
  0
LINE
  8
0
 10
38.858
 20
29.8402
 11
38.8731
 21
29.7731
  0
LINE
  8
0
 10
38.8731
 20
29.7731
 11
38.8848
 21
29.7054
  0
LINE
  8
0
 10
38.8848
 20
29.7054
 11
38.8932
 21
29.6372
  0
LINE
  8
0
 10
38.8932
 20
29.6372
 11
38.8983
 21
29.5687
  0
LINE
  8
0
 10
38.8983
 20
29.5687
 11
38.9
 21
29.5
  0
LINE
  8
0
 10
38.9
 20
29.5
 11
38.8983
 21
29.4313
  0
LINE
  8
0
 10
38.8983
 20
29.4313
 11
38.8932
 21
29.3628
  0
LINE
  8
0
 10
38.8932
 20
29.3628
 11
38.8848
 21
29.2946
  0
LINE
  8
0
 10
38.8848
 20
29.2946
 11
38.8731
 21
29.2269
  0
LINE
  8
0
 10
38.8731
 20
29.2269
 11
38.858
 21
29.1598
  0
LINE
  8
0
 10
38.858
 20
29.1598
 11
38.8397
 21
29.0936
  0
LINE
  8
0
 10
38.8397
 20
29.0936
 11
38.8182
 21
29.0284
  0
LINE
  8
0
 10
38.8182
 20
29.0284
 11
38.7934
 21
28.9642
  0
LINE
  8
0
 10
38.7934
 20
28.9642
 11
38.7656
 21
28.9014
  0
LINE
  8
0
 10
38.7656
 20
28.9014
 11
38.7347
 21
28.84
  0
LINE
  8
0
 10
38.7347
 20
28.84
 11
38.7008
 21
28.7802
  0
LINE
  8
0
 10
38.7008
 20
28.7802
 11
38.664
 21
28.7222
  0
LINE
  8
0
 10
38.664
 20
28.7222
 11
38.6245
 21
28.666
  0
LINE
  8
0
 10
38.6245
 20
28.666
 11
38.5822
 21
28.6118
  0
LINE
  8
0
 10
38.5822
 20
28.6118
 11
38.5373
 21
28.5598
  0
LINE
  8
0
 10
38.5373
 20
28.5598
 11
38.4899
 21
28.51
  0
LINE
  8
0
 10
38.4899
 20
28.51
 11
38.4402
 21
28.4627
  0
LINE
  8
0
 10
38.4402
 20
28.4627
 11
38.3881
 21
28.4178
  0
LINE
  8
0
 10
38.3881
 20
28.4178
 11
38.334
 21
28.3755
  0
LINE
  8
0
 10
38.334
 20
28.3755
 11
38.2778
 21
28.3359
  0
LINE
  8
0
 10
38.2778
 20
28.3359
 11
38.2197
 21
28.2992
  0
LINE
  8
0
 10
38.2197
 20
28.2992
 11
38.1599
 21
28.2653
  0
LINE
  8
0
 10
38.1599
 20
28.2653
 11
38.0986
 21
28.2344
  0
LINE
  8
0
 10
38.0986
 20
28.2344
 11
38.0358
 21
28.2066
  0
LINE
  8
0
 10
38.0358
 20
28.2066
 11
37.9716
 21
28.1818
  0
LINE
  8
0
 10
37.9716
 20
28.1818
 11
37.9064
 21
28.1603
  0
LINE
  8
0
 10
37.9064
 20
28.1603
 11
37.8402
 21
28.142
  0
LINE
  8
0
 10
37.8402
 20
28.142
 11
37.7731
 21
28.1269
  0
LINE
  8
0
 10
37.7731
 20
28.1269
 11
37.7054
 21
28.1151
  0
LINE
  8
0
 10
37.7054
 20
28.1151
 11
37.6372
 21
28.1067
  0
LINE
  8
0
 10
37.6372
 20
28.1067
 11
37.5687
 21
28.1017
  0
LINE
  8
0
 10
37.5687
 20
28.1017
 11
37.5
 21
28.1
  0
LINE
  8
0
 10
37.5
 20
28.1
 11
37.4313
 21
28.1017
  0
LINE
  8
0
 10
-28.8187
 20
20.935
 11
-28.8872
 21
20.94
  0
LINE
  8
0
 10
-28.8872
 20
20.94
 11
-28.9554
 21
20.9484
  0
LINE
  8
0
 10
-28.9554
 20
20.9484
 11
-29.0231
 21
20.9602
  0
LINE
  8
0
 10
-29.0231
 20
20.9602
 11
-29.0902
 21
20.9753
  0
LINE
  8
0
 10
-29.0902
 20
20.9753
 11
-29.1564
 21
20.9936
  0
LINE
  8
0
 10
-29.1564
 20
20.9936
 11
-29.2216
 21
21.0151
  0
LINE
  8
0
 10
-29.2216
 20
21.0151
 11
-29.2858
 21
21.0399
  0
LINE
  8
0
 10
-29.2858
 20
21.0399
 11
-29.3486
 21
21.0677
  0
LINE
  8
0
 10
-29.3486
 20
21.0677
 11
-29.4099
 21
21.0986
  0
LINE
  8
0
 10
-29.4099
 20
21.0986
 11
-29.4697
 21
21.1325
  0
LINE
  8
0
 10
-29.4697
 20
21.1325
 11
-29.5278
 21
21.1692
  0
LINE
  8
0
 10
-29.5278
 20
21.1692
 11
-29.584
 21
21.2088
  0
LINE
  8
0
 10
-29.584
 20
21.2088
 11
-29.6381
 21
21.2511
  0
LINE
  8
0
 10
-29.6381
 20
21.2511
 11
-29.6902
 21
21.296
  0
LINE
  8
0
 10
-29.6902
 20
21.296
 11
-29.7399
 21
21.3433
  0
LINE
  8
0
 10
-29.7399
 20
21.3433
 11
-29.7873
 21
21.3931
  0
LINE
  8
0
 10
-29.7873
 20
21.3931
 11
-29.8322
 21
21.4451
  0
LINE
  8
0
 10
-29.8322
 20
21.4451
 11
-29.8745
 21
21.4993
  0
LINE
  8
0
 10
-29.8745
 20
21.4993
 11
-29.914
 21
21.5555
  0
LINE
  8
0
 10
-29.914
 20
21.5555
 11
-29.9508
 21
21.6136
  0
LINE
  8
0
 10
-29.9508
 20
21.6136
 11
-29.9847
 21
21.6733
  0
LINE
  8
0
 10
-29.9847
 20
21.6733
 11
-30.0156
 21
21.7347
  0
LINE
  8
0
 10
-30.0156
 20
21.7347
 11
-30.0434
 21
21.7975
  0
LINE
  8
0
 10
-30.0434
 20
21.7975
 11
-30.0682
 21
21.8616
  0
LINE
  8
0
 10
-30.0682
 20
21.8616
 11
-30.0897
 21
21.9269
  0
LINE
  8
0
 10
-30.0897
 20
21.9269
 11
-30.108
 21
21.9931
  0
LINE
  8
0
 10
-30.108
 20
21.9931
 11
-30.1231
 21
22.0602
  0
LINE
  8
0
 10
-30.1231
 20
22.0602
 11
-30.1348
 21
22.1279
  0
LINE
  8
0
 10
-30.1348
 20
22.1279
 11
-30.1432
 21
22.1961
  0
LINE
  8
0
 10
-30.1432
 20
22.1961
 11
-30.1483
 21
22.2646
  0
LINE
  8
0
 10
-30.1483
 20
22.2646
 11
-30.15
 21
22.3333
  0
LINE
  8
0
 10
-30.15
 20
22.3333
 11
-30.1483
 21
22.402
  0
LINE
  8
0
 10
-30.1483
 20
22.402
 11
-30.1432
 21
22.4705
  0
LINE
  8
0
 10
-30.1432
 20
22.4705
 11
-30.1348
 21
22.5387
  0
LINE
  8
0
 10
-30.1348
 20
22.5387
 11
-30.1231
 21
22.6064
  0
LINE
  8
0
 10
-30.1231
 20
22.6064
 11
-30.108
 21
22.6735
  0
LINE
  8
0
 10
-30.108
 20
22.6735
 11
-30.0897
 21
22.7397
  0
LINE
  8
0
 10
-30.0897
 20
22.7397
 11
-30.0682
 21
22.8049
  0
LINE
  8
0
 10
-30.0682
 20
22.8049
 11
-30.0434
 21
22.869
  0
LINE
  8
0
 10
-30.0434
 20
22.869
 11
-30.0156
 21
22.9319
  0
LINE
  8
0
 10
-30.0156
 20
22.9319
 11
-29.9847
 21
22.9932
  0
LINE
  8
0
 10
-29.9847
 20
22.9932
 11
-29.9508
 21
23.053
  0
LINE
  8
0
 10
-29.9508
 20
23.053
 11
-29.914
 21
23.1111
  0
LINE
  8
0
 10
-29.914
 20
23.1111
 11
-29.8745
 21
23.1673
  0
LINE
  8
0
 10
-29.8745
 20
23.1673
 11
-29.8322
 21
23.2214
  0
LINE
  8
0
 10
-29.8322
 20
23.2214
 11
-29.7873
 21
23.2735
  0
LINE
  8
0
 10
-29.7873
 20
23.2735
 11
-29.7399
 21
23.3232
  0
LINE
  8
0
 10
-29.7399
 20
23.3232
 11
-29.6902
 21
23.3706
  0
LINE
  8
0
 10
-29.6902
 20
23.3706
 11
-29.6381
 21
23.4155
  0
LINE
  8
0
 10
-29.6381
 20
23.4155
 11
-29.584
 21
23.4578
  0
LINE
  8
0
 10
-29.584
 20
23.4578
 11
-29.5278
 21
23.4973
  0
LINE
  8
0
 10
-29.5278
 20
23.4973
 11
-29.4697
 21
23.5341
  0
LINE
  8
0
 10
-29.4697
 20
23.5341
 11
-29.4099
 21
23.568
  0
LINE
  8
0
 10
-29.4099
 20
23.568
 11
-29.3486
 21
23.5989
  0
LINE
  8
0
 10
-29.3486
 20
23.5989
 11
-29.2858
 21
23.6267
  0
LINE
  8
0
 10
-29.2858
 20
23.6267
 11
-29.2216
 21
23.6515
  0
LINE
  8
0
 10
-29.2216
 20
23.6515
 11
-29.1564
 21
23.673
  0
LINE
  8
0
 10
-29.1564
 20
23.673
 11
-29.0902
 21
23.6913
  0
LINE
  8
0
 10
-29.0902
 20
23.6913
 11
-29.0231
 21
23.7064
  0
LINE
  8
0
 10
-29.0231
 20
23.7064
 11
-28.9554
 21
23.7181
  0
LINE
  8
0
 10
-28.9554
 20
23.7181
 11
-28.8872
 21
23.7265
  0
LINE
  8
0
 10
-28.8872
 20
23.7265
 11
-28.8187
 21
23.7316
  0
LINE
  8
0
 10
-28.8187
 20
23.7316
 11
-28.75
 21
23.7333
  0
LINE
  8
0
 10
-28.75
 20
23.7333
 11
-28.6813
 21
23.7316
  0
LINE
  8
0
 10
-28.6813
 20
23.7316
 11
-28.6128
 21
23.7265
  0
LINE
  8
0
 10
-28.6128
 20
23.7265
 11
-28.5446
 21
23.7181
  0
LINE
  8
0
 10
-28.5446
 20
23.7181
 11
-28.4769
 21
23.7064
  0
LINE
  8
0
 10
-28.4769
 20
23.7064
 11
-28.4098
 21
23.6913
  0
LINE
  8
0
 10
-28.4098
 20
23.6913
 11
-28.3436
 21
23.673
  0
LINE
  8
0
 10
-28.3436
 20
23.673
 11
-28.2784
 21
23.6515
  0
LINE
  8
0
 10
-28.2784
 20
23.6515
 11
-28.2142
 21
23.6267
  0
LINE
  8
0
 10
-28.2142
 20
23.6267
 11
-28.1514
 21
23.5989
  0
LINE
  8
0
 10
-28.1514
 20
23.5989
 11
-28.09
 21
23.568
  0
LINE
  8
0
 10
-28.09
 20
23.568
 11
-28.0302
 21
23.5341
  0
LINE
  8
0
 10
-28.0302
 20
23.5341
 11
-27.9722
 21
23.4973
  0
LINE
  8
0
 10
-27.9722
 20
23.4973
 11
-27.916
 21
23.4578
  0
LINE
  8
0
 10
-27.916
 20
23.4578
 11
-27.8618
 21
23.4155
  0
LINE
  8
0
 10
-27.8618
 20
23.4155
 11
-27.8098
 21
23.3706
  0
LINE
  8
0
 10
-27.8098
 20
23.3706
 11
-27.76
 21
23.3232
  0
LINE
  8
0
 10
-27.76
 20
23.3232
 11
-27.7127
 21
23.2735
  0
LINE
  8
0
 10
-27.7127
 20
23.2735
 11
-27.6678
 21
23.2214
  0
LINE
  8
0
 10
-27.6678
 20
23.2214
 11
-27.6255
 21
23.1673
  0
LINE
  8
0
 10
-27.6255
 20
23.1673
 11
-27.5859
 21
23.1111
  0
LINE
  8
0
 10
-27.5859
 20
23.1111
 11
-27.5492
 21
23.053
  0
LINE
  8
0
 10
-27.5492
 20
23.053
 11
-27.5153
 21
22.9932
  0
LINE
  8
0
 10
-27.5153
 20
22.9932
 11
-27.4844
 21
22.9319
  0
LINE
  8
0
 10
-27.4844
 20
22.9319
 11
-27.4566
 21
22.869
  0
LINE
  8
0
 10
-27.4566
 20
22.869
 11
-27.4318
 21
22.8049
  0
LINE
  8
0
 10
-27.4318
 20
22.8049
 11
-27.4103
 21
22.7397
  0
LINE
  8
0
 10
-27.4103
 20
22.7397
 11
-27.392
 21
22.6735
  0
LINE
  8
0
 10
-27.392
 20
22.6735
 11
-27.3769
 21
22.6064
  0
LINE
  8
0
 10
-27.3769
 20
22.6064
 11
-27.3651
 21
22.5387
  0
LINE
  8
0
 10
-27.3651
 20
22.5387
 11
-27.3567
 21
22.4705
  0
LINE
  8
0
 10
-27.3567
 20
22.4705
 11
-27.3517
 21
22.402
  0
LINE
  8
0
 10
-27.3517
 20
22.402
 11
-27.35
 21
22.3333
  0
LINE
  8
0
 10
-27.35
 20
22.3333
 11
-27.3517
 21
22.2646
  0
LINE
  8
0
 10
-27.3517
 20
22.2646
 11
-27.3567
 21
22.1961
  0
LINE
  8
0
 10
-27.3567
 20
22.1961
 11
-27.3651
 21
22.1279
  0
LINE
  8
0
 10
-27.3651
 20
22.1279
 11
-27.3769
 21
22.0602
  0
LINE
  8
0
 10
-27.3769
 20
22.0602
 11
-27.392
 21
21.9931
  0
LINE
  8
0
 10
-27.392
 20
21.9931
 11
-27.4103
 21
21.9269
  0
LINE
  8
0
 10
-27.4103
 20
21.9269
 11
-27.4318
 21
21.8616
  0
LINE
  8
0
 10
-27.4318
 20
21.8616
 11
-27.4566
 21
21.7975
  0
LINE
  8
0
 10
-27.4566
 20
21.7975
 11
-27.4844
 21
21.7347
  0
LINE
  8
0
 10
-27.4844
 20
21.7347
 11
-27.5153
 21
21.6733
  0
LINE
  8
0
 10
-27.5153
 20
21.6733
 11
-27.5492
 21
21.6136
  0
LINE
  8
0
 10
-27.5492
 20
21.6136
 11
-27.5859
 21
21.5555
  0
LINE
  8
0
 10
-27.5859
 20
21.5555
 11
-27.6255
 21
21.4993
  0
LINE
  8
0
 10
-27.6255
 20
21.4993
 11
-27.6678
 21
21.4451
  0
LINE
  8
0
 10
-27.6678
 20
21.4451
 11
-27.7127
 21
21.3931
  0
LINE
  8
0
 10
-27.7127
 20
21.3931
 11
-27.76
 21
21.3433
  0
LINE
  8
0
 10
-27.76
 20
21.3433
 11
-27.8098
 21
21.296
  0
LINE
  8
0
 10
-27.8098
 20
21.296
 11
-27.8618
 21
21.2511
  0
LINE
  8
0
 10
-27.8618
 20
21.2511
 11
-27.916
 21
21.2088
  0
LINE
  8
0
 10
-27.916
 20
21.2088
 11
-27.9722
 21
21.1692
  0
LINE
  8
0
 10
-27.9722
 20
21.1692
 11
-28.0302
 21
21.1325
  0
LINE
  8
0
 10
-28.0302
 20
21.1325
 11
-28.09
 21
21.0986
  0
LINE
  8
0
 10
-28.09
 20
21.0986
 11
-28.1514
 21
21.0677
  0
LINE
  8
0
 10
-28.1514
 20
21.0677
 11
-28.2142
 21
21.0399
  0
LINE
  8
0
 10
-28.2142
 20
21.0399
 11
-28.2784
 21
21.0151
  0
LINE
  8
0
 10
-28.2784
 20
21.0151
 11
-28.3436
 21
20.9936
  0
LINE
  8
0
 10
-28.3436
 20
20.9936
 11
-28.4098
 21
20.9753
  0
LINE
  8
0
 10
-28.4098
 20
20.9753
 11
-28.4769
 21
20.9602
  0
LINE
  8
0
 10
-28.4769
 20
20.9602
 11
-28.5446
 21
20.9484
  0
LINE
  8
0
 10
-28.5446
 20
20.9484
 11
-28.6128
 21
20.94
  0
LINE
  8
0
 10
-28.6128
 20
20.94
 11
-28.6813
 21
20.935
  0
LINE
  8
0
 10
-28.6813
 20
20.935
 11
-28.75
 21
20.9333
  0
LINE
  8
0
 10
-28.75
 20
20.9333
 11
-28.8187
 21
20.935
  0
LINE
  8
0
 10
28.6813
 20
20.935
 11
28.6128
 21
20.94
  0
LINE
  8
0
 10
28.6128
 20
20.94
 11
28.5446
 21
20.9484
  0
LINE
  8
0
 10
28.5446
 20
20.9484
 11
28.4769
 21
20.9602
  0
LINE
  8
0
 10
28.4769
 20
20.9602
 11
28.4098
 21
20.9753
  0
LINE
  8
0
 10
28.4098
 20
20.9753
 11
28.3436
 21
20.9936
  0
LINE
  8
0
 10
28.3436
 20
20.9936
 11
28.2784
 21
21.0151
  0
LINE
  8
0
 10
28.2784
 20
21.0151
 11
28.2142
 21
21.0399
  0
LINE
  8
0
 10
28.2142
 20
21.0399
 11
28.1514
 21
21.0677
  0
LINE
  8
0
 10
28.1514
 20
21.0677
 11
28.09
 21
21.0986
  0
LINE
  8
0
 10
28.09
 20
21.0986
 11
28.0302
 21
21.1325
  0
LINE
  8
0
 10
28.0302
 20
21.1325
 11
27.9722
 21
21.1692
  0
LINE
  8
0
 10
27.9722
 20
21.1692
 11
27.916
 21
21.2088
  0
LINE
  8
0
 10
27.916
 20
21.2088
 11
27.8618
 21
21.2511
  0
LINE
  8
0
 10
27.8618
 20
21.2511
 11
27.8098
 21
21.296
  0
LINE
  8
0
 10
27.8098
 20
21.296
 11
27.76
 21
21.3433
  0
LINE
  8
0
 10
27.76
 20
21.3433
 11
27.7127
 21
21.3931
  0
LINE
  8
0
 10
27.7127
 20
21.3931
 11
27.6678
 21
21.4451
  0
LINE
  8
0
 10
27.6678
 20
21.4451
 11
27.6255
 21
21.4993
  0
LINE
  8
0
 10
27.6255
 20
21.4993
 11
27.5859
 21
21.5555
  0
LINE
  8
0
 10
27.5859
 20
21.5555
 11
27.5492
 21
21.6136
  0
LINE
  8
0
 10
27.5492
 20
21.6136
 11
27.5153
 21
21.6733
  0
LINE
  8
0
 10
27.5153
 20
21.6733
 11
27.4844
 21
21.7347
  0
LINE
  8
0
 10
27.4844
 20
21.7347
 11
27.4566
 21
21.7975
  0
LINE
  8
0
 10
27.4566
 20
21.7975
 11
27.4318
 21
21.8616
  0
LINE
  8
0
 10
27.4318
 20
21.8616
 11
27.4103
 21
21.9269
  0
LINE
  8
0
 10
27.4103
 20
21.9269
 11
27.392
 21
21.9931
  0
LINE
  8
0
 10
27.392
 20
21.9931
 11
27.3769
 21
22.0602
  0
LINE
  8
0
 10
27.3769
 20
22.0602
 11
27.3651
 21
22.1279
  0
LINE
  8
0
 10
27.3651
 20
22.1279
 11
27.3567
 21
22.1961
  0
LINE
  8
0
 10
27.3567
 20
22.1961
 11
27.3517
 21
22.2646
  0
LINE
  8
0
 10
27.3517
 20
22.2646
 11
27.35
 21
22.3333
  0
LINE
  8
0
 10
27.35
 20
22.3333
 11
27.3517
 21
22.402
  0
LINE
  8
0
 10
27.3517
 20
22.402
 11
27.3567
 21
22.4705
  0
LINE
  8
0
 10
27.3567
 20
22.4705
 11
27.3651
 21
22.5387
  0
LINE
  8
0
 10
27.3651
 20
22.5387
 11
27.3769
 21
22.6064
  0
LINE
  8
0
 10
27.3769
 20
22.6064
 11
27.392
 21
22.6735
  0
LINE
  8
0
 10
27.392
 20
22.6735
 11
27.4103
 21
22.7397
  0
LINE
  8
0
 10
27.4103
 20
22.7397
 11
27.4318
 21
22.8049
  0
LINE
  8
0
 10
27.4318
 20
22.8049
 11
27.4566
 21
22.869
  0
LINE
  8
0
 10
27.4566
 20
22.869
 11
27.4844
 21
22.9319
  0
LINE
  8
0
 10
27.4844
 20
22.9319
 11
27.5153
 21
22.9932
  0
LINE
  8
0
 10
27.5153
 20
22.9932
 11
27.5492
 21
23.053
  0
LINE
  8
0
 10
27.5492
 20
23.053
 11
27.5859
 21
23.1111
  0
LINE
  8
0
 10
27.5859
 20
23.1111
 11
27.6255
 21
23.1673
  0
LINE
  8
0
 10
27.6255
 20
23.1673
 11
27.6678
 21
23.2214
  0
LINE
  8
0
 10
27.6678
 20
23.2214
 11
27.7127
 21
23.2735
  0
LINE
  8
0
 10
27.7127
 20
23.2735
 11
27.76
 21
23.3232
  0
LINE
  8
0
 10
27.76
 20
23.3232
 11
27.8098
 21
23.3706
  0
LINE
  8
0
 10
27.8098
 20
23.3706
 11
27.8618
 21
23.4155
  0
LINE
  8
0
 10
27.8618
 20
23.4155
 11
27.916
 21
23.4578
  0
LINE
  8
0
 10
27.916
 20
23.4578
 11
27.9722
 21
23.4973
  0
LINE
  8
0
 10
27.9722
 20
23.4973
 11
28.0302
 21
23.5341
  0
LINE
  8
0
 10
28.0302
 20
23.5341
 11
28.09
 21
23.568
  0
LINE
  8
0
 10
28.09
 20
23.568
 11
28.1514
 21
23.5989
  0
LINE
  8
0
 10
28.1514
 20
23.5989
 11
28.2142
 21
23.6267
  0
LINE
  8
0
 10
28.2142
 20
23.6267
 11
28.2784
 21
23.6515
  0
LINE
  8
0
 10
28.2784
 20
23.6515
 11
28.3436
 21
23.673
  0
LINE
  8
0
 10
28.3436
 20
23.673
 11
28.4098
 21
23.6913
  0
LINE
  8
0
 10
28.4098
 20
23.6913
 11
28.4769
 21
23.7064
  0
LINE
  8
0
 10
28.4769
 20
23.7064
 11
28.5446
 21
23.7181
  0
LINE
  8
0
 10
28.5446
 20
23.7181
 11
28.6128
 21
23.7265
  0
LINE
  8
0
 10
28.6128
 20
23.7265
 11
28.6813
 21
23.7316
  0
LINE
  8
0
 10
28.6813
 20
23.7316
 11
28.75
 21
23.7333
  0
LINE
  8
0
 10
28.75
 20
23.7333
 11
28.8187
 21
23.7316
  0
LINE
  8
0
 10
28.8187
 20
23.7316
 11
28.8872
 21
23.7265
  0
LINE
  8
0
 10
28.8872
 20
23.7265
 11
28.9554
 21
23.7181
  0
LINE
  8
0
 10
28.9554
 20
23.7181
 11
29.0231
 21
23.7064
  0
LINE
  8
0
 10
29.0231
 20
23.7064
 11
29.0902
 21
23.6913
  0
LINE
  8
0
 10
29.0902
 20
23.6913
 11
29.1564
 21
23.673
  0
LINE
  8
0
 10
29.1564
 20
23.673
 11
29.2216
 21
23.6515
  0
LINE
  8
0
 10
29.2216
 20
23.6515
 11
29.2858
 21
23.6267
  0
LINE
  8
0
 10
29.2858
 20
23.6267
 11
29.3486
 21
23.5989
  0
LINE
  8
0
 10
29.3486
 20
23.5989
 11
29.4099
 21
23.568
  0
LINE
  8
0
 10
29.4099
 20
23.568
 11
29.4697
 21
23.5341
  0
LINE
  8
0
 10
29.4697
 20
23.5341
 11
29.5278
 21
23.4973
  0
LINE
  8
0
 10
29.5278
 20
23.4973
 11
29.584
 21
23.4578
  0
LINE
  8
0
 10
29.584
 20
23.4578
 11
29.6381
 21
23.4155
  0
LINE
  8
0
 10
29.6381
 20
23.4155
 11
29.6902
 21
23.3706
  0
LINE
  8
0
 10
29.6902
 20
23.3706
 11
29.7399
 21
23.3232
  0
LINE
  8
0
 10
29.7399
 20
23.3232
 11
29.7873
 21
23.2735
  0
LINE
  8
0
 10
29.7873
 20
23.2735
 11
29.8322
 21
23.2214
  0
LINE
  8
0
 10
29.8322
 20
23.2214
 11
29.8745
 21
23.1673
  0
LINE
  8
0
 10
29.8745
 20
23.1673
 11
29.914
 21
23.1111
  0
LINE
  8
0
 10
29.914
 20
23.1111
 11
29.9508
 21
23.053
  0
LINE
  8
0
 10
29.9508
 20
23.053
 11
29.9847
 21
22.9932
  0
LINE
  8
0
 10
29.9847
 20
22.9932
 11
30.0156
 21
22.9319
  0
LINE
  8
0
 10
30.0156
 20
22.9319
 11
30.0434
 21
22.869
  0
LINE
  8
0
 10
30.0434
 20
22.869
 11
30.0682
 21
22.8049
  0
LINE
  8
0
 10
30.0682
 20
22.8049
 11
30.0897
 21
22.7397
  0
LINE
  8
0
 10
30.0897
 20
22.7397
 11
30.108
 21
22.6735
  0
LINE
  8
0
 10
30.108
 20
22.6735
 11
30.1231
 21
22.6064
  0
LINE
  8
0
 10
30.1231
 20
22.6064
 11
30.1348
 21
22.5387
  0
LINE
  8
0
 10
30.1348
 20
22.5387
 11
30.1432
 21
22.4705
  0
LINE
  8
0
 10
30.1432
 20
22.4705
 11
30.1483
 21
22.402
  0
LINE
  8
0
 10
30.1483
 20
22.402
 11
30.15
 21
22.3333
  0
LINE
  8
0
 10
30.15
 20
22.3333
 11
30.1483
 21
22.2646
  0
LINE
  8
0
 10
30.1483
 20
22.2646
 11
30.1432
 21
22.1961
  0
LINE
  8
0
 10
30.1432
 20
22.1961
 11
30.1348
 21
22.1279
  0
LINE
  8
0
 10
30.1348
 20
22.1279
 11
30.1231
 21
22.0602
  0
LINE
  8
0
 10
30.1231
 20
22.0602
 11
30.108
 21
21.9931
  0
LINE
  8
0
 10
30.108
 20
21.9931
 11
30.0897
 21
21.9269
  0
LINE
  8
0
 10
30.0897
 20
21.9269
 11
30.0682
 21
21.8616
  0
LINE
  8
0
 10
30.0682
 20
21.8616
 11
30.0434
 21
21.7975
  0
LINE
  8
0
 10
30.0434
 20
21.7975
 11
30.0156
 21
21.7347
  0
LINE
  8
0
 10
30.0156
 20
21.7347
 11
29.9847
 21
21.6733
  0
LINE
  8
0
 10
29.9847
 20
21.6733
 11
29.9508
 21
21.6136
  0
LINE
  8
0
 10
29.9508
 20
21.6136
 11
29.914
 21
21.5555
  0
LINE
  8
0
 10
29.914
 20
21.5555
 11
29.8745
 21
21.4993
  0
LINE
  8
0
 10
29.8745
 20
21.4993
 11
29.8322
 21
21.4451
  0
LINE
  8
0
 10
29.8322
 20
21.4451
 11
29.7873
 21
21.3931
  0
LINE
  8
0
 10
29.7873
 20
21.3931
 11
29.7399
 21
21.3433
  0
LINE
  8
0
 10
29.7399
 20
21.3433
 11
29.6902
 21
21.296
  0
LINE
  8
0
 10
29.6902
 20
21.296
 11
29.6381
 21
21.2511
  0
LINE
  8
0
 10
29.6381
 20
21.2511
 11
29.584
 21
21.2088
  0
LINE
  8
0
 10
29.584
 20
21.2088
 11
29.5278
 21
21.1692
  0
LINE
  8
0
 10
29.5278
 20
21.1692
 11
29.4697
 21
21.1325
  0
LINE
  8
0
 10
29.4697
 20
21.1325
 11
29.4099
 21
21.0986
  0
LINE
  8
0
 10
29.4099
 20
21.0986
 11
29.3486
 21
21.0677
  0
LINE
  8
0
 10
29.3486
 20
21.0677
 11
29.2858
 21
21.0399
  0
LINE
  8
0
 10
29.2858
 20
21.0399
 11
29.2216
 21
21.0151
  0
LINE
  8
0
 10
29.2216
 20
21.0151
 11
29.1564
 21
20.9936
  0
LINE
  8
0
 10
29.1564
 20
20.9936
 11
29.0902
 21
20.9753
  0
LINE
  8
0
 10
29.0902
 20
20.9753
 11
29.0231
 21
20.9602
  0
LINE
  8
0
 10
29.0231
 20
20.9602
 11
28.9554
 21
20.9484
  0
LINE
  8
0
 10
28.9554
 20
20.9484
 11
28.8872
 21
20.94
  0
LINE
  8
0
 10
28.8872
 20
20.94
 11
28.8187
 21
20.935
  0
LINE
  8
0
 10
28.8187
 20
20.935
 11
28.75
 21
20.9333
  0
LINE
  8
0
 10
28.75
 20
20.9333
 11
28.6813
 21
20.935
  0
LINE
  8
0
 10
-28.9953
 20
7.00601
 11
-29.2401
 21
7.02406
  0
LINE
  8
0
 10
-29.2401
 20
7.02406
 11
-29.4836
 21
7.05411
  0
LINE
  8
0
 10
-29.4836
 20
7.05411
 11
-29.7254
 21
7.09607
  0
LINE
  8
0
 10
-29.7254
 20
7.09607
 11
-29.9649
 21
7.14984
  0
LINE
  8
0
 10
-29.9649
 20
7.14984
 11
-30.2014
 21
7.21529
  0
LINE
  8
0
 10
-30.2014
 20
7.21529
 11
-30.4344
 21
7.29227
  0
LINE
  8
0
 10
-30.4344
 20
7.29227
 11
-30.6634
 21
7.3806
  0
LINE
  8
0
 10
-30.6634
 20
7.3806
 11
-30.8878
 21
7.48004
  0
LINE
  8
0
 10
-30.8878
 20
7.48004
 11
-31.107
 21
7.59039
  0
LINE
  8
0
 10
-31.107
 20
7.59039
 11
-31.3205
 21
7.71135
  0
LINE
  8
0
 10
-31.3205
 20
7.71135
 11
-31.5278
 21
7.84265
  0
LINE
  8
0
 10
-31.5278
 20
7.84265
 11
-31.7285
 21
7.98395
  0
LINE
  8
0
 10
-31.7285
 20
7.98395
 11
-31.922
 21
8.13493
  0
LINE
  8
0
 10
-31.922
 20
8.13493
 11
-32.1078
 21
8.29524
  0
LINE
  8
0
 10
-32.1078
 20
8.29524
 11
-32.2855
 21
8.46446
  0
LINE
  8
0
 10
-32.2855
 20
8.46446
 11
-32.4547
 21
8.6422
  0
LINE
  8
0
 10
-32.4547
 20
8.6422
 11
-32.6151
 21
8.82803
  0
LINE
  8
0
 10
-32.6151
 20
8.82803
 11
-32.766
 21
9.0215
  0
LINE
  8
0
 10
-32.766
 20
9.0215
 11
-32.9073
 21
9.22214
  0
LINE
  8
0
 10
-32.9073
 20
9.22214
 11
-33.0386
 21
9.42947
  0
LINE
  8
0
 10
-33.0386
 20
9.42947
 11
-33.1596
 21
9.64301
  0
LINE
  8
0
 10
-33.1596
 20
9.64301
 11
-33.2699
 21
9.86221
  0
LINE
  8
0
 10
-33.2699
 20
9.86221
 11
-33.3694
 21
10.0866
  0
LINE
  8
0
 10
-33.3694
 20
10.0866
 11
-33.4577
 21
10.3155
  0
LINE
  8
0
 10
-33.4577
 20
10.3155
 11
-33.5347
 21
10.5486
  0
LINE
  8
0
 10
-33.5347
 20
10.5486
 11
-33.6001
 21
10.7851
  0
LINE
  8
0
 10
-33.6001
 20
10.7851
 11
-33.6539
 21
11.0245
  0
LINE
  8
0
 10
-33.6539
 20
11.0245
 11
-33.6959
 21
11.2663
  0
LINE
  8
0
 10
-33.6959
 20
11.2663
 11
-33.7259
 21
11.5099
  0
LINE
  8
0
 10
-33.7259
 20
11.5099
 11
-33.744
 21
11.7547
  0
LINE
  8
0
 10
-33.744
 20
11.7547
 11
-33.75
 21
12
  0
LINE
  8
0
 10
-33.75
 20
12
 11
-33.744
 21
12.2453
  0
LINE
  8
0
 10
-33.744
 20
12.2453
 11
-33.7259
 21
12.4901
  0
LINE
  8
0
 10
-33.7259
 20
12.4901
 11
-33.6959
 21
12.7336
  0
LINE
  8
0
 10
-33.6959
 20
12.7336
 11
-33.6539
 21
12.9754
  0
LINE
  8
0
 10
-33.6539
 20
12.9754
 11
-33.6001
 21
13.2149
  0
LINE
  8
0
 10
-33.6001
 20
13.2149
 11
-33.5347
 21
13.4514
  0
LINE
  8
0
 10
-33.5347
 20
13.4514
 11
-33.4577
 21
13.6844
  0
LINE
  8
0
 10
-33.4577
 20
13.6844
 11
-33.3694
 21
13.9134
  0
LINE
  8
0
 10
-33.3694
 20
13.9134
 11
-33.2699
 21
14.1378
  0
LINE
  8
0
 10
-33.2699
 20
14.1378
 11
-33.1596
 21
14.357
  0
LINE
  8
0
 10
-33.1596
 20
14.357
 11
-33.0386
 21
14.5705
  0
LINE
  8
0
 10
-33.0386
 20
14.5705
 11
-32.9073
 21
14.7778
  0
LINE
  8
0
 10
-32.9073
 20
14.7778
 11
-32.766
 21
14.9785
  0
LINE
  8
0
 10
-32.766
 20
14.9785
 11
-32.6151
 21
15.172
  0
LINE
  8
0
 10
-32.6151
 20
15.172
 11
-32.4547
 21
15.3578
  0
LINE
  8
0
 10
-32.4547
 20
15.3578
 11
-32.2855
 21
15.5355
  0
LINE
  8
0
 10
-32.2855
 20
15.5355
 11
-32.1078
 21
15.7047
  0
LINE
  8
0
 10
-32.1078
 20
15.7047
 11
-31.922
 21
15.8651
  0
LINE
  8
0
 10
-31.922
 20
15.8651
 11
-31.7285
 21
16.016
  0
LINE
  8
0
 10
-31.7285
 20
16.016
 11
-31.5278
 21
16.1573
  0
LINE
  8
0
 10
-31.5278
 20
16.1573
 11
-31.3205
 21
16.2886
  0
LINE
  8
0
 10
-31.3205
 20
16.2886
 11
-31.107
 21
16.4096
  0
LINE
  8
0
 10
-31.107
 20
16.4096
 11
-30.8878
 21
16.5199
  0
LINE
  8
0
 10
-30.8878
 20
16.5199
 11
-30.6634
 21
16.6194
  0
LINE
  8
0
 10
-30.6634
 20
16.6194
 11
-30.4344
 21
16.7077
  0
LINE
  8
0
 10
-30.4344
 20
16.7077
 11
-30.2014
 21
16.7847
  0
LINE
  8
0
 10
-30.2014
 20
16.7847
 11
-29.9649
 21
16.8501
  0
LINE
  8
0
 10
-29.9649
 20
16.8501
 11
-29.7254
 21
16.9039
  0
LINE
  8
0
 10
-29.7254
 20
16.9039
 11
-29.4836
 21
16.9459
  0
LINE
  8
0
 10
-29.4836
 20
16.9459
 11
-29.2401
 21
16.9759
  0
LINE
  8
0
 10
-29.2401
 20
16.9759
 11
-28.9953
 21
16.994
  0
LINE
  8
0
 10
-28.9953
 20
16.994
 11
-28.75
 21
17
  0
LINE
  8
0
 10
-28.75
 20
17
 11
-28.5047
 21
16.994
  0
LINE
  8
0
 10
-28.5047
 20
16.994
 11
-28.2599
 21
16.9759
  0
LINE
  8
0
 10
-28.2599
 20
16.9759
 11
-28.0163
 21
16.9459
  0
LINE
  8
0
 10
-28.0163
 20
16.9459
 11
-27.7745
 21
16.9039
  0
LINE
  8
0
 10
-27.7745
 20
16.9039
 11
-27.5351
 21
16.8501
  0
LINE
  8
0
 10
-27.5351
 20
16.8501
 11
-27.2986
 21
16.7847
  0
LINE
  8
0
 10
-27.2986
 20
16.7847
 11
-27.0655
 21
16.7077
  0
LINE
  8
0
 10
-27.0655
 20
16.7077
 11
-26.8366
 21
16.6194
  0
LINE
  8
0
 10
-26.8366
 20
16.6194
 11
-26.6122
 21
16.5199
  0
LINE
  8
0
 10
-26.6122
 20
16.5199
 11
-26.393
 21
16.4096
  0
LINE
  8
0
 10
-26.393
 20
16.4096
 11
-26.1795
 21
16.2886
  0
LINE
  8
0
 10
-26.1795
 20
16.2886
 11
-25.9721
 21
16.1573
  0
LINE
  8
0
 10
-25.9721
 20
16.1573
 11
-25.7715
 21
16.016
  0
LINE
  8
0
 10
-25.7715
 20
16.016
 11
-25.578
 21
15.8651
  0
LINE
  8
0
 10
-25.578
 20
15.8651
 11
-25.3922
 21
15.7047
  0
LINE
  8
0
 10
-25.3922
 20
15.7047
 11
-25.2145
 21
15.5355
  0
LINE
  8
0
 10
-25.2145
 20
15.5355
 11
-25.0452
 21
15.3578
  0
LINE
  8
0
 10
-25.0452
 20
15.3578
 11
-24.8849
 21
15.172
  0
LINE
  8
0
 10
-24.8849
 20
15.172
 11
-24.7339
 21
14.9785
  0
LINE
  8
0
 10
-24.7339
 20
14.9785
 11
-24.5927
 21
14.7778
  0
LINE
  8
0
 10
-24.5927
 20
14.7778
 11
-24.4613
 21
14.5705
  0
LINE
  8
0
 10
-24.4613
 20
14.5705
 11
-24.3404
 21
14.357
  0
LINE
  8
0
 10
-24.3404
 20
14.357
 11
-24.23
 21
14.1378
  0
LINE
  8
0
 10
-24.23
 20
14.1378
 11
-24.1306
 21
13.9134
  0
LINE
  8
0
 10
-24.1306
 20
13.9134
 11
-24.0423
 21
13.6844
  0
LINE
  8
0
 10
-24.0423
 20
13.6844
 11
-23.9653
 21
13.4514
  0
LINE
  8
0
 10
-23.9653
 20
13.4514
 11
-23.8998
 21
13.2149
  0
LINE
  8
0
 10
-23.8998
 20
13.2149
 11
-23.8461
 21
12.9754
  0
LINE
  8
0
 10
-23.8461
 20
12.9754
 11
-23.8041
 21
12.7336
  0
LINE
  8
0
 10
-23.8041
 20
12.7336
 11
-23.7741
 21
12.4901
  0
LINE
  8
0
 10
-23.7741
 20
12.4901
 11
-23.756
 21
12.2453
  0
LINE
  8
0
 10
-23.756
 20
12.2453
 11
-23.75
 21
12
  0
LINE
  8
0
 10
-23.75
 20
12
 11
-23.756
 21
11.7547
  0
LINE
  8
0
 10
-23.756
 20
11.7547
 11
-23.7741
 21
11.5099
  0
LINE
  8
0
 10
-23.7741
 20
11.5099
 11
-23.8041
 21
11.2663
  0
LINE
  8
0
 10
-23.8041
 20
11.2663
 11
-23.8461
 21
11.0245
  0
LINE
  8
0
 10
-23.8461
 20
11.0245
 11
-23.8998
 21
10.7851
  0
LINE
  8
0
 10
-23.8998
 20
10.7851
 11
-23.9653
 21
10.5486
  0
LINE
  8
0
 10
-23.9653
 20
10.5486
 11
-24.0423
 21
10.3155
  0
LINE
  8
0
 10
-24.0423
 20
10.3155
 11
-24.1306
 21
10.0866
  0
LINE
  8
0
 10
-24.1306
 20
10.0866
 11
-24.23
 21
9.86221
  0
LINE
  8
0
 10
-24.23
 20
9.86221
 11
-24.3404
 21
9.64301
  0
LINE
  8
0
 10
-24.3404
 20
9.64301
 11
-24.4613
 21
9.42947
  0
LINE
  8
0
 10
-24.4613
 20
9.42947
 11
-24.5927
 21
9.22214
  0
LINE
  8
0
 10
-24.5927
 20
9.22214
 11
-24.7339
 21
9.0215
  0
LINE
  8
0
 10
-24.7339
 20
9.0215
 11
-24.8849
 21
8.82803
  0
LINE
  8
0
 10
-24.8849
 20
8.82803
 11
-25.0452
 21
8.6422
  0
LINE
  8
0
 10
-25.0452
 20
8.6422
 11
-25.2145
 21
8.46446
  0
LINE
  8
0
 10
-25.2145
 20
8.46446
 11
-25.3922
 21
8.29524
  0
LINE
  8
0
 10
-25.3922
 20
8.29524
 11
-25.578
 21
8.13493
  0
LINE
  8
0
 10
-25.578
 20
8.13493
 11
-25.7715
 21
7.98395
  0
LINE
  8
0
 10
-25.7715
 20
7.98395
 11
-25.9721
 21
7.84265
  0
LINE
  8
0
 10
-25.9721
 20
7.84265
 11
-26.1795
 21
7.71135
  0
LINE
  8
0
 10
-26.1795
 20
7.71135
 11
-26.393
 21
7.59039
  0
LINE
  8
0
 10
-26.393
 20
7.59039
 11
-26.6122
 21
7.48004
  0
LINE
  8
0
 10
-26.6122
 20
7.48004
 11
-26.8366
 21
7.3806
  0
LINE
  8
0
 10
-26.8366
 20
7.3806
 11
-27.0655
 21
7.29227
  0
LINE
  8
0
 10
-27.0655
 20
7.29227
 11
-27.2986
 21
7.21529
  0
LINE
  8
0
 10
-27.2986
 20
7.21529
 11
-27.5351
 21
7.14984
  0
LINE
  8
0
 10
-27.5351
 20
7.14984
 11
-27.7745
 21
7.09607
  0
LINE
  8
0
 10
-27.7745
 20
7.09607
 11
-28.0163
 21
7.05411
  0
LINE
  8
0
 10
-28.0163
 20
7.05411
 11
-28.2599
 21
7.02406
  0
LINE
  8
0
 10
-28.2599
 20
7.02406
 11
-28.5047
 21
7.00601
  0
LINE
  8
0
 10
-28.5047
 20
7.00601
 11
-28.75
 21
7
  0
LINE
  8
0
 10
-28.75
 20
7
 11
-28.9953
 21
7.00601
  0
LINE
  8
0
 10
28.5047
 20
7.00601
 11
28.2599
 21
7.02406
  0
LINE
  8
0
 10
28.2599
 20
7.02406
 11
28.0163
 21
7.05411
  0
LINE
  8
0
 10
28.0163
 20
7.05411
 11
27.7745
 21
7.09607
  0
LINE
  8
0
 10
27.7745
 20
7.09607
 11
27.5351
 21
7.14984
  0
LINE
  8
0
 10
27.5351
 20
7.14984
 11
27.2986
 21
7.21529
  0
LINE
  8
0
 10
27.2986
 20
7.21529
 11
27.0655
 21
7.29227
  0
LINE
  8
0
 10
27.0655
 20
7.29227
 11
26.8366
 21
7.3806
  0
LINE
  8
0
 10
26.8366
 20
7.3806
 11
26.6122
 21
7.48004
  0
LINE
  8
0
 10
26.6122
 20
7.48004
 11
26.393
 21
7.59039
  0
LINE
  8
0
 10
26.393
 20
7.59039
 11
26.1795
 21
7.71135
  0
LINE
  8
0
 10
26.1795
 20
7.71135
 11
25.9721
 21
7.84265
  0
LINE
  8
0
 10
25.9721
 20
7.84265
 11
25.7715
 21
7.98395
  0
LINE
  8
0
 10
25.7715
 20
7.98395
 11
25.578
 21
8.13493
  0
LINE
  8
0
 10
25.578
 20
8.13493
 11
25.3922
 21
8.29524
  0
LINE
  8
0
 10
25.3922
 20
8.29524
 11
25.2145
 21
8.46446
  0
LINE
  8
0
 10
25.2145
 20
8.46446
 11
25.0452
 21
8.6422
  0
LINE
  8
0
 10
25.0452
 20
8.6422
 11
24.8849
 21
8.82803
  0
LINE
  8
0
 10
24.8849
 20
8.82803
 11
24.7339
 21
9.0215
  0
LINE
  8
0
 10
24.7339
 20
9.0215
 11
24.5927
 21
9.22214
  0
LINE
  8
0
 10
24.5927
 20
9.22214
 11
24.4613
 21
9.42947
  0
LINE
  8
0
 10
24.4613
 20
9.42947
 11
24.3404
 21
9.64301
  0
LINE
  8
0
 10
24.3404
 20
9.64301
 11
24.23
 21
9.86221
  0
LINE
  8
0
 10
24.23
 20
9.86221
 11
24.1306
 21
10.0866
  0
LINE
  8
0
 10
24.1306
 20
10.0866
 11
24.0423
 21
10.3155
  0
LINE
  8
0
 10
24.0423
 20
10.3155
 11
23.9653
 21
10.5486
  0
LINE
  8
0
 10
23.9653
 20
10.5486
 11
23.8998
 21
10.7851
  0
LINE
  8
0
 10
23.8998
 20
10.7851
 11
23.8461
 21
11.0245
  0
LINE
  8
0
 10
23.8461
 20
11.0245
 11
23.8041
 21
11.2663
  0
LINE
  8
0
 10
23.8041
 20
11.2663
 11
23.7741
 21
11.5099
  0
LINE
  8
0
 10
23.7741
 20
11.5099
 11
23.756
 21
11.7547
  0
LINE
  8
0
 10
23.756
 20
11.7547
 11
23.75
 21
12
  0
LINE
  8
0
 10
23.75
 20
12
 11
23.756
 21
12.2453
  0
LINE
  8
0
 10
23.756
 20
12.2453
 11
23.7741
 21
12.4901
  0
LINE
  8
0
 10
23.7741
 20
12.4901
 11
23.8041
 21
12.7336
  0
LINE
  8
0
 10
23.8041
 20
12.7336
 11
23.8461
 21
12.9754
  0
LINE
  8
0
 10
23.8461
 20
12.9754
 11
23.8998
 21
13.2149
  0
LINE
  8
0
 10
23.8998
 20
13.2149
 11
23.9653
 21
13.4514
  0
LINE
  8
0
 10
23.9653
 20
13.4514
 11
24.0423
 21
13.6844
  0
LINE
  8
0
 10
24.0423
 20
13.6844
 11
24.1306
 21
13.9134
  0
LINE
  8
0
 10
24.1306
 20
13.9134
 11
24.23
 21
14.1378
  0
LINE
  8
0
 10
24.23
 20
14.1378
 11
24.3404
 21
14.357
  0
LINE
  8
0
 10
24.3404
 20
14.357
 11
24.4613
 21
14.5705
  0
LINE
  8
0
 10
24.4613
 20
14.5705
 11
24.5927
 21
14.7778
  0
LINE
  8
0
 10
24.5927
 20
14.7778
 11
24.7339
 21
14.9785
  0
LINE
  8
0
 10
24.7339
 20
14.9785
 11
24.8849
 21
15.172
  0
LINE
  8
0
 10
24.8849
 20
15.172
 11
25.0452
 21
15.3578
  0
LINE
  8
0
 10
25.0452
 20
15.3578
 11
25.2145
 21
15.5355
  0
LINE
  8
0
 10
25.2145
 20
15.5355
 11
25.3922
 21
15.7047
  0
LINE
  8
0
 10
25.3922
 20
15.7047
 11
25.578
 21
15.8651
  0
LINE
  8
0
 10
25.578
 20
15.8651
 11
25.7715
 21
16.016
  0
LINE
  8
0
 10
25.7715
 20
16.016
 11
25.9721
 21
16.1573
  0
LINE
  8
0
 10
25.9721
 20
16.1573
 11
26.1795
 21
16.2886
  0
LINE
  8
0
 10
26.1795
 20
16.2886
 11
26.393
 21
16.4096
  0
LINE
  8
0
 10
26.393
 20
16.4096
 11
26.6122
 21
16.5199
  0
LINE
  8
0
 10
26.6122
 20
16.5199
 11
26.8366
 21
16.6194
  0
LINE
  8
0
 10
26.8366
 20
16.6194
 11
27.0655
 21
16.7077
  0
LINE
  8
0
 10
27.0655
 20
16.7077
 11
27.2986
 21
16.7847
  0
LINE
  8
0
 10
27.2986
 20
16.7847
 11
27.5351
 21
16.8501
  0
LINE
  8
0
 10
27.5351
 20
16.8501
 11
27.7745
 21
16.9039
  0
LINE
  8
0
 10
27.7745
 20
16.9039
 11
28.0163
 21
16.9459
  0
LINE
  8
0
 10
28.0163
 20
16.9459
 11
28.2599
 21
16.9759
  0
LINE
  8
0
 10
28.2599
 20
16.9759
 11
28.5047
 21
16.994
  0
LINE
  8
0
 10
28.5047
 20
16.994
 11
28.75
 21
17
  0
LINE
  8
0
 10
28.75
 20
17
 11
28.9953
 21
16.994
  0
LINE
  8
0
 10
28.9953
 20
16.994
 11
29.2401
 21
16.9759
  0
LINE
  8
0
 10
29.2401
 20
16.9759
 11
29.4836
 21
16.9459
  0
LINE
  8
0
 10
29.4836
 20
16.9459
 11
29.7254
 21
16.9039
  0
LINE
  8
0
 10
29.7254
 20
16.9039
 11
29.9649
 21
16.8501
  0
LINE
  8
0
 10
29.9649
 20
16.8501
 11
30.2014
 21
16.7847
  0
LINE
  8
0
 10
30.2014
 20
16.7847
 11
30.4344
 21
16.7077
  0
LINE
  8
0
 10
30.4344
 20
16.7077
 11
30.6634
 21
16.6194
  0
LINE
  8
0
 10
30.6634
 20
16.6194
 11
30.8878
 21
16.5199
  0
LINE
  8
0
 10
30.8878
 20
16.5199
 11
31.107
 21
16.4096
  0
LINE
  8
0
 10
31.107
 20
16.4096
 11
31.3205
 21
16.2886
  0
LINE
  8
0
 10
31.3205
 20
16.2886
 11
31.5278
 21
16.1573
  0
LINE
  8
0
 10
31.5278
 20
16.1573
 11
31.7285
 21
16.016
  0
LINE
  8
0
 10
31.7285
 20
16.016
 11
31.922
 21
15.8651
  0
LINE
  8
0
 10
31.922
 20
15.8651
 11
32.1078
 21
15.7047
  0
LINE
  8
0
 10
32.1078
 20
15.7047
 11
32.2855
 21
15.5355
  0
LINE
  8
0
 10
32.2855
 20
15.5355
 11
32.4547
 21
15.3578
  0
LINE
  8
0
 10
32.4547
 20
15.3578
 11
32.6151
 21
15.172
  0
LINE
  8
0
 10
32.6151
 20
15.172
 11
32.766
 21
14.9785
  0
LINE
  8
0
 10
32.766
 20
14.9785
 11
32.9073
 21
14.7778
  0
LINE
  8
0
 10
32.9073
 20
14.7778
 11
33.0386
 21
14.5705
  0
LINE
  8
0
 10
33.0386
 20
14.5705
 11
33.1596
 21
14.357
  0
LINE
  8
0
 10
33.1596
 20
14.357
 11
33.2699
 21
14.1378
  0
LINE
  8
0
 10
33.2699
 20
14.1378
 11
33.3694
 21
13.9134
  0
LINE
  8
0
 10
33.3694
 20
13.9134
 11
33.4577
 21
13.6844
  0
LINE
  8
0
 10
33.4577
 20
13.6844
 11
33.5347
 21
13.4514
  0
LINE
  8
0
 10
33.5347
 20
13.4514
 11
33.6001
 21
13.2149
  0
LINE
  8
0
 10
33.6001
 20
13.2149
 11
33.6539
 21
12.9754
  0
LINE
  8
0
 10
33.6539
 20
12.9754
 11
33.6959
 21
12.7336
  0
LINE
  8
0
 10
33.6959
 20
12.7336
 11
33.7259
 21
12.4901
  0
LINE
  8
0
 10
33.7259
 20
12.4901
 11
33.744
 21
12.2453
  0
LINE
  8
0
 10
33.744
 20
12.2453
 11
33.75
 21
12
  0
LINE
  8
0
 10
33.75
 20
12
 11
33.744
 21
11.7547
  0
LINE
  8
0
 10
33.744
 20
11.7547
 11
33.7259
 21
11.5099
  0
LINE
  8
0
 10
33.7259
 20
11.5099
 11
33.6959
 21
11.2663
  0
LINE
  8
0
 10
33.6959
 20
11.2663
 11
33.6539
 21
11.0245
  0
LINE
  8
0
 10
33.6539
 20
11.0245
 11
33.6001
 21
10.7851
  0
LINE
  8
0
 10
33.6001
 20
10.7851
 11
33.5347
 21
10.5486
  0
LINE
  8
0
 10
33.5347
 20
10.5486
 11
33.4577
 21
10.3155
  0
LINE
  8
0
 10
33.4577
 20
10.3155
 11
33.3694
 21
10.0866
  0
LINE
  8
0
 10
33.3694
 20
10.0866
 11
33.2699
 21
9.86221
  0
LINE
  8
0
 10
33.2699
 20
9.86221
 11
33.1596
 21
9.64301
  0
LINE
  8
0
 10
33.1596
 20
9.64301
 11
33.0386
 21
9.42947
  0
LINE
  8
0
 10
33.0386
 20
9.42947
 11
32.9073
 21
9.22214
  0
LINE
  8
0
 10
32.9073
 20
9.22214
 11
32.766
 21
9.0215
  0
LINE
  8
0
 10
32.766
 20
9.0215
 11
32.6151
 21
8.82803
  0
LINE
  8
0
 10
32.6151
 20
8.82803
 11
32.4547
 21
8.6422
  0
LINE
  8
0
 10
32.4547
 20
8.6422
 11
32.2855
 21
8.46446
  0
LINE
  8
0
 10
32.2855
 20
8.46446
 11
32.1078
 21
8.29524
  0
LINE
  8
0
 10
32.1078
 20
8.29524
 11
31.922
 21
8.13493
  0
LINE
  8
0
 10
31.922
 20
8.13493
 11
31.7285
 21
7.98395
  0
LINE
  8
0
 10
31.7285
 20
7.98395
 11
31.5278
 21
7.84265
  0
LINE
  8
0
 10
31.5278
 20
7.84265
 11
31.3205
 21
7.71135
  0
LINE
  8
0
 10
31.3205
 20
7.71135
 11
31.107
 21
7.59039
  0
LINE
  8
0
 10
31.107
 20
7.59039
 11
30.8878
 21
7.48004
  0
LINE
  8
0
 10
30.8878
 20
7.48004
 11
30.6634
 21
7.3806
  0
LINE
  8
0
 10
30.6634
 20
7.3806
 11
30.4344
 21
7.29227
  0
LINE
  8
0
 10
30.4344
 20
7.29227
 11
30.2014
 21
7.21529
  0
LINE
  8
0
 10
30.2014
 20
7.21529
 11
29.9649
 21
7.14984
  0
LINE
  8
0
 10
29.9649
 20
7.14984
 11
29.7254
 21
7.09607
  0
LINE
  8
0
 10
29.7254
 20
7.09607
 11
29.4836
 21
7.05411
  0
LINE
  8
0
 10
29.4836
 20
7.05411
 11
29.2401
 21
7.02406
  0
LINE
  8
0
 10
29.2401
 20
7.02406
 11
28.9953
 21
7.00601
  0
LINE
  8
0
 10
28.9953
 20
7.00601
 11
28.75
 21
7
  0
LINE
  8
0
 10
28.75
 20
7
 11
28.5047
 21
7.00601
  0
LINE
  8
0
 10
-28.8187
 20
-2.065
 11
-28.8872
 21
-2.05995
  0
LINE
  8
0
 10
-28.8872
 20
-2.05995
 11
-28.9554
 21
-2.05154
  0
LINE
  8
0
 10
-28.9554
 20
-2.05154
 11
-29.0231
 21
-2.03979
  0
LINE
  8
0
 10
-29.0231
 20
-2.03979
 11
-29.0902
 21
-2.02473
  0
LINE
  8
0
 10
-29.0902
 20
-2.02473
 11
-29.1564
 21
-2.00641
  0
LINE
  8
0
 10
-29.1564
 20
-2.00641
 11
-29.2216
 21
-1.98485
  0
LINE
  8
0
 10
-29.2216
 20
-1.98485
 11
-29.2858
 21
-1.96013
  0
LINE
  8
0
 10
-29.2858
 20
-1.96013
 11
-29.3486
 21
-1.93228
  0
LINE
  8
0
 10
-29.3486
 20
-1.93228
 11
-29.4099
 21
-1.90138
  0
LINE
  8
0
 10
-29.4099
 20
-1.90138
 11
-29.4697
 21
-1.86751
  0
LINE
  8
0
 10
-29.4697
 20
-1.86751
 11
-29.5278
 21
-1.83075
  0
LINE
  8
0
 10
-29.5278
 20
-1.83075
 11
-29.584
 21
-1.79118
  0
LINE
  8
0
 10
-29.584
 20
-1.79118
 11
-29.6381
 21
-1.7489
  0
LINE
  8
0
 10
-29.6381
 20
-1.7489
 11
-29.6902
 21
-1.70403
  0
LINE
  8
0
 10
-29.6902
 20
-1.70403
 11
-29.7399
 21
-1.65665
  0
LINE
  8
0
 10
-29.7399
 20
-1.65665
 11
-29.7873
 21
-1.60687
  0
LINE
  8
0
 10
-29.7873
 20
-1.60687
 11
-29.8322
 21
-1.55484
  0
LINE
  8
0
 10
-29.8322
 20
-1.55484
 11
-29.8745
 21
-1.50067
  0
LINE
  8
0
 10
-29.8745
 20
-1.50067
 11
-29.914
 21
-1.44449
  0
LINE
  8
0
 10
-29.914
 20
-1.44449
 11
-29.9508
 21
-1.38643
  0
LINE
  8
0
 10
-29.9508
 20
-1.38643
 11
-29.9847
 21
-1.32664
  0
LINE
  8
0
 10
-29.9847
 20
-1.32664
 11
-30.0156
 21
-1.26527
  0
LINE
  8
0
 10
-30.0156
 20
-1.26527
 11
-30.0434
 21
-1.20245
  0
LINE
  8
0
 10
-30.0434
 20
-1.20245
 11
-30.0682
 21
-1.13834
  0
LINE
  8
0
 10
-30.0682
 20
-1.13834
 11
-30.0897
 21
-1.07309
  0
LINE
  8
0
 10
-30.0897
 20
-1.07309
 11
-30.108
 21
-1.00687
  0
LINE
  8
0
 10
-30.108
 20
-1.00687
 11
-30.1231
 21
-0.939819
  0
LINE
  8
0
 10
-30.1231
 20
-0.939819
 11
-30.1348
 21
-0.872116
  0
LINE
  8
0
 10
-30.1348
 20
-0.872116
 11
-30.1432
 21
-0.803909
  0
LINE
  8
0
 10
-30.1432
 20
-0.803909
 11
-30.1483
 21
-0.735382
  0
LINE
  8
0
 10
-30.1483
 20
-0.735382
 11
-30.15
 21
-0.666687
  0
LINE
  8
0
 10
-30.15
 20
-0.666687
 11
-30.1483
 21
-0.597992
  0
LINE
  8
0
 10
-30.1483
 20
-0.597992
 11
-30.1432
 21
-0.529465
  0
LINE
  8
0
 10
-30.1432
 20
-0.529465
 11
-30.1348
 21
-0.461273
  0
LINE
  8
0
 10
-30.1348
 20
-0.461273
 11
-30.1231
 21
-0.39357
  0
LINE
  8
0
 10
-30.1231
 20
-0.39357
 11
-30.108
 21
-0.326523
  0
LINE
  8
0
 10
-30.108
 20
-0.326523
 11
-30.0897
 21
-0.2603
  0
LINE
  8
0
 10
-30.0897
 20
-0.2603
 11
-30.0682
 21
-0.195053
  0
LINE
  8
0
 10
-30.0682
 20
-0.195053
 11
-30.0434
 21
-0.130936
  0
LINE
  8
0
 10
-30.0434
 20
-0.130936
 11
-30.0156
 21
-0.0681152
  0
LINE
  8
0
 10
-30.0156
 20
-0.0681152
 11
-29.9847
 21
-0.00674438
  0
LINE
  8
0
 10
-29.9847
 20
-0.00674438
 11
-29.9508
 21
0.0530396
  0
LINE
  8
0
 10
-29.9508
 20
0.0530396
 11
-29.914
 21
0.111084
  0
LINE
  8
0
 10
-29.914
 20
0.111084
 11
-29.8745
 21
0.167267
  0
LINE
  8
0
 10
-29.8745
 20
0.167267
 11
-29.8322
 21
0.221436
  0
LINE
  8
0
 10
-29.8322
 20
0.221436
 11
-29.7873
 21
0.273468
  0
LINE
  8
0
 10
-29.7873
 20
0.273468
 11
-29.7399
 21
0.323242
  0
LINE
  8
0
 10
-29.7399
 20
0.323242
 11
-29.6902
 21
0.370621
  0
LINE
  8
0
 10
-29.6902
 20
0.370621
 11
-29.6381
 21
0.415512
  0
LINE
  8
0
 10
-29.6381
 20
0.415512
 11
-29.584
 21
0.457779
  0
LINE
  8
0
 10
-29.584
 20
0.457779
 11
-29.5278
 21
0.497345
  0
LINE
  8
0
 10
-29.5278
 20
0.497345
 11
-29.4697
 21
0.534119
  0
LINE
  8
0
 10
-29.4697
 20
0.534119
 11
-29.4099
 21
0.567978
  0
LINE
  8
0
 10
-29.4099
 20
0.567978
 11
-29.3486
 21
0.598877
  0
LINE
  8
0
 10
-29.3486
 20
0.598877
 11
-29.2858
 21
0.626724
  0
LINE
  8
0
 10
-29.2858
 20
0.626724
 11
-29.2216
 21
0.651459
  0
LINE
  8
0
 10
-29.2216
 20
0.651459
 11
-29.1564
 21
0.673004
  0
LINE
  8
0
 10
-29.1564
 20
0.673004
 11
-29.0902
 21
0.69133
  0
LINE
  8
0
 10
-29.0902
 20
0.69133
 11
-29.0231
 21
0.70639
  0
LINE
  8
0
 10
-29.0231
 20
0.70639
 11
-28.9554
 21
0.71814
  0
LINE
  8
0
 10
-28.9554
 20
0.71814
 11
-28.8872
 21
0.726547
  0
LINE
  8
0
 10
-28.8872
 20
0.726547
 11
-28.8187
 21
0.731613
  0
LINE
  8
0
 10
-28.8187
 20
0.731613
 11
-28.75
 21
0.733292
  0
LINE
  8
0
 10
-28.75
 20
0.733292
 11
-28.6813
 21
0.731613
  0
LINE
  8
0
 10
-28.6813
 20
0.731613
 11
-28.6128
 21
0.726547
  0
LINE
  8
0
 10
-28.6128
 20
0.726547
 11
-28.5446
 21
0.71814
  0
LINE
  8
0
 10
-28.5446
 20
0.71814
 11
-28.4769
 21
0.70639
  0
LINE
  8
0
 10
-28.4769
 20
0.70639
 11
-28.4098
 21
0.69133
  0
LINE
  8
0
 10
-28.4098
 20
0.69133
 11
-28.3436
 21
0.673004
  0
LINE
  8
0
 10
-28.3436
 20
0.673004
 11
-28.2784
 21
0.651459
  0
LINE
  8
0
 10
-28.2784
 20
0.651459
 11
-28.2142
 21
0.626724
  0
LINE
  8
0
 10
-28.2142
 20
0.626724
 11
-28.1514
 21
0.598877
  0
LINE
  8
0
 10
-28.1514
 20
0.598877
 11
-28.09
 21
0.567978
  0
LINE
  8
0
 10
-28.09
 20
0.567978
 11
-28.0302
 21
0.534119
  0
LINE
  8
0
 10
-28.0302
 20
0.534119
 11
-27.9722
 21
0.497345
  0
LINE
  8
0
 10
-27.9722
 20
0.497345
 11
-27.916
 21
0.457779
  0
LINE
  8
0
 10
-27.916
 20
0.457779
 11
-27.8618
 21
0.415512
  0
LINE
  8
0
 10
-27.8618
 20
0.415512
 11
-27.8098
 21
0.370621
  0
LINE
  8
0
 10
-27.8098
 20
0.370621
 11
-27.76
 21
0.323242
  0
LINE
  8
0
 10
-27.76
 20
0.323242
 11
-27.7127
 21
0.273468
  0
LINE
  8
0
 10
-27.7127
 20
0.273468
 11
-27.6678
 21
0.221436
  0
LINE
  8
0
 10
-27.6678
 20
0.221436
 11
-27.6255
 21
0.167267
  0
LINE
  8
0
 10
-27.6255
 20
0.167267
 11
-27.5859
 21
0.111084
  0
LINE
  8
0
 10
-27.5859
 20
0.111084
 11
-27.5492
 21
0.0530396
  0
LINE
  8
0
 10
-27.5492
 20
0.0530396
 11
-27.5153
 21
-0.00674438
  0
LINE
  8
0
 10
-27.5153
 20
-0.00674438
 11
-27.4844
 21
-0.0681152
  0
LINE
  8
0
 10
-27.4844
 20
-0.0681152
 11
-27.4566
 21
-0.130936
  0
LINE
  8
0
 10
-27.4566
 20
-0.130936
 11
-27.4318
 21
-0.195053
  0
LINE
  8
0
 10
-27.4318
 20
-0.195053
 11
-27.4103
 21
-0.2603
  0
LINE
  8
0
 10
-27.4103
 20
-0.2603
 11
-27.392
 21
-0.326523
  0
LINE
  8
0
 10
-27.392
 20
-0.326523
 11
-27.3769
 21
-0.39357
  0
LINE
  8
0
 10
-27.3769
 20
-0.39357
 11
-27.3651
 21
-0.461273
  0
LINE
  8
0
 10
-27.3651
 20
-0.461273
 11
-27.3567
 21
-0.529465
  0
LINE
  8
0
 10
-27.3567
 20
-0.529465
 11
-27.3517
 21
-0.597992
  0
LINE
  8
0
 10
-27.3517
 20
-0.597992
 11
-27.35
 21
-0.666687
  0
LINE
  8
0
 10
-27.35
 20
-0.666687
 11
-27.3517
 21
-0.735382
  0
LINE
  8
0
 10
-27.3517
 20
-0.735382
 11
-27.3567
 21
-0.803909
  0
LINE
  8
0
 10
-27.3567
 20
-0.803909
 11
-27.3651
 21
-0.872116
  0
LINE
  8
0
 10
-27.3651
 20
-0.872116
 11
-27.3769
 21
-0.939819
  0
LINE
  8
0
 10
-27.3769
 20
-0.939819
 11
-27.392
 21
-1.00687
  0
LINE
  8
0
 10
-27.392
 20
-1.00687
 11
-27.4103
 21
-1.07309
  0
LINE
  8
0
 10
-27.4103
 20
-1.07309
 11
-27.4318
 21
-1.13834
  0
LINE
  8
0
 10
-27.4318
 20
-1.13834
 11
-27.4566
 21
-1.20245
  0
LINE
  8
0
 10
-27.4566
 20
-1.20245
 11
-27.4844
 21
-1.26527
  0
LINE
  8
0
 10
-27.4844
 20
-1.26527
 11
-27.5153
 21
-1.32664
  0
LINE
  8
0
 10
-27.5153
 20
-1.32664
 11
-27.5492
 21
-1.38643
  0
LINE
  8
0
 10
-27.5492
 20
-1.38643
 11
-27.5859
 21
-1.44449
  0
LINE
  8
0
 10
-27.5859
 20
-1.44449
 11
-27.6255
 21
-1.50067
  0
LINE
  8
0
 10
-27.6255
 20
-1.50067
 11
-27.6678
 21
-1.55484
  0
LINE
  8
0
 10
-27.6678
 20
-1.55484
 11
-27.7127
 21
-1.60687
  0
LINE
  8
0
 10
-27.7127
 20
-1.60687
 11
-27.76
 21
-1.65665
  0
LINE
  8
0
 10
-27.76
 20
-1.65665
 11
-27.8098
 21
-1.70403
  0
LINE
  8
0
 10
-27.8098
 20
-1.70403
 11
-27.8618
 21
-1.7489
  0
LINE
  8
0
 10
-27.8618
 20
-1.7489
 11
-27.916
 21
-1.79118
  0
LINE
  8
0
 10
-27.916
 20
-1.79118
 11
-27.9722
 21
-1.83075
  0
LINE
  8
0
 10
-27.9722
 20
-1.83075
 11
-28.0302
 21
-1.86751
  0
LINE
  8
0
 10
-28.0302
 20
-1.86751
 11
-28.09
 21
-1.90138
  0
LINE
  8
0
 10
-28.09
 20
-1.90138
 11
-28.1514
 21
-1.93228
  0
LINE
  8
0
 10
-28.1514
 20
-1.93228
 11
-28.2142
 21
-1.96013
  0
LINE
  8
0
 10
-28.2142
 20
-1.96013
 11
-28.2784
 21
-1.98485
  0
LINE
  8
0
 10
-28.2784
 20
-1.98485
 11
-28.3436
 21
-2.00641
  0
LINE
  8
0
 10
-28.3436
 20
-2.00641
 11
-28.4098
 21
-2.02473
  0
LINE
  8
0
 10
-28.4098
 20
-2.02473
 11
-28.4769
 21
-2.03979
  0
LINE
  8
0
 10
-28.4769
 20
-2.03979
 11
-28.5446
 21
-2.05154
  0
LINE
  8
0
 10
-28.5446
 20
-2.05154
 11
-28.6128
 21
-2.05995
  0
LINE
  8
0
 10
-28.6128
 20
-2.05995
 11
-28.6813
 21
-2.065
  0
LINE
  8
0
 10
-28.6813
 20
-2.065
 11
-28.75
 21
-2.0667
  0
LINE
  8
0
 10
-28.75
 20
-2.0667
 11
-28.8187
 21
-2.065
  0
LINE
  8
0
 10
28.6813
 20
-2.065
 11
28.6128
 21
-2.05995
  0
LINE
  8
0
 10
28.6128
 20
-2.05995
 11
28.5446
 21
-2.05154
  0
LINE
  8
0
 10
28.5446
 20
-2.05154
 11
28.4769
 21
-2.03979
  0
LINE
  8
0
 10
28.4769
 20
-2.03979
 11
28.4098
 21
-2.02473
  0
LINE
  8
0
 10
28.4098
 20
-2.02473
 11
28.3436
 21
-2.00641
  0
LINE
  8
0
 10
28.3436
 20
-2.00641
 11
28.2784
 21
-1.98485
  0
LINE
  8
0
 10
28.2784
 20
-1.98485
 11
28.2142
 21
-1.96013
  0
LINE
  8
0
 10
28.2142
 20
-1.96013
 11
28.1514
 21
-1.93228
  0
LINE
  8
0
 10
28.1514
 20
-1.93228
 11
28.09
 21
-1.90138
  0
LINE
  8
0
 10
28.09
 20
-1.90138
 11
28.0302
 21
-1.86751
  0
LINE
  8
0
 10
28.0302
 20
-1.86751
 11
27.9722
 21
-1.83075
  0
LINE
  8
0
 10
27.9722
 20
-1.83075
 11
27.916
 21
-1.79118
  0
LINE
  8
0
 10
27.916
 20
-1.79118
 11
27.8618
 21
-1.7489
  0
LINE
  8
0
 10
27.8618
 20
-1.7489
 11
27.8098
 21
-1.70403
  0
LINE
  8
0
 10
27.8098
 20
-1.70403
 11
27.76
 21
-1.65665
  0
LINE
  8
0
 10
27.76
 20
-1.65665
 11
27.7127
 21
-1.60687
  0
LINE
  8
0
 10
27.7127
 20
-1.60687
 11
27.6678
 21
-1.55484
  0
LINE
  8
0
 10
27.6678
 20
-1.55484
 11
27.6255
 21
-1.50067
  0
LINE
  8
0
 10
27.6255
 20
-1.50067
 11
27.5859
 21
-1.44449
  0
LINE
  8
0
 10
27.5859
 20
-1.44449
 11
27.5492
 21
-1.38643
  0
LINE
  8
0
 10
27.5492
 20
-1.38643
 11
27.5153
 21
-1.32664
  0
LINE
  8
0
 10
27.5153
 20
-1.32664
 11
27.4844
 21
-1.26527
  0
LINE
  8
0
 10
27.4844
 20
-1.26527
 11
27.4566
 21
-1.20245
  0
LINE
  8
0
 10
27.4566
 20
-1.20245
 11
27.4318
 21
-1.13834
  0
LINE
  8
0
 10
27.4318
 20
-1.13834
 11
27.4103
 21
-1.07309
  0
LINE
  8
0
 10
27.4103
 20
-1.07309
 11
27.392
 21
-1.00687
  0
LINE
  8
0
 10
27.392
 20
-1.00687
 11
27.3769
 21
-0.939819
  0
LINE
  8
0
 10
27.3769
 20
-0.939819
 11
27.3651
 21
-0.872116
  0
LINE
  8
0
 10
27.3651
 20
-0.872116
 11
27.3567
 21
-0.803909
  0
LINE
  8
0
 10
27.3567
 20
-0.803909
 11
27.3517
 21
-0.735382
  0
LINE
  8
0
 10
27.3517
 20
-0.735382
 11
27.35
 21
-0.666687
  0
LINE
  8
0
 10
27.35
 20
-0.666687
 11
27.3517
 21
-0.597992
  0
LINE
  8
0
 10
27.3517
 20
-0.597992
 11
27.3567
 21
-0.529465
  0
LINE
  8
0
 10
27.3567
 20
-0.529465
 11
27.3651
 21
-0.461273
  0
LINE
  8
0
 10
27.3651
 20
-0.461273
 11
27.3769
 21
-0.39357
  0
LINE
  8
0
 10
27.3769
 20
-0.39357
 11
27.392
 21
-0.326523
  0
LINE
  8
0
 10
27.392
 20
-0.326523
 11
27.4103
 21
-0.2603
  0
LINE
  8
0
 10
27.4103
 20
-0.2603
 11
27.4318
 21
-0.195053
  0
LINE
  8
0
 10
27.4318
 20
-0.195053
 11
27.4566
 21
-0.130936
  0
LINE
  8
0
 10
27.4566
 20
-0.130936
 11
27.4844
 21
-0.0681152
  0
LINE
  8
0
 10
27.4844
 20
-0.0681152
 11
27.5153
 21
-0.00674438
  0
LINE
  8
0
 10
27.5153
 20
-0.00674438
 11
27.5492
 21
0.0530396
  0
LINE
  8
0
 10
27.5492
 20
0.0530396
 11
27.5859
 21
0.111084
  0
LINE
  8
0
 10
27.5859
 20
0.111084
 11
27.6255
 21
0.167267
  0
LINE
  8
0
 10
27.6255
 20
0.167267
 11
27.6678
 21
0.221436
  0
LINE
  8
0
 10
27.6678
 20
0.221436
 11
27.7127
 21
0.273468
  0
LINE
  8
0
 10
27.7127
 20
0.273468
 11
27.76
 21
0.323242
  0
LINE
  8
0
 10
27.76
 20
0.323242
 11
27.8098
 21
0.370621
  0
LINE
  8
0
 10
27.8098
 20
0.370621
 11
27.8618
 21
0.415512
  0
LINE
  8
0
 10
27.8618
 20
0.415512
 11
27.916
 21
0.457779
  0
LINE
  8
0
 10
27.916
 20
0.457779
 11
27.9722
 21
0.497345
  0
LINE
  8
0
 10
27.9722
 20
0.497345
 11
28.0302
 21
0.534119
  0
LINE
  8
0
 10
28.0302
 20
0.534119
 11
28.09
 21
0.567978
  0
LINE
  8
0
 10
28.09
 20
0.567978
 11
28.1514
 21
0.598877
  0
LINE
  8
0
 10
28.1514
 20
0.598877
 11
28.2142
 21
0.626724
  0
LINE
  8
0
 10
28.2142
 20
0.626724
 11
28.2784
 21
0.651459
  0
LINE
  8
0
 10
28.2784
 20
0.651459
 11
28.3436
 21
0.673004
  0
LINE
  8
0
 10
28.3436
 20
0.673004
 11
28.4098
 21
0.69133
  0
LINE
  8
0
 10
28.4098
 20
0.69133
 11
28.4769
 21
0.70639
  0
LINE
  8
0
 10
28.4769
 20
0.70639
 11
28.5446
 21
0.71814
  0
LINE
  8
0
 10
28.5446
 20
0.71814
 11
28.6128
 21
0.726547
  0
LINE
  8
0
 10
28.6128
 20
0.726547
 11
28.6813
 21
0.731613
  0
LINE
  8
0
 10
28.6813
 20
0.731613
 11
28.75
 21
0.733292
  0
LINE
  8
0
 10
28.75
 20
0.733292
 11
28.8187
 21
0.731613
  0
LINE
  8
0
 10
28.8187
 20
0.731613
 11
28.8872
 21
0.726547
  0
LINE
  8
0
 10
28.8872
 20
0.726547
 11
28.9554
 21
0.71814
  0
LINE
  8
0
 10
28.9554
 20
0.71814
 11
29.0231
 21
0.70639
  0
LINE
  8
0
 10
29.0231
 20
0.70639
 11
29.0902
 21
0.69133
  0
LINE
  8
0
 10
29.0902
 20
0.69133
 11
29.1564
 21
0.673004
  0
LINE
  8
0
 10
29.1564
 20
0.673004
 11
29.2216
 21
0.651459
  0
LINE
  8
0
 10
29.2216
 20
0.651459
 11
29.2858
 21
0.626724
  0
LINE
  8
0
 10
29.2858
 20
0.626724
 11
29.3486
 21
0.598877
  0
LINE
  8
0
 10
29.3486
 20
0.598877
 11
29.4099
 21
0.567978
  0
LINE
  8
0
 10
29.4099
 20
0.567978
 11
29.4697
 21
0.534119
  0
LINE
  8
0
 10
29.4697
 20
0.534119
 11
29.5278
 21
0.497345
  0
LINE
  8
0
 10
29.5278
 20
0.497345
 11
29.584
 21
0.457779
  0
LINE
  8
0
 10
29.584
 20
0.457779
 11
29.6381
 21
0.415512
  0
LINE
  8
0
 10
29.6381
 20
0.415512
 11
29.6902
 21
0.370621
  0
LINE
  8
0
 10
29.6902
 20
0.370621
 11
29.7399
 21
0.323242
  0
LINE
  8
0
 10
29.7399
 20
0.323242
 11
29.7873
 21
0.273468
  0
LINE
  8
0
 10
29.7873
 20
0.273468
 11
29.8322
 21
0.221436
  0
LINE
  8
0
 10
29.8322
 20
0.221436
 11
29.8745
 21
0.167267
  0
LINE
  8
0
 10
29.8745
 20
0.167267
 11
29.914
 21
0.111084
  0
LINE
  8
0
 10
29.914
 20
0.111084
 11
29.9508
 21
0.0530396
  0
LINE
  8
0
 10
29.9508
 20
0.0530396
 11
29.9847
 21
-0.00674438
  0
LINE
  8
0
 10
29.9847
 20
-0.00674438
 11
30.0156
 21
-0.0681152
  0
LINE
  8
0
 10
30.0156
 20
-0.0681152
 11
30.0434
 21
-0.130936
  0
LINE
  8
0
 10
30.0434
 20
-0.130936
 11
30.0682
 21
-0.195053
  0
LINE
  8
0
 10
30.0682
 20
-0.195053
 11
30.0897
 21
-0.2603
  0
LINE
  8
0
 10
30.0897
 20
-0.2603
 11
30.108
 21
-0.326523
  0
LINE
  8
0
 10
30.108
 20
-0.326523
 11
30.1231
 21
-0.39357
  0
LINE
  8
0
 10
30.1231
 20
-0.39357
 11
30.1348
 21
-0.461273
  0
LINE
  8
0
 10
30.1348
 20
-0.461273
 11
30.1432
 21
-0.529465
  0
LINE
  8
0
 10
30.1432
 20
-0.529465
 11
30.1483
 21
-0.597992
  0
LINE
  8
0
 10
30.1483
 20
-0.597992
 11
30.15
 21
-0.666687
  0
LINE
  8
0
 10
30.15
 20
-0.666687
 11
30.1483
 21
-0.735382
  0
LINE
  8
0
 10
30.1483
 20
-0.735382
 11
30.1432
 21
-0.803909
  0
LINE
  8
0
 10
30.1432
 20
-0.803909
 11
30.1348
 21
-0.872116
  0
LINE
  8
0
 10
30.1348
 20
-0.872116
 11
30.1231
 21
-0.939819
  0
LINE
  8
0
 10
30.1231
 20
-0.939819
 11
30.108
 21
-1.00687
  0
LINE
  8
0
 10
30.108
 20
-1.00687
 11
30.0897
 21
-1.07309
  0
LINE
  8
0
 10
30.0897
 20
-1.07309
 11
30.0682
 21
-1.13834
  0
LINE
  8
0
 10
30.0682
 20
-1.13834
 11
30.0434
 21
-1.20245
  0
LINE
  8
0
 10
30.0434
 20
-1.20245
 11
30.0156
 21
-1.26527
  0
LINE
  8
0
 10
30.0156
 20
-1.26527
 11
29.9847
 21
-1.32664
  0
LINE
  8
0
 10
29.9847
 20
-1.32664
 11
29.9508
 21
-1.38643
  0
LINE
  8
0
 10
29.9508
 20
-1.38643
 11
29.914
 21
-1.44449
  0
LINE
  8
0
 10
29.914
 20
-1.44449
 11
29.8745
 21
-1.50067
  0
LINE
  8
0
 10
29.8745
 20
-1.50067
 11
29.8322
 21
-1.55484
  0
LINE
  8
0
 10
29.8322
 20
-1.55484
 11
29.7873
 21
-1.60687
  0
LINE
  8
0
 10
29.7873
 20
-1.60687
 11
29.7399
 21
-1.65665
  0
LINE
  8
0
 10
29.7399
 20
-1.65665
 11
29.6902
 21
-1.70403
  0
LINE
  8
0
 10
29.6902
 20
-1.70403
 11
29.6381
 21
-1.7489
  0
LINE
  8
0
 10
29.6381
 20
-1.7489
 11
29.584
 21
-1.79118
  0
LINE
  8
0
 10
29.584
 20
-1.79118
 11
29.5278
 21
-1.83075
  0
LINE
  8
0
 10
29.5278
 20
-1.83075
 11
29.4697
 21
-1.86751
  0
LINE
  8
0
 10
29.4697
 20
-1.86751
 11
29.4099
 21
-1.90138
  0
LINE
  8
0
 10
29.4099
 20
-1.90138
 11
29.3486
 21
-1.93228
  0
LINE
  8
0
 10
29.3486
 20
-1.93228
 11
29.2858
 21
-1.96013
  0
LINE
  8
0
 10
29.2858
 20
-1.96013
 11
29.2216
 21
-1.98485
  0
LINE
  8
0
 10
29.2216
 20
-1.98485
 11
29.1564
 21
-2.00641
  0
LINE
  8
0
 10
29.1564
 20
-2.00641
 11
29.0902
 21
-2.02473
  0
LINE
  8
0
 10
29.0902
 20
-2.02473
 11
29.0231
 21
-2.03979
  0
LINE
  8
0
 10
29.0231
 20
-2.03979
 11
28.9554
 21
-2.05154
  0
LINE
  8
0
 10
28.9554
 20
-2.05154
 11
28.8872
 21
-2.05995
  0
LINE
  8
0
 10
28.8872
 20
-2.05995
 11
28.8187
 21
-2.065
  0
LINE
  8
0
 10
28.8187
 20
-2.065
 11
28.75
 21
-2.0667
  0
LINE
  8
0
 10
28.75
 20
-2.0667
 11
28.6813
 21
-2.065
  0
LINE
  8
0
 10
-37.5687
 20
-30.8983
 11
-37.6372
 21
-30.8932
  0
LINE
  8
0
 10
-37.6372
 20
-30.8932
 11
-37.7054
 21
-30.8848
  0
LINE
  8
0
 10
-37.7054
 20
-30.8848
 11
-37.7731
 21
-30.8731
  0
LINE
  8
0
 10
-37.7731
 20
-30.8731
 11
-37.8402
 21
-30.858
  0
LINE
  8
0
 10
-37.8402
 20
-30.858
 11
-37.9064
 21
-30.8397
  0
LINE
  8
0
 10
-37.9064
 20
-30.8397
 11
-37.9716
 21
-30.8182
  0
LINE
  8
0
 10
-37.9716
 20
-30.8182
 11
-38.0358
 21
-30.7934
  0
LINE
  8
0
 10
-38.0358
 20
-30.7934
 11
-38.0986
 21
-30.7656
  0
LINE
  8
0
 10
-38.0986
 20
-30.7656
 11
-38.1599
 21
-30.7347
  0
LINE
  8
0
 10
-38.1599
 20
-30.7347
 11
-38.2197
 21
-30.7008
  0
LINE
  8
0
 10
-38.2197
 20
-30.7008
 11
-38.2778
 21
-30.664
  0
LINE
  8
0
 10
-38.2778
 20
-30.664
 11
-38.334
 21
-30.6245
  0
LINE
  8
0
 10
-38.334
 20
-30.6245
 11
-38.3881
 21
-30.5822
  0
LINE
  8
0
 10
-38.3881
 20
-30.5822
 11
-38.4402
 21
-30.5373
  0
LINE
  8
0
 10
-38.4402
 20
-30.5373
 11
-38.4899
 21
-30.4899
  0
LINE
  8
0
 10
-38.4899
 20
-30.4899
 11
-38.5373
 21
-30.4402
  0
LINE
  8
0
 10
-38.5373
 20
-30.4402
 11
-38.5822
 21
-30.3881
  0
LINE
  8
0
 10
-38.5822
 20
-30.3881
 11
-38.6245
 21
-30.334
  0
LINE
  8
0
 10
-38.6245
 20
-30.334
 11
-38.664
 21
-30.2778
  0
LINE
  8
0
 10
-38.664
 20
-30.2778
 11
-38.7008
 21
-30.2197
  0
LINE
  8
0
 10
-38.7008
 20
-30.2197
 11
-38.7347
 21
-30.1599
  0
LINE
  8
0
 10
-38.7347
 20
-30.1599
 11
-38.7656
 21
-30.0986
  0
LINE
  8
0
 10
-38.7656
 20
-30.0986
 11
-38.7934
 21
-30.0358
  0
LINE
  8
0
 10
-38.7934
 20
-30.0358
 11
-38.8182
 21
-29.9716
  0
LINE
  8
0
 10
-38.8182
 20
-29.9716
 11
-38.8397
 21
-29.9064
  0
LINE
  8
0
 10
-38.8397
 20
-29.9064
 11
-38.858
 21
-29.8402
  0
LINE
  8
0
 10
-38.858
 20
-29.8402
 11
-38.8731
 21
-29.7731
  0
LINE
  8
0
 10
-38.8731
 20
-29.7731
 11
-38.8848
 21
-29.7054
  0
LINE
  8
0
 10
-38.8848
 20
-29.7054
 11
-38.8932
 21
-29.6372
  0
LINE
  8
0
 10
-38.8932
 20
-29.6372
 11
-38.8983
 21
-29.5687
  0
LINE
  8
0
 10
-38.8983
 20
-29.5687
 11
-38.9
 21
-29.5
  0
LINE
  8
0
 10
-38.9
 20
-29.5
 11
-38.8983
 21
-29.4313
  0
LINE
  8
0
 10
-38.8983
 20
-29.4313
 11
-38.8932
 21
-29.3628
  0
LINE
  8
0
 10
-38.8932
 20
-29.3628
 11
-38.8848
 21
-29.2946
  0
LINE
  8
0
 10
-38.8848
 20
-29.2946
 11
-38.8731
 21
-29.2269
  0
LINE
  8
0
 10
-38.8731
 20
-29.2269
 11
-38.858
 21
-29.1598
  0
LINE
  8
0
 10
-38.858
 20
-29.1598
 11
-38.8397
 21
-29.0936
  0
LINE
  8
0
 10
-38.8397
 20
-29.0936
 11
-38.8182
 21
-29.0284
  0
LINE
  8
0
 10
-38.8182
 20
-29.0284
 11
-38.7934
 21
-28.9642
  0
LINE
  8
0
 10
-38.7934
 20
-28.9642
 11
-38.7656
 21
-28.9014
  0
LINE
  8
0
 10
-38.7656
 20
-28.9014
 11
-38.7347
 21
-28.84
  0
LINE
  8
0
 10
-38.7347
 20
-28.84
 11
-38.7008
 21
-28.7802
  0
LINE
  8
0
 10
-38.7008
 20
-28.7802
 11
-38.664
 21
-28.7222
  0
LINE
  8
0
 10
-38.664
 20
-28.7222
 11
-38.6245
 21
-28.666
  0
LINE
  8
0
 10
-38.6245
 20
-28.666
 11
-38.5822
 21
-28.6118
  0
LINE
  8
0
 10
-38.5822
 20
-28.6118
 11
-38.5373
 21
-28.5598
  0
LINE
  8
0
 10
-38.5373
 20
-28.5598
 11
-38.4899
 21
-28.51
  0
LINE
  8
0
 10
-38.4899
 20
-28.51
 11
-38.4402
 21
-28.4627
  0
LINE
  8
0
 10
-38.4402
 20
-28.4627
 11
-38.3881
 21
-28.4178
  0
LINE
  8
0
 10
-38.3881
 20
-28.4178
 11
-38.334
 21
-28.3755
  0
LINE
  8
0
 10
-38.334
 20
-28.3755
 11
-38.2778
 21
-28.3359
  0
LINE
  8
0
 10
-38.2778
 20
-28.3359
 11
-38.2197
 21
-28.2992
  0
LINE
  8
0
 10
-38.2197
 20
-28.2992
 11
-38.1599
 21
-28.2653
  0
LINE
  8
0
 10
-38.1599
 20
-28.2653
 11
-38.0986
 21
-28.2344
  0
LINE
  8
0
 10
-38.0986
 20
-28.2344
 11
-38.0358
 21
-28.2066
  0
LINE
  8
0
 10
-38.0358
 20
-28.2066
 11
-37.9716
 21
-28.1818
  0
LINE
  8
0
 10
-37.9716
 20
-28.1818
 11
-37.9064
 21
-28.1603
  0
LINE
  8
0
 10
-37.9064
 20
-28.1603
 11
-37.8402
 21
-28.142
  0
LINE
  8
0
 10
-37.8402
 20
-28.142
 11
-37.7731
 21
-28.1269
  0
LINE
  8
0
 10
-37.7731
 20
-28.1269
 11
-37.7054
 21
-28.1151
  0
LINE
  8
0
 10
-37.7054
 20
-28.1151
 11
-37.6372
 21
-28.1067
  0
LINE
  8
0
 10
-37.6372
 20
-28.1067
 11
-37.5687
 21
-28.1017
  0
LINE
  8
0
 10
-37.5687
 20
-28.1017
 11
-37.5
 21
-28.1
  0
LINE
  8
0
 10
-37.5
 20
-28.1
 11
-37.4313
 21
-28.1017
  0
LINE
  8
0
 10
-37.4313
 20
-28.1017
 11
-37.3628
 21
-28.1067
  0
LINE
  8
0
 10
-37.3628
 20
-28.1067
 11
-37.2946
 21
-28.1151
  0
LINE
  8
0
 10
-37.2946
 20
-28.1151
 11
-37.2269
 21
-28.1269
  0
LINE
  8
0
 10
-37.2269
 20
-28.1269
 11
-37.1598
 21
-28.142
  0
LINE
  8
0
 10
-37.1598
 20
-28.142
 11
-37.0936
 21
-28.1603
  0
LINE
  8
0
 10
-37.0936
 20
-28.1603
 11
-37.0284
 21
-28.1818
  0
LINE
  8
0
 10
-37.0284
 20
-28.1818
 11
-36.9642
 21
-28.2066
  0
LINE
  8
0
 10
-36.9642
 20
-28.2066
 11
-36.9014
 21
-28.2344
  0
LINE
  8
0
 10
-36.9014
 20
-28.2344
 11
-36.84
 21
-28.2653
  0
LINE
  8
0
 10
-36.84
 20
-28.2653
 11
-36.7802
 21
-28.2992
  0
LINE
  8
0
 10
-36.7802
 20
-28.2992
 11
-36.7222
 21
-28.3359
  0
LINE
  8
0
 10
-36.7222
 20
-28.3359
 11
-36.666
 21
-28.3755
  0
LINE
  8
0
 10
-36.666
 20
-28.3755
 11
-36.6118
 21
-28.4178
  0
LINE
  8
0
 10
-36.6118
 20
-28.4178
 11
-36.5598
 21
-28.4627
  0
LINE
  8
0
 10
-36.5598
 20
-28.4627
 11
-36.51
 21
-28.51
  0
LINE
  8
0
 10
-36.51
 20
-28.51
 11
-36.4627
 21
-28.5598
  0
LINE
  8
0
 10
-36.4627
 20
-28.5598
 11
-36.4178
 21
-28.6118
  0
LINE
  8
0
 10
-36.4178
 20
-28.6118
 11
-36.3755
 21
-28.666
  0
LINE
  8
0
 10
-36.3755
 20
-28.666
 11
-36.3359
 21
-28.7222
  0
LINE
  8
0
 10
-36.3359
 20
-28.7222
 11
-36.2992
 21
-28.7802
  0
LINE
  8
0
 10
-36.2992
 20
-28.7802
 11
-36.2653
 21
-28.84
  0
LINE
  8
0
 10
-36.2653
 20
-28.84
 11
-36.2344
 21
-28.9014
  0
LINE
  8
0
 10
-36.2344
 20
-28.9014
 11
-36.2066
 21
-28.9642
  0
LINE
  8
0
 10
-36.2066
 20
-28.9642
 11
-36.1818
 21
-29.0284
  0
LINE
  8
0
 10
-36.1818
 20
-29.0284
 11
-36.1603
 21
-29.0936
  0
LINE
  8
0
 10
-36.1603
 20
-29.0936
 11
-36.142
 21
-29.1598
  0
LINE
  8
0
 10
-36.142
 20
-29.1598
 11
-36.1269
 21
-29.2269
  0
LINE
  8
0
 10
-36.1269
 20
-29.2269
 11
-36.1151
 21
-29.2946
  0
LINE
  8
0
 10
-36.1151
 20
-29.2946
 11
-36.1067
 21
-29.3628
  0
LINE
  8
0
 10
-36.1067
 20
-29.3628
 11
-36.1017
 21
-29.4313
  0
LINE
  8
0
 10
-36.1017
 20
-29.4313
 11
-36.1
 21
-29.5
  0
LINE
  8
0
 10
-36.1
 20
-29.5
 11
-36.1017
 21
-29.5687
  0
LINE
  8
0
 10
-36.1017
 20
-29.5687
 11
-36.1067
 21
-29.6372
  0
LINE
  8
0
 10
-36.1067
 20
-29.6372
 11
-36.1151
 21
-29.7054
  0
LINE
  8
0
 10
-36.1151
 20
-29.7054
 11
-36.1269
 21
-29.7731
  0
LINE
  8
0
 10
-36.1269
 20
-29.7731
 11
-36.142
 21
-29.8402
  0
LINE
  8
0
 10
-36.142
 20
-29.8402
 11
-36.1603
 21
-29.9064
  0
LINE
  8
0
 10
-36.1603
 20
-29.9064
 11
-36.1818
 21
-29.9716
  0
LINE
  8
0
 10
-36.1818
 20
-29.9716
 11
-36.2066
 21
-30.0358
  0
LINE
  8
0
 10
-36.2066
 20
-30.0358
 11
-36.2344
 21
-30.0986
  0
LINE
  8
0
 10
-36.2344
 20
-30.0986
 11
-36.2653
 21
-30.1599
  0
LINE
  8
0
 10
-36.2653
 20
-30.1599
 11
-36.2992
 21
-30.2197
  0
LINE
  8
0
 10
-36.2992
 20
-30.2197
 11
-36.3359
 21
-30.2778
  0
LINE
  8
0
 10
-36.3359
 20
-30.2778
 11
-36.3755
 21
-30.334
  0
LINE
  8
0
 10
-36.3755
 20
-30.334
 11
-36.4178
 21
-30.3881
  0
LINE
  8
0
 10
-36.4178
 20
-30.3881
 11
-36.4627
 21
-30.4402
  0
LINE
  8
0
 10
-36.4627
 20
-30.4402
 11
-36.51
 21
-30.4899
  0
LINE
  8
0
 10
-36.51
 20
-30.4899
 11
-36.5598
 21
-30.5373
  0
LINE
  8
0
 10
-36.5598
 20
-30.5373
 11
-36.6118
 21
-30.5822
  0
LINE
  8
0
 10
-36.6118
 20
-30.5822
 11
-36.666
 21
-30.6245
  0
LINE
  8
0
 10
-36.666
 20
-30.6245
 11
-36.7222
 21
-30.664
  0
LINE
  8
0
 10
-36.7222
 20
-30.664
 11
-36.7802
 21
-30.7008
  0
LINE
  8
0
 10
-36.7802
 20
-30.7008
 11
-36.84
 21
-30.7347
  0
LINE
  8
0
 10
-36.84
 20
-30.7347
 11
-36.9014
 21
-30.7656
  0
LINE
  8
0
 10
-36.9014
 20
-30.7656
 11
-36.9642
 21
-30.7934
  0
LINE
  8
0
 10
-36.9642
 20
-30.7934
 11
-37.0284
 21
-30.8182
  0
LINE
  8
0
 10
-37.0284
 20
-30.8182
 11
-37.0936
 21
-30.8397
  0
LINE
  8
0
 10
-37.0936
 20
-30.8397
 11
-37.1598
 21
-30.858
  0
LINE
  8
0
 10
-37.1598
 20
-30.858
 11
-37.2269
 21
-30.8731
  0
LINE
  8
0
 10
-37.2269
 20
-30.8731
 11
-37.2946
 21
-30.8848
  0
LINE
  8
0
 10
-37.2946
 20
-30.8848
 11
-37.3628
 21
-30.8932
  0
LINE
  8
0
 10
-37.3628
 20
-30.8932
 11
-37.4313
 21
-30.8983
  0
LINE
  8
0
 10
-37.4313
 20
-30.8983
 11
-37.5
 21
-30.9
  0
LINE
  8
0
 10
-37.5
 20
-30.9
 11
-37.5687
 21
-30.8983
  0
LINE
  8
0
 10
37.4313
 20
-30.8983
 11
37.3628
 21
-30.8932
  0
LINE
  8
0
 10
37.3628
 20
-30.8932
 11
37.2946
 21
-30.8848
  0
LINE
  8
0
 10
37.2946
 20
-30.8848
 11
37.2269
 21
-30.8731
  0
LINE
  8
0
 10
37.2269
 20
-30.8731
 11
37.1598
 21
-30.858
  0
LINE
  8
0
 10
37.1598
 20
-30.858
 11
37.0936
 21
-30.8397
  0
LINE
  8
0
 10
37.0936
 20
-30.8397
 11
37.0284
 21
-30.8182
  0
LINE
  8
0
 10
37.0284
 20
-30.8182
 11
36.9642
 21
-30.7934
  0
LINE
  8
0
 10
36.9642
 20
-30.7934
 11
36.9014
 21
-30.7656
  0
LINE
  8
0
 10
36.9014
 20
-30.7656
 11
36.84
 21
-30.7347
  0
LINE
  8
0
 10
36.84
 20
-30.7347
 11
36.7802
 21
-30.7008
  0
LINE
  8
0
 10
36.7802
 20
-30.7008
 11
36.7222
 21
-30.664
  0
LINE
  8
0
 10
36.7222
 20
-30.664
 11
36.666
 21
-30.6245
  0
LINE
  8
0
 10
36.666
 20
-30.6245
 11
36.6118
 21
-30.5822
  0
LINE
  8
0
 10
36.6118
 20
-30.5822
 11
36.5598
 21
-30.5373
  0
LINE
  8
0
 10
36.5598
 20
-30.5373
 11
36.51
 21
-30.4899
  0
LINE
  8
0
 10
36.51
 20
-30.4899
 11
36.4627
 21
-30.4402
  0
LINE
  8
0
 10
36.4627
 20
-30.4402
 11
36.4178
 21
-30.3881
  0
LINE
  8
0
 10
36.4178
 20
-30.3881
 11
36.3755
 21
-30.334
  0
LINE
  8
0
 10
36.3755
 20
-30.334
 11
36.3359
 21
-30.2778
  0
LINE
  8
0
 10
36.3359
 20
-30.2778
 11
36.2992
 21
-30.2197
  0
LINE
  8
0
 10
36.2992
 20
-30.2197
 11
36.2653
 21
-30.1599
  0
LINE
  8
0
 10
36.2653
 20
-30.1599
 11
36.2344
 21
-30.0986
  0
LINE
  8
0
 10
36.2344
 20
-30.0986
 11
36.2066
 21
-30.0358
  0
LINE
  8
0
 10
36.2066
 20
-30.0358
 11
36.1818
 21
-29.9716
  0
LINE
  8
0
 10
36.1818
 20
-29.9716
 11
36.1603
 21
-29.9064
  0
LINE
  8
0
 10
36.1603
 20
-29.9064
 11
36.142
 21
-29.8402
  0
LINE
  8
0
 10
36.142
 20
-29.8402
 11
36.1269
 21
-29.7731
  0
LINE
  8
0
 10
36.1269
 20
-29.7731
 11
36.1151
 21
-29.7054
  0
LINE
  8
0
 10
36.1151
 20
-29.7054
 11
36.1067
 21
-29.6372
  0
LINE
  8
0
 10
36.1067
 20
-29.6372
 11
36.1017
 21
-29.5687
  0
LINE
  8
0
 10
36.1017
 20
-29.5687
 11
36.1
 21
-29.5
  0
LINE
  8
0
 10
36.1
 20
-29.5
 11
36.1017
 21
-29.4313
  0
LINE
  8
0
 10
36.1017
 20
-29.4313
 11
36.1067
 21
-29.3628
  0
LINE
  8
0
 10
36.1067
 20
-29.3628
 11
36.1151
 21
-29.2946
  0
LINE
  8
0
 10
36.1151
 20
-29.2946
 11
36.1269
 21
-29.2269
  0
LINE
  8
0
 10
36.1269
 20
-29.2269
 11
36.142
 21
-29.1598
  0
LINE
  8
0
 10
36.142
 20
-29.1598
 11
36.1603
 21
-29.0936
  0
LINE
  8
0
 10
36.1603
 20
-29.0936
 11
36.1818
 21
-29.0284
  0
LINE
  8
0
 10
36.1818
 20
-29.0284
 11
36.2066
 21
-28.9642
  0
LINE
  8
0
 10
36.2066
 20
-28.9642
 11
36.2344
 21
-28.9014
  0
LINE
  8
0
 10
36.2344
 20
-28.9014
 11
36.2653
 21
-28.84
  0
LINE
  8
0
 10
36.2653
 20
-28.84
 11
36.2992
 21
-28.7802
  0
LINE
  8
0
 10
36.2992
 20
-28.7802
 11
36.3359
 21
-28.7222
  0
LINE
  8
0
 10
36.3359
 20
-28.7222
 11
36.3755
 21
-28.666
  0
LINE
  8
0
 10
36.3755
 20
-28.666
 11
36.4178
 21
-28.6118
  0
LINE
  8
0
 10
36.4178
 20
-28.6118
 11
36.4627
 21
-28.5598
  0
LINE
  8
0
 10
36.4627
 20
-28.5598
 11
36.51
 21
-28.51
  0
LINE
  8
0
 10
36.51
 20
-28.51
 11
36.5598
 21
-28.4627
  0
LINE
  8
0
 10
36.5598
 20
-28.4627
 11
36.6118
 21
-28.4178
  0
LINE
  8
0
 10
36.6118
 20
-28.4178
 11
36.666
 21
-28.3755
  0
LINE
  8
0
 10
36.666
 20
-28.3755
 11
36.7222
 21
-28.3359
  0
LINE
  8
0
 10
36.7222
 20
-28.3359
 11
36.7802
 21
-28.2992
  0
LINE
  8
0
 10
36.7802
 20
-28.2992
 11
36.84
 21
-28.2653
  0
LINE
  8
0
 10
36.84
 20
-28.2653
 11
36.9014
 21
-28.2344
  0
LINE
  8
0
 10
36.9014
 20
-28.2344
 11
36.9642
 21
-28.2066
  0
LINE
  8
0
 10
36.9642
 20
-28.2066
 11
37.0284
 21
-28.1818
  0
LINE
  8
0
 10
37.0284
 20
-28.1818
 11
37.0936
 21
-28.1603
  0
LINE
  8
0
 10
37.0936
 20
-28.1603
 11
37.1598
 21
-28.142
  0
LINE
  8
0
 10
37.1598
 20
-28.142
 11
37.2269
 21
-28.1269
  0
LINE
  8
0
 10
37.2269
 20
-28.1269
 11
37.2946
 21
-28.1151
  0
LINE
  8
0
 10
37.2946
 20
-28.1151
 11
37.3628
 21
-28.1067
  0
LINE
  8
0
 10
37.3628
 20
-28.1067
 11
37.4313
 21
-28.1017
  0
LINE
  8
0
 10
37.4313
 20
-28.1017
 11
37.5
 21
-28.1
  0
LINE
  8
0
 10
37.5
 20
-28.1
 11
37.5687
 21
-28.1017
  0
LINE
  8
0
 10
37.5687
 20
-28.1017
 11
37.6372
 21
-28.1067
  0
LINE
  8
0
 10
37.6372
 20
-28.1067
 11
37.7054
 21
-28.1151
  0
LINE
  8
0
 10
37.7054
 20
-28.1151
 11
37.7731
 21
-28.1269
  0
LINE
  8
0
 10
37.7731
 20
-28.1269
 11
37.8402
 21
-28.142
  0
LINE
  8
0
 10
37.8402
 20
-28.142
 11
37.9064
 21
-28.1603
  0
LINE
  8
0
 10
37.9064
 20
-28.1603
 11
37.9716
 21
-28.1818
  0
LINE
  8
0
 10
37.9716
 20
-28.1818
 11
38.0358
 21
-28.2066
  0
LINE
  8
0
 10
38.0358
 20
-28.2066
 11
38.0986
 21
-28.2344
  0
LINE
  8
0
 10
38.0986
 20
-28.2344
 11
38.1599
 21
-28.2653
  0
LINE
  8
0
 10
38.1599
 20
-28.2653
 11
38.2197
 21
-28.2992
  0
LINE
  8
0
 10
38.2197
 20
-28.2992
 11
38.2778
 21
-28.3359
  0
LINE
  8
0
 10
38.2778
 20
-28.3359
 11
38.334
 21
-28.3755
  0
LINE
  8
0
 10
38.334
 20
-28.3755
 11
38.3881
 21
-28.4178
  0
LINE
  8
0
 10
38.3881
 20
-28.4178
 11
38.4402
 21
-28.4627
  0
LINE
  8
0
 10
38.4402
 20
-28.4627
 11
38.4899
 21
-28.51
  0
LINE
  8
0
 10
38.4899
 20
-28.51
 11
38.5373
 21
-28.5598
  0
LINE
  8
0
 10
38.5373
 20
-28.5598
 11
38.5822
 21
-28.6118
  0
LINE
  8
0
 10
38.5822
 20
-28.6118
 11
38.6245
 21
-28.666
  0
LINE
  8
0
 10
38.6245
 20
-28.666
 11
38.664
 21
-28.7222
  0
LINE
  8
0
 10
38.664
 20
-28.7222
 11
38.7008
 21
-28.7802
  0
LINE
  8
0
 10
38.7008
 20
-28.7802
 11
38.7347
 21
-28.84
  0
LINE
  8
0
 10
38.7347
 20
-28.84
 11
38.7656
 21
-28.9014
  0
LINE
  8
0
 10
38.7656
 20
-28.9014
 11
38.7934
 21
-28.9642
  0
LINE
  8
0
 10
38.7934
 20
-28.9642
 11
38.8182
 21
-29.0284
  0
LINE
  8
0
 10
38.8182
 20
-29.0284
 11
38.8397
 21
-29.0936
  0
LINE
  8
0
 10
38.8397
 20
-29.0936
 11
38.858
 21
-29.1598
  0
LINE
  8
0
 10
38.858
 20
-29.1598
 11
38.8731
 21
-29.2269
  0
LINE
  8
0
 10
38.8731
 20
-29.2269
 11
38.8848
 21
-29.2946
  0
LINE
  8
0
 10
38.8848
 20
-29.2946
 11
38.8932
 21
-29.3628
  0
LINE
  8
0
 10
38.8932
 20
-29.3628
 11
38.8983
 21
-29.4313
  0
LINE
  8
0
 10
38.8983
 20
-29.4313
 11
38.9
 21
-29.5
  0
LINE
  8
0
 10
38.9
 20
-29.5
 11
38.8983
 21
-29.5687
  0
LINE
  8
0
 10
38.8983
 20
-29.5687
 11
38.8932
 21
-29.6372
  0
LINE
  8
0
 10
38.8932
 20
-29.6372
 11
38.8848
 21
-29.7054
  0
LINE
  8
0
 10
38.8848
 20
-29.7054
 11
38.8731
 21
-29.7731
  0
LINE
  8
0
 10
38.8731
 20
-29.7731
 11
38.858
 21
-29.8402
  0
LINE
  8
0
 10
38.858
 20
-29.8402
 11
38.8397
 21
-29.9064
  0
LINE
  8
0
 10
38.8397
 20
-29.9064
 11
38.8182
 21
-29.9716
  0
LINE
  8
0
 10
38.8182
 20
-29.9716
 11
38.7934
 21
-30.0358
  0
LINE
  8
0
 10
38.7934
 20
-30.0358
 11
38.7656
 21
-30.0986
  0
LINE
  8
0
 10
38.7656
 20
-30.0986
 11
38.7347
 21
-30.1599
  0
LINE
  8
0
 10
38.7347
 20
-30.1599
 11
38.7008
 21
-30.2197
  0
LINE
  8
0
 10
38.7008
 20
-30.2197
 11
38.664
 21
-30.2778
  0
LINE
  8
0
 10
38.664
 20
-30.2778
 11
38.6245
 21
-30.334
  0
LINE
  8
0
 10
38.6245
 20
-30.334
 11
38.5822
 21
-30.3881
  0
LINE
  8
0
 10
38.5822
 20
-30.3881
 11
38.5373
 21
-30.4402
  0
LINE
  8
0
 10
38.5373
 20
-30.4402
 11
38.4899
 21
-30.4899
  0
LINE
  8
0
 10
38.4899
 20
-30.4899
 11
38.4402
 21
-30.5373
  0
LINE
  8
0
 10
38.4402
 20
-30.5373
 11
38.3881
 21
-30.5822
  0
LINE
  8
0
 10
38.3881
 20
-30.5822
 11
38.334
 21
-30.6245
  0
LINE
  8
0
 10
38.334
 20
-30.6245
 11
38.2778
 21
-30.664
  0
LINE
  8
0
 10
38.2778
 20
-30.664
 11
38.2197
 21
-30.7008
  0
LINE
  8
0
 10
38.2197
 20
-30.7008
 11
38.1599
 21
-30.7347
  0
LINE
  8
0
 10
38.1599
 20
-30.7347
 11
38.0986
 21
-30.7656
  0
LINE
  8
0
 10
38.0986
 20
-30.7656
 11
38.0358
 21
-30.7934
  0
LINE
  8
0
 10
38.0358
 20
-30.7934
 11
37.9716
 21
-30.8182
  0
LINE
  8
0
 10
37.9716
 20
-30.8182
 11
37.9064
 21
-30.8397
  0
LINE
  8
0
 10
37.9064
 20
-30.8397
 11
37.8402
 21
-30.858
  0
LINE
  8
0
 10
37.8402
 20
-30.858
 11
37.7731
 21
-30.8731
  0
LINE
  8
0
 10
37.7731
 20
-30.8731
 11
37.7054
 21
-30.8848
  0
LINE
  8
0
 10
37.7054
 20
-30.8848
 11
37.6372
 21
-30.8932
  0
LINE
  8
0
 10
37.6372
 20
-30.8932
 11
37.5687
 21
-30.8983
  0
LINE
  8
0
 10
37.5687
 20
-30.8983
 11
37.5
 21
-30.9
  0
LINE
  8
0
 10
37.5
 20
-30.9
 11
37.4313
 21
-30.8983
  0
ENDSEC
  0
SECTION
  2
OBJECTS
  0
DICTIONARY
  0
ENDSEC
  0
EOF
