  0
SECTION
  2
BLOCKS
  0
ENDSEC
  0
SECTION
  2
ENTITIES
  0
LINE
  8
0
 10
31.4901
 20
-20.9759
 11
31.9754
 21
-20.9039
  0
LINE
  8
0
 10
31.9754
 20
-20.9039
 11
32.4514
 21
-20.7847
  0
LINE
  8
0
 10
32.4514
 20
-20.7847
 11
32.9134
 21
-20.6194
  0
LINE
  8
0
 10
32.9134
 20
-20.6194
 11
33.357
 21
-20.4096
  0
LINE
  8
0
 10
33.357
 20
-20.4096
 11
33.7778
 21
-20.1573
  0
LINE
  8
0
 10
33.7778
 20
-20.1573
 11
34.172
 21
-19.8651
  0
LINE
  8
0
 10
34.172
 20
-19.8651
 11
34.5355
 21
-19.5355
  0
LINE
  8
0
 10
34.5355
 20
-19.5355
 11
34.8651
 21
-19.172
  0
LINE
  8
0
 10
34.8651
 20
-19.172
 11
35.1573
 21
-18.7778
  0
LINE
  8
0
 10
35.1573
 20
-18.7778
 11
35.4096
 21
-18.357
  0
LINE
  8
0
 10
35.4096
 20
-18.357
 11
35.6194
 21
-17.9134
  0
LINE
  8
0
 10
35.6194
 20
-17.9134
 11
35.7847
 21
-17.4514
  0
LINE
  8
0
 10
35.7847
 20
-17.4514
 11
35.9039
 21
-16.9754
  0
LINE
  8
0
 10
35.9039
 20
-16.9754
 11
35.9759
 21
-16.4901
  0
LINE
  8
0
 10
35.9759
 20
-16.4901
 11
36
 21
-16
  0
LINE
  8
0
 10
36
 20
-16
 11
36
 21
16
  0
LINE
  8
0
 10
36
 20
16
 11
35.9759
 21
16.4901
  0
LINE
  8
0
 10
35.9759
 20
16.4901
 11
35.9039
 21
16.9754
  0
LINE
  8
0
 10
35.9039
 20
16.9754
 11
35.7847
 21
17.4514
  0
LINE
  8
0
 10
35.7847
 20
17.4514
 11
35.6194
 21
17.9134
  0
LINE
  8
0
 10
35.6194
 20
17.9134
 11
35.4096
 21
18.357
  0
LINE
  8
0
 10
35.4096
 20
18.357
 11
35.1573
 21
18.7778
  0
LINE
  8
0
 10
35.1573
 20
18.7778
 11
34.8651
 21
19.172
  0
LINE
  8
0
 10
34.8651
 20
19.172
 11
34.5355
 21
19.5355
  0
LINE
  8
0
 10
34.5355
 20
19.5355
 11
34.172
 21
19.8651
  0
LINE
  8
0
 10
34.172
 20
19.8651
 11
33.7778
 21
20.1573
  0
LINE
  8
0
 10
33.7778
 20
20.1573
 11
33.357
 21
20.4096
  0
LINE
  8
0
 10
33.357
 20
20.4096
 11
32.9134
 21
20.6194
  0
LINE
  8
0
 10
32.9134
 20
20.6194
 11
32.4514
 21
20.7847
  0
LINE
  8
0
 10
32.4514
 20
20.7847
 11
31.9754
 21
20.9039
  0
LINE
  8
0
 10
31.9754
 20
20.9039
 11
31.4901
 21
20.9759
  0
LINE
  8
0
 10
31.4901
 20
20.9759
 11
31
 21
21
  0
LINE
  8
0
 10
31
 20
21
 11
-31
 21
21
  0
LINE
  8
0
 10
-31
 20
21
 11
-31.4901
 21
20.9759
  0
LINE
  8
0
 10
-31.4901
 20
20.9759
 11
-31.9754
 21
20.9039
  0
LINE
  8
0
 10
-31.9754
 20
20.9039
 11
-32.4514
 21
20.7847
  0
LINE
  8
0
 10
-32.4514
 20
20.7847
 11
-32.9134
 21
20.6194
  0
LINE
  8
0
 10
-32.9134
 20
20.6194
 11
-33.357
 21
20.4096
  0
LINE
  8
0
 10
-33.357
 20
20.4096
 11
-33.7778
 21
20.1573
  0
LINE
  8
0
 10
-33.7778
 20
20.1573
 11
-34.172
 21
19.8651
  0
LINE
  8
0
 10
-34.172
 20
19.8651
 11
-34.5355
 21
19.5355
  0
LINE
  8
0
 10
-34.5355
 20
19.5355
 11
-34.8651
 21
19.172
  0
LINE
  8
0
 10
-34.8651
 20
19.172
 11
-35.1573
 21
18.7778
  0
LINE
  8
0
 10
-35.1573
 20
18.7778
 11
-35.4096
 21
18.357
  0
LINE
  8
0
 10
-35.4096
 20
18.357
 11
-35.6194
 21
17.9134
  0
LINE
  8
0
 10
-35.6194
 20
17.9134
 11
-35.7847
 21
17.4514
  0
LINE
  8
0
 10
-35.7847
 20
17.4514
 11
-35.9039
 21
16.9754
  0
LINE
  8
0
 10
-35.9039
 20
16.9754
 11
-35.9759
 21
16.4901
  0
LINE
  8
0
 10
-35.9759
 20
16.4901
 11
-36
 21
16
  0
LINE
  8
0
 10
-36
 20
16
 11
-36
 21
-16
  0
LINE
  8
0
 10
-36
 20
-16
 11
-35.9759
 21
-16.4901
  0
LINE
  8
0
 10
-35.9759
 20
-16.4901
 11
-35.9039
 21
-16.9754
  0
LINE
  8
0
 10
-35.9039
 20
-16.9754
 11
-35.7847
 21
-17.4514
  0
LINE
  8
0
 10
-35.7847
 20
-17.4514
 11
-35.6194
 21
-17.9134
  0
LINE
  8
0
 10
-35.6194
 20
-17.9134
 11
-35.4096
 21
-18.357
  0
LINE
  8
0
 10
-35.4096
 20
-18.357
 11
-35.1573
 21
-18.7778
  0
LINE
  8
0
 10
-35.1573
 20
-18.7778
 11
-34.8651
 21
-19.172
  0
LINE
  8
0
 10
-34.8651
 20
-19.172
 11
-34.5355
 21
-19.5355
  0
LINE
  8
0
 10
-34.5355
 20
-19.5355
 11
-34.172
 21
-19.8651
  0
LINE
  8
0
 10
-34.172
 20
-19.8651
 11
-33.7778
 21
-20.1573
  0
LINE
  8
0
 10
-33.7778
 20
-20.1573
 11
-33.357
 21
-20.4096
  0
LINE
  8
0
 10
-33.357
 20
-20.4096
 11
-32.9134
 21
-20.6194
  0
LINE
  8
0
 10
-32.9134
 20
-20.6194
 11
-32.4514
 21
-20.7847
  0
LINE
  8
0
 10
-32.4514
 20
-20.7847
 11
-31.9754
 21
-20.9039
  0
LINE
  8
0
 10
-31.9754
 20
-20.9039
 11
-31.4901
 21
-20.9759
  0
LINE
  8
0
 10
-31.4901
 20
-20.9759
 11
-31
 21
-21
  0
LINE
  8
0
 10
-31
 20
-21
 11
31
 21
-21
  0
LINE
  8
0
 10
31
 20
-21
 11
31.4901
 21
-20.9759
  0
LINE
  8
0
 10
-33.6372
 20
16.6067
 11
-33.7731
 21
16.6269
  0
LINE
  8
0
 10
-33.7731
 20
16.6269
 11
-33.9064
 21
16.6603
  0
LINE
  8
0
 10
-33.9064
 20
16.6603
 11
-34.0358
 21
16.7066
  0
LINE
  8
0
 10
-34.0358
 20
16.7066
 11
-34.1599
 21
16.7653
  0
LINE
  8
0
 10
-34.1599
 20
16.7653
 11
-34.2778
 21
16.8359
  0
LINE
  8
0
 10
-34.2778
 20
16.8359
 11
-34.3881
 21
16.9178
  0
LINE
  8
0
 10
-34.3881
 20
16.9178
 11
-34.4899
 21
17.01
  0
LINE
  8
0
 10
-34.4899
 20
17.01
 11
-34.5822
 21
17.1118
  0
LINE
  8
0
 10
-34.5822
 20
17.1118
 11
-34.664
 21
17.2222
  0
LINE
  8
0
 10
-34.664
 20
17.2222
 11
-34.7347
 21
17.34
  0
LINE
  8
0
 10
-34.7347
 20
17.34
 11
-34.7934
 21
17.4642
  0
LINE
  8
0
 10
-34.7934
 20
17.4642
 11
-34.8397
 21
17.5936
  0
LINE
  8
0
 10
-34.8397
 20
17.5936
 11
-34.8731
 21
17.7269
  0
LINE
  8
0
 10
-34.8731
 20
17.7269
 11
-34.8932
 21
17.8628
  0
LINE
  8
0
 10
-34.8932
 20
17.8628
 11
-34.9
 21
18
  0
LINE
  8
0
 10
-34.9
 20
18
 11
-34.8932
 21
18.1372
  0
LINE
  8
0
 10
-34.8932
 20
18.1372
 11
-34.8731
 21
18.2731
  0
LINE
  8
0
 10
-34.8731
 20
18.2731
 11
-34.8397
 21
18.4064
  0
LINE
  8
0
 10
-34.8397
 20
18.4064
 11
-34.7934
 21
18.5358
  0
LINE
  8
0
 10
-34.7934
 20
18.5358
 11
-34.7347
 21
18.6599
  0
LINE
  8
0
 10
-34.7347
 20
18.6599
 11
-34.664
 21
18.7778
  0
LINE
  8
0
 10
-34.664
 20
18.7778
 11
-34.5822
 21
18.8881
  0
LINE
  8
0
 10
-34.5822
 20
18.8881
 11
-34.4899
 21
18.9899
  0
LINE
  8
0
 10
-34.4899
 20
18.9899
 11
-34.3881
 21
19.0822
  0
LINE
  8
0
 10
-34.3881
 20
19.0822
 11
-34.2778
 21
19.164
  0
LINE
  8
0
 10
-34.2778
 20
19.164
 11
-34.1599
 21
19.2347
  0
LINE
  8
0
 10
-34.1599
 20
19.2347
 11
-34.0358
 21
19.2934
  0
LINE
  8
0
 10
-34.0358
 20
19.2934
 11
-33.9064
 21
19.3397
  0
LINE
  8
0
 10
-33.9064
 20
19.3397
 11
-33.7731
 21
19.3731
  0
LINE
  8
0
 10
-33.7731
 20
19.3731
 11
-33.6372
 21
19.3932
  0
LINE
  8
0
 10
-33.6372
 20
19.3932
 11
-33.5
 21
19.4
  0
LINE
  8
0
 10
-33.5
 20
19.4
 11
-33.3628
 21
19.3932
  0
LINE
  8
0
 10
-33.3628
 20
19.3932
 11
-33.2269
 21
19.3731
  0
LINE
  8
0
 10
-33.2269
 20
19.3731
 11
-33.0936
 21
19.3397
  0
LINE
  8
0
 10
-33.0936
 20
19.3397
 11
-32.9642
 21
19.2934
  0
LINE
  8
0
 10
-32.9642
 20
19.2934
 11
-32.84
 21
19.2347
  0
LINE
  8
0
 10
-32.84
 20
19.2347
 11
-32.7222
 21
19.164
  0
LINE
  8
0
 10
-32.7222
 20
19.164
 11
-32.6118
 21
19.0822
  0
LINE
  8
0
 10
-32.6118
 20
19.0822
 11
-32.51
 21
18.9899
  0
LINE
  8
0
 10
-32.51
 20
18.9899
 11
-32.4178
 21
18.8881
  0
LINE
  8
0
 10
-32.4178
 20
18.8881
 11
-32.3359
 21
18.7778
  0
LINE
  8
0
 10
-32.3359
 20
18.7778
 11
-32.2653
 21
18.6599
  0
LINE
  8
0
 10
-32.2653
 20
18.6599
 11
-32.2066
 21
18.5358
  0
LINE
  8
0
 10
-32.2066
 20
18.5358
 11
-32.1603
 21
18.4064
  0
LINE
  8
0
 10
-32.1603
 20
18.4064
 11
-32.1269
 21
18.2731
  0
LINE
  8
0
 10
-32.1269
 20
18.2731
 11
-32.1067
 21
18.1372
  0
LINE
  8
0
 10
-32.1067
 20
18.1372
 11
-32.1
 21
18
  0
LINE
  8
0
 10
-32.1
 20
18
 11
-32.1067
 21
17.8628
  0
LINE
  8
0
 10
-32.1067
 20
17.8628
 11
-32.1269
 21
17.7269
  0
LINE
  8
0
 10
-32.1269
 20
17.7269
 11
-32.1603
 21
17.5936
  0
LINE
  8
0
 10
-32.1603
 20
17.5936
 11
-32.2066
 21
17.4642
  0
LINE
  8
0
 10
-32.2066
 20
17.4642
 11
-32.2653
 21
17.34
  0
LINE
  8
0
 10
-32.2653
 20
17.34
 11
-32.3359
 21
17.2222
  0
LINE
  8
0
 10
-32.3359
 20
17.2222
 11
-32.4178
 21
17.1118
  0
LINE
  8
0
 10
-32.4178
 20
17.1118
 11
-32.51
 21
17.01
  0
LINE
  8
0
 10
-32.51
 20
17.01
 11
-32.6118
 21
16.9178
  0
LINE
  8
0
 10
-32.6118
 20
16.9178
 11
-32.7222
 21
16.8359
  0
LINE
  8
0
 10
-32.7222
 20
16.8359
 11
-32.84
 21
16.7653
  0
LINE
  8
0
 10
-32.84
 20
16.7653
 11
-32.9642
 21
16.7066
  0
LINE
  8
0
 10
-32.9642
 20
16.7066
 11
-33.0936
 21
16.6603
  0
LINE
  8
0
 10
-33.0936
 20
16.6603
 11
-33.2269
 21
16.6269
  0
LINE
  8
0
 10
-33.2269
 20
16.6269
 11
-33.3628
 21
16.6067
  0
LINE
  8
0
 10
-33.3628
 20
16.6067
 11
-33.5
 21
16.6
  0
LINE
  8
0
 10
-33.5
 20
16.6
 11
-33.6372
 21
16.6067
  0
LINE
  8
0
 10
33.3628
 20
16.6067
 11
33.2269
 21
16.6269
  0
LINE
  8
0
 10
33.2269
 20
16.6269
 11
33.0936
 21
16.6603
  0
LINE
  8
0
 10
33.0936
 20
16.6603
 11
32.9642
 21
16.7066
  0
LINE
  8
0
 10
32.9642
 20
16.7066
 11
32.84
 21
16.7653
  0
LINE
  8
0
 10
32.84
 20
16.7653
 11
32.7222
 21
16.8359
  0
LINE
  8
0
 10
32.7222
 20
16.8359
 11
32.6118
 21
16.9178
  0
LINE
  8
0
 10
32.6118
 20
16.9178
 11
32.51
 21
17.01
  0
LINE
  8
0
 10
32.51
 20
17.01
 11
32.4178
 21
17.1118
  0
LINE
  8
0
 10
32.4178
 20
17.1118
 11
32.3359
 21
17.2222
  0
LINE
  8
0
 10
32.3359
 20
17.2222
 11
32.2653
 21
17.34
  0
LINE
  8
0
 10
32.2653
 20
17.34
 11
32.2066
 21
17.4642
  0
LINE
  8
0
 10
32.2066
 20
17.4642
 11
32.1603
 21
17.5936
  0
LINE
  8
0
 10
32.1603
 20
17.5936
 11
32.1269
 21
17.7269
  0
LINE
  8
0
 10
32.1269
 20
17.7269
 11
32.1067
 21
17.8628
  0
LINE
  8
0
 10
32.1067
 20
17.8628
 11
32.1
 21
18
  0
LINE
  8
0
 10
32.1
 20
18
 11
32.1067
 21
18.1372
  0
LINE
  8
0
 10
32.1067
 20
18.1372
 11
32.1269
 21
18.2731
  0
LINE
  8
0
 10
32.1269
 20
18.2731
 11
32.1603
 21
18.4064
  0
LINE
  8
0
 10
32.1603
 20
18.4064
 11
32.2066
 21
18.5358
  0
LINE
  8
0
 10
32.2066
 20
18.5358
 11
32.2653
 21
18.6599
  0
LINE
  8
0
 10
32.2653
 20
18.6599
 11
32.3359
 21
18.7778
  0
LINE
  8
0
 10
32.3359
 20
18.7778
 11
32.4178
 21
18.8881
  0
LINE
  8
0
 10
32.4178
 20
18.8881
 11
32.51
 21
18.9899
  0
LINE
  8
0
 10
32.51
 20
18.9899
 11
32.6118
 21
19.0822
  0
LINE
  8
0
 10
32.6118
 20
19.0822
 11
32.7222
 21
19.164
  0
LINE
  8
0
 10
32.7222
 20
19.164
 11
32.84
 21
19.2347
  0
LINE
  8
0
 10
32.84
 20
19.2347
 11
32.9642
 21
19.2934
  0
LINE
  8
0
 10
32.9642
 20
19.2934
 11
33.0936
 21
19.3397
  0
LINE
  8
0
 10
33.0936
 20
19.3397
 11
33.2269
 21
19.3731
  0
LINE
  8
0
 10
33.2269
 20
19.3731
 11
33.3628
 21
19.3932
  0
LINE
  8
0
 10
33.3628
 20
19.3932
 11
33.5
 21
19.4
  0
LINE
  8
0
 10
33.5
 20
19.4
 11
33.6372
 21
19.3932
  0
LINE
  8
0
 10
33.6372
 20
19.3932
 11
33.7731
 21
19.3731
  0
LINE
  8
0
 10
33.7731
 20
19.3731
 11
33.9064
 21
19.3397
  0
LINE
  8
0
 10
33.9064
 20
19.3397
 11
34.0358
 21
19.2934
  0
LINE
  8
0
 10
34.0358
 20
19.2934
 11
34.1599
 21
19.2347
  0
LINE
  8
0
 10
34.1599
 20
19.2347
 11
34.2778
 21
19.164
  0
LINE
  8
0
 10
34.2778
 20
19.164
 11
34.3881
 21
19.0822
  0
LINE
  8
0
 10
34.3881
 20
19.0822
 11
34.4899
 21
18.9899
  0
LINE
  8
0
 10
34.4899
 20
18.9899
 11
34.5822
 21
18.8881
  0
LINE
  8
0
 10
34.5822
 20
18.8881
 11
34.664
 21
18.7778
  0
LINE
  8
0
 10
34.664
 20
18.7778
 11
34.7347
 21
18.6599
  0
LINE
  8
0
 10
34.7347
 20
18.6599
 11
34.7934
 21
18.5358
  0
LINE
  8
0
 10
34.7934
 20
18.5358
 11
34.8397
 21
18.4064
  0
LINE
  8
0
 10
34.8397
 20
18.4064
 11
34.8731
 21
18.2731
  0
LINE
  8
0
 10
34.8731
 20
18.2731
 11
34.8932
 21
18.1372
  0
LINE
  8
0
 10
34.8932
 20
18.1372
 11
34.9
 21
18
  0
LINE
  8
0
 10
34.9
 20
18
 11
34.8932
 21
17.8628
  0
LINE
  8
0
 10
34.8932
 20
17.8628
 11
34.8731
 21
17.7269
  0
LINE
  8
0
 10
34.8731
 20
17.7269
 11
34.8397
 21
17.5936
  0
LINE
  8
0
 10
34.8397
 20
17.5936
 11
34.7934
 21
17.4642
  0
LINE
  8
0
 10
34.7934
 20
17.4642
 11
34.7347
 21
17.34
  0
LINE
  8
0
 10
34.7347
 20
17.34
 11
34.664
 21
17.2222
  0
LINE
  8
0
 10
34.664
 20
17.2222
 11
34.5822
 21
17.1118
  0
LINE
  8
0
 10
34.5822
 20
17.1118
 11
34.4899
 21
17.01
  0
LINE
  8
0
 10
34.4899
 20
17.01
 11
34.3881
 21
16.9178
  0
LINE
  8
0
 10
34.3881
 20
16.9178
 11
34.2778
 21
16.8359
  0
LINE
  8
0
 10
34.2778
 20
16.8359
 11
34.1599
 21
16.7653
  0
LINE
  8
0
 10
34.1599
 20
16.7653
 11
34.0358
 21
16.7066
  0
LINE
  8
0
 10
34.0358
 20
16.7066
 11
33.9064
 21
16.6603
  0
LINE
  8
0
 10
33.9064
 20
16.6603
 11
33.7731
 21
16.6269
  0
LINE
  8
0
 10
33.7731
 20
16.6269
 11
33.6372
 21
16.6067
  0
LINE
  8
0
 10
33.6372
 20
16.6067
 11
33.5
 21
16.6
  0
LINE
  8
0
 10
33.5
 20
16.6
 11
33.3628
 21
16.6067
  0
LINE
  8
0
 10
-26
 20
-18
 11
-26
 21
-2
  0
LINE
  8
0
 10
-26
 20
-2
 11
26
 21
-2
  0
LINE
  8
0
 10
26
 20
-2
 11
26
 21
-18
  0
LINE
  8
0
 10
26
 20
-18
 11
-26
 21
-18
  0
LINE
  8
0
 10
-33.6372
 20
-19.3932
 11
-33.7731
 21
-19.3731
  0
LINE
  8
0
 10
-33.7731
 20
-19.3731
 11
-33.9064
 21
-19.3397
  0
LINE
  8
0
 10
-33.9064
 20
-19.3397
 11
-34.0358
 21
-19.2934
  0
LINE
  8
0
 10
-34.0358
 20
-19.2934
 11
-34.1599
 21
-19.2347
  0
LINE
  8
0
 10
-34.1599
 20
-19.2347
 11
-34.2778
 21
-19.164
  0
LINE
  8
0
 10
-34.2778
 20
-19.164
 11
-34.3881
 21
-19.0822
  0
LINE
  8
0
 10
-34.3881
 20
-19.0822
 11
-34.4899
 21
-18.9899
  0
LINE
  8
0
 10
-34.4899
 20
-18.9899
 11
-34.5822
 21
-18.8881
  0
LINE
  8
0
 10
-34.5822
 20
-18.8881
 11
-34.664
 21
-18.7778
  0
LINE
  8
0
 10
-34.664
 20
-18.7778
 11
-34.7347
 21
-18.6599
  0
LINE
  8
0
 10
-34.7347
 20
-18.6599
 11
-34.7934
 21
-18.5358
  0
LINE
  8
0
 10
-34.7934
 20
-18.5358
 11
-34.8397
 21
-18.4064
  0
LINE
  8
0
 10
-34.8397
 20
-18.4064
 11
-34.8731
 21
-18.2731
  0
LINE
  8
0
 10
-34.8731
 20
-18.2731
 11
-34.8932
 21
-18.1372
  0
LINE
  8
0
 10
-34.8932
 20
-18.1372
 11
-34.9
 21
-18
  0
LINE
  8
0
 10
-34.9
 20
-18
 11
-34.8932
 21
-17.8628
  0
LINE
  8
0
 10
-34.8932
 20
-17.8628
 11
-34.8731
 21
-17.7269
  0
LINE
  8
0
 10
-34.8731
 20
-17.7269
 11
-34.8397
 21
-17.5936
  0
LINE
  8
0
 10
-34.8397
 20
-17.5936
 11
-34.7934
 21
-17.4642
  0
LINE
  8
0
 10
-34.7934
 20
-17.4642
 11
-34.7347
 21
-17.34
  0
LINE
  8
0
 10
-34.7347
 20
-17.34
 11
-34.664
 21
-17.2222
  0
LINE
  8
0
 10
-34.664
 20
-17.2222
 11
-34.5822
 21
-17.1118
  0
LINE
  8
0
 10
-34.5822
 20
-17.1118
 11
-34.4899
 21
-17.01
  0
LINE
  8
0
 10
-34.4899
 20
-17.01
 11
-34.3881
 21
-16.9178
  0
LINE
  8
0
 10
-34.3881
 20
-16.9178
 11
-34.2778
 21
-16.8359
  0
LINE
  8
0
 10
-34.2778
 20
-16.8359
 11
-34.1599
 21
-16.7653
  0
LINE
  8
0
 10
-34.1599
 20
-16.7653
 11
-34.0358
 21
-16.7066
  0
LINE
  8
0
 10
-34.0358
 20
-16.7066
 11
-33.9064
 21
-16.6603
  0
LINE
  8
0
 10
-33.9064
 20
-16.6603
 11
-33.7731
 21
-16.6269
  0
LINE
  8
0
 10
-33.7731
 20
-16.6269
 11
-33.6372
 21
-16.6067
  0
LINE
  8
0
 10
-33.6372
 20
-16.6067
 11
-33.5
 21
-16.6
  0
LINE
  8
0
 10
-33.5
 20
-16.6
 11
-33.3628
 21
-16.6067
  0
LINE
  8
0
 10
-33.3628
 20
-16.6067
 11
-33.2269
 21
-16.6269
  0
LINE
  8
0
 10
-33.2269
 20
-16.6269
 11
-33.0936
 21
-16.6603
  0
LINE
  8
0
 10
-33.0936
 20
-16.6603
 11
-32.9642
 21
-16.7066
  0
LINE
  8
0
 10
-32.9642
 20
-16.7066
 11
-32.84
 21
-16.7653
  0
LINE
  8
0
 10
-32.84
 20
-16.7653
 11
-32.7222
 21
-16.8359
  0
LINE
  8
0
 10
-32.7222
 20
-16.8359
 11
-32.6118
 21
-16.9178
  0
LINE
  8
0
 10
-32.6118
 20
-16.9178
 11
-32.51
 21
-17.01
  0
LINE
  8
0
 10
-32.51
 20
-17.01
 11
-32.4178
 21
-17.1118
  0
LINE
  8
0
 10
-32.4178
 20
-17.1118
 11
-32.3359
 21
-17.2222
  0
LINE
  8
0
 10
-32.3359
 20
-17.2222
 11
-32.2653
 21
-17.34
  0
LINE
  8
0
 10
-32.2653
 20
-17.34
 11
-32.2066
 21
-17.4642
  0
LINE
  8
0
 10
-32.2066
 20
-17.4642
 11
-32.1603
 21
-17.5936
  0
LINE
  8
0
 10
-32.1603
 20
-17.5936
 11
-32.1269
 21
-17.7269
  0
LINE
  8
0
 10
-32.1269
 20
-17.7269
 11
-32.1067
 21
-17.8628
  0
LINE
  8
0
 10
-32.1067
 20
-17.8628
 11
-32.1
 21
-18
  0
LINE
  8
0
 10
-32.1
 20
-18
 11
-32.1067
 21
-18.1372
  0
LINE
  8
0
 10
-32.1067
 20
-18.1372
 11
-32.1269
 21
-18.2731
  0
LINE
  8
0
 10
-32.1269
 20
-18.2731
 11
-32.1603
 21
-18.4064
  0
LINE
  8
0
 10
-32.1603
 20
-18.4064
 11
-32.2066
 21
-18.5358
  0
LINE
  8
0
 10
-32.2066
 20
-18.5358
 11
-32.2653
 21
-18.6599
  0
LINE
  8
0
 10
-32.2653
 20
-18.6599
 11
-32.3359
 21
-18.7778
  0
LINE
  8
0
 10
-32.3359
 20
-18.7778
 11
-32.4178
 21
-18.8881
  0
LINE
  8
0
 10
-32.4178
 20
-18.8881
 11
-32.51
 21
-18.9899
  0
LINE
  8
0
 10
-32.51
 20
-18.9899
 11
-32.6118
 21
-19.0822
  0
LINE
  8
0
 10
-32.6118
 20
-19.0822
 11
-32.7222
 21
-19.164
  0
LINE
  8
0
 10
-32.7222
 20
-19.164
 11
-32.84
 21
-19.2347
  0
LINE
  8
0
 10
-32.84
 20
-19.2347
 11
-32.9642
 21
-19.2934
  0
LINE
  8
0
 10
-32.9642
 20
-19.2934
 11
-33.0936
 21
-19.3397
  0
LINE
  8
0
 10
-33.0936
 20
-19.3397
 11
-33.2269
 21
-19.3731
  0
LINE
  8
0
 10
-33.2269
 20
-19.3731
 11
-33.3628
 21
-19.3932
  0
LINE
  8
0
 10
-33.3628
 20
-19.3932
 11
-33.5
 21
-19.4
  0
LINE
  8
0
 10
-33.5
 20
-19.4
 11
-33.6372
 21
-19.3932
  0
LINE
  8
0
 10
33.3628
 20
-19.3932
 11
33.2269
 21
-19.3731
  0
LINE
  8
0
 10
33.2269
 20
-19.3731
 11
33.0936
 21
-19.3397
  0
LINE
  8
0
 10
33.0936
 20
-19.3397
 11
32.9642
 21
-19.2934
  0
LINE
  8
0
 10
32.9642
 20
-19.2934
 11
32.84
 21
-19.2347
  0
LINE
  8
0
 10
32.84
 20
-19.2347
 11
32.7222
 21
-19.164
  0
LINE
  8
0
 10
32.7222
 20
-19.164
 11
32.6118
 21
-19.0822
  0
LINE
  8
0
 10
32.6118
 20
-19.0822
 11
32.51
 21
-18.9899
  0
LINE
  8
0
 10
32.51
 20
-18.9899
 11
32.4178
 21
-18.8881
  0
LINE
  8
0
 10
32.4178
 20
-18.8881
 11
32.3359
 21
-18.7778
  0
LINE
  8
0
 10
32.3359
 20
-18.7778
 11
32.2653
 21
-18.6599
  0
LINE
  8
0
 10
32.2653
 20
-18.6599
 11
32.2066
 21
-18.5358
  0
LINE
  8
0
 10
32.2066
 20
-18.5358
 11
32.1603
 21
-18.4064
  0
LINE
  8
0
 10
32.1603
 20
-18.4064
 11
32.1269
 21
-18.2731
  0
LINE
  8
0
 10
32.1269
 20
-18.2731
 11
32.1067
 21
-18.1372
  0
LINE
  8
0
 10
32.1067
 20
-18.1372
 11
32.1
 21
-18
  0
LINE
  8
0
 10
32.1
 20
-18
 11
32.1067
 21
-17.8628
  0
LINE
  8
0
 10
32.1067
 20
-17.8628
 11
32.1269
 21
-17.7269
  0
LINE
  8
0
 10
32.1269
 20
-17.7269
 11
32.1603
 21
-17.5936
  0
LINE
  8
0
 10
32.1603
 20
-17.5936
 11
32.2066
 21
-17.4642
  0
LINE
  8
0
 10
32.2066
 20
-17.4642
 11
32.2653
 21
-17.34
  0
LINE
  8
0
 10
32.2653
 20
-17.34
 11
32.3359
 21
-17.2222
  0
LINE
  8
0
 10
32.3359
 20
-17.2222
 11
32.4178
 21
-17.1118
  0
LINE
  8
0
 10
32.4178
 20
-17.1118
 11
32.51
 21
-17.01
  0
LINE
  8
0
 10
32.51
 20
-17.01
 11
32.6118
 21
-16.9178
  0
LINE
  8
0
 10
32.6118
 20
-16.9178
 11
32.7222
 21
-16.8359
  0
LINE
  8
0
 10
32.7222
 20
-16.8359
 11
32.84
 21
-16.7653
  0
LINE
  8
0
 10
32.84
 20
-16.7653
 11
32.9642
 21
-16.7066
  0
LINE
  8
0
 10
32.9642
 20
-16.7066
 11
33.0936
 21
-16.6603
  0
LINE
  8
0
 10
33.0936
 20
-16.6603
 11
33.2269
 21
-16.6269
  0
LINE
  8
0
 10
33.2269
 20
-16.6269
 11
33.3628
 21
-16.6067
  0
LINE
  8
0
 10
33.3628
 20
-16.6067
 11
33.5
 21
-16.6
  0
LINE
  8
0
 10
33.5
 20
-16.6
 11
33.6372
 21
-16.6067
  0
LINE
  8
0
 10
33.6372
 20
-16.6067
 11
33.7731
 21
-16.6269
  0
LINE
  8
0
 10
33.7731
 20
-16.6269
 11
33.9064
 21
-16.6603
  0
LINE
  8
0
 10
33.9064
 20
-16.6603
 11
34.0358
 21
-16.7066
  0
LINE
  8
0
 10
34.0358
 20
-16.7066
 11
34.1599
 21
-16.7653
  0
LINE
  8
0
 10
34.1599
 20
-16.7653
 11
34.2778
 21
-16.8359
  0
LINE
  8
0
 10
34.2778
 20
-16.8359
 11
34.3881
 21
-16.9178
  0
LINE
  8
0
 10
34.3881
 20
-16.9178
 11
34.4899
 21
-17.01
  0
LINE
  8
0
 10
34.4899
 20
-17.01
 11
34.5822
 21
-17.1118
  0
LINE
  8
0
 10
34.5822
 20
-17.1118
 11
34.664
 21
-17.2222
  0
LINE
  8
0
 10
34.664
 20
-17.2222
 11
34.7347
 21
-17.34
  0
LINE
  8
0
 10
34.7347
 20
-17.34
 11
34.7934
 21
-17.4642
  0
LINE
  8
0
 10
34.7934
 20
-17.4642
 11
34.8397
 21
-17.5936
  0
LINE
  8
0
 10
34.8397
 20
-17.5936
 11
34.8731
 21
-17.7269
  0
LINE
  8
0
 10
34.8731
 20
-17.7269
 11
34.8932
 21
-17.8628
  0
LINE
  8
0
 10
34.8932
 20
-17.8628
 11
34.9
 21
-18
  0
LINE
  8
0
 10
34.9
 20
-18
 11
34.8932
 21
-18.1372
  0
LINE
  8
0
 10
34.8932
 20
-18.1372
 11
34.8731
 21
-18.2731
  0
LINE
  8
0
 10
34.8731
 20
-18.2731
 11
34.8397
 21
-18.4064
  0
LINE
  8
0
 10
34.8397
 20
-18.4064
 11
34.7934
 21
-18.5358
  0
LINE
  8
0
 10
34.7934
 20
-18.5358
 11
34.7347
 21
-18.6599
  0
LINE
  8
0
 10
34.7347
 20
-18.6599
 11
34.664
 21
-18.7778
  0
LINE
  8
0
 10
34.664
 20
-18.7778
 11
34.5822
 21
-18.8881
  0
LINE
  8
0
 10
34.5822
 20
-18.8881
 11
34.4899
 21
-18.9899
  0
LINE
  8
0
 10
34.4899
 20
-18.9899
 11
34.3881
 21
-19.0822
  0
LINE
  8
0
 10
34.3881
 20
-19.0822
 11
34.2778
 21
-19.164
  0
LINE
  8
0
 10
34.2778
 20
-19.164
 11
34.1599
 21
-19.2347
  0
LINE
  8
0
 10
34.1599
 20
-19.2347
 11
34.0358
 21
-19.2934
  0
LINE
  8
0
 10
34.0358
 20
-19.2934
 11
33.9064
 21
-19.3397
  0
LINE
  8
0
 10
33.9064
 20
-19.3397
 11
33.7731
 21
-19.3731
  0
LINE
  8
0
 10
33.7731
 20
-19.3731
 11
33.6372
 21
-19.3932
  0
LINE
  8
0
 10
33.6372
 20
-19.3932
 11
33.5
 21
-19.4
  0
LINE
  8
0
 10
33.5
 20
-19.4
 11
33.3628
 21
-19.3932
  0
ENDSEC
  0
SECTION
  2
OBJECTS
  0
DICTIONARY
  0
ENDSEC
  0
EOF
