  0
SECTION
  2
BLOCKS
  0
ENDSEC
  0
SECTION
  2
ENTITIES
  0
LINE
  8
0
 10
35.2453
 20
-22.494
 11
35.4901
 21
-22.4759
  0
LINE
  8
0
 10
35.4901
 20
-22.4759
 11
35.7337
 21
-22.4459
  0
LINE
  8
0
 10
35.7337
 20
-22.4459
 11
35.9754
 21
-22.4039
  0
LINE
  8
0
 10
35.9754
 20
-22.4039
 11
36.2149
 21
-22.3502
  0
LINE
  8
0
 10
36.2149
 20
-22.3502
 11
36.4514
 21
-22.2847
  0
LINE
  8
0
 10
36.4514
 20
-22.2847
 11
36.6844
 21
-22.2077
  0
LINE
  8
0
 10
36.6844
 20
-22.2077
 11
36.9134
 21
-22.1194
  0
LINE
  8
0
 10
36.9134
 20
-22.1194
 11
37.1378
 21
-22.0199
  0
LINE
  8
0
 10
37.1378
 20
-22.0199
 11
37.357
 21
-21.9096
  0
LINE
  8
0
 10
37.357
 20
-21.9096
 11
37.5705
 21
-21.7887
  0
LINE
  8
0
 10
37.5705
 20
-21.7887
 11
37.7778
 21
-21.6573
  0
LINE
  8
0
 10
37.7778
 20
-21.6573
 11
37.9785
 21
-21.516
  0
LINE
  8
0
 10
37.9785
 20
-21.516
 11
38.172
 21
-21.3651
  0
LINE
  8
0
 10
38.172
 20
-21.3651
 11
38.3578
 21
-21.2048
  0
LINE
  8
0
 10
38.3578
 20
-21.2048
 11
38.5355
 21
-21.0355
  0
LINE
  8
0
 10
38.5355
 20
-21.0355
 11
38.7048
 21
-20.8578
  0
LINE
  8
0
 10
38.7048
 20
-20.8578
 11
38.8651
 21
-20.672
  0
LINE
  8
0
 10
38.8651
 20
-20.672
 11
39.016
 21
-20.4785
  0
LINE
  8
0
 10
39.016
 20
-20.4785
 11
39.1573
 21
-20.2778
  0
LINE
  8
0
 10
39.1573
 20
-20.2778
 11
39.2887
 21
-20.0705
  0
LINE
  8
0
 10
39.2887
 20
-20.0705
 11
39.4096
 21
-19.857
  0
LINE
  8
0
 10
39.4096
 20
-19.857
 11
39.5199
 21
-19.6378
  0
LINE
  8
0
 10
39.5199
 20
-19.6378
 11
39.6194
 21
-19.4134
  0
LINE
  8
0
 10
39.6194
 20
-19.4134
 11
39.7077
 21
-19.1844
  0
LINE
  8
0
 10
39.7077
 20
-19.1844
 11
39.7847
 21
-18.9514
  0
LINE
  8
0
 10
39.7847
 20
-18.9514
 11
39.8502
 21
-18.7149
  0
LINE
  8
0
 10
39.8502
 20
-18.7149
 11
39.9039
 21
-18.4754
  0
LINE
  8
0
 10
39.9039
 20
-18.4754
 11
39.9459
 21
-18.2337
  0
LINE
  8
0
 10
39.9459
 20
-18.2337
 11
39.9759
 21
-17.9901
  0
LINE
  8
0
 10
39.9759
 20
-17.9901
 11
39.994
 21
-17.7453
  0
LINE
  8
0
 10
39.994
 20
-17.7453
 11
40
 21
-17.5
  0
LINE
  8
0
 10
40
 20
-17.5
 11
40
 21
17.5
  0
LINE
  8
0
 10
40
 20
17.5
 11
39.994
 21
17.7453
  0
LINE
  8
0
 10
39.994
 20
17.7453
 11
39.9759
 21
17.9901
  0
LINE
  8
0
 10
39.9759
 20
17.9901
 11
39.9459
 21
18.2337
  0
LINE
  8
0
 10
39.9459
 20
18.2337
 11
39.9039
 21
18.4754
  0
LINE
  8
0
 10
39.9039
 20
18.4754
 11
39.8502
 21
18.7149
  0
LINE
  8
0
 10
39.8502
 20
18.7149
 11
39.7847
 21
18.9514
  0
LINE
  8
0
 10
39.7847
 20
18.9514
 11
39.7077
 21
19.1844
  0
LINE
  8
0
 10
39.7077
 20
19.1844
 11
39.6194
 21
19.4134
  0
LINE
  8
0
 10
39.6194
 20
19.4134
 11
39.5199
 21
19.6378
  0
LINE
  8
0
 10
39.5199
 20
19.6378
 11
39.4096
 21
19.857
  0
LINE
  8
0
 10
39.4096
 20
19.857
 11
39.2887
 21
20.0705
  0
LINE
  8
0
 10
39.2887
 20
20.0705
 11
39.1573
 21
20.2778
  0
LINE
  8
0
 10
39.1573
 20
20.2778
 11
39.016
 21
20.4785
  0
LINE
  8
0
 10
39.016
 20
20.4785
 11
38.8651
 21
20.672
  0
LINE
  8
0
 10
38.8651
 20
20.672
 11
38.7048
 21
20.8578
  0
LINE
  8
0
 10
38.7048
 20
20.8578
 11
38.5355
 21
21.0355
  0
LINE
  8
0
 10
38.5355
 20
21.0355
 11
38.3578
 21
21.2048
  0
LINE
  8
0
 10
38.3578
 20
21.2048
 11
38.172
 21
21.3651
  0
LINE
  8
0
 10
38.172
 20
21.3651
 11
37.9785
 21
21.516
  0
LINE
  8
0
 10
37.9785
 20
21.516
 11
37.7778
 21
21.6573
  0
LINE
  8
0
 10
37.7778
 20
21.6573
 11
37.5705
 21
21.7887
  0
LINE
  8
0
 10
37.5705
 20
21.7887
 11
37.357
 21
21.9096
  0
LINE
  8
0
 10
37.357
 20
21.9096
 11
37.1378
 21
22.0199
  0
LINE
  8
0
 10
37.1378
 20
22.0199
 11
36.9134
 21
22.1194
  0
LINE
  8
0
 10
36.9134
 20
22.1194
 11
36.6844
 21
22.2077
  0
LINE
  8
0
 10
36.6844
 20
22.2077
 11
36.4514
 21
22.2847
  0
LINE
  8
0
 10
36.4514
 20
22.2847
 11
36.2149
 21
22.3502
  0
LINE
  8
0
 10
36.2149
 20
22.3502
 11
35.9754
 21
22.4039
  0
LINE
  8
0
 10
35.9754
 20
22.4039
 11
35.7337
 21
22.4459
  0
LINE
  8
0
 10
35.7337
 20
22.4459
 11
35.4901
 21
22.4759
  0
LINE
  8
0
 10
35.4901
 20
22.4759
 11
35.2453
 21
22.494
  0
LINE
  8
0
 10
35.2453
 20
22.494
 11
35
 21
22.5
  0
LINE
  8
0
 10
35
 20
22.5
 11
-35
 21
22.5
  0
LINE
  8
0
 10
-35
 20
22.5
 11
-35.2453
 21
22.494
  0
LINE
  8
0
 10
-35.2453
 20
22.494
 11
-35.4901
 21
22.4759
  0
LINE
  8
0
 10
-35.4901
 20
22.4759
 11
-35.7337
 21
22.4459
  0
LINE
  8
0
 10
-35.7337
 20
22.4459
 11
-35.9754
 21
22.4039
  0
LINE
  8
0
 10
-35.9754
 20
22.4039
 11
-36.2149
 21
22.3502
  0
LINE
  8
0
 10
-36.2149
 20
22.3502
 11
-36.4514
 21
22.2847
  0
LINE
  8
0
 10
-36.4514
 20
22.2847
 11
-36.6844
 21
22.2077
  0
LINE
  8
0
 10
-36.6844
 20
22.2077
 11
-36.9134
 21
22.1194
  0
LINE
  8
0
 10
-36.9134
 20
22.1194
 11
-37.1378
 21
22.0199
  0
LINE
  8
0
 10
-37.1378
 20
22.0199
 11
-37.357
 21
21.9096
  0
LINE
  8
0
 10
-37.357
 20
21.9096
 11
-37.5705
 21
21.7887
  0
LINE
  8
0
 10
-37.5705
 20
21.7887
 11
-37.7778
 21
21.6573
  0
LINE
  8
0
 10
-37.7778
 20
21.6573
 11
-37.9785
 21
21.516
  0
LINE
  8
0
 10
-37.9785
 20
21.516
 11
-38.172
 21
21.3651
  0
LINE
  8
0
 10
-38.172
 20
21.3651
 11
-38.3578
 21
21.2048
  0
LINE
  8
0
 10
-38.3578
 20
21.2048
 11
-38.5355
 21
21.0355
  0
LINE
  8
0
 10
-38.5355
 20
21.0355
 11
-38.7048
 21
20.8578
  0
LINE
  8
0
 10
-38.7048
 20
20.8578
 11
-38.8651
 21
20.672
  0
LINE
  8
0
 10
-38.8651
 20
20.672
 11
-39.016
 21
20.4785
  0
LINE
  8
0
 10
-39.016
 20
20.4785
 11
-39.1573
 21
20.2778
  0
LINE
  8
0
 10
-39.1573
 20
20.2778
 11
-39.2887
 21
20.0705
  0
LINE
  8
0
 10
-39.2887
 20
20.0705
 11
-39.4096
 21
19.857
  0
LINE
  8
0
 10
-39.4096
 20
19.857
 11
-39.5199
 21
19.6378
  0
LINE
  8
0
 10
-39.5199
 20
19.6378
 11
-39.6194
 21
19.4134
  0
LINE
  8
0
 10
-39.6194
 20
19.4134
 11
-39.7077
 21
19.1844
  0
LINE
  8
0
 10
-39.7077
 20
19.1844
 11
-39.7847
 21
18.9514
  0
LINE
  8
0
 10
-39.7847
 20
18.9514
 11
-39.8502
 21
18.7149
  0
LINE
  8
0
 10
-39.8502
 20
18.7149
 11
-39.9039
 21
18.4754
  0
LINE
  8
0
 10
-39.9039
 20
18.4754
 11
-39.9459
 21
18.2337
  0
LINE
  8
0
 10
-39.9459
 20
18.2337
 11
-39.9759
 21
17.9901
  0
LINE
  8
0
 10
-39.9759
 20
17.9901
 11
-39.994
 21
17.7453
  0
LINE
  8
0
 10
-39.994
 20
17.7453
 11
-40
 21
17.5
  0
LINE
  8
0
 10
-40
 20
17.5
 11
-40
 21
-17.5
  0
LINE
  8
0
 10
-40
 20
-17.5
 11
-39.994
 21
-17.7453
  0
LINE
  8
0
 10
-39.994
 20
-17.7453
 11
-39.9759
 21
-17.9901
  0
LINE
  8
0
 10
-39.9759
 20
-17.9901
 11
-39.9459
 21
-18.2337
  0
LINE
  8
0
 10
-39.9459
 20
-18.2337
 11
-39.9039
 21
-18.4754
  0
LINE
  8
0
 10
-39.9039
 20
-18.4754
 11
-39.8502
 21
-18.7149
  0
LINE
  8
0
 10
-39.8502
 20
-18.7149
 11
-39.7847
 21
-18.9514
  0
LINE
  8
0
 10
-39.7847
 20
-18.9514
 11
-39.7077
 21
-19.1844
  0
LINE
  8
0
 10
-39.7077
 20
-19.1844
 11
-39.6194
 21
-19.4134
  0
LINE
  8
0
 10
-39.6194
 20
-19.4134
 11
-39.5199
 21
-19.6378
  0
LINE
  8
0
 10
-39.5199
 20
-19.6378
 11
-39.4096
 21
-19.857
  0
LINE
  8
0
 10
-39.4096
 20
-19.857
 11
-39.2887
 21
-20.0705
  0
LINE
  8
0
 10
-39.2887
 20
-20.0705
 11
-39.1573
 21
-20.2778
  0
LINE
  8
0
 10
-39.1573
 20
-20.2778
 11
-39.016
 21
-20.4785
  0
LINE
  8
0
 10
-39.016
 20
-20.4785
 11
-38.8651
 21
-20.672
  0
LINE
  8
0
 10
-38.8651
 20
-20.672
 11
-38.7048
 21
-20.8578
  0
LINE
  8
0
 10
-38.7048
 20
-20.8578
 11
-38.5355
 21
-21.0355
  0
LINE
  8
0
 10
-38.5355
 20
-21.0355
 11
-38.3578
 21
-21.2048
  0
LINE
  8
0
 10
-38.3578
 20
-21.2048
 11
-38.172
 21
-21.3651
  0
LINE
  8
0
 10
-38.172
 20
-21.3651
 11
-37.9785
 21
-21.516
  0
LINE
  8
0
 10
-37.9785
 20
-21.516
 11
-37.7778
 21
-21.6573
  0
LINE
  8
0
 10
-37.7778
 20
-21.6573
 11
-37.5705
 21
-21.7887
  0
LINE
  8
0
 10
-37.5705
 20
-21.7887
 11
-37.357
 21
-21.9096
  0
LINE
  8
0
 10
-37.357
 20
-21.9096
 11
-37.1378
 21
-22.0199
  0
LINE
  8
0
 10
-37.1378
 20
-22.0199
 11
-36.9134
 21
-22.1194
  0
LINE
  8
0
 10
-36.9134
 20
-22.1194
 11
-36.6844
 21
-22.2077
  0
LINE
  8
0
 10
-36.6844
 20
-22.2077
 11
-36.4514
 21
-22.2847
  0
LINE
  8
0
 10
-36.4514
 20
-22.2847
 11
-36.2149
 21
-22.3502
  0
LINE
  8
0
 10
-36.2149
 20
-22.3502
 11
-35.9754
 21
-22.4039
  0
LINE
  8
0
 10
-35.9754
 20
-22.4039
 11
-35.7337
 21
-22.4459
  0
LINE
  8
0
 10
-35.7337
 20
-22.4459
 11
-35.4901
 21
-22.4759
  0
LINE
  8
0
 10
-35.4901
 20
-22.4759
 11
-35.2453
 21
-22.494
  0
LINE
  8
0
 10
-35.2453
 20
-22.494
 11
-35
 21
-22.5
  0
LINE
  8
0
 10
-35
 20
-22.5
 11
35
 21
-22.5
  0
LINE
  8
0
 10
35
 20
-22.5
 11
35.2453
 21
-22.494
  0
LINE
  8
0
 10
-37.5687
 20
18.1017
 11
-37.6372
 21
18.1067
  0
LINE
  8
0
 10
-37.6372
 20
18.1067
 11
-37.7054
 21
18.1151
  0
LINE
  8
0
 10
-37.7054
 20
18.1151
 11
-37.7731
 21
18.1269
  0
LINE
  8
0
 10
-37.7731
 20
18.1269
 11
-37.8402
 21
18.142
  0
LINE
  8
0
 10
-37.8402
 20
18.142
 11
-37.9064
 21
18.1603
  0
LINE
  8
0
 10
-37.9064
 20
18.1603
 11
-37.9716
 21
18.1818
  0
LINE
  8
0
 10
-37.9716
 20
18.1818
 11
-38.0358
 21
18.2066
  0
LINE
  8
0
 10
-38.0358
 20
18.2066
 11
-38.0986
 21
18.2344
  0
LINE
  8
0
 10
-38.0986
 20
18.2344
 11
-38.1599
 21
18.2653
  0
LINE
  8
0
 10
-38.1599
 20
18.2653
 11
-38.2197
 21
18.2992
  0
LINE
  8
0
 10
-38.2197
 20
18.2992
 11
-38.2778
 21
18.3359
  0
LINE
  8
0
 10
-38.2778
 20
18.3359
 11
-38.334
 21
18.3755
  0
LINE
  8
0
 10
-38.334
 20
18.3755
 11
-38.3881
 21
18.4178
  0
LINE
  8
0
 10
-38.3881
 20
18.4178
 11
-38.4402
 21
18.4627
  0
LINE
  8
0
 10
-38.4402
 20
18.4627
 11
-38.4899
 21
18.51
  0
LINE
  8
0
 10
-38.4899
 20
18.51
 11
-38.5373
 21
18.5598
  0
LINE
  8
0
 10
-38.5373
 20
18.5598
 11
-38.5822
 21
18.6118
  0
LINE
  8
0
 10
-38.5822
 20
18.6118
 11
-38.6245
 21
18.666
  0
LINE
  8
0
 10
-38.6245
 20
18.666
 11
-38.664
 21
18.7222
  0
LINE
  8
0
 10
-38.664
 20
18.7222
 11
-38.7008
 21
18.7802
  0
LINE
  8
0
 10
-38.7008
 20
18.7802
 11
-38.7347
 21
18.84
  0
LINE
  8
0
 10
-38.7347
 20
18.84
 11
-38.7656
 21
18.9014
  0
LINE
  8
0
 10
-38.7656
 20
18.9014
 11
-38.7934
 21
18.9642
  0
LINE
  8
0
 10
-38.7934
 20
18.9642
 11
-38.8182
 21
19.0284
  0
LINE
  8
0
 10
-38.8182
 20
19.0284
 11
-38.8397
 21
19.0936
  0
LINE
  8
0
 10
-38.8397
 20
19.0936
 11
-38.858
 21
19.1598
  0
LINE
  8
0
 10
-38.858
 20
19.1598
 11
-38.8731
 21
19.2269
  0
LINE
  8
0
 10
-38.8731
 20
19.2269
 11
-38.8848
 21
19.2946
  0
LINE
  8
0
 10
-38.8848
 20
19.2946
 11
-38.8932
 21
19.3628
  0
LINE
  8
0
 10
-38.8932
 20
19.3628
 11
-38.8983
 21
19.4313
  0
LINE
  8
0
 10
-38.8983
 20
19.4313
 11
-38.9
 21
19.5
  0
LINE
  8
0
 10
-38.9
 20
19.5
 11
-38.8983
 21
19.5687
  0
LINE
  8
0
 10
-38.8983
 20
19.5687
 11
-38.8932
 21
19.6372
  0
LINE
  8
0
 10
-38.8932
 20
19.6372
 11
-38.8848
 21
19.7054
  0
LINE
  8
0
 10
-38.8848
 20
19.7054
 11
-38.8731
 21
19.7731
  0
LINE
  8
0
 10
-38.8731
 20
19.7731
 11
-38.858
 21
19.8402
  0
LINE
  8
0
 10
-38.858
 20
19.8402
 11
-38.8397
 21
19.9064
  0
LINE
  8
0
 10
-38.8397
 20
19.9064
 11
-38.8182
 21
19.9716
  0
LINE
  8
0
 10
-38.8182
 20
19.9716
 11
-38.7934
 21
20.0358
  0
LINE
  8
0
 10
-38.7934
 20
20.0358
 11
-38.7656
 21
20.0986
  0
LINE
  8
0
 10
-38.7656
 20
20.0986
 11
-38.7347
 21
20.1599
  0
LINE
  8
0
 10
-38.7347
 20
20.1599
 11
-38.7008
 21
20.2197
  0
LINE
  8
0
 10
-38.7008
 20
20.2197
 11
-38.664
 21
20.2778
  0
LINE
  8
0
 10
-38.664
 20
20.2778
 11
-38.6245
 21
20.334
  0
LINE
  8
0
 10
-38.6245
 20
20.334
 11
-38.5822
 21
20.3881
  0
LINE
  8
0
 10
-38.5822
 20
20.3881
 11
-38.5373
 21
20.4402
  0
LINE
  8
0
 10
-38.5373
 20
20.4402
 11
-38.4899
 21
20.4899
  0
LINE
  8
0
 10
-38.4899
 20
20.4899
 11
-38.4402
 21
20.5373
  0
LINE
  8
0
 10
-38.4402
 20
20.5373
 11
-38.3881
 21
20.5822
  0
LINE
  8
0
 10
-38.3881
 20
20.5822
 11
-38.334
 21
20.6245
  0
LINE
  8
0
 10
-38.334
 20
20.6245
 11
-38.2778
 21
20.664
  0
LINE
  8
0
 10
-38.2778
 20
20.664
 11
-38.2197
 21
20.7008
  0
LINE
  8
0
 10
-38.2197
 20
20.7008
 11
-38.1599
 21
20.7347
  0
LINE
  8
0
 10
-38.1599
 20
20.7347
 11
-38.0986
 21
20.7656
  0
LINE
  8
0
 10
-38.0986
 20
20.7656
 11
-38.0358
 21
20.7934
  0
LINE
  8
0
 10
-38.0358
 20
20.7934
 11
-37.9716
 21
20.8182
  0
LINE
  8
0
 10
-37.9716
 20
20.8182
 11
-37.9064
 21
20.8397
  0
LINE
  8
0
 10
-37.9064
 20
20.8397
 11
-37.8402
 21
20.858
  0
LINE
  8
0
 10
-37.8402
 20
20.858
 11
-37.7731
 21
20.8731
  0
LINE
  8
0
 10
-37.7731
 20
20.8731
 11
-37.7054
 21
20.8848
  0
LINE
  8
0
 10
-37.7054
 20
20.8848
 11
-37.6372
 21
20.8932
  0
LINE
  8
0
 10
-37.6372
 20
20.8932
 11
-37.5687
 21
20.8983
  0
LINE
  8
0
 10
-37.5687
 20
20.8983
 11
-37.5
 21
20.9
  0
LINE
  8
0
 10
-37.5
 20
20.9
 11
-37.4313
 21
20.8983
  0
LINE
  8
0
 10
-37.4313
 20
20.8983
 11
-37.3628
 21
20.8932
  0
LINE
  8
0
 10
-37.3628
 20
20.8932
 11
-37.2946
 21
20.8848
  0
LINE
  8
0
 10
-37.2946
 20
20.8848
 11
-37.2269
 21
20.8731
  0
LINE
  8
0
 10
-37.2269
 20
20.8731
 11
-37.1598
 21
20.858
  0
LINE
  8
0
 10
-37.1598
 20
20.858
 11
-37.0936
 21
20.8397
  0
LINE
  8
0
 10
-37.0936
 20
20.8397
 11
-37.0284
 21
20.8182
  0
LINE
  8
0
 10
-37.0284
 20
20.8182
 11
-36.9642
 21
20.7934
  0
LINE
  8
0
 10
-36.9642
 20
20.7934
 11
-36.9014
 21
20.7656
  0
LINE
  8
0
 10
-36.9014
 20
20.7656
 11
-36.84
 21
20.7347
  0
LINE
  8
0
 10
-36.84
 20
20.7347
 11
-36.7802
 21
20.7008
  0
LINE
  8
0
 10
-36.7802
 20
20.7008
 11
-36.7222
 21
20.664
  0
LINE
  8
0
 10
-36.7222
 20
20.664
 11
-36.666
 21
20.6245
  0
LINE
  8
0
 10
-36.666
 20
20.6245
 11
-36.6118
 21
20.5822
  0
LINE
  8
0
 10
-36.6118
 20
20.5822
 11
-36.5598
 21
20.5373
  0
LINE
  8
0
 10
-36.5598
 20
20.5373
 11
-36.51
 21
20.4899
  0
LINE
  8
0
 10
-36.51
 20
20.4899
 11
-36.4627
 21
20.4402
  0
LINE
  8
0
 10
-36.4627
 20
20.4402
 11
-36.4178
 21
20.3881
  0
LINE
  8
0
 10
-36.4178
 20
20.3881
 11
-36.3755
 21
20.334
  0
LINE
  8
0
 10
-36.3755
 20
20.334
 11
-36.3359
 21
20.2778
  0
LINE
  8
0
 10
-36.3359
 20
20.2778
 11
-36.2992
 21
20.2197
  0
LINE
  8
0
 10
-36.2992
 20
20.2197
 11
-36.2653
 21
20.1599
  0
LINE
  8
0
 10
-36.2653
 20
20.1599
 11
-36.2344
 21
20.0986
  0
LINE
  8
0
 10
-36.2344
 20
20.0986
 11
-36.2066
 21
20.0358
  0
LINE
  8
0
 10
-36.2066
 20
20.0358
 11
-36.1818
 21
19.9716
  0
LINE
  8
0
 10
-36.1818
 20
19.9716
 11
-36.1603
 21
19.9064
  0
LINE
  8
0
 10
-36.1603
 20
19.9064
 11
-36.142
 21
19.8402
  0
LINE
  8
0
 10
-36.142
 20
19.8402
 11
-36.1269
 21
19.7731
  0
LINE
  8
0
 10
-36.1269
 20
19.7731
 11
-36.1151
 21
19.7054
  0
LINE
  8
0
 10
-36.1151
 20
19.7054
 11
-36.1067
 21
19.6372
  0
LINE
  8
0
 10
-36.1067
 20
19.6372
 11
-36.1017
 21
19.5687
  0
LINE
  8
0
 10
-36.1017
 20
19.5687
 11
-36.1
 21
19.5
  0
LINE
  8
0
 10
-36.1
 20
19.5
 11
-36.1017
 21
19.4313
  0
LINE
  8
0
 10
-36.1017
 20
19.4313
 11
-36.1067
 21
19.3628
  0
LINE
  8
0
 10
-36.1067
 20
19.3628
 11
-36.1151
 21
19.2946
  0
LINE
  8
0
 10
-36.1151
 20
19.2946
 11
-36.1269
 21
19.2269
  0
LINE
  8
0
 10
-36.1269
 20
19.2269
 11
-36.142
 21
19.1598
  0
LINE
  8
0
 10
-36.142
 20
19.1598
 11
-36.1603
 21
19.0936
  0
LINE
  8
0
 10
-36.1603
 20
19.0936
 11
-36.1818
 21
19.0284
  0
LINE
  8
0
 10
-36.1818
 20
19.0284
 11
-36.2066
 21
18.9642
  0
LINE
  8
0
 10
-36.2066
 20
18.9642
 11
-36.2344
 21
18.9014
  0
LINE
  8
0
 10
-36.2344
 20
18.9014
 11
-36.2653
 21
18.84
  0
LINE
  8
0
 10
-36.2653
 20
18.84
 11
-36.2992
 21
18.7802
  0
LINE
  8
0
 10
-36.2992
 20
18.7802
 11
-36.3359
 21
18.7222
  0
LINE
  8
0
 10
-36.3359
 20
18.7222
 11
-36.3755
 21
18.666
  0
LINE
  8
0
 10
-36.3755
 20
18.666
 11
-36.4178
 21
18.6118
  0
LINE
  8
0
 10
-36.4178
 20
18.6118
 11
-36.4627
 21
18.5598
  0
LINE
  8
0
 10
-36.4627
 20
18.5598
 11
-36.51
 21
18.51
  0
LINE
  8
0
 10
-36.51
 20
18.51
 11
-36.5598
 21
18.4627
  0
LINE
  8
0
 10
-36.5598
 20
18.4627
 11
-36.6118
 21
18.4178
  0
LINE
  8
0
 10
-36.6118
 20
18.4178
 11
-36.666
 21
18.3755
  0
LINE
  8
0
 10
-36.666
 20
18.3755
 11
-36.7222
 21
18.3359
  0
LINE
  8
0
 10
-36.7222
 20
18.3359
 11
-36.7802
 21
18.2992
  0
LINE
  8
0
 10
-36.7802
 20
18.2992
 11
-36.84
 21
18.2653
  0
LINE
  8
0
 10
-36.84
 20
18.2653
 11
-36.9014
 21
18.2344
  0
LINE
  8
0
 10
-36.9014
 20
18.2344
 11
-36.9642
 21
18.2066
  0
LINE
  8
0
 10
-36.9642
 20
18.2066
 11
-37.0284
 21
18.1818
  0
LINE
  8
0
 10
-37.0284
 20
18.1818
 11
-37.0936
 21
18.1603
  0
LINE
  8
0
 10
-37.0936
 20
18.1603
 11
-37.1598
 21
18.142
  0
LINE
  8
0
 10
-37.1598
 20
18.142
 11
-37.2269
 21
18.1269
  0
LINE
  8
0
 10
-37.2269
 20
18.1269
 11
-37.2946
 21
18.1151
  0
LINE
  8
0
 10
-37.2946
 20
18.1151
 11
-37.3628
 21
18.1067
  0
LINE
  8
0
 10
-37.3628
 20
18.1067
 11
-37.4313
 21
18.1017
  0
LINE
  8
0
 10
-37.4313
 20
18.1017
 11
-37.5
 21
18.1
  0
LINE
  8
0
 10
-37.5
 20
18.1
 11
-37.5687
 21
18.1017
  0
LINE
  8
0
 10
37.4313
 20
18.1017
 11
37.3628
 21
18.1067
  0
LINE
  8
0
 10
37.3628
 20
18.1067
 11
37.2946
 21
18.1151
  0
LINE
  8
0
 10
37.2946
 20
18.1151
 11
37.2269
 21
18.1269
  0
LINE
  8
0
 10
37.2269
 20
18.1269
 11
37.1598
 21
18.142
  0
LINE
  8
0
 10
37.1598
 20
18.142
 11
37.0936
 21
18.1603
  0
LINE
  8
0
 10
37.0936
 20
18.1603
 11
37.0284
 21
18.1818
  0
LINE
  8
0
 10
37.0284
 20
18.1818
 11
36.9642
 21
18.2066
  0
LINE
  8
0
 10
36.9642
 20
18.2066
 11
36.9014
 21
18.2344
  0
LINE
  8
0
 10
36.9014
 20
18.2344
 11
36.84
 21
18.2653
  0
LINE
  8
0
 10
36.84
 20
18.2653
 11
36.7802
 21
18.2992
  0
LINE
  8
0
 10
36.7802
 20
18.2992
 11
36.7222
 21
18.3359
  0
LINE
  8
0
 10
36.7222
 20
18.3359
 11
36.666
 21
18.3755
  0
LINE
  8
0
 10
36.666
 20
18.3755
 11
36.6118
 21
18.4178
  0
LINE
  8
0
 10
36.6118
 20
18.4178
 11
36.5598
 21
18.4627
  0
LINE
  8
0
 10
36.5598
 20
18.4627
 11
36.51
 21
18.51
  0
LINE
  8
0
 10
36.51
 20
18.51
 11
36.4627
 21
18.5598
  0
LINE
  8
0
 10
36.4627
 20
18.5598
 11
36.4178
 21
18.6118
  0
LINE
  8
0
 10
36.4178
 20
18.6118
 11
36.3755
 21
18.666
  0
LINE
  8
0
 10
36.3755
 20
18.666
 11
36.3359
 21
18.7222
  0
LINE
  8
0
 10
36.3359
 20
18.7222
 11
36.2992
 21
18.7802
  0
LINE
  8
0
 10
36.2992
 20
18.7802
 11
36.2653
 21
18.84
  0
LINE
  8
0
 10
36.2653
 20
18.84
 11
36.2344
 21
18.9014
  0
LINE
  8
0
 10
36.2344
 20
18.9014
 11
36.2066
 21
18.9642
  0
LINE
  8
0
 10
36.2066
 20
18.9642
 11
36.1818
 21
19.0284
  0
LINE
  8
0
 10
36.1818
 20
19.0284
 11
36.1603
 21
19.0936
  0
LINE
  8
0
 10
36.1603
 20
19.0936
 11
36.142
 21
19.1598
  0
LINE
  8
0
 10
36.142
 20
19.1598
 11
36.1269
 21
19.2269
  0
LINE
  8
0
 10
36.1269
 20
19.2269
 11
36.1151
 21
19.2946
  0
LINE
  8
0
 10
36.1151
 20
19.2946
 11
36.1067
 21
19.3628
  0
LINE
  8
0
 10
36.1067
 20
19.3628
 11
36.1017
 21
19.4313
  0
LINE
  8
0
 10
36.1017
 20
19.4313
 11
36.1
 21
19.5
  0
LINE
  8
0
 10
36.1
 20
19.5
 11
36.1017
 21
19.5687
  0
LINE
  8
0
 10
36.1017
 20
19.5687
 11
36.1067
 21
19.6372
  0
LINE
  8
0
 10
36.1067
 20
19.6372
 11
36.1151
 21
19.7054
  0
LINE
  8
0
 10
36.1151
 20
19.7054
 11
36.1269
 21
19.7731
  0
LINE
  8
0
 10
36.1269
 20
19.7731
 11
36.142
 21
19.8402
  0
LINE
  8
0
 10
36.142
 20
19.8402
 11
36.1603
 21
19.9064
  0
LINE
  8
0
 10
36.1603
 20
19.9064
 11
36.1818
 21
19.9716
  0
LINE
  8
0
 10
36.1818
 20
19.9716
 11
36.2066
 21
20.0358
  0
LINE
  8
0
 10
36.2066
 20
20.0358
 11
36.2344
 21
20.0986
  0
LINE
  8
0
 10
36.2344
 20
20.0986
 11
36.2653
 21
20.1599
  0
LINE
  8
0
 10
36.2653
 20
20.1599
 11
36.2992
 21
20.2197
  0
LINE
  8
0
 10
36.2992
 20
20.2197
 11
36.3359
 21
20.2778
  0
LINE
  8
0
 10
36.3359
 20
20.2778
 11
36.3755
 21
20.334
  0
LINE
  8
0
 10
36.3755
 20
20.334
 11
36.4178
 21
20.3881
  0
LINE
  8
0
 10
36.4178
 20
20.3881
 11
36.4627
 21
20.4402
  0
LINE
  8
0
 10
36.4627
 20
20.4402
 11
36.51
 21
20.4899
  0
LINE
  8
0
 10
36.51
 20
20.4899
 11
36.5598
 21
20.5373
  0
LINE
  8
0
 10
36.5598
 20
20.5373
 11
36.6118
 21
20.5822
  0
LINE
  8
0
 10
36.6118
 20
20.5822
 11
36.666
 21
20.6245
  0
LINE
  8
0
 10
36.666
 20
20.6245
 11
36.7222
 21
20.664
  0
LINE
  8
0
 10
36.7222
 20
20.664
 11
36.7802
 21
20.7008
  0
LINE
  8
0
 10
36.7802
 20
20.7008
 11
36.84
 21
20.7347
  0
LINE
  8
0
 10
36.84
 20
20.7347
 11
36.9014
 21
20.7656
  0
LINE
  8
0
 10
36.9014
 20
20.7656
 11
36.9642
 21
20.7934
  0
LINE
  8
0
 10
36.9642
 20
20.7934
 11
37.0284
 21
20.8182
  0
LINE
  8
0
 10
37.0284
 20
20.8182
 11
37.0936
 21
20.8397
  0
LINE
  8
0
 10
37.0936
 20
20.8397
 11
37.1598
 21
20.858
  0
LINE
  8
0
 10
37.1598
 20
20.858
 11
37.2269
 21
20.8731
  0
LINE
  8
0
 10
37.2269
 20
20.8731
 11
37.2946
 21
20.8848
  0
LINE
  8
0
 10
37.2946
 20
20.8848
 11
37.3628
 21
20.8932
  0
LINE
  8
0
 10
37.3628
 20
20.8932
 11
37.4313
 21
20.8983
  0
LINE
  8
0
 10
37.4313
 20
20.8983
 11
37.5
 21
20.9
  0
LINE
  8
0
 10
37.5
 20
20.9
 11
37.5687
 21
20.8983
  0
LINE
  8
0
 10
37.5687
 20
20.8983
 11
37.6372
 21
20.8932
  0
LINE
  8
0
 10
37.6372
 20
20.8932
 11
37.7054
 21
20.8848
  0
LINE
  8
0
 10
37.7054
 20
20.8848
 11
37.7731
 21
20.8731
  0
LINE
  8
0
 10
37.7731
 20
20.8731
 11
37.8402
 21
20.858
  0
LINE
  8
0
 10
37.8402
 20
20.858
 11
37.9064
 21
20.8397
  0
LINE
  8
0
 10
37.9064
 20
20.8397
 11
37.9716
 21
20.8182
  0
LINE
  8
0
 10
37.9716
 20
20.8182
 11
38.0358
 21
20.7934
  0
LINE
  8
0
 10
38.0358
 20
20.7934
 11
38.0986
 21
20.7656
  0
LINE
  8
0
 10
38.0986
 20
20.7656
 11
38.1599
 21
20.7347
  0
LINE
  8
0
 10
38.1599
 20
20.7347
 11
38.2197
 21
20.7008
  0
LINE
  8
0
 10
38.2197
 20
20.7008
 11
38.2778
 21
20.664
  0
LINE
  8
0
 10
38.2778
 20
20.664
 11
38.334
 21
20.6245
  0
LINE
  8
0
 10
38.334
 20
20.6245
 11
38.3881
 21
20.5822
  0
LINE
  8
0
 10
38.3881
 20
20.5822
 11
38.4402
 21
20.5373
  0
LINE
  8
0
 10
38.4402
 20
20.5373
 11
38.4899
 21
20.4899
  0
LINE
  8
0
 10
38.4899
 20
20.4899
 11
38.5373
 21
20.4402
  0
LINE
  8
0
 10
38.5373
 20
20.4402
 11
38.5822
 21
20.3881
  0
LINE
  8
0
 10
38.5822
 20
20.3881
 11
38.6245
 21
20.334
  0
LINE
  8
0
 10
38.6245
 20
20.334
 11
38.664
 21
20.2778
  0
LINE
  8
0
 10
38.664
 20
20.2778
 11
38.7008
 21
20.2197
  0
LINE
  8
0
 10
38.7008
 20
20.2197
 11
38.7347
 21
20.1599
  0
LINE
  8
0
 10
38.7347
 20
20.1599
 11
38.7656
 21
20.0986
  0
LINE
  8
0
 10
38.7656
 20
20.0986
 11
38.7934
 21
20.0358
  0
LINE
  8
0
 10
38.7934
 20
20.0358
 11
38.8182
 21
19.9716
  0
LINE
  8
0
 10
38.8182
 20
19.9716
 11
38.8397
 21
19.9064
  0
LINE
  8
0
 10
38.8397
 20
19.9064
 11
38.858
 21
19.8402
  0
LINE
  8
0
 10
38.858
 20
19.8402
 11
38.8731
 21
19.7731
  0
LINE
  8
0
 10
38.8731
 20
19.7731
 11
38.8848
 21
19.7054
  0
LINE
  8
0
 10
38.8848
 20
19.7054
 11
38.8932
 21
19.6372
  0
LINE
  8
0
 10
38.8932
 20
19.6372
 11
38.8983
 21
19.5687
  0
LINE
  8
0
 10
38.8983
 20
19.5687
 11
38.9
 21
19.5
  0
LINE
  8
0
 10
38.9
 20
19.5
 11
38.8983
 21
19.4313
  0
LINE
  8
0
 10
38.8983
 20
19.4313
 11
38.8932
 21
19.3628
  0
LINE
  8
0
 10
38.8932
 20
19.3628
 11
38.8848
 21
19.2946
  0
LINE
  8
0
 10
38.8848
 20
19.2946
 11
38.8731
 21
19.2269
  0
LINE
  8
0
 10
38.8731
 20
19.2269
 11
38.858
 21
19.1598
  0
LINE
  8
0
 10
38.858
 20
19.1598
 11
38.8397
 21
19.0936
  0
LINE
  8
0
 10
38.8397
 20
19.0936
 11
38.8182
 21
19.0284
  0
LINE
  8
0
 10
38.8182
 20
19.0284
 11
38.7934
 21
18.9642
  0
LINE
  8
0
 10
38.7934
 20
18.9642
 11
38.7656
 21
18.9014
  0
LINE
  8
0
 10
38.7656
 20
18.9014
 11
38.7347
 21
18.84
  0
LINE
  8
0
 10
38.7347
 20
18.84
 11
38.7008
 21
18.7802
  0
LINE
  8
0
 10
38.7008
 20
18.7802
 11
38.664
 21
18.7222
  0
LINE
  8
0
 10
38.664
 20
18.7222
 11
38.6245
 21
18.666
  0
LINE
  8
0
 10
38.6245
 20
18.666
 11
38.5822
 21
18.6118
  0
LINE
  8
0
 10
38.5822
 20
18.6118
 11
38.5373
 21
18.5598
  0
LINE
  8
0
 10
38.5373
 20
18.5598
 11
38.4899
 21
18.51
  0
LINE
  8
0
 10
38.4899
 20
18.51
 11
38.4402
 21
18.4627
  0
LINE
  8
0
 10
38.4402
 20
18.4627
 11
38.3881
 21
18.4178
  0
LINE
  8
0
 10
38.3881
 20
18.4178
 11
38.334
 21
18.3755
  0
LINE
  8
0
 10
38.334
 20
18.3755
 11
38.2778
 21
18.3359
  0
LINE
  8
0
 10
38.2778
 20
18.3359
 11
38.2197
 21
18.2992
  0
LINE
  8
0
 10
38.2197
 20
18.2992
 11
38.1599
 21
18.2653
  0
LINE
  8
0
 10
38.1599
 20
18.2653
 11
38.0986
 21
18.2344
  0
LINE
  8
0
 10
38.0986
 20
18.2344
 11
38.0358
 21
18.2066
  0
LINE
  8
0
 10
38.0358
 20
18.2066
 11
37.9716
 21
18.1818
  0
LINE
  8
0
 10
37.9716
 20
18.1818
 11
37.9064
 21
18.1603
  0
LINE
  8
0
 10
37.9064
 20
18.1603
 11
37.8402
 21
18.142
  0
LINE
  8
0
 10
37.8402
 20
18.142
 11
37.7731
 21
18.1269
  0
LINE
  8
0
 10
37.7731
 20
18.1269
 11
37.7054
 21
18.1151
  0
LINE
  8
0
 10
37.7054
 20
18.1151
 11
37.6372
 21
18.1067
  0
LINE
  8
0
 10
37.6372
 20
18.1067
 11
37.5687
 21
18.1017
  0
LINE
  8
0
 10
37.5687
 20
18.1017
 11
37.5
 21
18.1
  0
LINE
  8
0
 10
37.5
 20
18.1
 11
37.4313
 21
18.1017
  0
LINE
  8
0
 10
5.5
 20
1
 11
5.5
 21
14
  0
LINE
  8
0
 10
5.5
 20
14
 11
14.5
 21
14
  0
LINE
  8
0
 10
14.5
 20
14
 11
14.5
 21
1
  0
LINE
  8
0
 10
14.5
 20
1
 11
5.5
 21
1
  0
LINE
  8
0
 10
-10.2699
 20
2.00662
 11
-10.5391
 21
2.02647
  0
LINE
  8
0
 10
-10.5391
 20
2.02647
 11
-10.807
 21
2.05952
  0
LINE
  8
0
 10
-10.807
 20
2.05952
 11
-11.073
 21
2.10567
  0
LINE
  8
0
 10
-11.073
 20
2.10567
 11
-11.3364
 21
2.16483
  0
LINE
  8
0
 10
-11.3364
 20
2.16483
 11
-11.5966
 21
2.23682
  0
LINE
  8
0
 10
-11.5966
 20
2.23682
 11
-11.8529
 21
2.3215
  0
LINE
  8
0
 10
-11.8529
 20
2.3215
 11
-12.1048
 21
2.41866
  0
LINE
  8
0
 10
-12.1048
 20
2.41866
 11
-12.3515
 21
2.52805
  0
LINE
  8
0
 10
-12.3515
 20
2.52805
 11
-12.5927
 21
2.64943
  0
LINE
  8
0
 10
-12.5927
 20
2.64943
 11
-12.8276
 21
2.78249
  0
LINE
  8
0
 10
-12.8276
 20
2.78249
 11
-13.0556
 21
2.92691
  0
LINE
  8
0
 10
-13.0556
 20
2.92691
 11
-13.2763
 21
3.08235
  0
LINE
  8
0
 10
-13.2763
 20
3.08235
 11
-13.4892
 21
3.24843
  0
LINE
  8
0
 10
-13.4892
 20
3.24843
 11
-13.6936
 21
3.42476
  0
LINE
  8
0
 10
-13.6936
 20
3.42476
 11
-13.8891
 21
3.6109
  0
LINE
  8
0
 10
-13.8891
 20
3.6109
 11
-14.0752
 21
3.80641
  0
LINE
  8
0
 10
-14.0752
 20
3.80641
 11
-14.2516
 21
4.01083
  0
LINE
  8
0
 10
-14.2516
 20
4.01083
 11
-14.4176
 21
4.22365
  0
LINE
  8
0
 10
-14.4176
 20
4.22365
 11
-14.5731
 21
4.44435
  0
LINE
  8
0
 10
-14.5731
 20
4.44435
 11
-14.7175
 21
4.67242
  0
LINE
  8
0
 10
-14.7175
 20
4.67242
 11
-14.8506
 21
4.9073
  0
LINE
  8
0
 10
-14.8506
 20
4.9073
 11
-14.9719
 21
5.14844
  0
LINE
  8
0
 10
-14.9719
 20
5.14844
 11
-15.0813
 21
5.39523
  0
LINE
  8
0
 10
-15.0813
 20
5.39523
 11
-15.1785
 21
5.64709
  0
LINE
  8
0
 10
-15.1785
 20
5.64709
 11
-15.2632
 21
5.90343
  0
LINE
  8
0
 10
-15.2632
 20
5.90343
 11
-15.3352
 21
6.1636
  0
LINE
  8
0
 10
-15.3352
 20
6.1636
 11
-15.3943
 21
6.427
  0
LINE
  8
0
 10
-15.3943
 20
6.427
 11
-15.4405
 21
6.69298
  0
LINE
  8
0
 10
-15.4405
 20
6.69298
 11
-15.4735
 21
6.96089
  0
LINE
  8
0
 10
-15.4735
 20
6.96089
 11
-15.4934
 21
7.23012
  0
LINE
  8
0
 10
-15.4934
 20
7.23012
 11
-15.5
 21
7.5
  0
LINE
  8
0
 10
-15.5
 20
7.5
 11
-15.4934
 21
7.76987
  0
LINE
  8
0
 10
-15.4934
 20
7.76987
 11
-15.4735
 21
8.03909
  0
LINE
  8
0
 10
-15.4735
 20
8.03909
 11
-15.4405
 21
8.30701
  0
LINE
  8
0
 10
-15.4405
 20
8.30701
 11
-15.3943
 21
8.57298
  0
LINE
  8
0
 10
-15.3943
 20
8.57298
 11
-15.3352
 21
8.83638
  0
LINE
  8
0
 10
-15.3352
 20
8.83638
 11
-15.2632
 21
9.09656
  0
LINE
  8
0
 10
-15.2632
 20
9.09656
 11
-15.1785
 21
9.35289
  0
LINE
  8
0
 10
-15.1785
 20
9.35289
 11
-15.0813
 21
9.60475
  0
LINE
  8
0
 10
-15.0813
 20
9.60475
 11
-14.9719
 21
9.85155
  0
LINE
  8
0
 10
-14.9719
 20
9.85155
 11
-14.8506
 21
10.0927
  0
LINE
  8
0
 10
-14.8506
 20
10.0927
 11
-14.7175
 21
10.3276
  0
LINE
  8
0
 10
-14.7175
 20
10.3276
 11
-14.5731
 21
10.5556
  0
LINE
  8
0
 10
-14.5731
 20
10.5556
 11
-14.4176
 21
10.7763
  0
LINE
  8
0
 10
-14.4176
 20
10.7763
 11
-14.2516
 21
10.9892
  0
LINE
  8
0
 10
-14.2516
 20
10.9892
 11
-14.0752
 21
11.1936
  0
LINE
  8
0
 10
-14.0752
 20
11.1936
 11
-13.8891
 21
11.3891
  0
LINE
  8
0
 10
-13.8891
 20
11.3891
 11
-13.6936
 21
11.5752
  0
LINE
  8
0
 10
-13.6936
 20
11.5752
 11
-13.4892
 21
11.7516
  0
LINE
  8
0
 10
-13.4892
 20
11.7516
 11
-13.2763
 21
11.9176
  0
LINE
  8
0
 10
-13.2763
 20
11.9176
 11
-13.0556
 21
12.0731
  0
LINE
  8
0
 10
-13.0556
 20
12.0731
 11
-12.8276
 21
12.2175
  0
LINE
  8
0
 10
-12.8276
 20
12.2175
 11
-12.5927
 21
12.3506
  0
LINE
  8
0
 10
-12.5927
 20
12.3506
 11
-12.3515
 21
12.4719
  0
LINE
  8
0
 10
-12.3515
 20
12.4719
 11
-12.1048
 21
12.5813
  0
LINE
  8
0
 10
-12.1048
 20
12.5813
 11
-11.8529
 21
12.6785
  0
LINE
  8
0
 10
-11.8529
 20
12.6785
 11
-11.5966
 21
12.7632
  0
LINE
  8
0
 10
-11.5966
 20
12.7632
 11
-11.3364
 21
12.8352
  0
LINE
  8
0
 10
-11.3364
 20
12.8352
 11
-11.073
 21
12.8943
  0
LINE
  8
0
 10
-11.073
 20
12.8943
 11
-10.807
 21
12.9405
  0
LINE
  8
0
 10
-10.807
 20
12.9405
 11
-10.5391
 21
12.9735
  0
LINE
  8
0
 10
-10.5391
 20
12.9735
 11
-10.2699
 21
12.9934
  0
LINE
  8
0
 10
-10.2699
 20
12.9934
 11
-10
 21
13
  0
LINE
  8
0
 10
-10
 20
13
 11
-9.73012
 21
12.9934
  0
LINE
  8
0
 10
-9.73012
 20
12.9934
 11
-9.46089
 21
12.9735
  0
LINE
  8
0
 10
-9.46089
 20
12.9735
 11
-9.19298
 21
12.9405
  0
LINE
  8
0
 10
-9.19298
 20
12.9405
 11
-8.927
 21
12.8943
  0
LINE
  8
0
 10
-8.927
 20
12.8943
 11
-8.6636
 21
12.8352
  0
LINE
  8
0
 10
-8.6636
 20
12.8352
 11
-8.40343
 21
12.7632
  0
LINE
  8
0
 10
-8.40343
 20
12.7632
 11
-8.14709
 21
12.6785
  0
LINE
  8
0
 10
-8.14709
 20
12.6785
 11
-7.89523
 21
12.5813
  0
LINE
  8
0
 10
-7.89523
 20
12.5813
 11
-7.64844
 21
12.4719
  0
LINE
  8
0
 10
-7.64844
 20
12.4719
 11
-7.4073
 21
12.3506
  0
LINE
  8
0
 10
-7.4073
 20
12.3506
 11
-7.17242
 21
12.2175
  0
LINE
  8
0
 10
-7.17242
 20
12.2175
 11
-6.94435
 21
12.0731
  0
LINE
  8
0
 10
-6.94435
 20
12.0731
 11
-6.72365
 21
11.9176
  0
LINE
  8
0
 10
-6.72365
 20
11.9176
 11
-6.51083
 21
11.7516
  0
LINE
  8
0
 10
-6.51083
 20
11.7516
 11
-6.30641
 21
11.5752
  0
LINE
  8
0
 10
-6.30641
 20
11.5752
 11
-6.1109
 21
11.3891
  0
LINE
  8
0
 10
-6.1109
 20
11.3891
 11
-5.92476
 21
11.1936
  0
LINE
  8
0
 10
-5.92476
 20
11.1936
 11
-5.74843
 21
10.9892
  0
LINE
  8
0
 10
-5.74843
 20
10.9892
 11
-5.58235
 21
10.7763
  0
LINE
  8
0
 10
-5.58235
 20
10.7763
 11
-5.42691
 21
10.5556
  0
LINE
  8
0
 10
-5.42691
 20
10.5556
 11
-5.28249
 21
10.3276
  0
LINE
  8
0
 10
-5.28249
 20
10.3276
 11
-5.14943
 21
10.0927
  0
LINE
  8
0
 10
-5.14943
 20
10.0927
 11
-5.02805
 21
9.85155
  0
LINE
  8
0
 10
-5.02805
 20
9.85155
 11
-4.91866
 21
9.60475
  0
LINE
  8
0
 10
-4.91866
 20
9.60475
 11
-4.8215
 21
9.35289
  0
LINE
  8
0
 10
-4.8215
 20
9.35289
 11
-4.73682
 21
9.09656
  0
LINE
  8
0
 10
-4.73682
 20
9.09656
 11
-4.66483
 21
8.83638
  0
LINE
  8
0
 10
-4.66483
 20
8.83638
 11
-4.60567
 21
8.57298
  0
LINE
  8
0
 10
-4.60567
 20
8.57298
 11
-4.55952
 21
8.30701
  0
LINE
  8
0
 10
-4.55952
 20
8.30701
 11
-4.52647
 21
8.03909
  0
LINE
  8
0
 10
-4.52647
 20
8.03909
 11
-4.50662
 21
7.76987
  0
LINE
  8
0
 10
-4.50662
 20
7.76987
 11
-4.5
 21
7.5
  0
LINE
  8
0
 10
-4.5
 20
7.5
 11
-4.50662
 21
7.23012
  0
LINE
  8
0
 10
-4.50662
 20
7.23012
 11
-4.52647
 21
6.96089
  0
LINE
  8
0
 10
-4.52647
 20
6.96089
 11
-4.55952
 21
6.69298
  0
LINE
  8
0
 10
-4.55952
 20
6.69298
 11
-4.60567
 21
6.427
  0
LINE
  8
0
 10
-4.60567
 20
6.427
 11
-4.66483
 21
6.1636
  0
LINE
  8
0
 10
-4.66483
 20
6.1636
 11
-4.73682
 21
5.90343
  0
LINE
  8
0
 10
-4.73682
 20
5.90343
 11
-4.8215
 21
5.64709
  0
LINE
  8
0
 10
-4.8215
 20
5.64709
 11
-4.91866
 21
5.39523
  0
LINE
  8
0
 10
-4.91866
 20
5.39523
 11
-5.02805
 21
5.14844
  0
LINE
  8
0
 10
-5.02805
 20
5.14844
 11
-5.14943
 21
4.9073
  0
LINE
  8
0
 10
-5.14943
 20
4.9073
 11
-5.28249
 21
4.67242
  0
LINE
  8
0
 10
-5.28249
 20
4.67242
 11
-5.42691
 21
4.44435
  0
LINE
  8
0
 10
-5.42691
 20
4.44435
 11
-5.58235
 21
4.22365
  0
LINE
  8
0
 10
-5.58235
 20
4.22365
 11
-5.74843
 21
4.01083
  0
LINE
  8
0
 10
-5.74843
 20
4.01083
 11
-5.92476
 21
3.80641
  0
LINE
  8
0
 10
-5.92476
 20
3.80641
 11
-6.1109
 21
3.6109
  0
LINE
  8
0
 10
-6.1109
 20
3.6109
 11
-6.30641
 21
3.42476
  0
LINE
  8
0
 10
-6.30641
 20
3.42476
 11
-6.51083
 21
3.24843
  0
LINE
  8
0
 10
-6.51083
 20
3.24843
 11
-6.72365
 21
3.08235
  0
LINE
  8
0
 10
-6.72365
 20
3.08235
 11
-6.94435
 21
2.92691
  0
LINE
  8
0
 10
-6.94435
 20
2.92691
 11
-7.17242
 21
2.78249
  0
LINE
  8
0
 10
-7.17242
 20
2.78249
 11
-7.4073
 21
2.64943
  0
LINE
  8
0
 10
-7.4073
 20
2.64943
 11
-7.64844
 21
2.52805
  0
LINE
  8
0
 10
-7.64844
 20
2.52805
 11
-7.89523
 21
2.41866
  0
LINE
  8
0
 10
-7.89523
 20
2.41866
 11
-8.14709
 21
2.3215
  0
LINE
  8
0
 10
-8.14709
 20
2.3215
 11
-8.40343
 21
2.23682
  0
LINE
  8
0
 10
-8.40343
 20
2.23682
 11
-8.6636
 21
2.16483
  0
LINE
  8
0
 10
-8.6636
 20
2.16483
 11
-8.927
 21
2.10567
  0
LINE
  8
0
 10
-8.927
 20
2.10567
 11
-9.19298
 21
2.05952
  0
LINE
  8
0
 10
-9.19298
 20
2.05952
 11
-9.46089
 21
2.02647
  0
LINE
  8
0
 10
-9.46089
 20
2.02647
 11
-9.73012
 21
2.00662
  0
LINE
  8
0
 10
-9.73012
 20
2.00662
 11
-10
 21
2
  0
LINE
  8
0
 10
-10
 20
2
 11
-10.2699
 21
2.00662
  0
LINE
  8
0
 10
-37.5687
 20
-20.8983
 11
-37.6372
 21
-20.8932
  0
LINE
  8
0
 10
-37.6372
 20
-20.8932
 11
-37.7054
 21
-20.8848
  0
LINE
  8
0
 10
-37.7054
 20
-20.8848
 11
-37.7731
 21
-20.8731
  0
LINE
  8
0
 10
-37.7731
 20
-20.8731
 11
-37.8402
 21
-20.858
  0
LINE
  8
0
 10
-37.8402
 20
-20.858
 11
-37.9064
 21
-20.8397
  0
LINE
  8
0
 10
-37.9064
 20
-20.8397
 11
-37.9716
 21
-20.8182
  0
LINE
  8
0
 10
-37.9716
 20
-20.8182
 11
-38.0358
 21
-20.7934
  0
LINE
  8
0
 10
-38.0358
 20
-20.7934
 11
-38.0986
 21
-20.7656
  0
LINE
  8
0
 10
-38.0986
 20
-20.7656
 11
-38.1599
 21
-20.7347
  0
LINE
  8
0
 10
-38.1599
 20
-20.7347
 11
-38.2197
 21
-20.7008
  0
LINE
  8
0
 10
-38.2197
 20
-20.7008
 11
-38.2778
 21
-20.664
  0
LINE
  8
0
 10
-38.2778
 20
-20.664
 11
-38.334
 21
-20.6245
  0
LINE
  8
0
 10
-38.334
 20
-20.6245
 11
-38.3881
 21
-20.5822
  0
LINE
  8
0
 10
-38.3881
 20
-20.5822
 11
-38.4402
 21
-20.5373
  0
LINE
  8
0
 10
-38.4402
 20
-20.5373
 11
-38.4899
 21
-20.4899
  0
LINE
  8
0
 10
-38.4899
 20
-20.4899
 11
-38.5373
 21
-20.4402
  0
LINE
  8
0
 10
-38.5373
 20
-20.4402
 11
-38.5822
 21
-20.3881
  0
LINE
  8
0
 10
-38.5822
 20
-20.3881
 11
-38.6245
 21
-20.334
  0
LINE
  8
0
 10
-38.6245
 20
-20.334
 11
-38.664
 21
-20.2778
  0
LINE
  8
0
 10
-38.664
 20
-20.2778
 11
-38.7008
 21
-20.2197
  0
LINE
  8
0
 10
-38.7008
 20
-20.2197
 11
-38.7347
 21
-20.1599
  0
LINE
  8
0
 10
-38.7347
 20
-20.1599
 11
-38.7656
 21
-20.0986
  0
LINE
  8
0
 10
-38.7656
 20
-20.0986
 11
-38.7934
 21
-20.0358
  0
LINE
  8
0
 10
-38.7934
 20
-20.0358
 11
-38.8182
 21
-19.9716
  0
LINE
  8
0
 10
-38.8182
 20
-19.9716
 11
-38.8397
 21
-19.9064
  0
LINE
  8
0
 10
-38.8397
 20
-19.9064
 11
-38.858
 21
-19.8402
  0
LINE
  8
0
 10
-38.858
 20
-19.8402
 11
-38.8731
 21
-19.7731
  0
LINE
  8
0
 10
-38.8731
 20
-19.7731
 11
-38.8848
 21
-19.7054
  0
LINE
  8
0
 10
-38.8848
 20
-19.7054
 11
-38.8932
 21
-19.6372
  0
LINE
  8
0
 10
-38.8932
 20
-19.6372
 11
-38.8983
 21
-19.5687
  0
LINE
  8
0
 10
-38.8983
 20
-19.5687
 11
-38.9
 21
-19.5
  0
LINE
  8
0
 10
-38.9
 20
-19.5
 11
-38.8983
 21
-19.4313
  0
LINE
  8
0
 10
-38.8983
 20
-19.4313
 11
-38.8932
 21
-19.3628
  0
LINE
  8
0
 10
-38.8932
 20
-19.3628
 11
-38.8848
 21
-19.2946
  0
LINE
  8
0
 10
-38.8848
 20
-19.2946
 11
-38.8731
 21
-19.2269
  0
LINE
  8
0
 10
-38.8731
 20
-19.2269
 11
-38.858
 21
-19.1598
  0
LINE
  8
0
 10
-38.858
 20
-19.1598
 11
-38.8397
 21
-19.0936
  0
LINE
  8
0
 10
-38.8397
 20
-19.0936
 11
-38.8182
 21
-19.0284
  0
LINE
  8
0
 10
-38.8182
 20
-19.0284
 11
-38.7934
 21
-18.9642
  0
LINE
  8
0
 10
-38.7934
 20
-18.9642
 11
-38.7656
 21
-18.9014
  0
LINE
  8
0
 10
-38.7656
 20
-18.9014
 11
-38.7347
 21
-18.84
  0
LINE
  8
0
 10
-38.7347
 20
-18.84
 11
-38.7008
 21
-18.7802
  0
LINE
  8
0
 10
-38.7008
 20
-18.7802
 11
-38.664
 21
-18.7222
  0
LINE
  8
0
 10
-38.664
 20
-18.7222
 11
-38.6245
 21
-18.666
  0
LINE
  8
0
 10
-38.6245
 20
-18.666
 11
-38.5822
 21
-18.6118
  0
LINE
  8
0
 10
-38.5822
 20
-18.6118
 11
-38.5373
 21
-18.5598
  0
LINE
  8
0
 10
-38.5373
 20
-18.5598
 11
-38.4899
 21
-18.51
  0
LINE
  8
0
 10
-38.4899
 20
-18.51
 11
-38.4402
 21
-18.4627
  0
LINE
  8
0
 10
-38.4402
 20
-18.4627
 11
-38.3881
 21
-18.4178
  0
LINE
  8
0
 10
-38.3881
 20
-18.4178
 11
-38.334
 21
-18.3755
  0
LINE
  8
0
 10
-38.334
 20
-18.3755
 11
-38.2778
 21
-18.3359
  0
LINE
  8
0
 10
-38.2778
 20
-18.3359
 11
-38.2197
 21
-18.2992
  0
LINE
  8
0
 10
-38.2197
 20
-18.2992
 11
-38.1599
 21
-18.2653
  0
LINE
  8
0
 10
-38.1599
 20
-18.2653
 11
-38.0986
 21
-18.2344
  0
LINE
  8
0
 10
-38.0986
 20
-18.2344
 11
-38.0358
 21
-18.2066
  0
LINE
  8
0
 10
-38.0358
 20
-18.2066
 11
-37.9716
 21
-18.1818
  0
LINE
  8
0
 10
-37.9716
 20
-18.1818
 11
-37.9064
 21
-18.1603
  0
LINE
  8
0
 10
-37.9064
 20
-18.1603
 11
-37.8402
 21
-18.142
  0
LINE
  8
0
 10
-37.8402
 20
-18.142
 11
-37.7731
 21
-18.1269
  0
LINE
  8
0
 10
-37.7731
 20
-18.1269
 11
-37.7054
 21
-18.1151
  0
LINE
  8
0
 10
-37.7054
 20
-18.1151
 11
-37.6372
 21
-18.1067
  0
LINE
  8
0
 10
-37.6372
 20
-18.1067
 11
-37.5687
 21
-18.1017
  0
LINE
  8
0
 10
-37.5687
 20
-18.1017
 11
-37.5
 21
-18.1
  0
LINE
  8
0
 10
-37.5
 20
-18.1
 11
-37.4313
 21
-18.1017
  0
LINE
  8
0
 10
-37.4313
 20
-18.1017
 11
-37.3628
 21
-18.1067
  0
LINE
  8
0
 10
-37.3628
 20
-18.1067
 11
-37.2946
 21
-18.1151
  0
LINE
  8
0
 10
-37.2946
 20
-18.1151
 11
-37.2269
 21
-18.1269
  0
LINE
  8
0
 10
-37.2269
 20
-18.1269
 11
-37.1598
 21
-18.142
  0
LINE
  8
0
 10
-37.1598
 20
-18.142
 11
-37.0936
 21
-18.1603
  0
LINE
  8
0
 10
-37.0936
 20
-18.1603
 11
-37.0284
 21
-18.1818
  0
LINE
  8
0
 10
-37.0284
 20
-18.1818
 11
-36.9642
 21
-18.2066
  0
LINE
  8
0
 10
-36.9642
 20
-18.2066
 11
-36.9014
 21
-18.2344
  0
LINE
  8
0
 10
-36.9014
 20
-18.2344
 11
-36.84
 21
-18.2653
  0
LINE
  8
0
 10
-36.84
 20
-18.2653
 11
-36.7802
 21
-18.2992
  0
LINE
  8
0
 10
-36.7802
 20
-18.2992
 11
-36.7222
 21
-18.3359
  0
LINE
  8
0
 10
-36.7222
 20
-18.3359
 11
-36.666
 21
-18.3755
  0
LINE
  8
0
 10
-36.666
 20
-18.3755
 11
-36.6118
 21
-18.4178
  0
LINE
  8
0
 10
-36.6118
 20
-18.4178
 11
-36.5598
 21
-18.4627
  0
LINE
  8
0
 10
-36.5598
 20
-18.4627
 11
-36.51
 21
-18.51
  0
LINE
  8
0
 10
-36.51
 20
-18.51
 11
-36.4627
 21
-18.5598
  0
LINE
  8
0
 10
-36.4627
 20
-18.5598
 11
-36.4178
 21
-18.6118
  0
LINE
  8
0
 10
-36.4178
 20
-18.6118
 11
-36.3755
 21
-18.666
  0
LINE
  8
0
 10
-36.3755
 20
-18.666
 11
-36.3359
 21
-18.7222
  0
LINE
  8
0
 10
-36.3359
 20
-18.7222
 11
-36.2992
 21
-18.7802
  0
LINE
  8
0
 10
-36.2992
 20
-18.7802
 11
-36.2653
 21
-18.84
  0
LINE
  8
0
 10
-36.2653
 20
-18.84
 11
-36.2344
 21
-18.9014
  0
LINE
  8
0
 10
-36.2344
 20
-18.9014
 11
-36.2066
 21
-18.9642
  0
LINE
  8
0
 10
-36.2066
 20
-18.9642
 11
-36.1818
 21
-19.0284
  0
LINE
  8
0
 10
-36.1818
 20
-19.0284
 11
-36.1603
 21
-19.0936
  0
LINE
  8
0
 10
-36.1603
 20
-19.0936
 11
-36.142
 21
-19.1598
  0
LINE
  8
0
 10
-36.142
 20
-19.1598
 11
-36.1269
 21
-19.2269
  0
LINE
  8
0
 10
-36.1269
 20
-19.2269
 11
-36.1151
 21
-19.2946
  0
LINE
  8
0
 10
-36.1151
 20
-19.2946
 11
-36.1067
 21
-19.3628
  0
LINE
  8
0
 10
-36.1067
 20
-19.3628
 11
-36.1017
 21
-19.4313
  0
LINE
  8
0
 10
-36.1017
 20
-19.4313
 11
-36.1
 21
-19.5
  0
LINE
  8
0
 10
-36.1
 20
-19.5
 11
-36.1017
 21
-19.5687
  0
LINE
  8
0
 10
-36.1017
 20
-19.5687
 11
-36.1067
 21
-19.6372
  0
LINE
  8
0
 10
-36.1067
 20
-19.6372
 11
-36.1151
 21
-19.7054
  0
LINE
  8
0
 10
-36.1151
 20
-19.7054
 11
-36.1269
 21
-19.7731
  0
LINE
  8
0
 10
-36.1269
 20
-19.7731
 11
-36.142
 21
-19.8402
  0
LINE
  8
0
 10
-36.142
 20
-19.8402
 11
-36.1603
 21
-19.9064
  0
LINE
  8
0
 10
-36.1603
 20
-19.9064
 11
-36.1818
 21
-19.9716
  0
LINE
  8
0
 10
-36.1818
 20
-19.9716
 11
-36.2066
 21
-20.0358
  0
LINE
  8
0
 10
-36.2066
 20
-20.0358
 11
-36.2344
 21
-20.0986
  0
LINE
  8
0
 10
-36.2344
 20
-20.0986
 11
-36.2653
 21
-20.1599
  0
LINE
  8
0
 10
-36.2653
 20
-20.1599
 11
-36.2992
 21
-20.2197
  0
LINE
  8
0
 10
-36.2992
 20
-20.2197
 11
-36.3359
 21
-20.2778
  0
LINE
  8
0
 10
-36.3359
 20
-20.2778
 11
-36.3755
 21
-20.334
  0
LINE
  8
0
 10
-36.3755
 20
-20.334
 11
-36.4178
 21
-20.3881
  0
LINE
  8
0
 10
-36.4178
 20
-20.3881
 11
-36.4627
 21
-20.4402
  0
LINE
  8
0
 10
-36.4627
 20
-20.4402
 11
-36.51
 21
-20.4899
  0
LINE
  8
0
 10
-36.51
 20
-20.4899
 11
-36.5598
 21
-20.5373
  0
LINE
  8
0
 10
-36.5598
 20
-20.5373
 11
-36.6118
 21
-20.5822
  0
LINE
  8
0
 10
-36.6118
 20
-20.5822
 11
-36.666
 21
-20.6245
  0
LINE
  8
0
 10
-36.666
 20
-20.6245
 11
-36.7222
 21
-20.664
  0
LINE
  8
0
 10
-36.7222
 20
-20.664
 11
-36.7802
 21
-20.7008
  0
LINE
  8
0
 10
-36.7802
 20
-20.7008
 11
-36.84
 21
-20.7347
  0
LINE
  8
0
 10
-36.84
 20
-20.7347
 11
-36.9014
 21
-20.7656
  0
LINE
  8
0
 10
-36.9014
 20
-20.7656
 11
-36.9642
 21
-20.7934
  0
LINE
  8
0
 10
-36.9642
 20
-20.7934
 11
-37.0284
 21
-20.8182
  0
LINE
  8
0
 10
-37.0284
 20
-20.8182
 11
-37.0936
 21
-20.8397
  0
LINE
  8
0
 10
-37.0936
 20
-20.8397
 11
-37.1598
 21
-20.858
  0
LINE
  8
0
 10
-37.1598
 20
-20.858
 11
-37.2269
 21
-20.8731
  0
LINE
  8
0
 10
-37.2269
 20
-20.8731
 11
-37.2946
 21
-20.8848
  0
LINE
  8
0
 10
-37.2946
 20
-20.8848
 11
-37.3628
 21
-20.8932
  0
LINE
  8
0
 10
-37.3628
 20
-20.8932
 11
-37.4313
 21
-20.8983
  0
LINE
  8
0
 10
-37.4313
 20
-20.8983
 11
-37.5
 21
-20.9
  0
LINE
  8
0
 10
-37.5
 20
-20.9
 11
-37.5687
 21
-20.8983
  0
LINE
  8
0
 10
37.4313
 20
-20.8983
 11
37.3628
 21
-20.8932
  0
LINE
  8
0
 10
37.3628
 20
-20.8932
 11
37.2946
 21
-20.8848
  0
LINE
  8
0
 10
37.2946
 20
-20.8848
 11
37.2269
 21
-20.8731
  0
LINE
  8
0
 10
37.2269
 20
-20.8731
 11
37.1598
 21
-20.858
  0
LINE
  8
0
 10
37.1598
 20
-20.858
 11
37.0936
 21
-20.8397
  0
LINE
  8
0
 10
37.0936
 20
-20.8397
 11
37.0284
 21
-20.8182
  0
LINE
  8
0
 10
37.0284
 20
-20.8182
 11
36.9642
 21
-20.7934
  0
LINE
  8
0
 10
36.9642
 20
-20.7934
 11
36.9014
 21
-20.7656
  0
LINE
  8
0
 10
36.9014
 20
-20.7656
 11
36.84
 21
-20.7347
  0
LINE
  8
0
 10
36.84
 20
-20.7347
 11
36.7802
 21
-20.7008
  0
LINE
  8
0
 10
36.7802
 20
-20.7008
 11
36.7222
 21
-20.664
  0
LINE
  8
0
 10
36.7222
 20
-20.664
 11
36.666
 21
-20.6245
  0
LINE
  8
0
 10
36.666
 20
-20.6245
 11
36.6118
 21
-20.5822
  0
LINE
  8
0
 10
36.6118
 20
-20.5822
 11
36.5598
 21
-20.5373
  0
LINE
  8
0
 10
36.5598
 20
-20.5373
 11
36.51
 21
-20.4899
  0
LINE
  8
0
 10
36.51
 20
-20.4899
 11
36.4627
 21
-20.4402
  0
LINE
  8
0
 10
36.4627
 20
-20.4402
 11
36.4178
 21
-20.3881
  0
LINE
  8
0
 10
36.4178
 20
-20.3881
 11
36.3755
 21
-20.334
  0
LINE
  8
0
 10
36.3755
 20
-20.334
 11
36.3359
 21
-20.2778
  0
LINE
  8
0
 10
36.3359
 20
-20.2778
 11
36.2992
 21
-20.2197
  0
LINE
  8
0
 10
36.2992
 20
-20.2197
 11
36.2653
 21
-20.1599
  0
LINE
  8
0
 10
36.2653
 20
-20.1599
 11
36.2344
 21
-20.0986
  0
LINE
  8
0
 10
36.2344
 20
-20.0986
 11
36.2066
 21
-20.0358
  0
LINE
  8
0
 10
36.2066
 20
-20.0358
 11
36.1818
 21
-19.9716
  0
LINE
  8
0
 10
36.1818
 20
-19.9716
 11
36.1603
 21
-19.9064
  0
LINE
  8
0
 10
36.1603
 20
-19.9064
 11
36.142
 21
-19.8402
  0
LINE
  8
0
 10
36.142
 20
-19.8402
 11
36.1269
 21
-19.7731
  0
LINE
  8
0
 10
36.1269
 20
-19.7731
 11
36.1151
 21
-19.7054
  0
LINE
  8
0
 10
36.1151
 20
-19.7054
 11
36.1067
 21
-19.6372
  0
LINE
  8
0
 10
36.1067
 20
-19.6372
 11
36.1017
 21
-19.5687
  0
LINE
  8
0
 10
36.1017
 20
-19.5687
 11
36.1
 21
-19.5
  0
LINE
  8
0
 10
36.1
 20
-19.5
 11
36.1017
 21
-19.4313
  0
LINE
  8
0
 10
36.1017
 20
-19.4313
 11
36.1067
 21
-19.3628
  0
LINE
  8
0
 10
36.1067
 20
-19.3628
 11
36.1151
 21
-19.2946
  0
LINE
  8
0
 10
36.1151
 20
-19.2946
 11
36.1269
 21
-19.2269
  0
LINE
  8
0
 10
36.1269
 20
-19.2269
 11
36.142
 21
-19.1598
  0
LINE
  8
0
 10
36.142
 20
-19.1598
 11
36.1603
 21
-19.0936
  0
LINE
  8
0
 10
36.1603
 20
-19.0936
 11
36.1818
 21
-19.0284
  0
LINE
  8
0
 10
36.1818
 20
-19.0284
 11
36.2066
 21
-18.9642
  0
LINE
  8
0
 10
36.2066
 20
-18.9642
 11
36.2344
 21
-18.9014
  0
LINE
  8
0
 10
36.2344
 20
-18.9014
 11
36.2653
 21
-18.84
  0
LINE
  8
0
 10
36.2653
 20
-18.84
 11
36.2992
 21
-18.7802
  0
LINE
  8
0
 10
36.2992
 20
-18.7802
 11
36.3359
 21
-18.7222
  0
LINE
  8
0
 10
36.3359
 20
-18.7222
 11
36.3755
 21
-18.666
  0
LINE
  8
0
 10
36.3755
 20
-18.666
 11
36.4178
 21
-18.6118
  0
LINE
  8
0
 10
36.4178
 20
-18.6118
 11
36.4627
 21
-18.5598
  0
LINE
  8
0
 10
36.4627
 20
-18.5598
 11
36.51
 21
-18.51
  0
LINE
  8
0
 10
36.51
 20
-18.51
 11
36.5598
 21
-18.4627
  0
LINE
  8
0
 10
36.5598
 20
-18.4627
 11
36.6118
 21
-18.4178
  0
LINE
  8
0
 10
36.6118
 20
-18.4178
 11
36.666
 21
-18.3755
  0
LINE
  8
0
 10
36.666
 20
-18.3755
 11
36.7222
 21
-18.3359
  0
LINE
  8
0
 10
36.7222
 20
-18.3359
 11
36.7802
 21
-18.2992
  0
LINE
  8
0
 10
36.7802
 20
-18.2992
 11
36.84
 21
-18.2653
  0
LINE
  8
0
 10
36.84
 20
-18.2653
 11
36.9014
 21
-18.2344
  0
LINE
  8
0
 10
36.9014
 20
-18.2344
 11
36.9642
 21
-18.2066
  0
LINE
  8
0
 10
36.9642
 20
-18.2066
 11
37.0284
 21
-18.1818
  0
LINE
  8
0
 10
37.0284
 20
-18.1818
 11
37.0936
 21
-18.1603
  0
LINE
  8
0
 10
37.0936
 20
-18.1603
 11
37.1598
 21
-18.142
  0
LINE
  8
0
 10
37.1598
 20
-18.142
 11
37.2269
 21
-18.1269
  0
LINE
  8
0
 10
37.2269
 20
-18.1269
 11
37.2946
 21
-18.1151
  0
LINE
  8
0
 10
37.2946
 20
-18.1151
 11
37.3628
 21
-18.1067
  0
LINE
  8
0
 10
37.3628
 20
-18.1067
 11
37.4313
 21
-18.1017
  0
LINE
  8
0
 10
37.4313
 20
-18.1017
 11
37.5
 21
-18.1
  0
LINE
  8
0
 10
37.5
 20
-18.1
 11
37.5687
 21
-18.1017
  0
LINE
  8
0
 10
37.5687
 20
-18.1017
 11
37.6372
 21
-18.1067
  0
LINE
  8
0
 10
37.6372
 20
-18.1067
 11
37.7054
 21
-18.1151
  0
LINE
  8
0
 10
37.7054
 20
-18.1151
 11
37.7731
 21
-18.1269
  0
LINE
  8
0
 10
37.7731
 20
-18.1269
 11
37.8402
 21
-18.142
  0
LINE
  8
0
 10
37.8402
 20
-18.142
 11
37.9064
 21
-18.1603
  0
LINE
  8
0
 10
37.9064
 20
-18.1603
 11
37.9716
 21
-18.1818
  0
LINE
  8
0
 10
37.9716
 20
-18.1818
 11
38.0358
 21
-18.2066
  0
LINE
  8
0
 10
38.0358
 20
-18.2066
 11
38.0986
 21
-18.2344
  0
LINE
  8
0
 10
38.0986
 20
-18.2344
 11
38.1599
 21
-18.2653
  0
LINE
  8
0
 10
38.1599
 20
-18.2653
 11
38.2197
 21
-18.2992
  0
LINE
  8
0
 10
38.2197
 20
-18.2992
 11
38.2778
 21
-18.3359
  0
LINE
  8
0
 10
38.2778
 20
-18.3359
 11
38.334
 21
-18.3755
  0
LINE
  8
0
 10
38.334
 20
-18.3755
 11
38.3881
 21
-18.4178
  0
LINE
  8
0
 10
38.3881
 20
-18.4178
 11
38.4402
 21
-18.4627
  0
LINE
  8
0
 10
38.4402
 20
-18.4627
 11
38.4899
 21
-18.51
  0
LINE
  8
0
 10
38.4899
 20
-18.51
 11
38.5373
 21
-18.5598
  0
LINE
  8
0
 10
38.5373
 20
-18.5598
 11
38.5822
 21
-18.6118
  0
LINE
  8
0
 10
38.5822
 20
-18.6118
 11
38.6245
 21
-18.666
  0
LINE
  8
0
 10
38.6245
 20
-18.666
 11
38.664
 21
-18.7222
  0
LINE
  8
0
 10
38.664
 20
-18.7222
 11
38.7008
 21
-18.7802
  0
LINE
  8
0
 10
38.7008
 20
-18.7802
 11
38.7347
 21
-18.84
  0
LINE
  8
0
 10
38.7347
 20
-18.84
 11
38.7656
 21
-18.9014
  0
LINE
  8
0
 10
38.7656
 20
-18.9014
 11
38.7934
 21
-18.9642
  0
LINE
  8
0
 10
38.7934
 20
-18.9642
 11
38.8182
 21
-19.0284
  0
LINE
  8
0
 10
38.8182
 20
-19.0284
 11
38.8397
 21
-19.0936
  0
LINE
  8
0
 10
38.8397
 20
-19.0936
 11
38.858
 21
-19.1598
  0
LINE
  8
0
 10
38.858
 20
-19.1598
 11
38.8731
 21
-19.2269
  0
LINE
  8
0
 10
38.8731
 20
-19.2269
 11
38.8848
 21
-19.2946
  0
LINE
  8
0
 10
38.8848
 20
-19.2946
 11
38.8932
 21
-19.3628
  0
LINE
  8
0
 10
38.8932
 20
-19.3628
 11
38.8983
 21
-19.4313
  0
LINE
  8
0
 10
38.8983
 20
-19.4313
 11
38.9
 21
-19.5
  0
LINE
  8
0
 10
38.9
 20
-19.5
 11
38.8983
 21
-19.5687
  0
LINE
  8
0
 10
38.8983
 20
-19.5687
 11
38.8932
 21
-19.6372
  0
LINE
  8
0
 10
38.8932
 20
-19.6372
 11
38.8848
 21
-19.7054
  0
LINE
  8
0
 10
38.8848
 20
-19.7054
 11
38.8731
 21
-19.7731
  0
LINE
  8
0
 10
38.8731
 20
-19.7731
 11
38.858
 21
-19.8402
  0
LINE
  8
0
 10
38.858
 20
-19.8402
 11
38.8397
 21
-19.9064
  0
LINE
  8
0
 10
38.8397
 20
-19.9064
 11
38.8182
 21
-19.9716
  0
LINE
  8
0
 10
38.8182
 20
-19.9716
 11
38.7934
 21
-20.0358
  0
LINE
  8
0
 10
38.7934
 20
-20.0358
 11
38.7656
 21
-20.0986
  0
LINE
  8
0
 10
38.7656
 20
-20.0986
 11
38.7347
 21
-20.1599
  0
LINE
  8
0
 10
38.7347
 20
-20.1599
 11
38.7008
 21
-20.2197
  0
LINE
  8
0
 10
38.7008
 20
-20.2197
 11
38.664
 21
-20.2778
  0
LINE
  8
0
 10
38.664
 20
-20.2778
 11
38.6245
 21
-20.334
  0
LINE
  8
0
 10
38.6245
 20
-20.334
 11
38.5822
 21
-20.3881
  0
LINE
  8
0
 10
38.5822
 20
-20.3881
 11
38.5373
 21
-20.4402
  0
LINE
  8
0
 10
38.5373
 20
-20.4402
 11
38.4899
 21
-20.4899
  0
LINE
  8
0
 10
38.4899
 20
-20.4899
 11
38.4402
 21
-20.5373
  0
LINE
  8
0
 10
38.4402
 20
-20.5373
 11
38.3881
 21
-20.5822
  0
LINE
  8
0
 10
38.3881
 20
-20.5822
 11
38.334
 21
-20.6245
  0
LINE
  8
0
 10
38.334
 20
-20.6245
 11
38.2778
 21
-20.664
  0
LINE
  8
0
 10
38.2778
 20
-20.664
 11
38.2197
 21
-20.7008
  0
LINE
  8
0
 10
38.2197
 20
-20.7008
 11
38.1599
 21
-20.7347
  0
LINE
  8
0
 10
38.1599
 20
-20.7347
 11
38.0986
 21
-20.7656
  0
LINE
  8
0
 10
38.0986
 20
-20.7656
 11
38.0358
 21
-20.7934
  0
LINE
  8
0
 10
38.0358
 20
-20.7934
 11
37.9716
 21
-20.8182
  0
LINE
  8
0
 10
37.9716
 20
-20.8182
 11
37.9064
 21
-20.8397
  0
LINE
  8
0
 10
37.9064
 20
-20.8397
 11
37.8402
 21
-20.858
  0
LINE
  8
0
 10
37.8402
 20
-20.858
 11
37.7731
 21
-20.8731
  0
LINE
  8
0
 10
37.7731
 20
-20.8731
 11
37.7054
 21
-20.8848
  0
LINE
  8
0
 10
37.7054
 20
-20.8848
 11
37.6372
 21
-20.8932
  0
LINE
  8
0
 10
37.6372
 20
-20.8932
 11
37.5687
 21
-20.8983
  0
LINE
  8
0
 10
37.5687
 20
-20.8983
 11
37.5
 21
-20.9
  0
LINE
  8
0
 10
37.5
 20
-20.9
 11
37.4313
 21
-20.8983
  0
ENDSEC
  0
SECTION
  2
OBJECTS
  0
DICTIONARY
  0
ENDSEC
  0
EOF
