  0
SECTION
  2
HEADER
  9
$ACADVER
  1
AC1024
  9
$ACADMAINTVER
 70
6
  9
$DWGCODEPAGE
  3
ANSI_1252
  9
$LASTSAVEDBY
  1
ezdxf
  9
$INSBASE
 10
0.0
 20
0.0
 30
0.0
  9
$EXTMIN
 10
1e+20
 20
1e+20
 30
1e+20
  9
$EXTMAX
 10
-1e+20
 20
-1e+20
 30
-1e+20
  9
$LIMMIN
 10
0.0
 20
0.0
  9
$LIMMAX
 10
420.0
 20
297.0
  9
$ORTHOMODE
 70
0
  9
$REGENMODE
 70
1
  9
$FILLMODE
 70
1
  9
$QTEXTMODE
 70
0
  9
$MIRRTEXT
 70
1
  9
$LTSCALE
 40
1.0
  9
$ATTMODE
 70
1
  9
$TEXTSIZE
 40
2.5
  9
$TRACEWID
 40
1.0
  9
$TEXTSTYLE
  7
Standard
  9
$CLAYER
  8
0
  9
$CELTYPE
  6
ByLayer
  9
$CECOLOR
 62
256
  9
$CELTSCALE
 40
1.0
  9
$DISPSILH
 70
0
  9
$DIMSCALE
 40
1.0
  9
$DIMASZ
 40
2.5
  9
$DIMEXO
 40
0.625
  9
$DIMDLI
 40
3.75
  9
$DIMRND
 40
0.0
  9
$DIMDLE
 40
0.0
  9
$DIMEXE
 40
1.25
  9
$DIMTP
 40
0.0
  9
$DIMTM
 40
0.0
  9
$DIMTXT
 40
2.5
  9
$DIMCEN
 40
2.5
  9
$DIMTSZ
 40
0.0
  9
$DIMTOL
 70
0
  9
$DIMLIM
 70
0
  9
$DIMTIH
 70
0
  9
$DIMTOH
 70
0
  9
$DIMSE1
 70
0
  9
$DIMSE2
 70
0
  9
$DIMTAD
 70
1
  9
$DIMZIN
 70
8
  9
$DIMBLK
  1

  9
$DIMASO
 70
1
  9
$DIMSHO
 70
1
  9
$DIMPOST
  1

  9
$DIMAPOST
  1

  9
$DIMALT
 70
0
  9
$DIMALTD
 70
3
  9
$DIMALTF
 40
0.03937007874
  9
$DIMLFAC
 40
1.0
  9
$DIMTOFL
 70
1
  9
$DIMTVP
 40
0.0
  9
$DIMTIX
 70
0
  9
$DIMSOXD
 70
0
  9
$DIMSAH
 70
0
  9
$DIMBLK1
  1

  9
$DIMBLK2
  1

  9
$DIMSTYLE
  2
ISO-25
  9
$DIMCLRD
 70
0
  9
$DIMCLRE
 70
0
  9
$DIMCLRT
 70
0
  9
$DIMTFAC
 40
1.0
  9
$DIMGAP
 40
0.625
  9
$DIMJUST
 70
0
  9
$DIMSD1
 70
0
  9
$DIMSD2
 70
0
  9
$DIMTOLJ
 70
0
  9
$DIMTZIN
 70
8
  9
$DIMALTZ
 70
0
  9
$DIMALTTZ
 70
0
  9
$DIMUPT
 70
0
  9
$DIMDEC
 70
2
  9
$DIMTDEC
 70
2
  9
$DIMALTU
 70
2
  9
$DIMALTTD
 70
3
  9
$DIMTXSTY
  7
Standard
  9
$DIMAUNIT
 70
0
  9
$DIMADEC
 70
0
  9
$DIMALTRND
 40
0.0
  9
$DIMAZIN
 70
0
  9
$DIMDSEP
 70
44
  9
$DIMATFIT
 70
3
  9
$DIMFRAC
 70
0
  9
$DIMLDRBLK
  1

  9
$DIMLUNIT
 70
2
  9
$DIMLWD
 70
-2
  9
$DIMLWE
 70
-2
  9
$DIMTMOVE
 70
0
  9
$DIMFXL
 40
1.0
  9
$DIMFXLON
 70
0
  9
$DIMJOGANG
 40
0.785398163397
  9
$DIMTFILL
 70
0
  9
$DIMTFILLCLR
 70
0
  9
$DIMARCSYM
 70
0
  9
$DIMLTYPE
  6

  9
$DIMLTEX1
  6

  9
$DIMLTEX2
  6

  9
$DIMTXTDIRECTION
 70
0
  9
$LUNITS
 70
2
  9
$LUPREC
 70
4
  9
$SKETCHINC
 40
1.0
  9
$FILLETRAD
 40
10.0
  9
$AUNITS
 70
0
  9
$AUPREC
 70
2
  9
$MENU
  1
.
  9
$ELEVATION
 40
0.0
  9
$PELEVATION
 40
0.0
  9
$THICKNESS
 40
0.0
  9
$LIMCHECK
 70
0
  9
$CHAMFERA
 40
0.0
  9
$CHAMFERB
 40
0.0
  9
$CHAMFERC
 40
0.0
  9
$CHAMFERD
 40
0.0
  9
$SKPOLY
 70
0
  9
$TDCREATE
 40
2461308.6580324075
  9
$TDUCREATE
 40
2458532.153996898
  9
$TDUPDATE
 40
2461308.6580324075
  9
$TDUUPDATE
 40
2458532.1544311
  9
$TDINDWG
 40
0.0
  9
$TDUSRTIMER
 40
0.0
  9
$USRTIMER
 70
1
  9
$ANGBASE
 50
0.0
  9
$ANGDIR
 70
0
  9
$PDMODE
 70
0
  9
$PDSIZE
 40
0.0
  9
$PLINEWID
 40
0.0
  9
$SPLFRAME
 70
0
  9
$SPLINETYPE
 70
6
  9
$SPLINESEGS
 70
8
  9
$HANDSEED
  5
75
  9
$SURFTAB1
 70
6
  9
$SURFTAB2
 70
6
  9
$SURFTYPE
 70
6
  9
$SURFU
 70
6
  9
$SURFV
 70
6
  9
$UCSBASE
  2

  9
$UCSNAME
  2

  9
$UCSORG
 10
0.0
 20
0.0
 30
0.0
  9
$UCSXDIR
 10
1.0
 20
0.0
 30
0.0
  9
$UCSYDIR
 10
0.0
 20
1.0
 30
0.0
  9
$UCSORTHOREF
  2

  9
$UCSORTHOVIEW
 70
0
  9
$UCSORGTOP
 10
0.0
 20
0.0
 30
0.0
  9
$UCSORGBOTTOM
 10
0.0
 20
0.0
 30
0.0
  9
$UCSORGLEFT
 10
0.0
 20
0.0
 30
0.0
  9
$UCSORGRIGHT
 10
0.0
 20
0.0
 30
0.0
  9
$UCSORGFRONT
 10
0.0
 20
0.0
 30
0.0
  9
$UCSORGBACK
 10
0.0
 20
0.0
 30
0.0
  9
$PUCSBASE
  2

  9
$PUCSNAME
  2

  9
$PUCSORG
 10
0.0
 20
0.0
 30
0.0
  9
$PUCSXDIR
 10
1.0
 20
0.0
 30
0.0
  9
$PUCSYDIR
 10
0.0
 20
1.0
 30
0.0
  9
$PUCSORTHOREF
  2

  9
$PUCSORTHOVIEW
 70
0
  9
$PUCSORGTOP
 10
0.0
 20
0.0
 30
0.0
  9
$PUCSORGBOTTOM
 10
0.0
 20
0.0
 30
0.0
  9
$PUCSORGLEFT
 10
0.0
 20
0.0
 30
0.0
  9
$PUCSORGRIGHT
 10
0.0
 20
0.0
 30
0.0
  9
$PUCSORGFRONT
 10
0.0
 20
0.0
 30
0.0
  9
$PUCSORGBACK
 10
0.0
 20
0.0
 30
0.0
  9
$USERI1
 70
0
  9
$USERI2
 70
0
  9
$USERI3
 70
0
  9
$USERI4
 70
0
  9
$USERI5
 70
0
  9
$USERR1
 40
0.0
  9
$USERR2
 40
0.0
  9
$USERR3
 40
0.0
  9
$USERR4
 40
0.0
  9
$USERR5
 40
0.0
  9
$WORLDVIEW
 70
1
  9
$SHADEDGE
 70
3
  9
$SHADEDIF
 70
70
  9
$TILEMODE
 70
1
  9
$MAXACTVP
 70
64
  9
$PINSBASE
 10
0.0
 20
0.0
 30
0.0
  9
$PLIMCHECK
 70
0
  9
$PEXTMIN
 10
1e+20
 20
1e+20
 30
1e+20
  9
$PEXTMAX
 10
-1e+20
 20
-1e+20
 30
-1e+20
  9
$PLIMMIN
 10
0.0
 20
0.0
  9
$PLIMMAX
 10
420.0
 20
297.0
  9
$UNITMODE
 70
0
  9
$VISRETAIN
 70
1
  9
$PLINEGEN
 70
0
  9
$PSLTSCALE
 70
1
  9
$TREEDEPTH
 70
3020
  9
$CMLSTYLE
  2
Standard
  9
$CMLJUST
 70
0
  9
$CMLSCALE
 40
20.0
  9
$PROXYGRAPHICS
 70
1
  9
$MEASUREMENT
 70
1
  9
$CELWEIGHT
370
-1
  9
$ENDCAPS
280
0
  9
$JOINSTYLE
280
0
  9
$LWDISPLAY
290
0
  9
$INSUNITS
 70
4
  9
$HYPERLINKBASE
  1

  9
$STYLESHEET
  1

  9
$XEDIT
290
1
  9
$CEPSNTYPE
380
0
  9
$PSTYLEMODE
290
1
  9
$FINGERPRINTGUID
  2
{D017D4D4-E838-4431-A604-189D8E17B988}
  9
$VERSIONGUID
  2
{106406F2-C113-4BE8-93AA-499E8468B3B5}
  9
$EXTNAMES
290
1
  9
$PSVPSCALE
 40
0.0
  9
$OLESTARTUP
290
0
  9
$SORTENTS
280
127
  9
$INDEXCTL
280
0
  9
$HIDETEXT
280
1
  9
$XCLIPFRAME
280
1
  9
$HALOGAP
280
0
  9
$OBSCOLOR
 70
257
  9
$OBSLTYPE
280
0
  9
$INTERSECTIONDISPLAY
280
0
  9
$INTERSECTIONCOLOR
 70
257
  9
$DIMASSOC
280
2
  9
$PROJECTNAME
  1

  9
$CAMERADISPLAY
290
0
  9
$LENSLENGTH
 40
50.0
  9
$CAMERAHEIGHT
 40
0.0
  9
$STEPSPERSEC
 40
24.0
  9
$STEPSIZE
 40
100.0
  9
$3DDWFPREC
 40
2.0
  9
$PSOLWIDTH
 40
0.005
  9
$PSOLHEIGHT
 40
0.08
  9
$LOFTANG1
 40
1.570796326795
  9
$LOFTANG2
 40
1.570796326795
  9
$LOFTMAG1
 40
0.0
  9
$LOFTMAG2
 40
0.0
  9
$LOFTPARAM
 70
7
  9
$LOFTNORMALS
280
1
  9
$LATITUDE
 40
37.795
  9
$LONGITUDE
 40
-122.394
  9
$NORTHDIRECTION
 40
0.0
  9
$TIMEZONE
 70
-8000
  9
$LIGHTGLYPHDISPLAY
280
1
  9
$TILEMODELIGHTSYNCH
280
1
  9
$CMATERIAL
347
20
  9
$SOLIDHIST
280
0
  9
$SHOWHIST
280
1
  9
$DWFFRAME
280
2
  9
$DGNFRAME
280
2
  9
$REALWORLDSCALE
290
1
  9
$INTERFERECOLOR
 62
256
  9
$CSHADOW
280
0
  9
$SHADOWPLANELOCATION
 40
0.0
  0
ENDSEC
  0
SECTION
  2
CLASSES
  0
CLASS
  1
ACDBDICTIONARYWDFLT
  2
AcDbDictionaryWithDefault
  3
ObjectDBX Classes
 90
0
 91
0
280
0
281
0
  0
CLASS
  1
SUN
  2
AcDbSun
  3
SCENEOE
 90
1153
 91
0
280
0
281
0
  0
CLASS
  1
VISUALSTYLE
  2
AcDbVisualStyle
  3
ObjectDBX Classes
 90
4095
 91
0
280
0
281
0
  0
CLASS
  1
MATERIAL
  2
AcDbMaterial
  3
ObjectDBX Classes
 90
1153
 91
0
280
0
281
0
  0
CLASS
  1
SCALE
  2
AcDbScale
  3
ObjectDBX Classes
 90
1153
 91
0
280
0
281
0
  0
CLASS
  1
TABLESTYLE
  2
AcDbTableStyle
  3
ObjectDBX Classes
 90
4095
 91
0
280
0
281
0
  0
CLASS
  1
MLEADERSTYLE
  2
AcDbMLeaderStyle
  3
ACDB_MLEADERSTYLE_CLASS
 90
4095
 91
0
280
0
281
0
  0
CLASS
  1
DICTIONARYVAR
  2
AcDbDictionaryVar
  3
ObjectDBX Classes
 90
0
 91
0
280
0
281
0
  0
CLASS
  1
CELLSTYLEMAP
  2
AcDbCellStyleMap
  3
ObjectDBX Classes
 90
1152
 91
0
280
0
281
0
  0
CLASS
  1
MENTALRAYRENDERSETTINGS
  2
AcDbMentalRayRenderSettings
  3
SCENEOE
 90
1024
 91
0
280
0
281
0
  0
CLASS
  1
ACDBDETAILVIEWSTYLE
  2
AcDbDetailViewStyle
  3
ObjectDBX Classes
 90
1025
 91
0
280
0
281
0
  0
CLASS
  1
ACDBSECTIONVIEWSTYLE
  2
AcDbSectionViewStyle
  3
ObjectDBX Classes
 90
1025
 91
0
280
0
281
0
  0
CLASS
  1
RASTERVARIABLES
  2
AcDbRasterVariables
  3
ISM
 90
0
 91
0
280
0
281
0
  0
CLASS
  1
ACDBPLACEHOLDER
  2
AcDbPlaceHolder
  3
ObjectDBX Classes
 90
0
 91
0
280
0
281
0
  0
CLASS
  1
LAYOUT
  2
AcDbLayout
  3
ObjectDBX Classes
 90
0
 91
0
280
0
281
0
  0
ENDSEC
  0
SECTION
  2
TABLES
  0
TABLE
  2
VPORT
  5
8
330
0
100
AcDbSymbolTable
 70
1
  0
VPORT
  5
23
330
8
100
AcDbSymbolTableRecord
100
AcDbViewportTableRecord
  2
*Active
 70
0
 10
0.0
 20
0.0
 11
1.0
 21
1.0
 12
0.0
 22
0.0
 13
0.0
 23
0.0
 14
0.5
 24
0.5
 15
0.5
 25
0.5
 16
0.0
 26
0.0
 36
1.0
 17
0.0
 27
0.0
 37
0.0
 40
1000.0
 41
1.34
 42
50.0
 43
0.0
 44
0.0
 50
0.0
 51
0.0
 71
0
 72
1000
 73
1
 74
3
 75
0
 76
0
 77
0
 78
0
281
0
 65
0
146
0.0
  0
ENDTAB
  0
TABLE
  2
LTYPE
  5
2
330
0
100
AcDbSymbolTable
 70
3
  0
LTYPE
  5
24
330
2
100
AcDbSymbolTableRecord
100
AcDbLinetypeTableRecord
  2
ByBlock
 70
0
  3

 72
65
 73
0
 40
0.0
  0
LTYPE
  5
25
330
2
100
AcDbSymbolTableRecord
100
AcDbLinetypeTableRecord
  2
ByLayer
 70
0
  3

 72
65
 73
0
 40
0.0
  0
LTYPE
  5
26
330
2
100
AcDbSymbolTableRecord
100
AcDbLinetypeTableRecord
  2
Continuous
 70
0
  3

 72
65
 73
0
 40
0.0
  0
ENDTAB
  0
TABLE
  2
LAYER
  5
1
330
0
100
AcDbSymbolTable
 70
5
  0
LAYER
  5
27
330
1
100
AcDbSymbolTableRecord
100
AcDbLayerTableRecord
  2
0
 70
0
 62
7
  6
Continuous
370
-3
390
13
347
21
  0
LAYER
  5
28
330
1
100
AcDbSymbolTableRecord
100
AcDbLayerTableRecord
  2
Defpoints
 70
0
 62
7
  6
Continuous
290
0
370
-3
390
13
347
21
  0
LAYER
  5
2F
330
1
100
AcDbSymbolTableRecord
100
AcDbLayerTableRecord
  2
CUT_OUTER
 70
0
 62
7
  6
Continuous
370
-3
390
13
347
21
  0
LAYER
  5
30
330
1
100
AcDbSymbolTableRecord
100
AcDbLayerTableRecord
  2
ENGRAVE_LINES
 70
0
 62
7
  6
Continuous
370
-3
390
13
347
21
  0
LAYER
  5
31
330
1
100
AcDbSymbolTableRecord
100
AcDbLayerTableRecord
  2
ENGRAVE_FILL
 70
0
 62
7
  6
Continuous
370
-3
390
13
347
21
  0
ENDTAB
  0
TABLE
  2
STYLE
  5
5
330
0
100
AcDbSymbolTable
 70
1
  0
STYLE
  5
29
330
5
100
AcDbSymbolTableRecord
100
AcDbTextStyleTableRecord
  2
Standard
 70
0
 40
0.0
 41
1.0
 50
0.0
 71
0
 42
2.5
  3
txt
  4

  0
ENDTAB
  0
TABLE
  2
VIEW
  5
7
330
0
100
AcDbSymbolTable
 70
0
  0
ENDTAB
  0
TABLE
  2
UCS
  5
6
330
0
100
AcDbSymbolTable
 70
0
  0
ENDTAB
  0
TABLE
  2
APPID
  5
3
330
0
100
AcDbSymbolTable
 70
3
  0
APPID
  5
2A
330
3
100
AcDbSymbolTableRecord
100
AcDbRegAppTableRecord
  2
ACAD
 70
0
  0
APPID
  5
72
330
3
100
AcDbSymbolTableRecord
100
AcDbRegAppTableRecord
  2
HATCHBACKGROUNDCOLOR
 70
0
  0
APPID
  5
73
330
3
100
AcDbSymbolTableRecord
100
AcDbRegAppTableRecord
  2
EZDXF
 70
0
  0
ENDTAB
  0
TABLE
  2
DIMSTYLE
  5
4
330
0
100
AcDbSymbolTable
 70
1
100
AcDbDimStyleTable
  0
DIMSTYLE
105
2B
330
4
100
AcDbSymbolTableRecord
100
AcDbDimStyleTableRecord
  2
Standard
 70
0
 40
1.0
 41
2.5
 42
0.625
 43
3.75
 44
1.25
 45
0.0
 46
0.0
 47
0.0
 48
0.0
 49
2.5
140
2.5
141
2.5
142
0.0
143
0.03937007874
144
1.0
145
0.0
146
1.0
147
0.625
148
0.0
 69
0
 70
0
 71
0
 72
0
 73
0
 74
0
 75
0
 76
0
 77
1
 78
8
 79
3
170
0
171
3
172
1
173
0
174
0
175
0
176
0
177
0
178
0
179
2
271
2
272
2
273
2
274
3
275
0
276
0
277
2
278
44
279
0
280
0
281
0
282
0
283
0
284
8
285
0
286
0
288
0
289
3
290
0
371
-2
372
-2
  0
ENDTAB
  0
TABLE
  2
BLOCK_RECORD
  5
9
330
0
100
AcDbSymbolTable
 70
2
  0
BLOCK_RECORD
  5
17
330
9
100
AcDbSymbolTableRecord
100
AcDbBlockTableRecord
  2
*Model_Space
340
1A
 70
0
280
1
281
0
  0
BLOCK_RECORD
  5
1B
330
9
100
AcDbSymbolTableRecord
100
AcDbBlockTableRecord
  2
*Paper_Space
340
1E
 70
0
280
1
281
0
  0
ENDTAB
  0
ENDSEC
  0
SECTION
  2
BLOCKS
  0
BLOCK
  5
18
330
17
100
AcDbEntity
  8
0
100
AcDbBlockBegin
  2
*Model_Space
 70
0
 10
0.0
 20
0.0
 30
0.0
  3
*Model_Space
  1

  0
ENDBLK
  5
19
330
17
100
AcDbEntity
  8
0
100
AcDbBlockEnd
  0
BLOCK
  5
1C
330
1B
100
AcDbEntity
  8
0
100
AcDbBlockBegin
  2
*Paper_Space
 70
0
 10
0.0
 20
0.0
 30
0.0
  3
*Paper_Space
  1

  0
ENDBLK
  5
1D
330
1B
100
AcDbEntity
  8
0
100
AcDbBlockEnd
  0
ENDSEC
  0
SECTION
  2
ENTITIES
  0
LWPOLYLINE
  5
32
330
17
100
AcDbEntity
  8
CUT_OUTER
100
AcDbPolyline
 90
4
 70
1
 10
60.0
 20
0.0
 10
60.0
 20
28.0
 10
0.0
 20
28.0
 10
0.0
 20
0.0
  0
LWPOLYLINE
  5
33
330
17
100
AcDbEntity
  8
ENGRAVE_LINES
100
AcDbPolyline
 90
94
 70
1
 10
51.48979901907608
 20
14.99398866296294
 10
51.46838499064756
 20
14.67409997006587
 10
51.46678252502477
 20
14.662184568443584
 10
51.402922573583794
 20
14.348004296849567
 10
51.399746238375215
 20
14.336408798303353
 10
51.29457994626814
 20
14.033543502402054
 10
51.28988642325082
 20
14.022474828878165
 10
51.145290485451724
 20
13.73632914704995
 10
51.13916353065509
 20
13.725984819289646
 10
50.957718265099544
 20
13.46166502800566
 10
50.9502672141771
 20
13.452229640782882
 10
50.735210515927456
 20
13.21445253298044
 10
50.72656833305943
 20
13.206094461003712
 10
50.48173789399075
 20
12.99910317480459
 10
50.472058799135155
 20
12.991971568066338
 10
50.201823624232745
 20
12.819459867876478
 10
50.191280341066594
 20
12.813681990067899
 10
49.90046278342858
 20
12.678728351264063
 10
49.889243457089734
 20
12.674407308751531
 10
49.58303316292177
 20
12.579419982215288
 10
49.57133800255455
 20
12.576632884104807
 10
49.255199301810315
 20
12.523306920928487
 10
49.243237007828526
 20
12.522103503051868
 10
48.92281140311227
 20
12.511390506311667
 10
48.91079544293541
 20
12.511792243689424
 10
48.59180093675432
 20
12.543883387065966
 10
48.57994573547641
 20
12.545883110685079
 10
48.2680747923504
 20
12.620205726964558
 10
48.2565919063191
 20
12.623767751709666
 10
47.95740987061662
 20
12.738995552043837
 10
47.9465042122052
 20
12.744056313498982
 10
47.66534999444111
 20
12.898133055061088
 10
47.655216175382265
 20
12.904602243818207
 10
47.39710697923323
 20
13.094778423504923
 10
47.38792583776815
 20
13.102540596737391
 10
47.15746762795418
 20
13.325422516116852
 10
47.14940300176983
 20
13.334339157659441
 10
46.950708310504695
 20
13.585949483600148
 10
46.94390411304636
 20
13.5958614757733
 10
46.78051865180287
 20
13.871710216048083
 10
46.77509630413541
 20
13.88244067911664
 10
46.649935690340115
 20
14.177605306420318
 10
46.6459919543861
 20
14.188962755016618
 10
46.561289682157295
 20
14.498176049582378
 10
46.55889493397826
 20
14.509957809767155
 10
46.5161625173705
 20
14.827701853028069
 10
46.51535949130443
 20
14.839697679011708
 10
46.51535949130443
 20
15.160302320988292
 10
46.5161625173705
 20
15.172298146971931
 10
46.55889493397826
 20
15.490042190232845
 10
46.561289682157295
 20
15.501823950417622
 10
46.6459919543861
 20
15.811037244983382
 10
46.649935690340115
 20
15.822394693579682
 10
46.77509630413541
 20
16.11755932088336
 10
46.78051865180287
 20
16.128289783951917
 10
46.94390411304636
 20
16.4041385242267
 10
46.950708310504695
 20
16.41405051639985
 10
47.14940300176983
 20
16.66566084234056
 10
47.15746762795418
 20
16.67457748388315
 10
47.38792583776815
 20
16.897459403262612
 10
47.39710697923323
 20
16.90522157649508
 10
47.655216175382265
 20
17.095397756181796
 10
47.66534999444111
 20
17.101866944938916
 10
47.9465042122052
 20
17.25594368650102
 10
47.95740987061662
 20
17.26100444795616
 10
48.2565919063191
 20
17.376232248290332
 10
48.2680747923504
 20
17.379794273035444
 10
48.57994573547641
 20
17.45411688931492
 10
48.59180093675432
 20
17.456116612934032
 10
48.91079544293541
 20
17.488207756310576
 10
48.92281140311227
 20
17.488609493688333
 10
49.243237007828526
 20
17.477896496948134
 10
49.255199301810315
 20
17.476693079071513
 10
49.57133800255455
 20
17.42336711589519
 10
49.58303316292177
 20
17.420580017784708
 10
49.889243457089734
 20
17.325592691248467
 10
49.90046278342858
 20
17.321271648735937
 10
50.191280341066594
 20
17.1863180099321
 10
50.201823624232745
 20
17.18054013212352
 10
50.472058799135155
 20
17.008028431933663
 10
50.48173789399075
 20
17.00089682519541
 10
50.72656833305943
 20
16.793905538996288
 10
50.735210515927456
 20
16.78554746701956
 10
50.9502672141771
 20
16.547770359217118
 10
50.957718265099544
 20
16.53833497199434
 10
51.13916353065509
 20
16.274015180710354
 10
51.145290485451724
 20
16.26367085295005
 10
51.28988642325082
 20
15.977525171121837
 10
51.29457994626814
 20
15.96645649759795
 10
51.39974623837522
 20
15.663591201696649
 10
51.4029225735838
 20
15.651995703150432
 10
51.46678252502477
 20
15.337815431556413
 10
51.46838499064756
 20
15.325900029934129
 10
51.48979901907608
 20
15.00601133703706
  0
LWPOLYLINE
  5
34
330
17
100
AcDbEntity
  8
ENGRAVE_LINES
100
AcDbPolyline
 90
47
 70
1
 10
51.309798569256785
 20
15.0
 10
51.289189364162524
 20
15.30786601882293
 10
51.22772952063288
 20
15.610238161246507
 10
51.126515791031636
 20
15.901720589225834
 10
50.987354336761335
 20
16.17711179192828
 10
50.812728497270264
 20
16.43149740681742
 10
50.60575447480104
 20
16.660337916569127
 10
50.37012572568796
 20
16.85954965686554
 10
50.110047050541134
 20
17.0255776894816
 10
49.83015955947983
 20
17.155459240242074
 10
49.535457851412836
 20
17.246876569796623
 10
49.231200885302115
 20
17.29819833373367
 10
48.922818133915925
 20
17.308508693959908
 10
48.615812694758496
 20
17.277623661852843
 10
48.315663087164616
 20
17.2060943815421
 10
48.027725487992605
 20
17.095197294729417
 10
47.75713815052093
 20
16.946911362556126
 10
47.50872971219715
 20
16.76388275099483
 10
47.286933027488054
 20
16.54937760995486
 10
47.09570606348677
 20
16.307223788759853
 10
46.9384612698961
 20
16.04174252808566
 10
46.818004683782924
 20
15.757671347318507
 10
46.736485855780046
 20
15.460079503408839
 10
46.69535949130444
 20
15.154277529861401
 10
46.69535949130444
 20
14.845722470138599
 10
46.736485855780046
 20
14.539920496591161
 10
46.818004683782924
 20
14.242328652681493
 10
46.93846126989611
 20
13.958257471914335
 10
47.09570606348677
 20
13.692776211240146
 10
47.28693302748806
 20
13.450622390045135
 10
47.50872971219715
 20
13.236117249005169
 10
47.75713815052093
 20
13.053088637443873
 10
48.02772548799258
 20
12.904802705270594
 10
48.315663087164644
 20
12.79390561845789
 10
48.61581269475848
 20
12.722376338147157
 10
48.922818133915925
 20
12.691491306040094
 10
49.2312008853021
 20
12.70180166626633
 10
49.535457851412836
 20
12.753123430203377
 10
49.830159559479846
 20
12.84454075975793
 10
50.110047050541134
 20
12.9744223105184
 10
50.37012572568796
 20
13.140450343134463
 10
50.60575447480103
 20
13.339662083430866
 10
50.812728497270264
 20
13.568502593182588
 10
50.987354336761335
 20
13.822888208071722
 10
51.126515791031636
 20
14.09827941077417
 10
51.22772952063287
 20
14.389761838753486
 10
51.289189364162524
 20
14.692133981177072
  0
LWPOLYLINE
  5
35
330
17
100
AcDbEntity
  8
ENGRAVE_LINES
100
AcDbPolyline
 90
66
 70
1
 10
50.81759247303158
 20
14.991444956102622
 10
50.78636526190154
 20
14.664418805847832
 10
50.78312715649526
 20
14.647617919629482
 10
50.69057415587708
 20
14.332411346503225
 10
50.68421497863072
 20
14.316526889663484
 10
50.53368129511122
 20
14.024532280481257
 10
50.52443088325913
 20
14.01013835867687
 10
50.32135719637241
 20
13.751909159399055
 10
50.30954988390064
 20
13.739526006467027
 10
50.06127580579411
 20
13.524395293165137
 10
50.047338339739035
 20
13.51447046851642
 10
49.76283714246726
 20
13.350213625686793
 10
49.74727325916583
 20
13.343105838343073
 10
49.43682755725886
 20
13.2356595362526
 10
49.420199776004885
 20
13.231625680167635
 10
49.09502988598802
 20
13.184873308122478
 10
49.07793917811929
 20
13.184059177365292
 10
48.74979758703963
 20
13.199690487903277
 10
48.73286165526792
 20
13.202125507280629
 10
48.41360825519165
 20
13.279575544111934
 10
48.39743920821733
 20
13.285171705679145
 10
48.09861264882983
 20
13.421641222678582
 10
48.08379487813859
 20
13.43019626657596
 10
47.81619552988114
 20
13.620752899831313
 10
47.80326458831309
 20
13.631957624482453
 10
47.57656418885501
 20
13.869714160777406
 10
47.56598743432966
 20
13.883163598239792
 10
47.388379526769484
 20
14.159526896884032
 10
47.380539230752845
 20
14.174734949445606
 10
47.258443027622704
 20
14.47971652076858
 10
47.253622558840505
 20
14.496133529785572
 10
47.191450935040066
 20
14.818710545177936
 10
47.18982451779371
 20
14.835743157170374
 10
47.18982451779371
 20
15.164256842829628
 10
47.191450935040066
 20
15.181289454822066
 10
47.253622558840505
 20
15.50386647021443
 10
47.258443027622704
 20
15.520283479231422
 10
47.380539230752845
 20
15.825265050554394
 10
47.388379526769484
 20
15.840473103115968
 10
47.56598743432966
 20
16.11683640176021
 10
47.57656418885501
 20
16.130285839222598
 10
47.80326458831309
 20
16.36804237551755
 10
47.81619552988114
 20
16.37924710016869
 10
48.0837948781386
 20
16.569803733424042
 10
48.098612648829835
 20
16.578358777321416
 10
48.39743920821733
 20
16.714828294320853
 10
48.41360825519165
 20
16.720424455888065
 10
48.73286165526792
 20
16.79787449271937
 10
48.74979758703963
 20
16.80030951209672
 10
49.077939178119294
 20
16.81594082263471
 10
49.095029885988026
 20
16.815126691877524
 10
49.420199776004885
 20
16.768374319832365
 10
49.43682755725886
 20
16.764340463747402
 10
49.74727325916583
 20
16.65689416165693
 10
49.76283714246726
 20
16.64978637431321
 10
50.047338339739035
 20
16.485529531483582
 10
50.06127580579411
 20
16.475604706834865
 10
50.30954988390064
 20
16.260473993532973
 10
50.32135719637241
 20
16.248090840600945
 10
50.524430883259136
 20
15.98986164132313
 10
50.53368129511123
 20
15.97546771951874
 10
50.68421497863072
 20
15.683473110336513
 10
50.69057415587708
 20
15.667588653496773
 10
50.78312715649526
 20
15.352382080370516
 10
50.78636526190154
 20
15.335581194152166
 10
50.81759247303158
 20
15.008555043897378
  0
LWPOLYLINE
  5
36
330
17
100
AcDbEntity
  8
ENGRAVE_LINES
100
AcDbPolyline
 90
33
 70
1
 10
50.63759061932418
 20
15.0
 10
50.60799722348262
 20
15.309916062460049
 10
50.5202866183885
 20
15.608630950944331
 10
50.377628893837674
 20
15.885348331089043
 10
50.18518007168647
 20
16.130066915795606
 10
49.94989575378797
 20
16.333941937804692
 10
49.68027972841832
 20
16.489604822629694
 10
49.386076621212084
 20
16.591429508037354
 10
49.07791969900242
 20
16.6357357845954
 10
48.76694655585304
 20
16.620922308030153
 10
48.46439657138992
 20
16.54752447598081
 10
48.18120469033792
 20
16.418195077333838
 10
47.92760620512746
 20
16.23760841352078
 10
47.71276682575848
 20
16.012291357085815
 10
47.5444514071599
 20
15.750387453506349
 10
47.42874330710144
 20
15.461362592241754
 10
47.36982451779372
 20
15.155662884825004
 10
47.36982451779372
 20
14.844337115174998
 10
47.42874330710144
 20
14.538637407758246
 10
47.5444514071599
 20
14.249612546493651
 10
47.71276682575848
 20
13.987708642914182
 10
47.92760620512746
 20
13.76239158647922
 10
48.1812046903379
 20
13.581804922666171
 10
48.46439657138992
 20
13.45247552401919
 10
48.76694655585304
 20
13.379077691969849
 10
49.07791969900243
 20
13.364264215404603
 10
49.38607662121209
 20
13.408570491962648
 10
49.68027972841832
 20
13.510395177370304
 10
49.94989575378797
 20
13.666058062195308
 10
50.18518007168647
 20
13.869933084204389
 10
50.37762889383766
 20
14.114651668910946
 10
50.5202866183885
 20
14.391369049055672
 10
50.60799722348262
 20
14.69008393753995
  0
LWPOLYLINE
  5
37
330
17
100
AcDbEntity
  8
ENGRAVE_LINES
100
AcDbPolyline
 90
18
 70
1
 10
55.480000000000004
 20
15.09
 10
55.51444150891286
 20
15.083149157926016
 10
55.54363961030679
 20
15.063639610306788
 10
55.56314915792602
 20
15.034441508912858
 10
55.57000000000001
 20
15.0
 10
55.56314915792602
 20
14.965558491087142
 10
55.54363961030679
 20
14.936360389693212
 10
55.51444150891286
 20
14.916850842073984
 10
55.480000000000004
 20
14.91
 10
51.88
 20
14.91
 10
51.84555849108715
 20
14.916850842073984
 10
51.816360389693216
 20
14.936360389693212
 10
51.79685084207399
 20
14.965558491087142
 10
51.79
 20
15.0
 10
51.79685084207399
 20
15.034441508912858
 10
51.816360389693216
 20
15.063639610306788
 10
51.84555849108715
 20
15.083149157926016
 10
51.88
 20
15.09
  0
LWPOLYLINE
  5
38
330
17
100
AcDbEntity
  8
ENGRAVE_LINES
100
AcDbPolyline
 90
18
 70
1
 10
53.28931470323997
 20
16.874107621394636
 10
53.32375621215282
 20
16.88095846346862
 10
53.35819772106568
 20
16.874107621394636
 10
53.38739582245961
 20
16.85459807377541
 10
53.40690537007884
 20
16.82539997238148
 10
53.413756212152826
 20
16.79095846346862
 10
53.40690537007884
 20
16.75651695455576
 10
53.38739582245961
 20
16.72731885316183
 10
53.35819772106568
 20
16.707809305542604
 10
51.69521456254536
 20
16.01897912728544
 10
51.660773053632504
 20
16.012128285211457
 10
51.62633154471965
 20
16.01897912728544
 10
51.59713344332572
 20
16.038488674904666
 10
51.57762389570649
 20
16.067686776298597
 10
51.5707730536325
 20
16.102128285211457
 10
51.57762389570649
 20
16.136569794124316
 10
51.59713344332572
 20
16.165767895518247
 10
51.62633154471965
 20
16.185277443137473
  0
LWPOLYLINE
  5
39
330
17
100
AcDbEntity
  8
ENGRAVE_LINES
100
AcDbPolyline
 90
18
 70
1
 10
52.245620125646255
 20
18.372899346259832
 10
52.274818227040186
 20
18.392408893879058
 10
52.30925973595304
 20
18.39925973595304
 10
52.3437012448659
 20
18.392408893879058
 10
52.37289934625983
 20
18.372899346259832
 10
52.39240889387906
 20
18.3437012448659
 10
52.399259735953045
 20
18.30925973595304
 10
52.39240889387906
 20
18.274818227040182
 10
52.37289934625983
 20
18.24562012564625
 10
51.100107140124045
 20
16.97282791951047
 10
51.070909038730115
 20
16.953318371891243
 10
51.03646752981726
 20
16.94646752981726
 10
51.0020260209044
 20
16.953318371891243
 10
50.97282791951047
 20
16.97282791951047
 10
50.95331837189124
 20
17.0020260209044
 10
50.946467529817255
 20
17.03646752981726
 10
50.95331837189124
 20
17.070909038730118
 10
50.97282791951047
 20
17.10010714012405
  0
LWPOLYLINE
  5
3A
330
17
100
AcDbEntity
  8
ENGRAVE_LINES
100
AcDbPolyline
 90
18
 70
1
 10
50.707809305542604
 20
19.358197721065682
 10
50.72731885316183
 20
19.387395822459613
 10
50.756516954555764
 20
19.40690537007884
 10
50.79095846346862
 20
19.413756212152823
 10
50.825399972381476
 20
19.40690537007884
 10
50.854598073775406
 20
19.387395822459613
 10
50.874107621394636
 20
19.358197721065682
 10
50.88095846346862
 20
19.323756212152823
 10
50.874107621394636
 20
19.289314703239963
 10
50.18527744313747
 20
17.626331544719648
 10
50.16576789551824
 20
17.597133443325717
 10
50.13656979412431
 20
17.57762389570649
 10
50.10212828521146
 20
17.570773053632507
 10
50.0676867762986
 20
17.57762389570649
 10
50.03848867490467
 20
17.597133443325717
 10
50.01897912728544
 20
17.626331544719648
 10
50.01212828521145
 20
17.660773053632507
 10
50.01897912728544
 20
17.695214562545367
  0
LWPOLYLINE
  5
3B
330
17
100
AcDbEntity
  8
ENGRAVE_LINES
100
AcDbPolyline
 90
18
 70
1
 10
48.91
 20
21.48
 10
48.916850842073984
 20
21.51444150891286
 10
48.93636038969321
 20
21.54363961030679
 10
48.965558491087144
 20
21.563149157926016
 10
49.0
 20
21.57
 10
49.034441508912856
 20
21.563149157926016
 10
49.06363961030679
 20
21.54363961030679
 10
49.083149157926016
 20
21.51444150891286
 10
49.09
 20
21.48
 10
49.09
 20
17.88
 10
49.083149157926016
 20
17.84555849108714
 10
49.06363961030679
 20
17.81636038969321
 10
49.034441508912856
 20
17.796850842073983
 10
49.0
 20
17.79
 10
48.965558491087144
 20
17.796850842073983
 10
48.93636038969321
 20
17.81636038969321
 10
48.916850842073984
 20
17.84555849108714
 10
48.91
 20
17.88
  0
LWPOLYLINE
  5
3C
330
17
100
AcDbEntity
  8
ENGRAVE_LINES
100
AcDbPolyline
 90
18
 70
1
 10
47.125892378605364
 20
19.289314703239963
 10
47.11904153653138
 20
19.323756212152823
 10
47.125892378605364
 20
19.358197721065682
 10
47.145401926224594
 20
19.387395822459613
 10
47.174600027618524
 20
19.40690537007884
 10
47.20904153653138
 20
19.413756212152823
 10
47.243483045444236
 20
19.40690537007884
 10
47.27268114683817
 20
19.387395822459613
 10
47.292190694457396
 20
19.358197721065682
 10
47.98102087271456
 20
17.695214562545367
 10
47.98787171478855
 20
17.660773053632507
 10
47.98102087271456
 20
17.626331544719648
 10
47.96151132509533
 20
17.597133443325717
 10
47.9323132237014
 20
17.57762389570649
 10
47.89787171478854
 20
17.570773053632507
 10
47.86343020587569
 20
17.57762389570649
 10
47.83423210448176
 20
17.597133443325717
 10
47.81472255686253
 20
17.626331544719648
  0
LWPOLYLINE
  5
3D
330
17
100
AcDbEntity
  8
ENGRAVE_LINES
100
AcDbPolyline
 90
18
 70
1
 10
45.62710065374017
 20
18.24562012564625
 10
45.60759110612094
 20
18.274818227040182
 10
45.600740264046955
 20
18.30925973595304
 10
45.60759110612094
 20
18.3437012448659
 10
45.62710065374017
 20
18.372899346259832
 10
45.6562987551341
 20
18.392408893879058
 10
45.69074026404696
 20
18.39925973595304
 10
45.725181772959814
 20
18.392408893879058
 10
45.754379874353745
 20
18.372899346259832
 10
47.02717208048953
 20
17.10010714012405
 10
47.04668162810876
 20
17.070909038730118
 10
47.053532470182745
 20
17.03646752981726
 10
47.04668162810876
 20
17.0020260209044
 10
47.02717208048953
 20
16.97282791951047
 10
46.9979739790956
 20
16.953318371891243
 10
46.96353247018274
 20
16.94646752981726
 10
46.929090961269885
 20
16.953318371891243
 10
46.899892859875955
 20
16.97282791951047
  0
LWPOLYLINE
  5
3E
330
17
100
AcDbEntity
  8
ENGRAVE_LINES
100
AcDbPolyline
 90
18
 70
1
 10
44.64180227893432
 20
16.707809305542604
 10
44.61260417754039
 20
16.72731885316183
 10
44.59309462992116
 20
16.75651695455576
 10
44.586243787847174
 20
16.79095846346862
 10
44.59309462992116
 20
16.82539997238148
 10
44.61260417754039
 20
16.85459807377541
 10
44.64180227893432
 20
16.874107621394636
 10
44.67624378784718
 20
16.88095846346862
 10
44.71068529676003
 20
16.874107621394636
 10
46.37366845528035
 20
16.185277443137476
 10
46.40286655667428
 20
16.16576789551825
 10
46.42237610429351
 20
16.13656979412432
 10
46.4292269463675
 20
16.10212828521146
 10
46.42237610429351
 20
16.0676867762986
 10
46.40286655667428
 20
16.03848867490467
 10
46.37366845528035
 20
16.018979127285444
 10
46.339226946367496
 20
16.01212828521146
 10
46.30478543745464
 20
16.018979127285444
  0
LWPOLYLINE
  5
3F
330
17
100
AcDbEntity
  8
ENGRAVE_LINES
100
AcDbPolyline
 90
18
 70
1
 10
42.519999999999996
 20
14.91
 10
42.48555849108714
 20
14.916850842073984
 10
42.45636038969321
 20
14.936360389693212
 10
42.43685084207398
 20
14.965558491087142
 10
42.42999999999999
 20
15.0
 10
42.43685084207398
 20
15.034441508912858
 10
42.45636038969321
 20
15.063639610306788
 10
42.48555849108714
 20
15.083149157926016
 10
42.519999999999996
 20
15.09
 10
46.12
 20
15.09
 10
46.15444150891285
 20
15.083149157926016
 10
46.183639610306784
 20
15.063639610306788
 10
46.20314915792601
 20
15.034441508912858
 10
46.21
 20
15.0
 10
46.20314915792601
 20
14.965558491087142
 10
46.183639610306784
 20
14.936360389693212
 10
46.15444150891285
 20
14.916850842073984
 10
46.12
 20
14.91
  0
LWPOLYLINE
  5
40
330
17
100
AcDbEntity
  8
ENGRAVE_LINES
100
AcDbPolyline
 90
18
 70
1
 10
44.71068529676003
 20
13.125892378605364
 10
44.67624378784718
 20
13.11904153653138
 10
44.64180227893432
 20
13.125892378605364
 10
44.61260417754039
 20
13.145401926224592
 10
44.59309462992116
 20
13.174600027618522
 10
44.586243787847174
 20
13.20904153653138
 10
44.59309462992116
 20
13.243483045444238
 10
44.61260417754039
 20
13.27268114683817
 10
44.64180227893432
 20
13.292190694457396
 10
46.30478543745464
 20
13.981020872714558
 10
46.339226946367496
 20
13.987871714788541
 10
46.37366845528035
 20
13.981020872714558
 10
46.40286655667428
 20
13.96151132509533
 10
46.42237610429351
 20
13.9323132237014
 10
46.4292269463675
 20
13.897871714788542
 10
46.42237610429351
 20
13.863430205875684
 10
46.40286655667428
 20
13.834232104481753
 10
46.37366845528035
 20
13.814722556862526
  0
LWPOLYLINE
  5
41
330
17
100
AcDbEntity
  8
ENGRAVE_LINES
100
AcDbPolyline
 90
18
 70
1
 10
45.754379874353745
 20
11.62710065374017
 10
45.725181772959814
 20
11.607591106120942
 10
45.69074026404696
 20
11.600740264046959
 10
45.6562987551341
 20
11.607591106120942
 10
45.62710065374017
 20
11.62710065374017
 10
45.60759110612094
 20
11.6562987551341
 10
45.600740264046955
 20
11.690740264046958
 10
45.60759110612094
 20
11.725181772959816
 10
45.62710065374017
 20
11.754379874353747
 10
46.899892859875955
 20
13.027172080489532
 10
46.929090961269885
 20
13.04668162810876
 10
46.96353247018274
 20
13.053532470182743
 10
46.9979739790956
 20
13.04668162810876
 10
47.02717208048953
 20
13.027172080489532
 10
47.04668162810876
 20
12.997973979095601
 10
47.053532470182745
 20
12.963532470182743
 10
47.04668162810876
 20
12.929090961269885
 10
47.02717208048953
 20
12.899892859875955
  0
LWPOLYLINE
  5
42
330
17
100
AcDbEntity
  8
ENGRAVE_LINES
100
AcDbPolyline
 90
18
 70
1
 10
47.292190694457396
 20
10.641802278934321
 10
47.27268114683817
 20
10.61260417754039
 10
47.243483045444236
 20
10.593094629921163
 10
47.20904153653138
 20
10.58624378784718
 10
47.174600027618524
 20
10.593094629921163
 10
47.145401926224594
 20
10.612604177540389
 10
47.125892378605364
 20
10.641802278934321
 10
47.11904153653138
 20
10.676243787847179
 10
47.125892378605364
 20
10.710685296760037
 10
47.81472255686252
 20
12.373668455280352
 10
47.83423210448175
 20
12.402866556674283
 10
47.86343020587568
 20
12.42237610429351
 10
47.897871714788536
 20
12.429226946367494
 10
47.93231322370139
 20
12.42237610429351
 10
47.96151132509532
 20
12.402866556674285
 10
47.98102087271455
 20
12.373668455280352
 10
47.98787171478854
 20
12.339226946367495
 10
47.98102087271455
 20
12.304785437454637
  0
LWPOLYLINE
  5
43
330
17
100
AcDbEntity
  8
ENGRAVE_LINES
100
AcDbPolyline
 90
18
 70
1
 10
49.09
 20
8.52
 10
49.083149157926016
 20
8.485558491087142
 10
49.06363961030679
 20
8.456360389693211
 10
49.034441508912856
 20
8.436850842073984
 10
49.0
 20
8.43
 10
48.965558491087144
 20
8.436850842073984
 10
48.93636038969321
 20
8.456360389693211
 10
48.916850842073984
 20
8.485558491087142
 10
48.91
 20
8.52
 10
48.91
 20
12.120000000000001
 10
48.916850842073984
 20
12.154441508912859
 10
48.93636038969321
 20
12.18363961030679
 10
48.965558491087144
 20
12.203149157926017
 10
49.0
 20
12.21
 10
49.034441508912856
 20
12.203149157926017
 10
49.06363961030679
 20
12.18363961030679
 10
49.083149157926016
 20
12.154441508912859
 10
49.09
 20
12.120000000000001
  0
LWPOLYLINE
  5
44
330
17
100
AcDbEntity
  8
ENGRAVE_LINES
100
AcDbPolyline
 90
18
 70
1
 10
50.874107621394636
 20
10.710685296760037
 10
50.88095846346862
 20
10.676243787847179
 10
50.874107621394636
 20
10.641802278934321
 10
50.854598073775406
 20
10.61260417754039
 10
50.825399972381476
 20
10.593094629921163
 10
50.79095846346862
 20
10.58624378784718
 10
50.756516954555764
 20
10.593094629921163
 10
50.72731885316183
 20
10.612604177540389
 10
50.707809305542604
 20
10.641802278934321
 10
50.01897912728544
 20
12.304785437454637
 10
50.01212828521145
 20
12.339226946367495
 10
50.01897912728544
 20
12.373668455280352
 10
50.03848867490467
 20
12.402866556674283
 10
50.0676867762986
 20
12.42237610429351
 10
50.10212828521146
 20
12.429226946367494
 10
50.13656979412431
 20
12.42237610429351
 10
50.16576789551824
 20
12.402866556674283
 10
50.18527744313747
 20
12.373668455280352
  0
LWPOLYLINE
  5
45
330
17
100
AcDbEntity
  8
ENGRAVE_LINES
100
AcDbPolyline
 90
18
 70
1
 10
52.37289934625983
 20
11.754379874353745
 10
52.39240889387906
 20
11.725181772959814
 10
52.399259735953045
 20
11.690740264046957
 10
52.39240889387906
 20
11.656298755134099
 10
52.37289934625983
 20
11.627100653740166
 10
52.3437012448659
 20
11.60759110612094
 10
52.30925973595304
 20
11.600740264046957
 10
52.274818227040186
 20
11.60759110612094
 10
52.245620125646255
 20
11.627100653740168
 10
50.97282791951047
 20
12.899892859875955
 10
50.95331837189124
 20
12.929090961269885
 10
50.946467529817255
 20
12.963532470182743
 10
50.95331837189124
 20
12.997973979095601
 10
50.97282791951047
 20
13.027172080489533
 10
51.0020260209044
 20
13.04668162810876
 10
51.03646752981726
 20
13.053532470182743
 10
51.070909038730115
 20
13.04668162810876
 10
51.100107140124045
 20
13.027172080489532
  0
LWPOLYLINE
  5
46
330
17
100
AcDbEntity
  8
ENGRAVE_LINES
100
AcDbPolyline
 90
18
 70
1
 10
53.35819772106568
 20
13.292190694457393
 10
53.38739582245961
 20
13.272681146838165
 10
53.40690537007884
 20
13.243483045444234
 10
53.413756212152826
 20
13.209041536531377
 10
53.40690537007884
 20
13.174600027618519
 10
53.38739582245961
 20
13.145401926224588
 10
53.35819772106568
 20
13.12589237860536
 10
53.32375621215282
 20
13.119041536531377
 10
53.28931470323997
 20
13.12589237860536
 10
51.62633154471965
 20
13.814722556862524
 10
51.59713344332572
 20
13.834232104481751
 10
51.57762389570649
 20
13.863430205875682
 10
51.5707730536325
 20
13.89787171478854
 10
51.57762389570649
 20
13.932313223701398
 10
51.59713344332572
 20
13.961511325095328
 10
51.62633154471965
 20
13.981020872714556
 10
51.660773053632504
 20
13.98787171478854
 10
51.69521456254536
 20
13.981020872714556
  0
LWPOLYLINE
  5
47
330
17
100
AcDbEntity
  8
ENGRAVE_LINES
100
AcDbPolyline
 90
48
 70
1
 10
49.3
 20
15.0
 10
49.297433458412144
 20
14.960842142333984
 10
49.28977774788672
 20
14.922354286469243
 10
49.27716385975339
 20
14.885194970290472
 10
49.25980762113533
 20
14.85
 10
49.23800600208737
 20
14.817371571297384
 10
49.21213203435597
 20
14.787867965644036
 10
49.182628428702614
 20
14.76199399791263
 10
49.15
 20
14.740192378864668
 10
49.11480502970953
 20
14.722836140246613
 10
49.07764571353076
 20
14.71022225211328
 10
49.03915785766601
 20
14.702566541587856
 10
49.0
 20
14.7
 10
48.96084214233399
 20
14.702566541587856
 10
48.92235428646924
 20
14.71022225211328
 10
48.88519497029047
 20
14.722836140246613
 10
48.85
 20
14.740192378864668
 10
48.817371571297386
 20
14.76199399791263
 10
48.78786796564403
 20
14.787867965644036
 10
48.76199399791263
 20
14.817371571297384
 10
48.74019237886467
 20
14.85
 10
48.72283614024661
 20
14.885194970290472
 10
48.71022225211328
 20
14.922354286469243
 10
48.702566541587856
 20
14.960842142333984
 10
48.7
 20
15.0
 10
48.702566541587856
 20
15.039157857666016
 10
48.71022225211328
 20
15.077645713530757
 10
48.72283614024661
 20
15.114805029709526
 10
48.74019237886467
 20
15.15
 10
48.76199399791263
 20
15.182628428702616
 10
48.78786796564403
 20
15.212132034355964
 10
48.817371571297386
 20
15.23800600208737
 10
48.85
 20
15.259807621135332
 10
48.88519497029047
 20
15.277163859753387
 10
48.92235428646924
 20
15.28977774788672
 10
48.96084214233399
 20
15.297433458412144
 10
49.0
 20
15.3
 10
49.03915785766601
 20
15.297433458412144
 10
49.07764571353076
 20
15.28977774788672
 10
49.11480502970953
 20
15.277163859753387
 10
49.15
 20
15.259807621135332
 10
49.182628428702614
 20
15.23800600208737
 10
49.21213203435597
 20
15.212132034355964
 10
49.23800600208737
 20
15.182628428702616
 10
49.25980762113533
 20
15.15
 10
49.27716385975339
 20
15.114805029709528
 10
49.28977774788672
 20
15.077645713530757
 10
49.297433458412144
 20
15.039157857666016
  0
LWPOLYLINE
  5
48
330
17
100
AcDbEntity
  8
ENGRAVE_LINES
100
AcDbPolyline
 90
252
 70
1
 10
57.714461987157186
 20
16.85634095629383
 10
57.643413046998724
 20
17.163159811616733
 10
57.56156518088352
 20
17.46727605368842
 10
57.46902064807443
 20
17.768309725104924
 10
57.36589507205855
 20
18.06588471977144
 10
57.25231729608964
 20
18.35962925280172
 10
57.12842922221317
 20
18.649176325020818
 10
56.99438563397723
 20
18.93416418148504
 10
56.850354003047755
 20
19.214236763454753
 10
56.69651427997326
 20
19.489044153245686
 10
56.5330586693574
 20
19.7582430114109
 10
56.36019138972185
 20
20.02149700570316
 10
56.17812841835991
 20
20.27847723128132
 10
55.98709722149769
 20
20.528862621639345
 10
55.78733647010231
 20
20.772340349740347
 10
55.5790957416902
 20
21.008606218857693
 10
55.36263520850996
 20
21.237365042632252
 10
55.138225312487585
 20
21.45833101387333
 10
54.90614642734083
 20
21.67122806164132
 10
54.66668850828543
 20
21.87579019616562
 10
54.42015072977121
 20
22.07176184116675
 10
54.16684111169664
 20
22.25889815317055
 10
53.90707613457698
 20
22.43696532740919
 10
53.641180344137055
 20
22.60574088993421
 10
53.369485945830455
 20
22.765013975570916
 10
53.09233238978849
 20
22.914585591369235
 10
52.81006594671569
 20
23.054268865222898
 10
52.52303927526752
 20
23.18388927934292
 10
52.23161098144286
 20
23.303284888298087
 10
51.93614517054932
 20
23.412306521346054
 10
51.637010992296695
 20
23.510817968804634
 10
51.334582179586555
 20
23.598696152230193
 10
51.02923658157904
 20
23.675831278189015
 10
50.7213556916127
 20
23.742126975431894
 10
50.411324170575334
 20
23.79750041529816
 10
50.099529366314684
 20
23.84188241520057
 10
49.78636082969259
 20
23.875217525060815
 10
49.47220982788843
 20
23.89746409658769
 10
49.15746885555505
 20
23.908594335311918
 10
48.84253114444495
 20
23.908594335311918
 10
48.527790172111565
 20
23.89746409658769
 10
48.21363917030741
 20
23.875217525060815
 10
47.900470633685316
 20
23.84188241520057
 10
47.588675829424666
 20
23.79750041529816
 10
47.2786443083872
 20
23.742126975431876
 10
46.97076341842105
 20
23.675831278189037
 10
46.665417820413445
 20
23.598696152230193
 10
46.362989007703305
 20
23.510817968804634
 10
46.06385482945068
 20
23.412306521346054
 10
45.76838901855721
 20
23.303284888298112
 10
45.476960724732415
 20
23.18388927934289
 10
45.18993405328431
 20
23.054268865222898
 10
44.90766761021151
 20
22.914585591369235
 10
44.630514054169545
 20
22.765013975570916
 10
44.358819655862945
 20
22.60574088993421
 10
44.09292386542302
 20
22.43696532740919
 10
43.833158888303295
 20
22.258898153170502
 10
43.57984927022893
 20
22.071761841166847
 10
43.33331149171451
 20
21.875790196165568
 10
43.093853572659164
 20
21.671228061641315
 10
42.86177468751241
 20
21.45833101387333
 10
42.637364791489986
 20
21.237365042632202
 10
42.420904258309896
 20
21.008606218857793
 10
42.21266352989765
 20
20.772340349740293
 10
42.0129027785023
 20
20.52886262163934
 10
41.821871581640096
 20
20.278477231281325
 10
41.63980861027815
 20
20.021497005703157
 10
41.4669413306426
 20
19.7582430114109
 10
41.30348572002674
 20
19.489044153245686
 10
41.149645996952245
 20
19.21423676345475
 10
41.00561436602276
 20
18.93416418148504
 10
40.87157077778683
 20
18.649176325020818
 10
40.74768270391035
 20
18.35962925280172
 10
40.63410492794145
 20
18.065884719771443
 10
40.53097935192557
 20
17.768309725104924
 10
40.43843481911648
 20
17.467276053688416
 10
40.356586953001276
 20
17.16315981161673
 10
40.285538012842814
 20
16.856340956293828
 10
40.22507287329415
 20
16.54564127165579
 10
40.211768970606876
 20
16.51314269096979
 10
40.18704109880766
 20
16.488209100582548
 10
40.15465385221923
 20
16.47463641360696
 10
40.119537895543544
 20
16.474490948598348
 10
40.08703931485754
 20
16.48779485128563
 10
40.0621057244703
 20
16.512522723084846
 10
40.048533037494714
 20
16.544909969673277
 10
40.04838757248611
 20
16.58002592634896
 10
40.1091566046591
 20
16.892287161051193
 10
40.109819386933886
 20
16.895398545799683
 10
40.1815861063933
 20
17.205317070491322
 10
40.18235843433004
 20
17.208403088144387
 10
40.26503317701778
 20
17.515591696153415
 10
40.26591408568375
 20
17.518648491095686
 10
40.35939355925221
 20
17.822723386459266
 10
40.360381948055846
 20
17.825747139585726
 10
40.46454936091959
 20
18.126328416558
 10
40.46564399498556
 20
18.129315350045463
 10
40.58036920223857
 20
18.42602746774503
 10
40.58156871395061
 20
18.42897384977212
 10
40.70670837996705
 20
18.721446101376102
 10
40.70801127067665
 20
18.72434825078572
 10
40.84340904819181
 20
19.012215226684248
 10
40.84481369009057
 20
19.015069517582727
 10
40.990300415538385
 20
19.297971561915176
 10
40.9918050536918
 20
19.300774428202427
 10
41.14719895855475
 20
19.57835808820505
 10
41.14880171309477
 20
19.581106028029968
 10
41.313908651002265
 20
19.85302449563344
 10
41.31560751947597
 20
19.855714075769065
 10
41.490221208767295
 20
20.121627620894316
 10
41.49201406863875
 20
20.124255481027237
 10
41.67591635008776
 20
20.383831876038144
 10
41.677800961389856
 20
20.386394732966835
 10
41.870762070769175
 20
20.63930966774948
 10
41.872736078902186
 20
20.641804319486237
 10
42.07451493404655
 20
20.887741806636207
 10
42.07657587271995
 20
20.890165136407692
 10
42.28692037472993
 20
21.128817906019073
 10
42.28906566904375
 20
21.131166886160322
 10
42.50771301725365
 20
21.362236769723243
 10
42.50993998691546
 20
21.364508465460414
 10
42.73661700723179
 20
21.587706768387473
 10
42.73892286990546
 20
21.589898341504462
 10
42.973346356105715
 20
21.804946203820563
 10
42.97572823088757
 20
21.80705491620504
 10
43.21760529845309
 20
22.013683660950097
 10
43.22006020947131
 20
22.015706878014456
 10
43.46908866151191
 20
22.213658346923566
 10
43.471613541644494
 20
22.21559354089652
 10
43.7274822464579
 20
22.4046204169383
 10
43.73007394116469
 20
22.406465170023058
 10
43.99246322095895
 20
22.58633128639314
 10
43.99511849222284
 20
22.588083293788124
 10
44.26370052251602
 20
22.75856392897172
 10
44.26641605288849
 20
22.760221001750168
 10
44.540855272086716
 20
22.92110316028515
 10
44.54362766883261
 20
22.922663228129913
 10
44.82358119747479
 20
23.073745906719505
 10
44.826406996811095
 20
23.075207020509676
 10
45.111525065956315
 20
23.216301459152415
 10
45.114400737379796
 20
23.2176617933985
 10
45.40432712560247
 20
23.348591711221594
 10
45.40724907630058
 20
23.34984956634628
 10
45.7016215547471
 20
23.4704513818478
 10
45.70458613408681
 20
23.47160518630934
 10
46.00303691903781
 20
23.581728221734
 10
46.00604042312661
 20
23.5827765339897
 10
46.308196635499385
 20
23.68228320358299
 10
46.31123531181289
 20
23.68322471389024
 10
46.61671944302986
 20
23.771990695795584
 10
46.61978949510013
 20
23.772824227848204
 10
46.92821987874133
 20
23.850738619432477
 10
46.93131747090011
 20
23.851463131830407
 10
47.2423087595504
 20
23.91842858824372
 10
47.24543002172135
 20
23.91904317579411
 10
47.55859366841657
 20
23.97497603159069
 10
47.56173470095046
 20
23.975479926438812
 10
47.8766794446211
 20
24.020310300107163
 10
47.87983632316794
 20
24.0207028726958
 10
48.19616867747373
 20
24.05437475396738
 10
48.19933745788584
 20
24.05465551382334
 10
48.51666220283054
 20
24.077126833650805
 10
48.51983892609024
 20
24.077295429997747
 10
48.83775960180248
 20
24.08853811311527
 10
48.840940298968434
 20
24.088594335311917
 10
49.159059701031566
 20
24.088594335311917
 10
49.16224039819752
 20
24.08853811311527
 10
49.480161073909755
 20
24.077295429997747
 10
49.483337797169455
 20
24.077126833650805
 10
49.80066254211416
 20
24.05465551382334
 10
49.80383132252627
 20
24.05437475396738
 10
50.12016367683206
 20
24.0207028726958
 10
50.1233205553789
 20
24.020310300107163
 10
50.43826529904954
 20
23.975479926438812
 10
50.44140633158343
 20
23.97497603159069
 10
50.75456997827865
 20
23.91904317579411
 10
50.7576912404496
 20
23.918428588243724
 10
51.06868252909989
 20
23.851463131830414
 10
51.07178012125867
 20
23.85073861943248
 10
51.38021050489987
 20
23.772824227848204
 10
51.38328055697014
 20
23.771990695795584
 10
51.68876468818711
 20
23.68322471389024
 10
51.691803364500615
 20
23.68228320358299
 10
51.99395957687339
 20
23.5827765339897
 10
51.99696308096219
 20
23.581728221734
 10
52.29541386591319
 20
23.47160518630934
 10
52.298378445252894
 20
23.4704513818478
 10
52.59275092369941
 20
23.349849566346283
 10
52.59567287439753
 20
23.348591711221598
 10
52.885599262620204
 20
23.2176617933985
 10
52.888474934043685
 20
23.216301459152415
 10
53.173593003188905
 20
23.075207020509676
 10
53.17641880252521
 20
23.073745906719505
 10
53.45637233116739
 20
22.922663228129913
 10
53.459144727913284
 20
22.92110316028515
 10
53.73358394711151
 20
22.760221001750168
 10
53.73629947748398
 20
22.75856392897172
 10
54.00488150777716
 20
22.588083293788124
 10
54.00753677904105
 20
22.58633128639314
 10
54.26992605883531
 20
22.406465170023058
 10
54.2725177535421
 20
22.404620416938304
 10
54.52838645835551
 20
22.215593540896524
 10
54.530911338488096
 20
22.213658346923562
 10
54.77993979052869
 20
22.015706878014452
 10
54.78239470154691
 20
22.013683660950097
 10
55.024271769112424
 20
21.807054916205043
 10
55.02665364389428
 20
21.804946203820567
 10
55.261077130094534
 20
21.589898341504462
 10
55.2633829927682
 20
21.587706768387473
 10
55.49006001308453
 20
21.364508465460418
 10
55.49228698274634
 20
21.36223676972325
 10
55.710934330956256
 20
21.131166886160326
 10
55.713079625270076
 20
21.12881790601907
 10
55.92342412728005
 20
20.89016513640769
 10
55.92548506595345
 20
20.887741806636207
 10
56.12726392109781
 20
20.64180431948624
 10
56.12923792923082
 20
20.639309667749483
 10
56.322199038610144
 20
20.38639473296683
 10
56.32408364991224
 20
20.38383187603814
 10
56.50798593136125
 20
20.12425548102724
 10
56.509778791232705
 20
20.12162762089432
 10
56.68439248052403
 20
19.855714075769065
 10
56.686091348997735
 20
19.85302449563344
 10
56.85119828690523
 20
19.581106028029968
 10
56.85280104144525
 20
19.57835808820505
 10
57.0081949463082
 20
19.30077442820243
 10
57.009699584461615
 20
19.29797156191518
 10
57.155186309909425
 20
19.015069517582727
 10
57.156590951808184
 20
19.012215226684248
 10
57.29198872932335
 20
18.72434825078572
 10
57.29329162003295
 20
18.721446101376102
 10
57.41843128604938
 20
18.42897384977212
 10
57.41963079776142
 20
18.42602746774503
 10
57.53435600501444
 20
18.129315350045463
 10
57.53545063908041
 20
18.126328416558
 10
57.639618051944154
 20
17.825747139585726
 10
57.64060644074779
 20
17.822723386459266
 10
57.73408591431625
 20
17.51864849109569
 10
57.73496682298222
 20
17.515591696153418
 10
57.81764156566996
 20
17.20840308814439
 10
57.8184138936067
 20
17.205317070491326
 10
57.890180613066114
 20
16.895398545799686
 10
57.8908433953409
 20
16.892287161051197
 10
57.95161242751389
 20
16.58002592634896
 10
57.951466962505286
 20
16.544909969673277
 10
57.9378942755297
 20
16.512522723084846
 10
57.91296068514246
 20
16.48779485128563
 10
57.880462104456456
 20
16.474490948598348
 10
57.84534614778077
 20
16.47463641360696
 10
57.81295890119234
 20
16.488209100582548
 10
57.788231029393124
 20
16.51314269096979
 10
57.77492712670585
 20
16.54564127165579
  0
LWPOLYLINE
  5
49
330
17
100
AcDbEntity
  8
ENGRAVE_LINES
100
AcDbPolyline
 90
18
 70
1
 10
34.0
 20
17.075
 10
34.02870125742738
 20
17.069290964938347
 10
34.05303300858899
 20
17.05303300858899
 10
34.06929096493835
 20
17.028701257427382
 10
34.075
 20
17.0
 10
34.06929096493835
 20
16.971298742572618
 10
34.05303300858899
 20
16.94696699141101
 10
34.02870125742738
 20
16.930709035061653
 10
34.0
 20
16.925
 10
15.0
 20
16.925
 10
14.971298742572618
 20
16.930709035061653
 10
14.946966991411008
 20
16.94696699141101
 10
14.930709035061653
 20
16.971298742572618
 10
14.925
 20
17.0
 10
14.930709035061653
 20
17.028701257427382
 10
14.946966991411008
 20
17.05303300858899
 10
14.971298742572618
 20
17.069290964938347
 10
15.0
 20
17.075
  0
LWPOLYLINE
  5
4A
330
17
100
AcDbEntity
  8
ENGRAVE_LINES
100
AcDbPolyline
 90
18
 70
1
 10
34.0
 20
13.59
 10
34.034441508912856
 20
13.583149157926016
 10
34.06363961030679
 20
13.563639610306788
 10
34.083149157926016
 20
13.534441508912858
 10
34.09
 20
13.5
 10
34.083149157926016
 20
13.465558491087142
 10
34.06363961030679
 20
13.436360389693212
 10
34.034441508912856
 20
13.416850842073984
 10
34.0
 20
13.41
 10
15.0
 20
13.41
 10
14.965558491087142
 20
13.416850842073984
 10
14.936360389693212
 20
13.436360389693212
 10
14.916850842073984
 20
13.465558491087142
 10
14.91
 20
13.5
 10
14.916850842073984
 20
13.534441508912858
 10
14.936360389693212
 20
13.563639610306788
 10
14.965558491087142
 20
13.583149157926016
 10
15.0
 20
13.59
  0
LWPOLYLINE
  5
4B
330
17
100
AcDbEntity
  8
ENGRAVE_LINES
100
AcDbPolyline
 90
18
 70
1
 10
34.0
 20
10.11
 10
34.04209517756016
 20
10.101626748576242
 10
34.07778174593052
 20
10.07778174593052
 10
34.101626748576244
 20
10.04209517756016
 10
34.11
 20
10.0
 10
34.101626748576244
 20
9.95790482243984
 10
34.07778174593052
 20
9.92221825406948
 10
34.04209517756016
 20
9.898373251423758
 10
34.0
 20
9.89
 10
15.0
 20
9.89
 10
14.95790482243984
 20
9.898373251423758
 10
14.92221825406948
 20
9.92221825406948
 10
14.898373251423758
 20
9.95790482243984
 10
14.89
 20
10.0
 10
14.898373251423758
 20
10.04209517756016
 10
14.92221825406948
 20
10.07778174593052
 10
14.95790482243984
 20
10.101626748576242
 10
15.0
 20
10.11
  0
LWPOLYLINE
  5
4C
330
17
100
AcDbEntity
  8
ENGRAVE_LINES
100
AcDbPolyline
 90
18
 70
1
 10
34.0
 20
6.65
 10
34.057402514854765
 20
6.638581929876693
 10
34.10606601717798
 20
6.606066017177982
 10
34.13858192987669
 20
6.557402514854764
 10
34.15
 20
6.5
 10
34.13858192987669
 20
6.442597485145236
 10
34.10606601717798
 20
6.393933982822018
 10
34.057402514854765
 20
6.361418070123307
 10
34.0
 20
6.35
 10
15.0
 20
6.35
 10
14.942597485145237
 20
6.361418070123307
 10
14.893933982822018
 20
6.393933982822018
 10
14.861418070123307
 20
6.442597485145236
 10
14.85
 20
6.5
 10
14.861418070123307
 20
6.557402514854764
 10
14.893933982822018
 20
6.606066017177982
 10
14.942597485145237
 20
6.638581929876693
 10
15.0
 20
6.65
  0
LWPOLYLINE
  5
4D
330
17
100
AcDbEntity
  8
ENGRAVE_FILL
100
AcDbPolyline
 90
10
 70
1
 10
4.294375
 20
22.0
 10
4.294375
 20
24.1871875
 10
4.58171875
 20
24.1871875
 10
4.58171875
 20
22.35765625
 10
5.55109375
 20
24.1871875
 10
5.94953125
 20
24.1871875
 10
5.94953125
 20
22.0
 10
5.6626562499999995
 20
22.0
 10
5.6626562499999995
 20
23.82953125
 10
4.6928125
 20
22.0
  0
LWPOLYLINE
  5
4E
330
17
100
AcDbEntity
  8
ENGRAVE_FILL
100
AcDbPolyline
 90
13
 70
1
 10
8.539609375
 20
24.1871875
 10
8.539609375
 20
22.0
 10
8.250859375000001
 20
22.0
 10
8.250859375000001
 20
23.92046875
 10
7.6869531250000005
 20
22.42046875
 10
7.389765625
 20
22.42046875
 10
6.825859375
 20
23.92046875
 10
6.825859375
 20
22.0
 10
6.5385156250000005
 20
22.0
 10
6.5385156250000005
 20
24.1871875
 10
6.979609375
 20
24.1871875
 10
7.537421875
 20
22.69890625
 10
8.098515625000001
 20
24.1871875
  0
LWPOLYLINE
  5
4F
330
17
100
AcDbEntity
  8
ENGRAVE_FILL
100
AcDbPolyline
 90
8
 70
1
 10
9.42267578125
 20
23.9378125
 10
9.42267578125
 20
22.0
 10
9.126894531249999
 20
22.0
 10
9.126894531249999
 20
24.1871875
 10
10.79376953125
 20
24.1871875
 10
10.79376953125
 20
22.0
 10
10.497988281249999
 20
22.0
 10
10.497988281249999
 20
23.9378125
  0
LWPOLYLINE
  5
50
330
17
100
AcDbEntity
  8
ENGRAVE_FILL
100
AcDbPolyline
 90
18
 70
1
 10
11.48681640625
 20
22.0
 10
11.37384765625
 20
22.0
 10
11.37384765625
 20
22.24890625
 10
11.466191406250001
 20
22.24890625
 10
11.61384765625
 20
22.2588671875
 10
11.70806640625
 20
22.28875
 10
11.74533203125
 20
22.322734375
 10
11.77556640625
 20
22.375
 10
11.841191406250001
 20
22.53015625
 10
11.13947265625
 20
24.1871875
 10
11.45775390625
 20
24.1871875
 10
12.00103515625
 20
22.90375
 10
12.54759765625
 20
24.1871875
 10
12.86541015625
 20
24.1871875
 10
12.04791015625
 20
22.2653125
 10
12.01298828125
 20
22.1962890625
 10
11.970097656250001
 20
22.13640625
 10
11.791386718750001
 20
22.0341015625
  0
LWPOLYLINE
  5
51
330
17
100
AcDbEntity
  8
ENGRAVE_FILL
100
AcDbPolyline
 90
16
 70
1
 10
13.543691406249998
 20
23.061367187500004
 10
13.57556640625
 20
23.815
 10
13.57556640625
 20
24.1871875
 10
14.87634765625
 20
24.1871875
 10
14.87634765625
 20
22.0
 10
14.58056640625
 20
22.0
 10
14.58056640625
 20
23.9378125
 10
13.86994140625
 20
23.9378125
 10
13.86994140625
 20
23.66828125
 10
13.83267578125
 20
22.9500390625
 10
13.72087890625
 20
22.4528125
 10
13.47865234375
 20
22.15421875
 10
13.03978515625
 20
22.0
 10
13.03978515625
 20
22.24890625
 10
13.30076171875
 20
22.360703125
 10
13.44806640625
 20
22.55828125
  0
LWPOLYLINE
  5
52
330
17
100
AcDbEntity
  8
ENGRAVE_FILL
100
AcDbPolyline
 90
13
 70
1
 10
16.577675781249997
 20
23.2476953125
 10
16.819082031249998
 20
23.1278125
 10
16.968496093749998
 20
22.926953125
 10
17.018300781249998
 20
22.643125
 10
16.968496093749998
 20
22.360234375
 10
16.819082031249998
 20
22.159375
 10
16.577675781249997
 20
22.03984375
 10
16.25189453125
 20
22.0
 10
15.466738281249999
 20
22.0
 10
15.466738281249999
 20
24.1871875
 10
15.76251953125
 20
24.1871875
 10
15.76251953125
 20
23.28765625
 10
16.25189453125
 20
23.28765625
  0
LWPOLYLINE
  5
53
330
17
100
AcDbEntity
  8
ENGRAVE_FILL
100
AcDbPolyline
 90
11
 70
1
 10
16.237363281249998
 20
23.044375
 10
15.76251953125
 20
23.044375
 10
15.76251953125
 20
22.24328125
 10
16.237363281249998
 20
22.24328125
 10
16.444902343749998
 20
22.268124999999998
 10
16.59033203125
 20
22.34265625
 10
16.67716796875
 20
22.4669921875
 10
16.706113281249998
 20
22.643125
 10
16.67716796875
 20
22.8206640625
 10
16.59033203125
 20
22.94640625
 10
16.444902343749998
 20
23.0198828125
  0
LWPOLYLINE
  5
54
330
17
100
AcDbEntity
  8
ENGRAVE_FILL
100
AcDbPolyline
 90
34
 70
1
 10
18.84390625
 20
23.914375
 10
18.669414062499996
 20
23.966054687499998
 10
18.484375
 20
23.98328125
 10
18.1533203125
 20
23.9259765625
 10
17.91015625
 20
23.7540625
 10
17.7607421875
 20
23.47375
 10
17.7109375
 20
23.09125
 10
17.7607421875
 20
22.7098046875
 10
17.91015625
 20
22.42984375
 10
18.1533203125
 20
22.2579296875
 10
18.484375
 20
22.200625
 10
18.669414062499996
 20
22.2178515625
 10
18.84390625
 20
22.26953125
 10
19.008203125
 20
22.356015624999998
 10
19.162656249999998
 20
22.47765625
 10
19.162656249999998
 20
22.16828125
 10
19.002812499999997
 20
22.075937500000002
 10
18.83359375
 20
22.00984375
 10
18.655234375
 20
21.970468750000002
 10
18.467031249999998
 20
21.95734375
 10
18.022890625
 20
22.03328125
 10
17.68421875
 20
22.26109375
 10
17.4701171875
 20
22.6207421875
 10
17.39875
 20
23.09125
 10
17.4701171875
 20
23.562695312499997
 10
17.68421875
 20
23.92234375
 10
18.022890625
 20
24.1505078125
 10
18.467031249999998
 20
24.2265625
 10
18.65734375
 20
24.2135546875
 10
18.83640625
 20
24.17453125
 10
19.004921874999997
 20
24.109492187500003
 10
19.162656249999998
 20
24.0184375
 10
19.162656249999998
 20
23.70671875
 10
19.008203125
 20
23.8282421875
  0
LWPOLYLINE
  5
55
330
17
100
AcDbEntity
  8
ENGRAVE_FILL
100
AcDbPolyline
 90
8
 70
1
 10
21.0450390625
 20
22.0
 10
20.8458203125
 20
22.56109375
 10
19.8600390625
 20
22.56109375
 10
19.6608203125
 20
22.0
 10
19.3486328125
 20
22.0
 10
20.1834765625
 20
24.1871875
 10
20.519101562499998
 20
24.1871875
 10
21.3525390625
 20
22.0
  0
LWPOLYLINE
  5
56
330
17
100
AcDbEntity
  8
ENGRAVE_FILL
100
AcDbPolyline
 90
3
 70
1
 10
20.350820312499998
 20
23.895625
 10
19.949101562499997
 20
22.8071875
 10
20.753476562499998
 20
22.8071875
  0
LWPOLYLINE
  5
57
330
17
100
AcDbEntity
  8
ENGRAVE_FILL
100
AcDbPolyline
 90
13
 70
1
 10
22.662753906249996
 20
24.1455859375
 10
22.895722656249998
 20
24.02078125
 10
23.03705078125
 20
23.8158203125
 10
23.08416015625
 20
23.53375
 10
23.03705078125
 20
23.249453125000002
 10
22.895722656249998
 20
23.044375
 10
22.662753906249996
 20
22.9202734375
 10
22.33978515625
 20
22.87890625
 10
21.96759765625
 20
22.87890625
 10
21.96759765625
 20
22.0
 10
21.67181640625
 20
22.0
 10
21.67181640625
 20
24.1871875
 10
22.33978515625
 20
24.1871875
  0
LWPOLYLINE
  5
58
330
17
100
AcDbEntity
  8
ENGRAVE_FILL
100
AcDbPolyline
 90
11
 70
1
 10
22.33978515625
 20
23.1221875
 10
22.52294921875
 20
23.14890625
 10
22.65900390625
 20
23.2290625
 10
22.74373046875
 20
23.358671875
 10
22.77197265625
 20
23.53375
 10
22.74373046875
 20
23.707773437500002
 10
22.65900390625
 20
23.83703125
 10
22.52294921875
 20
23.9171875
 10
22.33978515625
 20
23.94390625
 10
21.96759765625
 20
23.94390625
 10
21.96759765625
 20
23.1221875
  0
LWPOLYLINE
  5
59
330
17
100
AcDbEntity
  8
ENGRAVE_FILL
100
AcDbPolyline
 90
4
 70
1
 10
24.122617187499998
 20
22.94171875
 10
24.122617187499998
 20
22.70171875
 10
23.333242187499998
 20
22.70171875
 10
23.333242187499998
 20
22.94171875
  0
LWPOLYLINE
  5
5A
330
17
100
AcDbEntity
  8
ENGRAVE_FILL
100
AcDbPolyline
 90
16
 70
1
 10
25.54697265625
 20
24.1537890625
 10
25.78451171875
 20
23.93546875
 10
25.930058593749997
 20
23.5791015625
 10
25.978574218749998
 20
23.09125
 10
25.930058593749997
 20
22.6043359375
 10
25.78451171875
 20
22.24796875
 10
25.54697265625
 20
22.03
 10
25.22248046875
 20
21.95734375
 10
24.89833984375
 20
22.03
 10
24.66091796875
 20
22.24796875
 10
24.515371093749998
 20
22.6043359375
 10
24.466855468749998
 20
23.09125
 10
24.515371093749998
 20
23.5791015625
 10
24.66091796875
 20
23.93546875
 10
24.89833984375
 20
24.1537890625
 10
25.22248046875
 20
24.2265625
  0
LWPOLYLINE
  5
5B
330
17
100
AcDbEntity
  8
ENGRAVE_FILL
100
AcDbPolyline
 90
16
 70
1
 10
25.022441406249996
 20
23.9359375
 10
24.87888671875
 20
23.7671875
 10
24.79275390625
 20
23.4859375
 10
24.76404296875
 20
23.09125
 10
24.79275390625
 20
22.6978515625
 10
24.87888671875
 20
22.41671875
 10
25.022441406249996
 20
22.24796875
 10
25.22248046875
 20
22.19171875
 10
25.42380859375
 20
22.24796875
 10
25.56748046875
 20
22.41671875
 10
25.65396484375
 20
22.6978515625
 10
25.68279296875
 20
23.09125
 10
25.65396484375
 20
23.4859375
 10
25.56748046875
 20
23.7671875
 10
25.42380859375
 20
23.9359375
 10
25.22248046875
 20
23.9921875
  0
LWPOLYLINE
  5
5C
330
17
100
AcDbEntity
  8
ENGRAVE_FILL
100
AcDbPolyline
 90
11
 70
1
 10
26.549921875
 20
22.24890625
 10
27.033203125
 20
22.24890625
 10
27.033203125
 20
23.91765625
 10
26.507265625
 20
23.8121875
 10
26.507265625
 20
24.08171875
 10
27.030390625
 20
24.1871875
 10
27.326171875
 20
24.1871875
 10
27.326171875
 20
22.24890625
 10
27.809453124999997
 20
22.24890625
 10
27.809453124999997
 20
22.0
 10
26.549921875
 20
22.0
  0
LWPOLYLINE
  5
5D
330
17
100
AcDbEntity
  8
ENGRAVE_FILL
100
AcDbPolyline
 90
16
 70
1
 10
4.851953125
 20
17.735859375
 10
5.0103124999999995
 20
17.5903125
 10
5.10734375
 20
17.352734375
 10
5.1396875
 20
17.0275
 10
5.10734375
 20
16.702890625000002
 10
5.0103124999999995
 20
16.4653125
 10
4.851953125
 20
16.32
 10
4.635625
 20
16.2715625
 10
4.41953125
 20
16.32
 10
4.26125
 20
16.4653125
 10
4.16421875
 20
16.702890625000002
 10
4.131875
 20
17.0275
 10
4.16421875
 20
17.352734375
 10
4.26125
 20
17.5903125
 10
4.41953125
 20
17.735859375
 10
4.635625
 20
17.784375
  0
LWPOLYLINE
  5
5E
330
17
100
AcDbEntity
  8
ENGRAVE_FILL
100
AcDbPolyline
 90
16
 70
1
 10
4.635625
 20
17.628125
 10
4.502265625
 20
17.590625000000003
 10
4.4065625
 20
17.478125000000002
 10
4.349140625
 20
17.290625
 10
4.33
 20
17.0275
 10
4.349140625
 20
16.765234375000002
 10
4.4065625
 20
16.5778125
 10
4.502265625
 20
16.465312500000003
 10
4.635625
 20
16.4278125
 10
4.76984375
 20
16.465312500000003
 10
4.865625
 20
16.5778125
 10
4.9232812500000005
 20
16.765234375000002
 10
4.9425
 20
17.0275
 10
4.9232812500000005
 20
17.290625
 10
4.865625
 20
17.478125000000002
 10
4.76984375
 20
17.590625000000003
  0
LWPOLYLINE
  5
5F
330
17
100
AcDbEntity
  8
ENGRAVE_FILL
100
AcDbPolyline
 90
4
 70
1
 10
5.4862109375
 20
16.548125000000002
 10
5.6924609375
 20
16.548125000000002
 10
5.6924609375
 20
16.3
 10
5.4862109375
 20
16.3
  0
LWPOLYLINE
  5
60
330
17
100
AcDbEntity
  8
ENGRAVE_FILL
100
AcDbPolyline
 90
11
 70
1
 10
6.156328125
 20
16.4659375
 10
6.478515625
 20
16.4659375
 10
6.478515625
 20
17.5784375
 10
6.127890625
 20
17.508125
 10
6.127890625
 20
17.6878125
 10
6.476640625
 20
17.758125
 10
6.673828125
 20
17.758125
 10
6.673828125
 20
16.4659375
 10
6.996015625
 20
16.4659375
 10
6.996015625
 20
16.3
 10
6.156328125
 20
16.3
  0
LWPOLYLINE
  5
61
330
17
100
AcDbEntity
  8
ENGRAVE_FILL
100
AcDbPolyline
 90
38
 70
1
 10
7.3966015625
 20
17.758125
 10
8.1709765625
 20
17.758125
 10
8.1709765625
 20
17.591875
 10
7.5772265625
 20
17.591875
 10
7.5772265625
 20
17.2346875
 10
7.6200390625
 20
17.247500000000002
 10
7.6628515625
 20
17.2565625
 10
7.7059765625
 20
17.261953125
 10
7.7491015625
 20
17.26375
 10
7.9677734375
 20
17.230312500000004
 10
8.1356640625
 20
17.130000000000003
 10
8.2427734375
 20
16.972578125
 10
8.2784765625
 20
16.7678125
 10
8.2418359375
 20
16.558671875
 10
8.1319140625
 20
16.401875
 10
7.955351562500001
 20
16.304140625000002
 10
7.7187890625
 20
16.2715625
 10
7.6260546875
 20
16.27546875
 10
7.531601562500001
 20
16.2871875
 10
7.4349609375
 20
16.30671875
 10
7.3350390625
 20
16.3340625
 10
7.3350390625
 20
16.532500000000002
 10
7.4243359375
 20
16.49078125
 10
7.5166015625
 20
16.46125
 10
7.6130078125
 20
16.443671875
 10
7.7147265625
 20
16.4378125
 10
7.8661328125
 20
16.46
 10
7.9822265625
 20
16.5265625
 10
8.0562890625
 20
16.63125
 10
8.0809765625
 20
16.7678125
 10
8.0562890625
 20
16.904140625000004
 10
7.9822265625
 20
17.00875
 10
7.8661328125
 20
17.075546875
 10
7.7147265625
 20
17.0978125
 10
7.6357421875
 20
17.0934375
 10
7.556914062500001
 20
17.0803125
 10
7.4776171875
 20
17.057890625
 10
7.3966015625
 20
17.025625
  0
LWPOLYLINE
  5
62
330
17
100
AcDbEntity
  8
ENGRAVE_FILL
100
AcDbPolyline
 90
16
 70
1
 10
5.10734375
 20
13.852734375
 10
5.1396875
 20
13.5275
 10
5.10734375
 20
13.202890625
 10
5.0103124999999995
 20
12.965312500000001
 10
4.851953125
 20
12.82
 10
4.635625
 20
12.7715625
 10
4.41953125
 20
12.82
 10
4.26125
 20
12.965312500000001
 10
4.16421875
 20
13.202890625
 10
4.131875
 20
13.5275
 10
4.16421875
 20
13.852734375
 10
4.26125
 20
14.090312500000001
 10
4.41953125
 20
14.235859375
 10
4.635625
 20
14.284375
 10
4.851953125
 20
14.235859375
 10
5.0103124999999995
 20
14.090312500000001
  0
LWPOLYLINE
  5
63
330
17
100
AcDbEntity
  8
ENGRAVE_FILL
100
AcDbPolyline
 90
16
 70
1
 10
4.4065625
 20
13.978125
 10
4.349140625
 20
13.790625000000002
 10
4.33
 20
13.5275
 10
4.349140625
 20
13.265234375
 10
4.4065625
 20
13.0778125
 10
4.502265625
 20
12.9653125
 10
4.635625
 20
12.9278125
 10
4.76984375
 20
12.9653125
 10
4.865625
 20
13.0778125
 10
4.9232812500000005
 20
13.265234375
 10
4.9425
 20
13.5275
 10
4.9232812500000005
 20
13.790625000000002
 10
4.865625
 20
13.978125
 10
4.76984375
 20
14.090625000000001
 10
4.635625
 20
14.128125
 10
4.502265625
 20
14.090625000000001
  0
LWPOLYLINE
  5
64
330
17
100
AcDbEntity
  8
ENGRAVE_FILL
100
AcDbPolyline
 90
4
 70
1
 10
5.6924609375
 20
12.8
 10
5.4862109375
 20
12.8
 10
5.4862109375
 20
13.048125
 10
5.6924609375
 20
13.048125
  0
LWPOLYLINE
  5
65
330
17
100
AcDbEntity
  8
ENGRAVE_FILL
100
AcDbPolyline
 90
11
 70
1
 10
6.478515625
 20
14.078437500000001
 10
6.127890625
 20
14.008125000000001
 10
6.127890625
 20
14.187812500000001
 10
6.476640625
 20
14.258125000000001
 10
6.673828125
 20
14.258125000000001
 10
6.673828125
 20
12.9659375
 10
6.996015625
 20
12.9659375
 10
6.996015625
 20
12.8
 10
6.156328125
 20
12.8
 10
6.156328125
 20
12.9659375
 10
6.478515625
 20
12.9659375
  0
LWPOLYLINE
  5
66
330
17
100
AcDbEntity
  8
ENGRAVE_FILL
100
AcDbPolyline
 90
32
 70
1
 10
7.4212890625
 20
13.694375
 10
7.3683203125
 20
13.791015625
 10
7.3506640625
 20
13.906562500000001
 10
7.3817578125
 20
14.062968750000001
 10
7.4750390625000005
 20
14.1828125
 10
7.6226953125
 20
14.258984375
 10
7.8162890625
 20
14.284375
 10
8.010664062499998
 20
14.258984375
 10
8.1581640625
 20
14.1828125
 10
8.2512109375
 20
14.062968750000001
 10
8.2822265625
 20
13.906562500000001
 10
8.2644921875
 20
13.791015625
 10
8.2112890625
 20
13.694375
 10
8.126835937500001
 20
13.62140625
 10
8.0147265625
 20
13.57625
 10
8.1414453125
 20
13.5271875
 10
8.236601562499999
 20
13.446250000000001
 10
8.2963671875
 20
13.338984375
 10
8.316289062500001
 20
13.2103125
 10
8.2839453125
 20
13.0228125
 10
8.1869140625
 20
12.8846875
 10
8.029570312499999
 20
12.79984375
 10
7.8162890625
 20
12.7715625
 10
7.6031640625
 20
12.79984375
 10
7.445664062500001
 20
12.8846875
 10
7.3486328125
 20
13.0228125
 10
7.3162890625
 20
13.2103125
 10
7.336289062500001
 20
13.338984375
 10
7.3962890625
 20
13.446250000000001
 10
7.4921484375
 20
13.5271875
 10
7.6191015625
 20
13.57625
 10
7.5062109375
 20
13.62140625
  0
LWPOLYLINE
  5
67
330
17
100
AcDbEntity
  8
ENGRAVE_FILL
100
AcDbPolyline
 90
16
 70
1
 10
7.5950390625
 20
13.4171875
 10
7.534804687499999
 20
13.3278125
 10
7.5147265625
 20
13.2103125
 10
7.534804687499999
 20
13.092578125000001
 10
7.5950390625
 20
13.003125
 10
7.6906640625
 20
12.946640625
 10
7.8162890625
 20
12.9278125
 10
7.9419921875
 20
12.946718749999999
 10
8.0378515625
 20
13.0034375
 10
8.0987890625
 20
13.093125
 10
8.1191015625
 20
13.2103125
 10
8.0989453125
 20
13.3278125
 10
8.0384765625
 20
13.4171875
 10
7.9427734375
 20
13.473671875
 10
7.8162890625
 20
13.492500000000001
 10
7.6906640625
 20
13.473671875
  0
LWPOLYLINE
  5
68
330
17
100
AcDbEntity
  8
ENGRAVE_FILL
100
AcDbPolyline
 90
16
 70
1
 10
7.564570312500001
 20
13.787109375
 10
7.617539062500001
 20
13.711250000000001
 10
7.7026953125
 20
13.663671875
 10
7.8162890625
 20
13.6478125
 10
7.9295703125
 20
13.663671875
 10
8.0150390625
 20
13.711250000000001
 10
8.0689453125
 20
13.787109375
 10
8.0869140625
 20
13.8878125
 10
8.0689453125
 20
13.988750000000001
 10
8.0150390625
 20
14.064687500000002
 10
7.9295703125
 20
14.112265625000001
 10
7.8162890625
 20
14.128125
 10
7.7026953125
 20
14.112265625000001
 10
7.617539062500001
 20
14.064687500000002
 10
7.564570312500001
 20
13.988750000000001
 10
7.5469140625
 20
13.8878125
  0
LWPOLYLINE
  5
69
330
17
100
AcDbEntity
  8
ENGRAVE_FILL
100
AcDbPolyline
 90
16
 70
1
 10
4.851953125
 20
10.735859375
 10
5.0103124999999995
 20
10.590312500000001
 10
5.10734375
 20
10.352734375
 10
5.1396875
 20
10.0275
 10
5.10734375
 20
9.702890625
 10
5.0103124999999995
 20
9.465312500000001
 10
4.851953125
 20
9.32
 10
4.635625
 20
9.2715625
 10
4.41953125
 20
9.32
 10
4.26125
 20
9.465312500000001
 10
4.16421875
 20
9.702890625
 10
4.131875
 20
10.0275
 10
4.16421875
 20
10.352734375
 10
4.26125
 20
10.590312500000001
 10
4.41953125
 20
10.735859375
 10
4.635625
 20
10.784375
  0
LWPOLYLINE
  5
6A
330
17
100
AcDbEntity
  8
ENGRAVE_FILL
100
AcDbPolyline
 90
16
 70
1
 10
4.635625
 20
10.628125
 10
4.502265625
 20
10.590625000000001
 10
4.4065625
 20
10.478125
 10
4.349140625
 20
10.290625000000002
 10
4.33
 20
10.0275
 10
4.349140625
 20
9.765234375
 10
4.4065625
 20
9.5778125
 10
4.502265625
 20
9.4653125
 10
4.635625
 20
9.4278125
 10
4.76984375
 20
9.4653125
 10
4.865625
 20
9.5778125
 10
4.9232812500000005
 20
9.765234375
 10
4.9425
 20
10.0275
 10
4.9232812500000005
 20
10.290625000000002
 10
4.865625
 20
10.478125
 10
4.76984375
 20
10.590625000000001
  0
LWPOLYLINE
  5
6B
330
17
100
AcDbEntity
  8
ENGRAVE_FILL
100
AcDbPolyline
 90
4
 70
1
 10
5.4862109375
 20
9.548125
 10
5.6924609375
 20
9.548125
 10
5.6924609375
 20
9.3
 10
5.4862109375
 20
9.3
  0
LWPOLYLINE
  5
6C
330
17
100
AcDbEntity
  8
ENGRAVE_FILL
100
AcDbPolyline
 90
37
 70
1
 10
6.291953125
 20
9.4659375
 10
6.980390625
 20
9.4659375
 10
6.980390625
 20
9.3
 10
6.054765625
 20
9.3
 10
6.054765625
 20
9.4659375
 10
6.18734375
 20
9.60203125
 10
6.360703125000001
 20
9.777812500000001
 10
6.518671875000001
 20
9.938984375
 10
6.604453125
 20
10.030625
 10
6.684843750000001
 20
10.12875
 10
6.736640625
 20
10.210625
 10
6.765000000000001
 20
10.283750000000001
 10
6.774453125
 20
10.355625
 10
6.7540625
 20
10.46109375
 10
6.692890625
 20
10.545000000000002
 10
6.598984375000001
 20
10.600078125
 10
6.480390625
 20
10.6184375
 10
6.385
 20
10.610390625
 10
6.284453125000001
 20
10.586250000000001
 10
6.178046875
 20
10.545703125
 10
6.064453125
 20
10.4884375
 10
6.064453125
 20
10.687812500000001
 10
6.179609375
 20
10.729765625000002
 10
6.286953125
 20
10.760000000000002
 10
6.38625
 20
10.778281250000001
 10
6.476640625
 20
10.784375
 10
6.6802343749999995
 20
10.756015625
 10
6.837890625
 20
10.6709375
 10
6.9389062500000005
 20
10.53875
 10
6.972578125
 20
10.3684375
 10
6.964140625000001
 20
10.28078125
 10
6.938828125000001
 20
10.197812500000001
 10
6.891484375
 20
10.110234375000001
 10
6.816328125
 20
10.008125000000001
 10
6.7653125
 20
9.952968750000002
 10
6.661015625
 20
9.844375000000001
 10
6.5034375
 20
9.682109375
  0
LWPOLYLINE
  5
6D
330
17
100
AcDbEntity
  8
ENGRAVE_FILL
100
AcDbPolyline
 90
37
 70
1
 10
7.5644140625
 20
9.4659375
 10
8.2528515625
 20
9.4659375
 10
8.2528515625
 20
9.3
 10
7.3272265625
 20
9.3
 10
7.3272265625
 20
9.4659375
 10
7.4598046875
 20
9.60203125
 10
7.633164062500001
 20
9.777812500000001
 10
7.791132812500001
 20
9.938984375
 10
7.8769140625
 20
10.030625
 10
7.957304687500001
 20
10.12875
 10
8.0091015625
 20
10.210625
 10
8.0374609375
 20
10.283750000000001
 10
8.0469140625
 20
10.355625
 10
8.0265234375
 20
10.46109375
 10
7.9653515625
 20
10.545000000000002
 10
7.871445312500001
 20
10.600078125
 10
7.7528515625
 20
10.6184375
 10
7.6574609375
 20
10.610390625
 10
7.556914062500001
 20
10.586250000000001
 10
7.4505078125
 20
10.545703125
 10
7.3369140625
 20
10.4884375
 10
7.3369140625
 20
10.687812500000001
 10
7.4520703125
 20
10.729765625000002
 10
7.5594140625
 20
10.760000000000002
 10
7.6587109375
 20
10.778281250000001
 10
7.7491015625
 20
10.784375
 10
7.9526953125
 20
10.756015625
 10
8.1103515625
 20
10.6709375
 10
8.211367187499999
 20
10.53875
 10
8.2450390625
 20
10.3684375
 10
8.236601562499999
 20
10.28078125
 10
8.2112890625
 20
10.197812500000001
 10
8.163945312500001
 20
10.110234375000001
 10
8.0887890625
 20
10.008125000000001
 10
8.0377734375
 20
9.952968750000002
 10
7.9334765625
 20
9.844375000000001
 10
7.7758984375
 20
9.682109375
  0
LWPOLYLINE
  5
6E
330
17
100
AcDbEntity
  8
ENGRAVE_FILL
100
AcDbPolyline
 90
16
 70
1
 10
4.851953125
 20
7.235859375
 10
5.0103124999999995
 20
7.0903125
 10
5.10734375
 20
6.852734375
 10
5.1396875
 20
6.5275
 10
5.10734375
 20
6.202890625
 10
5.0103124999999995
 20
5.9653125
 10
4.851953125
 20
5.82
 10
4.635625
 20
5.7715625
 10
4.41953125
 20
5.82
 10
4.26125
 20
5.9653125
 10
4.16421875
 20
6.202890625
 10
4.131875
 20
6.5275
 10
4.16421875
 20
6.852734375
 10
4.26125
 20
7.0903125
 10
4.41953125
 20
7.235859375
 10
4.635625
 20
7.284375
  0
LWPOLYLINE
  5
6F
330
17
100
AcDbEntity
  8
ENGRAVE_FILL
100
AcDbPolyline
 90
16
 70
1
 10
4.635625
 20
7.128125
 10
4.502265625
 20
7.090624999999999
 10
4.4065625
 20
6.978125
 10
4.349140625
 20
6.790625
 10
4.33
 20
6.5275
 10
4.349140625
 20
6.2652343749999995
 10
4.4065625
 20
6.0778125
 10
4.502265625
 20
5.9653125
 10
4.635625
 20
5.9278125
 10
4.76984375
 20
5.9653125
 10
4.865625
 20
6.0778125
 10
4.9232812500000005
 20
6.2652343749999995
 10
4.9425
 20
6.5275
 10
4.9232812500000005
 20
6.790625
 10
4.865625
 20
6.978125
 10
4.76984375
 20
7.090624999999999
  0
LWPOLYLINE
  5
70
330
17
100
AcDbEntity
  8
ENGRAVE_FILL
100
AcDbPolyline
 90
4
 70
1
 10
5.4862109375
 20
6.048125
 10
5.6924609375
 20
6.048125
 10
5.6924609375
 20
5.8
 10
5.4862109375
 20
5.8
  0
LWPOLYLINE
  5
71
330
17
100
AcDbEntity
  8
ENGRAVE_FILL
100
AcDbPolyline
 90
53
 70
1
 10
6.719765625
 20
6.58625
 10
6.84578125
 20
6.53953125
 10
6.940703125000001
 20
6.46
 10
7.00046875
 20
6.353125
 10
7.020390625
 20
6.22375
 10
6.98328125
 20
6.032421875
 10
6.871953125
 20
5.8896875
 10
6.692265625
 20
5.80109375
 10
6.450078125
 20
5.7715625
 10
6.357109375
 20
5.776093749999999
 10
6.261328125
 20
5.789687499999999
 10
6.162578125
 20
5.81234375
 10
6.060703125
 20
5.8440625
 10
6.060703125
 20
6.034375
 10
6.146484375
 20
5.992421875
 10
6.240078125
 20
5.9621875
 10
6.340078125
 20
5.9439062499999995
 10
6.444453125
 20
5.9378125
 10
6.607734375
 20
5.95609375
 10
6.726953125
 20
6.0109375
 10
6.79984375
 20
6.100703125
 10
6.824140625
 20
6.22375
 10
6.8015625
 20
6.338671874999999
 10
6.7338281250000005
 20
6.4253124999999995
 10
6.625859375
 20
6.479921875
 10
6.482578125
 20
6.498125
 10
6.312578125
 20
6.498125
 10
6.312578125
 20
6.6603125
 10
6.490390625
 20
6.6603125
 10
6.6186718749999995
 20
6.67484375
 10
6.712890625
 20
6.7184375
 10
6.770781250000001
 20
6.789375
 10
6.790078125
 20
6.8859375
 10
6.770156249999999
 20
6.985078124999999
 10
6.7103906250000005
 20
7.0581249999999995
 10
6.61375
 20
7.103359375
 10
6.482578125
 20
7.1184375
 10
6.3984375
 20
7.113984374999999
 10
6.308515625
 20
7.100625
 10
6.21109375
 20
7.07828125
 10
6.104453125
 20
7.04625
 10
6.104453125
 20
7.221875
 10
6.213359375
 20
7.24921875
 10
6.315078124999999
 20
7.26875
 10
6.410390625
 20
7.28046875
 10
6.500078125
 20
7.284375
 10
6.70125
 20
7.258828124999999
 10
6.855390625
 20
7.1821874999999995
 10
6.95359375
 20
7.06234375
 10
6.986328125
 20
6.9065625
 10
6.968984375
 20
6.794765625
 10
6.916953125
 20
6.701874999999999
 10
6.83296875
 20
6.63125
  0
ENDSEC
  0
SECTION
  2
OBJECTS
  0
DICTIONARY
  5
A
330
0
100
AcDbDictionary
281
1
  3
ACAD_COLOR
350
B
  3
ACAD_GROUP
350
C
  3
ACAD_LAYOUT
350
D
  3
ACAD_MATERIAL
350
E
  3
ACAD_MLEADERSTYLE
350
F
  3
ACAD_MLINESTYLE
350
10
  3
ACAD_PLOTSETTINGS
350
11
  3
ACAD_PLOTSTYLENAME
350
12
  3
ACAD_SCALELIST
350
14
  3
ACAD_TABLESTYLE
350
15
  3
ACAD_VISUALSTYLE
350
16
  3
EZDXF_META
350
2D
  0
DICTIONARY
  5
B
330
A
100
AcDbDictionary
281
1
  0
DICTIONARY
  5
C
330
A
100
AcDbDictionary
281
1
  0
DICTIONARY
  5
D
330
A
100
AcDbDictionary
281
1
  3
Model
350
1A
  3
Layout1
350
1E
  0
DICTIONARY
  5
E
330
A
100
AcDbDictionary
281
1
  3
ByBlock
350
1F
  3
ByLayer
350
20
  3
Global
350
21
  0
DICTIONARY
  5
F
330
A
100
AcDbDictionary
281
1
  3
Standard
350
2C
  0
DICTIONARY
  5
10
330
A
100
AcDbDictionary
281
1
  3
Standard
350
22
  0
DICTIONARY
  5
11
330
A
100
AcDbDictionary
281
1
  0
ACDBDICTIONARYWDFLT
  5
12
330
A
100
AcDbDictionary
281
1
  3
Normal
350
13
100
AcDbDictionaryWithDefault
340
13
  0
ACDBPLACEHOLDER
  5
13
330
12
  0
DICTIONARY
  5
14
330
A
100
AcDbDictionary
281
1
  0
DICTIONARY
  5
15
330
A
100
AcDbDictionary
281
1
  0
DICTIONARY
  5
16
330
A
100
AcDbDictionary
281
1
  0
LAYOUT
  5
1A
330
D
100
AcDbPlotSettings
  1

  4
A3
  6

 40
7.5
 41
20.0
 42
7.5
 43
20.0
 44
420.0
 45
297.0
 46
0.0
 47
0.0
 48
0.0
 49
0.0
140
0.0
141
0.0
142
1.0
143
1.0
 70
1024
 72
1
 73
0
 74
5
  7

 75
16
 76
0
 77
2
 78
300
147
1.0
148
0.0
149
0.0
100
AcDbLayout
  1
Model
 70
1
 71
0
 10
0.0
 20
0.0
 11
420.0
 21
297.0
 12
0.0
 22
0.0
 32
0.0
 14
1e+20
 24
1e+20
 34
1e+20
 15
-1e+20
 25
-1e+20
 35
-1e+20
146
0.0
 13
0.0
 23
0.0
 33
0.0
 16
1.0
 26
0.0
 36
0.0
 17
0.0
 27
1.0
 37
0.0
 76
1
330
17
  0
LAYOUT
  5
1E
330
D
100
AcDbPlotSettings
  1

  4
A3
  6

 40
7.5
 41
20.0
 42
7.5
 43
20.0
 44
420.0
 45
297.0
 46
0.0
 47
0.0
 48
0.0
 49
0.0
140
0.0
141
0.0
142
1.0
143
1.0
 70
0
 72
1
 73
0
 74
5
  7

 75
16
 76
0
 77
2
 78
300
147
1.0
148
0.0
149
0.0
100
AcDbLayout
  1
Layout1
 70
1
 71
1
 10
0.0
 20
0.0
 11
420.0
 21
297.0
 12
0.0
 22
0.0
 32
0.0
 14
1e+20
 24
1e+20
 34
1e+20
 15
-1e+20
 25
-1e+20
 35
-1e+20
146
0.0
 13
0.0
 23
0.0
 33
0.0
 16
1.0
 26
0.0
 36
0.0
 17
0.0
 27
1.0
 37
0.0
 76
1
330
1B
  0
MATERIAL
  5
1F
102
{ACAD_REACTORS
330
E
102
}
330
E
100
AcDbMaterial
  1
ByBlock
  2

 70
0
 40
1.0
 71
1
 41
1.0
 91
-1023410177
 42
1.0
 72
1
  3

 73
1
 74
1
 75
1
 44
0.5
 73
0
 45
1.0
 46
1.0
 77
1
  4

 78
1
 79
1
170
1
 48
1.0
171
1
  6

172
1
173
1
174
1
140
1.0
141
1.0
175
1
  7

176
1
177
1
178
1
143
1.0
179
1
  8

270
1
271
1
272
1
145
1.0
146
1.0
273
1
  9

274
1
275
1
276
1
 42
1.0
 72
1
  3

 73
1
 74
1
 75
1
 94
63
  0
MATERIAL
  5
20
102
{ACAD_REACTORS
330
E
102
}
330
E
100
AcDbMaterial
  1
ByLayer
  2

 70
0
 40
1.0
 71
1
 41
1.0
 91
-1023410177
 42
1.0
 72
1
  3

 73
1
 74
1
 75
1
 44
0.5
 73
0
 45
1.0
 46
1.0
 77
1
  4

 78
1
 79
1
170
1
 48
1.0
171
1
  6

172
1
173
1
174
1
140
1.0
141
1.0
175
1
  7

176
1
177
1
178
1
143
1.0
179
1
  8

270
1
271
1
272
1
145
1.0
146
1.0
273
1
  9

274
1
275
1
276
1
 42
1.0
 72
1
  3

 73
1
 74
1
 75
1
 94
63
  0
MATERIAL
  5
21
102
{ACAD_REACTORS
330
E
102
}
330
E
100
AcDbMaterial
  1
Global
  2

 70
0
 40
1.0
 71
1
 41
1.0
 91
-1023410177
 42
1.0
 72
1
  3

 73
1
 74
1
 75
1
 44
0.5
 73
0
 45
1.0
 46
1.0
 77
1
  4

 78
1
 79
1
170
1
 48
1.0
171
1
  6

172
1
173
1
174
1
140
1.0
141
1.0
175
1
  7

176
1
177
1
178
1
143
1.0
179
1
  8

270
1
271
1
272
1
145
1.0
146
1.0
273
1
  9

274
1
275
1
276
1
 42
1.0
 72
1
  3

 73
1
 74
1
 75
1
 94
63
  0
MLINESTYLE
  5
22
102
{ACAD_REACTORS
330
10
102
}
330
10
100
AcDbMlineStyle
  2
Standard
 70
0
  3

 62
256
 51
90.0
 52
90.0
 71
2
 49
0.5
 62
256
  6
BYLAYER
 49
-0.5
 62
256
  6
BYLAYER
  0
MLEADERSTYLE
  5
2C
102
{ACAD_REACTORS
330
F
102
}
330
F
100
AcDbMLeaderStyle
179
2
170
2
171
1
172
0
 90
2
 40
0.0
 41
0.0
173
1
 91
-1056964608
 92
-2
290
1
 42
2.0
291
1
 43
8.0
  3
Standard
 44
4.0
300

342
29
174
1
175
1
176
0
178
1
 93
-1056964608
 45
4.0
292
0
297
0
 46
4.0
 94
-1056964608
 47
1.0
 49
1.0
140
1.0
294
1
141
0.0
177
0
142
1.0
295
0
296
0
143
3.75
271
0
272
9
273
9
  0
DICTIONARY
  5
2D
330
A
100
AcDbDictionary
280
1
281
1
  3
CREATED_BY_EZDXF
350
2E
  3
WRITTEN_BY_EZDXF
350
74
  0
DICTIONARYVAR
  5
2E
330
2D
100
DictionaryVariables
280
0
  1
1.4.3 @ 2026-09-24T11:47:34.898645+00:00
  0
DICTIONARYVAR
  5
74
330
2D
100
DictionaryVariables
280
0
  1
1.4.3 @ 2026-09-24T11:47:34.924945+00:00
  0
ENDSEC
  0
EOF
