  0
SECTION
  2
HEADER
  9
$ACADVER
  1
AC1024
  9
$ACADMAINTVER
 70
6
  9
$DWGCODEPAGE
  3
ANSI_1252
  9
$LASTSAVEDBY
  1
ezdxf
  9
$INSBASE
 10
0.0
 20
0.0
 30
0.0
  9
$EXTMIN
 10
1e+20
 20
1e+20
 30
1e+20
  9
$EXTMAX
 10
-1e+20
 20
-1e+20
 30
-1e+20
  9
$LIMMIN
 10
0.0
 20
0.0
  9
$LIMMAX
 10
420.0
 20
297.0
  9
$ORTHOMODE
 70
0
  9
$REGENMODE
 70
1
  9
$FILLMODE
 70
1
  9
$QTEXTMODE
 70
0
  9
$MIRRTEXT
 70
1
  9
$LTSCALE
 40
1.0
  9
$ATTMODE
 70
1
  9
$TEXTSIZE
 40
2.5
  9
$TRACEWID
 40
1.0
  9
$TEXTSTYLE
  7
Standard
  9
$CLAYER
  8
0
  9
$CELTYPE
  6
ByLayer
  9
$CECOLOR
 62
256
  9
$CELTSCALE
 40
1.0
  9
$DISPSILH
 70
0
  9
$DIMSCALE
 40
1.0
  9
$DIMASZ
 40
2.5
  9
$DIMEXO
 40
0.625
  9
$DIMDLI
 40
3.75
  9
$DIMRND
 40
0.0
  9
$DIMDLE
 40
0.0
  9
$DIMEXE
 40
1.25
  9
$DIMTP
 40
0.0
  9
$DIMTM
 40
0.0
  9
$DIMTXT
 40
2.5
  9
$DIMCEN
 40
2.5
  9
$DIMTSZ
 40
0.0
  9
$DIMTOL
 70
0
  9
$DIMLIM
 70
0
  9
$DIMTIH
 70
0
  9
$DIMTOH
 70
0
  9
$DIMSE1
 70
0
  9
$DIMSE2
 70
0
  9
$DIMTAD
 70
1
  9
$DIMZIN
 70
8
  9
$DIMBLK
  1

  9
$DIMASO
 70
1
  9
$DIMSHO
 70
1
  9
$DIMPOST
  1

  9
$DIMAPOST
  1

  9
$DIMALT
 70
0
  9
$DIMALTD
 70
3
  9
$DIMALTF
 40
0.03937007874
  9
$DIMLFAC
 40
1.0
  9
$DIMTOFL
 70
1
  9
$DIMTVP
 40
0.0
  9
$DIMTIX
 70
0
  9
$DIMSOXD
 70
0
  9
$DIMSAH
 70
0
  9
$DIMBLK1
  1

  9
$DIMBLK2
  1

  9
$DIMSTYLE
  2
ISO-25
  9
$DIMCLRD
 70
0
  9
$DIMCLRE
 70
0
  9
$DIMCLRT
 70
0
  9
$DIMTFAC
 40
1.0
  9
$DIMGAP
 40
0.625
  9
$DIMJUST
 70
0
  9
$DIMSD1
 70
0
  9
$DIMSD2
 70
0
  9
$DIMTOLJ
 70
0
  9
$DIMTZIN
 70
8
  9
$DIMALTZ
 70
0
  9
$DIMALTTZ
 70
0
  9
$DIMUPT
 70
0
  9
$DIMDEC
 70
2
  9
$DIMTDEC
 70
2
  9
$DIMALTU
 70
2
  9
$DIMALTTD
 70
3
  9
$DIMTXSTY
  7
Standard
  9
$DIMAUNIT
 70
0
  9
$DIMADEC
 70
0
  9
$DIMALTRND
 40
0.0
  9
$DIMAZIN
 70
0
  9
$DIMDSEP
 70
44
  9
$DIMATFIT
 70
3
  9
$DIMFRAC
 70
0
  9
$DIMLDRBLK
  1

  9
$DIMLUNIT
 70
2
  9
$DIMLWD
 70
-2
  9
$DIMLWE
 70
-2
  9
$DIMTMOVE
 70
0
  9
$DIMFXL
 40
1.0
  9
$DIMFXLON
 70
0
  9
$DIMJOGANG
 40
0.785398163397
  9
$DIMTFILL
 70
0
  9
$DIMTFILLCLR
 70
0
  9
$DIMARCSYM
 70
0
  9
$DIMLTYPE
  6

  9
$DIMLTEX1
  6

  9
$DIMLTEX2
  6

  9
$DIMTXTDIRECTION
 70
0
  9
$LUNITS
 70
2
  9
$LUPREC
 70
4
  9
$SKETCHINC
 40
1.0
  9
$FILLETRAD
 40
10.0
  9
$AUNITS
 70
0
  9
$AUPREC
 70
2
  9
$MENU
  1
.
  9
$ELEVATION
 40
0.0
  9
$PELEVATION
 40
0.0
  9
$THICKNESS
 40
0.0
  9
$LIMCHECK
 70
0
  9
$CHAMFERA
 40
0.0
  9
$CHAMFERB
 40
0.0
  9
$CHAMFERC
 40
0.0
  9
$CHAMFERD
 40
0.0
  9
$SKPOLY
 70
0
  9
$TDCREATE
 40
2461308.6580324075
  9
$TDUCREATE
 40
2458532.153996898
  9
$TDUPDATE
 40
2461308.6580324075
  9
$TDUUPDATE
 40
2458532.1544311
  9
$TDINDWG
 40
0.0
  9
$TDUSRTIMER
 40
0.0
  9
$USRTIMER
 70
1
  9
$ANGBASE
 50
0.0
  9
$ANGDIR
 70
0
  9
$PDMODE
 70
0
  9
$PDSIZE
 40
0.0
  9
$PLINEWID
 40
0.0
  9
$SPLFRAME
 70
0
  9
$SPLINETYPE
 70
6
  9
$SPLINESEGS
 70
8
  9
$HANDSEED
  5
5F
  9
$SURFTAB1
 70
6
  9
$SURFTAB2
 70
6
  9
$SURFTYPE
 70
6
  9
$SURFU
 70
6
  9
$SURFV
 70
6
  9
$UCSBASE
  2

  9
$UCSNAME
  2

  9
$UCSORG
 10
0.0
 20
0.0
 30
0.0
  9
$UCSXDIR
 10
1.0
 20
0.0
 30
0.0
  9
$UCSYDIR
 10
0.0
 20
1.0
 30
0.0
  9
$UCSORTHOREF
  2

  9
$UCSORTHOVIEW
 70
0
  9
$UCSORGTOP
 10
0.0
 20
0.0
 30
0.0
  9
$UCSORGBOTTOM
 10
0.0
 20
0.0
 30
0.0
  9
$UCSORGLEFT
 10
0.0
 20
0.0
 30
0.0
  9
$UCSORGRIGHT
 10
0.0
 20
0.0
 30
0.0
  9
$UCSORGFRONT
 10
0.0
 20
0.0
 30
0.0
  9
$UCSORGBACK
 10
0.0
 20
0.0
 30
0.0
  9
$PUCSBASE
  2

  9
$PUCSNAME
  2

  9
$PUCSORG
 10
0.0
 20
0.0
 30
0.0
  9
$PUCSXDIR
 10
1.0
 20
0.0
 30
0.0
  9
$PUCSYDIR
 10
0.0
 20
1.0
 30
0.0
  9
$PUCSORTHOREF
  2

  9
$PUCSORTHOVIEW
 70
0
  9
$PUCSORGTOP
 10
0.0
 20
0.0
 30
0.0
  9
$PUCSORGBOTTOM
 10
0.0
 20
0.0
 30
0.0
  9
$PUCSORGLEFT
 10
0.0
 20
0.0
 30
0.0
  9
$PUCSORGRIGHT
 10
0.0
 20
0.0
 30
0.0
  9
$PUCSORGFRONT
 10
0.0
 20
0.0
 30
0.0
  9
$PUCSORGBACK
 10
0.0
 20
0.0
 30
0.0
  9
$USERI1
 70
0
  9
$USERI2
 70
0
  9
$USERI3
 70
0
  9
$USERI4
 70
0
  9
$USERI5
 70
0
  9
$USERR1
 40
0.0
  9
$USERR2
 40
0.0
  9
$USERR3
 40
0.0
  9
$USERR4
 40
0.0
  9
$USERR5
 40
0.0
  9
$WORLDVIEW
 70
1
  9
$SHADEDGE
 70
3
  9
$SHADEDIF
 70
70
  9
$TILEMODE
 70
1
  9
$MAXACTVP
 70
64
  9
$PINSBASE
 10
0.0
 20
0.0
 30
0.0
  9
$PLIMCHECK
 70
0
  9
$PEXTMIN
 10
1e+20
 20
1e+20
 30
1e+20
  9
$PEXTMAX
 10
-1e+20
 20
-1e+20
 30
-1e+20
  9
$PLIMMIN
 10
0.0
 20
0.0
  9
$PLIMMAX
 10
420.0
 20
297.0
  9
$UNITMODE
 70
0
  9
$VISRETAIN
 70
1
  9
$PLINEGEN
 70
0
  9
$PSLTSCALE
 70
1
  9
$TREEDEPTH
 70
3020
  9
$CMLSTYLE
  2
Standard
  9
$CMLJUST
 70
0
  9
$CMLSCALE
 40
20.0
  9
$PROXYGRAPHICS
 70
1
  9
$MEASUREMENT
 70
1
  9
$CELWEIGHT
370
-1
  9
$ENDCAPS
280
0
  9
$JOINSTYLE
280
0
  9
$LWDISPLAY
290
0
  9
$INSUNITS
 70
4
  9
$HYPERLINKBASE
  1

  9
$STYLESHEET
  1

  9
$XEDIT
290
1
  9
$CEPSNTYPE
380
0
  9
$PSTYLEMODE
290
1
  9
$FINGERPRINTGUID
  2
{506FB14E-DBDD-463D-B960-C67FC1B184AD}
  9
$VERSIONGUID
  2
{9C32A165-FAEF-4010-8FE7-2787C59E6429}
  9
$EXTNAMES
290
1
  9
$PSVPSCALE
 40
0.0
  9
$OLESTARTUP
290
0
  9
$SORTENTS
280
127
  9
$INDEXCTL
280
0
  9
$HIDETEXT
280
1
  9
$XCLIPFRAME
280
1
  9
$HALOGAP
280
0
  9
$OBSCOLOR
 70
257
  9
$OBSLTYPE
280
0
  9
$INTERSECTIONDISPLAY
280
0
  9
$INTERSECTIONCOLOR
 70
257
  9
$DIMASSOC
280
2
  9
$PROJECTNAME
  1

  9
$CAMERADISPLAY
290
0
  9
$LENSLENGTH
 40
50.0
  9
$CAMERAHEIGHT
 40
0.0
  9
$STEPSPERSEC
 40
24.0
  9
$STEPSIZE
 40
100.0
  9
$3DDWFPREC
 40
2.0
  9
$PSOLWIDTH
 40
0.005
  9
$PSOLHEIGHT
 40
0.08
  9
$LOFTANG1
 40
1.570796326795
  9
$LOFTANG2
 40
1.570796326795
  9
$LOFTMAG1
 40
0.0
  9
$LOFTMAG2
 40
0.0
  9
$LOFTPARAM
 70
7
  9
$LOFTNORMALS
280
1
  9
$LATITUDE
 40
37.795
  9
$LONGITUDE
 40
-122.394
  9
$NORTHDIRECTION
 40
0.0
  9
$TIMEZONE
 70
-8000
  9
$LIGHTGLYPHDISPLAY
280
1
  9
$TILEMODELIGHTSYNCH
280
1
  9
$CMATERIAL
347
20
  9
$SOLIDHIST
280
0
  9
$SHOWHIST
280
1
  9
$DWFFRAME
280
2
  9
$DGNFRAME
280
2
  9
$REALWORLDSCALE
290
1
  9
$INTERFERECOLOR
 62
256
  9
$CSHADOW
280
0
  9
$SHADOWPLANELOCATION
 40
0.0
  0
ENDSEC
  0
SECTION
  2
CLASSES
  0
CLASS
  1
ACDBDICTIONARYWDFLT
  2
AcDbDictionaryWithDefault
  3
ObjectDBX Classes
 90
0
 91
0
280
0
281
0
  0
CLASS
  1
SUN
  2
AcDbSun
  3
SCENEOE
 90
1153
 91
0
280
0
281
0
  0
CLASS
  1
VISUALSTYLE
  2
AcDbVisualStyle
  3
ObjectDBX Classes
 90
4095
 91
0
280
0
281
0
  0
CLASS
  1
MATERIAL
  2
AcDbMaterial
  3
ObjectDBX Classes
 90
1153
 91
0
280
0
281
0
  0
CLASS
  1
SCALE
  2
AcDbScale
  3
ObjectDBX Classes
 90
1153
 91
0
280
0
281
0
  0
CLASS
  1
TABLESTYLE
  2
AcDbTableStyle
  3
ObjectDBX Classes
 90
4095
 91
0
280
0
281
0
  0
CLASS
  1
MLEADERSTYLE
  2
AcDbMLeaderStyle
  3
ACDB_MLEADERSTYLE_CLASS
 90
4095
 91
0
280
0
281
0
  0
CLASS
  1
DICTIONARYVAR
  2
AcDbDictionaryVar
  3
ObjectDBX Classes
 90
0
 91
0
280
0
281
0
  0
CLASS
  1
CELLSTYLEMAP
  2
AcDbCellStyleMap
  3
ObjectDBX Classes
 90
1152
 91
0
280
0
281
0
  0
CLASS
  1
MENTALRAYRENDERSETTINGS
  2
AcDbMentalRayRenderSettings
  3
SCENEOE
 90
1024
 91
0
280
0
281
0
  0
CLASS
  1
ACDBDETAILVIEWSTYLE
  2
AcDbDetailViewStyle
  3
ObjectDBX Classes
 90
1025
 91
0
280
0
281
0
  0
CLASS
  1
ACDBSECTIONVIEWSTYLE
  2
AcDbSectionViewStyle
  3
ObjectDBX Classes
 90
1025
 91
0
280
0
281
0
  0
CLASS
  1
RASTERVARIABLES
  2
AcDbRasterVariables
  3
ISM
 90
0
 91
0
280
0
281
0
  0
CLASS
  1
ACDBPLACEHOLDER
  2
AcDbPlaceHolder
  3
ObjectDBX Classes
 90
0
 91
0
280
0
281
0
  0
CLASS
  1
LAYOUT
  2
AcDbLayout
  3
ObjectDBX Classes
 90
0
 91
0
280
0
281
0
  0
ENDSEC
  0
SECTION
  2
TABLES
  0
TABLE
  2
VPORT
  5
8
330
0
100
AcDbSymbolTable
 70
1
  0
VPORT
  5
23
330
8
100
AcDbSymbolTableRecord
100
AcDbViewportTableRecord
  2
*Active
 70
0
 10
0.0
 20
0.0
 11
1.0
 21
1.0
 12
0.0
 22
0.0
 13
0.0
 23
0.0
 14
0.5
 24
0.5
 15
0.5
 25
0.5
 16
0.0
 26
0.0
 36
1.0
 17
0.0
 27
0.0
 37
0.0
 40
1000.0
 41
1.34
 42
50.0
 43
0.0
 44
0.0
 50
0.0
 51
0.0
 71
0
 72
1000
 73
1
 74
3
 75
0
 76
0
 77
0
 78
0
281
0
 65
0
146
0.0
  0
ENDTAB
  0
TABLE
  2
LTYPE
  5
2
330
0
100
AcDbSymbolTable
 70
3
  0
LTYPE
  5
24
330
2
100
AcDbSymbolTableRecord
100
AcDbLinetypeTableRecord
  2
ByBlock
 70
0
  3

 72
65
 73
0
 40
0.0
  0
LTYPE
  5
25
330
2
100
AcDbSymbolTableRecord
100
AcDbLinetypeTableRecord
  2
ByLayer
 70
0
  3

 72
65
 73
0
 40
0.0
  0
LTYPE
  5
26
330
2
100
AcDbSymbolTableRecord
100
AcDbLinetypeTableRecord
  2
Continuous
 70
0
  3

 72
65
 73
0
 40
0.0
  0
ENDTAB
  0
TABLE
  2
LAYER
  5
1
330
0
100
AcDbSymbolTable
 70
7
  0
LAYER
  5
27
330
1
100
AcDbSymbolTableRecord
100
AcDbLayerTableRecord
  2
0
 70
0
 62
7
  6
Continuous
370
-3
390
13
347
21
  0
LAYER
  5
28
330
1
100
AcDbSymbolTableRecord
100
AcDbLayerTableRecord
  2
Defpoints
 70
0
 62
7
  6
Continuous
290
0
370
-3
390
13
347
21
  0
LAYER
  5
2F
330
1
100
AcDbSymbolTableRecord
100
AcDbLayerTableRecord
  2
CUT_OUTER
 70
0
 62
1
  6
Continuous
370
-3
390
13
347
21
  0
LAYER
  5
30
330
1
100
AcDbSymbolTableRecord
100
AcDbLayerTableRecord
  2
CUT_INNER
 70
0
 62
1
  6
Continuous
370
-3
390
13
347
21
  0
LAYER
  5
32
330
1
100
AcDbSymbolTableRecord
100
AcDbLayerTableRecord
  2
REFERENCE
 70
0
 62
8
  6
Continuous
290
0
370
-3
390
13
347
21
  0
LAYER
  5
5D
330
1
100
AcDbSymbolTableRecord
100
AcDbLayerTableRecord
  2
ENGRAVE_LINES
 70
0
 62
4
  6
Continuous
370
-3
390
13
347
21
  0
LAYER
  5
5E
330
1
100
AcDbSymbolTableRecord
100
AcDbLayerTableRecord
  2
ENGRAVE_FILL
 70
0
 62
5
  6
Continuous
370
-3
390
13
347
21
  0
ENDTAB
  0
TABLE
  2
STYLE
  5
5
330
0
100
AcDbSymbolTable
 70
1
  0
STYLE
  5
29
330
5
100
AcDbSymbolTableRecord
100
AcDbTextStyleTableRecord
  2
Standard
 70
0
 40
0.0
 41
1.0
 50
0.0
 71
0
 42
2.5
  3
txt
  4

  0
ENDTAB
  0
TABLE
  2
VIEW
  5
7
330
0
100
AcDbSymbolTable
 70
0
  0
ENDTAB
  0
TABLE
  2
UCS
  5
6
330
0
100
AcDbSymbolTable
 70
0
  0
ENDTAB
  0
TABLE
  2
APPID
  5
3
330
0
100
AcDbSymbolTable
 70
3
  0
APPID
  5
2A
330
3
100
AcDbSymbolTableRecord
100
AcDbRegAppTableRecord
  2
ACAD
 70
0
  0
APPID
  5
5A
330
3
100
AcDbSymbolTableRecord
100
AcDbRegAppTableRecord
  2
HATCHBACKGROUNDCOLOR
 70
0
  0
APPID
  5
5B
330
3
100
AcDbSymbolTableRecord
100
AcDbRegAppTableRecord
  2
EZDXF
 70
0
  0
ENDTAB
  0
TABLE
  2
DIMSTYLE
  5
4
330
0
100
AcDbSymbolTable
 70
1
100
AcDbDimStyleTable
  0
DIMSTYLE
105
2B
330
4
100
AcDbSymbolTableRecord
100
AcDbDimStyleTableRecord
  2
Standard
 70
0
 40
1.0
 41
2.5
 42
0.625
 43
3.75
 44
1.25
 45
0.0
 46
0.0
 47
0.0
 48
0.0
 49
2.5
140
2.5
141
2.5
142
0.0
143
0.03937007874
144
1.0
145
0.0
146
1.0
147
0.625
148
0.0
 69
0
 70
0
 71
0
 72
0
 73
0
 74
0
 75
0
 76
0
 77
1
 78
8
 79
3
170
0
171
3
172
1
173
0
174
0
175
0
176
0
177
0
178
0
179
2
271
2
272
2
273
2
274
3
275
0
276
0
277
2
278
44
279
0
280
0
281
0
282
0
283
0
284
8
285
0
286
0
288
0
289
3
290
0
371
-2
372
-2
  0
ENDTAB
  0
TABLE
  2
BLOCK_RECORD
  5
9
330
0
100
AcDbSymbolTable
 70
2
  0
BLOCK_RECORD
  5
17
330
9
100
AcDbSymbolTableRecord
100
AcDbBlockTableRecord
  2
*Model_Space
340
1A
 70
0
280
1
281
0
  0
BLOCK_RECORD
  5
1B
330
9
100
AcDbSymbolTableRecord
100
AcDbBlockTableRecord
  2
*Paper_Space
340
1E
 70
0
280
1
281
0
  0
ENDTAB
  0
ENDSEC
  0
SECTION
  2
BLOCKS
  0
BLOCK
  5
18
330
17
100
AcDbEntity
  8
0
100
AcDbBlockBegin
  2
*Model_Space
 70
0
 10
0.0
 20
0.0
 30
0.0
  3
*Model_Space
  1

  0
ENDBLK
  5
19
330
17
100
AcDbEntity
  8
0
100
AcDbBlockEnd
  0
BLOCK
  5
1C
330
1B
100
AcDbEntity
  8
0
100
AcDbBlockBegin
  2
*Paper_Space
 70
0
 10
0.0
 20
0.0
 30
0.0
  3
*Paper_Space
  1

  0
ENDBLK
  5
1D
330
1B
100
AcDbEntity
  8
0
100
AcDbBlockEnd
  0
ENDSEC
  0
SECTION
  2
ENTITIES
  0
LWPOLYLINE
  5
33
330
17
100
AcDbEntity
  8
CUT_OUTER
100
AcDbPolyline
 90
68
 70
1
 10
-31.0
 20
-21.0
 10
-31.4901
 20
-20.9759
 10
-31.9754
 20
-20.9039
 10
-32.4514
 20
-20.7847
 10
-32.9134
 20
-20.6194
 10
-33.357
 20
-20.4096
 10
-33.7778
 20
-20.1573
 10
-34.172
 20
-19.8651
 10
-34.5355
 20
-19.5355
 10
-34.8651
 20
-19.172
 10
-35.1573
 20
-18.7778
 10
-35.4096
 20
-18.357
 10
-35.6194
 20
-17.9134
 10
-35.7847
 20
-17.4514
 10
-35.9039
 20
-16.9754
 10
-35.9759
 20
-16.4901
 10
-36.0
 20
-16.0
 10
-36.0
 20
16.0
 10
-35.9759
 20
16.4901
 10
-35.9039
 20
16.9754
 10
-35.7847
 20
17.4514
 10
-35.6194
 20
17.9134
 10
-35.4096
 20
18.357
 10
-35.1573
 20
18.7778
 10
-34.8651
 20
19.172
 10
-34.5355
 20
19.5355
 10
-34.172
 20
19.8651
 10
-33.7778
 20
20.1573
 10
-33.357
 20
20.4096
 10
-32.9134
 20
20.6194
 10
-32.4514
 20
20.7847
 10
-31.9754
 20
20.9039
 10
-31.4901
 20
20.9759
 10
-31.0
 20
21.0
 10
31.0
 20
21.0
 10
31.4901
 20
20.9759
 10
31.9754
 20
20.9039
 10
32.4514
 20
20.7847
 10
32.9134
 20
20.6194
 10
33.357
 20
20.4096
 10
33.7778
 20
20.1573
 10
34.172
 20
19.8651
 10
34.5355
 20
19.5355
 10
34.8651
 20
19.172
 10
35.1573
 20
18.7778
 10
35.4096
 20
18.357
 10
35.6194
 20
17.9134
 10
35.7847
 20
17.4514
 10
35.9039
 20
16.9754
 10
35.9759
 20
16.4901
 10
36.0
 20
16.0
 10
36.0
 20
-16.0
 10
35.9759
 20
-16.4901
 10
35.9039
 20
-16.9754
 10
35.7847
 20
-17.4514
 10
35.6194
 20
-17.9134
 10
35.4096
 20
-18.357
 10
35.1573
 20
-18.7778
 10
34.8651
 20
-19.172
 10
34.5355
 20
-19.5355
 10
34.172
 20
-19.8651
 10
33.7778
 20
-20.1573
 10
33.357
 20
-20.4096
 10
32.9134
 20
-20.6194
 10
32.4514
 20
-20.7847
 10
31.9754
 20
-20.9039
 10
31.4901
 20
-20.9759
 10
31.0
 20
-21.0
  0
LWPOLYLINE
  5
34
330
17
100
AcDbEntity
  8
CUT_INNER
100
AcDbPolyline
 90
68
 70
1
 10
-11.554857661372768
 20
-17.978470167866103
 10
-11.508658283817454
 20
-17.961939766255643
 10
-11.464301631587
 20
-17.94096063217418
 10
-11.422214883490199
 20
-17.915734806151274
 10
-11.382803357918176
 20
-17.88650522668137
 10
-11.346446609406726
 20
-17.853553390593273
 10
-11.31349477331863
 20
-17.81719664208182
 10
-11.284265193848727
 20
-17.7777851165098
 10
-11.259039367825821
 20
-17.735698368412997
 10
-11.238060233744356
 20
-17.691341716182546
 10
-11.221529832133895
 20
-17.64514233862723
 10
-11.209607359798383
 20
-17.597545161008064
 10
-11.202407636663901
 20
-17.54900857016478
 10
-11.2
 20
-17.5
 10
-11.2
 20
-2.5
 10
-11.202407636663901
 20
-2.4509914298352196
 10
-11.209607359798383
 20
-2.402454838991936
 10
-11.221529832133895
 20
-2.354857661372769
 10
-11.238060233744356
 20
-2.308658283817455
 10
-11.259039367825821
 20
-2.264301631587001
 10
-11.284265193848727
 20
-2.222214883490199
 10
-11.31349477331863
 20
-2.182803357918177
 10
-11.346446609406726
 20
-2.146446609406726
 10
-11.382803357918176
 20
-2.1134947733186316
 10
-11.422214883490199
 20
-2.0842651938487275
 10
-11.464301631587
 20
-2.0590393678258225
 10
-11.508658283817454
 20
-2.0380602337443565
 10
-11.554857661372768
 20
-2.0215298321338957
 10
-11.602454838991935
 20
-2.009607359798385
 10
-11.65099142983522
 20
-2.0024076366639014
 10
-11.7
 20
-2.0
 10
-25.5
 20
-2.0
 10
-25.54900857016478
 20
-2.0024076366639014
 10
-25.597545161008064
 20
-2.009607359798385
 10
-25.64514233862723
 20
-2.0215298321338957
 10
-25.691341716182546
 20
-2.0380602337443565
 10
-25.735698368412997
 20
-2.0590393678258225
 10
-25.7777851165098
 20
-2.084265193848727
 10
-25.81719664208182
 20
-2.1134947733186316
 10
-25.853553390593273
 20
-2.146446609406726
 10
-25.88650522668137
 20
-2.182803357918177
 10
-25.915734806151274
 20
-2.222214883490199
 10
-25.94096063217418
 20
-2.264301631587001
 10
-25.961939766255643
 20
-2.308658283817455
 10
-25.978470167866103
 20
-2.354857661372769
 10
-25.990392640201616
 20
-2.4024548389919356
 10
-25.9975923633361
 20
-2.4509914298352196
 10
-26.0
 20
-2.5
 10
-26.0
 20
-17.5
 10
-25.9975923633361
 20
-17.54900857016478
 10
-25.990392640201616
 20
-17.597545161008064
 10
-25.978470167866103
 20
-17.64514233862723
 10
-25.961939766255643
 20
-17.691341716182546
 10
-25.94096063217418
 20
-17.735698368412997
 10
-25.915734806151274
 20
-17.7777851165098
 10
-25.88650522668137
 20
-17.81719664208182
 10
-25.853553390593273
 20
-17.853553390593273
 10
-25.81719664208182
 20
-17.88650522668137
 10
-25.7777851165098
 20
-17.915734806151274
 10
-25.735698368412997
 20
-17.94096063217418
 10
-25.691341716182546
 20
-17.961939766255643
 10
-25.64514233862723
 20
-17.978470167866103
 10
-25.597545161008064
 20
-17.990392640201616
 10
-25.54900857016478
 20
-17.9975923633361
 10
-25.5
 20
-18.0
 10
-11.7
 20
-18.0
 10
-11.65099142983522
 20
-17.9975923633361
 10
-11.602454838991935
 20
-17.990392640201616
  0
LWPOLYLINE
  5
35
330
17
100
AcDbEntity
  8
CUT_INNER
100
AcDbPolyline
 90
68
 70
1
 10
6.297545161008064
 20
-17.990392640201616
 10
6.345142338627231
 20
-17.978470167866103
 10
6.391341716182545
 20
-17.961939766255643
 10
6.435698368412999
 20
-17.94096063217418
 10
6.477785116509802
 20
-17.915734806151274
 10
6.517196642081823
 20
-17.88650522668137
 10
6.553553390593274
 20
-17.853553390593273
 10
6.586505226681369
 20
-17.81719664208182
 10
6.615734806151273
 20
-17.7777851165098
 10
6.640960632174178
 20
-17.735698368412997
 10
6.661939766255643
 20
-17.691341716182546
 10
6.678470167866105
 20
-17.64514233862723
 10
6.690392640201615
 20
-17.597545161008064
 10
6.697592363336098
 20
-17.54900857016478
 10
6.7
 20
-17.5
 10
6.7
 20
-2.5
 10
6.697592363336098
 20
-2.4509914298352196
 10
6.690392640201615
 20
-2.402454838991936
 10
6.678470167866105
 20
-2.354857661372769
 10
6.661939766255643
 20
-2.308658283817455
 10
6.640960632174178
 20
-2.264301631587001
 10
6.615734806151273
 20
-2.222214883490199
 10
6.586505226681369
 20
-2.182803357918177
 10
6.553553390593274
 20
-2.146446609406726
 10
6.517196642081823
 20
-2.1134947733186316
 10
6.477785116509802
 20
-2.0842651938487275
 10
6.435698368412999
 20
-2.0590393678258225
 10
6.391341716182545
 20
-2.0380602337443565
 10
6.345142338627231
 20
-2.0215298321338957
 10
6.297545161008064
 20
-2.009607359798385
 10
6.24900857016478
 20
-2.0024076366639014
 10
6.2
 20
-2.0
 10
-7.6
 20
-2.0
 10
-7.64900857016478
 20
-2.0024076366639014
 10
-7.697545161008064
 20
-2.009607359798385
 10
-7.745142338627231
 20
-2.0215298321338957
 10
-7.7913417161825445
 20
-2.0380602337443565
 10
-7.835698368412999
 20
-2.0590393678258225
 10
-7.8777851165098
 20
-2.084265193848727
 10
-7.917196642081822
 20
-2.1134947733186316
 10
-7.953553390593274
 20
-2.146446609406726
 10
-7.986505226681368
 20
-2.182803357918177
 10
-8.015734806151272
 20
-2.222214883490199
 10
-8.040960632174176
 20
-2.264301631587001
 10
-8.061939766255643
 20
-2.308658283817455
 10
-8.078470167866104
 20
-2.354857661372769
 10
-8.090392640201614
 20
-2.4024548389919356
 10
-8.097592363336098
 20
-2.4509914298352196
 10
-8.1
 20
-2.5
 10
-8.1
 20
-17.5
 10
-8.097592363336098
 20
-17.54900857016478
 10
-8.090392640201614
 20
-17.597545161008064
 10
-8.078470167866104
 20
-17.64514233862723
 10
-8.061939766255643
 20
-17.691341716182546
 10
-8.040960632174176
 20
-17.735698368412997
 10
-8.015734806151272
 20
-17.7777851165098
 10
-7.986505226681368
 20
-17.81719664208182
 10
-7.953553390593274
 20
-17.853553390593273
 10
-7.917196642081822
 20
-17.88650522668137
 10
-7.8777851165098
 20
-17.915734806151274
 10
-7.835698368412999
 20
-17.94096063217418
 10
-7.7913417161825445
 20
-17.961939766255643
 10
-7.745142338627231
 20
-17.978470167866103
 10
-7.697545161008064
 20
-17.990392640201616
 10
-7.64900857016478
 20
-17.9975923633361
 10
-7.6
 20
-18.0
 10
6.2
 20
-18.0
 10
6.24900857016478
 20
-17.9975923633361
  0
LWPOLYLINE
  5
36
330
17
100
AcDbEntity
  8
CUT_INNER
100
AcDbPolyline
 90
68
 70
1
 10
25.54900857016478
 20
-17.9975923633361
 10
25.597545161008064
 20
-17.990392640201616
 10
25.64514233862723
 20
-17.978470167866103
 10
25.691341716182546
 20
-17.961939766255643
 10
25.735698368412997
 20
-17.94096063217418
 10
25.7777851165098
 20
-17.915734806151274
 10
25.81719664208182
 20
-17.88650522668137
 10
25.853553390593273
 20
-17.853553390593273
 10
25.88650522668137
 20
-17.81719664208182
 10
25.915734806151274
 20
-17.7777851165098
 10
25.94096063217418
 20
-17.735698368412997
 10
25.961939766255643
 20
-17.691341716182546
 10
25.978470167866103
 20
-17.64514233862723
 10
25.990392640201616
 20
-17.597545161008064
 10
25.9975923633361
 20
-17.54900857016478
 10
26.0
 20
-17.5
 10
26.0
 20
-3.5
 10
25.9975923633361
 20
-3.4509914298352196
 10
25.990392640201616
 20
-3.402454838991936
 10
25.978470167866103
 20
-3.354857661372769
 10
25.961939766255643
 20
-3.308658283817455
 10
25.94096063217418
 20
-3.264301631587001
 10
25.915734806151274
 20
-3.222214883490199
 10
25.88650522668137
 20
-3.182803357918177
 10
25.853553390593273
 20
-3.146446609406726
 10
25.81719664208182
 20
-3.1134947733186316
 10
25.7777851165098
 20
-3.0842651938487275
 10
25.735698368412997
 20
-3.0590393678258225
 10
25.691341716182546
 20
-3.0380602337443565
 10
25.64514233862723
 20
-3.0215298321338957
 10
25.597545161008064
 20
-3.009607359798385
 10
25.54900857016478
 20
-3.0024076366639014
 10
25.5
 20
-3.0
 10
8.5
 20
-3.0
 10
8.45099142983522
 20
-3.0024076366639014
 10
8.402454838991936
 20
-3.009607359798385
 10
8.354857661372769
 20
-3.0215298321338957
 10
8.308658283817454
 20
-3.0380602337443565
 10
8.264301631587001
 20
-3.0590393678258225
 10
8.2222148834902
 20
-3.084265193848727
 10
8.182803357918177
 20
-3.1134947733186316
 10
8.146446609406727
 20
-3.146446609406726
 10
8.113494773318632
 20
-3.182803357918177
 10
8.084265193848728
 20
-3.222214883490199
 10
8.059039367825822
 20
-3.264301631587001
 10
8.038060233744357
 20
-3.308658283817455
 10
8.021529832133895
 20
-3.354857661372769
 10
8.009607359798384
 20
-3.4024548389919356
 10
8.002407636663902
 20
-3.4509914298352196
 10
8.0
 20
-3.5
 10
8.0
 20
-17.5
 10
8.002407636663902
 20
-17.54900857016478
 10
8.009607359798384
 20
-17.597545161008064
 10
8.021529832133895
 20
-17.64514233862723
 10
8.038060233744357
 20
-17.691341716182546
 10
8.059039367825822
 20
-17.735698368412997
 10
8.084265193848728
 20
-17.7777851165098
 10
8.113494773318632
 20
-17.81719664208182
 10
8.146446609406727
 20
-17.853553390593273
 10
8.182803357918177
 20
-17.88650522668137
 10
8.2222148834902
 20
-17.915734806151274
 10
8.264301631587001
 20
-17.94096063217418
 10
8.308658283817454
 20
-17.961939766255643
 10
8.354857661372769
 20
-17.978470167866103
 10
8.402454838991936
 20
-17.990392640201616
 10
8.45099142983522
 20
-17.9975923633361
 10
8.5
 20
-18.0
 10
25.5
 20
-18.0
  0
LWPOLYLINE
  5
37
330
17
100
AcDbEntity
  8
ENGRAVE_LINES
100
AcDbPolyline
 90
938
 70
1
 10
-26.49217583775882
 20
7.0900169926726555
 10
-26.322911423993318
 20
7.090051701271945
 10
-26.1536534856746
 20
7.090120096378901
 10
-25.984400949947876
 20
7.090234007263783
 10
-25.81515132931105
 20
7.090401922156883
 10
-25.64590078313545
 20
7.090626319479308
 10
-25.476644324907163
 20
7.090901251719604
 10
-25.307376167839863
 20
7.091210452131401
 10
-25.138098905665565
 20
7.091526194616466
 10
-24.968802479211167
 20
7.091809188079435
 10
-24.799479518053808
 20
7.092009521757531
 10
-24.630125541248642
 20
7.092068821921441
 10
-24.630016842419302
 20
7.0920687943215315
 10
-24.4607378455541
 20
7.091923587745518
 10
-24.460595067666475
 20
7.091923352018176
 10
-24.29131607080127
 20
7.091509596508636
 10
-24.291141656793275
 20
7.091509001198176
 10
-24.12186265992807
 20
7.090767188376237
 10
-24.12166216601472
 20
7.09076608644365
 10
-23.952383169149517
 20
7.089647151761603
 10
-23.952165386965277
 20
7.089645448703947
 10
-23.782886390100074
 20
7.088116854484218
 10
-23.782663252089648
 20
7.088114562886814
 10
-23.613384255224442
 20
7.086166206627289
 10
-23.613170506806608
 20
7.086163492557708
 10
-23.443891509941405
 20
7.083813004141009
 10
-23.443704146366727
 20
7.083810207452296
 10
-23.27442514950152
 20
7.081107193084992
 10
-23.27428263074895
 20
7.081104804484764
 10
-23.105003633883747
 20
7.078133616730802
 10
-22.935647591090074
 20
7.075012894149662
 10
-22.766421216300756
 20
7.071900855091032
 10
-22.59729999628369
 20
7.068982288497325
 10
-22.428295010923666
 20
7.066467130586901
 10
-22.25941236855096
 20
7.064581355870641
 10
-22.090652137083417
 20
7.063556522766988
 10
-21.9220074843531
 20
7.063617669779854
 10
-21.7534641084228
 20
7.064970063102255
 10
-21.58500003611333
 20
7.067785384230192
 10
-21.416585854710604
 20
7.072188004883214
 10
-21.24818541446153
 20
7.078242027537118
 10
-21.079756998652595
 20
7.085939777658689
 10
-20.911254910488132
 20
7.095192423577604
 10
-20.742631383592897
 20
7.105823374778343
 10
-20.573838699308222
 20
7.117565067451475
 10
-20.404831398253727
 20
7.130059680895944
 10
-20.235629127630233
 20
7.142859645462866
 10
-20.235507877190496
 20
7.142868735554803
 10
-20.066228880325294
 20
7.1554445217001446
 10
-20.06580251810897
 20
7.155475178339857
 10
-19.89652352124377
 20
7.16724279992469
 10
-19.895771642941632
 20
7.167291905917584
 10
-19.726492646076426
 20
7.177636265689441
 10
-19.72540704340275
 20
7.177696025577817
 10
-19.556128046537548
 20
7.185989173647643
 10
-19.55471484305332
 20
7.186047280573408
 10
-19.385435846188113
 20
7.191675539596981
 10
-19.383717375423064
 20
7.191716251411023
 10
-19.214438378557862
 20
7.194109407815211
 10
-19.21245447002431
 20
7.194115586554517
 10
-19.043175473159106
 20
7.192776972584692
 10
-19.040983715215084
 20
7.192732941337542
 10
-18.87170471834988
 20
7.187269096548794
 10
-18.869379292292773
 20
7.187163919014495
 10
-18.700100295427568
 20
7.177312435512236
 10
-18.697729175821628
 20
7.177142997007567
 10
-18.528450178956426
 20
7.162797127513332
 10
-18.52613085433719
 20
7.16257029313252
 10
-18.356851857471987
 20
7.14379893970213
 10
-18.35468613278796
 20
7.143532167328755
 10
-18.185407135922755
 20
7.120593973473656
 10
-18.18349586155176
 20
7.120314066759706
 10
-18.014216864686556
 20
7.093664506070714
 10
-18.012655450091405
 20
7.093404601614285
 10
-17.8433764532262
 20
7.063695187963449
 10
-17.842251732279713
 20
7.063490421449598
 10
-17.67297273541451
 20
7.031559452629168
 10
-17.67236125455402
 20
7.031441917453332
 10
-17.503082257688817
 20
6.9982964960194165
 10
-17.334070266136926
 20
6.965138325519549
 10
-17.16572706969145
 20
6.933296441628785
 10
-16.998068608134517
 20
6.904074022986798
 10
-16.831107621174915
 20
6.8787743386643845
 10
-16.664830212905915
 20
6.858645840867492
 10
-16.499187358117425
 20
6.84483178788922
 10
-16.33408731755136
 20
6.838324270389707
 10
-16.16939245002369
 20
6.839924635917105
 10
-16.004923853396814
 20
6.8502102352228045
 10
-15.840475188115446
 20
6.869505307600389
 10
-15.675833310192335
 20
6.8978532838372
 10
-15.5107999255664
 20
6.934989774685914
 10
-15.345207691653421
 20
6.98031908111558
 10
-15.178926652592155
 20
7.032899792358818
 10
-15.01186090878437
 20
7.091445096119195
 10
-14.843938587373842
 20
7.15434101030596
 10
-14.675115934608769
 20
7.219676072495098
 10
-14.50580374787844
 20
7.28512363314528
 10
-14.50476028384102
 20
7.285519564841994
 10
-14.335481286975815
 20
7.348552839689914
 10
-14.333357690715106
 20
7.349313425241136
 10
-14.164078693849904
 20
7.407559301765856
 10
-14.160803573364205
 20
7.408616623966683
 10
-13.991524576499001
 20
7.459713118603987
 10
-13.98704345526538
 20
7.460940464123918
 10
-13.817764458400177
 20
7.5026389300279686
 10
-13.812072998419515
 20
7.503847214126189
 10
-13.64279400155431
 20
7.53410241368091
 10
-13.635982423055085
 20
7.535052897992104
 10
-13.46670342618988
 20
7.552110331264905
 10
-13.458997038760893
 20
7.552554160707333
 10
-13.28971804189569
 20
7.55503114303824
 10
-13.281487249000667
 20
7.554774808707737
 10
-13.112208252135463
 20
7.541731866269569
 10
-13.103924994574962
 20
7.54070546176895
 10
-12.934645997709758
 20
7.511704828858721
 10
-12.926792518212377
 20
7.509995266041715
 10
-12.757513521347173
 20
7.465143619241971
 10
-12.750485084314
 20
7.462970332514847
 10
-12.581206087448798
 20
7.402943376246751
 10
-12.575255198172805
 20
7.400591831193838
 10
-12.4059762013076
 20
7.326638942646146
 10
-12.401214782734598
 20
7.3243907343111285
 10
-12.231935785869394
 20
7.238318564244129
 10
-12.228376961530692
 20
7.23640733070022
 10
-12.059097964665488
 20
7.140542016658684
 10
-12.056708705601451
 20
7.139139944769117
 10
-11.887429708736247
 20
7.036268397552239
 10
-11.886175707430025
 20
7.035492196127604
 10
-11.716896710564821
 20
6.928783738981072
 10
-11.716774234071167
 20
6.928706395636377
 10
-11.548021299737838
 20
6.821949635504366
 10
-11.380435886212458
 20
6.7191494848174145
 10
-11.21422306277678
 20
6.6240017706890235
 10
-11.049584488829991
 20
6.540012662049453
 10
-10.886742717568982
 20
6.470359843457653
 10
-10.725852231873866
 20
6.417715663876094
 10
-10.566848891750912
 20
6.38412295616015
 10
-10.409288754715137
 20
6.37099867849503
 10
-10.252314567273011
 20
6.379285118957557
 10
-10.094868543533453
 20
6.409612344375085
 10
-9.936056331297538
 20
6.462263638026963
 10
-9.775394858193044
 20
6.536925702816404
 10
-9.612806243280374
 20
6.632428799339861
 10
-9.448456108137558
 20
6.746646765211537
 10
-9.282588179143946
 20
6.876558478051128
 10
-9.115421046533351
 20
7.018394387558311
 10
-8.947100206287496
 20
7.167809929398147
 10
-8.778025572727033
 20
7.319750463886169
 10
-8.777328532628172
 20
7.3203703663018045
 10
-8.608049535762966
 20
7.469352260504207
 10
-8.606138277477541
 20
7.470987528266255
 10
-8.436859280612339
 20
7.611773006699396
 10
-8.433499064871985
 20
7.6144348368529995
 10
-8.264220068006779
 20
7.742089417875523
 10
-8.259033810647336
 20
7.745721467990527
 10
-8.089754813782134
 20
7.855604554836263
 10
-8.082240189690573
 20
7.859981566940377
 10
-7.912961192825372
 20
7.947915354743587
 10
-7.902613588137977
 20
7.952489239614164
 10
-7.733334591272771
 20
8.014916097644774
 10
-7.719978393044517
 20
8.018700516734386
 10
-7.550699396179315
 20
8.052822916760212
 10
-7.534987006165502
 20
8.054573631802302
 10
-7.365708009300296
 20
8.058471176700095
 10
-7.349316630379296
 20
8.057348527097954
 10
-7.180037633514094
 20
8.030067328700367
 10
-7.165010393187512
 20
8.026294698449584
 10
-6.995731396322307
 20
7.967905239002962
 10
-6.983425253671015
 20
7.962605427219144
 10
-6.814146256805813
 20
7.874226085983862
 10
-6.804860575433658
 20
7.868642320754411
 10
-6.6355815785684555
 20
7.752426920781922
 10
-6.628941123962574
 20
7.747400641552786
 10
-6.459662127097368
 20
7.606489630647453
 10
-6.455102723232627
 20
7.602424583467675
 10
-6.285823726367425
 20
7.440860762911562
 10
-6.282851793493097
 20
7.4378886091412735
 10
-6.113572796627891
 20
7.260499616678699
 10
-6.111840912907656
 20
7.2586325720783105
 10
-5.942561916042454
 20
7.07088356405066
 10
-5.941868340427386
 20
7.070105296339194
 10
-5.7727261683454705
 20
6.878081745328208
 10
-5.6042269691216635
 20
6.68855304188198
 10
-5.43684282193342
 20
6.508231877996516
 10
-5.2708625241739115
 20
6.343316233181224
 10
-5.106780444891336
 20
6.19961459317295
 10
-4.945325080873585
 20
6.082204527770084
 10
-4.78735619238194
 20
5.994973878989356
 10
-4.633393039752129
 20
5.940137673098526
 10
-4.482697909407099
 20
5.918248944426918
 10
-4.332789689166151
 20
5.929307879947196
 10
-4.180662674614525
 20
5.973996980848558
 10
-4.024661840235416
 20
6.053157814573303
 10
-3.864811237077736
 20
6.166273026004306
 10
-3.7019188999159764
 20
6.310844083898647
 10
-3.5368336715796542
 20
6.4826819453490385
 10
-3.370186147281969
 20
6.676387166036683
 10
-3.2023763619722767
 20
6.8857325720166545
 10
-3.033620743115021
 20
7.103956796443281
 10
-2.864384487192214
 20
7.323507535168088
 10
-2.863587772728489
 20
7.324525901933876
 10
-2.694308775863287
 20
7.537726056189694
 10
-2.6924962486455906
 20
7.53993588123911
 10
-2.5232172517803884
 20
7.739763028994869
 10
-2.520084735576393
 20
7.743270748029199
 10
-2.350805738711187
 20
7.92313717065429
 10
-2.345813753276856
 20
7.9280441845145875
 10
-2.176534756411654
 20
8.08196549701582
 10
-2.1688351761569007
 20
8.088226997929905
 10
-1.999556179291695
 20
8.211027426259335
 10
-1.9880317506740217
 20
8.218129848574335
 10
-1.8187527538088195
 20
8.305621464627233
 10
-1.8025148607703538
 20
8.31210241084677
 10
-1.633235863905148
 20
8.361231948859169
 10
-1.612906472657524
 20
8.364672852391301
 10
-1.4436274757923218
 20
8.373630828011235
 10
-1.4222996188799857
 20
8.372217722055867
 10
-1.2530206220147835
 20
8.340505867121506
 10
-1.234554995702833
 20
8.33494451368893
 10
-1.0652759988376272
 20
8.26339898016526
 10
-1.0515162512386786
 20
8.2561221411959
 10
-0.8822372543734763
 20
8.146891465618971
 10
-0.8728322320006737
 20
8.139916152617696
 10
-0.703553235135468
 20
7.9963945528100835
 10
-0.6973766348210898
 20
7.990638597204661
 10
-0.5280976379558876
 20
7.817356739228605
 10
-0.5241388572758321
 20
7.813030987663489
 10
-0.3548598604106263
 20
7.615507856557776
 10
-0.35242970365791343
 20
7.61254696389104
 10
-0.18315070679271123
 20
7.397107842683454
 10
-0.18183516000665492
 20
7.395391513239497
 10
-0.012556163141449167
 20
7.168958271423263
 10
-0.012139786354886356
 20
7.168396778093225
 10
0.15693211240654473
 20
6.938539204997086
 10
0.32535436788401295
 20
6.71325196908481
 10
0.49278171395164194
 20
6.5001694191471335
 10
0.6589052270593921
 20
6.306328263026315
 10
0.8231811760120579
 20
6.138167757692239
 10
0.9847615832101224
 20
6.001173334473289
 10
1.142546648422425
 20
5.899359349346622
 10
1.2956967861495723
 20
5.834630655794421
 10
1.44486389892575
 20
5.806686457583567
 10
1.5930313930825701
 20
5.814527246015107
 10
1.7439088831022136
 20
5.858316147877741
 10
1.8993551288615762
 20
5.9386583256003105
 10
2.0591170800430487
 20
6.054554782923081
 10
2.2221276842416193
 20
6.202776397030607
 10
2.3873940768238437
 20
6.378379250098009
 10
2.554228844350846
 20
6.57532108197786
 10
2.7222171088895037
 20
6.786895610277603
 10
2.8911014062247102
 20
7.0059897519955445
 10
2.891186974321058
 20
7.006100581357632
 10
3.0604659711862636
 20
7.225001605529595
 10
3.0614378467553856
 20
7.226235959358645
 10
3.2307168436205878
 20
7.437414230382749
 10
3.2327143998764045
 20
7.439819387806307
 10
3.4019933967416103
 20
7.636583339648665
 10
3.405317390233473
 20
7.640239068578015
 10
3.574596387098675
 20
7.816442240133274
 10
3.579756981171538
 20
7.821403018770364
 10
3.7490359780367437
 20
7.971642398243404
 10
3.756790242797406
 20
7.9777965392970565
 10
3.926069239662608
 20
8.097583572583057
 10
3.9373303087035394
 20
8.104375262238614
 10
4.106609305568742
 20
8.190273947186494
 10
4.121968739208716
 20
8.196366927333624
 10
4.291247736073922
 20
8.246094624900607
 10
4.309992989498527
 20
8.249499511001458
 10
4.479271986363729
 20
8.261987455346741
 10
4.498830313381506
 20
8.26129671075325
 10
4.668109310246712
 20
8.236708643284176
 10
4.685369111666171
 20
8.23242630635133
 10
4.854648108531373
 20
8.172135140792955
 10
4.8679571981965335
 20
8.166138207252933
 10
5.037236195061739
 20
8.072662100264415
 10
5.046662316684172
 20
8.06666484459493
 10
5.2159413135493775
 20
7.943565446726118
 10
5.222305152558489
 20
7.938481970832442
 10
5.391584149423691
 20
7.790228916173181
 10
5.395722923685265
 20
7.786367606802421
 10
5.5650019205504675
 20
7.61817442183682
 10
5.567529196086485
 20
7.615559797033004
 10
5.736808192951687
 20
7.4331973317168085
 10
5.738108080612317
 20
7.43176645932102
 10
5.9073870774775195
 20
7.241360635766174
 10
5.907661440136874
 20
7.24105059820765
 10
6.076595902905292
 20
7.049262855212286
 10
6.244673125087282
 20
6.862846747360228
 10
6.411621715177884
 20
6.687899809242433
 10
6.5771693482288764
 20
6.529897289289895
 10
6.740895803301305
 20
6.393608318280848
 10
6.902263694740313
 20
6.282824143081401
 10
7.060776217416737
 20
6.200065900233112
 10
7.216353690335578
 20
6.146402511897719
 10
7.369811858001008
 20
6.121671016583244
 10
7.522910337811496
 20
6.1251960150171625
 10
7.677585855261011
 20
6.156374719867458
 10
7.835015293625784
 20
6.214431687244585
 10
7.995401342511412
 20
6.297745937981399
 10
8.158371837434805
 20
6.403534023795848
 10
8.323409811666862
 20
6.527990417344626
 10
8.490073349876434
 20
6.666600678503481
 10
8.658058018154824
 20
6.814443438329182
 10
8.826990101254157
 20
6.966255868483629
 10
8.82739994538653
 20
6.966621923349026
 10
8.996678942251739
 20
7.116888004493676
 10
8.998199046911125
 20
7.1182072805614425
 10
9.167478043776327
 20
7.261835038637365
 10
9.170210560313082
 20
7.264062926833281
 10
9.339489557178284
 20
7.396646269279019
 10
9.34362263791421
 20
7.399697166956497
 10
9.512901634779412
 20
7.517340530437402
 10
9.518680194284723
 20
7.521038036954269
 10
9.687959191149925
 20
7.620471003928581
 10
9.69561336855197
 20
7.624485675580823
 10
9.864892365417179
 20
7.703152447316582
 10
9.874499368041985
 20
7.706962635361535
 10
10.043778364907187
 20
7.7630840006366775
 10
10.05507744778517
 20
7.766031905834354
 10
10.224356444650372
 20
7.798638396455394
 10
10.236634946230454
 20
7.800137798869144
 10
10.405913943095657
 20
7.809073792435585
 10
10.418129159024298
 20
7.808888317678053
 10
10.587408155889507
 20
7.794787894820287
 10
10.598540987664592
 20
7.7931547553465785
 10
10.767819984529794
 20
7.757391104974558
 10
10.777204587516119
 20
7.754872308851719
 10
10.94648358438132
 20
7.699483366044714
 10
10.953889421246883
 20
7.696694061515403
 10
11.123168418112085
 20
7.624287828343481
 10
11.12867269836398
 20
7.621710251925835
 10
11.297951695229182
 20
7.53535386704422
 10
11.301765636487334
 20
7.533290953102799
 10
11.471044633352543
 20
7.436388023059592
 10
11.473391658292245
 20
7.434996828313766
 10
11.642670655157447
 20
7.3311578006811935
 10
11.643727333326954
 20
7.330499512185288
 10
11.812945123066262
 20
7.223448674458307
 10
11.981539029835972
 20
7.117172077781475
 10
12.149004007062423
 20
7.015402917809181
 10
12.315319623108255
 20
6.921215812158139
 10
12.4804499444458
 20
6.837253091651818
 10
12.644381713029203
 20
6.765636245876626
 10
12.807173673111462
 20
6.707909616763644
 10
12.96900546839561
 20
6.665031157784868
 10
13.130201713587484
 20
6.6374152502010135
 10
13.291205732028107
 20
6.625009894641713
 10
13.452500743692035
 20
6.627370050959705
 10
13.61451211131809
 20
6.6436951600629754
 10
13.777538222172922
 20
6.672832782614405
 10
13.941734621467702
 20
6.713279253141479
 10
14.107141233147232
 20
6.763206876787476
 10
14.273726215311958
 20
6.82052579101619
 10
14.441425220617532
 20
6.882970735096087
 10
14.61016711673642
 20
6.9481978426125615
 10
14.779429519936684
 20
7.013703090031941
 10
14.780344101511027
 20
7.014051331585915
 10
14.949623098376229
 20
7.077455393482049
 10
14.951426943757246
 20
7.078109191066474
 10
15.120705940622448
 20
7.137430091125598
 10
15.123335122778593
 20
7.138306230675018
 10
15.292614119643803
 20
7.191834943894302
 10
15.295986792185854
 20
7.192829396207894
 10
15.465265789051056
 20
7.239167919094428
 10
15.469270100474166
 20
7.240165966067548
 10
15.638549097339368
 20
7.278257822040889
 10
15.643035758167182
 20
7.279148283169497
 10
15.812314755032384
 20
7.308294676790973
 10
15.817098282638206
 20
7.30898661023149
 10
15.986377279503415
 20
7.328848434533504
 10
15.991247724117974
 20
7.329286132723821
 10
16.160526720983178
 20
7.339872566659149
 10
16.16526969797795
 20
7.340043800541168
 10
16.334548694843154
 20
7.341688710763096
 10
16.3389678492792
 20
7.341623129320815
 10
16.508246846144402
 20
7.334950895742777
 10
16.512181923813717
 20
7.3347093742981695
 10
16.68146092067892
 20
7.3205920793880415
 10
16.684797065762503
 20
7.320251161023438
 10
16.854076062627712
 20
7.299759309779587
 10
16.85674400865334
 20
7.299395772652138
 10
17.026023005518542
 20
7.273744839095183
 10
17.02799295961025
 20
7.273423946674806
 10
17.19727195647545
 20
7.243919073089821
 10
17.19854496859634
 20
7.2436877498987755
 10
17.367823965461543
 20
7.211668860646707
 10
17.3684238247609
 20
7.211553288056181
 10
17.53768645811253
 20
7.178345938268346
 10
17.70664355313945
 20
7.145263546343631
 10
17.875054896070637
 20
7.113496242426863
 10
18.042991317727523
 20
7.084022458257298
 10
18.21053432927115
 20
7.057646193411495
 10
18.377774941744196
 20
7.0349842113558765
 10
18.544811265324533
 20
7.016461548038487
 10
18.711744690525876
 20
7.002314458461443
 10
18.87867497576661
 20
6.992599662287492
 10
19.04569496862951
 20
6.9872087317259925
 10
19.212885830057793
 20
6.985886630184281
 10
19.38031347692361
 20
6.988253613405797
 10
19.54802660276429
 20
6.993829809693373
 10
19.716056244367053
 20
7.002061750594117
 10
19.884416578450455
 20
7.01234997240143
 10
20.053106521434383
 20
7.024076645237178
 10
20.2221117453035
 20
7.036632092706638
 10
20.391330120018665
 20
7.049433275530275
 10
20.391483582313853
 20
7.049444752838268
 10
20.560762579179055
 20
7.061959452599177
 10
20.56115255946871
 20
7.061987432038289
 10
20.73043155633392
 20
7.073762953978892
 10
20.731014265779653
 20
7.073801589620717
 10
20.900293262644855
 20
7.084473865240369
 10
20.901021541876403
 20
7.084516817219635
 10
21.070300538741606
 20
7.0938121241001895
 10
21.071126093543846
 20
7.0938536546378925
 10
21.24040509040905
 20
7.101590279199966
 10
21.241280681033135
 20
7.101626025893792
 10
21.410559677898345
 20
7.107711632798003
 10
21.41144116055323
 20
7.107738998556607
 10
21.580720157418433
 20
7.112164226892572
 10
21.5815682572477
 20
7.112182398438525
 10
21.7508472541129
 20
7.115011338341599
 10
21.751628959745343
 20
7.115021006180376
 10
21.920907956610545
 20
7.116379302130718
 10
21.921597461934255
 20
7.116382193386338
 10
22.090876458799457
 20
7.1164435703990785
 10
22.091455625349447
 20
7.116441916855781
 10
22.260734622214656
 20
7.1154139334367486
 10
22.261192981719756
 20
7.115409982655259
 10
22.430471978584958
 20
7.113519782171673
 10
22.43080633003644
 20
7.113515427537142
 10
22.60008532690164
 20
7.1109961917458
 10
22.600299002473346
 20
7.11099275804844
 10
22.769577999338548
 20
7.1080714686607624
 10
22.769679880510836
 20
7.108069652779937
 10
22.938958877376045
 20
7.104956646011896
 10
23.1082018745976
 20
7.101837972155779
 10
23.277370248751463
 20
7.098868726053476
 10
23.446484304963473
 20
7.096168345426705
 10
23.615562745987727
 20
7.093820641786556
 10
23.784623299448036
 20
7.09187479975256
 10
23.95368183582529
 20
7.0903481962973895
 10
24.12275169422549
 20
7.08923064402123
 10
24.29184323680481
 20
7.0884896526596926
 10
24.460963637526657
 20
7.088076284794393
 10
24.630116895949293
 20
7.08793118607611
 10
24.79930405340828
 20
7.087990396624831
 10
24.968523578162294
 20
7.08819059719105
 10
25.137771878094597
 20
7.088473508519166
 10
25.307042160165157
 20
7.088789237984672
 10
25.476324626407678
 20
7.089098464601763
 10
25.645621833498787
 20
7.089373464874896
 10
25.814927697417154
 20
7.089597939549428
 10
25.984236728606025
 20
7.089765918396017
 10
26.153544443598808
 20
7.089879870999669
 10
26.3228476446194
 20
7.089948287651414
 10
26.49214455440962
 20
7.089983004696821
 10
26.661434804560443
 20
7.089996551835319
 10
26.830719286424777
 20
7.089999781028755
 10
26.999999883588995
 20
7.089999999999924
 10
27.034441401363082
 20
7.08314920247451
 10
27.063639527991725
 20
7.063639692621749
 10
27.08314911337738
 20
7.034441616462576
 10
27.089999999999925
 20
7.000000116411007
 10
27.08314920247451
 20
6.9655585986369175
 10
27.06363969262175
 20
6.9363604720082765
 10
27.034441616462576
 20
6.916850886622617
 10
27.000000116411005
 20
6.910000000000076
 10
26.83072191971041
 20
6.909999781046238
 10
26.66144646548021
 20
6.9099965521921405
 10
26.492175837758815
 20
6.9099830073273445
 10
26.322911423993318
 20
6.909948298728055
 10
26.1536534856746
 20
6.909879903621099
 10
25.984400949947872
 20
6.909765992736217
 10
25.815151329311046
 20
6.909598077843117
 10
25.64590078313545
 20
6.909373680520692
 10
25.476644324907163
 20
6.909098748280396
 10
25.307376167839863
 20
6.908789547868599
 10
25.13809890566556
 20
6.908473805383534
 10
24.968802479211163
 20
6.908190811920565
 10
24.799479518053808
 20
6.907990478242469
 10
24.630125541248642
 20
6.907931178078559
 10
24.630016842419302
 20
6.9079312056784685
 10
24.460737845554092
 20
6.908076412254482
 10
24.460595067666468
 20
6.908076647981824
 10
24.291316070801265
 20
6.908490403491364
 10
24.291141656793272
 20
6.908490998801824
 10
24.12186265992807
 20
6.909232811623763
 10
24.12166216601472
 20
6.90923391355635
 10
23.952383169149517
 20
6.910352848238397
 10
23.952165386965277
 20
6.910354551296053
 10
23.782886390100074
 20
6.911883145515782
 10
23.782663252089648
 20
6.911885437113186
 10
23.61338425522444
 20
6.913833793372711
 10
23.613170506806604
 20
6.913836507442292
 10
23.443891509941402
 20
6.916186995858991
 10
23.443704146366724
 20
6.916189792547704
 10
23.27442514950152
 20
6.918892806915008
 10
23.27428263074895
 20
6.918895195515236
 10
23.105003633883747
 20
6.921866383269198
 10
22.935647591090074
 20
6.924987105850338
 10
22.766421216300753
 20
6.928099144908968
 10
22.59729999628369
 20
6.931017711502675
 10
22.428295010923666
 20
6.933532869413099
 10
22.25941236855096
 20
6.935418644129359
 10
22.090652137083413
 20
6.936443477233012
 10
21.922007484353095
 20
6.936382330220146
 10
21.7534641084228
 20
6.935029936897745
 10
21.58500003611334
 20
6.932214615769809
 10
21.416585854710593
 20
6.927811995116785
 10
21.248185414461528
 20
6.921757972462882
 10
21.07975699865259
 20
6.914060222341311
 10
20.911254910488132
 20
6.904807576422395
 10
20.742631383592897
 20
6.894176625221657
 10
20.573838699308013
 20
6.88243493254851
 10
20.404831398254238
 20
6.869940319104094
 10
20.235629127630233
 20
6.857140354537135
 10
20.235507877190496
 20
6.857131264445198
 10
20.066228880325294
 20
6.8445554782998554
 10
20.06580251810897
 20
6.844524821660143
 10
19.89652352124377
 20
6.83275720007531
 10
19.895771642941632
 20
6.832708094082416
 10
19.726492646076423
 20
6.822363734310559
 10
19.725407043402747
 20
6.822303974422183
 10
19.556128046537545
 20
6.814010826352356
 10
19.554714843053315
 20
6.813952719426591
 10
19.385435846188113
 20
6.808324460403019
 10
19.383717375423064
 20
6.808283748588977
 10
19.214438378557862
 20
6.805890592184789
 10
19.21245447002431
 20
6.805884413445483
 10
19.043175473159106
 20
6.807223027415308
 10
19.040983715215084
 20
6.807267058662458
 10
18.871704718349875
 20
6.812730903451206
 10
18.86937929229277
 20
6.812836080985505
 10
18.700100295427568
 20
6.822687564487764
 10
18.697729175821628
 20
6.822857002992433
 10
18.528450178956426
 20
6.837202872486668
 10
18.52613085433719
 20
6.83742970686748
 10
18.356851857471987
 20
6.85620106029787
 10
18.35468613278796
 20
6.856467832671245
 10
18.185407135922752
 20
6.879406026526346
 10
18.183495861551755
 20
6.879685933240296
 10
18.014216864686553
 20
6.906335493929288
 10
18.0126554500914
 20
6.906595398385717
 10
17.8433764532262
 20
6.9363048120365525
 10
17.842251732279717
 20
6.936509578550404
 10
17.672972735414515
 20
6.968440547370833
 10
17.67236125455402
 20
6.968558082546669
 10
17.503082257688817
 20
7.0017035039805835
 10
17.334070266136923
 20
7.034861674480452
 10
17.16572706969145
 20
7.066703558371216
 10
16.998068608134517
 20
7.095925977013202
 10
16.831107621174915
 20
7.1212256613356155
 10
16.66483021290591
 20
7.141354159132509
 10
16.49918735811742
 20
7.15516821211078
 10
16.33408731755136
 20
7.161675729610293
 10
16.16939245002369
 20
7.160075364082896
 10
16.004923853396814
 20
7.1497897647771955
 10
15.840475188115438
 20
7.130494692399609
 10
15.675833310192347
 20
7.102146716162802
 10
15.510799925566381
 20
7.065010225314081
 10
15.345207691653425
 20
7.019680918884423
 10
15.17892665259216
 20
6.967100207641182
 10
15.01186090878433
 20
6.908554903880789
 10
14.84393858737384
 20
6.845658989694038
 10
14.675115934608769
 20
6.780323927504901
 10
14.505803747878442
 20
6.714876366854719
 10
14.50476028384102
 20
6.714480435158006
 10
14.33548128697581
 20
6.651447160310085
 10
14.333357690715102
 20
6.650686574758863
 10
14.1640786938499
 20
6.592440698234143
 10
14.160803573364202
 20
6.591383376033316
 10
13.991524576499
 20
6.540286881396012
 10
13.987043455265379
 20
6.539059535876081
 10
13.817764458400177
 20
6.4973610699720314
 10
13.812072998419515
 20
6.496152785873811
 10
13.642794001554305
 20
6.465897586319089
 10
13.63598242305508
 20
6.464947102007895
 10
13.466703426189877
 20
6.447889668735095
 10
13.458997038760888
 20
6.447445839292667
 10
13.289718041895686
 20
6.4449688569617605
 10
13.281487249000666
 20
6.445225191292264
 10
13.112208252135463
 20
6.458268133730431
 10
13.10392499457496
 20
6.45929453823105
 10
12.934645997709758
 20
6.48829517114128
 10
12.92679251821238
 20
6.490004733958286
 10
12.757513521347171
 20
6.534856380758031
 10
12.750485084313997
 20
6.537029667485155
 10
12.581206087448795
 20
6.59705662375325
 10
12.575255198172801
 20
6.599408168806163
 10
12.405976201307599
 20
6.673361057353855
 10
12.401214782734597
 20
6.675609265688872
 10
12.231935785869394
 20
6.761681435755872
 10
12.228376961530692
 20
6.763592669299781
 10
12.05909796466549
 20
6.859457983341316
 10
12.056708705601453
 20
6.860860055230883
 10
11.887429708736244
 20
6.963731602447765
 10
11.886175707430022
 20
6.9645078038724
 10
11.71689671056482
 20
7.0712162610189315
 10
11.716774234071163
 20
7.071293604363627
 10
11.548021299737815
 20
7.178050364495654
 10
11.380435886212485
 20
7.2808505151825695
 10
11.214223062776746
 20
7.375998229310996
 10
11.049584488830009
 20
7.4599873379505395
 10
10.886742717568978
 20
7.529640156542348
 10
10.725852231873857
 20
7.582284336123909
 10
10.566848891750915
 20
7.615877043839849
 10
10.409288754715133
 20
7.629001321504971
 10
10.252314567273007
 20
7.620714881042441
 10
10.094868543533458
 20
7.590387655624915
 10
9.936056331297534
 20
7.537736361973033
 10
9.775394858193048
 20
7.463074297183594
 10
9.612806243280366
 20
7.367571200660135
 10
9.448456108137558
 20
7.253353234788459
 10
9.282588179143938
 20
7.123441521948865
 10
9.115421046533358
 20
6.981605612441691
 10
8.947100206287509
 20
6.832190070601859
 10
8.778025572727028
 20
6.680249536113828
 10
8.77732853262817
 20
6.6796296336981955
 10
8.608049535762968
 20
6.530647739495787
 10
8.606138277477541
 20
6.529012471733738
 10
8.436859280612339
 20
6.388226993300598
 10
8.433499064871985
 20
6.385565163146993
 10
8.264220068006782
 20
6.257910582124477
 10
8.25903381064734
 20
6.254278532009474
 10
8.08975481378213
 20
6.144395445163734
 10
8.08224018969057
 20
6.14001843305962
 10
7.912961192825368
 20
6.052084645256411
 10
7.9026135881379735
 20
6.047510760385833
 10
7.733334591272771
 20
5.9850839023552265
 10
7.719978393044517
 20
5.981299483265614
 10
7.550699396179315
 20
5.947177083239787
 10
7.534987006165502
 20
5.945426368197697
 10
7.365708009300293
 20
5.941528823299904
 10
7.349316630379293
 20
5.942651472902045
 10
7.1800376335140905
 20
5.969932671299633
 10
7.165010393187506
 20
5.973705301550417
 10
6.995731396322304
 20
6.032094760997043
 10
6.983425253671016
 20
6.03739457278086
 10
6.814146256805814
 20
6.125773914016142
 10
6.804860575433658
 20
6.131357679245593
 10
6.6355815785684555
 20
6.24757307921808
 10
6.628941123962574
 20
6.252599358447217
 10
6.459662127097364
 20
6.393510369352553
 10
6.455102723232623
 20
6.39757541653233
 10
6.285823726367421
 20
6.559139237088443
 10
6.2828517934930925
 20
6.562111390858732
 10
6.11357279662789
 20
6.739500383321304
 10
6.111840912907656
 20
6.741367427921692
 10
5.942561916042454
 20
6.929116435949343
 10
5.941868340427387
 20
6.929894703660808
 10
5.772726168345488
 20
7.121918254671771
 10
5.604226969121637
 20
7.311446958118055
 10
5.436842821933432
 20
7.491768122003478
 10
5.270862524173912
 20
7.65668376681878
 10
5.106780444891336
 20
7.800385406827054
 10
4.945325080873587
 20
7.917795472229917
 10
4.78735619238194
 20
8.005026121010644
 10
4.633393039752125
 20
8.059862326901476
 10
4.482697909407099
 20
8.081751055573083
 10
4.332789689166146
 20
8.070692120052806
 10
4.180662674614519
 20
8.026003019151439
 10
4.024661840235419
 20
7.9468421854267
 10
3.864811237077737
 20
7.833726973995691
 10
3.7019188999159733
 20
7.6891559161013445
 10
3.5368336715796502
 20
7.517318054650951
 10
3.3701861472819727
 20
7.323612833963315
 10
3.2023763619722616
 20
7.114267427983327
 10
3.033620743114943
 20
6.896043203556619
 10
2.8643844871922144
 20
6.67649246483191
 10
2.863587772728489
 20
6.675474098066121
 10
2.694308775863287
 20
6.462273943810303
 10
2.6924962486455915
 20
6.460064118760888
 10
2.5232172517803857
 20
6.2602369710051216
 10
2.520084735576389
 20
6.256729251970789
 10
2.3508057387111867
 20
6.076862829345706
 10
2.3458137532768566
 20
6.07195581548541
 10
2.176534756411651
 20
5.918034502984173
 10
2.168835176156896
 20
5.911773002070087
 10
1.9995561792916936
 20
5.788972573740664
 10
1.9880317506740217
 20
5.781870151425665
 10
1.818752753808816
 20
5.694378535372766
 10
1.8025148607703503
 20
5.687897589153229
 10
1.633235863905148
 20
5.63876805114083
 10
1.6129064726575235
 20
5.635327147608697
 10
1.4436274757923213
 20
5.626369171988764
 10
1.422299618879985
 20
5.627782277944133
 10
1.2530206220147793
 20
5.659494132878496
 10
1.2345549957028303
 20
5.665055486311071
 10
1.0652759988376281
 20
5.736601019834738
 10
1.0515162512386769
 20
5.743877858804099
 10
0.882237254373471
 20
5.853108534381037
 10
0.8728322320006705
 20
5.8600838473823105
 10
0.7035532351354683
 20
6.003605447189918
 10
0.6973766348210897
 20
6.00936140279534
 10
0.5280976379558839
 20
6.1826432607714015
 10
0.5241388572758285
 20
6.186969012336517
 10
0.35485986041062634
 20
6.384492143442226
 10
0.35242970365791276
 20
6.387453036108963
 10
0.183150706792707
 20
6.602892157316559
 10
0.18183516000665134
 20
6.604608486760514
 10
0.012556163141449153
 20
6.831041728576744
 10
0.012139786354886356
 20
6.831603221906782
 10
-0.1569321124065464
 20
7.061460795002923
 10
-0.3253543678840155
 20
7.2867480309152
 10
-0.4927817139516414
 20
7.499830580852868
 10
-0.6589052270593965
 20
7.693671736973692
 10
-0.8231811760120556
 20
7.86183224230776
 10
-0.9847615832101279
 20
7.998826665526719
 10
-1.1425466484224294
 20
8.100640650653379
 10
-1.2956967861495745
 20
8.16536934420558
 10
-1.4448638989257525
 20
8.193313542416433
 10
-1.5930313930825661
 20
8.185472753984893
 10
-1.7439088831022134
 20
8.14168385212226
 10
-1.8993551288615793
 20
8.061341674399687
 10
-2.0591170800430545
 20
7.9454452170769105
 10
-2.222127684241619
 20
7.7972236029693915
 10
-2.387394076823845
 20
7.621620749901984
 10
-2.554228844350844
 20
7.424678918022139
 10
-2.7222171088894958
 20
7.213104389722404
 10
-2.8911014062247142
 20
6.994010248004452
 10
-2.8911869743210614
 20
6.993899418642365
 10
-3.0604659711862636
 20
6.774998394470406
 10
-3.0614378467553847
 20
6.773764040641358
 10
-3.2307168436205904
 20
6.562585769617242
 10
-3.232714399876408
 20
6.560180612193682
 10
-3.4019933967416103
 20
6.363416660351329
 10
-3.4053173902334732
 20
6.359760931421979
 10
-3.574596387098679
 20
6.1835577598667175
 10
-3.579756981171542
 20
6.178596981229627
 10
-3.749035978036744
 20
6.028357601756593
 10
-3.7567902427974076
 20
6.022203460702939
 10
-3.92606923966261
 20
5.902416427416944
 10
-3.937330308703538
 20
5.895624737761388
 10
-4.106609305568743
 20
5.809726052813502
 10
-4.121968739208722
 20
5.803633072666371
 10
-4.291247736073924
 20
5.753905375099394
 10
-4.309992989498526
 20
5.7505004889985445
 10
-4.479271986363732
 20
5.738012544653261
 10
-4.49883031338151
 20
5.738703289246751
 10
-4.668109310246712
 20
5.763291356715825
 10
-4.685369111666171
 20
5.7675736936486715
 10
-4.854648108531377
 20
5.827864859207048
 10
-4.867957198196538
 20
5.8338617927470695
 10
-5.03723619506174
 20
5.927337899735589
 10
-5.046662316684172
 20
5.933335155405072
 10
-5.2159413135493775
 20
6.056434553273887
 10
-5.222305152558489
 20
6.061518029167562
 10
-5.391584149423691
 20
6.209771083826824
 10
-5.395722923685265
 20
6.213632393197583
 10
-5.5650019205504675
 20
6.381825578163185
 10
-5.567529196086486
 20
6.384440202967001
 10
-5.736808192951692
 20
6.566802668283201
 10
-5.73810808061232
 20
6.568233540678989
 10
-5.907387077477522
 20
6.758639364233828
 10
-5.907661440136878
 20
6.7589494017923535
 10
-6.0765959029052965
 20
6.950737144787722
 10
-6.244673125087297
 20
7.137153252639791
 10
-6.411621715177878
 20
7.312100190757563
 10
-6.577169348228873
 20
7.470102710710104
 10
-6.740895803301311
 20
7.606391681719158
 10
-6.90226369474031
 20
7.717175856918601
 10
-7.0607762174167386
 20
7.799934099766892
 10
-7.2163536903355805
 20
7.85359748810228
 10
-7.369811858001012
 20
7.878328983416756
 10
-7.522910337811495
 20
7.874803984982837
 10
-7.677585855261011
 20
7.8436252801325415
 10
-7.835015293625788
 20
7.785568312755412
 10
-7.995401342511416
 20
7.702254062018597
 10
-8.158371837434808
 20
7.596465976204148
 10
-8.323409811666851
 20
7.472009582655377
 10
-8.49007334987643
 20
7.333399321496515
 10
-8.658058018154849
 20
7.185556561670798
 10
-8.82699010125416
 20
7.0337441315163645
 10
-8.827399945386533
 20
7.033378076650966
 10
-8.996678942251739
 20
6.88311199550632
 10
-8.998199046911127
 20
6.881792719438551
 10
-9.16747804377633
 20
6.738164961362634
 10
-9.17021056031308
 20
6.735937073166721
 10
-9.339489557178283
 20
6.603353730720978
 10
-9.343622637914212
 20
6.600302833043497
 10
-9.512901634779418
 20
6.482659469562596
 10
-9.518680194284727
 20
6.478961963045731
 10
-9.687959191149929
 20
6.379528996071415
 10
-9.695613368551973
 20
6.375514324419172
 10
-9.864892365417179
 20
6.296847552683415
 10
-9.874499368041986
 20
6.2930373646384625
 10
-10.043778364907189
 20
6.236915999363322
 10
-10.05507744778517
 20
6.233968094165645
 10
-10.224356444650375
 20
6.201361603544604
 10
-10.23663494623046
 20
6.199862201130855
 10
-10.405913943095662
 20
6.190926207564416
 10
-10.418129159024302
 20
6.191111682321948
 10
-10.587408155889507
 20
6.2052121051797124
 10
-10.598540987664594
 20
6.206845244653421
 10
-10.767819984529796
 20
6.242608895025443
 10
-10.777204587516117
 20
6.245127691148282
 10
-10.946483584381319
 20
6.300516633955286
 10
-10.953889421246883
 20
6.3033059384845975
 10
-11.123168418112089
 20
6.375712171656524
 10
-11.128672698363983
 20
6.378289748074168
 10
-11.297951695229187
 20
6.4646461329557825
 10
-11.301765636487339
 20
6.466709046897205
 10
-11.471044633352543
 20
6.56361197694041
 10
-11.473391658292247
 20
6.565003171686236
 10
-11.642670655157449
 20
6.668842199318813
 10
-11.643727333326952
 20
6.669500487814717
 10
-11.812945123066159
 20
6.77655132554163
 10
-11.981539029835975
 20
6.882827922218529
 10
-12.149004007062421
 20
6.984597082190819
 10
-12.315319623108255
 20
7.078784187841862
 10
-12.480449944445802
 20
7.162746908348183
 10
-12.644381713029206
 20
7.2343637541233745
 10
-12.807173673111462
 20
7.292090383236356
 10
-12.969005468395615
 20
7.334968842215135
 10
-13.13020171358748
 20
7.3625847497989865
 10
-13.291205732028107
 20
7.374990105358288
 10
-13.452500743692038
 20
7.372629949040295
 10
-13.614512111318096
 20
7.356304839937024
 10
-13.777538222172922
 20
7.327167217385595
 10
-13.941734621467704
 20
7.28672074685852
 10
-14.107141233147235
 20
7.236793123212523
 10
-14.273726215311939
 20
7.179474208983817
 10
-14.441425220617639
 20
7.117029264903872
 10
-14.610167116734466
 20
7.0518021573881935
 10
-14.779429519936686
 20
6.986296909968058
 10
-14.780344101511028
 20
6.985948668414083
 10
-14.949623098376232
 20
6.922544606517948
 10
-14.95142694375725
 20
6.921890808933524
 10
-15.120705940622454
 20
6.8625699088743985
 10
-15.1233351227786
 20
6.861693769324978
 10
-15.292614119643805
 20
6.808165056105698
 10
-15.295986792185852
 20
6.807170603792107
 10
-15.465265789051054
 20
6.760832080905572
 10
-15.469270100474168
 20
6.759834033932452
 10
-15.638549097339371
 20
6.721742177959111
 10
-15.643035758167182
 20
6.720851716830503
 10
-15.812314755032386
 20
6.6917053232090264
 10
-15.81709828263821
 20
6.691013389768509
 10
-15.986377279503413
 20
6.671151565466496
 10
-15.991247724117974
 20
6.670713867276179
 10
-16.160526720983178
 20
6.660127433340852
 10
-16.16526969797795
 20
6.659956199458833
 10
-16.334548694843154
 20
6.658311289236904
 10
-16.3389678492792
 20
6.658376870679185
 10
-16.508246846144406
 20
6.665049104257223
 10
-16.51218192381372
 20
6.6652906257018305
 10
-16.681460920678926
 20
6.679407920611959
 10
-16.68479706576251
 20
6.679748838976563
 10
-16.854076062627712
 20
6.700240690220413
 10
-16.85674400865334
 20
6.700604227347862
 10
-17.026023005518542
 20
6.726255160904817
 10
-17.02799295961025
 20
6.726576053325194
 10
-17.19727195647545
 20
6.75608092691018
 10
-17.19854496859634
 20
6.756312250101225
 10
-17.367823965461547
 20
6.788331139353294
 10
-17.368423824760903
 20
6.78844671194382
 10
-17.53768645811253
 20
6.821654061731654
 10
-17.706643553139354
 20
6.8547364536563515
 10
-17.87505489607069
 20
6.886503757573148
 10
-18.042991317727527
 20
6.915977541742704
 10
-18.210534329271155
 20
6.942353806588507
 10
-18.377774941744196
 20
6.9650157886441235
 10
-18.544811265324533
 20
6.983538451961513
 10
-18.711744690525876
 20
6.997685541538557
 10
-18.87867497576661
 20
7.007400337712508
 10
-19.04569496862951
 20
7.0127912682740075
 10
-19.212885830057793
 20
7.014113369815719
 10
-19.38031347692361
 20
7.011746386594203
 10
-19.548026602764292
 20
7.0061701903066265
 10
-19.716056244367056
 20
6.997938249405883
 10
-19.884416578450455
 20
6.98765002759857
 10
-20.053106521434383
 20
6.975923354762822
 10
-20.2221117453035
 20
6.963367907293363
 10
-20.39133012001867
 20
6.9505667244697245
 10
-20.391483582313857
 20
6.95055524716173
 10
-20.560762579179062
 20
6.938040547400822
 10
-20.561152559468717
 20
6.938012567961711
 10
-20.73043155633392
 20
6.926237046021108
 10
-20.731014265779653
 20
6.926198410379283
 10
-20.900293262644855
 20
6.91552613475963
 10
-20.901021541876403
 20
6.915483182780364
 10
-21.07030053874161
 20
6.9061878758998105
 10
-21.07112609354385
 20
6.9061463453621075
 10
-21.240405090409052
 20
6.898409720800034
 10
-21.24128068103314
 20
6.898373974106208
 10
-21.410559677898345
 20
6.892288367201996
 10
-21.411441160553235
 20
6.8922610014433925
 10
-21.580720157418437
 20
6.887835773107428
 10
-21.5815682572477
 20
6.887817601561475
 10
-21.7508472541129
 20
6.884988661658401
 10
-21.751628959745343
 20
6.884978993819624
 10
-21.92090795661055
 20
6.883620697869282
 10
-21.921597461934258
 20
6.883617806613662
 10
-22.09087645879946
 20
6.8835564296009215
 10
-22.09145562534945
 20
6.883558083144219
 10
-22.260734622214656
 20
6.8845860665632514
 10
-22.261192981719756
 20
6.884590017344741
 10
-22.430471978584958
 20
6.886480217828327
 10
-22.43080633003644
 20
6.886484572462858
 10
-22.60008532690164
 20
6.8890038082542
 10
-22.600299002473346
 20
6.88900724195156
 10
-22.76957799933855
 20
6.8919285313392376
 10
-22.76967988051084
 20
6.891930347220063
 10
-22.938958877376045
 20
6.895043353988104
 10
-23.1082018745976
 20
6.898162027844221
 10
-23.277370248751463
 20
6.901131273946524
 10
-23.446484304963477
 20
6.903831654573295
 10
-23.61556274598773
 20
6.906179358213444
 10
-23.784623299448036
 20
6.90812520024744
 10
-23.95368183582529
 20
6.9096518037026105
 10
-24.12275169422549
 20
6.91076935597877
 10
-24.291843236804812
 20
6.9115103473403074
 10
-24.460963637526664
 20
6.911923715205607
 10
-24.630116895949293
 20
6.91206881392389
 10
-24.79930405340828
 20
6.912009603375169
 10
-24.968523578162298
 20
6.91180940280895
 10
-25.1377718780946
 20
6.911526491480834
 10
-25.307042160165157
 20
6.911210762015328
 10
-25.476324626407678
 20
6.910901535398237
 10
-25.645621833498787
 20
6.910626535125104
 10
-25.814927697417158
 20
6.910402060450572
 10
-25.984236728606028
 20
6.910234081603983
 10
-26.153544443598808
 20
6.910120129000331
 10
-26.3228476446194
 20
6.910051712348586
 10
-26.492144554409624
 20
6.910016995303179
 10
-26.661434804560447
 20
6.910003448164681
 10
-26.830719286424777
 20
6.910000218971245
 10
-26.999999883588995
 20
6.910000000000076
 10
-27.034441401363082
 20
6.91685079752549
 10
-27.063639527991725
 20
6.936360307378251
 10
-27.08314911337738
 20
6.965558383537424
 10
-27.089999999999925
 20
6.999999883588993
 10
-27.08314920247451
 20
7.0344414013630825
 10
-27.06363969262175
 20
7.0636395279917235
 10
-27.034441616462576
 20
7.083149113377383
 10
-27.000000116411005
 20
7.089999999999924
 10
-26.83072191971041
 20
7.090000218953762
 10
-26.661446465480214
 20
7.0900034478078595
  0
LWPOLYLINE
  5
38
330
17
100
AcDbEntity
  8
ENGRAVE_FILL
100
AcDbPolyline
 90
22
 70
1
 10
-6.993796874999999
 20
1.1418203125000002
 10
-6.893812499999999
 20
1.21121875
 10
-6.8364375
 20
1.3335625
 10
-6.8173125
 20
1.51496875
 10
-6.8173125
 20
2.3123125
 10
-6.638999999999999
 20
2.3123125
 10
-6.638999999999999
 20
1.49303125
 10
-6.670781249999999
 20
1.2678906250000002
 10
-6.766125
 20
1.10546875
 10
-6.923203125
 20
1.007171875
 10
-7.14075
 20
0.97440625
 10
-7.359210937499999
 20
1.007171875
 10
-7.51678125
 20
1.10546875
 10
-7.6119140625
 20
1.2678906250000002
 10
-7.643625
 20
1.49303125
 10
-7.643625
 20
2.3123125
 10
-7.46503125
 20
2.3123125
 10
-7.46503125
 20
1.51496875
 10
-7.4459765625
 20
1.3335625
 10
-7.3888125
 20
1.21121875
 10
-7.288546875
 20
1.1418203125000002
 10
-7.14075
 20
1.1186875
  0
LWPOLYLINE
  5
39
330
17
100
AcDbEntity
  8
ENGRAVE_FILL
100
AcDbPolyline
 90
52
 70
1
 10
-6.106769531249999
 20
2.1356875000000004
 10
-6.16583203125
 20
2.0675546875000004
 10
-6.18551953125
 20
1.9756562500000001
 10
-6.17244140625
 20
1.89915625
 10
-6.1332070312499996
 20
1.84403125
 10
-6.057480468749999
 20
1.80409375
 10
-5.93492578125
 20
1.77259375
 10
-5.8277695312499995
 20
1.75065625
 10
-5.655222656249999
 20
1.69834375
 10
-5.534707031249999
 20
1.61734375
 10
-5.463832031249999
 20
1.5058984375
 10
-5.440207031249999
 20
1.36225
 10
-5.472199218749999
 20
1.1944140625000002
 10
-5.56817578125
 20
1.07284375
 10
-5.72567578125
 20
0.999015625
 10
-5.94280078125
 20
0.97440625
 10
-6.038917968749999
 20
0.9796796875
 10
-6.14108203125
 20
0.9955
 10
-6.24788671875
 20
1.02165625
 10
-6.35848828125
 20
1.0579375
 10
-6.35848828125
 20
1.24075
 10
-6.25154296875
 20
1.1876640625000001
 10
-6.146707031249999
 20
1.14934375
 10
-6.04383984375
 20
1.1263515625
 10
-5.94280078125
 20
1.1186875
 10
-5.808222656249999
 20
1.1335937500000002
 10
-5.708238281249999
 20
1.1783125
 10
-5.64622265625
 20
1.2509453125
 10
-5.625550781249999
 20
1.34903125
 10
-5.640386718749999
 20
1.4350234375
 10
-5.684894531249999
 20
1.5000625
 10
-5.763222656249999
 20
1.5478046875
 10
-5.87951953125
 20
1.58190625
 10
-5.98780078125
 20
1.6030000000000002
 10
-6.158941406249999
 20
1.653625
 10
-6.275238281249999
 20
1.72675
 10
-6.34168359375
 20
1.8276484375000002
 10
-6.363832031249999
 20
1.96159375
 10
-6.333175781249999
 20
2.1171953125000003
 10
-6.241207031249999
 20
2.2358125
 10
-6.09544921875
 20
2.31090625
 10
-5.903425781249999
 20
2.3359375
 10
-5.81012109375
 20
2.3317187500000003
 10
-5.71526953125
 20
2.3190625000000002
 10
-5.618308593749999
 20
2.2983203125
 10
-5.519238281249999
 20
2.26928125
 10
-5.519238281249999
 20
2.0960312500000002
 10
-5.6173945312499995
 20
2.13821875
 10
-5.70992578125
 20
2.1680312500000003
 10
-5.7980976562499995
 20
2.1859609375
 10
-5.883175781249999
 20
2.1919375
 10
-6.011496093749999
 20
2.1778750000000002
  0
LWPOLYLINE
  5
3A
330
17
100
AcDbEntity
  8
ENGRAVE_FILL
100
AcDbPolyline
 90
22
 70
1
 10
-21.993125
 20
1.2346875
 10
-21.929375
 20
1.370625
 10
-21.908125
 20
1.5721875
 10
-21.908125
 20
2.458125
 10
-21.71
 20
2.458125
 10
-21.71
 20
1.5478125
 10
-21.7453125
 20
1.29765625
 10
-21.85125
 20
1.1171875
 10
-22.02578125
 20
1.00796875
 10
-22.2675
 20
0.9715625
 10
-22.510234374999996
 20
1.00796875
 10
-22.6853125
 20
1.1171875
 10
-22.791015625
 20
1.29765625
 10
-22.82625
 20
1.5478125
 10
-22.82625
 20
2.458125
 10
-22.6278125
 20
2.458125
 10
-22.6278125
 20
1.5721875
 10
-22.606640625
 20
1.370625
 10
-22.543125
 20
1.2346875
 10
-22.431718749999998
 20
1.157578125
 10
-22.2675
 20
1.131875
 10
-22.10421875
 20
1.157578125
  0
LWPOLYLINE
  5
3B
330
17
100
AcDbEntity
  8
ENGRAVE_FILL
100
AcDbPolyline
 90
52
 70
1
 10
-21.0127734375
 20
2.30875
 10
-21.1186328125
 20
2.261875
 10
-21.1842578125
 20
2.186171875
 10
-21.2061328125
 20
2.0840625
 10
-21.1916015625
 20
1.9990625
 10
-21.1480078125
 20
1.9378125000000002
 10
-21.0638671875
 20
1.8934375
 10
-20.9276953125
 20
1.8584375
 10
-20.8086328125
 20
1.8340625
 10
-20.6169140625
 20
1.7759375
 10
-20.4830078125
 20
1.6859375
 10
-20.4042578125
 20
1.562109375
 10
-20.3780078125
 20
1.4025
 10
-20.413554687500003
 20
1.216015625
 10
-20.5201953125
 20
1.0809375
 10
-20.695195312499997
 20
0.9989062500000001
 10
-20.9364453125
 20
0.9715625
 10
-21.0432421875
 20
0.977421875
 10
-21.1567578125
 20
0.995
 10
-21.2754296875
 20
1.0240625
 10
-21.3983203125
 20
1.064375
 10
-21.3983203125
 20
1.2675
 10
-21.2794921875
 20
1.208515625
 10
-21.1630078125
 20
1.1659375
 10
-21.048710937499997
 20
1.140390625
 10
-20.9364453125
 20
1.131875
 10
-20.7869140625
 20
1.1484375
 10
-20.6758203125
 20
1.198125
 10
-20.6069140625
 20
1.278828125
 10
-20.5839453125
 20
1.3878125
 10
-20.6004296875
 20
1.483359375
 10
-20.6498828125
 20
1.555625
 10
-20.7369140625
 20
1.608671875
 10
-20.8661328125
 20
1.6465625
 10
-20.9864453125
 20
1.67
 10
-21.1766015625
 20
1.72625
 10
-21.3058203125
 20
1.8075
 10
-21.3796484375
 20
1.919609375
 10
-21.4042578125
 20
2.0684375
 10
-21.370195312499998
 20
2.241328125
 10
-21.2680078125
 20
2.373125
 10
-21.1060546875
 20
2.4565625
 10
-20.8926953125
 20
2.484375
 10
-20.7890234375
 20
2.4796875
 10
-20.6836328125
 20
2.465625
 10
-20.5758984375
 20
2.442578125
 10
-20.4658203125
 20
2.4103125
 10
-20.4658203125
 20
2.2178125
 10
-20.5748828125
 20
2.2646875
 10
-20.6776953125
 20
2.2978125
 10
-20.7756640625
 20
2.3177343749999997
 10
-20.8701953125
 20
2.324375
  0
LWPOLYLINE
  5
3C
330
17
100
AcDbEntity
  8
ENGRAVE_FILL
100
AcDbPolyline
 90
19
 70
1
 10
-19.1122265625
 20
1.9775
 10
-19.1591015625
 20
1.8846875
 10
-19.2362890625
 20
1.820546875
 10
-19.3428515625
 20
1.78625
 10
-19.2134765625
 20
1.7379687499999998
 10
-19.1166015625
 20
1.6556250000000001
 10
-19.056132812500003
 20
1.5442187500000002
 10
-19.0359765625
 20
1.408125
 10
-19.0691796875
 20
1.235
 10
-19.1687890625
 20
1.10625
 10
-19.3297265625
 20
1.0265625
 10
-19.5469140625
 20
1.0
 10
-20.0703515625
 20
1.0
 10
-20.0703515625
 20
2.458125
 10
-19.5662890625
 20
2.458125
 10
-19.3666015625
 20
2.4346875
 10
-19.2187890625
 20
2.364375
 10
-19.127148437499997
 20
2.250859375
 10
-19.0966015625
 20
2.0978125
  0
LWPOLYLINE
  5
3D
330
17
100
AcDbEntity
  8
ENGRAVE_FILL
100
AcDbPolyline
 90
11
 70
1
 10
-19.2633203125
 20
1.311484375
 10
-19.2441015625
 20
1.4296875
 10
-19.2633203125
 20
1.5485156249999998
 10
-19.3209765625
 20
1.63125
 10
-19.4181640625
 20
1.6800000000000002
 10
-19.5566015625
 20
1.69625
 10
-19.8731640625
 20
1.69625
 10
-19.8731640625
 20
1.1621875
 10
-19.5566015625
 20
1.1621875
 10
-19.4181640625
 20
1.178671875
 10
-19.3209765625
 20
1.228125
  0
LWPOLYLINE
  5
3E
330
17
100
AcDbEntity
  8
ENGRAVE_FILL
100
AcDbPolyline
 90
11
 70
1
 10
-19.3127734375
 20
1.9792187499999998
 10
-19.2950390625
 20
2.07625
 10
-19.3127734375
 20
2.17265625
 10
-19.3659765625
 20
2.24125
 10
-19.4550390625
 20
2.282265625
 10
-19.5809765625
 20
2.2959375
 10
-19.8731640625
 20
2.2959375
 10
-19.8731640625
 20
1.8565625
 10
-19.5809765625
 20
1.8565625
 10
-19.4550390625
 20
1.870078125
 10
-19.3659765625
 20
1.910625
  0
LWPOLYLINE
  5
3F
330
17
100
AcDbEntity
  8
ENGRAVE_FILL
100
AcDbPolyline
 90
37
 70
1
 10
-17.9796484375
 20
1.30203125
 10
-17.8062890625
 20
1.4778125
 10
-17.648320312499997
 20
1.638984375
 10
-17.5625390625
 20
1.7306249999999999
 10
-17.4821484375
 20
1.8287499999999999
 10
-17.4303515625
 20
1.910625
 10
-17.4019921875
 20
1.9837500000000001
 10
-17.3925390625
 20
2.055625
 10
-17.4129296875
 20
2.16109375
 10
-17.4741015625
 20
2.245
 10
-17.5680078125
 20
2.3000781249999998
 10
-17.6866015625
 20
2.3184375
 10
-17.7819921875
 20
2.310390625
 10
-17.8825390625
 20
2.28625
 10
-17.9889453125
 20
2.245703125
 10
-18.1025390625
 20
2.1884375
 10
-18.1025390625
 20
2.3878125
 10
-17.9873828125
 20
2.429765625
 10
-17.8800390625
 20
2.46
 10
-17.7807421875
 20
2.47828125
 10
-17.6903515625
 20
2.484375
 10
-17.4867578125
 20
2.456015625
 10
-17.3291015625
 20
2.3709375
 10
-17.2280859375
 20
2.23875
 10
-17.1944140625
 20
2.0684375
 10
-17.2028515625
 20
1.9807812500000002
 10
-17.2281640625
 20
1.8978125000000001
 10
-17.275507812500003
 20
1.8102343749999998
 10
-17.3506640625
 20
1.708125
 10
-17.4016796875
 20
1.6529687499999999
 10
-17.5059765625
 20
1.544375
 10
-17.6635546875
 20
1.3821093750000002
 10
-17.8750390625
 20
1.1659375
 10
-17.1866015625
 20
1.1659375
 10
-17.1866015625
 20
1.0
 10
-18.1122265625
 20
1.0
 10
-18.1122265625
 20
1.1659375
  0
LWPOLYLINE
  5
40
330
17
100
AcDbEntity
  8
ENGRAVE_FILL
100
AcDbPolyline
 90
34
 70
1
 10
-7.480859374999998
 20
13.57865625
 10
-7.615332031249999
 20
13.326374999999999
 10
-7.660156249999998
 20
12.982125
 10
-7.615332031249999
 20
12.638824218749999
 10
-7.480859374999998
 20
12.386859375
 10
-7.262011718749999
 20
12.23213671875
 10
-6.964062499999999
 20
12.1805625
 10
-6.797527343749999
 20
12.19606640625
 10
-6.640484374999998
 20
12.242578125
 10
-6.492617187499999
 20
12.3204140625
 10
-6.353609374999998
 20
12.429890625
 10
-6.353609374999998
 20
12.151453125
 10
-6.497468749999998
 20
12.06834375
 10
-6.649765624999999
 20
12.008859375
 10
-6.810289062499999
 20
11.973421875
 10
-6.979671874999999
 20
11.961609375
 10
-7.379398437499999
 20
12.029953124999999
 10
-7.684203124999998
 20
12.234984375
 10
-7.876894531249998
 20
12.558667968750001
 10
-7.941124999999998
 20
12.982125
 10
-7.876894531249998
 20
13.40642578125
 10
-7.684203124999998
 20
13.730109375
 10
-7.379398437499999
 20
13.93545703125
 10
-6.979671874999999
 20
14.00390625
 10
-6.808390624999999
 20
13.99219921875
 10
-6.647234374999998
 20
13.957078125
 10
-6.495570312499998
 20
13.89854296875
 10
-6.353609374999998
 20
13.816593750000001
 10
-6.353609374999998
 20
13.536046875
 10
-6.492617187499999
 20
13.64541796875
 10
-6.640484374999998
 20
13.7229375
 10
-6.797527343749999
 20
13.769449218750001
 10
-6.964062499999999
 20
13.784953125
 10
-7.262011718749999
 20
13.73337890625
  0
LWPOLYLINE
  5
41
330
17
100
AcDbEntity
  8
ENGRAVE_FILL
100
AcDbPolyline
 90
10
 70
1
 10
-18.245421874999998
 20
13.96846875
 10
-18.245421874999998
 20
12.0
 10
-18.503609375
 20
12.0
 10
-18.503609375
 20
13.646578125
 10
-19.37646875
 20
12.0
 10
-19.7350625
 20
12.0
 10
-19.7350625
 20
13.96846875
 10
-19.476453125
 20
13.96846875
 10
-19.476453125
 20
12.321890625
 10
-18.604015625
 20
13.96846875
  0
LWPOLYLINE
  5
42
330
17
100
AcDbEntity
  8
ENGRAVE_FILL
100
AcDbPolyline
 90
13
 70
1
 10
-16.9492109375
 20
12.378421875
 10
-17.4567265625
 20
13.728421875
 10
-17.4567265625
 20
12.0
 10
-17.7153359375
 20
12.0
 10
-17.7153359375
 20
13.96846875
 10
-17.3183515625
 20
13.96846875
 10
-16.8163203125
 20
12.629015625000001
 10
-16.3113359375
 20
13.96846875
 10
-15.914351562499998
 20
13.96846875
 10
-15.914351562499998
 20
12.0
 10
-16.1742265625
 20
12.0
 10
-16.1742265625
 20
13.728421875
 10
-16.6817421875
 20
12.378421875
  0
LWPOLYLINE
  5
43
330
17
100
AcDbEntity
  8
ENGRAVE_FILL
100
AcDbPolyline
 90
8
 70
1
 10
-13.885607421875
 20
13.96846875
 10
-13.885607421875
 20
12.0
 10
-14.151810546875
 20
12.0
 10
-14.151810546875
 20
13.74403125
 10
-15.119591796875
 20
13.74403125
 10
-15.119591796875
 20
12.0
 10
-15.385794921875
 20
12.0
 10
-15.385794921875
 20
13.96846875
  0
LWPOLYLINE
  5
44
330
17
100
AcDbEntity
  8
ENGRAVE_FILL
100
AcDbPolyline
 90
18
 70
1
 10
-13.062740234375
 20
12.259875
 10
-13.029201171875
 20
12.2904609375
 10
-13.001990234375
 20
12.3375
 10
-12.942927734374999
 20
12.477140625
 10
-13.574474609374999
 20
13.96846875
 10
-13.288021484375
 20
13.96846875
 10
-12.799068359375
 20
12.813375
 10
-12.307162109375
 20
13.96846875
 10
-12.021130859374999
 20
13.96846875
 10
-12.756880859374998
 20
12.23878125
 10
-12.788310546875
 20
12.176660156250001
 10
-12.826912109374998
 20
12.122765625
 10
-12.987751953124999
 20
12.03069140625
 10
-13.261865234375
 20
12.0
 10
-13.363537109374999
 20
12.0
 10
-13.363537109374999
 20
12.224015625
 10
-13.280427734375
 20
12.224015625
 10
-13.147537109374998
 20
12.23298046875
  0
LWPOLYLINE
  5
45
330
17
100
AcDbEntity
  8
ENGRAVE_FILL
100
AcDbPolyline
 90
16
 70
1
 10
-10.477490234374999
 20
12.0
 10
-10.477490234374999
 20
13.74403125
 10
-11.117052734375
 20
13.74403125
 10
-11.117052734375
 20
13.501453125000001
 10
-11.150591796874998
 20
12.85503515625
 10
-11.251208984375
 20
12.40753125
 10
-11.469212890624998
 20
12.138796875
 10
-11.864193359375
 20
12.0
 10
-11.864193359375
 20
12.224015625
 10
-11.629314453124998
 20
12.3246328125
 10
-11.496740234374998
 20
12.502453125
 10
-11.410677734375
 20
12.955230468749999
 10
-11.381990234375
 20
13.6335
 10
-11.381990234375
 20
13.96846875
 10
-10.211287109374998
 20
13.96846875
 10
-10.211287109374998
 20
12.0
  0
LWPOLYLINE
  5
46
330
17
100
AcDbEntity
  8
ENGRAVE_FILL
100
AcDbPolyline
 90
13
 70
1
 10
-8.328353515624999
 20
12.3242109375
 10
-8.462826171875
 20
12.1434375
 10
-8.680091796874997
 20
12.035859375
 10
-8.973294921874999
 20
12.0
 10
-9.679935546874999
 20
12.0
 10
-9.679935546874999
 20
13.96846875
 10
-9.413732421874998
 20
13.96846875
 10
-9.413732421874998
 20
13.158890625
 10
-8.973294921874999
 20
13.158890625
 10
-8.680091796874997
 20
13.12292578125
 10
-8.462826171875
 20
13.01503125
 10
-8.328353515624999
 20
12.8342578125
 10
-8.283529296874999
 20
12.5788125
  0
LWPOLYLINE
  5
47
330
17
100
AcDbEntity
  8
ENGRAVE_FILL
100
AcDbPolyline
 90
11
 70
1
 10
-8.799587890624998
 20
12.2413125
 10
-8.668701171874998
 20
12.308390625
 10
-8.590548828124998
 20
12.420292968750001
 10
-8.564498046874998
 20
12.5788125
 10
-8.590548828124998
 20
12.73859765625
 10
-8.668701171874998
 20
12.851765625
 10
-8.799587890624998
 20
12.917894531249999
 10
-8.986373046874998
 20
12.9399375
 10
-9.413732421874998
 20
12.9399375
 10
-9.413732421874998
 20
12.218953125
 10
-8.986373046874998
 20
12.218953125
  0
LWPOLYLINE
  5
48
330
17
100
AcDbEntity
  8
ENGRAVE_FILL
100
AcDbPolyline
 90
4
 70
1
 10
-1.2091523437499987
 20
2.3123125
 10
-1.6661835937499987
 20
0.8329375
 10
-1.8155273437499995
 20
0.8329375
 10
-1.3584960937499995
 20
2.3123125
  0
LWPOLYLINE
  5
49
330
17
100
AcDbEntity
  8
ENGRAVE_FILL
100
AcDbPolyline
 90
53
 70
1
 10
-2.5653398437499995
 20
1.2091796875
 10
-2.665535156249999
 20
1.08071875
 10
-2.8272539062499993
 20
1.000984375
 10
-3.045222656249999
 20
0.97440625
 10
-3.1288945312499994
 20
0.9784843750000001
 10
-3.2150976562499993
 20
0.99071875
 10
-3.303972656249999
 20
1.011109375
 10
-3.395660156249999
 20
1.03965625
 10
-3.395660156249999
 20
1.2109375
 10
-3.318457031249999
 20
1.1731796874999998
 10
-3.234222656249999
 20
1.14596875
 10
-3.1442226562499993
 20
1.129515625
 10
-3.0502851562499993
 20
1.12403125
 10
-2.9033320312499997
 20
1.1404843750000002
 10
-2.7960351562499994
 20
1.18984375
 10
-2.730433593749999
 20
1.2706328125
 10
-2.7085664062499992
 20
1.381375
 10
-2.728886718749999
 20
1.4848046875
 10
-2.789847656249999
 20
1.56278125
 10
-2.887019531249999
 20
1.6119296875
 10
-3.015972656249999
 20
1.6283125
 10
-3.1689726562499994
 20
1.6283125
 10
-3.1689726562499994
 20
1.77428125
 10
-3.008941406249999
 20
1.77428125
 10
-2.893488281249999
 20
1.787359375
 10
-2.8086914062499995
 20
1.8265937500000002
 10
-2.756589843749999
 20
1.8904375
 10
-2.739222656249999
 20
1.9773437500000002
 10
-2.757152343749999
 20
2.0665703125
 10
-2.8109414062499996
 20
2.1323125000000003
 10
-2.8979179687499994
 20
2.1730234375000004
 10
-3.015972656249999
 20
2.18659375
 10
-3.0916992187499988
 20
2.1825859375
 10
-3.172628906249999
 20
2.1705625
 10
-3.260308593749999
 20
2.1504531250000003
 10
-3.3562851562499993
 20
2.121625
 10
-3.3562851562499993
 20
2.2796875
 10
-3.258269531249999
 20
2.3042968750000004
 10
-3.1667226562499993
 20
2.3218750000000004
 10
-3.080941406249999
 20
2.332421875
 10
-3.000222656249999
 20
2.3359375
 10
-2.819167968749999
 20
2.3129453125
 10
-2.680441406249999
 20
2.24396875
 10
-2.592058593749999
 20
2.136109375
 10
-2.5625976562499995
 20
1.99590625
 10
-2.5782070312499994
 20
1.8952890625
 10
-2.625035156249999
 20
1.8116875000000001
 10
-2.700621093749999
 20
1.748125
 10
-2.8025039062499992
 20
1.7076250000000002
 10
-2.6890898437499993
 20
1.6655781250000001
 10
-2.6036601562499992
 20
1.594
 10
-2.5498710937499993
 20
1.4978125
 10
-2.5319414062499996
 20
1.381375
  0
LWPOLYLINE
  5
4A
330
17
100
AcDbEntity
  8
ENGRAVE_FILL
100
AcDbPolyline
 90
19
 70
1
 10
-4.2869414062499995
 20
1.9880312500000001
 10
-4.301003906249999
 20
1.87975
 10
-4.34319140625
 20
1.79621875
 10
-4.412660156249999
 20
1.7384921875
 10
-4.508566406249999
 20
1.7076250000000002
 10
-4.392128906249999
 20
1.664171875
 10
-4.304941406249999
 20
1.5900625000000002
 10
-4.250519531249999
 20
1.4897968750000001
 10
-4.232378906249999
 20
1.3673125000000002
 10
-4.262261718749999
 20
1.2115
 10
-4.35191015625
 20
1.095625
 10
-4.4967539062499995
 20
1.02390625
 10
-4.692222656249999
 20
1.0
 10
-5.163316406249999
 20
1.0
 10
-5.163316406249999
 20
2.3123125
 10
-4.709660156249999
 20
2.3123125
 10
-4.52994140625
 20
2.29121875
 10
-4.39691015625
 20
2.2279375000000003
 10
-4.31443359375
 20
2.1257734375000004
  0
LWPOLYLINE
  5
4B
330
17
100
AcDbEntity
  8
ENGRAVE_FILL
100
AcDbPolyline
 90
11
 70
1
 10
-4.488878906249999
 20
1.2053125
 10
-4.436988281249999
 20
1.2803359374999999
 10
-4.419691406249999
 20
1.38671875
 10
-4.436988281249999
 20
1.4936640625000002
 10
-4.488878906249999
 20
1.5681250000000002
 10
-4.576347656249999
 20
1.612
 10
-4.700941406249999
 20
1.6266250000000002
 10
-4.98584765625
 20
1.6266250000000002
 10
-4.98584765625
 20
1.14596875
 10
-4.700941406249999
 20
1.14596875
 10
-4.576347656249999
 20
1.1608046875
  0
LWPOLYLINE
  5
4C
330
17
100
AcDbEntity
  8
ENGRAVE_FILL
100
AcDbPolyline
 90
11
 70
1
 10
-4.529378906249999
 20
1.8195625
 10
-4.48149609375
 20
1.881296875
 10
-4.46553515625
 20
1.968625
 10
-4.48149609375
 20
2.0553906250000002
 10
-4.529378906249999
 20
2.117125
 10
-4.609535156249999
 20
2.1540390625000003
 10
-4.722878906249999
 20
2.1663437500000002
 10
-4.98584765625
 20
2.1663437500000002
 10
-4.98584765625
 20
1.7709062500000001
 10
-4.722878906249999
 20
1.7709062500000001
 10
-4.609535156249999
 20
1.7830703125
  0
LWPOLYLINE
  5
4D
330
17
100
AcDbEntity
  8
ENGRAVE_FILL
100
AcDbPolyline
 90
37
 70
1
 10
-0.38568749999999885
 20
1.271828125
 10
-0.2296640624999986
 20
1.43003125
 10
-0.08749218749999876
 20
1.5750859375
 10
-0.010289062499999169
 20
1.6575625
 10
0.06206250000000102
 20
1.745875
 10
0.10867968750000134
 20
1.8195625
 10
0.1342031250000013
 20
1.8853750000000002
 10
0.1427109375000013
 20
1.9500625
 10
0.12435937500000116
 20
2.044984375
 10
0.06930468750000074
 20
2.1205
 10
-0.015210937499998911
 20
2.1700703125
 10
-0.12194531249999851
 20
2.18659375
 10
-0.20779687499999855
 20
2.1793515625
 10
-0.29828906249999854
 20
2.1576250000000003
 10
-0.39405468749999883
 20
2.1211328125
 10
-0.49628906249999893
 20
2.06959375
 10
-0.49628906249999893
 20
2.24903125
 10
-0.392648437499999
 20
2.2867890625
 10
-0.29603906249999934
 20
2.314
 10
-0.20667187499999917
 20
2.330453125
 10
-0.12532031249999864
 20
2.3359375
 10
0.05791406250000142
 20
2.3104140625
 10
0.19980468750000124
 20
2.23384375
 10
0.2907187500000017
 20
2.1148749999999996
 10
0.32102343750000184
 20
1.96159375
 10
0.31342968750000155
 20
1.882703125
 10
0.2906484375000007
 20
1.80803125
 10
0.2480390625000013
 20
1.7292109375000002
 10
0.18039843750000095
 20
1.6373125000000002
 10
0.1344843750000011
 20
1.5876718750000003
 10
0.04061718750000143
 20
1.4899375000000001
 10
-0.10120312499999873
 20
1.3438984375
 10
-0.29153906249999917
 20
1.14934375
 10
0.3280546875000008
 20
1.14934375
 10
0.3280546875000008
 20
1.0
 10
-0.5050078124999988
 20
1.0
 10
-0.5050078124999988
 20
1.14934375
  0
LWPOLYLINE
  5
4E
330
17
100
AcDbEntity
  8
ENGRAVE_FILL
100
AcDbPolyline
 90
6
 70
1
 10
12.3934375
 20
2.458125
 10
12.3934375
 20
1.1659375
 10
13.1034375
 20
1.1659375
 10
13.1034375
 20
1.0
 10
12.19625
 20
1.0
 10
12.19625
 20
2.458125
  0
LWPOLYLINE
  5
4F
330
17
100
AcDbEntity
  8
ENGRAVE_FILL
100
AcDbPolyline
 90
8
 70
1
 10
13.5158203125
 20
1.3740625
 10
13.3830078125
 20
1.0
 10
13.1748828125
 20
1.0
 10
13.7314453125
 20
2.458125
 10
13.9551953125
 20
2.458125
 10
14.5108203125
 20
1.0
 10
14.3058203125
 20
1.0
 10
14.1730078125
 20
1.3740625
  0
LWPOLYLINE
  5
50
330
17
100
AcDbEntity
  8
ENGRAVE_FILL
100
AcDbPolyline
 90
3
 70
1
 10
14.111445312499999
 20
1.538125
 10
13.8430078125
 20
2.26375
 10
13.5751953125
 20
1.538125
  0
LWPOLYLINE
  5
51
330
17
100
AcDbEntity
  8
ENGRAVE_FILL
100
AcDbPolyline
 90
10
 70
1
 10
15.827109375
 20
1.0
 10
15.561484375
 20
1.0
 10
14.915234375
 20
2.2196875
 10
14.915234375
 20
1.0
 10
14.723671875
 20
1.0
 10
14.723671875
 20
2.458125
 10
14.989296875
 20
2.458125
 10
15.635859374999999
 20
1.2384375
 10
15.635859374999999
 20
2.458125
 10
15.827109375
 20
2.458125
  0
LWPOLYLINE
  5
52
330
17
100
AcDbEntity
  8
ENGRAVE_FILL
100
AcDbPolyline
 90
4
 70
1
 10
-1.8896445312499992
 20
12.631546875
 10
-2.600082031249997
 20
12.631546875
 10
-2.600082031249997
 20
12.847546875
 10
-1.8896445312499992
 20
12.847546875
  0
LWPOLYLINE
  5
53
330
17
100
AcDbEntity
  8
ENGRAVE_FILL
100
AcDbPolyline
 90
16
 70
1
 10
-0.3939394531249967
 20
12.223171875
 10
-0.6077246093749977
 20
12.027000000000001
 10
-0.8997675781249974
 20
11.961609375
 10
-1.1914941406249984
 20
12.027000000000001
 10
-1.4051738281249975
 20
12.223171875
 10
-1.5361660156249988
 20
12.54390234375
 10
-1.5798300781249992
 20
12.982125
 10
-1.5361660156249988
 20
13.421191406250001
 10
-1.4051738281249975
 20
13.741921875000001
 10
-1.1914941406249984
 20
13.93841015625
 10
-0.8997675781249974
 20
14.00390625
 10
-0.6077246093749977
 20
13.93841015625
 10
-0.3939394531249967
 20
13.741921875000001
 10
-0.26294726562499804
 20
13.421191406250001
 10
-0.2192832031249985
 20
12.982125
 10
-0.26294726562499804
 20
12.54390234375
  0
LWPOLYLINE
  5
54
330
17
100
AcDbEntity
  8
ENGRAVE_FILL
100
AcDbPolyline
 90
16
 70
1
 10
-1.2090019531249965
 20
12.375046875
 10
-1.079802734374998
 20
12.223171875
 10
-0.8997675781249974
 20
12.172546875
 10
-0.7185722656249967
 20
12.223171875
 10
-0.5892675781249963
 20
12.375046875
 10
-0.5114316406249984
 20
12.62806640625
 10
-0.48548632812499903
 20
12.982125
 10
-0.5114316406249984
 20
13.337343749999999
 10
-0.5892675781249963
 20
13.59046875
 10
-0.7185722656249967
 20
13.74234375
 10
-0.8997675781249974
 20
13.79296875
 10
-1.079802734374998
 20
13.74234375
 10
-1.2090019531249965
 20
13.59046875
 10
-1.2865214843749966
 20
13.337343749999999
 10
-1.3123613281249966
 20
12.982125
 10
-1.2865214843749966
 20
12.62806640625
  0
LWPOLYLINE
  5
55
330
17
100
AcDbEntity
  8
ENGRAVE_FILL
100
AcDbPolyline
 90
8
 70
1
 10
-5.434871093749999
 20
13.96846875
 10
-5.132808593749997
 20
13.96846875
 10
-4.382714843749998
 20
12.0
 10
-4.659464843749998
 20
12.0
 10
-4.838761718749998
 20
12.504984375
 10
-5.725964843749999
 20
12.504984375
 10
-5.905261718749998
 20
12.0
 10
-6.186230468749999
 20
12.0
  0
LWPOLYLINE
  5
56
330
17
100
AcDbEntity
  8
ENGRAVE_FILL
100
AcDbPolyline
 90
3
 70
1
 10
-4.921871093749997
 20
12.72646875
 10
-5.284261718749999
 20
13.7060625
 10
-5.645808593749999
 20
12.72646875
  0
LWPOLYLINE
  5
57
330
17
100
AcDbEntity
  8
ENGRAVE_FILL
100
AcDbPolyline
 90
13
 70
1
 10
-2.9938496093749976
 20
12.9399375
 10
-3.2035214843749973
 20
12.82824609375
 10
-3.4941933593749965
 20
12.791015625
 10
-3.829162109374998
 20
12.791015625
 10
-3.829162109374998
 20
12.0
 10
-4.095365234374999
 20
12.0
 10
-4.095365234374999
 20
13.96846875
 10
-3.4941933593749965
 20
13.96846875
 10
-3.2035214843749973
 20
13.93102734375
 10
-2.9938496093749976
 20
13.818703125
 10
-2.866654296874997
 20
13.63423828125
 10
-2.824255859374997
 20
13.380375
 10
-2.866654296874997
 20
13.1245078125
  0
LWPOLYLINE
  5
58
330
17
100
AcDbEntity
  8
ENGRAVE_FILL
100
AcDbPolyline
 90
11
 70
1
 10
-3.1306425781249967
 20
13.536996093750002
 10
-3.2068964843749974
 20
13.653328125
 10
-3.3293457031249973
 20
13.725468750000001
 10
-3.4941933593749965
 20
13.749515625
 10
-3.829162109374998
 20
13.749515625
 10
-3.829162109374998
 20
13.00996875
 10
-3.4941933593749965
 20
13.00996875
 10
-3.3293457031249973
 20
13.034015625
 10
-3.2068964843749974
 20
13.10615625
 10
-3.1306425781249967
 20
13.222804687500002
 10
-3.1052246093749964
 20
13.380375
  0
LWPOLYLINE
  5
59
330
17
100
AcDbEntity
  8
ENGRAVE_FILL
100
AcDbPolyline
 90
11
 70
1
 10
0.7273515625000009
 20
13.96846875
 10
0.9935546875000014
 20
13.96846875
 10
0.9935546875000014
 20
12.224015625
 10
1.4285078125000013
 20
12.224015625
 10
1.4285078125000013
 20
12.0
 10
0.2949296875000016
 20
12.0
 10
0.2949296875000016
 20
12.224015625
 10
0.7298828125000014
 20
12.224015625
 10
0.7298828125000014
 20
13.725890625
 10
0.25653906250000347
 20
13.630968750000001
 10
0.25653906250000347
 20
13.873546875
  0
ENDSEC
  0
SECTION
  2
OBJECTS
  0
DICTIONARY
  5
A
330
0
100
AcDbDictionary
281
1
  3
ACAD_COLOR
350
B
  3
ACAD_GROUP
350
C
  3
ACAD_LAYOUT
350
D
  3
ACAD_MATERIAL
350
E
  3
ACAD_MLEADERSTYLE
350
F
  3
ACAD_MLINESTYLE
350
10
  3
ACAD_PLOTSETTINGS
350
11
  3
ACAD_PLOTSTYLENAME
350
12
  3
ACAD_SCALELIST
350
14
  3
ACAD_TABLESTYLE
350
15
  3
ACAD_VISUALSTYLE
350
16
  3
EZDXF_META
350
2D
  0
DICTIONARY
  5
B
330
A
100
AcDbDictionary
281
1
  0
DICTIONARY
  5
C
330
A
100
AcDbDictionary
281
1
  0
DICTIONARY
  5
D
330
A
100
AcDbDictionary
281
1
  3
Model
350
1A
  3
Layout1
350
1E
  0
DICTIONARY
  5
E
330
A
100
AcDbDictionary
281
1
  3
ByBlock
350
1F
  3
ByLayer
350
20
  3
Global
350
21
  0
DICTIONARY
  5
F
330
A
100
AcDbDictionary
281
1
  3
Standard
350
2C
  0
DICTIONARY
  5
10
330
A
100
AcDbDictionary
281
1
  3
Standard
350
22
  0
DICTIONARY
  5
11
330
A
100
AcDbDictionary
281
1
  0
ACDBDICTIONARYWDFLT
  5
12
330
A
100
AcDbDictionary
281
1
  3
Normal
350
13
100
AcDbDictionaryWithDefault
340
13
  0
ACDBPLACEHOLDER
  5
13
330
12
  0
DICTIONARY
  5
14
330
A
100
AcDbDictionary
281
1
  0
DICTIONARY
  5
15
330
A
100
AcDbDictionary
281
1
  0
DICTIONARY
  5
16
330
A
100
AcDbDictionary
281
1
  0
LAYOUT
  5
1A
330
D
100
AcDbPlotSettings
  1

  4
A3
  6

 40
7.5
 41
20.0
 42
7.5
 43
20.0
 44
420.0
 45
297.0
 46
0.0
 47
0.0
 48
0.0
 49
0.0
140
0.0
141
0.0
142
1.0
143
1.0
 70
1024
 72
1
 73
0
 74
5
  7

 75
16
 76
0
 77
2
 78
300
147
1.0
148
0.0
149
0.0
100
AcDbLayout
  1
Model
 70
1
 71
0
 10
0.0
 20
0.0
 11
420.0
 21
297.0
 12
0.0
 22
0.0
 32
0.0
 14
1e+20
 24
1e+20
 34
1e+20
 15
-1e+20
 25
-1e+20
 35
-1e+20
146
0.0
 13
0.0
 23
0.0
 33
0.0
 16
1.0
 26
0.0
 36
0.0
 17
0.0
 27
1.0
 37
0.0
 76
1
330
17
  0
LAYOUT
  5
1E
330
D
100
AcDbPlotSettings
  1

  4
A3
  6

 40
7.5
 41
20.0
 42
7.5
 43
20.0
 44
420.0
 45
297.0
 46
0.0
 47
0.0
 48
0.0
 49
0.0
140
0.0
141
0.0
142
1.0
143
1.0
 70
0
 72
1
 73
0
 74
5
  7

 75
16
 76
0
 77
2
 78
300
147
1.0
148
0.0
149
0.0
100
AcDbLayout
  1
Layout1
 70
1
 71
1
 10
0.0
 20
0.0
 11
420.0
 21
297.0
 12
0.0
 22
0.0
 32
0.0
 14
1e+20
 24
1e+20
 34
1e+20
 15
-1e+20
 25
-1e+20
 35
-1e+20
146
0.0
 13
0.0
 23
0.0
 33
0.0
 16
1.0
 26
0.0
 36
0.0
 17
0.0
 27
1.0
 37
0.0
 76
1
330
1B
  0
MATERIAL
  5
1F
102
{ACAD_REACTORS
330
E
102
}
330
E
100
AcDbMaterial
  1
ByBlock
  2

 70
0
 40
1.0
 71
1
 41
1.0
 91
-1023410177
 42
1.0
 72
1
  3

 73
1
 74
1
 75
1
 44
0.5
 73
0
 45
1.0
 46
1.0
 77
1
  4

 78
1
 79
1
170
1
 48
1.0
171
1
  6

172
1
173
1
174
1
140
1.0
141
1.0
175
1
  7

176
1
177
1
178
1
143
1.0
179
1
  8

270
1
271
1
272
1
145
1.0
146
1.0
273
1
  9

274
1
275
1
276
1
 42
1.0
 72
1
  3

 73
1
 74
1
 75
1
 94
63
  0
MATERIAL
  5
20
102
{ACAD_REACTORS
330
E
102
}
330
E
100
AcDbMaterial
  1
ByLayer
  2

 70
0
 40
1.0
 71
1
 41
1.0
 91
-1023410177
 42
1.0
 72
1
  3

 73
1
 74
1
 75
1
 44
0.5
 73
0
 45
1.0
 46
1.0
 77
1
  4

 78
1
 79
1
170
1
 48
1.0
171
1
  6

172
1
173
1
174
1
140
1.0
141
1.0
175
1
  7

176
1
177
1
178
1
143
1.0
179
1
  8

270
1
271
1
272
1
145
1.0
146
1.0
273
1
  9

274
1
275
1
276
1
 42
1.0
 72
1
  3

 73
1
 74
1
 75
1
 94
63
  0
MATERIAL
  5
21
102
{ACAD_REACTORS
330
E
102
}
330
E
100
AcDbMaterial
  1
Global
  2

 70
0
 40
1.0
 71
1
 41
1.0
 91
-1023410177
 42
1.0
 72
1
  3

 73
1
 74
1
 75
1
 44
0.5
 73
0
 45
1.0
 46
1.0
 77
1
  4

 78
1
 79
1
170
1
 48
1.0
171
1
  6

172
1
173
1
174
1
140
1.0
141
1.0
175
1
  7

176
1
177
1
178
1
143
1.0
179
1
  8

270
1
271
1
272
1
145
1.0
146
1.0
273
1
  9

274
1
275
1
276
1
 42
1.0
 72
1
  3

 73
1
 74
1
 75
1
 94
63
  0
MLINESTYLE
  5
22
102
{ACAD_REACTORS
330
10
102
}
330
10
100
AcDbMlineStyle
  2
Standard
 70
0
  3

 62
256
 51
90.0
 52
90.0
 71
2
 49
0.5
 62
256
  6
BYLAYER
 49
-0.5
 62
256
  6
BYLAYER
  0
MLEADERSTYLE
  5
2C
102
{ACAD_REACTORS
330
F
102
}
330
F
100
AcDbMLeaderStyle
179
2
170
2
171
1
172
0
 90
2
 40
0.0
 41
0.0
173
1
 91
-1056964608
 92
-2
290
1
 42
2.0
291
1
 43
8.0
  3
Standard
 44
4.0
300

342
29
174
1
175
1
176
0
178
1
 93
-1056964608
 45
4.0
292
0
297
0
 46
4.0
 94
-1056964608
 47
1.0
 49
1.0
140
1.0
294
1
141
0.0
177
0
142
1.0
295
0
296
0
143
3.75
271
0
272
9
273
9
  0
DICTIONARY
  5
2D
330
A
100
AcDbDictionary
280
1
281
1
  3
CREATED_BY_EZDXF
350
2E
  3
WRITTEN_BY_EZDXF
350
5C
  0
DICTIONARYVAR
  5
2E
330
2D
100
DictionaryVariables
280
0
  1
1.4.3 @ 2026-09-24T11:47:32.139721+00:00
  0
DICTIONARYVAR
  5
5C
330
2D
100
DictionaryVariables
280
0
  1
1.4.3 @ 2026-09-24T11:47:34.323001+00:00
  0
ENDSEC
  0
EOF
