  0
SECTION
  2
HEADER
  9
$ACADVER
  1
AC1024
  9
$ACADMAINTVER
 70
6
  9
$DWGCODEPAGE
  3
ANSI_1252
  9
$LASTSAVEDBY
  1
ezdxf
  9
$INSBASE
 10
0.0
 20
0.0
 30
0.0
  9
$EXTMIN
 10
1e+20
 20
1e+20
 30
1e+20
  9
$EXTMAX
 10
-1e+20
 20
-1e+20
 30
-1e+20
  9
$LIMMIN
 10
0.0
 20
0.0
  9
$LIMMAX
 10
420.0
 20
297.0
  9
$ORTHOMODE
 70
0
  9
$REGENMODE
 70
1
  9
$FILLMODE
 70
1
  9
$QTEXTMODE
 70
0
  9
$MIRRTEXT
 70
1
  9
$LTSCALE
 40
1.0
  9
$ATTMODE
 70
1
  9
$TEXTSIZE
 40
2.5
  9
$TRACEWID
 40
1.0
  9
$TEXTSTYLE
  7
Standard
  9
$CLAYER
  8
0
  9
$CELTYPE
  6
ByLayer
  9
$CECOLOR
 62
256
  9
$CELTSCALE
 40
1.0
  9
$DISPSILH
 70
0
  9
$DIMSCALE
 40
1.0
  9
$DIMASZ
 40
2.5
  9
$DIMEXO
 40
0.625
  9
$DIMDLI
 40
3.75
  9
$DIMRND
 40
0.0
  9
$DIMDLE
 40
0.0
  9
$DIMEXE
 40
1.25
  9
$DIMTP
 40
0.0
  9
$DIMTM
 40
0.0
  9
$DIMTXT
 40
2.5
  9
$DIMCEN
 40
2.5
  9
$DIMTSZ
 40
0.0
  9
$DIMTOL
 70
0
  9
$DIMLIM
 70
0
  9
$DIMTIH
 70
0
  9
$DIMTOH
 70
0
  9
$DIMSE1
 70
0
  9
$DIMSE2
 70
0
  9
$DIMTAD
 70
1
  9
$DIMZIN
 70
8
  9
$DIMBLK
  1

  9
$DIMASO
 70
1
  9
$DIMSHO
 70
1
  9
$DIMPOST
  1

  9
$DIMAPOST
  1

  9
$DIMALT
 70
0
  9
$DIMALTD
 70
3
  9
$DIMALTF
 40
0.03937007874
  9
$DIMLFAC
 40
1.0
  9
$DIMTOFL
 70
1
  9
$DIMTVP
 40
0.0
  9
$DIMTIX
 70
0
  9
$DIMSOXD
 70
0
  9
$DIMSAH
 70
0
  9
$DIMBLK1
  1

  9
$DIMBLK2
  1

  9
$DIMSTYLE
  2
ISO-25
  9
$DIMCLRD
 70
0
  9
$DIMCLRE
 70
0
  9
$DIMCLRT
 70
0
  9
$DIMTFAC
 40
1.0
  9
$DIMGAP
 40
0.625
  9
$DIMJUST
 70
0
  9
$DIMSD1
 70
0
  9
$DIMSD2
 70
0
  9
$DIMTOLJ
 70
0
  9
$DIMTZIN
 70
8
  9
$DIMALTZ
 70
0
  9
$DIMALTTZ
 70
0
  9
$DIMUPT
 70
0
  9
$DIMDEC
 70
2
  9
$DIMTDEC
 70
2
  9
$DIMALTU
 70
2
  9
$DIMALTTD
 70
3
  9
$DIMTXSTY
  7
Standard
  9
$DIMAUNIT
 70
0
  9
$DIMADEC
 70
0
  9
$DIMALTRND
 40
0.0
  9
$DIMAZIN
 70
0
  9
$DIMDSEP
 70
44
  9
$DIMATFIT
 70
3
  9
$DIMFRAC
 70
0
  9
$DIMLDRBLK
  1

  9
$DIMLUNIT
 70
2
  9
$DIMLWD
 70
-2
  9
$DIMLWE
 70
-2
  9
$DIMTMOVE
 70
0
  9
$DIMFXL
 40
1.0
  9
$DIMFXLON
 70
0
  9
$DIMJOGANG
 40
0.785398163397
  9
$DIMTFILL
 70
0
  9
$DIMTFILLCLR
 70
0
  9
$DIMARCSYM
 70
0
  9
$DIMLTYPE
  6

  9
$DIMLTEX1
  6

  9
$DIMLTEX2
  6

  9
$DIMTXTDIRECTION
 70
0
  9
$LUNITS
 70
2
  9
$LUPREC
 70
4
  9
$SKETCHINC
 40
1.0
  9
$FILLETRAD
 40
10.0
  9
$AUNITS
 70
0
  9
$AUPREC
 70
2
  9
$MENU
  1
.
  9
$ELEVATION
 40
0.0
  9
$PELEVATION
 40
0.0
  9
$THICKNESS
 40
0.0
  9
$LIMCHECK
 70
0
  9
$CHAMFERA
 40
0.0
  9
$CHAMFERB
 40
0.0
  9
$CHAMFERC
 40
0.0
  9
$CHAMFERD
 40
0.0
  9
$SKPOLY
 70
0
  9
$TDCREATE
 40
2461308.6580324075
  9
$TDUCREATE
 40
2458532.153996898
  9
$TDUPDATE
 40
2461308.6580324075
  9
$TDUUPDATE
 40
2458532.1544311
  9
$TDINDWG
 40
0.0
  9
$TDUSRTIMER
 40
0.0
  9
$USRTIMER
 70
1
  9
$ANGBASE
 50
0.0
  9
$ANGDIR
 70
0
  9
$PDMODE
 70
0
  9
$PDSIZE
 40
0.0
  9
$PLINEWID
 40
0.0
  9
$SPLFRAME
 70
0
  9
$SPLINETYPE
 70
6
  9
$SPLINESEGS
 70
8
  9
$HANDSEED
  5
7B
  9
$SURFTAB1
 70
6
  9
$SURFTAB2
 70
6
  9
$SURFTYPE
 70
6
  9
$SURFU
 70
6
  9
$SURFV
 70
6
  9
$UCSBASE
  2

  9
$UCSNAME
  2

  9
$UCSORG
 10
0.0
 20
0.0
 30
0.0
  9
$UCSXDIR
 10
1.0
 20
0.0
 30
0.0
  9
$UCSYDIR
 10
0.0
 20
1.0
 30
0.0
  9
$UCSORTHOREF
  2

  9
$UCSORTHOVIEW
 70
0
  9
$UCSORGTOP
 10
0.0
 20
0.0
 30
0.0
  9
$UCSORGBOTTOM
 10
0.0
 20
0.0
 30
0.0
  9
$UCSORGLEFT
 10
0.0
 20
0.0
 30
0.0
  9
$UCSORGRIGHT
 10
0.0
 20
0.0
 30
0.0
  9
$UCSORGFRONT
 10
0.0
 20
0.0
 30
0.0
  9
$UCSORGBACK
 10
0.0
 20
0.0
 30
0.0
  9
$PUCSBASE
  2

  9
$PUCSNAME
  2

  9
$PUCSORG
 10
0.0
 20
0.0
 30
0.0
  9
$PUCSXDIR
 10
1.0
 20
0.0
 30
0.0
  9
$PUCSYDIR
 10
0.0
 20
1.0
 30
0.0
  9
$PUCSORTHOREF
  2

  9
$PUCSORTHOVIEW
 70
0
  9
$PUCSORGTOP
 10
0.0
 20
0.0
 30
0.0
  9
$PUCSORGBOTTOM
 10
0.0
 20
0.0
 30
0.0
  9
$PUCSORGLEFT
 10
0.0
 20
0.0
 30
0.0
  9
$PUCSORGRIGHT
 10
0.0
 20
0.0
 30
0.0
  9
$PUCSORGFRONT
 10
0.0
 20
0.0
 30
0.0
  9
$PUCSORGBACK
 10
0.0
 20
0.0
 30
0.0
  9
$USERI1
 70
0
  9
$USERI2
 70
0
  9
$USERI3
 70
0
  9
$USERI4
 70
0
  9
$USERI5
 70
0
  9
$USERR1
 40
0.0
  9
$USERR2
 40
0.0
  9
$USERR3
 40
0.0
  9
$USERR4
 40
0.0
  9
$USERR5
 40
0.0
  9
$WORLDVIEW
 70
1
  9
$SHADEDGE
 70
3
  9
$SHADEDIF
 70
70
  9
$TILEMODE
 70
1
  9
$MAXACTVP
 70
64
  9
$PINSBASE
 10
0.0
 20
0.0
 30
0.0
  9
$PLIMCHECK
 70
0
  9
$PEXTMIN
 10
1e+20
 20
1e+20
 30
1e+20
  9
$PEXTMAX
 10
-1e+20
 20
-1e+20
 30
-1e+20
  9
$PLIMMIN
 10
0.0
 20
0.0
  9
$PLIMMAX
 10
420.0
 20
297.0
  9
$UNITMODE
 70
0
  9
$VISRETAIN
 70
1
  9
$PLINEGEN
 70
0
  9
$PSLTSCALE
 70
1
  9
$TREEDEPTH
 70
3020
  9
$CMLSTYLE
  2
Standard
  9
$CMLJUST
 70
0
  9
$CMLSCALE
 40
20.0
  9
$PROXYGRAPHICS
 70
1
  9
$MEASUREMENT
 70
1
  9
$CELWEIGHT
370
-1
  9
$ENDCAPS
280
0
  9
$JOINSTYLE
280
0
  9
$LWDISPLAY
290
0
  9
$INSUNITS
 70
4
  9
$HYPERLINKBASE
  1

  9
$STYLESHEET
  1

  9
$XEDIT
290
1
  9
$CEPSNTYPE
380
0
  9
$PSTYLEMODE
290
1
  9
$FINGERPRINTGUID
  2
{77ECF387-EC0A-477D-B8BE-D207AE3B6613}
  9
$VERSIONGUID
  2
{A975DD6F-AB64-43F1-B624-4BA5A72AC9C4}
  9
$EXTNAMES
290
1
  9
$PSVPSCALE
 40
0.0
  9
$OLESTARTUP
290
0
  9
$SORTENTS
280
127
  9
$INDEXCTL
280
0
  9
$HIDETEXT
280
1
  9
$XCLIPFRAME
280
1
  9
$HALOGAP
280
0
  9
$OBSCOLOR
 70
257
  9
$OBSLTYPE
280
0
  9
$INTERSECTIONDISPLAY
280
0
  9
$INTERSECTIONCOLOR
 70
257
  9
$DIMASSOC
280
2
  9
$PROJECTNAME
  1

  9
$CAMERADISPLAY
290
0
  9
$LENSLENGTH
 40
50.0
  9
$CAMERAHEIGHT
 40
0.0
  9
$STEPSPERSEC
 40
24.0
  9
$STEPSIZE
 40
100.0
  9
$3DDWFPREC
 40
2.0
  9
$PSOLWIDTH
 40
0.005
  9
$PSOLHEIGHT
 40
0.08
  9
$LOFTANG1
 40
1.570796326795
  9
$LOFTANG2
 40
1.570796326795
  9
$LOFTMAG1
 40
0.0
  9
$LOFTMAG2
 40
0.0
  9
$LOFTPARAM
 70
7
  9
$LOFTNORMALS
280
1
  9
$LATITUDE
 40
37.795
  9
$LONGITUDE
 40
-122.394
  9
$NORTHDIRECTION
 40
0.0
  9
$TIMEZONE
 70
-8000
  9
$LIGHTGLYPHDISPLAY
280
1
  9
$TILEMODELIGHTSYNCH
280
1
  9
$CMATERIAL
347
20
  9
$SOLIDHIST
280
0
  9
$SHOWHIST
280
1
  9
$DWFFRAME
280
2
  9
$DGNFRAME
280
2
  9
$REALWORLDSCALE
290
1
  9
$INTERFERECOLOR
 62
256
  9
$CSHADOW
280
0
  9
$SHADOWPLANELOCATION
 40
0.0
  0
ENDSEC
  0
SECTION
  2
CLASSES
  0
CLASS
  1
ACDBDICTIONARYWDFLT
  2
AcDbDictionaryWithDefault
  3
ObjectDBX Classes
 90
0
 91
0
280
0
281
0
  0
CLASS
  1
SUN
  2
AcDbSun
  3
SCENEOE
 90
1153
 91
0
280
0
281
0
  0
CLASS
  1
VISUALSTYLE
  2
AcDbVisualStyle
  3
ObjectDBX Classes
 90
4095
 91
0
280
0
281
0
  0
CLASS
  1
MATERIAL
  2
AcDbMaterial
  3
ObjectDBX Classes
 90
1153
 91
0
280
0
281
0
  0
CLASS
  1
SCALE
  2
AcDbScale
  3
ObjectDBX Classes
 90
1153
 91
0
280
0
281
0
  0
CLASS
  1
TABLESTYLE
  2
AcDbTableStyle
  3
ObjectDBX Classes
 90
4095
 91
0
280
0
281
0
  0
CLASS
  1
MLEADERSTYLE
  2
AcDbMLeaderStyle
  3
ACDB_MLEADERSTYLE_CLASS
 90
4095
 91
0
280
0
281
0
  0
CLASS
  1
DICTIONARYVAR
  2
AcDbDictionaryVar
  3
ObjectDBX Classes
 90
0
 91
0
280
0
281
0
  0
CLASS
  1
CELLSTYLEMAP
  2
AcDbCellStyleMap
  3
ObjectDBX Classes
 90
1152
 91
0
280
0
281
0
  0
CLASS
  1
MENTALRAYRENDERSETTINGS
  2
AcDbMentalRayRenderSettings
  3
SCENEOE
 90
1024
 91
0
280
0
281
0
  0
CLASS
  1
ACDBDETAILVIEWSTYLE
  2
AcDbDetailViewStyle
  3
ObjectDBX Classes
 90
1025
 91
0
280
0
281
0
  0
CLASS
  1
ACDBSECTIONVIEWSTYLE
  2
AcDbSectionViewStyle
  3
ObjectDBX Classes
 90
1025
 91
0
280
0
281
0
  0
CLASS
  1
RASTERVARIABLES
  2
AcDbRasterVariables
  3
ISM
 90
0
 91
0
280
0
281
0
  0
CLASS
  1
ACDBPLACEHOLDER
  2
AcDbPlaceHolder
  3
ObjectDBX Classes
 90
0
 91
0
280
0
281
0
  0
CLASS
  1
LAYOUT
  2
AcDbLayout
  3
ObjectDBX Classes
 90
0
 91
0
280
0
281
0
  0
ENDSEC
  0
SECTION
  2
TABLES
  0
TABLE
  2
VPORT
  5
8
330
0
100
AcDbSymbolTable
 70
1
  0
VPORT
  5
23
330
8
100
AcDbSymbolTableRecord
100
AcDbViewportTableRecord
  2
*Active
 70
0
 10
0.0
 20
0.0
 11
1.0
 21
1.0
 12
0.0
 22
0.0
 13
0.0
 23
0.0
 14
0.5
 24
0.5
 15
0.5
 25
0.5
 16
0.0
 26
0.0
 36
1.0
 17
0.0
 27
0.0
 37
0.0
 40
1000.0
 41
1.34
 42
50.0
 43
0.0
 44
0.0
 50
0.0
 51
0.0
 71
0
 72
1000
 73
1
 74
3
 75
0
 76
0
 77
0
 78
0
281
0
 65
0
146
0.0
  0
ENDTAB
  0
TABLE
  2
LTYPE
  5
2
330
0
100
AcDbSymbolTable
 70
3
  0
LTYPE
  5
24
330
2
100
AcDbSymbolTableRecord
100
AcDbLinetypeTableRecord
  2
ByBlock
 70
0
  3

 72
65
 73
0
 40
0.0
  0
LTYPE
  5
25
330
2
100
AcDbSymbolTableRecord
100
AcDbLinetypeTableRecord
  2
ByLayer
 70
0
  3

 72
65
 73
0
 40
0.0
  0
LTYPE
  5
26
330
2
100
AcDbSymbolTableRecord
100
AcDbLinetypeTableRecord
  2
Continuous
 70
0
  3

 72
65
 73
0
 40
0.0
  0
ENDTAB
  0
TABLE
  2
LAYER
  5
1
330
0
100
AcDbSymbolTable
 70
7
  0
LAYER
  5
27
330
1
100
AcDbSymbolTableRecord
100
AcDbLayerTableRecord
  2
0
 70
0
 62
7
  6
Continuous
370
-3
390
13
347
21
  0
LAYER
  5
28
330
1
100
AcDbSymbolTableRecord
100
AcDbLayerTableRecord
  2
Defpoints
 70
0
 62
7
  6
Continuous
290
0
370
-3
390
13
347
21
  0
LAYER
  5
2F
330
1
100
AcDbSymbolTableRecord
100
AcDbLayerTableRecord
  2
CUT_OUTER
 70
0
 62
1
  6
Continuous
370
-3
390
13
347
21
  0
LAYER
  5
30
330
1
100
AcDbSymbolTableRecord
100
AcDbLayerTableRecord
  2
CUT_INNER
 70
0
 62
1
  6
Continuous
370
-3
390
13
347
21
  0
LAYER
  5
32
330
1
100
AcDbSymbolTableRecord
100
AcDbLayerTableRecord
  2
REFERENCE
 70
0
 62
8
  6
Continuous
290
0
370
-3
390
13
347
21
  0
LAYER
  5
79
330
1
100
AcDbSymbolTableRecord
100
AcDbLayerTableRecord
  2
ENGRAVE_LINES
 70
0
 62
4
  6
Continuous
370
-3
390
13
347
21
  0
LAYER
  5
7A
330
1
100
AcDbSymbolTableRecord
100
AcDbLayerTableRecord
  2
ENGRAVE_FILL
 70
0
 62
5
  6
Continuous
370
-3
390
13
347
21
  0
ENDTAB
  0
TABLE
  2
STYLE
  5
5
330
0
100
AcDbSymbolTable
 70
1
  0
STYLE
  5
29
330
5
100
AcDbSymbolTableRecord
100
AcDbTextStyleTableRecord
  2
Standard
 70
0
 40
0.0
 41
1.0
 50
0.0
 71
0
 42
2.5
  3
txt
  4

  0
ENDTAB
  0
TABLE
  2
VIEW
  5
7
330
0
100
AcDbSymbolTable
 70
0
  0
ENDTAB
  0
TABLE
  2
UCS
  5
6
330
0
100
AcDbSymbolTable
 70
0
  0
ENDTAB
  0
TABLE
  2
APPID
  5
3
330
0
100
AcDbSymbolTable
 70
3
  0
APPID
  5
2A
330
3
100
AcDbSymbolTableRecord
100
AcDbRegAppTableRecord
  2
ACAD
 70
0
  0
APPID
  5
76
330
3
100
AcDbSymbolTableRecord
100
AcDbRegAppTableRecord
  2
HATCHBACKGROUNDCOLOR
 70
0
  0
APPID
  5
77
330
3
100
AcDbSymbolTableRecord
100
AcDbRegAppTableRecord
  2
EZDXF
 70
0
  0
ENDTAB
  0
TABLE
  2
DIMSTYLE
  5
4
330
0
100
AcDbSymbolTable
 70
1
100
AcDbDimStyleTable
  0
DIMSTYLE
105
2B
330
4
100
AcDbSymbolTableRecord
100
AcDbDimStyleTableRecord
  2
Standard
 70
0
 40
1.0
 41
2.5
 42
0.625
 43
3.75
 44
1.25
 45
0.0
 46
0.0
 47
0.0
 48
0.0
 49
2.5
140
2.5
141
2.5
142
0.0
143
0.03937007874
144
1.0
145
0.0
146
1.0
147
0.625
148
0.0
 69
0
 70
0
 71
0
 72
0
 73
0
 74
0
 75
0
 76
0
 77
1
 78
8
 79
3
170
0
171
3
172
1
173
0
174
0
175
0
176
0
177
0
178
0
179
2
271
2
272
2
273
2
274
3
275
0
276
0
277
2
278
44
279
0
280
0
281
0
282
0
283
0
284
8
285
0
286
0
288
0
289
3
290
0
371
-2
372
-2
  0
ENDTAB
  0
TABLE
  2
BLOCK_RECORD
  5
9
330
0
100
AcDbSymbolTable
 70
2
  0
BLOCK_RECORD
  5
17
330
9
100
AcDbSymbolTableRecord
100
AcDbBlockTableRecord
  2
*Model_Space
340
1A
 70
0
280
1
281
0
  0
BLOCK_RECORD
  5
1B
330
9
100
AcDbSymbolTableRecord
100
AcDbBlockTableRecord
  2
*Paper_Space
340
1E
 70
0
280
1
281
0
  0
ENDTAB
  0
ENDSEC
  0
SECTION
  2
BLOCKS
  0
BLOCK
  5
18
330
17
100
AcDbEntity
  8
0
100
AcDbBlockBegin
  2
*Model_Space
 70
0
 10
0.0
 20
0.0
 30
0.0
  3
*Model_Space
  1

  0
ENDBLK
  5
19
330
17
100
AcDbEntity
  8
0
100
AcDbBlockEnd
  0
BLOCK
  5
1C
330
1B
100
AcDbEntity
  8
0
100
AcDbBlockBegin
  2
*Paper_Space
 70
0
 10
0.0
 20
0.0
 30
0.0
  3
*Paper_Space
  1

  0
ENDBLK
  5
1D
330
1B
100
AcDbEntity
  8
0
100
AcDbBlockEnd
  0
ENDSEC
  0
SECTION
  2
ENTITIES
  0
LWPOLYLINE
  5
33
330
17
100
AcDbEntity
  8
CUT_OUTER
100
AcDbPolyline
 90
132
 70
1
 10
35.4901
 20
-22.4759
 10
35.2453
 20
-22.494
 10
35.0
 20
-22.5
 10
-35.0
 20
-22.5
 10
-35.2453
 20
-22.494
 10
-35.4901
 20
-22.4759
 10
-35.7337
 20
-22.4459
 10
-35.9754
 20
-22.4039
 10
-36.2149
 20
-22.3502
 10
-36.4514
 20
-22.2847
 10
-36.6844
 20
-22.2077
 10
-36.9134
 20
-22.1194
 10
-37.1378
 20
-22.0199
 10
-37.357
 20
-21.9096
 10
-37.5705
 20
-21.7887
 10
-37.7778
 20
-21.6573
 10
-37.9785
 20
-21.516
 10
-38.172
 20
-21.3651
 10
-38.3578
 20
-21.2048
 10
-38.5355
 20
-21.0355
 10
-38.7048
 20
-20.8578
 10
-38.8651
 20
-20.672
 10
-39.016
 20
-20.4785
 10
-39.1573
 20
-20.2778
 10
-39.2887
 20
-20.0705
 10
-39.4096
 20
-19.857
 10
-39.5199
 20
-19.6378
 10
-39.6194
 20
-19.4134
 10
-39.7077
 20
-19.1844
 10
-39.7847
 20
-18.9514
 10
-39.8502
 20
-18.7149
 10
-39.9039
 20
-18.4754
 10
-39.9459
 20
-18.2337
 10
-39.9759
 20
-17.9901
 10
-39.994
 20
-17.7453
 10
-40.0
 20
-17.5
 10
-40.0
 20
17.5
 10
-39.994
 20
17.7453
 10
-39.9759
 20
17.9901
 10
-39.9459
 20
18.2337
 10
-39.9039
 20
18.4754
 10
-39.8502
 20
18.7149
 10
-39.7847
 20
18.9514
 10
-39.7077
 20
19.1844
 10
-39.6194
 20
19.4134
 10
-39.5199
 20
19.6378
 10
-39.4096
 20
19.857
 10
-39.2887
 20
20.0705
 10
-39.1573
 20
20.2778
 10
-39.016
 20
20.4785
 10
-38.8651
 20
20.672
 10
-38.7048
 20
20.8578
 10
-38.5355
 20
21.0355
 10
-38.3578
 20
21.2048
 10
-38.172
 20
21.3651
 10
-37.9785
 20
21.516
 10
-37.7778
 20
21.6573
 10
-37.5705
 20
21.7887
 10
-37.357
 20
21.9096
 10
-37.1378
 20
22.0199
 10
-36.9134
 20
22.1194
 10
-36.6844
 20
22.2077
 10
-36.4514
 20
22.2847
 10
-36.2149
 20
22.3502
 10
-35.9754
 20
22.4039
 10
-35.7337
 20
22.4459
 10
-35.4901
 20
22.4759
 10
-35.2453
 20
22.494
 10
-35.0
 20
22.5
 10
35.0
 20
22.5
 10
35.2453
 20
22.494
 10
35.4901
 20
22.4759
 10
35.7337
 20
22.4459
 10
35.9754
 20
22.4039
 10
36.2149
 20
22.3502
 10
36.4514
 20
22.2847
 10
36.6844
 20
22.2077
 10
36.9134
 20
22.1194
 10
37.1378
 20
22.0199
 10
37.357
 20
21.9096
 10
37.5705
 20
21.7887
 10
37.7778
 20
21.6573
 10
37.9785
 20
21.516
 10
38.172
 20
21.3651
 10
38.3578
 20
21.2048
 10
38.5355
 20
21.0355
 10
38.7048
 20
20.8578
 10
38.8651
 20
20.672
 10
39.016
 20
20.4785
 10
39.1573
 20
20.2778
 10
39.2887
 20
20.0705
 10
39.4096
 20
19.857
 10
39.5199
 20
19.6378
 10
39.6194
 20
19.4134
 10
39.7077
 20
19.1844
 10
39.7847
 20
18.9514
 10
39.8502
 20
18.7149
 10
39.9039
 20
18.4754
 10
39.9459
 20
18.2337
 10
39.9759
 20
17.9901
 10
39.994
 20
17.7453
 10
40.0
 20
17.5
 10
40.0
 20
-17.5
 10
39.994
 20
-17.7453
 10
39.9759
 20
-17.9901
 10
39.9459
 20
-18.2337
 10
39.9039
 20
-18.4754
 10
39.8502
 20
-18.7149
 10
39.7847
 20
-18.9514
 10
39.7077
 20
-19.1844
 10
39.6194
 20
-19.4134
 10
39.5199
 20
-19.6378
 10
39.4096
 20
-19.857
 10
39.2887
 20
-20.0705
 10
39.1573
 20
-20.2778
 10
39.016
 20
-20.4785
 10
38.8651
 20
-20.672
 10
38.7048
 20
-20.8578
 10
38.5355
 20
-21.0355
 10
38.3578
 20
-21.2048
 10
38.172
 20
-21.3651
 10
37.9785
 20
-21.516
 10
37.7778
 20
-21.6573
 10
37.5705
 20
-21.7887
 10
37.357
 20
-21.9096
 10
37.1378
 20
-22.0199
 10
36.9134
 20
-22.1194
 10
36.6844
 20
-22.2077
 10
36.4514
 20
-22.2847
 10
36.2149
 20
-22.3502
 10
35.9754
 20
-22.4039
 10
35.7337
 20
-22.4459
  0
LWPOLYLINE
  5
34
330
17
100
AcDbEntity
  8
CUT_INNER
100
AcDbPolyline
 90
4
 70
1
 10
5.5
 20
14.0
 10
5.5
 20
1.0
 10
14.5
 20
1.0
 10
14.5
 20
14.0
  0
LWPOLYLINE
  5
35
330
17
100
AcDbEntity
  8
CUT_INNER
100
AcDbPolyline
 90
128
 70
1
 10
-10.5391
 20
2.02647
 10
-10.2699
 20
2.00662
 10
-10.0
 20
2.0
 10
-9.73012
 20
2.00662
 10
-9.46089
 20
2.02647
 10
-9.19298
 20
2.05952
 10
-8.927
 20
2.10567
 10
-8.6636
 20
2.16483
 10
-8.40343
 20
2.23682
 10
-8.14709
 20
2.3215
 10
-7.89523
 20
2.41866
 10
-7.64844
 20
2.52805
 10
-7.4073
 20
2.64943
 10
-7.17242
 20
2.78249
 10
-6.94435
 20
2.92691
 10
-6.72365
 20
3.08235
 10
-6.51083
 20
3.24843
 10
-6.30641
 20
3.42476
 10
-6.1109
 20
3.6109
 10
-5.92476
 20
3.80641
 10
-5.74843
 20
4.01083
 10
-5.58235
 20
4.22365
 10
-5.42691
 20
4.44435
 10
-5.28249
 20
4.67242
 10
-5.14943
 20
4.9073
 10
-5.02805
 20
5.14844
 10
-4.91866
 20
5.39523
 10
-4.8215
 20
5.64709
 10
-4.73682
 20
5.90343
 10
-4.66483
 20
6.1636
 10
-4.60567
 20
6.427
 10
-4.55952
 20
6.69298
 10
-4.52647
 20
6.96089
 10
-4.50662
 20
7.23012
 10
-4.5
 20
7.5
 10
-4.50662
 20
7.76987
 10
-4.52647
 20
8.03909
 10
-4.55952
 20
8.30701
 10
-4.60567
 20
8.57298
 10
-4.66483
 20
8.83638
 10
-4.73682
 20
9.09656
 10
-4.8215
 20
9.35289
 10
-4.91866
 20
9.60475
 10
-5.02805
 20
9.85155
 10
-5.14943
 20
10.0927
 10
-5.28249
 20
10.3276
 10
-5.42691
 20
10.5556
 10
-5.58235
 20
10.7763
 10
-5.74843
 20
10.9892
 10
-5.92476
 20
11.1936
 10
-6.1109
 20
11.3891
 10
-6.30641
 20
11.5752
 10
-6.51083
 20
11.7516
 10
-6.72365
 20
11.9176
 10
-6.94435
 20
12.0731
 10
-7.17242
 20
12.2175
 10
-7.4073
 20
12.3506
 10
-7.64844
 20
12.4719
 10
-7.89523
 20
12.5813
 10
-8.14709
 20
12.6785
 10
-8.40343
 20
12.7632
 10
-8.6636
 20
12.8352
 10
-8.927
 20
12.8943
 10
-9.19298
 20
12.9405
 10
-9.46089
 20
12.9735
 10
-9.73012
 20
12.9934
 10
-10.0
 20
13.0
 10
-10.2699
 20
12.9934
 10
-10.5391
 20
12.9735
 10
-10.807
 20
12.9405
 10
-11.073
 20
12.8943
 10
-11.3364
 20
12.8352
 10
-11.5966
 20
12.7632
 10
-11.8529
 20
12.6785
 10
-12.1048
 20
12.5813
 10
-12.3515
 20
12.4719
 10
-12.5927
 20
12.3506
 10
-12.8276
 20
12.2175
 10
-13.0556
 20
12.0731
 10
-13.2763
 20
11.9176
 10
-13.4892
 20
11.7516
 10
-13.6936
 20
11.5752
 10
-13.8891
 20
11.3891
 10
-14.0752
 20
11.1936
 10
-14.2516
 20
10.9892
 10
-14.4176
 20
10.7763
 10
-14.5731
 20
10.5556
 10
-14.7175
 20
10.3276
 10
-14.8506
 20
10.0927
 10
-14.9719
 20
9.85155
 10
-15.0813
 20
9.60475
 10
-15.1785
 20
9.35289
 10
-15.2632
 20
9.09656
 10
-15.3352
 20
8.83638
 10
-15.3943
 20
8.57298
 10
-15.4405
 20
8.30701
 10
-15.4735
 20
8.03909
 10
-15.4934
 20
7.76987
 10
-15.5
 20
7.5
 10
-15.4934
 20
7.23012
 10
-15.4735
 20
6.96089
 10
-15.4405
 20
6.69298
 10
-15.3943
 20
6.427
 10
-15.3352
 20
6.1636
 10
-15.2632
 20
5.90343
 10
-15.1785
 20
5.64709
 10
-15.0813
 20
5.39523
 10
-14.9719
 20
5.14844
 10
-14.8506
 20
4.9073
 10
-14.7175
 20
4.67242
 10
-14.5731
 20
4.44435
 10
-14.4176
 20
4.22365
 10
-14.2516
 20
4.01083
 10
-14.0752
 20
3.80641
 10
-13.8891
 20
3.6109
 10
-13.6936
 20
3.42476
 10
-13.4892
 20
3.24843
 10
-13.2763
 20
3.08235
 10
-13.0556
 20
2.92691
 10
-12.8276
 20
2.78249
 10
-12.5927
 20
2.64943
 10
-12.3515
 20
2.52805
 10
-12.1048
 20
2.41866
 10
-11.8529
 20
2.3215
 10
-11.5966
 20
2.23682
 10
-11.3364
 20
2.16483
 10
-11.073
 20
2.10567
 10
-10.807
 20
2.05952
  0
LWPOLYLINE
  5
36
330
17
100
AcDbEntity
  8
ENGRAVE_LINES
100
AcDbPolyline
 90
18
 70
1
 10
26.155686187668426
 20
5.1789253639837645
 10
26.184884289062357
 20
5.198434911602991
 10
26.219325797975216
 20
5.205285753676975
 10
26.253767306888076
 20
5.198434911602991
 10
26.282965408282006
 20
5.1789253639837645
 10
26.302474955901232
 20
5.149727262589833
 10
26.309325797975216
 20
5.115285753676975
 10
26.302474955901232
 20
5.080844244764117
 10
25.814553579635742
 20
3.902897840812227
 10
25.795044032016516
 20
3.8736997394182957
 10
25.765845930622586
 20
3.854190191799069
 10
25.731404421709726
 20
3.847339349725085
 10
25.696962912796867
 20
3.854190191799069
 10
25.667764811402936
 20
3.8736997394182957
 10
25.64825526378371
 20
3.902897840812227
 10
25.641404421709726
 20
3.937339349725085
 10
25.64825526378371
 20
3.9717808586379433
 10
26.1361766400492
 20
5.149727262589833
  0
LWPOLYLINE
  5
37
330
17
100
AcDbEntity
  8
ENGRAVE_LINES
100
AcDbPolyline
 90
18
 70
1
 10
25.523060657466583
 20
5.640651324305459
 10
25.557502166379443
 20
5.647502166379443
 10
25.591943675292303
 20
5.640651324305459
 10
25.621141776686233
 20
5.621141776686232
 10
25.64065132430546
 20
5.591943675292301
 10
25.647502166379443
 20
5.557502166379443
 10
25.64065132430546
 20
5.523060657466585
 10
25.621141776686233
 20
5.493862556072654
 10
24.719580630673384
 20
4.5923014100598065
 10
24.690382529279454
 20
4.57279186244058
 10
24.655941020366594
 20
4.565941020366596
 10
24.621499511453734
 20
4.57279186244058
 10
24.592301410059804
 20
4.5923014100598065
 10
24.572791862440578
 20
4.621499511453738
 10
24.565941020366594
 20
4.655941020366596
 10
24.572791862440578
 20
4.690382529279454
 10
24.592301410059804
 20
4.719580630673385
 10
25.493862556072653
 20
5.621141776686232
  0
LWPOLYLINE
  5
38
330
17
100
AcDbEntity
  8
ENGRAVE_LINES
100
AcDbPolyline
 90
18
 70
1
 10
25.149727262589835
 20
6.302474955901233
 10
25.178925363983765
 20
6.282965408282006
 10
25.19843491160299
 20
6.253767306888075
 10
25.205285753676975
 20
6.219325797975217
 10
25.19843491160299
 20
6.184884289062359
 10
25.178925363983765
 20
6.155686187668428
 10
25.149727262589835
 20
6.136176640049201
 10
23.971780858637945
 20
5.648255263783712
 10
23.937339349725086
 20
5.641404421709728
 10
23.902897840812226
 20
5.648255263783712
 10
23.873699739418296
 20
5.667764811402939
 10
23.85419019179907
 20
5.69696291279687
 10
23.847339349725086
 20
5.731404421709728
 10
23.85419019179907
 20
5.765845930622586
 10
23.873699739418296
 20
5.795044032016517
 10
23.902897840812226
 20
5.814553579635744
 10
25.080844244764116
 20
6.302474955901233
 10
25.115285753676975
 20
6.309325797975217
  0
LWPOLYLINE
  5
39
330
17
100
AcDbEntity
  8
ENGRAVE_LINES
100
AcDbPolyline
 90
18
 70
1
 10
25.043149157926017
 20
7.034441508912858
 10
25.05
 20
7.0
 10
25.043149157926017
 20
6.965558491087142
 10
25.02363961030679
 20
6.936360389693211
 10
24.99444150891286
 20
6.916850842073984
 10
24.96
 20
6.91
 10
22.41
 20
6.910000000000001
 10
22.37555849108714
 20
6.916850842073985
 10
22.34636038969321
 20
6.936360389693212
 10
22.326850842073984
 20
6.965558491087143
 10
22.32
 20
7.000000000000001
 10
22.326850842073984
 20
7.034441508912859
 10
22.34636038969321
 20
7.06363961030679
 10
22.37555849108714
 20
7.083149157926017
 10
22.41
 20
7.090000000000001
 10
24.96
 20
7.09
 10
24.99444150891286
 20
7.083149157926016
 10
25.02363961030679
 20
7.063639610306789
  0
LWPOLYLINE
  5
3A
330
17
100
AcDbEntity
  8
ENGRAVE_LINES
100
AcDbPolyline
 90
48
 70
1
 10
27.0
 20
6.7
 10
26.960842142333984
 20
6.702566541587857
 10
26.922354286469243
 20
6.7102222521132795
 10
26.885194970290474
 20
6.722836140246614
 10
26.85
 20
6.740192378864668
 10
26.817371571297382
 20
6.761993997912629
 10
26.787867965644036
 20
6.787867965644036
 10
26.76199399791263
 20
6.817371571297384
 10
26.74019237886467
 20
6.85
 10
26.722836140246613
 20
6.885194970290473
 10
26.71022225211328
 20
6.922354286469243
 10
26.702566541587856
 20
6.960842142333984
 10
26.7
 20
7.0
 10
26.702566541587856
 20
7.039157857666015
 10
26.71022225211328
 20
7.077645713530756
 10
26.722836140246613
 20
7.114805029709527
 10
26.74019237886467
 20
7.15
 10
26.76199399791263
 20
7.182628428702616
 10
26.787867965644036
 20
7.212132034355964
 10
26.817371571297382
 20
7.238006002087371
 10
26.85
 20
7.259807621135332
 10
26.885194970290474
 20
7.277163859753386
 10
26.922354286469243
 20
7.2897777478867205
 10
26.960842142333984
 20
7.297433458412143
 10
27.0
 20
7.3
 10
27.039157857666016
 20
7.297433458412143
 10
27.077645713530757
 20
7.2897777478867205
 10
27.114805029709526
 20
7.2771638597533865
 10
27.15
 20
7.259807621135332
 10
27.182628428702618
 20
7.238006002087371
 10
27.212132034355964
 20
7.212132034355965
 10
27.23800600208737
 20
7.182628428702616
 10
27.25980762113533
 20
7.15
 10
27.277163859753387
 20
7.114805029709527
 10
27.28977774788672
 20
7.077645713530757
 10
27.297433458412144
 20
7.039157857666016
 10
27.3
 20
7.0
 10
27.297433458412144
 20
6.960842142333984
 10
27.28977774788672
 20
6.922354286469243
 10
27.277163859753387
 20
6.885194970290473
 10
27.25980762113533
 20
6.85
 10
27.23800600208737
 20
6.817371571297384
 10
27.212132034355964
 20
6.787867965644036
 10
27.182628428702618
 20
6.761993997912629
 10
27.15
 20
6.740192378864668
 10
27.114805029709526
 20
6.722836140246614
 10
27.077645713530757
 20
6.7102222521132795
 10
27.039157857666016
 20
6.702566541587857
  0
LWPOLYLINE
  5
3B
330
17
100
AcDbEntity
  8
ENGRAVE_LINES
100
AcDbPolyline
 90
405
 70
1
 10
-4.911494942591661
 20
13.555983575269073
 10
-5.155273184769929
 20
13.752714839890729
 10
-5.406649869517509
 20
13.939639381362555
 10
-5.66523073904138
 20
14.116464028274262
 10
-5.930610236545062
 20
14.282911449833852
 10
-6.202372142301925
 20
14.438720590831895
 10
-6.480090226451715
 20
14.583647081078947
 10
-6.763328917497115
 20
14.717463618674406
 10
-7.051643985451739
 20
14.839960326505595
 10
-7.344583238567854
 20
14.95094508141781
 10
-7.641687232551497
 20
15.05024381553923
 10
-7.942489991152304
 20
15.137700789288003
 10
-8.24651973699809
 20
15.21317883563332
 10
-8.553299631527807
 20
15.276559575227433
 10
-8.862348522862467
 20
15.32774360207115
 10
-9.173181700441342
 20
15.366650639421707
 10
-9.485311655238796
 20
15.393219665698274
 10
-9.798248844371267
 20
15.407409010187944
 10
-10.111502458893082
 20
15.409196418401798
 10
-10.424581193579169
 20
15.398579086978739
 10
-10.736994017484552
 20
15.375573668082282
 10
-11.048250944075354
 20
15.340216243283354
 10
-11.357863799720427
 20
15.292562266970206
 10
-11.665346989340408
 20
15.232686479374024
 10
-11.970218258012324
 20
15.160682789346776
 10
-12.271999447335364
 20
15.076664127075109
 10
-12.570217245372055
 20
14.980762266961243
 10
-12.864403928987988
 20
14.87312762094874
 10
-13.15409809742601
 20
14.753929002617316
 10
-13.438845395965036
 20
14.623353362416404
 10
-13.718199228527034
 20
14.481605494453262
 10
-13.991721458115931
 20
14.328907715295019
 10
-14.258983093989437
 20
14.165499515288493
 10
-14.51956496448553
 20
13.991637182944986
 10
-14.773058374448958
 20
13.807593402978801
 10
-15.019065746226683
 20
13.6136568286299
 10
-15.257201243226106
 20
13.410131628942025
 10
-15.48709137505931
 20
13.197337011705448
 10
-15.708375583323198
 20
12.975606722813335
 10
-15.920706807097265
 20
12.745288522816562
 10
-16.123752027272058
 20
12.506743641497971
 10
-16.31719278885459
 20
12.260346211321458
 10
-16.50072570043096
 20
12.006482680645231
 10
-16.674062910004444
 20
11.745551207617456
 10
-16.836932556460322
 20
11.477961035708109
 10
-16.989079195951746
 20
11.204131851853214
 10
-17.13026420253619
 20
10.92449312822058
 10
-17.26026614243527
 20
10.639483448627672
 10
-17.378881121330025
 20
10.349549820669637
 10
-17.485923104147908
 20
10.055146974634452
 10
-17.581224206838808
 20
9.756736650307328
 10
-17.664634959683823
 20
9.454786872779644
 10
-17.73602454172242
 20
9.149771218401952
 10
-17.795280985931576
 20
8.842168072028478
 10
-17.84231135483401
 20
8.532459876721882
 10
-17.877041886260923
 20
8.22113237709176
 10
-17.899418109040152
 20
7.908673857455475
 10
-17.909404928428444
 20
7.59557437601602
 10
-17.906986681153864
 20
7.282324996257175
 10
-17.892167159981973
 20
6.969417016762632
 10
-17.864969607767296
 20
6.657341200665557
 10
-17.825436680999314
 20
6.346587005938694
 10
-17.773630382900336
 20
6.03764181773144
 10
-17.709631966179902
 20
5.730990183957137
 10
-17.633541805598586
 20
5.4271130553313665
 10
-17.545479240540665
 20
5.126487031051051
 10
-17.44558238784299
 20
4.829583611299302
 10
-17.334007925173317
 20
4.536868457747107
 10
-17.21093084529777
 20
4.248800663211774
 10
-17.076544181623333
 20
3.9658320316187696
 10
-16.93105870544529
 20
3.6884063693948117
 10
-16.774702595374624
 20
3.416958789404234
 10
-16.607721079464067
 20
3.151915028520577
 10
-16.430376050593665
 20
2.8936907799030243
 10
-16.2429456557195
 20
2.642691041025693
 10
-16.04572385962965
 20
2.39930947848198
 10
-15.839019983891221
 20
2.163927810559719
 10
-15.623158221712345
 20
1.9369152085566888
 10
-15.398477129479236
 20
1.7186277177742102
 10
-15.16532909576634
 20
1.509407699097801
 10
-14.924079788651907
 20
1.3095832920401216
 10
-14.675107582206325
 20
1.1194679000888994
 10
-14.418802963052297
 20
0.9393596991666079
 10
-14.15556791792783
 20
0.7695411699730322
 10
-13.885815303212416
 20
0.6102786549440747
 10
-13.609968197405422
 20
0.4618219405217902
 10
-13.328459237572122
 20
0.32440386539070737
 10
-13.041729940798135
 20
0.19823995529494184
 10
-12.750230011716498
 20
0.08352808500882229
 10
-12.45441663719332
 20
-0.019551832008850554
 10
-12.154753769278642
 20
-0.11083812578999085
 10
-11.85171139754642
 20
-0.19018762341958104
 10
-11.545764811965656
 20
-0.2574758735872198
 10
-11.237393857458137
 20
-0.3125973417759018
 10
-10.927082181312405
 20
-0.355465575781747
 10
-10.615316474634009
 20
-0.386013341305162
 10
-10.3025857090219
 20
-0.4041927274007393
 10
-9.989380369668062
 20
-0.4099752216205226
 10
-9.676191686083326
 20
-0.4033517547327641
 10
-9.363510861655685
 20
-0.3843327149460615
 10
-9.051828303249694
 20
-0.352947931616551
 10
-8.741632852054966
 20
-0.30924662846370227
 10
-8.433411016890512
 20
-0.2532973463681247
 10
-8.12764621116693
 20
-0.1851878358724237
 10
-7.82481799470347
 20
-0.105024919553728
 10
-7.525401321589198
 20
-0.012934324483779175
 10
-7.229865795267564
 20
0.090939514960725
 10
-6.938674932012953
 20
0.20643368362821252
 10
-6.652285433954444
 20
0.33336704110741855
 10
-6.371146472786616
 20
0.4715405058270418
 10
-6.095698985291229
 20
0.6207373672941451
 10
-5.826374981774438
 20
0.7807236259816853
 10
-5.563596868504177
 20
0.9512483603320943
 10
-5.307776785210588
 20
1.1320441203012137
 10
-5.0593159586883
 20
1.3228273468254985
 10
-4.818604073514615
 20
1.5232988165544294
 10
-4.5860186608703195
 20
1.733144111150807
 10
-4.36192450642196
 20
1.9520341104226524
 10
-4.146673078193968
 20
2.179625508513546
 10
-3.93942940404332
 20
2.4169038578734114
 10
-3.9116129106950877
 20
2.4383373426839805
 10
-3.877711582289566
 20
2.4474943894599943
 10
-3.842886588760188
 20
2.442980920838641
 10
-3.8124397196824495
 20
2.425484071502826
 10
-3.7910062348718805
 20
2.3976675781545933
 10
-3.7818491880958667
 20
2.3637662497490717
 10
-3.78636265671722
 20
2.328941256219694
 10
-3.803859506053035
 20
2.298494387141955
 10
-4.012275751488587
 20
2.059873532250237
 10
-4.014673131299587
 20
2.057236002164341
 10
-4.232374176579778
 20
1.827054554965357
 10
-4.234874109890315
 20
1.824514017944357
 10
-4.461518513907544
 20
1.6031329937386085
 10
-4.464117079836127
 20
1.6006934343466268
 10
-4.699349374768715
 20
1.3884600459001923
 10
-4.702042497739008
 20
1.3861252903285994
 10
-4.945493746564983
 20
1.1833724033065407
 10
-4.948277202697908
 20
1.181146113372979
 10
-5.199565577833764
 20
0.9881917242746927
 10
-5.202435001572217
 20
0.9860773916799013
 10
-5.461166383729149
 20
0.8032241290951982
 10
-5.464117274684912
 20
0.8012250699466498
 10
-5.7298858710033524
 20
0.62875971991473
 10
-5.7329136010154755
 20
0.6268790695256656
 10
-6.005302581508332
 20
0.46507212574150864
 10
-6.008402401901917
 20
0.4633128337135298
 10
-6.286984553208409
 20
0.31241807328708615
 10
-6.290151602242407
 20
0.3107828988840171
 10
-6.574489997667122
 20
0.17103698431759762
 10
-6.577719308159456
 20
0.16952849213786958
 10
-6.867367992945751
 20
0.04115060014600126
 10
-6.870654500063821
 20
0.0397711561003523
 10
-7.165159190826784
 20
-0.0770373661457703
 10
-7.168497740031119
 20
-0.07828559854497745
 10
-7.467396537253073
 20
-0.18334154920926088
 10
-7.4707818923816856
 20
-0.18445661224127963
 10
-7.773606004852862
 20
-0.2775952221554865
 10
-7.777032856333613
 20
-0.2785753669616641
 10
-8.083307336401658
 20
-0.35965055804845425
 10
-8.08677030957976
 20
-0.3604942473751328
 10
-8.396014798054967
 20
-0.4293788617560982
 10
-8.399508461622561
 20
-0.4300847723656338
 10
-8.71123794117059
 20
-0.4866707717950203
 10
-8.714756815685186
 20
-0.4872377965411425
 10
-9.028482371525529
 20
-0.5314364318524258
 10
-9.032020938003928
 20
-0.5318636814166791
 10
-9.347250524721103
 20
-0.5636056317162614
 10
-9.350803233295334
 20
-0.5638924360028075
 10
-9.667042446560258
 20
-0.5831279173925303
 10
-9.67060372518197
 20
-0.5832738265791224
 10
-9.987356577172845
 20
-0.5899726702370447
 10
-9.990920840352473
 20
-0.5899774554805268
 10
-10.307690537659425
 20
-0.584129154977544
 10
-10.311252195226436
 20
-0.583992808772767
 10
-10.627541918019451
 20
-0.5656065365508354
 10
-10.631095383889942
 20
-0.5653292727424278
 10
-10.946409065128417
 20
-0.5344338657285518
 10
-10.9499487660663
 20
-0.5340161191755274
 10
-11.263791869527715
 20
-0.49066003355409465
 10
-11.267312253885738
 20
-0.49010245944782194
 10
-11.57919254979361
 20
-0.4343536946621832
 10
-11.582688096220544
 20
-0.4336571674987867
 10
-11.892116433254827
 20
-0.3656031596013102
 10
-11.895581659355114
 20
-0.3647687718101158
 10
-12.202072731834388
 20
-0.2845162563279755
 10
-12.205502202766699
 20
-0.2835453165581505
 10
-12.508575311798946
 20
-0.1912201610899107
 10
-12.511963648800164
 20
-0.1901141921579853
 10
-12.811143456208201
 20
-0.0858611989635628
 10
-12.81448534502943
 20
-0.08462193546505371
 10
-13.109302618868673
 20
0.0313953856413378
 10
-13.112592818110093
 20
0.03276600005245793
 10
-13.402585168609326
 20
0.16036568815019675
 10
-13.405818517940757
 20
0.16186550380991466
 10
-13.69053112271166
 20
0.3008474322584534
 10
-13.693702550966009
 20
0.302474096864237
 10
-13.972688868344086
 20
0.45262028718062663
 10
-13.975793401470934
 20
0.45437124948076313
 10
-14.248615870868964
 20
0.6154462132158897
 10
-14.251648639735835
 20
0.6173187270108537
 10
-14.51787936791144
 20
0.7890698350881941
 10
-14.520835615940527
 20
0.791060963537773
 10
-14.780057048101588
 20
0.9732188424754566
 10
-14.782932138729935
 20
0.9753254627048736
 10
-15.034737713425178
 20
1.1676044170995372
 10
-15.03752713737665
 20
1.1698232250973508
 10
-15.281521924144371
 20
1.3719216857072223
 10
-15.284221306501967
 20
1.3742492015073189
 10
-15.520022625276779
 20
1.5858501982317408
 10
-15.522627732344237
 20
1.588282771371296
 10
-15.74986575365033
 20
1.809054430384858
 10
-15.752372499592223
 20
1.8115882456296997
 10
-15.970690824581878
 20
2.0411843098913045
 10
-15.973095277831828
 20
2.0438153932197083
 10
-16.182151497259376
 20
2.281875765540193
 10
-16.184449886686288
 20
2.2845999903757104
 10
-16.383916117940874
 20
2.5307512981922686
 10
-16.38610483876357
 20
2.5335643918758337
 10
-16.57566824011839
 20
2.7874205728474553
 10
-16.577743859559305
 20
2.7903181233385914
 10
-16.757107120830874
 20
3.0514810308441107
 10
-16.759066383500038
 20
3.054458493640758
 10
-16.927948192347777
 20
3.3225185212297754
 10
-16.929788025348525
 20
3.3255712264958572
 10
-17.0879235084835
 20
3.6001079503132285
 10
-17.08964102623199
 20
3.6032311102027985
 10
-17.236782164842694
 20
3.8838139483790703
 10
-17.238374673593654
 20
3.8870026645455393
 10
-17.374290692337343
 20
4.173191552519151
 10
-17.375755694408912
 20
4.176440823797838
 10
-17.500233423358345
 20
4.4677869045099365
 10
-17.50156862104943
 20
4.4710916347618515
 10
-17.614412830027415
 20
4.767137962641191
 10
-17.61561612922139
 20
4.770492968745803
 10
-17.716649833998705
 20
5.070775226379645
 10
-17.717719347447808
 20
5.074175246364056
 10
-17.80678408732427
 20
5.378222472731025
 10
-17.807718137609562
 20
5.381662174022814
 10
-17.884674223942923
 20
5.6889975031455196
 10
-17.88547134610514
 20
5.692471490936331
 10
-17.950198081397957
 20
6.002612899795319
 10
-17.95085702523513
 20
6.006115725502039
 10
-18.003252892436066
 20
6.31857679003804
 10
-18.003772624464354
 20
6.3221029598483245
 10
-18.04375544618695
 20
6.63639361786699
 10
-18.04413515126153
 20
6.63993760135574
 10
-18.071642218670753
 20
6.955564921138508
 10
-18.071881301264302
 20
6.959121159941747
 10
-18.08686947242875
 20
7.275590113357171
 10
-18.08696755756546
 20
7.2791530298897555
 10
-18.089413325120898
 20
7.595967268792889
 10
-18.089370258964582
 20
7.599531274996359
 10
-18.0792697869828
 20
7.916193909698421
 10
-18.07908563707818
 20
7.91975341580529
 10
-18.056454767083203
 20
8.235767794392688
 10
-18.056129822249964
 20
8.239317217693388
 10
-18.021004048372323
 20
8.554187704973799
 10
-18.020538818252135
 20
8.557721478572583
 10
-17.972973231560054
 20
8.870954233426458
 10
-17.972368445817246
 20
8.874466814972486
 10
-17.912437647912128
 20
9.18557056489068
 10
-17.91169425508929
 20
9.189056445270607
 10
-17.83949224110097
 20
9.497543256863484
 10
-17.838611407131275
 20
9.500996968841925
 10
-17.754251418296583
 20
9.806383013111338
 10
-17.75323452467512
 20
9.809799139905651
 10
-17.65684887073097
 20
10.111605451079662
 10
-17.655697512348034
 20
10.114978634855598
 10
-17.547437364017544
 20
10.412731861595745
 10
-17.546153346657213
 20
10.416056811870648
 10
-17.42618849855441
 20
10.70928995967352
 10
-17.42477383606237
 20
10.712561461613884
 10
-17.29329244038725
 20
11.000814625242713
 10
-17.291749351512276
 20
11.004027547843108
 10
-17.14895762295393
 20
11.286848632640599
 10
-17.147288527868024
 20
11.289997936771101
 10
-16.993410420178698
 20
11.56694336772214
 10
-16.9916179366813
 20
11.570024114031682
 10
-16.82689479142854
 20
11.840659531463965
 10
-16.824981730840793
 20
11.843666888127185
 10
-16.649671898888695
 20
12.10756782895847
 10
-16.647641261644175
 20
12.110497079253914
 10
-16.46201969795734
 20
12.367249642717574
 10
-16.4598746688962
 20
12.37009619242539
 10
-16.264232501301866
 20
12.619297689230084
 10
-16.26197644467574
 20
12.62205707383755
 10
-16.05662051726054
 20
12.863316657742836
 10
-16.054256971456084
 20
12.865984549446493
 10
-15.83950936331349
 20
13.098923830263919
 10
-15.83704203530279
 20
13.101496044757273
 10
-15.61323955538603
 20
13.325749681815442
 10
-15.610672314912604
 20
13.328222184851597
 10
-15.378165973785414
 20
13.543438459994434
 10
-15.375502847294928
 20
13.545807373713393
 10
-15.134657306608515
 20
13.75164874293293
 10
-15.131902470933733
 20
13.753910351943603
 10
-14.883095471493458
 20
13.950053974782163
 10
-14.880253247303319
 20
13.952204731989562
 10
-14.623875016622153
 20
14.138342977880894
 10
-14.620949861645254
 20
14.140379510049392
 10
-14.357402501913093
 20
14.316220440804758
 10
-14.354399003946218
 20
14.318139553848635
 10
-14.084095861375054
 20
14.483407381531043
 10
-14.081018731087696
 20
14.485206065524086
 10
-13.804383747621724
 20
14.639641584992539
 10
-13.8012378111679
 20
14.641317018888783
 10
-13.518704859575335
 20
14.784678014334197
 10
-13.515495051024262
 20
14.786227570392446
 10
-13.227507254413686
 20
14.91828919522757
 10
-13.22423860801123
 20
14.919710443132729
 10
-12.931247644839795
 20
15.04026557264028
 10
-12.927925287112782
 20
15.041556283315046
 10
-12.63039068277622
 20
15.150415839500958
 10
-12.627019824492013
 20
15.151573988601891
 10
-12.325408230607573
 20
15.2485672367442
 10
-12.321994158601541
 20
15.249591007836699
 10
-12.016778621114181
 20
15.33456582426492
 10
-12.013326689997857
 20
15.3354536116721
 10
-11.704985907257623
 20
15.408276722357153
 10
-11.701501531020552
 20
15.409027133678187
 10
-11.390519102994748
 20
15.469584323258633
 10
-11.387007746513227
 20
15.470196181552584
 10
-11.073871416310912
 20
15.518392472469372
 10
-11.070338586776899
 20
15.518864818101097
 10
-10.755539475675327
 20
15.554624619559831
 10
-10.751990713959
 20
15.554956711705069
 10
-10.436022551131726
 20
15.578223938232194
 10
-10.432463423091207
 20
15.578415256039474
 10
-10.115821771246003
 20
15.589153415446424
 10
-10.112257858997896
 20
15.58920365885396
 10
-9.795439337138966
 20
15.587395909471288
 10
-9.791876230303405
 20
15.587304999677604
 10
-9.475377734836895
 20
15.572954176769382
 10
-9.471821021770811
 20
15.572722256356888
 10
-9.156138947175254
 20
15.545850867673884
 10
-9.152594206207615
 20
15.545478300385266
 10
-8.838223666491597
 20
15.506128490863913
 10
-8.83469645717441
 20
15.50561586103163
 10
-8.522130509342507
 20
15.453849346694144
 10
-8.51862636373123
 20
15.453197458323976
 10
-8.208355234476162
 20
15.38909542948329
 10
-8.204879648453264
 20
15.388305304993324
 10
-7.897389965287059
 20
15.311968298914655
 10
-7.893948389942315
 20
15.311041177531745
 10
-7.589722417972443
 20
15.222588920750507
 10
-7.586320251053466
 20
15.22152625656667
 10
-7.28583513660092
 20
15.121097477110036
 10
-7.282477714047366
 20
15.11990093680186
 10
-6.986204736293039
 20
15.007653146608504
 10
-6.982897323867754
 20
15.006324606823151
 10
-6.69130115570078
 20
14.882433854702398
 10
-6.688048940731001
 20
14.88097539911427
 10
-6.401586919958395
 20
14.745635994632119
 10
-6.398395003199977
 20
14.744049910674843
 10
-6.117516415260558
 20
14.597474119399932
 10
-6.1143898028979775
 20
14.595762894678757
 10
-5.839535176205589
 20
14.438180605266226
 10
-5.836478772000273
 20
14.43634692365648
 10
-5.568079187021467
 20
14.268005287291874
 10
-5.565097784620756
 20
14.266052024729587
 10
-5.3035741977705975
 20
14.08721506749833
 10
-5.3006724731894215
 20
14.08514528746963
 10
-5.046435056605782
 20
13.896093496259958
 10
-5.043617560892823
 20
13.893910444996324
 10
-4.797065059124687
 20
13.694940327585238
 10
-4.794336211224537
 20
13.692647428972117
 10
-4.555855315843269
 20
13.484071048984218
 10
-4.553219395665786
 20
13.481671899191035
 10
-4.3231841387802215
 20
13.263816386659677
 10
-4.320645280487938
 20
13.261314748499611
 10
-4.099416448114511
 20
13.034521786797981
 10
-4.096978633638639
 20
13.031921583826398
 10
-3.8849031998465966
 20
12.796546873773204
 10
-3.882570252641793
 20
12.79385218413397
 10
-3.6799808353609977
 20
12.550264886114274
 10
-3.6777564144086714
 20
12.547479936143619
 10
-3.484970753753495
 20
12.296062091119733
 10
-3.4828583478230852
 20
12.29319124871769
 10
-3.3001788077505774
 20
12.034337179038257
 10
-3.2981817299277876
 20
12.031384946818068
 10
-3.125894824011731
 20
11.76550063776509
 10
-3.124016206502301
 20
11.762471645991337
 10
-2.9623921485669196
 20
11.489974109035114
 10
-2.960634937784095
 20
11.486873108361634
 10
-2.8099272181021884
 20
11.2081897271223
 10
-2.8082941700455795
 20
11.205021581141287
 10
-2.6687391577658
 20
10.920589441082717
 10
-2.6597187286947093
 20
10.88665150607349
 10
-2.6643724243581737
 20
10.851844973784434
 10
-2.6819917617772866
 20
10.82146882323456
 10
-2.70989435654968
 20
10.800147547984595
 10
-2.7438322915589075
 20
10.791127118913504
 10
-2.7786388238479622
 20
10.795780814576968
 10
-2.809014974397836
 20
10.813400151996081
 10
-2.830336249647801
 20
10.841302746768475
 10
-2.9691061110401242
 20
11.124134642281616
 10
-3.118118036383719
 20
11.39968222064977
 10
-3.2779234670917687
 20
11.669113559130224
 10
-3.448271765216297
 20
11.932006083111466
 10
-3.6288957574347576
 20
12.187947473422264
 10
-3.819512154083161
 20
12.436536313010697
 10
-4.019821993466072
 20
12.67738271652453
 10
-4.229511110746402
 20
12.910108941805127
 10
-4.448250630679805
 20
13.134349982336191
 10
-4.675697483420822
 20
13.34975413971798
  0
LWPOLYLINE
  5
3C
330
17
100
AcDbEntity
  8
ENGRAVE_LINES
100
AcDbPolyline
 90
271
 70
1
 10
-3.2952615959911573
 20
5.9131000267778004
 10
-3.296227510305542
 20
5.909024513821967
 10
-3.3763530978677734
 20
5.602878415314975
 10
-3.3775075807171353
 20
5.598852255150944
 10
-3.471789944000265
 20
5.296765546759129
 10
-3.473130495031829
 20
5.292797459153283
 10
-3.581365439431501
 20
4.995424393419257
 10
-3.5828891553102427
 20
4.991522972365747
 10
-3.7048422680383233
 20
4.699507593131739
 10
-3.7065458487349465
 20
4.69568128823981
 10
-3.841953006505431
 20
4.409656035792106
 10
-3.8438327624434945
 20
4.405913133986124
 10
-3.9924007035047144
 20
4.126497475330274
 10
-3.9944525635514347
 20
4.122846082902094
 10
-4.155859522825721
 20
3.8506451701352953
 10
-4.158079043109139
 20
3.8470931951878335
 10
-4.331975449064334
 20
3.582696554874233
 10
-4.334357822597753
 20
3.579251690194283
 10
-4.5203670543412935
 20
3.3232319465817417
 10
-4.52290712143414
 20
3.319901652979108
 10
-4.720626324390052
 20
3.0728132878225747
 10
-4.723318583822616
 20
3.0696047779716205
 10
-4.932319542224834
 20
2.831982929649106
 10
-4.93515816316269
 20
2.8289031524677073
 10
-5.154988227475027
 20
2.601262456989753
 10
-5.1579670620973195
 20
2.598318082589488
 10
-5.388150129351581
 20
2.3811515590121424
 10
-5.391262726165836
 20
2.378348964252319
 10
-5.631300271094839
 20
2.172126946907647
 10
-5.634539888909461
 20
2.16947220158444
 10
-5.883912043641747
 20
1.9746413214410965
 10
-5.887271666165938
 20
1.9721401751417262
 10
-6.145438346143801
 20
1.7891223925017419
 10
-6.148910697183283
 20
1.7867802621521438
 10
-6.415312770865699
 20
1.6159719527788523
 10
-6.418890330081336
 20
1.613793910911826
 10
-6.692950829898329
 20
1.4555650075682418
 10
-6.696625849093498
 20
1.4535557713374712
 10
-6.977751221029442
 20
1.3082489625942941
 10
-6.98151574093091
 20
1.3064128835580435
 10
-7.269097130030372
 20
1.1743428716065152
 10
-7.272942997526303
 20
1.1726839263031252
 10
-7.566357566538264
 20
1.0541367453801735
 10
-7.57027645233605
 20
1.0526585267157618
 10
-7.8688887306407125
 20
0.9478909236175329
 10
-7.872872147306361
 20
0.9465966330845614
 10
-8.176035407203031
 20
0.8558355111100202
 10
-8.180074727543058
 20
0.8547279518535745
 10
-8.487132384918292
 20
0.7781698793825015
 10
-8.491218860664308
 20
0.777251450129303
 10
-8.80150589700692
 20
0.7150622348989467
 10
-8.805630677762423
 20
0.7143349247622448
 10
-9.118475080445508
 20
0.6666492547646794
 10
-9.122629232853873
 20
0.6661146389362749
 10
-9.437353450564483
 20
0.6330357907142137
 10
-9.441527977656628
 20
0.6326950270529441
 10
-9.757450387821049
 20
0.6142946420257351
 10
-9.761636248500865
 20
0.6141484685498106
 10
-10.078072633527373
 20
0.6104663978540783
 10
-10.082260762152725
 20
0.6105151311426984
 10
-10.398525791294464
 20
0.621559349323658
 10
-10.402707117311346
 20
0.621802883831371
 10
-10.71811583094015
 20
0.6475494715717356
 10
-10.722281298527497
 20
0.6479872798570276
 10
-11.03615059160394
 20
0.6883804757809278
 10
-11.04029117928651
 20
0.6890116096485426
 10
-11.351941280813273
 20
0.7439639310882433
 10
-11.35604802100016
 20
0.7447870236427627
 10
-11.664803966254652
 20
0.8141794561066449
 10
-11.66886796466109
 20
0.8151927247128797
 10
-11.974061057018764
 20
0.8988749796443322
 10
-11.97807351192916
 20
0.9000762297881129
 10
-12.279042771111458
 20
0.9978670700570675
 10
-12.282994992441962
 20
0.9992537000980735
 10
-12.579088586052452
 20
1.1109413325202884
 10
-12.582972014171727
 20
1.1125103393266216
 10
-12.87354866941989
 20
1.2378528733605398
 10
-12.877354893687382
 20
1.2396008588128395
 10
-13.161785286242697
 20
1.378326830440648
 10
-13.165506063224203
 20
1.3802500087916607
 10
-13.443174180192525
 20
1.5320589684499069
 10
-13.44680145151363
 20
1.5341531745235717
 10
-13.71710592558392
 20
1.6987163378100052
 10
-13.72063183538266
 20
1.7009770360222987
 10
-13.982987247254679
 20
1.8779379957696773
 10
-13.986404159195562
 20
1.8803602899516774
 10
-14.240242305467726
 20
2.0693357881263355
 10
-14.243542819280359
 20
2.071914432128233
 10
-14.488313943051779
 20
2.2724951898816355
 10
-14.491490910558191
 20
2.2752245989347264
 10
-14.726664892079686
 20
2.486976203010304
 10
-14.7297114326757
 20
2.4898504658223573
 10
-14.954778937471136
 20
2.7123143093979056
 10
-14.957688453028211
 20
2.715327200955702
 10
-15.17216203499958
 20
2.9480214768836337
 10
-15.174928224154902
 20
2.9511664719349606
 10
-15.378343381281992
 20
3.193587216229283
 10
-15.38096025308582
 20
3.196857503415179
 10
-15.572876433434178
 20
3.4484796867252907
 10
-15.575338320324901
 20
3.4518681833319267
 10
-15.755339876183228
 20
3.712146848039265
 10
-15.757641446262047
 20
3.715646215337534
 10
-15.925338534342563
 20
3.9840176558124227
 10
-15.927474802921195
 20
3.9876203149519833
 10
-16.08250422867341
 20
4.2635032984145145
 10
-16.084470569069808
 20
4.267201446837901
 10
-16.226496573279046
 20
4.549998472178712
 10
-16.228288726837775
 20
4.553784100519931
 10
-16.357003712804843
 20
4.842882692354531
 10
-16.358617798120363
 20
4.8467476017855695
 10
-16.47374299784753
 20
5.14152163693967
 10
-16.475175519170467
 20
5.145457456927326
 10
-16.576461597110868
 20
5.445268520480197
 10
-16.577709451919027
 20
5.449266726914795
 10
-16.664937044981926
 20
5.75346549486382
 10
-16.66599753069966
 20
5.757517428520532
 10
-16.73897772334206
 20
6.065445074072416
 10
-16.739848543193453
 20
6.0695419593652105
 10
-16.798423276569114
 20
6.380531579808118
 10
-16.79910254455228
 20
6.384664543795737
 10
-16.843144958831953
 20
6.69804260486203
 10
-16.843631203803692
 20
6.702202696464789
 10
-16.87304591292529
 20
7.017290491056301
 10
-16.873338081787274
 20
7.021468700442152
 10
-16.888061380040806
 20
7.337583818558623
 10
-16.88815884002034
 20
7.341771096656419
 10
-16.88815884002034
 20
7.658228903343585
 10
-16.888061380040806
 20
7.662416181441381
 10
-16.873338081787274
 20
7.97853129955785
 10
-16.87304591292529
 20
7.9827095089436995
 10
-16.843631203803692
 20
8.297797303535216
 10
-16.843144958831953
 20
8.301957395137975
 10
-16.79910254455228
 20
8.615335456204265
 10
-16.798423276569114
 20
8.619468420191883
 10
-16.739848543193457
 20
8.930458040634786
 10
-16.738977723342064
 20
8.934554925927584
 10
-16.66599753069966
 20
9.242482571479474
 10
-16.664937044981926
 20
9.246534505136184
 10
-16.577709451919027
 20
9.550733273085209
 10
-16.576461597110868
 20
9.554731479519806
 10
-16.475175519170467
 20
9.854542543072675
 10
-16.47374299784753
 20
9.858478363060332
 10
-16.358617798120363
 20
10.153252398214436
 10
-16.357003712804843
 20
10.157117307645475
 10
-16.228288726837775
 20
10.446215899480071
 10
-16.226496573279046
 20
10.450001527821291
 10
-16.084470569069808
 20
10.732798553162098
 10
-16.08250422867341
 20
10.736496701585484
 10
-15.927474802921193
 20
11.012379685048021
 10
-15.925338534342561
 20
11.01598234418758
 10
-15.757641446262046
 20
11.28435378466247
 10
-15.755339876183227
 20
11.28785315196074
 10
-15.575338320324901
 20
11.548131816668075
 10
-15.572876433434178
 20
11.551520313274711
 10
-15.380960253085817
 20
11.803142496584824
 10
-15.378343381281988
 20
11.80641278377072
 10
-15.174928224154899
 20
12.048833528065042
 10
-15.172162034999577
 20
12.05197852311637
 10
-14.957688453028213
 20
12.284672799044296
 10
-14.954778937471138
 20
12.287685690602093
 10
-14.729711432675698
 20
12.510149534177645
 10
-14.726664892079684
 20
12.513023796989698
 10
-14.491490910558191
 20
12.724775401065274
 10
-14.488313943051779
 20
12.727504810118365
 10
-14.24354281928036
 20
12.928085567871765
 10
-14.240242305467728
 20
12.930664211873664
 10
-13.986404159195558
 20
13.119639710048324
 10
-13.982987247254675
 20
13.122062004230322
 10
-13.720631835382653
 20
13.299022963977706
 10
-13.717105925583914
 20
13.301283662189999
 10
-13.446801451513627
 20
13.46584682547643
 10
-13.443174180192521
 20
13.467941031550096
 10
-13.1655060632242
 20
13.61974999120834
 10
-13.161785286242694
 20
13.621673169559353
 10
-12.877354893687379
 20
13.760399141187161
 10
-12.873548669419886
 20
13.76214712663946
 10
-12.582972014171727
 20
13.88748966067338
 10
-12.579088586052452
 20
13.889058667479713
 10
-12.282994992441962
 20
14.000746299901927
 10
-12.279042771111458
 20
14.002132929942933
 10
-11.978073511929157
 20
14.099923770211888
 10
-11.97406105701876
 20
14.101125020355669
 10
-11.66886796466109
 20
14.18480727528712
 10
-11.664803966254652
 20
14.185820543893355
 10
-11.356048021000156
 20
14.255212976357237
 10
-11.35194128081327
 20
14.256036068911756
 10
-11.040291179286509
 20
14.310988390351458
 10
-11.036150591603938
 20
14.311619524219074
 10
-10.722281298527498
 20
14.352012720142973
 10
-10.718115830940151
 20
14.352450528428264
 10
-10.402707117311342
 20
14.378197116168629
 10
-10.39852579129446
 20
14.378440650676342
 10
-10.082260762152723
 20
14.389484868857302
 10
-10.078072633527372
 20
14.38953360214592
 10
-9.761636248500867
 20
14.38585153145019
 10
-9.75745038782105
 20
14.385705357974265
 10
-9.441527977656621
 20
14.367304972947055
 10
-9.437353450564476
 20
14.366964209285786
 10
-9.122629232853868
 20
14.333885361063725
 10
-9.118475080445501
 20
14.33335074523532
 10
-8.80563067776242
 20
14.285665075237754
 10
-8.801505897006919
 20
14.284937765101052
 10
-8.491218860664302
 20
14.222748549870694
 10
-8.487132384918286
 20
14.221830120617495
 10
-8.180074727543053
 20
14.145272048146422
 10
-8.176035407203026
 20
14.144164488889977
 10
-7.87287214730636
 20
14.053403366915438
 10
-7.8688887306407125
 20
14.052109076382466
 10
-7.570276452336045
 20
13.947341473284236
 10
-7.566357566538258
 20
13.945863254619825
 10
-7.272942997526301
 20
13.827316073696874
 10
-7.26909713003037
 20
13.825657128393484
 10
-6.98151574093091
 20
13.693587116441956
 10
-6.977751221029443
 20
13.691751037405705
 10
-6.696625849093494
 20
13.546444228662526
 10
-6.692950829898325
 20
13.544434992431755
 10
-6.418890330081335
 20
13.386206089088173
 10
-6.4153127708656985
 20
13.384028047221147
 10
-6.148910697183285
 20
13.213219737847856
 10
-6.145438346143803
 20
13.210877607498258
 10
-5.887271666165935
 20
13.027859824858272
 10
-5.883912043641744
 20
13.025358678558902
 10
-5.63453988890946
 20
12.83052779841556
 10
-5.6313002710948385
 20
12.827873053092352
 10
-5.3912627261658335
 20
12.621651035747679
 10
-5.388150129351579
 20
12.618848440987854
 10
-5.157967062097314
 20
12.401681917410505
 10
-5.154988227475021
 20
12.398737543010242
 10
-4.935158163162686
 20
12.17109684753229
 10
-4.93231954222483
 20
12.16801707035089
 10
-4.723318583822615
 20
11.930395222028379
 10
-4.72062632439005
 20
11.927186712177424
 10
-4.522907121434136
 20
11.680098347020886
 10
-4.52036705434129
 20
11.676768053418252
 10
-4.334357822597751
 20
11.420748309805713
 10
-4.331975449064331
 20
11.417303445125764
 10
-4.158079043109139
 20
11.152906804812165
 10
-4.155859522825721
 20
11.149354829864704
 10
-3.9944525635514334
 20
10.877153917097903
 10
-3.9924007035047127
 20
10.873502524669721
 10
-3.8438327624434936
 20
10.594086866013873
 10
-3.84195300650543
 20
10.590343964207893
 10
-3.7065458487349474
 20
10.30431871176019
 10
-3.704842268038324
 20
10.300492406868262
 10
-3.5828891553102427
 20
10.008477027634251
 10
-3.581365439431501
 20
10.00457560658074
 10
-3.473130495031829
 20
9.707202540846716
 10
-3.471789944000265
 20
9.703234453240869
 10
-3.3775075807171353
 20
9.401147744849057
 10
-3.3763530978677734
 20
9.397121584685026
 10
-3.29622751030554
 20
9.090975486178026
 10
-3.2952615959911555
 20
9.086899973222192
 10
-3.229466318330347
 20
8.777357528877657
 10
-3.228691064506257
 20
8.77324148978356
 10
-3.1773685946671892
 20
8.460973099607946
 10
-3.1767856803605468
 20
8.456825448799716
 10
-3.140047171384555
 20
8.142507416591139
 10
-3.1396578590579454
 20
8.138337136956839
 10
-3.117582878374649
 20
7.822650205581648
 10
-3.1173880111918817
 20
7.818466329018342
 10
-3.1100243682938484
 20
7.502094206073665
 10
-3.110390493530866
 20
7.499999999999999
 10
-3.1100243682938484
 20
7.497905793926333
 10
-3.1173880111918817
 20
7.181533670981653
 10
-3.117582878374649
 20
7.1773497944183475
 10
-3.1396578590579463
 20
6.861662863043155
 10
-3.140047171384556
 20
6.857492583408855
 10
-3.1767856803605476
 20
6.543174551200281
 10
-3.17736859466719
 20
6.5390269003920505
 10
-3.228691064506259
 20
6.226758510216435
 10
-3.2294663183303487
 20
6.222642471122337
  0
LWPOLYLINE
  5
3D
330
17
100
AcDbEntity
  8
ENGRAVE_LINES
100
AcDbPolyline
 90
135
 70
1
 10
-4.150347833747015
 20
10.787148068367813
 10
-4.309617945872465
 20
11.055745346279139
 10
-4.481212158409673
 20
11.316641671553313
 10
-4.664758836504356
 20
11.569272000845375
 10
-4.859860458923424
 20
11.813089193117106
 10
-5.0660944789973525
 20
12.04756519462251
 10
-5.283014239762282
 20
12.272192182554791
 10
-5.510149941319361
 20
12.48648366487728
 10
-5.747009658317013
 20
12.68997553395714
 10
-5.993080405351437
 20
12.882227071718907
 10
-6.247829247978781
 20
13.062821904141728
 10
-6.510704456932741
 20
13.231368903032978
 10
-6.781136703046925
 20
13.387503033124556
 10
-7.058540290295333
 20
13.530886142658192
 10
-7.342314424279395
 20
13.66120769574676
 10
-7.631844513414897
 20
13.778185444925896
 10
-7.926503500000446
 20
13.881566042439118
 10
-8.225653218284938
 20
13.971125588932722
 10
-8.528645776592292
 20
14.046670118371841
 10
-8.834824960510751
 20
14.108036018127754
 10
-9.143527654106983
 20
14.15509038332636
 10
-9.454085276087719
 20
14.187731304690573
 10
-9.765825227797741
 20
14.205888089253094
 10
-10.07807234991898
 20
14.209521413461664
 10
-10.390150384715295
 20
14.198623408345105
 10
-10.701383440655764
 20
14.173217676555769
 10
-11.011097456245853
 20
14.133359241251423
 10
-11.318621659893848
 20
14.079134426927395
 10
-11.62329002265331
 20
14.010660672456883
 10
-11.924442700693156
 20
13.928086276744526
 10
-12.221427464372487
 20
13.831590077544037
 10
-12.513601110824933
 20
13.721381064135372
 10
-12.800330856992586
 20
13.597697924700572
 10
-13.080995710093394
 20
13.460808529378257
 10
-13.354987812553247
 20
13.311009350116523
 10
-13.621713758489788
 20
13.148624818580913
 10
-13.880595878898037
 20
12.974006623507321
 10
-14.131073492752257
 20
12.787532949022836
 10
-14.372604121316368
 20
12.58960765558305
 10
-14.604664663032306
 20
12.380659405300074
 10
-14.826752526441277
 20
12.161140733556026
 10
-15.038386718684988
 20
11.931527068912159
 10
-15.239108887229078
 20
11.69231570343644
 10
-15.428484312552767
 20
11.44402471567953
 10
-15.606102849654333
 20
11.187191848632244
 10
-15.771579816333952
 20
10.92237334509387
 10
-15.92455682632981
 20
10.650142742973927
 10
-16.064702565502618
 20
10.371089633137293
 10
-16.19171350938864
 20
10.085818382481005
 10
-16.30531458056583
 20
9.794946825010634
 10
-16.40525974441034
 20
9.49910492374934
 10
-16.49133254195282
 20
9.19893340637791
 10
-16.56334655868018
 20
8.895082377561817
 10
-16.621145828268077
 20
8.588209910968793
 10
-16.66460517036918
 20
8.278980624027838
 10
-16.69363046172587
 20
7.968064238516476
 10
-16.70815884002034
 20
7.65613413009157
 10
-16.70815884002034
 20
7.343865869908434
 10
-16.69363046172587
 20
7.031935761483528
 10
-16.66460517036918
 20
6.7210193759721655
 10
-16.621145828268077
 20
6.411790089031216
 10
-16.563346558680173
 20
6.104917622438165
 10
-16.491332541952822
 20
5.801066593622103
 10
-16.40525974441034
 20
5.50089507625067
 10
-16.30531458056583
 20
5.205053174989363
 10
-16.19171350938864
 20
4.914181617518994
 10
-16.064702565502618
 20
4.628910366862707
 10
-15.924556826329798
 20
4.3498572570260485
 10
-15.77157981633396
 20
4.077626654906142
 10
-15.606102849654329
 20
3.8128081513677516
 10
-15.428484312552767
 20
3.55597528432047
 10
-15.239108887229088
 20
3.3076842965635715
 10
-15.038386718684988
 20
3.0684729310878414
 10
-14.826752526441275
 20
2.838859266443972
 10
-14.604664663032308
 20
2.619340594699928
 10
-14.372604121316373
 20
2.4103923444169553
 10
-14.131073492752238
 20
2.212467050977147
 10
-13.880595878898054
 20
2.0259933764926874
 10
-13.621713758489802
 20
1.8513751814190955
 10
-13.354987812553228
 20
1.6889906498834664
 10
-13.080995710093411
 20
1.5391914706217515
 10
-12.800330856992597
 20
1.4023020752994335
 10
-12.513601110824933
 20
1.2786189358646305
 10
-12.221427464372484
 20
1.1684099224559619
 10
-11.924442700693147
 20
1.0719137232554703
 10
-11.623290022653316
 20
0.9893393275431195
 10
-11.318621659893857
 20
0.9208655730726065
 10
-11.011097456245832
 20
0.866640758748575
 10
-10.701383440655787
 20
0.8267823234442343
 10
-10.390150384715279
 20
0.8013765916548944
 10
-10.078072349919012
 20
0.7904785865383362
 10
-9.765825227797734
 20
0.7941119107469073
 10
-9.454085276087712
 20
0.8122686953094288
 10
-9.143527654106995
 20
0.8449096166736383
 10
-8.834824960510751
 20
0.8919639818722457
 10
-8.5286457765923
 20
0.9533298816281559
 10
-8.22565321828493
 20
1.0288744110672792
 10
-7.9265035000004564
 20
1.1184339575608775
 10
-7.631844513414894
 20
1.2218145550741066
 10
-7.3423144242794
 20
1.3387923042532366
 10
-7.058540290295338
 20
1.469113857341805
 10
-6.781136703046928
 20
1.6124969668754414
 10
-6.510704456932738
 20
1.7686310969670238
 10
-6.247829247978783
 20
1.93717809585827
 10
-5.993080405351428
 20
2.1177729282811013
 10
-5.74700965831702
 20
2.3100244660428544
 10
-5.510149941319375
 20
2.5135163351227083
 10
-5.2830142397622675
 20
2.7278078174452216
 10
-5.066094478997365
 20
2.9524348053774756
 10
-4.859860458923423
 20
3.1869108068828957
 10
-4.664758836504369
 20
3.4307279991546085
 10
-4.481212158409667
 20
3.6833583284466984
 10
-4.309617945872462
 20
3.9442546537208627
 10
-4.150347833747027
 20
4.2128519316321675
 10
-4.003746765630394
 20
4.488568440287159
 10
-3.8701322467914467
 20
4.770807039123762
 10
-3.749793656525079
 20
5.058956462185004
 10
-3.6429916214211784
 20
5.352392641984774
 10
-3.549957450905408
 20
5.650480061099146
 10
-3.4708926362745385
 20
5.952573128555526
 10
-3.405968414311137
 20
6.258017578039008
 10
-3.35532539642284
 20
6.566151884887486
 10
-3.3190732641093623
 20
6.876308698806732
 10
-3.297290531416771
 20
7.187816289202647
 10
-3.2900243748935663
 20
7.499999999999999
 10
-3.297290531416771
 20
7.812183710797348
 10
-3.3190732641093614
 20
8.123691301193261
 10
-3.355325396422839
 20
8.43384811511251
 10
-3.4059684143111357
 20
8.74198242196099
 10
-3.470892636274536
 20
9.047426871444463
 10
-3.549957450905408
 20
9.349519938900855
 10
-3.642991621421178
 20
9.647607358015225
 10
-3.749793656525077
 20
9.941043537814986
 10
-3.8701322467914476
 20
10.229192960876238
 10
-4.0037467656304
 20
10.511431559712856
  0
LWPOLYLINE
  5
3E
330
17
100
AcDbEntity
  8
ENGRAVE_LINES
100
AcDbPolyline
 90
18
 70
1
 10
25.178925363983765
 20
7.844313812331573
 10
25.19843491160299
 20
7.815115710937642
 10
25.205285753676975
 20
7.780674202024784
 10
25.19843491160299
 20
7.746232693111926
 10
25.178925363983765
 20
7.7170345917179946
 10
25.149727262589835
 20
7.697525044098768
 10
25.115285753676975
 20
7.690674202024784
 10
25.080844244764116
 20
7.697525044098768
 10
23.902897840812226
 20
8.185446420364258
 10
23.873699739418296
 20
8.204955967983485
 10
23.85419019179907
 20
8.234154069377416
 10
23.847339349725086
 20
8.268595578290274
 10
23.85419019179907
 20
8.303037087203132
 10
23.873699739418296
 20
8.332235188597062
 10
23.902897840812226
 20
8.35174473621629
 10
23.937339349725086
 20
8.358595578290274
 10
23.971780858637945
 20
8.35174473621629
 10
25.149727262589835
 20
7.8638233599508
  0
LWPOLYLINE
  5
3F
330
17
100
AcDbEntity
  8
ENGRAVE_LINES
100
AcDbPolyline
 90
18
 70
1
 10
25.64065132430546
 20
8.4080563247077
 10
25.621141776686233
 20
8.378858223313769
 10
25.591943675292303
 20
8.359348675694541
 10
25.557502166379443
 20
8.352497833620557
 10
25.523060657466583
 20
8.359348675694541
 10
25.493862556072653
 20
8.378858223313769
 10
24.592301410059804
 20
9.280419369326617
 10
24.572791862440578
 20
9.309617470720548
 10
24.565941020366594
 20
9.344058979633406
 10
24.572791862440578
 20
9.378500488546264
 10
24.592301410059804
 20
9.407698589940194
 10
24.621499511453734
 20
9.427208137559422
 10
24.655941020366594
 20
9.434058979633406
 10
24.690382529279454
 20
9.427208137559422
 10
24.719580630673384
 20
9.407698589940194
 10
25.621141776686233
 20
8.506137443927345
 10
25.64065132430546
 20
8.476939342533415
 10
25.647502166379443
 20
8.442497833620557
  0
LWPOLYLINE
  5
40
330
17
100
AcDbEntity
  8
ENGRAVE_LINES
100
AcDbPolyline
 90
18
 70
1
 10
26.282965408282006
 20
8.821074636016236
 10
26.253767306888076
 20
8.801565088397009
 10
26.219325797975216
 20
8.794714246323025
 10
26.184884289062357
 20
8.801565088397009
 10
26.155686187668426
 20
8.821074636016236
 10
26.1361766400492
 20
8.850272737410167
 10
25.64825526378371
 20
10.028219141362058
 10
25.641404421709726
 20
10.062660650274916
 10
25.64825526378371
 20
10.097102159187774
 10
25.667764811402936
 20
10.126300260581704
 10
25.696962912796867
 20
10.145809808200932
 10
25.731404421709726
 20
10.152660650274916
 10
25.765845930622586
 20
10.145809808200932
 10
25.795044032016516
 20
10.126300260581704
 10
25.814553579635742
 20
10.097102159187774
 10
26.302474955901232
 20
8.919155755235883
 10
26.309325797975216
 20
8.884714246323025
 10
26.302474955901232
 20
8.850272737410167
  0
LWPOLYLINE
  5
41
330
17
100
AcDbEntity
  8
ENGRAVE_LINES
100
AcDbPolyline
 90
18
 70
1
 10
27.083149157926016
 20
9.005558491087141
 10
27.06363961030679
 20
8.97636038969321
 10
27.03444150891286
 20
8.956850842073983
 10
27.0
 20
8.95
 10
26.96555849108714
 20
8.956850842073983
 10
26.93636038969321
 20
8.97636038969321
 10
26.916850842073984
 20
9.005558491087141
 10
26.91
 20
9.04
 10
26.91
 20
11.59
 10
26.916850842073984
 20
11.624441508912858
 10
26.93636038969321
 20
11.653639610306788
 10
26.96555849108714
 20
11.673149157926016
 10
27.0
 20
11.68
 10
27.03444150891286
 20
11.673149157926016
 10
27.06363961030679
 20
11.653639610306788
 10
27.083149157926016
 20
11.624441508912858
 10
27.09
 20
11.59
 10
27.09
 20
9.04
  0
LWPOLYLINE
  5
42
330
17
100
AcDbEntity
  8
ENGRAVE_LINES
100
AcDbPolyline
 90
18
 70
1
 10
26.916850842073984
 20
4.994441508912858
 10
26.93636038969321
 20
5.023639610306789
 10
26.96555849108714
 20
5.043149157926016
 10
27.0
 20
5.05
 10
27.03444150891286
 20
5.043149157926016
 10
27.06363961030679
 20
5.023639610306789
 10
27.083149157926016
 20
4.994441508912858
 10
27.09
 20
4.96
 10
27.09
 20
2.41
 10
27.083149157926016
 20
2.375558491087142
 10
27.06363961030679
 20
2.346360389693211
 10
27.03444150891286
 20
2.326850842073984
 10
27.0
 20
2.3200000000000003
 10
26.96555849108714
 20
2.326850842073984
 10
26.93636038969321
 20
2.346360389693211
 10
26.916850842073984
 20
2.375558491087142
 10
26.91
 20
2.41
 10
26.91
 20
4.96
  0
LWPOLYLINE
  5
43
330
17
100
AcDbEntity
  8
ENGRAVE_LINES
100
AcDbPolyline
 90
18
 70
1
 10
27.690674202024784
 20
5.115285753676975
 10
27.697525044098768
 20
5.149727262589833
 10
27.717034591717994
 20
5.1789253639837645
 10
27.746232693111924
 20
5.198434911602991
 10
27.780674202024784
 20
5.205285753676975
 10
27.815115710937643
 20
5.198434911602991
 10
27.844313812331574
 20
5.1789253639837645
 10
27.8638233599508
 20
5.149727262589833
 10
28.35174473621629
 20
3.9717808586379433
 10
28.358595578290274
 20
3.937339349725085
 10
28.35174473621629
 20
3.902897840812227
 10
28.332235188597064
 20
3.8736997394182957
 10
28.303037087203133
 20
3.854190191799069
 10
28.268595578290274
 20
3.847339349725085
 10
28.234154069377414
 20
3.854190191799069
 10
28.204955967983484
 20
3.8736997394182957
 10
28.185446420364258
 20
3.902897840812227
 10
27.697525044098768
 20
5.080844244764117
  0
LWPOLYLINE
  5
44
330
17
100
AcDbEntity
  8
ENGRAVE_LINES
100
AcDbPolyline
 90
18
 70
1
 10
28.352497833620557
 20
5.557502166379443
 10
28.35934867569454
 20
5.591943675292301
 10
28.378858223313767
 20
5.621141776686232
 10
28.408056324707697
 20
5.640651324305459
 10
28.442497833620557
 20
5.647502166379443
 10
28.476939342533417
 20
5.640651324305459
 10
28.506137443927347
 20
5.621141776686232
 10
29.407698589940196
 20
4.719580630673383
 10
29.427208137559422
 20
4.690382529279452
 10
29.434058979633406
 20
4.655941020366594
 10
29.427208137559422
 20
4.621499511453736
 10
29.407698589940196
 20
4.592301410059805
 10
29.378500488546266
 20
4.572791862440578
 10
29.344058979633406
 20
4.565941020366594
 10
29.309617470720546
 20
4.572791862440578
 10
29.280419369326616
 20
4.592301410059805
 10
28.378858223313767
 20
5.493862556072654
 10
28.35934867569454
 20
5.523060657466585
  0
LWPOLYLINE
  5
45
330
17
100
AcDbEntity
  8
ENGRAVE_LINES
100
AcDbPolyline
 90
18
 70
1
 10
28.794714246323025
 20
6.219325797975215
 10
28.80156508839701
 20
6.253767306888073
 10
28.821074636016235
 20
6.282965408282005
 10
28.850272737410165
 20
6.302474955901231
 10
28.884714246323025
 20
6.309325797975215
 10
28.919155755235884
 20
6.302474955901231
 10
30.097102159187774
 20
5.814553579635741
 10
30.126300260581704
 20
5.795044032016515
 10
30.14580980820093
 20
5.765845930622583
 10
30.152660650274914
 20
5.731404421709725
 10
30.14580980820093
 20
5.6969629127968675
 10
30.126300260581704
 20
5.667764811402936
 10
30.097102159187774
 20
5.648255263783709
 10
30.062660650274914
 20
5.6414044217097254
 10
30.028219141362055
 20
5.648255263783709
 10
28.850272737410165
 20
6.136176640049199
 10
28.821074636016235
 20
6.155686187668426
 10
28.80156508839701
 20
6.184884289062357
  0
LWPOLYLINE
  5
46
330
17
100
AcDbEntity
  8
ENGRAVE_LINES
100
AcDbPolyline
 90
66
 70
1
 10
28.03109674627104
 20
5.53727859517383
 10
27.75120552210321
 20
5.3756833215567195
 10
27.735641638801777
 20
5.368575534212999
 10
27.430226307064594
 20
5.262870260165659
 10
27.41359852581062
 20
5.258836404080695
 10
27.093697592344956
 20
5.212841593619602
 10
27.076606884476224
 20
5.212027462862416
 10
26.75378240251128
 20
5.227405488275943
 10
26.736846470739568
 20
5.229840507653296
 10
26.422766158164535
 20
5.306035567035946
 10
26.406597111190212
 20
5.311631728603158
 10
26.112612648829828
 20
5.445889933984549
 10
26.09779487813859
 20
5.454444977881925
 10
25.834531630431606
 20
5.641913887913232
 10
25.82160068886356
 20
5.653118612564372
 10
25.598573675507804
 20
5.887022612391582
 10
25.587996920982455
 20
5.900472049853968
 10
25.413266919331825
 20
6.172357239492399
 10
25.405426623315183
 20
6.187565292053973
 10
25.285308830883906
 20
6.487605032360141
 10
25.28048836210171
 20
6.504022041377133
 10
25.21932414887211
 20
6.821372114390453
 10
25.217697731625755
 20
6.83840472638289
 10
25.217697731625755
 20
7.161595273617111
 10
25.21932414887211
 20
7.178627885609549
 10
25.28048836210171
 20
7.495977958622869
 10
25.285308830883906
 20
7.512394967639861
 10
25.405426623315183
 20
7.812434707946028
 10
25.413266919331825
 20
7.827642760507602
 10
25.587996920982455
 20
8.099527950146033
 10
25.598573675507804
 20
8.112977387608419
 10
25.82160068886356
 20
8.346881387435628
 10
25.834531630431606
 20
8.358086112086768
 10
26.09779487813859
 20
8.545555022118075
 10
26.112612648829828
 20
8.554110066015452
 10
26.406597111190212
 20
8.688368271396843
 10
26.422766158164535
 20
8.693964432964055
 10
26.736846470739568
 20
8.770159492346705
 10
26.75378240251128
 20
8.772594511724057
 10
27.076606884476227
 20
8.787972537137584
 10
27.09369759234496
 20
8.787158406380398
 10
27.413598525810624
 20
8.741163595919305
 10
27.430226307064597
 20
8.73712973983434
 10
27.735641638801777
 20
8.631424465787001
 10
27.75120552210321
 20
8.62431667844328
 10
28.03109674627104
 20
8.46272140482617
 10
28.045034212326115
 20
8.452796580177454
 10
28.289285330833696
 20
8.241151781211475
 10
28.30109264330547
 20
8.228768628279445
 10
28.50087578433986
 20
7.974723698434371
 10
28.510126196191955
 20
7.960329776629982
 10
28.658220676506268
 20
7.673066561578023
 10
28.664579853752628
 20
7.657182104738285
 10
28.755633152971907
 20
7.347083045528426
 10
28.75887125837818
 20
7.330282159310073
 10
28.789592473031576
 20
7.008555043897376
 10
28.789592473031576
 20
6.991444956102624
 10
28.75887125837818
 20
6.669717840689926
 10
28.755633152971907
 20
6.652916954471573
 10
28.664579853752628
 20
6.342817895261714
 10
28.658220676506264
 20
6.3269334384219755
 10
28.510126196191948
 20
6.039670223370016
 10
28.500875784339858
 20
6.025276301565628
 10
28.30109264330547
 20
5.771231371720554
 10
28.289285330833696
 20
5.7588482187885255
 10
28.045034212326115
 20
5.547203419822546
  0
LWPOLYLINE
  5
47
330
17
100
AcDbEntity
  8
ENGRAVE_LINES
100
AcDbPolyline
 90
33
 70
1
 10
26.473554474362818
 20
8.5210644530568
 10
26.195204690337903
 20
8.393946366027864
 10
25.945942305677917
 20
8.216447425438854
 10
25.734776312411263
 20
7.994982905471628
 10
25.569338799722242
 20
7.737557110897996
 10
25.45560911036264
 20
7.453474080650176
 10
25.397697731625755
 20
7.153001315612486
 10
25.397697731625755
 20
6.846998684387516
 10
25.45560911036264
 20
6.5465259193498255
 10
25.569338799722242
 20
6.2624428891020045
 10
25.734776312411267
 20
6.0050170945283705
 10
25.945942305677917
 20
5.7835525745611465
 10
26.195204690337906
 20
5.606053633972134
 10
26.473554474362818
 20
5.478935546943198
 10
26.770931371324682
 20
5.406792692342516
 10
27.076587405359366
 20
5.392232500901726
 10
27.379475371017826
 20
5.435781215875708
 10
27.668648108054267
 20
5.5358648732402305
 10
27.933654160319975
 20
5.6888661888527166
 10
28.16491551861953
 20
5.889255296525891
 10
28.3540737949184
 20
6.129789611799721
 10
28.494292316264048
 20
6.40177559781414
 10
28.58050321995927
 20
6.695382972382061
 10
28.60959061932418
 20
7.0
 10
28.58050321995927
 20
7.3046170276179385
 10
28.49429231626405
 20
7.598224402185845
 10
28.354073794918396
 20
7.87021038820029
 10
28.164915518619534
 20
8.110744703474104
 10
27.93365416031997
 20
8.311133811147284
 10
27.668648108054267
 20
8.46413512675977
 10
27.37947537101783
 20
8.564218784124293
 10
27.07658740535937
 20
8.607767499098273
 10
26.770931371324686
 20
8.593207307657485
  0
LWPOLYLINE
  5
48
330
17
100
AcDbEntity
  8
ENGRAVE_LINES
100
AcDbPolyline
 90
46
 70
1
 10
26.898160244866904
 20
5.690735858619371
 10
26.571796313527976
 20
5.758555063435155
 10
26.54870150130691
 20
5.76676296167035
 10
26.252737432335596
 20
5.920119181299005
 10
26.232713502841722
 20
5.934253614170188
 10
25.98909959728811
 20
6.16177311935988
 10
25.973631633768605
 20
6.180785800641723
 10
25.800435620548143
 20
6.465594510525012
 10
25.790670811096025
 20
6.488075356624068
 10
25.70073784619023
 20
6.809050312102062
 10
25.69740040205153
 20
6.833332021506194
 10
25.69740040205153
 20
7.166667978493806
 10
25.70073784619023
 20
7.190949687897938
 10
25.790670811096025
 20
7.511924643375932
 10
25.800435620548143
 20
7.534405489474988
 10
25.973631633768605
 20
7.819214199358277
 10
25.98909959728811
 20
7.83822688064012
 10
26.232713502841722
 20
8.065746385829813
 10
26.252737432335596
 20
8.079880818700996
 10
26.54870150130691
 20
8.23323703832965
 10
26.571796313527976
 20
8.241444936564845
 10
26.898160244866904
 20
8.309264141380629
 10
26.922613103244462
 20
8.310936762716368
 10
27.255171977179245
 20
8.288189112550311
 10
27.279169325071813
 20
8.283202406313857
 10
27.593258771278318
 20
8.1715749903152
 10
27.61502083517327
 20
8.160298797695447
 10
27.88734627628997
 20
7.968070510647364
 10
27.90525906346303
 20
7.951341135265769
 10
28.1156233673283
 20
7.692768669832715
 10
28.128358368300393
 20
7.671826852929532
 10
28.261159776849198
 20
7.366087345982359
 10
28.267772494856978
 20
7.342486246314859
 10
28.31316173514327
 20
7.012254998418662
 10
28.31316173514327
 20
6.987745001581338
 10
28.267772494856978
 20
6.65751375368514
 10
28.261159776849198
 20
6.63391265401764
 10
28.128358368300393
 20
6.328173147070467
 10
28.1156233673283
 20
6.307231330167284
 10
27.90525906346303
 20
6.048658864734231
 10
27.88734627628997
 20
6.0319294893526365
 10
27.61502083517327
 20
5.8397012023045525
 10
27.593258771278318
 20
5.828425009684799
 10
27.279169325071813
 20
5.7167975936861435
 10
27.255171977179245
 20
5.711810887449689
 10
26.922613103244462
 20
5.689063237283632
  0
LWPOLYLINE
  5
49
330
17
100
AcDbEntity
  8
ENGRAVE_LINES
100
AcDbPolyline
 90
23
 70
1
 10
25.87740040205153
 20
6.845702236777436
 10
25.96065847867993
 20
6.548550269565222
 10
26.120999761273552
 20
6.284880263614266
 10
26.346532470414992
 20
6.074247417055928
 10
26.62052987681073
 20
5.932273404538283
 10
26.9226708462831
 20
5.869487789081878
 10
27.230546965329324
 20
5.890547092560036
 10
27.52132447063925
 20
5.99388944277368
 10
27.77343772486263
 20
6.1718504103672664
 10
27.968188641275106
 20
6.411231444491629
 10
28.09113343533252
 20
6.694278748941124
 10
28.133153854094644
 20
7.0
 10
28.09113343533252
 20
7.305721251058877
 10
27.968188641275106
 20
7.588768555508372
 10
27.77343772486263
 20
7.828149589632733
 10
27.52132447063925
 20
8.00611055722632
 10
27.230546965329324
 20
8.109452907439964
 10
26.9226708462831
 20
8.130512210918122
 10
26.62052987681073
 20
8.067726595461716
 10
26.346532470414992
 20
7.925752582944072
 10
26.120999761273552
 20
7.715119736385734
 10
25.96065847867993
 20
7.451449730434778
 10
25.87740040205153
 20
7.154297763222564
  0
LWPOLYLINE
  5
4A
330
17
100
AcDbEntity
  8
ENGRAVE_LINES
100
AcDbPolyline
 90
18
 70
1
 10
28.956850842073983
 20
6.965558491087142
 10
28.95
 20
7.0
 10
28.956850842073983
 20
7.034441508912858
 10
28.97636038969321
 20
7.063639610306789
 10
29.00555849108714
 20
7.083149157926016
 10
29.04
 20
7.09
 10
31.59
 20
7.09
 10
31.62444150891286
 20
7.083149157926016
 10
31.65363961030679
 20
7.063639610306789
 10
31.673149157926016
 20
7.034441508912858
 10
31.68
 20
7.0
 10
31.673149157926016
 20
6.965558491087142
 10
31.65363961030679
 20
6.936360389693211
 10
31.62444150891286
 20
6.916850842073984
 10
31.59
 20
6.91
 10
29.04
 20
6.91
 10
29.00555849108714
 20
6.916850842073984
 10
28.97636038969321
 20
6.936360389693211
  0
LWPOLYLINE
  5
4B
330
17
100
AcDbEntity
  8
ENGRAVE_LINES
100
AcDbPolyline
 90
18
 70
1
 10
28.884714246323025
 20
7.690674202024783
 10
28.850272737410165
 20
7.697525044098767
 10
28.821074636016235
 20
7.717034591717994
 10
28.80156508839701
 20
7.746232693111925
 10
28.794714246323025
 20
7.780674202024783
 10
28.80156508839701
 20
7.815115710937641
 10
28.821074636016235
 20
7.844313812331572
 10
28.850272737410165
 20
7.863823359950799
 10
30.028219141362055
 20
8.351744736216288
 10
30.062660650274914
 20
8.358595578290272
 10
30.097102159187774
 20
8.351744736216288
 10
30.126300260581704
 20
8.33223518859706
 10
30.14580980820093
 20
8.30303708720313
 10
30.152660650274914
 20
8.268595578290272
 10
30.14580980820093
 20
8.234154069377414
 10
30.126300260581704
 20
8.204955967983484
 10
30.097102159187774
 20
8.185446420364256
 10
28.919155755235884
 20
7.697525044098767
  0
LWPOLYLINE
  5
4C
330
17
100
AcDbEntity
  8
ENGRAVE_LINES
100
AcDbPolyline
 90
18
 70
1
 10
28.408056324707697
 20
8.359348675694541
 10
28.378858223313767
 20
8.378858223313769
 10
28.35934867569454
 20
8.4080563247077
 10
28.352497833620557
 20
8.442497833620557
 10
28.35934867569454
 20
8.476939342533415
 10
28.378858223313767
 20
8.506137443927347
 10
29.280419369326616
 20
9.407698589940194
 10
29.309617470720546
 20
9.42720813755942
 10
29.344058979633406
 20
9.434058979633404
 10
29.378500488546266
 20
9.42720813755942
 10
29.407698589940196
 20
9.407698589940193
 10
29.427208137559422
 20
9.378500488546262
 10
29.434058979633406
 20
9.344058979633404
 10
29.427208137559422
 20
9.309617470720546
 10
29.407698589940196
 20
9.280419369326614
 10
28.506137443927347
 20
8.378858223313767
 10
28.476939342533417
 20
8.359348675694541
 10
28.442497833620557
 20
8.352497833620557
  0
LWPOLYLINE
  5
4D
330
17
100
AcDbEntity
  8
ENGRAVE_LINES
100
AcDbPolyline
 90
18
 70
1
 10
27.780674202024784
 20
8.794714246323025
 10
27.746232693111924
 20
8.801565088397009
 10
27.717034591717994
 20
8.821074636016236
 10
27.697525044098768
 20
8.850272737410167
 10
27.690674202024784
 20
8.884714246323025
 10
27.697525044098768
 20
8.919155755235883
 10
28.185446420364258
 20
10.097102159187774
 10
28.204955967983484
 20
10.126300260581704
 10
28.234154069377414
 20
10.145809808200932
 10
28.268595578290274
 20
10.152660650274916
 10
28.303037087203133
 20
10.145809808200932
 10
28.332235188597064
 20
10.126300260581704
 10
28.35174473621629
 20
10.097102159187774
 10
28.358595578290274
 20
10.062660650274916
 10
28.35174473621629
 20
10.028219141362058
 10
27.8638233599508
 20
8.850272737410167
 10
27.844313812331574
 20
8.821074636016236
 10
27.815115710937643
 20
8.801565088397009
  0
LWPOLYLINE
  5
4E
330
17
100
AcDbEntity
  8
ENGRAVE_FILL
100
AcDbPolyline
 90
4
 70
1
 10
-16.863416015625
 20
-16.386
 10
-16.863416015625
 20
-16.5
 10
-17.321791015625003
 20
-16.5
 10
-17.321791015625003
 20
-16.386
  0
LWPOLYLINE
  5
4F
330
17
100
AcDbEntity
  8
ENGRAVE_FILL
100
AcDbPolyline
 90
4
 70
1
 10
-24.95129296875
 20
-16.26428125
 10
-24.95129296875
 20
-16.5
 10
-25.14723046875
 20
-16.5
 10
-25.14723046875
 20
-16.26428125
  0
LWPOLYLINE
  5
50
330
17
100
AcDbEntity
  8
ENGRAVE_FILL
100
AcDbPolyline
 90
16
 70
1
 10
-17.321791015625003
 20
-15.922875
 10
-17.305091796875004
 20
-15.80479296875
 10
-17.254994140625
 20
-15.706453125
 10
-17.180998046875
 20
-15.63987890625
 10
-17.092603515625
 20
-15.6176875
 10
-17.004208984375
 20
-15.63987890625
 10
-16.930212890625
 20
-15.706453125
 10
-16.880115234374998
 20
-15.80479296875
 10
-16.863416015625
 20
-15.922875
 10
-16.880115234374998
 20
-16.04103125
 10
-16.930212890625
 20
-16.13959375
 10
-17.004208984375
 20
-16.2059453125
 10
-17.092603515625
 20
-16.2280625
 10
-17.180998046875
 20
-16.2059453125
 10
-17.254994140625
 20
-16.13959375
 10
-17.305091796875004
 20
-16.04103125
  0
LWPOLYLINE
  5
51
330
17
100
AcDbEntity
  8
ENGRAVE_FILL
100
AcDbPolyline
 90
16
 70
1
 10
-17.191759765625
 20
-15.922875
 10
-17.185154296875
 20
-15.98915234375
 10
-17.165337890625
 20
-16.043109375
 10
-17.133943359375
 20
-16.07895703125
 10
-17.092603515625
 20
-16.09090625
 10
-17.051041015625
 20
-16.07895703125
 10
-17.019572265625
 20
-16.043109375
 10
-16.999755859375
 20
-15.98915234375
 10
-16.993150390625
 20
-15.922875
 10
-16.999755859375
 20
-15.856671875
 10
-17.019572265625
 20
-15.8029375
 10
-17.051041015625
 20
-15.76708984375
 10
-17.092603515625
 20
-15.755140625
 10
-17.133943359375
 20
-15.76708984375
 10
-17.165337890625
 20
-15.8029375
 10
-17.185154296875
 20
-15.856671875
  0
LWPOLYLINE
  5
52
330
17
100
AcDbEntity
  8
ENGRAVE_FILL
100
AcDbPolyline
 90
16
 70
1
 10
-23.33302734375
 20
-15.13593359375
 10
-23.1825859375
 20
-15.274203125
 10
-23.09040625
 20
-15.49990234375
 10
-23.0596796875
 20
-15.808875
 10
-23.09040625
 20
-16.11725390625
 10
-23.1825859375
 20
-16.342953125
 10
-23.33302734375
 20
-16.481
 10
-23.5385390625
 20
-16.527015625
 10
-23.743828125
 20
-16.481
 10
-23.8941953125
 20
-16.342953125
 10
-23.986375
 20
-16.11725390625
 10
-24.0171015625
 20
-15.808875
 10
-23.986375
 20
-15.49990234375
 10
-23.8941953125
 20
-15.274203125
 10
-23.743828125
 20
-15.13593359375
 10
-23.5385390625
 20
-15.08984375
  0
LWPOLYLINE
  5
53
330
17
100
AcDbEntity
  8
ENGRAVE_FILL
100
AcDbPolyline
 90
16
 70
1
 10
-23.66523046875
 20
-15.27390625
 10
-23.756148437500002
 20
-15.38078125
 10
-23.81069921875
 20
-15.55890625
 10
-23.828882812499998
 20
-15.808875
 10
-23.81069921875
 20
-16.05802734375
 10
-23.756148437500002
 20
-16.236078125
 10
-23.66523046875
 20
-16.342953125
 10
-23.5385390625
 20
-16.378578125
 10
-23.41103125
 20
-16.342953125
 10
-23.3200390625
 20
-16.236078125
 10
-23.265265625
 20
-16.05802734375
 10
-23.2470078125
 20
-15.808875
 10
-23.265265625
 20
-15.55890625
 10
-23.3200390625
 20
-15.38078125
 10
-23.41103125
 20
-15.27390625
 10
-23.5385390625
 20
-15.23828125
  0
LWPOLYLINE
  5
54
330
17
100
AcDbEntity
  8
ENGRAVE_FILL
100
AcDbPolyline
 90
13
 70
1
 10
-28.038421875
 20
-15.8385625
 10
-28.18596875
 20
-15.91716015625
 10
-28.390515625
 20
-15.943359375
 10
-28.626234375
 20
-15.943359375
 10
-28.626234375
 20
-16.5
 10
-28.8135625
 20
-16.5
 10
-28.8135625
 20
-15.11478125
 10
-28.390515625
 20
-15.11478125
 10
-28.18596875
 20
-15.14112890625
 10
-28.038421875
 20
-15.220171875
 10
-27.9489140625
 20
-15.349980468750001
 10
-27.919078125
 20
-15.528625
 10
-27.9489140625
 20
-15.7086796875
  0
LWPOLYLINE
  5
55
330
17
100
AcDbEntity
  8
ENGRAVE_FILL
100
AcDbPolyline
 90
11
 70
1
 10
-28.18834375
 20
-15.336546875
 10
-28.27451171875
 20
-15.28578125
 10
-28.390515625
 20
-15.268859375
 10
-28.626234375
 20
-15.268859375
 10
-28.626234375
 20
-15.78928125
 10
-28.390515625
 20
-15.78928125
 10
-28.27451171875
 20
-15.772359375
 10
-28.18834375
 20
-15.72159375
 10
-28.134683593749997
 20
-15.6395078125
 10
-28.116796875
 20
-15.528625
 10
-28.134683593749997
 20
-15.41841015625
  0
LWPOLYLINE
  5
56
330
17
100
AcDbEntity
  8
ENGRAVE_FILL
100
AcDbPolyline
 90
12
 70
1
 10
-27.480482421875
 20
-15.84034375
 10
-27.480482421875
 20
-16.342359375
 10
-26.775404296875
 20
-16.342359375
 10
-26.775404296875
 20
-16.5
 10
-27.667810546875
 20
-16.5
 10
-27.667810546875
 20
-15.11478125
 10
-26.792029296875
 20
-15.11478125
 10
-26.792029296875
 20
-15.27271875
 10
-27.480482421875
 20
-15.27271875
 10
-27.480482421875
 20
-15.682703125
 10
-26.820826171874998
 20
-15.682703125
 10
-26.820826171874998
 20
-15.84034375
  0
LWPOLYLINE
  5
57
330
17
100
AcDbEntity
  8
ENGRAVE_FILL
100
AcDbPolyline
 90
19
 70
1
 10
-26.467322265625
 20
-16.5
 10
-26.467322265625
 20
-15.11478125
 10
-25.988462890625
 20
-15.11478125
 10
-25.798759765625
 20
-15.137046875
 10
-25.658337890625
 20
-15.20384375
 10
-25.571279296874998
 20
-15.31168359375
 10
-25.542259765625
 20
-15.457078125
 10
-25.557103515625002
 20
-15.571375
 10
-25.601634765625
 20
-15.659546875
 10
-25.674962890625
 20
-15.72048046875
 10
-25.776197265625
 20
-15.7530625
 10
-25.653291015625
 20
-15.7989296875
 10
-25.561259765625
 20
-15.87715625
 10
-25.503814453125
 20
-15.982992187499999
 10
-25.484666015625
 20
-16.11228125
 10
-25.516208984374998
 20
-16.27675
 10
-25.610837890625
 20
-16.3990625
 10
-25.763728515624997
 20
-16.474765625
 10
-25.970056640625
 20
-16.5
  0
LWPOLYLINE
  5
58
330
17
100
AcDbEntity
  8
ENGRAVE_FILL
100
AcDbPolyline
 90
11
 70
1
 10
-25.682384765625
 20
-16.091796875
 10
-25.700642578125
 20
-15.978910156249999
 10
-25.755416015625002
 20
-15.9003125
 10
-25.847744140625
 20
-15.854
 10
-25.979259765625
 20
-15.8385625
 10
-26.279994140625
 20
-15.8385625
 10
-26.279994140625
 20
-16.345921875
 10
-25.979259765625
 20
-16.345921875
 10
-25.847744140625
 20
-16.330261718750002
 10
-25.755416015625002
 20
-16.28328125
 10
-25.700642578125
 20
-16.20408984375
  0
LWPOLYLINE
  5
59
330
17
100
AcDbEntity
  8
ENGRAVE_FILL
100
AcDbPolyline
 90
11
 70
1
 10
-25.730775390625
 20
-15.4775625
 10
-25.747623046875
 20
-15.3859765625
 10
-25.798166015625
 20
-15.3208125
 10
-25.882775390625
 20
-15.281847656250001
 10
-26.002416015625002
 20
-15.268859375
 10
-26.279994140625
 20
-15.268859375
 10
-26.279994140625
 20
-15.686265625
 10
-26.002416015625002
 20
-15.686265625
 10
-25.882775390625
 20
-15.67342578125
 10
-25.798166015625
 20
-15.63490625
 10
-25.747623046875
 20
-15.5697421875
  0
LWPOLYLINE
  5
5A
330
17
100
AcDbEntity
  8
ENGRAVE_FILL
100
AcDbPolyline
 90
11
 70
1
 10
-22.393529296875002
 20
-15.11478125
 10
-22.206201171875
 20
-15.11478125
 10
-22.206201171875
 20
-16.342359375
 10
-21.900123046875002
 20
-16.342359375
 10
-21.900123046875002
 20
-16.5
 10
-22.697826171875
 20
-16.5
 10
-22.697826171875
 20
-16.342359375
 10
-22.391748046875
 20
-16.342359375
 10
-22.391748046875
 20
-15.285484375
 10
-22.724841796875
 20
-15.35228125
 10
-22.724841796875
 20
-15.181578125
  0
LWPOLYLINE
  5
5B
330
17
100
AcDbEntity
  8
ENGRAVE_FILL
100
AcDbPolyline
 90
22
 70
1
 10
-17.722572265625
 20
-16.5
 10
-18.336509765625003
 20
-15.341296875
 10
-18.336509765625003
 20
-16.24290625
 10
-18.354767578125003
 20
-16.34926171875
 10
-18.409541015625003
 20
-16.430828125
 10
-18.507212890625
 20
-16.48270703125
 10
-18.654759765625002
 20
-16.5
 10
-18.654759765625002
 20
-16.342359375
 10
-18.552560546875
 20
-16.31749609375
 10
-18.518494140625002
 20
-16.24290625
 10
-18.518494140625002
 20
-15.11478125
 10
-18.266150390625
 20
-15.11478125
 10
-17.651916015624998
 20
-16.273484375
 10
-17.651916015624998
 20
-15.371875
 10
-17.633732421875
 20
-15.26551953125
 10
-17.579181640625002
 20
-15.183953125
 10
-17.481287109375003
 20
-15.13207421875
 10
-17.333666015625
 20
-15.11478125
 10
-17.333666015625
 20
-15.27271875
 10
-17.436087890625004
 20
-15.2975078125
 10
-17.470228515625003
 20
-15.371875
 10
-17.470228515625003
 20
-16.5
  0
LWPOLYLINE
  5
5C
330
17
100
AcDbEntity
  8
ENGRAVE_FILL
100
AcDbPolyline
 90
34
 70
1
 10
-16.61533203125
 20
-10.673625000000001
 10
-16.66015625
 20
-11.017875
 10
-16.61533203125
 20
-11.361175781250001
 10
-16.480859374999998
 20
-11.613140625
 10
-16.26201171875
 20
-11.76786328125
 10
-15.964062499999999
 20
-11.8194375
 10
-15.797527343749998
 20
-11.80393359375
 10
-15.640484374999998
 20
-11.757421875
 10
-15.492617187499999
 20
-11.6795859375
 10
-15.353609374999998
 20
-11.570109375
 10
-15.353609374999998
 20
-11.848546875
 10
-15.497468749999998
 20
-11.93165625
 10
-15.649765624999999
 20
-11.991140625
 10
-15.810289062499999
 20
-12.026578125
 10
-15.979671875
 20
-12.038390625
 10
-16.3793984375
 20
-11.970046875000001
 10
-16.684203124999996
 20
-11.765015625
 10
-16.87689453125
 20
-11.441332031249999
 10
-16.941125
 20
-11.017875
 10
-16.87689453125
 20
-10.59357421875
 10
-16.684203124999996
 20
-10.269890625
 10
-16.3793984375
 20
-10.06454296875
 10
-15.979671875
 20
-9.99609375
 10
-15.808390624999998
 20
-10.00780078125
 10
-15.647234374999998
 20
-10.042921875
 10
-15.495570312499998
 20
-10.10145703125
 10
-15.353609374999998
 20
-10.183406249999999
 10
-15.353609374999998
 20
-10.463953125
 10
-15.492617187499999
 20
-10.35458203125
 10
-15.640484374999998
 20
-10.2770625
 10
-15.797527343749998
 20
-10.230550781249999
 10
-15.964062499999999
 20
-10.215046875
 10
-16.26201171875
 20
-10.26662109375
 10
-16.480859374999998
 20
-10.42134375
  0
LWPOLYLINE
  5
5D
330
17
100
AcDbEntity
  8
ENGRAVE_FILL
100
AcDbPolyline
 90
10
 70
1
 10
-27.245421874999998
 20
-10.03153125
 10
-27.245421874999998
 20
-12.0
 10
-27.503609375
 20
-12.0
 10
-27.503609375
 20
-10.353421875
 10
-28.37646875
 20
-12.0
 10
-28.7350625
 20
-12.0
 10
-28.7350625
 20
-10.03153125
 10
-28.476453125
 20
-10.03153125
 10
-28.476453125
 20
-11.678109375
 10
-27.604015625
 20
-10.03153125
  0
LWPOLYLINE
  5
5E
330
17
100
AcDbEntity
  8
ENGRAVE_FILL
100
AcDbPolyline
 90
13
 70
1
 10
-25.9492109375
 20
-11.621578125
 10
-26.4567265625
 20
-10.271578125
 10
-26.4567265625
 20
-12.0
 10
-26.7153359375
 20
-12.0
 10
-26.7153359375
 20
-10.03153125
 10
-26.3183515625
 20
-10.03153125
 10
-25.8163203125
 20
-11.370984374999999
 10
-25.3113359375
 20
-10.03153125
 10
-24.9143515625
 20
-10.03153125
 10
-24.9143515625
 20
-12.0
 10
-25.1742265625
 20
-12.0
 10
-25.1742265625
 20
-10.271578125
 10
-25.6817421875
 20
-11.621578125
  0
LWPOLYLINE
  5
5F
330
17
100
AcDbEntity
  8
ENGRAVE_FILL
100
AcDbPolyline
 90
8
 70
1
 10
-22.885607421875
 20
-12.0
 10
-23.151810546874998
 20
-12.0
 10
-23.151810546874998
 20
-10.25596875
 10
-24.119591796875
 20
-10.25596875
 10
-24.119591796875
 20
-12.0
 10
-24.385794921875
 20
-12.0
 10
-24.385794921875
 20
-10.03153125
 10
-22.885607421875
 20
-10.03153125
  0
LWPOLYLINE
  5
60
330
17
100
AcDbEntity
  8
ENGRAVE_FILL
100
AcDbPolyline
 90
18
 70
1
 10
-22.062740234375
 20
-11.740125
 10
-22.029201171875
 20
-11.7095390625
 10
-22.001990234375
 20
-11.6625
 10
-21.942927734374997
 20
-11.522859375
 10
-22.574474609375
 20
-10.03153125
 10
-22.288021484375
 20
-10.03153125
 10
-21.799068359375
 20
-11.186625
 10
-21.307162109375
 20
-10.03153125
 10
-21.021130859375
 20
-10.03153125
 10
-21.756880859375
 20
-11.76121875
 10
-21.788310546874996
 20
-11.823339843749999
 10
-21.826912109374998
 20
-11.877234375
 10
-21.987751953125
 20
-11.96930859375
 10
-22.261865234375
 20
-12.0
 10
-22.363537109375
 20
-12.0
 10
-22.363537109375
 20
-11.775984375
 10
-22.280427734375
 20
-11.775984375
 10
-22.147537109374998
 20
-11.76701953125
  0
LWPOLYLINE
  5
61
330
17
100
AcDbEntity
  8
ENGRAVE_FILL
100
AcDbPolyline
 90
16
 70
1
 10
-19.477490234374997
 20
-12.0
 10
-19.477490234374997
 20
-10.25596875
 10
-20.117052734375
 20
-10.25596875
 10
-20.117052734375
 20
-10.498546874999999
 10
-20.150591796875
 20
-11.14496484375
 10
-20.251208984374998
 20
-11.59246875
 10
-20.469212890625002
 20
-11.861203125
 10
-20.864193359375
 20
-12.0
 10
-20.864193359375
 20
-11.775984375
 10
-20.629314453124998
 20
-11.6753671875
 10
-20.496740234374997
 20
-11.497546875
 10
-20.410677734375
 20
-11.044769531250001
 10
-20.381990234375
 20
-10.3665
 10
-20.381990234375
 20
-10.03153125
 10
-19.211287109375
 20
-10.03153125
 10
-19.211287109375
 20
-12.0
  0
LWPOLYLINE
  5
62
330
17
100
AcDbEntity
  8
ENGRAVE_FILL
100
AcDbPolyline
 90
13
 70
1
 10
-17.462826171875
 20
-11.8565625
 10
-17.680091796874997
 20
-11.964140625
 10
-17.973294921875
 20
-12.0
 10
-18.679935546875
 20
-12.0
 10
-18.679935546875
 20
-10.03153125
 10
-18.413732421874997
 20
-10.03153125
 10
-18.413732421874997
 20
-10.841109375
 10
-17.973294921875
 20
-10.841109375
 10
-17.680091796874997
 20
-10.87707421875
 10
-17.462826171875
 20
-10.98496875
 10
-17.328353515624997
 20
-11.1657421875
 10
-17.283529296875
 20
-11.4211875
 10
-17.328353515624997
 20
-11.6757890625
  0
LWPOLYLINE
  5
63
330
17
100
AcDbEntity
  8
ENGRAVE_FILL
100
AcDbPolyline
 90
11
 70
1
 10
-17.668701171875
 20
-11.691609375
 10
-17.590548828125
 20
-11.579707031249999
 10
-17.564498046875
 20
-11.4211875
 10
-17.590548828125
 20
-11.26140234375
 10
-17.668701171875
 20
-11.148234375
 10
-17.799587890625
 20
-11.082105468750001
 10
-17.986373046875
 20
-11.0600625
 10
-18.413732421874997
 20
-11.0600625
 10
-18.413732421874997
 20
-11.781046875
 10
-17.986373046875
 20
-11.781046875
 10
-17.799587890625
 20
-11.7586875
  0
LWPOLYLINE
  5
64
330
17
100
AcDbEntity
  8
ENGRAVE_FILL
100
AcDbPolyline
 90
4
 70
1
 10
-16.14360546875
 20
-16.815578125
 10
-15.19360546875
 20
-16.815578125
 10
-15.19360546875
 20
-16.947984375
 10
-16.14360546875
 20
-16.947984375
  0
LWPOLYLINE
  5
65
330
17
100
AcDbEntity
  8
ENGRAVE_FILL
100
AcDbPolyline
 90
4
 70
1
 10
-14.243605468750001
 20
-16.815578125
 10
-14.243605468750001
 20
-16.947984375
 10
-15.15619921875
 20
-16.947984375
 10
-15.15619921875
 20
-16.815578125
  0
LWPOLYLINE
  5
66
330
17
100
AcDbEntity
  8
ENGRAVE_FILL
100
AcDbPolyline
 90
4
 70
1
 10
-14.206199218750001
 20
-16.815578125
 10
-13.29360546875
 20
-16.815578125
 10
-13.29360546875
 20
-16.947984375
 10
-14.206199218750001
 20
-16.947984375
  0
LWPOLYLINE
  5
67
330
17
100
AcDbEntity
  8
ENGRAVE_FILL
100
AcDbPolyline
 90
4
 70
1
 10
-13.25619921875
 20
-16.947984375
 10
-13.25619921875
 20
-16.815578125
 10
-12.343605468749999
 20
-16.815578125
 10
-12.343605468749999
 20
-16.947984375
  0
LWPOLYLINE
  5
68
330
17
100
AcDbEntity
  8
ENGRAVE_FILL
100
AcDbPolyline
 90
4
 70
1
 10
-11.39360546875
 20
-16.947984375
 10
-12.306199218749999
 20
-16.947984375
 10
-12.306199218749999
 20
-16.815578125
 10
-11.39360546875
 20
-16.815578125
  0
LWPOLYLINE
  5
69
330
17
100
AcDbEntity
  8
ENGRAVE_FILL
100
AcDbPolyline
 90
4
 70
1
 10
-10.44360546875
 20
-16.815578125
 10
-10.44360546875
 20
-16.947984375
 10
-11.35619921875
 20
-16.947984375
 10
-11.35619921875
 20
-16.815578125
  0
LWPOLYLINE
  5
6A
330
17
100
AcDbEntity
  8
ENGRAVE_FILL
100
AcDbPolyline
 90
4
 70
1
 10
-10.40619921875
 20
-16.815578125
 10
-9.493605468750001
 20
-16.815578125
 10
-9.493605468750001
 20
-16.947984375
 10
-10.40619921875
 20
-16.947984375
  0
LWPOLYLINE
  5
6B
330
17
100
AcDbEntity
  8
ENGRAVE_FILL
100
AcDbPolyline
 90
4
 70
1
 10
-9.456199218750001
 20
-16.947984375
 10
-9.456199218750001
 20
-16.815578125
 10
-8.543605468750002
 20
-16.815578125
 10
-8.543605468750002
 20
-16.947984375
  0
LWPOLYLINE
  5
6C
330
17
100
AcDbEntity
  8
ENGRAVE_FILL
100
AcDbPolyline
 90
4
 70
1
 10
-7.593605468749999
 20
-16.947984375
 10
-8.506199218750002
 20
-16.947984375
 10
-8.506199218750002
 20
-16.815578125
 10
-7.593605468749999
 20
-16.815578125
  0
LWPOLYLINE
  5
6D
330
17
100
AcDbEntity
  8
ENGRAVE_FILL
100
AcDbPolyline
 90
4
 70
1
 10
-6.60619921875
 20
-16.815578125
 10
-6.60619921875
 20
-16.947984375
 10
-7.556199218749999
 20
-16.947984375
 10
-7.556199218749999
 20
-16.815578125
  0
LWPOLYLINE
  5
6E
330
17
100
AcDbEntity
  8
ENGRAVE_FILL
100
AcDbPolyline
 90
4
 70
1
 10
-10.88964453125
 20
-11.368453125
 10
-11.600082031249997
 20
-11.368453125
 10
-11.600082031249997
 20
-11.152453125
 10
-10.88964453125
 20
-11.152453125
  0
LWPOLYLINE
  5
6F
330
17
100
AcDbEntity
  8
ENGRAVE_FILL
100
AcDbPolyline
 90
16
 70
1
 10
-9.393939453124997
 20
-11.776828125
 10
-9.607724609374998
 20
-11.972999999999999
 10
-9.899767578124997
 20
-12.038390625
 10
-10.191494140624998
 20
-11.972999999999999
 10
-10.405173828124997
 20
-11.776828125
 10
-10.536166015625
 20
-11.45609765625
 10
-10.579830078125
 20
-11.017875
 10
-10.536166015625
 20
-10.578808593749999
 10
-10.405173828124997
 20
-10.258078124999999
 10
-10.191494140624998
 20
-10.06158984375
 10
-9.899767578124997
 20
-9.99609375
 10
-9.607724609374998
 20
-10.06158984375
 10
-9.393939453124997
 20
-10.258078124999999
 10
-9.262947265624998
 20
-10.578808593749999
 10
-9.219283203124998
 20
-11.017875
 10
-9.262947265624998
 20
-11.45609765625
  0
LWPOLYLINE
  5
70
330
17
100
AcDbEntity
  8
ENGRAVE_FILL
100
AcDbPolyline
 90
16
 70
1
 10
-10.209001953124996
 20
-11.624953125
 10
-10.079802734374997
 20
-11.776828125
 10
-9.899767578124997
 20
-11.827453125
 10
-9.718572265624996
 20
-11.776828125
 10
-9.589267578124996
 20
-11.624953125
 10
-9.511431640624998
 20
-11.37193359375
 10
-9.485486328124999
 20
-11.017875
 10
-9.511431640624998
 20
-10.662656250000001
 10
-9.589267578124996
 20
-10.40953125
 10
-9.718572265624996
 20
-10.25765625
 10
-9.899767578124997
 20
-10.20703125
 10
-10.079802734374997
 20
-10.25765625
 10
-10.209001953124996
 20
-10.40953125
 10
-10.286521484374997
 20
-10.662656250000001
 10
-10.312361328124997
 20
-11.017875
 10
-10.286521484374997
 20
-11.37193359375
  0
LWPOLYLINE
  5
71
330
17
100
AcDbEntity
  8
ENGRAVE_FILL
100
AcDbPolyline
 90
8
 70
1
 10
-14.434871093749999
 20
-10.03153125
 10
-14.132808593749997
 20
-10.03153125
 10
-13.382714843749998
 20
-12.0
 10
-13.659464843749998
 20
-12.0
 10
-13.838761718749998
 20
-11.495015625
 10
-14.725964843749999
 20
-11.495015625
 10
-14.905261718749998
 20
-12.0
 10
-15.186230468749999
 20
-12.0
  0
LWPOLYLINE
  5
72
330
17
100
AcDbEntity
  8
ENGRAVE_FILL
100
AcDbPolyline
 90
3
 70
1
 10
-13.921871093749997
 20
-11.27353125
 10
-14.284261718749999
 20
-10.2939375
 10
-14.645808593749999
 20
-11.27353125
  0
LWPOLYLINE
  5
73
330
17
100
AcDbEntity
  8
ENGRAVE_FILL
100
AcDbPolyline
 90
13
 70
1
 10
-11.993849609374998
 20
-11.0600625
 10
-12.203521484374997
 20
-11.17175390625
 10
-12.494193359374997
 20
-11.208984375
 10
-12.829162109374998
 20
-11.208984375
 10
-12.829162109374998
 20
-12.0
 10
-13.095365234374999
 20
-12.0
 10
-13.095365234374999
 20
-10.03153125
 10
-12.494193359374997
 20
-10.03153125
 10
-12.203521484374997
 20
-10.06897265625
 10
-11.993849609374998
 20
-10.181296875
 10
-11.866654296874998
 20
-10.36576171875
 10
-11.824255859374997
 20
-10.619625
 10
-11.866654296874998
 20
-10.8754921875
  0
LWPOLYLINE
  5
74
330
17
100
AcDbEntity
  8
ENGRAVE_FILL
100
AcDbPolyline
 90
11
 70
1
 10
-12.130642578124997
 20
-10.463003906249998
 10
-12.206896484374997
 20
-10.346671875
 10
-12.329345703124996
 20
-10.274531249999999
 10
-12.494193359374997
 20
-10.250484375
 10
-12.829162109374998
 20
-10.250484375
 10
-12.829162109374998
 20
-10.99003125
 10
-12.494193359374997
 20
-10.99003125
 10
-12.329345703124996
 20
-10.965984375
 10
-12.206896484374997
 20
-10.89384375
 10
-12.130642578124997
 20
-10.777195312499998
 10
-12.105224609374996
 20
-10.619625
  0
LWPOLYLINE
  5
75
330
17
100
AcDbEntity
  8
ENGRAVE_FILL
100
AcDbPolyline
 90
11
 70
1
 10
-8.2726484375
 20
-10.03153125
 10
-8.006445312499999
 20
-10.03153125
 10
-8.006445312499999
 20
-11.775984375
 10
-7.571492187499999
 20
-11.775984375
 10
-7.571492187499999
 20
-12.0
 10
-8.705070312499998
 20
-12.0
 10
-8.705070312499998
 20
-11.775984375
 10
-8.270117187499999
 20
-11.775984375
 10
-8.270117187499999
 20
-10.274109375
 10
-8.743460937499997
 20
-10.369031249999999
 10
-8.743460937499997
 20
-10.126453125
  0
ENDSEC
  0
SECTION
  2
OBJECTS
  0
DICTIONARY
  5
A
330
0
100
AcDbDictionary
281
1
  3
ACAD_COLOR
350
B
  3
ACAD_GROUP
350
C
  3
ACAD_LAYOUT
350
D
  3
ACAD_MATERIAL
350
E
  3
ACAD_MLEADERSTYLE
350
F
  3
ACAD_MLINESTYLE
350
10
  3
ACAD_PLOTSETTINGS
350
11
  3
ACAD_PLOTSTYLENAME
350
12
  3
ACAD_SCALELIST
350
14
  3
ACAD_TABLESTYLE
350
15
  3
ACAD_VISUALSTYLE
350
16
  3
EZDXF_META
350
2D
  0
DICTIONARY
  5
B
330
A
100
AcDbDictionary
281
1
  0
DICTIONARY
  5
C
330
A
100
AcDbDictionary
281
1
  0
DICTIONARY
  5
D
330
A
100
AcDbDictionary
281
1
  3
Model
350
1A
  3
Layout1
350
1E
  0
DICTIONARY
  5
E
330
A
100
AcDbDictionary
281
1
  3
ByBlock
350
1F
  3
ByLayer
350
20
  3
Global
350
21
  0
DICTIONARY
  5
F
330
A
100
AcDbDictionary
281
1
  3
Standard
350
2C
  0
DICTIONARY
  5
10
330
A
100
AcDbDictionary
281
1
  3
Standard
350
22
  0
DICTIONARY
  5
11
330
A
100
AcDbDictionary
281
1
  0
ACDBDICTIONARYWDFLT
  5
12
330
A
100
AcDbDictionary
281
1
  3
Normal
350
13
100
AcDbDictionaryWithDefault
340
13
  0
ACDBPLACEHOLDER
  5
13
330
12
  0
DICTIONARY
  5
14
330
A
100
AcDbDictionary
281
1
  0
DICTIONARY
  5
15
330
A
100
AcDbDictionary
281
1
  0
DICTIONARY
  5
16
330
A
100
AcDbDictionary
281
1
  0
LAYOUT
  5
1A
330
D
100
AcDbPlotSettings
  1

  4
A3
  6

 40
7.5
 41
20.0
 42
7.5
 43
20.0
 44
420.0
 45
297.0
 46
0.0
 47
0.0
 48
0.0
 49
0.0
140
0.0
141
0.0
142
1.0
143
1.0
 70
1024
 72
1
 73
0
 74
5
  7

 75
16
 76
0
 77
2
 78
300
147
1.0
148
0.0
149
0.0
100
AcDbLayout
  1
Model
 70
1
 71
0
 10
0.0
 20
0.0
 11
420.0
 21
297.0
 12
0.0
 22
0.0
 32
0.0
 14
1e+20
 24
1e+20
 34
1e+20
 15
-1e+20
 25
-1e+20
 35
-1e+20
146
0.0
 13
0.0
 23
0.0
 33
0.0
 16
1.0
 26
0.0
 36
0.0
 17
0.0
 27
1.0
 37
0.0
 76
1
330
17
  0
LAYOUT
  5
1E
330
D
100
AcDbPlotSettings
  1

  4
A3
  6

 40
7.5
 41
20.0
 42
7.5
 43
20.0
 44
420.0
 45
297.0
 46
0.0
 47
0.0
 48
0.0
 49
0.0
140
0.0
141
0.0
142
1.0
143
1.0
 70
0
 72
1
 73
0
 74
5
  7

 75
16
 76
0
 77
2
 78
300
147
1.0
148
0.0
149
0.0
100
AcDbLayout
  1
Layout1
 70
1
 71
1
 10
0.0
 20
0.0
 11
420.0
 21
297.0
 12
0.0
 22
0.0
 32
0.0
 14
1e+20
 24
1e+20
 34
1e+20
 15
-1e+20
 25
-1e+20
 35
-1e+20
146
0.0
 13
0.0
 23
0.0
 33
0.0
 16
1.0
 26
0.0
 36
0.0
 17
0.0
 27
1.0
 37
0.0
 76
1
330
1B
  0
MATERIAL
  5
1F
102
{ACAD_REACTORS
330
E
102
}
330
E
100
AcDbMaterial
  1
ByBlock
  2

 70
0
 40
1.0
 71
1
 41
1.0
 91
-1023410177
 42
1.0
 72
1
  3

 73
1
 74
1
 75
1
 44
0.5
 73
0
 45
1.0
 46
1.0
 77
1
  4

 78
1
 79
1
170
1
 48
1.0
171
1
  6

172
1
173
1
174
1
140
1.0
141
1.0
175
1
  7

176
1
177
1
178
1
143
1.0
179
1
  8

270
1
271
1
272
1
145
1.0
146
1.0
273
1
  9

274
1
275
1
276
1
 42
1.0
 72
1
  3

 73
1
 74
1
 75
1
 94
63
  0
MATERIAL
  5
20
102
{ACAD_REACTORS
330
E
102
}
330
E
100
AcDbMaterial
  1
ByLayer
  2

 70
0
 40
1.0
 71
1
 41
1.0
 91
-1023410177
 42
1.0
 72
1
  3

 73
1
 74
1
 75
1
 44
0.5
 73
0
 45
1.0
 46
1.0
 77
1
  4

 78
1
 79
1
170
1
 48
1.0
171
1
  6

172
1
173
1
174
1
140
1.0
141
1.0
175
1
  7

176
1
177
1
178
1
143
1.0
179
1
  8

270
1
271
1
272
1
145
1.0
146
1.0
273
1
  9

274
1
275
1
276
1
 42
1.0
 72
1
  3

 73
1
 74
1
 75
1
 94
63
  0
MATERIAL
  5
21
102
{ACAD_REACTORS
330
E
102
}
330
E
100
AcDbMaterial
  1
Global
  2

 70
0
 40
1.0
 71
1
 41
1.0
 91
-1023410177
 42
1.0
 72
1
  3

 73
1
 74
1
 75
1
 44
0.5
 73
0
 45
1.0
 46
1.0
 77
1
  4

 78
1
 79
1
170
1
 48
1.0
171
1
  6

172
1
173
1
174
1
140
1.0
141
1.0
175
1
  7

176
1
177
1
178
1
143
1.0
179
1
  8

270
1
271
1
272
1
145
1.0
146
1.0
273
1
  9

274
1
275
1
276
1
 42
1.0
 72
1
  3

 73
1
 74
1
 75
1
 94
63
  0
MLINESTYLE
  5
22
102
{ACAD_REACTORS
330
10
102
}
330
10
100
AcDbMlineStyle
  2
Standard
 70
0
  3

 62
256
 51
90.0
 52
90.0
 71
2
 49
0.5
 62
256
  6
BYLAYER
 49
-0.5
 62
256
  6
BYLAYER
  0
MLEADERSTYLE
  5
2C
102
{ACAD_REACTORS
330
F
102
}
330
F
100
AcDbMLeaderStyle
179
2
170
2
171
1
172
0
 90
2
 40
0.0
 41
0.0
173
1
 91
-1056964608
 92
-2
290
1
 42
2.0
291
1
 43
8.0
  3
Standard
 44
4.0
300

342
29
174
1
175
1
176
0
178
1
 93
-1056964608
 45
4.0
292
0
297
0
 46
4.0
 94
-1056964608
 47
1.0
 49
1.0
140
1.0
294
1
141
0.0
177
0
142
1.0
295
0
296
0
143
3.75
271
0
272
9
273
9
  0
DICTIONARY
  5
2D
330
A
100
AcDbDictionary
280
1
281
1
  3
CREATED_BY_EZDXF
350
2E
  3
WRITTEN_BY_EZDXF
350
78
  0
DICTIONARYVAR
  5
2E
330
2D
100
DictionaryVariables
280
0
  1
1.4.3 @ 2026-09-24T11:47:32.280126+00:00
  0
DICTIONARYVAR
  5
78
330
2D
100
DictionaryVariables
280
0
  1
1.4.3 @ 2026-09-24T11:47:34.381474+00:00
  0
ENDSEC
  0
EOF
