  0
SECTION
  2
HEADER
  9
$ACADVER
  1
AC1024
  9
$ACADMAINTVER
 70
6
  9
$DWGCODEPAGE
  3
ANSI_1252
  9
$LASTSAVEDBY
  1
ezdxf
  9
$INSBASE
 10
0.0
 20
0.0
 30
0.0
  9
$EXTMIN
 10
1e+20
 20
1e+20
 30
1e+20
  9
$EXTMAX
 10
-1e+20
 20
-1e+20
 30
-1e+20
  9
$LIMMIN
 10
0.0
 20
0.0
  9
$LIMMAX
 10
420.0
 20
297.0
  9
$ORTHOMODE
 70
0
  9
$REGENMODE
 70
1
  9
$FILLMODE
 70
1
  9
$QTEXTMODE
 70
0
  9
$MIRRTEXT
 70
1
  9
$LTSCALE
 40
1.0
  9
$ATTMODE
 70
1
  9
$TEXTSIZE
 40
2.5
  9
$TRACEWID
 40
1.0
  9
$TEXTSTYLE
  7
Standard
  9
$CLAYER
  8
0
  9
$CELTYPE
  6
ByLayer
  9
$CECOLOR
 62
256
  9
$CELTSCALE
 40
1.0
  9
$DISPSILH
 70
0
  9
$DIMSCALE
 40
1.0
  9
$DIMASZ
 40
2.5
  9
$DIMEXO
 40
0.625
  9
$DIMDLI
 40
3.75
  9
$DIMRND
 40
0.0
  9
$DIMDLE
 40
0.0
  9
$DIMEXE
 40
1.25
  9
$DIMTP
 40
0.0
  9
$DIMTM
 40
0.0
  9
$DIMTXT
 40
2.5
  9
$DIMCEN
 40
2.5
  9
$DIMTSZ
 40
0.0
  9
$DIMTOL
 70
0
  9
$DIMLIM
 70
0
  9
$DIMTIH
 70
0
  9
$DIMTOH
 70
0
  9
$DIMSE1
 70
0
  9
$DIMSE2
 70
0
  9
$DIMTAD
 70
1
  9
$DIMZIN
 70
8
  9
$DIMBLK
  1

  9
$DIMASO
 70
1
  9
$DIMSHO
 70
1
  9
$DIMPOST
  1

  9
$DIMAPOST
  1

  9
$DIMALT
 70
0
  9
$DIMALTD
 70
3
  9
$DIMALTF
 40
0.03937007874
  9
$DIMLFAC
 40
1.0
  9
$DIMTOFL
 70
1
  9
$DIMTVP
 40
0.0
  9
$DIMTIX
 70
0
  9
$DIMSOXD
 70
0
  9
$DIMSAH
 70
0
  9
$DIMBLK1
  1

  9
$DIMBLK2
  1

  9
$DIMSTYLE
  2
ISO-25
  9
$DIMCLRD
 70
0
  9
$DIMCLRE
 70
0
  9
$DIMCLRT
 70
0
  9
$DIMTFAC
 40
1.0
  9
$DIMGAP
 40
0.625
  9
$DIMJUST
 70
0
  9
$DIMSD1
 70
0
  9
$DIMSD2
 70
0
  9
$DIMTOLJ
 70
0
  9
$DIMTZIN
 70
8
  9
$DIMALTZ
 70
0
  9
$DIMALTTZ
 70
0
  9
$DIMUPT
 70
0
  9
$DIMDEC
 70
2
  9
$DIMTDEC
 70
2
  9
$DIMALTU
 70
2
  9
$DIMALTTD
 70
3
  9
$DIMTXSTY
  7
Standard
  9
$DIMAUNIT
 70
0
  9
$DIMADEC
 70
0
  9
$DIMALTRND
 40
0.0
  9
$DIMAZIN
 70
0
  9
$DIMDSEP
 70
44
  9
$DIMATFIT
 70
3
  9
$DIMFRAC
 70
0
  9
$DIMLDRBLK
  1

  9
$DIMLUNIT
 70
2
  9
$DIMLWD
 70
-2
  9
$DIMLWE
 70
-2
  9
$DIMTMOVE
 70
0
  9
$DIMFXL
 40
1.0
  9
$DIMFXLON
 70
0
  9
$DIMJOGANG
 40
0.785398163397
  9
$DIMTFILL
 70
0
  9
$DIMTFILLCLR
 70
0
  9
$DIMARCSYM
 70
0
  9
$DIMLTYPE
  6

  9
$DIMLTEX1
  6

  9
$DIMLTEX2
  6

  9
$DIMTXTDIRECTION
 70
0
  9
$LUNITS
 70
2
  9
$LUPREC
 70
4
  9
$SKETCHINC
 40
1.0
  9
$FILLETRAD
 40
10.0
  9
$AUNITS
 70
0
  9
$AUPREC
 70
2
  9
$MENU
  1
.
  9
$ELEVATION
 40
0.0
  9
$PELEVATION
 40
0.0
  9
$THICKNESS
 40
0.0
  9
$LIMCHECK
 70
0
  9
$CHAMFERA
 40
0.0
  9
$CHAMFERB
 40
0.0
  9
$CHAMFERC
 40
0.0
  9
$CHAMFERD
 40
0.0
  9
$SKPOLY
 70
0
  9
$TDCREATE
 40
2461308.6580324075
  9
$TDUCREATE
 40
2458532.153996898
  9
$TDUPDATE
 40
2461308.6580324075
  9
$TDUUPDATE
 40
2458532.1544311
  9
$TDINDWG
 40
0.0
  9
$TDUSRTIMER
 40
0.0
  9
$USRTIMER
 70
1
  9
$ANGBASE
 50
0.0
  9
$ANGDIR
 70
0
  9
$PDMODE
 70
0
  9
$PDSIZE
 40
0.0
  9
$PLINEWID
 40
0.0
  9
$SPLFRAME
 70
0
  9
$SPLINETYPE
 70
6
  9
$SPLINESEGS
 70
8
  9
$HANDSEED
  5
5F
  9
$SURFTAB1
 70
6
  9
$SURFTAB2
 70
6
  9
$SURFTYPE
 70
6
  9
$SURFU
 70
6
  9
$SURFV
 70
6
  9
$UCSBASE
  2

  9
$UCSNAME
  2

  9
$UCSORG
 10
0.0
 20
0.0
 30
0.0
  9
$UCSXDIR
 10
1.0
 20
0.0
 30
0.0
  9
$UCSYDIR
 10
0.0
 20
1.0
 30
0.0
  9
$UCSORTHOREF
  2

  9
$UCSORTHOVIEW
 70
0
  9
$UCSORGTOP
 10
0.0
 20
0.0
 30
0.0
  9
$UCSORGBOTTOM
 10
0.0
 20
0.0
 30
0.0
  9
$UCSORGLEFT
 10
0.0
 20
0.0
 30
0.0
  9
$UCSORGRIGHT
 10
0.0
 20
0.0
 30
0.0
  9
$UCSORGFRONT
 10
0.0
 20
0.0
 30
0.0
  9
$UCSORGBACK
 10
0.0
 20
0.0
 30
0.0
  9
$PUCSBASE
  2

  9
$PUCSNAME
  2

  9
$PUCSORG
 10
0.0
 20
0.0
 30
0.0
  9
$PUCSXDIR
 10
1.0
 20
0.0
 30
0.0
  9
$PUCSYDIR
 10
0.0
 20
1.0
 30
0.0
  9
$PUCSORTHOREF
  2

  9
$PUCSORTHOVIEW
 70
0
  9
$PUCSORGTOP
 10
0.0
 20
0.0
 30
0.0
  9
$PUCSORGBOTTOM
 10
0.0
 20
0.0
 30
0.0
  9
$PUCSORGLEFT
 10
0.0
 20
0.0
 30
0.0
  9
$PUCSORGRIGHT
 10
0.0
 20
0.0
 30
0.0
  9
$PUCSORGFRONT
 10
0.0
 20
0.0
 30
0.0
  9
$PUCSORGBACK
 10
0.0
 20
0.0
 30
0.0
  9
$USERI1
 70
0
  9
$USERI2
 70
0
  9
$USERI3
 70
0
  9
$USERI4
 70
0
  9
$USERI5
 70
0
  9
$USERR1
 40
0.0
  9
$USERR2
 40
0.0
  9
$USERR3
 40
0.0
  9
$USERR4
 40
0.0
  9
$USERR5
 40
0.0
  9
$WORLDVIEW
 70
1
  9
$SHADEDGE
 70
3
  9
$SHADEDIF
 70
70
  9
$TILEMODE
 70
1
  9
$MAXACTVP
 70
64
  9
$PINSBASE
 10
0.0
 20
0.0
 30
0.0
  9
$PLIMCHECK
 70
0
  9
$PEXTMIN
 10
1e+20
 20
1e+20
 30
1e+20
  9
$PEXTMAX
 10
-1e+20
 20
-1e+20
 30
-1e+20
  9
$PLIMMIN
 10
0.0
 20
0.0
  9
$PLIMMAX
 10
420.0
 20
297.0
  9
$UNITMODE
 70
0
  9
$VISRETAIN
 70
1
  9
$PLINEGEN
 70
0
  9
$PSLTSCALE
 70
1
  9
$TREEDEPTH
 70
3020
  9
$CMLSTYLE
  2
Standard
  9
$CMLJUST
 70
0
  9
$CMLSCALE
 40
20.0
  9
$PROXYGRAPHICS
 70
1
  9
$MEASUREMENT
 70
1
  9
$CELWEIGHT
370
-1
  9
$ENDCAPS
280
0
  9
$JOINSTYLE
280
0
  9
$LWDISPLAY
290
0
  9
$INSUNITS
 70
4
  9
$HYPERLINKBASE
  1

  9
$STYLESHEET
  1

  9
$XEDIT
290
1
  9
$CEPSNTYPE
380
0
  9
$PSTYLEMODE
290
1
  9
$FINGERPRINTGUID
  2
{E339AFAD-CE99-4E49-A248-88CACB04F423}
  9
$VERSIONGUID
  2
{5883CD72-D88A-4604-A04A-B7BFEB003965}
  9
$EXTNAMES
290
1
  9
$PSVPSCALE
 40
0.0
  9
$OLESTARTUP
290
0
  9
$SORTENTS
280
127
  9
$INDEXCTL
280
0
  9
$HIDETEXT
280
1
  9
$XCLIPFRAME
280
1
  9
$HALOGAP
280
0
  9
$OBSCOLOR
 70
257
  9
$OBSLTYPE
280
0
  9
$INTERSECTIONDISPLAY
280
0
  9
$INTERSECTIONCOLOR
 70
257
  9
$DIMASSOC
280
2
  9
$PROJECTNAME
  1

  9
$CAMERADISPLAY
290
0
  9
$LENSLENGTH
 40
50.0
  9
$CAMERAHEIGHT
 40
0.0
  9
$STEPSPERSEC
 40
24.0
  9
$STEPSIZE
 40
100.0
  9
$3DDWFPREC
 40
2.0
  9
$PSOLWIDTH
 40
0.005
  9
$PSOLHEIGHT
 40
0.08
  9
$LOFTANG1
 40
1.570796326795
  9
$LOFTANG2
 40
1.570796326795
  9
$LOFTMAG1
 40
0.0
  9
$LOFTMAG2
 40
0.0
  9
$LOFTPARAM
 70
7
  9
$LOFTNORMALS
280
1
  9
$LATITUDE
 40
37.795
  9
$LONGITUDE
 40
-122.394
  9
$NORTHDIRECTION
 40
0.0
  9
$TIMEZONE
 70
-8000
  9
$LIGHTGLYPHDISPLAY
280
1
  9
$TILEMODELIGHTSYNCH
280
1
  9
$CMATERIAL
347
20
  9
$SOLIDHIST
280
0
  9
$SHOWHIST
280
1
  9
$DWFFRAME
280
2
  9
$DGNFRAME
280
2
  9
$REALWORLDSCALE
290
1
  9
$INTERFERECOLOR
 62
256
  9
$CSHADOW
280
0
  9
$SHADOWPLANELOCATION
 40
0.0
  0
ENDSEC
  0
SECTION
  2
CLASSES
  0
CLASS
  1
ACDBDICTIONARYWDFLT
  2
AcDbDictionaryWithDefault
  3
ObjectDBX Classes
 90
0
 91
0
280
0
281
0
  0
CLASS
  1
SUN
  2
AcDbSun
  3
SCENEOE
 90
1153
 91
0
280
0
281
0
  0
CLASS
  1
VISUALSTYLE
  2
AcDbVisualStyle
  3
ObjectDBX Classes
 90
4095
 91
0
280
0
281
0
  0
CLASS
  1
MATERIAL
  2
AcDbMaterial
  3
ObjectDBX Classes
 90
1153
 91
0
280
0
281
0
  0
CLASS
  1
SCALE
  2
AcDbScale
  3
ObjectDBX Classes
 90
1153
 91
0
280
0
281
0
  0
CLASS
  1
TABLESTYLE
  2
AcDbTableStyle
  3
ObjectDBX Classes
 90
4095
 91
0
280
0
281
0
  0
CLASS
  1
MLEADERSTYLE
  2
AcDbMLeaderStyle
  3
ACDB_MLEADERSTYLE_CLASS
 90
4095
 91
0
280
0
281
0
  0
CLASS
  1
DICTIONARYVAR
  2
AcDbDictionaryVar
  3
ObjectDBX Classes
 90
0
 91
0
280
0
281
0
  0
CLASS
  1
CELLSTYLEMAP
  2
AcDbCellStyleMap
  3
ObjectDBX Classes
 90
1152
 91
0
280
0
281
0
  0
CLASS
  1
MENTALRAYRENDERSETTINGS
  2
AcDbMentalRayRenderSettings
  3
SCENEOE
 90
1024
 91
0
280
0
281
0
  0
CLASS
  1
ACDBDETAILVIEWSTYLE
  2
AcDbDetailViewStyle
  3
ObjectDBX Classes
 90
1025
 91
0
280
0
281
0
  0
CLASS
  1
ACDBSECTIONVIEWSTYLE
  2
AcDbSectionViewStyle
  3
ObjectDBX Classes
 90
1025
 91
0
280
0
281
0
  0
CLASS
  1
RASTERVARIABLES
  2
AcDbRasterVariables
  3
ISM
 90
0
 91
0
280
0
281
0
  0
CLASS
  1
ACDBPLACEHOLDER
  2
AcDbPlaceHolder
  3
ObjectDBX Classes
 90
0
 91
0
280
0
281
0
  0
CLASS
  1
LAYOUT
  2
AcDbLayout
  3
ObjectDBX Classes
 90
0
 91
0
280
0
281
0
  0
ENDSEC
  0
SECTION
  2
TABLES
  0
TABLE
  2
VPORT
  5
8
330
0
100
AcDbSymbolTable
 70
1
  0
VPORT
  5
23
330
8
100
AcDbSymbolTableRecord
100
AcDbViewportTableRecord
  2
*Active
 70
0
 10
0.0
 20
0.0
 11
1.0
 21
1.0
 12
0.0
 22
0.0
 13
0.0
 23
0.0
 14
0.5
 24
0.5
 15
0.5
 25
0.5
 16
0.0
 26
0.0
 36
1.0
 17
0.0
 27
0.0
 37
0.0
 40
1000.0
 41
1.34
 42
50.0
 43
0.0
 44
0.0
 50
0.0
 51
0.0
 71
0
 72
1000
 73
1
 74
3
 75
0
 76
0
 77
0
 78
0
281
0
 65
0
146
0.0
  0
ENDTAB
  0
TABLE
  2
LTYPE
  5
2
330
0
100
AcDbSymbolTable
 70
3
  0
LTYPE
  5
24
330
2
100
AcDbSymbolTableRecord
100
AcDbLinetypeTableRecord
  2
ByBlock
 70
0
  3

 72
65
 73
0
 40
0.0
  0
LTYPE
  5
25
330
2
100
AcDbSymbolTableRecord
100
AcDbLinetypeTableRecord
  2
ByLayer
 70
0
  3

 72
65
 73
0
 40
0.0
  0
LTYPE
  5
26
330
2
100
AcDbSymbolTableRecord
100
AcDbLinetypeTableRecord
  2
Continuous
 70
0
  3

 72
65
 73
0
 40
0.0
  0
ENDTAB
  0
TABLE
  2
LAYER
  5
1
330
0
100
AcDbSymbolTable
 70
7
  0
LAYER
  5
27
330
1
100
AcDbSymbolTableRecord
100
AcDbLayerTableRecord
  2
0
 70
0
 62
7
  6
Continuous
370
-3
390
13
347
21
  0
LAYER
  5
28
330
1
100
AcDbSymbolTableRecord
100
AcDbLayerTableRecord
  2
Defpoints
 70
0
 62
7
  6
Continuous
290
0
370
-3
390
13
347
21
  0
LAYER
  5
2F
330
1
100
AcDbSymbolTableRecord
100
AcDbLayerTableRecord
  2
CUT_OUTER
 70
0
 62
1
  6
Continuous
370
-3
390
13
347
21
  0
LAYER
  5
30
330
1
100
AcDbSymbolTableRecord
100
AcDbLayerTableRecord
  2
CUT_INNER
 70
0
 62
1
  6
Continuous
370
-3
390
13
347
21
  0
LAYER
  5
32
330
1
100
AcDbSymbolTableRecord
100
AcDbLayerTableRecord
  2
REFERENCE
 70
0
 62
8
  6
Continuous
290
0
370
-3
390
13
347
21
  0
LAYER
  5
5D
330
1
100
AcDbSymbolTableRecord
100
AcDbLayerTableRecord
  2
ENGRAVE_LINES
 70
0
 62
4
  6
Continuous
370
-3
390
13
347
21
  0
LAYER
  5
5E
330
1
100
AcDbSymbolTableRecord
100
AcDbLayerTableRecord
  2
ENGRAVE_FILL
 70
0
 62
5
  6
Continuous
370
-3
390
13
347
21
  0
ENDTAB
  0
TABLE
  2
STYLE
  5
5
330
0
100
AcDbSymbolTable
 70
1
  0
STYLE
  5
29
330
5
100
AcDbSymbolTableRecord
100
AcDbTextStyleTableRecord
  2
Standard
 70
0
 40
0.0
 41
1.0
 50
0.0
 71
0
 42
2.5
  3
txt
  4

  0
ENDTAB
  0
TABLE
  2
VIEW
  5
7
330
0
100
AcDbSymbolTable
 70
0
  0
ENDTAB
  0
TABLE
  2
UCS
  5
6
330
0
100
AcDbSymbolTable
 70
0
  0
ENDTAB
  0
TABLE
  2
APPID
  5
3
330
0
100
AcDbSymbolTable
 70
3
  0
APPID
  5
2A
330
3
100
AcDbSymbolTableRecord
100
AcDbRegAppTableRecord
  2
ACAD
 70
0
  0
APPID
  5
5A
330
3
100
AcDbSymbolTableRecord
100
AcDbRegAppTableRecord
  2
HATCHBACKGROUNDCOLOR
 70
0
  0
APPID
  5
5B
330
3
100
AcDbSymbolTableRecord
100
AcDbRegAppTableRecord
  2
EZDXF
 70
0
  0
ENDTAB
  0
TABLE
  2
DIMSTYLE
  5
4
330
0
100
AcDbSymbolTable
 70
1
100
AcDbDimStyleTable
  0
DIMSTYLE
105
2B
330
4
100
AcDbSymbolTableRecord
100
AcDbDimStyleTableRecord
  2
Standard
 70
0
 40
1.0
 41
2.5
 42
0.625
 43
3.75
 44
1.25
 45
0.0
 46
0.0
 47
0.0
 48
0.0
 49
2.5
140
2.5
141
2.5
142
0.0
143
0.03937007874
144
1.0
145
0.0
146
1.0
147
0.625
148
0.0
 69
0
 70
0
 71
0
 72
0
 73
0
 74
0
 75
0
 76
0
 77
1
 78
8
 79
3
170
0
171
3
172
1
173
0
174
0
175
0
176
0
177
0
178
0
179
2
271
2
272
2
273
2
274
3
275
0
276
0
277
2
278
44
279
0
280
0
281
0
282
0
283
0
284
8
285
0
286
0
288
0
289
3
290
0
371
-2
372
-2
  0
ENDTAB
  0
TABLE
  2
BLOCK_RECORD
  5
9
330
0
100
AcDbSymbolTable
 70
2
  0
BLOCK_RECORD
  5
17
330
9
100
AcDbSymbolTableRecord
100
AcDbBlockTableRecord
  2
*Model_Space
340
1A
 70
0
280
1
281
0
  0
BLOCK_RECORD
  5
1B
330
9
100
AcDbSymbolTableRecord
100
AcDbBlockTableRecord
  2
*Paper_Space
340
1E
 70
0
280
1
281
0
  0
ENDTAB
  0
ENDSEC
  0
SECTION
  2
BLOCKS
  0
BLOCK
  5
18
330
17
100
AcDbEntity
  8
0
100
AcDbBlockBegin
  2
*Model_Space
 70
0
 10
0.0
 20
0.0
 30
0.0
  3
*Model_Space
  1

  0
ENDBLK
  5
19
330
17
100
AcDbEntity
  8
0
100
AcDbBlockEnd
  0
BLOCK
  5
1C
330
1B
100
AcDbEntity
  8
0
100
AcDbBlockBegin
  2
*Paper_Space
 70
0
 10
0.0
 20
0.0
 30
0.0
  3
*Paper_Space
  1

  0
ENDBLK
  5
1D
330
1B
100
AcDbEntity
  8
0
100
AcDbBlockEnd
  0
ENDSEC
  0
SECTION
  2
ENTITIES
  0
LWPOLYLINE
  5
33
330
17
100
AcDbEntity
  8
CUT_OUTER
100
AcDbPolyline
 90
68
 70
1
 10
31.9754
 20
-20.9039
 10
31.4901
 20
-20.9759
 10
31.0
 20
-21.0
 10
-31.0
 20
-21.0
 10
-31.4901
 20
-20.9759
 10
-31.9754
 20
-20.9039
 10
-32.4514
 20
-20.7847
 10
-32.9134
 20
-20.6194
 10
-33.357
 20
-20.4096
 10
-33.7778
 20
-20.1573
 10
-34.172
 20
-19.8651
 10
-34.5355
 20
-19.5355
 10
-34.8651
 20
-19.172
 10
-35.1573
 20
-18.7778
 10
-35.4096
 20
-18.357
 10
-35.6194
 20
-17.9134
 10
-35.7847
 20
-17.4514
 10
-35.9039
 20
-16.9754
 10
-35.9759
 20
-16.4901
 10
-36.0
 20
-16.0
 10
-36.0
 20
16.0
 10
-35.9759
 20
16.4901
 10
-35.9039
 20
16.9754
 10
-35.7847
 20
17.4514
 10
-35.6194
 20
17.9134
 10
-35.4096
 20
18.357
 10
-35.1573
 20
18.7778
 10
-34.8651
 20
19.172
 10
-34.5355
 20
19.5355
 10
-34.172
 20
19.8651
 10
-33.7778
 20
20.1573
 10
-33.357
 20
20.4096
 10
-32.9134
 20
20.6194
 10
-32.4514
 20
20.7847
 10
-31.9754
 20
20.9039
 10
-31.4901
 20
20.9759
 10
-31.0
 20
21.0
 10
31.0
 20
21.0
 10
31.4901
 20
20.9759
 10
31.9754
 20
20.9039
 10
32.4514
 20
20.7847
 10
32.9134
 20
20.6194
 10
33.357
 20
20.4096
 10
33.7778
 20
20.1573
 10
34.172
 20
19.8651
 10
34.5355
 20
19.5355
 10
34.8651
 20
19.172
 10
35.1573
 20
18.7778
 10
35.4096
 20
18.357
 10
35.6194
 20
17.9134
 10
35.7847
 20
17.4514
 10
35.9039
 20
16.9754
 10
35.9759
 20
16.4901
 10
36.0
 20
16.0
 10
36.0
 20
-16.0
 10
35.9759
 20
-16.4901
 10
35.9039
 20
-16.9754
 10
35.7847
 20
-17.4514
 10
35.6194
 20
-17.9134
 10
35.4096
 20
-18.357
 10
35.1573
 20
-18.7778
 10
34.8651
 20
-19.172
 10
34.5355
 20
-19.5355
 10
34.172
 20
-19.8651
 10
33.7778
 20
-20.1573
 10
33.357
 20
-20.4096
 10
32.9134
 20
-20.6194
 10
32.4514
 20
-20.7847
  0
LWPOLYLINE
  5
34
330
17
100
AcDbEntity
  8
ENGRAVE_LINES
100
AcDbPolyline
 90
18
 70
1
 10
-16.083149157926016
 20
-2.6855584910871415
 10
-16.06363961030679
 20
-2.6563603896932104
 10
-16.03444150891286
 20
-2.636850842073984
 10
-16.0
 20
-2.63
 10
-15.965558491087142
 20
-2.636850842073984
 10
-15.936360389693212
 20
-2.6563603896932104
 10
-15.916850842073984
 20
-2.6855584910871415
 10
-15.91
 20
-2.7199999999999998
 10
-15.91
 20
-7.370000000000001
 10
-15.916850842073984
 20
-7.404441508912859
 10
-15.936360389693212
 20
-7.43363961030679
 10
-15.965558491087142
 20
-7.453149157926017
 10
-16.0
 20
-7.460000000000001
 10
-16.03444150891286
 20
-7.453149157926017
 10
-16.06363961030679
 20
-7.43363961030679
 10
-16.083149157926016
 20
-7.404441508912859
 10
-16.09
 20
-7.370000000000001
 10
-16.09
 20
-2.7199999999999998
  0
LWPOLYLINE
  5
35
330
17
100
AcDbEntity
  8
ENGRAVE_LINES
100
AcDbPolyline
 90
18
 70
1
 10
-17.487221978704927
 20
-2.373192250635196
 10
-17.458023877310996
 20
-2.3536827030159695
 10
-17.423582368398137
 20
-2.3468318609419856
 10
-17.389140859485277
 20
-2.3536827030159695
 10
-17.359942758091346
 20
-2.373192250635196
 10
-17.34043321047212
 20
-2.4023903520291277
 10
-17.333582368398137
 20
-2.4368318609419855
 10
-17.34043321047212
 20
-2.4712733698548437
 10
-18.230172190720957
 20
-4.619293282943585
 10
-18.249681738340183
 20
-4.648491384337516
 10
-18.278879839734113
 20
-4.668000931956743
 10
-18.313321348646973
 20
-4.674851774030727
 10
-18.347762857559832
 20
-4.668000931956743
 10
-18.376960958953763
 20
-4.648491384337516
 10
-18.39647050657299
 20
-4.619293282943585
 10
-18.403321348646973
 20
-4.584851774030727
 10
-18.39647050657299
 20
-4.550410265117869
 10
-17.506731526324153
 20
-2.402390352029127
  0
LWPOLYLINE
  5
36
330
17
100
AcDbEntity
  8
ENGRAVE_LINES
100
AcDbPolyline
 90
18
 70
1
 10
-18.664878734926816
 20
-1.5472880680879408
 10
-18.630437226013957
 20
-1.5404372260139565
 10
-18.595995717101097
 20
-1.5472880680879408
 10
-18.566797615707166
 20
-1.5667976157071672
 10
-18.54728806808794
 20
-1.5959957171010986
 10
-18.540437226013957
 20
-1.6304372260139566
 10
-18.54728806808794
 20
-1.6648787349268146
 10
-18.566797615707166
 20
-1.694076836320746
 10
-20.21082088196589
 20
-3.3381001025794683
 10
-20.24001898335982
 20
-3.357609650198695
 10
-20.27446049227268
 20
-3.364460492272679
 10
-20.30890200118554
 20
-3.357609650198695
 10
-20.33810010257947
 20
-3.3381001025794683
 10
-20.357609650198697
 20
-3.3089020011855372
 10
-20.36446049227268
 20
-3.274460492272679
 10
-20.357609650198697
 20
-3.2400189833598207
 10
-20.33810010257947
 20
-3.2108208819658897
 10
-18.694076836320747
 20
-1.5667976157071672
  0
LWPOLYLINE
  5
37
330
17
100
AcDbEntity
  8
ENGRAVE_LINES
100
AcDbPolyline
 90
18
 70
1
 10
-19.373192250635196
 20
-0.3599427580913442
 10
-19.35368270301597
 20
-0.3891408594852754
 10
-19.346831860941986
 20
-0.42358236839813346
 10
-19.35368270301597
 20
-0.45802387731099153
 10
-19.373192250635196
 20
-0.48722197870492273
 10
-19.402390352029126
 20
-0.5067315263241493
 10
-21.55041026511787
 20
-1.3964705065729828
 10
-21.584851774030728
 20
-1.4033213486469671
 10
-21.619293282943588
 20
-1.3964705065729828
 10
-21.648491384337518
 20
-1.3769609589537564
 10
-21.668000931956744
 20
-1.347762857559825
 10
-21.674851774030728
 20
-1.313321348646967
 10
-21.668000931956744
 20
-1.278879839734109
 10
-21.648491384337518
 20
-1.2496817383401777
 10
-21.619293282943588
 20
-1.2301721907209513
 10
-19.471273369854845
 20
-0.3404332104721176
 10
-19.436831860941986
 20
-0.3335823683981335
 10
-19.402390352029126
 20
-0.34043321047211766
  0
LWPOLYLINE
  5
38
330
17
100
AcDbEntity
  8
ENGRAVE_LINES
100
AcDbPolyline
 90
48
 70
1
 10
-16.0
 20
0.7
 10
-16.039157857666016
 20
0.7025665415878568
 10
-16.077645713530757
 20
0.7102222521132795
 10
-16.114805029709526
 20
0.7228361402466139
 10
-16.15
 20
0.7401923788646684
 10
-16.182628428702618
 20
0.7619939979126293
 10
-16.212132034355964
 20
0.7878679656440357
 10
-16.23800600208737
 20
0.8173715712973837
 10
-16.25980762113533
 20
0.8499999999999999
 10
-16.277163859753387
 20
0.885194970290473
 10
-16.28977774788672
 20
0.9223542864692437
 10
-16.297433458412144
 20
0.9608421423339844
 10
-16.3
 20
1.0
 10
-16.297433458412144
 20
1.0391578576660154
 10
-16.28977774788672
 20
1.077645713530756
 10
-16.277163859753387
 20
1.1148050297095267
 10
-16.25980762113533
 20
1.15
 10
-16.23800600208737
 20
1.182628428702616
 10
-16.212132034355964
 20
1.212132034355964
 10
-16.182628428702618
 20
1.2380060020873704
 10
-16.15
 20
1.2598076211353315
 10
-16.114805029709526
 20
1.2771638597533859
 10
-16.077645713530757
 20
1.2897777478867205
 10
-16.039157857666016
 20
1.2974334584121432
 10
-16.0
 20
1.3
 10
-15.960842142333984
 20
1.2974334584121432
 10
-15.922354286469243
 20
1.2897777478867205
 10
-15.885194970290474
 20
1.277163859753386
 10
-15.85
 20
1.2598076211353317
 10
-15.817371571297384
 20
1.2380060020873707
 10
-15.787867965644036
 20
1.2121320343559643
 10
-15.76199399791263
 20
1.1826284287026163
 10
-15.740192378864668
 20
1.1500000000000001
 10
-15.722836140246613
 20
1.114805029709527
 10
-15.71022225211328
 20
1.0776457135307564
 10
-15.702566541587856
 20
1.0391578576660159
 10
-15.7
 20
1.0
 10
-15.702566541587856
 20
0.9608421423339846
 10
-15.71022225211328
 20
0.9223542864692438
 10
-15.722836140246613
 20
0.8851949702904731
 10
-15.740192378864668
 20
0.8500000000000001
 10
-15.76199399791263
 20
0.8173715712973838
 10
-15.787867965644036
 20
0.7878679656440357
 10
-15.817371571297384
 20
0.7619939979126295
 10
-15.85
 20
0.7401923788646685
 10
-15.885194970290472
 20
0.7228361402466139
 10
-15.922354286469243
 20
0.7102222521132795
 10
-15.960842142333984
 20
0.7025665415878569
  0
LWPOLYLINE
  5
39
330
17
100
AcDbEntity
  8
ENGRAVE_LINES
100
AcDbPolyline
 90
123
 70
1
 10
-13.221611915405926
 20
-0.5671374520256379
 10
-13.226175952422432
 20
-0.5752016681162219
 10
-13.3974723533138
 20
-0.8445080618933921
 10
-13.402841371105982
 20
-0.852060257798616
 10
-13.600920231709484
 20
-1.1023264274452855
 10
-13.607037317353093
 20
-1.1092865480097882
 10
-13.829798952470096
 20
-1.3378596098687874
 10
-13.836599263335556
 20
-1.3441538760831104
 10
-14.081682344217223
 20
-1.548610898836424
 10
-14.08909379531764
 20
-1.554172589912866
 10
-14.353900380337107
 20
-1.7323462782563661
 10
-14.361844408447066
 20
-1.7371164388859295
 10
-14.643567481926972
 20
-1.8871181073987608
 10
-14.651959878372265
 20
-1.8910461726920962
 10
-14.947613105649245
 20
-2.011285766371984
 10
-14.956364908939765
 20
-2.0143300978597933
 10
-15.262814292254786
 20
-2.10353304710163
 10
-15.271832731098465
 20
-2.1056613741128025
 10
-15.585829830752724
 20
-2.1628821054635314
 10
-15.595019307454292
 20
-2.1640718672022823
 10
-15.913235676078136
 20
-2.188703826674738
 10
-15.922498779898483
 20
-2.1889424113706584
 10
-16.24156124482155
 20
-2.180724494066721
 10
-16.25079978455579
 20
-2.180009372662682
 10
-16.567326204276473
 20
-2.13902869055015
 10
-16.576442249105142
 20
-2.1373674435109353
 10
-16.88707736483185
 20
-2.064058402015
 10
-16.895974282411963
 20
-2.061468638972495
 10
-17.197425284641046
 20
-1.9566083321701646
 10
-17.20600876543296
 20
-1.9531175052568774
 10
-17.495080198548578
 20
-1.8178174784864396
 10
-17.503259255520575
 20
-1.8134625913360671
 10
-17.776886890419163
 20
-1.6491570585399886
 10
-17.784574823532633
 20
-1.6439842740396937
 10
-18.039858139213695
 20
-1.4524149147400367
 10
-18.0469734544651
 20
-1.4464790656923594
 10
-18.281206384275375
 20
-1.2296765627545632
 10
-18.287673657552965
 20
-1.2230405706360763
 10
-18.49837327416615
 20
-0.9833030845254217
 10
-18.504123950764313
 20
-0.9760372925034217
 10
-18.689056785828388
 20
-0.7159061002123723
 10
-18.69402990714459
 20
-0.7080875274898092
 10
-18.85123562660198
 20
-0.43032008436970137
 10
-18.855378476313096
 20
-0.42203160976246706
 10
-18.983190660429358
 20
-0.12957231981080725
 10
-18.986459323297833
 20
-0.12090180321167057
 10
-19.083523131125396
 20
0.18314919234271318
 10
-19.085882958511675
 20
0.19210984130083156
 10
-19.151169489540923
 20
0.5045295262660496
 10
-19.152595466687654
 20
0.5136853224750455
 10
-19.18541266744829
 20
0.8311619704695632
 10
-19.185889678642976
 20
0.8404158602119258
 10
-19.185889678642976
 20
1.1595841397880735
 10
-19.18541266744829
 20
1.1688380295304361
 10
-19.152595466687654
 20
1.4863146775249538
 10
-19.151169489540923
 20
1.4954704737339497
 10
-19.085882958511675
 20
1.8078901586991667
 10
-19.083523131125396
 20
1.816850807657284
 10
-18.986459323297836
 20
2.120901803211669
 10
-18.98319066042936
 20
2.129572319810807
 10
-18.855378476313096
 20
2.4220316097624672
 10
-18.85123562660198
 20
2.430320084369701
 10
-18.69402990714459
 20
2.7080875274898095
 10
-18.689056785828388
 20
2.715906100212372
 10
-18.504123950764317
 20
2.9760372925034204
 10
-18.498373274166152
 20
2.9833030845254207
 10
-18.28767365755297
 20
3.223040570636076
 10
-18.28120638427538
 20
3.2296765627545634
 10
-18.0469734544651
 20
3.4464790656923587
 10
-18.039858139213695
 20
3.4524149147400354
 10
-17.784574823532633
 20
3.6439842740396933
 10
-17.776886890419163
 20
3.649157058539988
 10
-17.503259255520575
 20
3.813462591336067
 10
-17.495080198548578
 20
3.8178174784864396
 10
-17.206008765432962
 20
3.953117505256877
 10
-17.19742528464105
 20
3.9566083321701644
 10
-16.895974282411963
 20
4.061468638972495
 10
-16.88707736483185
 20
4.064058402015
 10
-16.576442249105142
 20
4.137367443510935
 10
-16.567326204276473
 20
4.13902869055015
 10
-16.250799784555795
 20
4.180009372662682
 10
-16.241561244821554
 20
4.180724494066721
 10
-15.922498779898484
 20
4.188942411370659
 10
-15.913235676078138
 20
4.188703826674738
 10
-15.595019307454294
 20
4.164071867202282
 10
-15.585829830752726
 20
4.162882105463532
 10
-15.271832731098467
 20
4.1056613741128025
 10
-15.262814292254788
 20
4.10353304710163
 10
-14.956364908939767
 20
4.014330097859794
 10
-14.947613105649246
 20
4.0112857663719845
 10
-14.651959878372265
 20
3.891046172692096
 10
-14.643567481926972
 20
3.8871181073987606
 10
-14.361844408447066
 20
3.7371164388859297
 10
-14.353900380337107
 20
3.732346278256366
 10
-14.08909379531764
 20
3.554172589912866
 10
-14.081682344217223
 20
3.548610898836424
 10
-13.836599263335556
 20
3.3441538760831113
 10
-13.829798952470096
 20
3.3378596098687883
 10
-13.607037317353093
 20
3.1092865480097895
 10
-13.600920231709484
 20
3.102326427445287
 10
-13.40284137110598
 20
2.852060257798616
 10
-13.397472353313798
 20
2.844508061893392
 10
-13.226175952422432
 20
2.5752016681162235
 10
-13.221611915405926
 20
2.5671374520256394
 10
-13.078913758689694
 20
2.2816455488875858
 10
-13.07520308237664
 20
2.273154795308345
 10
-12.962615805795869
 20
1.974503668004724
 10
-12.959797824278295
 20
1.9656763810370157
 10
-12.878514880973173
 20
1.657031805812933
 10
-12.876619465556194
 20
1.6479615568945882
 10
-12.827502474946577
 20
1.332595243029183
 10
-12.82654971750514
 20
1.3233781790551484
 10
-12.810119331910366
 20
1.004633087929331
 10
-12.810795158652295
 20
0.9999999999999996
 10
-12.810119331910366
 20
0.9953669120706681
 10
-12.82654971750514
 20
0.6766218209448531
 10
-12.827502474946577
 20
0.6674047569708186
 10
-12.876619465556194
 20
0.3520384431054128
 10
-12.878514880973173
 20
0.3429681941870681
 10
-12.959797824278295
 20
0.03432361896298459
 10
-12.962615805795869
 20
0.02549633199527626
 10
-13.07520308237664
 20
-0.27315479530834486
 10
-13.078913758689694
 20
-0.2816455488875863
  0
LWPOLYLINE
  5
3A
330
17
100
AcDbEntity
  8
ENGRAVE_LINES
100
AcDbPolyline
 90
61
 70
1
 10
-14.724068337639618
 20
3.7260555891974056
 10
-15.011126688090561
 20
3.842799721296138
 10
-15.308667341650573
 20
3.9294094691435086
 10
-15.613536293372485
 20
3.9849667478663586
 10
-15.922501856525535
 20
4.008882636489193
 10
-16.2322889192787
 20
4.000903620643035
 10
-16.53961366170081
 20
3.9611142798807997
 10
-16.841218365068745
 20
3.889936391112997
 10
-17.133905944496373
 20
3.7881244576675437
 10
-17.41457383882962
 20
3.6567577113668026
 10
-17.680246898566573
 20
3.4972286724017785
 10
-17.92810892318233
 20
3.311228388271661
 10
-18.155532513555123
 20
3.100728508259667
 10
-18.360106923050623
 20
2.8679603834601717
 10
-18.539663612036037
 20
2.615391413901974
 10
-18.692299234939682
 20
2.345698893494142
 10
-18.81639581618746
 20
2.061741630044676
 10
-18.91063790114655
 20
1.7665296411863916
 10
-18.974026500271712
 20
1.4631922474413042
 10
-19.005889678642976
 20
1.1549449006446268
 10
-19.005889678642976
 20
0.8450550993553726
 10
-18.974026500271712
 20
0.5368077525586952
 10
-18.91063790114655
 20
0.23347035881361022
 10
-18.816395816187455
 20
-0.061741630044681334
 10
-18.692299234939682
 20
-0.34569889349414085
 10
-18.539663612036037
 20
-0.6153914139019705
 10
-18.36010692305062
 20
-0.8679603834601738
 10
-18.155532513555116
 20
-1.1007285082596714
 10
-17.928108923182332
 20
-1.3112283882716596
 10
-17.680246898566573
 20
-1.4972286724017787
 10
-17.41457383882962
 20
-1.6567577113668026
 10
-17.13390594449637
 20
-1.788124457667545
 10
-16.841218365068745
 20
-1.8899363911129967
 10
-16.53961366170081
 20
-1.9611142798808
 10
-16.232288919278695
 20
-2.000903620643035
 10
-15.922501856525543
 20
-2.0088826364891923
 10
-15.613536293372482
 20
-1.984966747866358
 10
-15.308667341650574
 20
-1.9294094691435097
 10
-15.011126688090556
 20
-1.842799721296136
 10
-14.724068337639618
 20
-1.7260555891974063
 10
-14.45053518022426
 20
-1.5804145896900896
 10
-14.193426735360152
 20
-1.4074205536001951
 10
-13.95546841652396
 20
-1.2089072607461597
 10
-13.739182641092412
 20
-0.9869790014165379
 10
-13.546862092090668
 20
-0.7439882703694906
 10
-13.380545415181908
 20
-0.4825108298031468
 10
-13.241995608516085
 20
-0.2053184056354473
 10
-13.132681334511004
 20
0.08465069348005821
 10
-13.053761351665337
 20
0.3843227229568443
 10
-13.006072231430222
 20
0.6905210847328506
 10
-12.99011949034382
 20
0.9999999999999997
 10
-13.006072231430222
 20
1.309478915267151
 10
-13.053761351665337
 20
1.615677277043157
 10
-13.132681334511004
 20
1.9153493065199418
 10
-13.241995608516087
 20
2.2053184056354493
 10
-13.380545415181906
 20
2.482510829803148
 10
-13.546862092090667
 20
2.7439882703694902
 10
-13.739182641092414
 20
2.9869790014165396
 10
-13.95546841652396
 20
3.2089072607461606
 10
-14.193426735360152
 20
3.407420553600195
 10
-14.450535180224259
 20
3.5804145896900885
  0
LWPOLYLINE
  5
3B
330
17
100
AcDbEntity
  8
ENGRAVE_LINES
100
AcDbPolyline
 90
18
 70
1
 10
-19.68555849108714
 20
1.0831491579260162
 10
-19.65636038969321
 20
1.0636396103067898
 10
-19.636850842073983
 20
1.0344415089128585
 10
-19.63
 20
1.0000000000000004
 10
-19.636850842073983
 20
0.9655584910871423
 10
-19.65636038969321
 20
0.9363603896932111
 10
-19.68555849108714
 20
0.9168508420739846
 10
-19.72
 20
0.9100000000000005
 10
-24.37
 20
0.9100000000000011
 10
-24.40444150891286
 20
0.9168508420739854
 10
-24.43363961030679
 20
0.9363603896932118
 10
-24.453149157926017
 20
0.9655584910871431
 10
-24.46
 20
1.000000000000001
 10
-24.453149157926017
 20
1.0344415089128591
 10
-24.43363961030679
 20
1.0636396103067904
 10
-24.40444150891286
 20
1.0831491579260168
 10
-24.37
 20
1.0900000000000012
 10
-19.72
 20
1.0900000000000005
  0
LWPOLYLINE
  5
3C
330
17
100
AcDbEntity
  8
ENGRAVE_LINES
100
AcDbPolyline
 90
18
 70
1
 10
-19.373192250635196
 20
2.4872219787049237
 10
-19.35368270301597
 20
2.4580238773109926
 10
-19.346831860941986
 20
2.4235823683981343
 10
-19.35368270301597
 20
2.389140859485276
 10
-19.373192250635196
 20
2.359942758091345
 10
-19.402390352029126
 20
2.3404332104721184
 10
-19.436831860941986
 20
2.3335823683981345
 10
-19.471273369854845
 20
2.3404332104721184
 10
-21.619293282943588
 20
3.2301721907209524
 10
-21.648491384337518
 20
3.249681738340179
 10
-21.668000931956744
 20
3.27887983973411
 10
-21.674851774030728
 20
3.3133213486469684
 10
-21.668000931956744
 20
3.3477628575598266
 10
-21.648491384337518
 20
3.3769609589537577
 10
-21.619293282943588
 20
3.3964705065729843
 10
-21.584851774030728
 20
3.4033213486469682
 10
-21.55041026511787
 20
3.3964705065729843
 10
-19.402390352029126
 20
2.5067315263241503
  0
LWPOLYLINE
  5
3D
330
17
100
AcDbEntity
  8
ENGRAVE_LINES
100
AcDbPolyline
 90
18
 70
1
 10
-18.54728806808794
 20
3.5959957171010983
 10
-18.566797615707166
 20
3.5667976157071672
 10
-18.595995717101097
 20
3.5472880680879406
 10
-18.630437226013957
 20
3.5404372260139567
 10
-18.664878734926816
 20
3.5472880680879406
 10
-18.694076836320747
 20
3.5667976157071672
 10
-20.33810010257947
 20
5.2108208819658905
 10
-20.357609650198697
 20
5.240018983359822
 10
-20.36446049227268
 20
5.27446049227268
 10
-20.357609650198697
 20
5.308902001185538
 10
-20.33810010257947
 20
5.338100102579469
 10
-20.30890200118554
 20
5.357609650198696
 10
-20.27446049227268
 20
5.36446049227268
 10
-20.24001898335982
 20
5.357609650198696
 10
-20.21082088196589
 20
5.338100102579469
 10
-18.566797615707166
 20
3.694076836320746
 10
-18.54728806808794
 20
3.664878734926815
 10
-18.540437226013957
 20
3.6304372260139566
  0
LWPOLYLINE
  5
3E
330
17
100
AcDbEntity
  8
ENGRAVE_LINES
100
AcDbPolyline
 90
18
 70
1
 10
-17.359942758091343
 20
4.373192250635197
 10
-17.389140859485273
 20
4.35368270301597
 10
-17.423582368398133
 20
4.346831860941986
 10
-17.458023877310993
 20
4.35368270301597
 10
-17.487221978704923
 20
4.373192250635197
 10
-17.50673152632415
 20
4.402390352029128
 10
-18.39647050657298
 20
6.55041026511787
 10
-18.403321348646966
 20
6.584851774030728
 10
-18.39647050657298
 20
6.619293282943586
 10
-18.376960958953756
 20
6.648491384337517
 10
-18.347762857559825
 20
6.668000931956744
 10
-18.313321348646966
 20
6.674851774030728
 10
-18.278879839734106
 20
6.668000931956744
 10
-18.249681738340175
 20
6.648491384337517
 10
-18.23017219072095
 20
6.619293282943586
 10
-17.340433210472117
 20
4.471273369854844
 10
-17.333582368398133
 20
4.436831860941986
 10
-17.340433210472117
 20
4.402390352029128
  0
LWPOLYLINE
  5
3F
330
17
100
AcDbEntity
  8
ENGRAVE_LINES
100
AcDbPolyline
 90
18
 70
1
 10
-15.916850842073984
 20
4.685558491087142
 10
-15.936360389693212
 20
4.65636038969321
 10
-15.965558491087142
 20
4.636850842073984
 10
-16.0
 20
4.63
 10
-16.03444150891286
 20
4.636850842073984
 10
-16.06363961030679
 20
4.65636038969321
 10
-16.083149157926016
 20
4.685558491087142
 10
-16.09
 20
4.72
 10
-16.09
 20
9.370000000000001
 10
-16.083149157926016
 20
9.404441508912859
 10
-16.06363961030679
 20
9.43363961030679
 10
-16.03444150891286
 20
9.453149157926017
 10
-16.0
 20
9.46
 10
-15.965558491087142
 20
9.453149157926017
 10
-15.936360389693212
 20
9.43363961030679
 10
-15.916850842073984
 20
9.404441508912859
 10
-15.91
 20
9.370000000000001
 10
-15.91
 20
4.72
  0
LWPOLYLINE
  5
40
330
17
100
AcDbEntity
  8
ENGRAVE_LINES
100
AcDbPolyline
 90
18
 70
1
 10
-14.666417631601865
 20
-2.436831860941986
 10
-14.659566789527881
 20
-2.4023903520291277
 10
-14.640057241908654
 20
-2.3731922506351966
 10
-14.610859140514723
 20
-2.35368270301597
 10
-14.576417631601865
 20
-2.346831860941986
 10
-14.541976122689007
 20
-2.35368270301597
 10
-14.512778021295077
 20
-2.3731922506351966
 10
-14.49326847367585
 20
-2.4023903520291277
 10
-13.603529493427015
 20
-4.55041026511787
 10
-13.59667865135303
 20
-4.584851774030728
 10
-13.603529493427015
 20
-4.619293282943586
 10
-13.623039041046242
 20
-4.648491384337517
 10
-13.652237142440173
 20
-4.668000931956744
 10
-13.68667865135303
 20
-4.674851774030728
 10
-13.721120160265889
 20
-4.668000931956744
 10
-13.75031826165982
 20
-4.648491384337517
 10
-13.769827809279047
 20
-4.619293282943586
 10
-14.659566789527881
 20
-2.471273369854844
  0
LWPOLYLINE
  5
41
330
17
100
AcDbEntity
  8
ENGRAVE_LINES
100
AcDbPolyline
 90
18
 70
1
 10
-13.45271193191206
 20
-1.664878734926815
 10
-13.459562773986043
 20
-1.630437226013957
 10
-13.45271193191206
 20
-1.595995717101099
 10
-13.433202384292832
 20
-1.5667976157071677
 10
-13.404004282898901
 20
-1.5472880680879413
 10
-13.369562773986043
 20
-1.540437226013957
 10
-13.335121265073186
 20
-1.5472880680879413
 10
-13.305923163679255
 20
-1.5667976157071677
 10
-11.661899897420533
 20
-3.2108208819658914
 10
-11.642390349801305
 20
-3.2400189833598225
 10
-11.635539507727321
 20
-3.2744604922726808
 10
-11.642390349801305
 20
-3.308902001185539
 10
-11.661899897420533
 20
-3.33810010257947
 10
-11.691097998814463
 20
-3.3576096501986967
 10
-11.725539507727321
 20
-3.3644604922726806
 10
-11.759981016640179
 20
-3.3576096501986967
 10
-11.78917911803411
 20
-3.33810010257947
 10
-13.433202384292832
 20
-1.6940768363207463
  0
LWPOLYLINE
  5
42
330
17
100
AcDbEntity
  8
ENGRAVE_LINES
100
AcDbPolyline
 90
18
 70
1
 10
-12.653168139058014
 20
-0.42358236839813607
 10
-12.64631729698403
 20
-0.389140859485278
 10
-12.626807749364803
 20
-0.3599427580913468
 10
-12.597609647970872
 20
-0.3404332104721203
 10
-12.563168139058014
 20
-0.33358236839813615
 10
-12.528726630145156
 20
-0.34043321047212033
 10
-10.380706717056414
 20
-1.2301721907209557
 10
-10.351508615662484
 20
-1.2496817383401821
 10
-10.331999068043256
 20
-1.2788798397341135
 10
-10.325148225969272
 20
-1.3133213486469715
 10
-10.331999068043256
 20
-1.3477628575598297
 10
-10.351508615662484
 20
-1.3769609589537608
 10
-10.380706717056414
 20
-1.3964705065729872
 10
-10.415148225969272
 20
-1.4033213486469716
 10
-10.44958973488213
 20
-1.3964705065729872
 10
-12.597609647970872
 20
-0.5067315263241519
 10
-12.626807749364803
 20
-0.48722197870492534
 10
-12.64631729698403
 20
-0.45802387731099414
  0
LWPOLYLINE
  5
43
330
17
100
AcDbEntity
  8
ENGRAVE_LINES
100
AcDbPolyline
 90
87
 70
1
 10
-14.509783138310697
 20
-0.7804117286239017
 10
-14.519882513480338
 20
-0.7888164926518828
 10
-14.784893857630724
 20
-0.9784158513975576
 10
-14.796109350933522
 20
-0.9852605681307836
 10
-15.085902454768556
 20
-1.1342534751257907
 10
-15.097995027436543
 20
-1.1393922613105487
 10
-15.406393454072337
 20
-1.2446031914163576
 10
-15.419105373913618
 20
-1.2479265227468248
 10
-15.739536146312433
 20
-1.3071130876502106
 10
-15.752596480825392
 20
-1.3085501330888802
 10
-16.078230173389507
 20
-1.320450873915696
 10
-16.091360564218704
 20
-1.3199710053339695
 10
-16.41525686014011
 20
-1.2843322784549631
 10
-16.428177455801354
 20
-1.2819457234185363
 10
-16.74343306786512
 20
-1.1995271064229527
 10
-16.755868488293984
 20
-1.1952847302090086
 10
-17.05576429046007
 20
-1.0678428328270069
 10
-17.067449496259865
 20
-1.0618350543191437
 10
-17.345593730169263
 20
-0.8920860793351428
 10
-17.35627967146565
 20
-0.8844409439018497
 10
-17.606744175672755
 20
-0.6760027960079147
 10
-17.616203100179398
 20
-0.6668832464378484
 10
-17.833649658621038
 20
-0.4241984228764018
 10
-17.841679965784184
 20
-0.41379882653573985
 10
-18.021474082587066
 20
-0.14203973298368255
 10
-18.02790462035136
 20
-0.13058173921316646
 10
-18.16621429606543
 20
0.16445955106504756
 10
-18.170908008682805
 20
0.17673173502099995
 10
-18.264785412696586
 20
0.48876692915909364
 10
-18.26764226183159
 20
0.5015917430058143
 10
-18.315086560263808
 20
0.8239703525807035
 10
-18.316045657137046
 20
0.837074457676854
 10
-18.316045657137046
 20
1.1629255423231457
 10
-18.315086560263808
 20
1.1760296474192962
 10
-18.26764226183159
 20
1.4984082569941852
 10
-18.264785412696586
 20
1.511233070840906
 10
-18.170908008682805
 20
1.8232682649789989
 10
-18.16621429606543
 20
1.835540448934951
 10
-18.02790462035136
 20
2.1305817392131665
 10
-18.021474082587066
 20
2.1420397329836827
 10
-17.841679965784184
 20
2.413798826535739
 10
-17.833649658621038
 20
2.4241984228764006
 10
-17.616203100179398
 20
2.666883246437848
 10
-17.606744175672755
 20
2.6760027960079142
 10
-17.35627967146565
 20
2.8844409439018497
 10
-17.345593730169263
 20
2.892086079335143
 10
-17.067449496259865
 20
3.0618350543191433
 10
-17.05576429046007
 20
3.067842832827006
 10
-16.755868488293984
 20
3.195284730209008
 10
-16.74343306786512
 20
3.199527106422952
 10
-16.428177455801354
 20
3.281945723418536
 10
-16.41525686014011
 20
3.284332278454963
 10
-16.091360564218704
 20
3.3199710053339695
 10
-16.078230173389507
 20
3.320450873915696
 10
-15.752596480825394
 20
3.3085501330888807
 10
-15.739536146312435
 20
3.307113087650211
 10
-15.41910537391362
 20
3.247926522746825
 10
-15.406393454072338
 20
3.244603191416358
 10
-15.097995027436541
 20
3.1393922613105483
 10
-15.085902454768554
 20
3.1342534751257904
 10
-14.796109350933522
 20
2.985260568130784
 10
-14.784893857630724
 20
2.978415851397558
 10
-14.51988251348034
 20
2.7888164926518844
 10
-14.509783138310699
 20
2.7804117286239034
 10
-14.275201810546022
 20
2.554246899286258
 10
-14.266433804157247
 20
2.5444612209168445
 10
-14.06728218651116
 20
2.2865512316684415
 10
-14.06003242373685
 20
2.2755932037026327
 10
-13.900555087182354
 20
1.9914349581938167
 10
-13.894978084129368
 20
1.9795381319729215
 10
-13.778574011218508
 20
1.6751879698653125
 10
-13.774788632024404
 20
1.66260590558555
 10
-13.70393877347632
 20
1.3445505221868708
 10
-13.702025696926635
 20
1.3315513847040124
 10
-13.678240094470281
 20
1.0065695783194815
 10
-13.6790541817913
 20
0.9999999999999997
 10
-13.678240094470281
 20
0.993430421680518
 10
-13.702025696926635
 20
0.6684486152959876
 10
-13.70393877347632
 20
0.655449477813129
 10
-13.774788632024404
 20
0.3373940944144519
 10
-13.778574011218508
 20
0.3248120301346902
 10
-13.894978084129367
 20
0.020461868027079715
 10
-13.900555087182354
 20
0.008565041806183726
 10
-14.060032423736851
 20
-0.2755932037026337
 10
-14.06728218651116
 20
-0.28655123166844215
 10
-14.266433804157245
 20
-0.5444612209168433
 10
-14.27520181054602
 20
-0.5542468992862567
  0
LWPOLYLINE
  5
44
330
17
100
AcDbEntity
  8
ENGRAVE_LINES
100
AcDbPolyline
 90
43
 70
1
 10
-16.691532097861337
 20
3.0270461513277165
 10
-16.979302981516255
 20
2.9047567856233987
 10
-17.246201722337226
 20
2.741870835977441
 10
-17.486539837039974
 20
2.5418599336120593
 10
-17.6951949359727
 20
2.308986963662178
 10
-17.8677198979582
 20
2.04821520917988
 10
-18.00043765296105
 20
1.7651025673729581
 10
-18.090519552451305
 20
1.4656830926754698
 10
-18.136045657137046
 20
1.1563383913533989
 10
-18.136045657137046
 20
0.8436616086466008
 10
-18.090519552451305
 20
0.5343169073245294
 10
-18.00043765296105
 20
0.23489743262704132
 10
-17.8677198979582
 20
-0.048215209179880154
 10
-17.6951949359727
 20
-0.30898696366217876
 10
-17.48653983703997
 20
-0.5418599336120602
 10
-17.246201722337226
 20
-0.7418708359774411
 10
-16.97930298151626
 20
-0.9047567856233986
 10
-16.691532097861337
 20
-1.0270461513277167
 10
-16.389022408144125
 20
-1.1061325475731
 10
-16.078221381198656
 20
-1.1403303851294517
 10
-15.765753201317
 20
-1.128910796461838
 10
-15.458277585261648
 20
-1.0721171702765897
 10
-15.162347841964953
 20
-0.9711599641135773
 10
-14.884271200126792
 20
-0.8281909055452884
 10
-14.629974380585132
 20
-0.6462571318393483
 10
-14.404877278551012
 20
-0.4292362455179311
 10
-14.21377744795192
 20
-0.18175366999212608
 10
-14.060747849899055
 20
0.09091593330766264
 10
-13.94905004459254
 20
0.38296108518250765
 10
-13.881064676828318
 20
0.6881573502544355
 10
-13.858240736687474
 20
0.9999999999999998
 10
-13.881064676828318
 20
1.3118426497455649
 10
-13.94905004459254
 20
1.6170389148174926
 10
-14.060747849899053
 20
1.90908406669233
 10
-14.213777447951927
 20
2.181753669992133
 10
-14.404877278551014
 20
2.4292362455179317
 10
-14.629974380585134
 20
2.6462571318393504
 10
-14.88427120012679
 20
2.828190905545288
 10
-15.162347841964953
 20
2.971159964113577
 10
-15.458277585261651
 20
3.0721171702765906
 10
-15.765753201317
 20
3.128910796461838
 10
-16.078221381198656
 20
3.140330385129452
 10
-16.38902240814413
 20
3.1061325475731
  0
LWPOLYLINE
  5
45
330
17
100
AcDbEntity
  8
ENGRAVE_LINES
100
AcDbPolyline
 90
18
 70
1
 10
-12.314441508912859
 20
0.9168508420739843
 10
-12.34363961030679
 20
0.9363603896932107
 10
-12.363149157926017
 20
0.965558491087142
 10
-12.370000000000001
 20
1.0
 10
-12.363149157926017
 20
1.034441508912858
 10
-12.34363961030679
 20
1.0636396103067893
 10
-12.314441508912859
 20
1.0831491579260157
 10
-12.280000000000001
 20
1.09
 10
-7.629999999999999
 20
1.09
 10
-7.595558491087141
 20
1.0831491579260157
 10
-7.56636038969321
 20
1.0636396103067893
 10
-7.546850842073983
 20
1.034441508912858
 10
-7.539999999999999
 20
1.0
 10
-7.546850842073983
 20
0.965558491087142
 10
-7.56636038969321
 20
0.9363603896932107
 10
-7.595558491087141
 20
0.9168508420739842
 10
-7.629999999999999
 20
0.91
 10
-12.280000000000001
 20
0.91
  0
LWPOLYLINE
  5
46
330
17
100
AcDbEntity
  8
ENGRAVE_LINES
100
AcDbPolyline
 90
240
 70
1
 10
-7.157890183011426
 20
-6.211448798174008
 10
-6.959982120624469
 20
-5.96175096688626
 10
-6.769123192249705
 20
-5.70662457160894
 10
-6.585462223938329
 20
-5.446268552230727
 10
-6.409142428988737
 20
-5.180885926543782
 10
-6.2403012962732305
 20
-4.910683631936752
 10
-6.079070483028234
 20
-4.6358723640310915
 10
-5.925575712191973
 20
-4.356666412386982
 10
-5.779936674369546
 20
-4.073283493406853
 10
-5.642266934501684
 20
-3.7859445805665097
 10
-5.512673843310336
 20
-3.4948737321068184
 10
-5.391258453589784
 20
-3.2002979163198493
 10
-5.278115441408659
 20
-2.902446834565671
 10
-5.173333032284427
 20
-2.601552742158243
 10
-5.076992932387817
 20
-2.2978502672597743
 10
-4.989170264830723
 20
-1.991576227924531
 10
-4.909933511087565
 20
-1.6829694474355252
 10
-4.839344457595391
 20
-1.372270568076994
 10
-4.77745814757476
 20
-1.059721863489083
 10
-4.724322838108634
 20
-0.7455670497498915
 10
-4.679979962512994
 20
-0.43005109533322244
 10
-4.64446409802836
 20
-0.11342003008936155
 10
-4.617802938857514
 20
0.20407924660151974
 10
-4.6000172745703924
 20
0.5221991583540148
 10
-4.591120973893002
 20
0.8406916448302557
 10
-4.591120973893002
 20
1.1593083551697454
 10
-4.6000172745703924
 20
1.477800841645987
 10
-4.617802938857514
 20
1.7959207533984805
 10
-4.64446409802836
 20
2.113420030089363
 10
-4.679979962512994
 20
2.4300510953332233
 10
-4.724322838108634
 20
2.745567049749894
 10
-4.77745814757476
 20
3.0597218634890817
 10
-4.83934445759539
 20
3.372270568076992
 10
-4.9099335110875675
 20
3.6829694474355312
 10
-4.989170264830727
 20
3.991576227924537
 10
-5.0769929323878165
 20
4.297850267259774
 10
-5.173333032284424
 20
4.601552742158235
 10
-5.278115441408659
 20
4.90244683456567
 10
-5.391258453589788
 20
5.200297916319856
 10
-5.51267384331034
 20
5.494873732106825
 10
-5.642266934501683
 20
5.785944580566507
 10
-5.779936674369548
 20
6.073283493406855
 10
-5.925575712191973
 20
6.356666412386982
 10
-6.079070483028236
 20
6.635872364031094
 10
-6.2403012962732305
 20
6.910683631936755
 10
-6.409142428988739
 20
7.1808859265437865
 10
-6.585462223938329
 20
7.446268552230728
 10
-6.769123192249705
 20
7.706624571608939
 10
-6.959982120624474
 20
7.961750966886266
 10
-7.15789018301141
 20
8.211448798173988
 10
-7.362693056656733
 20
8.45552335861442
 10
-7.574231042440148
 20
8.693784326207217
 10
-7.792339189403555
 20
8.92604591221691
 10
-8.016847423374813
 20
9.152127006045337
 10
-8.247580679586457
 20
9.37185131645623
 10
-8.48435903918586
 20
9.585047509041738
 10
-8.726997869530726
 20
9.791549339824035
 10
-8.975307968159882
 20
9.991195784887182
 10
-9.229095710327732
 20
10.183831165938795
 10
-9.488163199987046
 20
10.369305271703347
 10
-9.7523084241024
 20
10.547473475052405
 10
-10.021325410173613
 20
10.718196845780362
 10
-10.296083857838351
 20
10.881985752797284
 10
-10.322159807981938
 20
10.905505880293246
 10
-10.337250081490563
 20
10.937214478791951
 10
-10.339057321016208
 20
10.972284201611131
 10
-10.32730639072376
 20
11.005376001359394
 10
-10.303786263227797
 20
11.031451951502982
 10
-10.272077664729093
 20
11.046542225011606
 10
-10.237007941909912
 20
11.048349464537251
 10
-10.203916142161649
 20
11.036598534244803
 10
-9.92807822350574
 20
10.872166133368808
 10
-9.92593766979598
 20
10.870849255940229
 10
-9.654798518287562
 20
10.69877911807324
 10
-9.652695568523304
 20
10.697402986308013
 10
-9.386466610316669
 20
10.517829286567551
 10
-9.38440290431488
 20
10.51639497353183
 10
-9.12329173674328
 20
10.329457738087246
 10
-9.121268883719821
 20
10.327966362215191
 10
-8.865479113417315
 20
10.13381135909948
 10
-8.863498690732127
 20
10.132264083321136
 10
-8.613229774867268
 20
9.931042708765409
 10
-8.611293326794389
 20
9.929440739599883
 10
-8.366740417539495
 20
9.721309899979138
 10
-8.36484945406288
 20
9.719654486593797
 10
-8.126203246420264
 20
9.504776476076044
 10
-8.12435924205635
 20
9.50306890931245
 10
-7.891805825160089
 20
9.281611283306612
 10
-7.890010217808013
 20
9.279852894673963
 10
-7.663730929817224
 20
9.051988339175193
 10
-7.661985119637584
 20
9.05018049981205
 10
-7.4421564063344094
 20
8.816086696746401
 10
-7.440461754657469
 20
8.814230816351522
 10
-7.227255031859936
 20
8.574090305024916
 10
-7.225612860124095
 20
8.572187830758002
 10
-7.019194380021227
 20
8.326187865517573
 10
-7.017605968742609
 20
8.324240280870832
 10
-6.818136690255983
 20
8.072572685089625
 10
-6.816603278029922
 20
8.070581508730982
 10
-6.624238741302718
 20
7.813442525229844
 10
-6.6227615238379425
 20
7.811409309818722
 10
-6.437651728949444
 20
7.548999447842068
 10
-6.436231858135696
 20
7.546925778818688
 10
-6.258521148135723
 20
7.279449657683412
 10
-6.257159731145554
 20
7.2773371520325
 10
-6.086986679500096
 20
7.005003341571987
 10
-6.085684777925521
 20
7.002853646561904
 10
-5.92318208046133
 20
6.725874504489563
 10
-5.9219407094860355
 20
6.723689296387813
 10
-5.767235080918391
 20
6.442280802706899
 10
-5.766055208526122
 20
6.440061785473026
 10
-5.619267283650537
 20
6.154443374061949
 10
-5.618149829870293
 20
6.152192278018846
 10
-5.479394069495091
 20
5.862586665523217
 10
-5.4783399056837165
 20
5.860305246007861
 10
-5.34772450737697
 20
5.56693825817276
 10
-5.346734455539696
 20
5.564628294167463
 10
-5.224361269260001
 20
5.267728689745322
 10
-5.223436101409468
 20
5.26539198249053
 10
-5.109400550086412
 20
4.9651912748619225
 10
-5.10854098764068
 20
4.962829646451663
 10
-5.002931992766916
 20
4.659561923098153
 10
-5.0021387059869244
 20
4.657177215059219
 10
-4.905038618279862
 20
4.3510789550289655
 10
-4.904312225746779
 20
4.348673026884955
 10
-4.815796760933971
 20
4.039982916393474
 10
-4.815137829066843
 20
4.037557644214782
 10
-4.735276008845143
 20
3.7265163905246235
 10
-4.734685051459219
 20
3.7240736654655393
 10
-4.663539149673734
 20
3.410923809189985
 10
-4.6630166275798075
 20
3.40846553601403
 10
-4.6006421216646345
 20
3.0934512619912384
 10
-4.600188442309716
 20
3.0909793575858897
 10
-4.546633970028297
 20
2.7743463044708863
 10
-4.546249487177901
 20
2.7718626963528434
 10
-4.501556808696764
 20
2.4538577650759055
 10
-4.501241822159051
 20
2.451364389888069
 10
-4.465445787484488
 20
2.13223555112879
 10
-4.465200542876486
 20
2.1297343531301287
 10
-4.438329064679566
 20
1.8097304539573493
 10
-4.438153753235643
 20
1.8072233835068259
 10
-4.420227785086751
 20
1.4865939533351817
 10
-4.420122543509497
 20
1.484082965370918
 10
-4.41115606353937
 20
1.1630780213852925
 10
-4.411120973893002
 20
1.1605650739001714
 10
-4.411120973893002
 20
0.83943492609983
 10
-4.41115606353937
 20
0.836921978614709
 10
-4.420122543509497
 20
0.5159170346290836
 10
-4.420227785086751
 20
0.5134060466648197
 10
-4.438153753235643
 20
0.19277661649317412
 10
-4.438329064679566
 20
0.1902695460426506
 10
-4.465200542876486
 20
-0.12973435313012613
 10
-4.465445787484488
 20
-0.13223555112878693
 10
-4.501241822159051
 20
-0.45136438988806726
 10
-4.501556808696764
 20
-0.4538577650759039
 10
-4.546249487177901
 20
-0.7718626963528432
 10
-4.546633970028297
 20
-0.7743463044708865
 10
-4.600188442309716
 20
-1.0909793575858886
 10
-4.6006421216646345
 20
-1.0934512619912369
 10
-4.6630166275798075
 20
-1.40846553601403
 10
-4.663539149673734
 20
-1.4109238091899847
 10
-4.734685051459217
 20
-1.7240736654655362
 10
-4.735276008845141
 20
-1.7265163905246208
 10
-4.815137829066841
 20
-2.0375576442147803
 10
-4.815796760933969
 20
-2.0399829163934737
 10
-4.904312225746779
 20
-2.348673026884953
 10
-4.905038618279862
 20
-2.351078955028963
 10
-5.0021387059869244
 20
-2.657177215059218
 10
-5.002931992766916
 20
-2.6595619230981504
 10
-5.10854098764068
 20
-2.9628296464516626
 10
-5.109400550086412
 20
-2.965191274861922
 10
-5.223436101409466
 20
-3.2653919824905278
 10
-5.224361269259999
 20
-3.2677286897453204
 10
-5.3467344555396945
 20
-3.564628294167462
 10
-5.347724507376968
 20
-3.5669382581727596
 10
-5.478339905683715
 20
-3.8603052460078584
 10
-5.479394069495089
 20
-3.8625866655232146
 10
-5.618149829870291
 20
-4.152192278018844
 10
-5.619267283650535
 20
-4.154443374061947
 10
-5.766055208526122
 20
-4.440061785473026
 10
-5.767235080918391
 20
-4.442280802706899
 10
-5.921940709486034
 20
-4.7236892963878105
 10
-5.923182080461328
 20
-4.7258745044895605
 10
-6.085684777925521
 20
-5.002853646561902
 10
-6.086986679500096
 20
-5.005003341571985
 10
-6.257159731145552
 20
-5.277337152032495
 10
-6.2585211481357215
 20
-5.279449657683408
 10
-6.436231858135696
 20
-5.546925778818687
 10
-6.437651728949444
 20
-5.548999447842067
 10
-6.6227615238379425
 20
-5.811409309818722
 10
-6.624238741302718
 20
-5.813442525229844
 10
-6.816603278029921
 20
-6.070581508730979
 10
-6.81813669025598
 20
-6.072572685089623
 10
-7.0176059687426084
 20
-6.324240280870833
 10
-7.019194380021227
 20
-6.326187865517574
 10
-7.225612860124094
 20
-6.572187830758001
 10
-7.227255031859934
 20
-6.574090305024914
 10
-7.440461754657469
 20
-6.814230816351521
 10
-7.4421564063344094
 20
-6.816086696746401
 10
-7.661985119637584
 20
-7.0501804998120505
 10
-7.663730929817224
 20
-7.051988339175192
 10
-7.890010217808011
 20
-7.279852894673962
 10
-7.8918058251600876
 20
-7.28161128330661
 10
-8.12435924205635
 20
-7.50306890931245
 10
-8.126203246420262
 20
-7.504776476076044
 10
-8.364849454062876
 20
-7.719654486593797
 10
-8.366740417539493
 20
-7.721309899979137
 10
-8.611293326794387
 20
-7.929440739599882
 10
-8.613229774867266
 20
-7.931042708765409
 10
-8.863498690732127
 20
-8.132264083321136
 10
-8.865479113417317
 20
-8.13381135909948
 10
-9.121268883719821
 20
-8.32796636221519
 10
-9.123291736743278
 20
-8.329457738087244
 10
-9.38440290431488
 20
-8.51639497353183
 10
-9.38646661031667
 20
-8.517829286567551
 10
-9.652695568523306
 20
-8.697402986308012
 10
-9.654798518287562
 20
-8.698779118073238
 10
-9.92593766979598
 20
-8.870849255940229
 10
-9.92807822350574
 20
-8.872166133368808
 10
-10.203916142161649
 20
-9.036598534244803
 10
-10.237007941909912
 20
-9.048349464537251
 10
-10.272077664729093
 20
-9.046542225011606
 10
-10.303786263227797
 20
-9.031451951502982
 10
-10.32730639072376
 20
-9.005376001359394
 10
-10.339057321016208
 20
-8.972284201611131
 10
-10.337250081490563
 20
-8.937214478791951
 10
-10.322159807981938
 20
-8.905505880293246
 10
-10.296083857838351
 20
-8.881985752797284
 10
-10.021325410173613
 20
-8.718196845780362
 10
-9.75230842410237
 20
-8.547473475052383
 10
-9.488163199987076
 20
-8.369305271703368
 10
-9.229095710327698
 20
-8.183831165938772
 10
-8.975307968159893
 20
-7.99119578488719
 10
-8.726997869530706
 20
-7.79154933982402
 10
-8.48435903918591
 20
-7.585047509041782
 10
-8.247580679586427
 20
-7.3718513164562
 10
-8.016847423374811
 20
-7.152127006045334
 10
-7.79233918940357
 20
-6.9260459122169244
 10
-7.574231042440133
 20
-6.6937843262072
 10
-7.362693056656731
 20
-6.455523358614418
  0
LWPOLYLINE
  5
47
330
17
100
AcDbEntity
  8
ENGRAVE_LINES
100
AcDbPolyline
 90
946
 70
1
 10
-2.834155413951875
 20
1.0929222389862612
 10
-2.736976730566295
 20
1.0932457535600009
 10
-2.7367657462425505
 20
1.0932462086367818
 10
-2.639587062856971
 20
1.0933419083664948
 10
-2.63928119627008
 20
1.093341689831114
 10
-2.5421025128845
 20
1.0931071253621683
 10
-2.5417007630269537
 20
1.0931052589358294
 10
-2.4445220796413736
 20
1.092436884651188
 10
-2.444031357717819
 20
1.092432171593018
 10
-2.3468526743322395
 20
1.091233858572962
 10
-2.346288684564371
 20
1.0912251363066967
 10
-2.2491100011787912
 20
1.0894176264356976
 10
-2.2484975765535578
 20
1.0894041503656868
 10
-2.151318893167977
 20
1.0869348827799699
 10
-2.1506916958820006
 20
1.086916758017242
 10
-2.053513012496421
 20
1.0837694132903177
 10
-2.052912554351542
 20
1.0837479594726855
 10
-1.9557338709659624
 20
1.0799510166457096
 10
-1.9552078676739666
 20
1.0799289237732352
 10
-1.8580291842883865
 20
1.0755625159491287
 10
-1.8576293180167598
 20
1.0755436580912532
 10
-1.7604506346311797
 20
1.0707440471040828
 10
-1.7602298441986768
 20
1.070732870515544
 10
-1.6630558772090842
 20
1.0656941856001865
 10
-1.5660247691129792
 20
1.0606731189348384
 10
-1.469288747513479
 20
1.0559756086985381
 10
-1.3728794276620027
 20
1.0519382924609297
 10
-1.276814681734808
 20
1.0489198921282792
 10
-1.1810951868053157
 20
1.0472842381295044
 10
-1.0857013169718748
 20
1.0473815646385103
 10
-0.9905908534393623
 20
1.0495290372607593
 10
-0.8956981383109403
 20
1.0539913656381183
 10
-0.8009352741857608
 20
1.0609621041986614
 10
-0.7061956679492822
 20
1.0705459629186578
 10
-0.6113596485053976
 20
1.0827423098861393
 10
-0.5163012443846545
 20
1.09743019216094
 10
-0.4208947943987549
 20
1.11435562175901
 10
-0.3250201363285062
 20
1.1331223655841764
 10
-0.22856571334903064
 20
1.1531877513608362
 10
-0.13159095467532164
 20
1.173830584237931
 10
-0.13126864182560843
 20
1.1738985780298439
 10
-0.03408995844002876
 20
1.1942133094953964
 10
-0.032951536614198786
 20
1.1944436342934808
 10
0.06422714677138089
 20
1.2134528691612883
 10
0.06625281411970982
 20
1.2138250996483009
 10
0.16343149750529037
 20
1.230535219279762
 10
0.1663926215165726
 20
1.2309937792260393
 10
0.2635713049021523
 20
1.244390403031143
 10
0.26747849707128957
 20
1.2448422721373604
 10
0.36465718045686923
 20
1.2539340751754395
 10
0.36946328932939815
 20
1.2542542646595722
 10
0.4666419727149787
 20
1.258120132697106
 10
0.47222157971028594
 20
1.2581689894999308
 10
0.5694002630958656
 20
1.2560066130871372
 10
0.5755388214270545
 20
1.2556599571663483
 10
0.6727175048126341
 20
1.2468337463537562
 10
0.6791214269562115
 20
1.2460196434565964
 10
0.776300110341792
 20
1.2301057085683322
 10
0.7826322920766908
 20
1.2288339224460507
 10
0.8798109754622705
 20
1.2056598255707478
 10
0.8857423632303953
 20
1.2040292562174655
 10
0.982921046615975
 20
1.1737063006760664
 10
0.9881777875273725
 20
1.171885920191351
 10
1.0853564709129522
 20
1.1348319147331136
 10
1.0897441045952765
 20
1.133025045991171
 10
1.186922787980857
 20
1.0899757556474146
 10
1.1903222209652757
 20
1.0883842279784228
 10
1.2875009043508554
 20
1.0403920982347648
 10
1.2898439188905937
 20
1.039192052016077
 10
1.3870226022761734
 20
0.9876112562292286
 10
1.3882590061779951
 20
0.9869425666962037
 10
1.4854376895635757
 20
0.9333999628414167
 10
1.5820786811615006
 20
0.8800490050000003
 10
1.677333155776186
 20
0.8293503334624022
 10
1.7710341570441122
 20
0.7833942593060222
 10
1.8629258222392053
 20
0.7442124732464799
 10
1.9527496756099565
 20
0.7136155463966242
 10
2.040374835837182
 20
0.6930526047079033
 10
2.1260054356074116
 20
0.6835551953149261
 10
2.2103577987554806
 20
0.6858616471246595
 10
2.294592105443615
 20
0.7006849038048547
 10
2.3799162620870926
 20
0.7288555021671181
 10
2.467136947334472
 20
0.7711135326222411
 10
2.5565075572621274
 20
0.8277025023453466
 10
2.6478833277083416
 20
0.8980871870188389
 10
2.7409579620419597
 20
0.9809048695906909
 10
2.835428298333696
 20
1.0740602888594422
 10
2.9310711741364726
 20
1.1748635631255722
 10
3.0277534017902608
 20
1.2801494707771799
 10
3.1249677386630266
 20
1.3858905200153526
 10
3.1261154678443854
 20
1.3871157806282508
 10
3.223294151229965
 20
1.4889387630748878
 10
3.2257976578094234
 20
1.4914603199206955
 10
3.322976341195004
 20
1.5855498127683232
 10
3.3273167406242043
 20
1.5894867035195703
 10
3.424495424009784
 20
1.6720271948567522
 10
3.431487790346875
 20
1.6773995268954096
 10
3.5286664737324545
 20
1.7447585872019529
 10
3.5394999162198864
 20
1.7511944273968552
 10
3.636678599605466
 20
1.8000682112929434
 10
3.6525649677633636
 20
1.8062507684104527
 10
3.749743651148944
 20
1.8338050836972841
 10
3.7705921072742927
 20
1.8371422435014182
 10
3.8677707906598724
 20
1.8411435226513448
 10
3.8905432474025163
 20
1.8391761776988582
 10
3.987721930788096
 20
1.8181068091448962
 10
4.007734339816706
 20
1.8112217581682466
 10
4.104913023202286
 20
1.764374581928646
 10
4.119625528479862
 20
1.7554566096015167
 10
4.2168042118654405
 20
1.6830039493865454
 10
4.226579464274279
 20
1.6745595956791703
 10
4.323758147659859
 20
1.5775929740153216
 10
4.330005295012786
 20
1.5706778816206404
 10
4.427183978398366
 20
1.4512155231974433
 10
4.431134783139464
 20
1.4459800452054072
 10
4.528313466525042
 20
1.3069403858664101
 10
4.53077853873437
 20
1.3032203170275445
 10
4.62795722211995
 20
1.1483609635758338
 10
4.629414944419531
 20
1.1459553099814532
 10
4.726593627805111
 20
0.9797781952464957
 10
4.727302287898525
 20
0.9785440869528302
 10
4.824480971284104
 20
0.8061688869468948
 10
4.824548226416884
 20
0.806049377291868
 10
4.921434519408546
 20
0.6335790450525615
 10
5.017626098366019
 20
0.46754291669012193
 10
5.112825719261273
 20
0.3141952897845707
 10
5.206461172198007
 20
0.1797827768722652
 10
5.297358075295427
 20
0.07037958999509264
 10
5.383210944941331
 20
-0.008666942513001591
 10
5.4603886449805605
 20
-0.05454854778481875
 10
5.527301937398578
 20
-0.07023228179029624
 10
5.591761438574389
 20
-0.06065737137195439
 10
5.664878276779634
 20
-0.02102715955805016
 10
5.748137791858676
 20
0.05664529620746058
 10
5.837758119311794
 20
0.1738385969613889
 10
5.930736891671281
 20
0.3275192289557615
 10
6.025494366449847
 20
0.5128236764320174
 10
6.1212588628927405
 20
0.7238800270458878
 10
6.21765248558368
 20
0.9540197656650375
 10
6.314495549539012
 20
1.1959189552594878
 10
6.411604371928439
 20
1.4414813675147429
 10
6.411844575357911
 20
1.442082448348622
 10
6.5090232587434915
 20
1.6827455082140417
 10
6.509715512389076
 20
1.6844115781000097
 10
6.606894195774655
 20
1.9118342740304686
 10
6.608242506695393
 20
1.9148365210520772
 10
6.7054211900809735
 20
2.1210477673192267
 10
6.707890398372239
 20
2.125900965541559
 10
6.80506908175782
 20
2.3034044135231357
 10
6.809732133721632
 20
2.3110023817266776
 10
6.906910817107211
 20
2.4530492697164776
 10
6.916384960349869
 20
2.464682907568204
 10
7.013563643735449
 20
2.5655262936176486
 10
7.0339665343021025
 20
2.5813588442011097
 10
7.131145217687683
 20
2.636479644242831
 10
7.169729848738627
 20
2.6480076301788347
 10
7.266908532124206
 20
2.654303664244501
 10
7.309897872971235
 20
2.646457479838367
 10
7.407076556356816
 20
2.6023878516576477
 10
7.432589064352924
 20
2.585004279093145
 10
7.5297677477385045
 20
2.4906828446024494
 10
7.541484420469067
 20
2.4767434937254587
 10
7.638663103854646
 20
2.333976865576161
 10
7.644189767224534
 20
2.3247077326232533
 10
7.741368450610114
 20
2.136975163436921
 10
7.744214363726033
 20
2.1309391705583183
 10
7.841393047111612
 20
1.9033136914035542
 10
7.842963579663234
 20
1.899381266477831
 10
7.9401422630488145
 20
1.6383935563487206
 10
7.941031448982786
 20
1.635893410263012
 10
8.038210132368366
 20
1.349341960900391
 10
8.038685814731409
 20
1.347899402006872
 10
8.135864498116987
 20
1.0446125428852822
 10
8.13604690721157
 20
1.0440366138957353
 10
8.233189931016486
 20
0.7337077157165671
 10
8.330161569443018
 20
0.42678439223030684
 10
8.42681197351276
 20
0.13380028670722285
 10
8.522977609452868
 20
-0.13506407152744945
 10
8.61827640858216
 20
-0.36991701637355656
 10
8.711769745923165
 20
-0.5612287128673675
 10
8.800895631862227
 20
-0.6997158407847559
 10
8.878459563093175
 20
-0.777451166762039
 10
8.933378450879513
 20
-0.7998977922775118
 10
8.981801878810844
 20
-0.789845816892592
 10
9.05239150408891
 20
-0.7314953736179961
 10
9.138818185582634
 20
-0.6080885186072197
 10
9.231343851897215
 20
-0.4238514724579005
 10
9.326239716789777
 20
-0.18685820908458511
 10
9.422194653344482
 20
0.09419333489287222
 10
9.518695875782756
 20
0.4098269742595099
 10
9.615523005959858
 20
0.7497270189382713
 10
9.712580761729276
 20
1.1028963398008915
 10
9.809749688044771
 20
1.4576091772673694
 10
9.809933892142443
 20
1.4582716675502236
 10
9.907112575528021
 20
1.802671916732698
 10
9.907551019000335
 20
1.8041755691606256
 10
10.004729702385916
 20
2.1269732693814674
 10
10.005556502668682
 20
2.1295759264567855
 10
10.102735186054263
 20
2.4201293783896247
 10
10.104262653378818
 20
2.4243443070804775
 10
10.201441336764397
 20
2.6729864272747745
 10
10.204443695942834
 20
2.679818374159185
 10
10.301622379328414
 20
2.8781882968451877
 10
10.308284433415675
 20
2.8895863956712033
 10
10.405463116801256
 20
3.0309190062181934
 10
10.422695494285913
 20
3.049634666301403
 10
10.519874177671491
 20
3.1289977661675863
 10
10.563547040048778
 20
3.1483085490454186
 10
10.660725723434359
 20
3.1627791250468515
 10
10.689087972569864
 20
3.162483710674601
 10
10.715949792970337
 20
3.1533761835432417
 10
10.813128476355917
 20
3.1021493409569634
 10
10.840044860651739
 20
3.080454928839355
 10
10.937223544037318
 20
2.96488137468574
 10
10.947173181344205
 20
2.9503779958224863
 10
11.044351864729785
 20
2.7739284429674425
 10
11.048520560209765
 20
2.765302188260351
 10
11.145699243595345
 20
2.5334596039557464
 10
11.147717934831588
 20
2.5281851719489707
 10
11.244896618217167
 20
2.248268324449186
 10
11.245970096085692
 20
2.2449727459610327
 10
11.343148779471273
 20
1.9258969187902792
 10
11.343737239986703
 20
1.923880649175059
 10
11.440915923372282
 20
1.5758636072243286
 10
11.441214501759351
 20
1.5747676848670549
 10
11.538393185144932
 20
1.2089909096254474
 10
11.538484933509608
 20
1.2086427678502978
 10
11.6356180908828
 20
0.837053723291375
 10
11.732604720631793
 20
0.4719998304496669
 10
11.829348191202602
 20
0.1255413759497932
 10
11.925715875879632
 20
-0.1908716235848007
 10
12.021399523729338
 20
-0.46648211891430647
 10
12.115631627191522
 20
-0.6912949444230578
 10
12.20623323070906
 20
-0.8558023432853027
 10
12.286389753227798
 20
-0.9511316261417956
 10
12.341915007568991
 20
-0.9804012495263149
 10
12.385448952008083
 20
-0.973918745033551
 10
12.453495633666657
 20
-0.91834693232845
 10
12.539643993550635
 20
-0.7930563627038925
 10
12.632267857602677
 20
-0.603984149428682
 10
12.72727086532144
 20
-0.3609087295827168
 10
12.82330517563308
 20
-0.07377682582637973
 10
12.919864439951551
 20
0.24696335474746864
 10
13.016737076410914
 20
0.5902789767876667
 10
13.113824923154487
 20
0.9446958352194086
 10
13.211023149907518
 20
1.2983764098404
 10
13.211249196881504
 20
1.2991841883277062
 10
13.308427880267082
 20
1.6403183184435652
 10
13.308917075989392
 20
1.641975069193237
 10
13.40609575937497
 20
1.9598245298616614
 10
13.406990235803553
 20
1.9625896729644634
 10
13.504168919189135
 20
2.2472255654768047
 10
13.505790777608714
 20
2.251601499519213
 10
13.602969460994293
 20
2.494295881744892
 10
13.606093148628839
 20
2.5012321178856447
 10
13.703271832014417
 20
2.6947342485784005
 10
13.709979942749975
 20
2.70597130089816
 10
13.807158626135557
 20
2.844730715044754
 10
13.823536643448612
 20
2.862470882376419
 10
13.920715326834191
 20
2.9428002399846154
 10
13.95976375256895
 20
2.9615530540802655
 10
14.056942435954529
 20
2.981725887253417
 10
14.083473217576305
 20
2.983226675813239
 10
14.109285824611815
 20
2.9769144608458875
 10
14.206464507997397
 20
2.9371952749343073
 10
14.23612359994202
 20
2.9174546549157254
 10
14.3333022833276
 20
2.8200612336291213
 10
14.34527405755203
 20
2.80519814222296
 10
14.44245274093761
 20
2.6541982770876618
 10
14.447631892932
 20
2.6450083813742324
 10
14.544810576317582
 20
2.44615550789384
 10
14.547345474896458
 20
2.440479498940231
 10
14.644524158282037
 20
2.2009937952598877
 10
14.64587104805307
 20
2.1974636029695698
 10
14.74304973143865
 20
1.9257669195635982
 10
14.743776770093596
 20
1.9236517056578335
 10
14.840955453479179
 20
1.6290661847624164
 10
14.841304439604947
 20
1.6279854007703887
 10
14.938483122990526
 20
1.3204067627202765
 10
14.938554744202166
 20
1.320179024606316
 10
15.035643189527129
 20
1.010024480476308
 10
15.132497947564472
 20
0.7077485663277783
 10
15.22900654051576
 20
0.4231730172188055
 10
15.324983201446551
 20
0.1654135159629743
 10
15.420019359835841
 20
-0.057193442031690495
 10
15.51317815083925
 20
-0.23716026776003077
 10
15.602165520483402
 20
-0.36789291682837766
 10
15.681534054724413
 20
-0.44492785640800897
 10
15.743930458658381
 20
-0.47322404468084056
 10
15.79801728732124
 20
-0.4697198552444175
 10
15.865877623510963
 20
-0.4312287387612265
 10
15.94877890691247
 20
-0.34520116733507455
 10
16.039187147743963
 20
-0.21305069141442867
 10
16.132914641300765
 20
-0.041851075434938254
 10
16.228230555328654
 20
0.16040741105633383
 10
16.324408057474926
 20
0.38548708968479223
 10
16.421127781575947
 20
0.6250135366436848
 10
16.51818744402875
 20
0.8704516364798868
 10
16.51832791118184
 20
0.8708046597799176
 10
16.615506594567417
 20
1.1135421754751027
 10
16.616047076214596
 20
1.114861818815617
 10
16.713225759600174
 20
1.3468758895536375
 10
16.71428038079222
 20
1.349293735720813
 10
16.811459064177804
 20
1.5634668273639367
 10
16.813285923936693
 20
1.5672552220724238
 10
16.91046460732227
 20
1.7572945015415777
 10
16.913592070575977
 20
1.7629067673492511
 10
17.010770753961555
 20
1.9235292524616014
 10
17.016282655171196
 20
1.9316123623494386
 10
17.113461338556778
 20
2.0586894551533574
 10
17.1235597241801
 20
2.0698275395423575
 10
17.22073840756568
 20
2.160485129602201
 10
17.239245046810506
 20
2.173800623319245
 10
17.336423730196085
 20
2.226472646630158
 10
17.36608670168497
 20
2.23637104816999
 10
17.463265385070553
 20
2.2508061147003953
 10
17.49702740307199
 20
2.2494080829731375
 10
17.594206086457568
 20
2.2266304768182867
 10
17.61965869229816
 20
2.216366960813955
 10
17.71683737568374
 20
2.1585949102130004
 10
17.73180732930816
 20
2.1474432320844437
 10
17.828986012693743
 20
2.0579687860115863
 10
17.83724969214604
 20
2.049273588557716
 10
17.93442837553162
 20
1.9323096734338412
 10
17.939051449091597
 20
1.9262391978335216
 10
18.036230132477176
 20
1.7867404222555276
 10
18.038845963359435
 20
1.7827653496188431
 10
18.136024646745017
 20
1.6262298472413534
 10
18.13743619031002
 20
1.6238768260303318
 10
18.234614873695598
 20
1.4561368583161767
 10
18.235206533626915
 20
1.455099796332416
 10
18.33235163497055
 20
1.2821687512195619
 10
18.429147193880294
 20
1.1104731360345839
 10
18.525256606208767
 20
0.9461244920397999
 10
18.62050122290894
 20
0.7943471757797949
 10
18.71452128779261
 20
0.6598267507541907
 10
18.806684792667355
 20
0.5465295823906384
 10
18.89597681317229
 20
0.4574324134616405
 10
18.981035981473685
 20
0.394015594006938
 10
19.060831645083216
 20
0.3555482945330456
 10
19.136336241560567
 20
0.3391780977442349
 10
19.21138145392323
 20
0.34226804332763994
 10
19.290095725448925
 20
0.36458690770848773
 10
19.37398276170431
 20
0.40677596336137906
 10
19.462342617006804
 20
0.4680222842071017
 10
19.55392254981242
 20
0.5458073743838161
 10
19.647718503510156
 20
0.6366216703499694
 10
19.743090747961855
 20
0.7365518817335818
 10
19.83968344855716
 20
0.841616748053858
 10
19.936844310881167
 20
0.9474238837213103
 10
19.937845974065517
 20
0.9484969845343448
 10
20.035024657451096
 20
1.050918930674253
 10
20.037121419635948
 20
1.0530564590164062
 10
20.13430010302153
 20
1.1488825283426847
 10
20.137665255464555
 20
1.1520349501231524
 10
20.234843938850133
 20
1.2385044099389202
 10
20.239750009535534
 20
1.2425680349580563
 10
20.336928692921113
 20
1.3174225719286083
 10
20.34370238264641
 20
1.3221609817492526
 10
20.44088106603199
 20
1.3836939798600367
 10
20.449786746667137
 20
1.3886499775033938
 10
20.546965430052715
 20
1.4357326133534714
 10
20.557990617582295
 20
1.4402006397578797
 10
20.655169300967874
 20
1.4722851251688236
 10
20.667787375837
 20
1.4754606149578746
 10
20.764966059222584
 20
1.492561777468789
 10
20.778104307246924
 20
1.4938901468325665
 10
20.875282990632503
 20
1.4965473094987585
 10
20.88766413694326
 20
1.4960324297281733
 10
20.98484282032884
 20
1.4852542062559593
 10
20.995483298425707
 20
1.4834224451597615
 10
21.09266198181129
 20
1.4606175841510907
 10
21.101119858507378
 20
1.4581909601861676
 10
21.198298541892957
 20
1.4250887389461029
 10
21.20457917573135
 20
1.422683897182182
 10
21.30175785911693
 20
1.381247773744023
 10
21.306088662517883
 20
1.3792641169506261
 10
21.403267345903465
 20
1.3316023980825722
 10
21.405921942059532
 20
1.330245441378803
 10
21.50310062544511
 20
1.2785226202793087
 10
21.504311898563188
 20
1.2778659795725122
 10
21.601457873652727
 20
1.2242362084175926
 10
21.69798824283923
 20
1.1710508066685075
 10
21.79338338211019
 20
1.1204166858266984
 10
21.887698663298952
 20
1.0738386601329237
 10
21.980991040037992
 20
1.0325109689852379
 10
22.073351855185678
 20
0.9972940054559978
 10
22.164936209119134
 20
0.9687166652836344
 10
22.255978060797542
 20
0.9470060121136268
 10
22.34678046862676
 20
0.932136253072352
 10
22.437679227912668
 20
0.9238804135805043
 10
22.52899214711904
 20
0.9218485595174918
 10
22.620974444554015
 20
0.9255077099739957
 10
22.713795824911852
 20
0.934191854258886
 10
22.80754147104938
 20
0.9471152147214664
 10
22.902228446362617
 20
0.9633968788673732
 10
22.99782647173032
 20
0.9820969193886352
 10
23.09427546868751
 20
1.0022591134526677
 10
23.191293057863863
 20
1.0229110635775926
 10
23.19170110622043
 20
1.0229969364269764
 10
23.28887978960601
 20
1.0432129898869043
 10
23.289921304297465
 20
1.0434232495989582
 10
23.387099987683044
 20
1.062445246579931
 10
23.388667874341838
 20
1.062737748049125
 10
23.48584655772742
 20
1.0799775778962568
 10
23.487824201033817
 20
1.0803057434796954
 10
23.585002884419396
 20
1.095321239209821
 10
23.58726621306827
 20
1.0956415820395933
 10
23.684444896453847
 20
1.1081392063321738
 10
23.686866594470356
 20
1.1084173648591058
 10
23.784045277855938
 20
1.1182479606274474
 10
23.78650090434458
 20
1.1184624433924848
 10
23.88367958773016
 20
1.1256108891659669
 10
23.88605455487574
 20
1.125754056521398
 10
23.98323323826132
 20
1.130323882518673
 10
23.985429247934253
 20
1.130400296320246
 10
24.082607931319835
 20
1.132594466701567
 10
24.084547675118724
 20
1.1326173520309837
 10
24.181726358504303
 20
1.132716499513104
 10
24.183355876644594
 20
1.1327034092551074
 10
24.280534560030173
 20
1.1310428206551322
 10
24.281823313457934
 20
1.131011564529969
 10
24.379001996843517
 20
1.1279581637487925
 10
24.379941162486794
 20
1.127923745533371
 10
24.477119845872373
 20
1.1238542107935097
 10
24.477719496576942
 20
1.123827095814709
 10
24.57489817996252
 20
1.1191080898807675
 10
24.57518392047542
 20
1.1190937590199872
 10
24.672362603861004
 20
1.1140650557793061
 10
24.769440331711746
 20
1.1090313615722736
 10
24.86630870085142
 20
1.1042470768646144
 10
24.96302446079461
 20
1.0999014689985893
 10
25.059639916959537
 20
1.0961265324540708
 10
25.15620476841358
 20
1.0929990680200836
 10
25.25276363218382
 20
1.0905455497780685
 10
25.349354099108325
 20
1.0887489806506838
 10
25.44600541940659
 20
1.0875571705593752
 10
25.5427378625598
 20
1.0868918654199997
 10
25.63956273582592
 20
1.0866581549581253
 10
25.736482993303742
 20
1.0867536001948912
 10
25.83349433047568
 20
1.0870765576614847
 10
25.93058663812399
 20
1.0875332448771184
 10
26.027740799815575
 20
1.0880431669524293
 10
26.124929245322146
 20
1.0885427272347439
 10
26.222159168800616
 20
1.0889871564793998
 10
26.31941345156096
 20
1.0893500191895626
 10
26.41667664721709
 20
1.08962158901773
 10
26.513936139832328
 20
1.089805816993694
 10
26.61118293097941
 20
1.089916418356535
 10
26.708412019418883
 20
1.0899725341232074
 10
26.805622368370305
 20
1.089994428071805
 10
26.902816485971332
 20
1.0899996461740291
 10
26.99999967243156
 20
1.089999999999404
 10
27.034441206278853
 20
1.0831492832804805
 10
27.063639378680502
 20
1.0636398419322337
 10
27.08314903257045
 20
1.0344418115464082
 10
27.089999999999403
 20
1.0000003275684413
 10
27.08314928328048
 20
0.9655587937211483
 10
27.063639841932233
 20
0.9363606213194983
 10
27.034441811546408
 20
0.9168509674295503
 10
27.00000032756844
 20
0.9100000000005961
 10
26.90282389571928
 20
0.9099996463124594
 10
26.805655180979592
 20
0.9099944308971206
 10
26.708500047485796
 20
0.9099725549517182
 10
26.611362399415054
 20
0.9099165060614218
 10
26.51424297245059
 20
0.9098060752899515
 10
26.417138747583603
 20
0.9096221776414883
 10
26.32004272497033
 20
0.9093511141912916
 10
26.222944097408625
 20
0.9089888639432716
 10
26.125828833726377
 20
0.90854497336791
 10
26.02868065141374
 20
0.9080456205724887
 10
25.931506849087242
 20
0.9075355954115958
 10
25.834279122247292
 20
0.9070782578698635
 10
25.834155413951873
 20
0.9070777610137387
 10
25.73697673056629
 20
0.9067542464399989
 10
25.736765746242547
 20
0.9067537913632181
 10
25.639587062856968
 20
0.9066580916335053
 10
25.63928119627008
 20
0.9066583101688863
 10
25.5421025128845
 20
0.9068928746378317
 10
25.541700763026952
 20
0.9068947410641703
 10
25.44452207964137
 20
0.907563115348812
 10
25.444031357717815
 20
0.907567828406982
 10
25.346852674332236
 20
0.908766141427038
 10
25.346288684564367
 20
0.9087748636933034
 10
25.24911000117879
 20
0.9105823735643023
 10
25.248497576553557
 20
0.9105958496343132
 10
25.151318893167975
 20
0.9130651172200304
 10
25.150691695882
 20
0.9130832419827581
 10
25.05351301249642
 20
0.9162305867096823
 10
25.05291255435154
 20
0.9162520405273146
 10
24.95573387096596
 20
0.9200489833542903
 10
24.955207867673966
 20
0.9200710762267649
 10
24.858029184288384
 20
0.9244374840508714
 10
24.857629318016755
 20
0.9244563419087468
 10
24.760450634631177
 20
0.9292559528959172
 10
24.760229844198676
 20
0.9292671294844558
 10
24.663055877209302
 20
0.9343058143998023
 10
24.566024769113003
 20
0.9393268810651604
 10
24.46928874751345
 20
0.9440243913014632
 10
24.37287942766202
 20
0.9480617075390695
 10
24.276814681734802
 20
0.951080107871721
 10
24.18109518680531
 20
0.9527157618704957
 10
24.08570131697188
 20
0.9526184353614898
 10
23.99059085343936
 20
0.9504709627392405
 10
23.89569813831093
 20
0.946008634361881
 10
23.80093527418576
 20
0.9390378958013382
 10
23.70619566794927
 20
0.9294540370813408
 10
23.611359648505402
 20
0.9172576901138616
 10
23.516301244384653
 20
0.902569807839059
 10
23.420894794398766
 20
0.8856443782409911
 10
23.32502013632846
 20
0.8668776344158143
 10
23.22856571334905
 20
0.8468122486391677
 10
23.131590954675318
 20
0.8261694157620683
 10
23.131268641825606
 20
0.8261014219701557
 10
23.034089958440028
 20
0.8057866905046027
 10
23.032951536614195
 20
0.805556365706518
 10
22.935772853228617
 20
0.7865471308387112
 10
22.93374718588029
 20
0.7861749003516988
 10
22.836568502494707
 20
0.769464780720237
 10
22.833607378483425
 20
0.7690062207739596
 10
22.736428695097846
 20
0.7556095969688564
 10
22.73252150292871
 20
0.755157727862639
 10
22.63534281954313
 20
0.7460659248245602
 10
22.6305367106706
 20
0.7457457353404277
 10
22.533358027285022
 20
0.7418798673028939
 10
22.527778420289714
 20
0.7418310105000693
 10
22.43059973690413
 20
0.7439933869128631
 10
22.424461178572944
 20
0.744340042833652
 10
22.327282495187365
 20
0.7531662536462436
 10
22.320878573043785
 20
0.7539803565434036
 10
22.223699889658207
 20
0.7698942914316684
 10
22.21736770792331
 20
0.7711660775539496
 10
22.120189024537726
 20
0.7943401744292524
 10
22.1142576367696
 20
0.7959707437825352
 10
22.017078953384022
 20
0.8262936993239353
 10
22.011822212472627
 20
0.8281140798086505
 10
21.914643529087048
 20
0.8651680852668875
 10
21.910255895404724
 20
0.86697495400883
 10
21.81307721201914
 20
0.9100242443525873
 10
21.809677779034722
 20
0.911615772021579
 10
21.712499095649143
 20
0.959607901765237
 10
21.710156081109403
 20
0.960807947983925
 10
21.612977397723824
 20
1.0123887437707735
 10
21.611740993822004
 20
1.013057433303798
 10
21.51456231043642
 20
1.0666000371585858
 10
21.417921318838513
 20
1.119950994999995
 10
21.32266684422385
 20
1.1706496665375807
 10
21.228965842955883
 20
1.2166057406939792
 10
21.13707417776078
 20
1.2557875267535268
 10
21.047250324390046
 20
1.2863844536033753
 10
20.959625164162816
 20
1.3069473952920971
 10
20.873994564392586
 20
1.3164448046850734
 10
20.78964220124452
 20
1.3141383528753405
 10
20.705407894556384
 20
1.2993150961951447
 10
20.620083737912903
 20
1.2711444978328796
 10
20.532863052665537
 20
1.2288864673777635
 10
20.443492442737863
 20
1.1722974976546447
 10
20.352116672291643
 20
1.1019128129811504
 10
20.259042037958068
 20
1.0190951304093303
 10
20.16457170166626
 20
0.9259397111405134
 10
20.068928825863605
 20
0.8251364368745083
 10
19.97224659820974
 20
0.7198505292228188
 10
19.87503226133697
 20
0.614109479984643
 10
19.87388453215561
 20
0.612884219371745
 10
19.776705848770032
 20
0.5110612369251081
 10
19.774202342190573
 20
0.5085396800792994
 10
19.677023658804995
 20
0.4144501872316754
 10
19.672683259375795
 20
0.41051329648042917
 10
19.575504575990212
 20
0.3279728051432443
 10
19.56851220965312
 20
0.3226004731045863
 10
19.471333526267543
 20
0.25524141279804446
 10
19.46050008378011
 20
0.24880557260314234
 10
19.363321400394533
 20
0.19993178870705525
 10
19.347435032236636
 20
0.1937492315895457
 10
19.250256348851053
 20
0.16619491630271488
 10
19.229407892725703
 20
0.16285775649858109
 10
19.132229209340124
 20
0.15885647734865666
 10
19.10945675259748
 20
0.16082382230114323
 10
19.012278069211902
 20
0.18189319085510447
 10
18.99226566018329
 20
0.18877824183175507
 10
18.89508697679771
 20
0.23562541807135762
 10
18.88037447152014
 20
0.24454339039848522
 10
18.783195788134556
 20
0.3169960506134571
 10
18.77342053572572
 20
0.325440404320833
 10
18.67624185234014
 20
0.4224070259846797
 10
18.669994704987214
 20
0.4293221183793609
 10
18.572816021601636
 20
0.5487844768025555
 10
18.568865216860537
 20
0.5540199547945922
 10
18.471686533474955
 20
0.6930596141335966
 10
18.469221461265626
 20
0.6967796829724611
 10
18.372042777880047
 20
0.8516390364241659
 10
18.370585055580467
 20
0.8540446900185489
 10
18.273406372194888
 20
1.0202218047535114
 10
18.272697712101476
 20
1.021455913047174
 10
18.175519028715893
 20
1.1938311130531098
 10
18.175451773583113
 20
1.1939506227081391
 10
18.078565480591507
 20
1.3664209549473538
 10
17.982373901633967
 20
1.5324570833099012
 10
17.88717428073874
 20
1.6858047102154075
 10
17.79353882780198
 20
1.820217223127755
 10
17.702641924704576
 20
1.9296204100049053
 10
17.61678905505867
 20
2.008666942513004
 10
17.539611355019435
 20
2.0545485477848207
 10
17.472698062601424
 20
2.070232281790297
 10
17.40823856142561
 20
2.0606573713719523
 10
17.33512172322037
 20
2.021027159558051
 10
17.25186220814132
 20
1.9433547037925303
 10
17.162241880688196
 20
1.8261614030385902
 10
17.069263108328716
 20
1.6724807710442342
 10
16.974505633550148
 20
1.4871763235679714
 10
16.878741137107255
 20
1.2761199729541066
 10
16.782347514416372
 20
1.0459802343350952
 10
16.685504450461025
 20
0.8040810447406066
 10
16.58839562807156
 20
0.5585186324852455
 10
16.588155424642085
 20
0.5579175516513655
 10
16.490976741256507
 20
0.31725449178594656
 10
16.49028448761092
 20
0.31558842189997793
 10
16.393105804225343
 20
0.08816572596952044
 10
16.391757493304603
 20
0.08516347894791002
 10
16.29457880991902
 20
-0.12104776731923125
 10
16.292109601627757
 20
-0.12590096554156016
 10
16.19493091824218
 20
-0.30340441352313996
 10
16.190267866278365
 20
-0.3110023817266835
 10
16.093089182892786
 20
-0.4530492697164824
 10
16.08361503965013
 20
-0.46468290756820907
 10
15.986436356264546
 20
-0.565526293617653
 10
15.966033465697892
 20
-0.5813588442011141
 10
15.868854782312313
 20
-0.6364796442428325
 10
15.830270151261372
 20
-0.6480076301788354
 10
15.733091467875793
 20
-0.6543036642445023
 10
15.69010212702876
 20
-0.6464574798383671
 10
15.592923443643178
 20
-0.6023878516576431
 10
15.567410935647072
 20
-0.5850042790931401
 10
15.470232252261493
 20
-0.4906828446024419
 10
15.45851557953093
 20
-0.47674349372545194
 10
15.361336896145351
 20
-0.33397686557615075
 10
15.355810232775465
 20
-0.3247077326232443
 10
15.258631549389886
 20
-0.13697516343691846
 10
15.255785636273968
 20
-0.13093917055831525
 10
15.158606952888386
 20
0.0966863085964588
 10
15.157036420336762
 20
0.10061873352218202
 10
15.059857736951184
 20
0.3616064436512884
 10
15.058968551017212
 20
0.36410658973699705
 10
14.961789867631634
 20
0.650658039099613
 10
14.961314185268593
 20
0.6521005979931308
 10
14.86413550188301
 20
0.9553874571147206
 10
14.863953092788426
 20
0.9559633861042689
 10
14.766810068983542
 20
1.266292284283341
 10
14.66983843055697
 20
1.5732156077697226
 10
14.573188026487243
 20
1.8661997132927777
 10
14.47702239054713
 20
2.1350640715274545
 10
14.381723591417838
 20
2.369917016373559
 10
14.288230254076831
 20
2.5612287128673747
 10
14.199104368137773
 20
2.699715840784758
 10
14.121540436906825
 20
2.7774511667620385
 10
14.066621549120484
 20
2.799897792277512
 10
14.018198121189155
 20
2.7898458168925915
 10
13.947608495911094
 20
2.7314953736179977
 10
13.861181814417359
 20
2.6080885186071976
 10
13.768656148102785
 20
2.423851472457901
 10
13.673760283210227
 20
2.1868582090845807
 10
13.577805346655511
 20
1.9058066651071
 10
13.481304124217246
 20
1.590173025740486
 10
13.38447699404014
 20
1.2502729810617166
 10
13.287419238270683
 20
0.8971036601989584
 10
13.190250311955227
 20
0.5423908227326264
 10
13.190066107857556
 20
0.5417283324497723
 10
13.092887424471977
 20
0.19732808326729762
 10
13.092448980999663
 20
0.19582443083937057
 10
12.99527029761408
 20
-0.1269732693814833
 10
12.994443497331314
 20
-0.12957592645680213
 10
12.897264813945736
 20
-0.4201293783896334
 10
12.89573734662118
 20
-0.4243443070804866
 10
12.798558663235601
 20
-0.672986427274778
 10
12.795556304057165
 20
-0.6798183741591874
 10
12.698377620671582
 20
-0.8781882968451962
 10
12.69171556658432
 20
-0.8895863956712132
 10
12.59453688319874
 20
-1.0309190062181965
 10
12.577304505714086
 20
-1.049634666301405
 10
12.480125822328507
 20
-1.1289977661675883
 10
12.436452959951216
 20
-1.1483085490454212
 10
12.339274276565634
 20
-1.162779125046851
 10
12.310912027430131
 20
-1.1624837106745995
 10
12.28405020702966
 20
-1.1533761835432401
 10
12.186871523644081
 20
-1.1021493409569614
 10
12.159955139348257
 20
-1.0804549288393517
 10
12.062776455962679
 20
-0.9648813746857307
 10
12.052826818655793
 20
-0.950377995822479
 10
11.955648135270211
 20
-0.7739284429674322
 10
11.951479439790232
 20
-0.7653021882603389
 10
11.854300756404653
 20
-0.5334596039557259
 10
11.85228206516841
 20
-0.5281851719489525
 10
11.755103381782831
 20
-0.24826832444917704
 10
11.754029903914306
 20
-0.24497274596102234
 10
11.656851220528726
 20
0.0741030812097391
 10
11.656262760013295
 20
0.07611935082495834
 10
11.559084076627714
 20
0.42413639277568993
 10
11.558785498240645
 20
0.4252323151329639
 10
11.461606814855067
 20
0.7910090903745646
 10
11.46151506649039
 20
0.7913572321497144
 10
11.364381909117194
 20
1.1629462767086507
 10
11.267395279368202
 20
1.528000169550357
 10
11.170651808797398
 20
1.8744586240502137
 10
11.074284124120364
 20
2.1908716235848202
 10
10.978600476270664
 20
2.4664821189143122
 10
10.884368372808472
 20
2.6912949444230736
 10
10.793766769290938
 20
2.85580234328531
 10
10.713610246772202
 20
2.9511316261417946
 10
10.658084992431007
 20
2.980401249526315
 10
10.614551047991917
 20
2.97391874503355
 10
10.546504366333345
 20
2.9183469323284497
 10
10.46035600644936
 20
2.7930563627038794
 10
10.367732142397319
 20
2.603984149428675
 10
10.27272913467856
 20
2.360908729582712
 10
10.176694824366919
 20
2.0737768258263696
 10
10.080135560048445
 20
1.7530366452525197
 10
9.983262923589084
 20
1.4097210232123254
 10
9.88617507684551
 20
1.0553041647805799
 10
9.78897685009248
 20
0.7016235901595891
 10
9.788750803118495
 20
0.7008158116722829
 10
9.691572119732916
 20
0.3596816815564177
 10
9.691082924010606
 20
0.3580249308067449
 10
9.593904240625026
 20
0.04017547013832191
 10
9.593009764196443
 20
0.037410327035521204
 10
9.495831080810863
 20
-0.2472255654768236
 10
9.494209222391284
 20
-0.2516014995192342
 10
9.397030539005705
 20
-0.49429588174490063
 10
9.393906851371161
 20
-0.501232117885651
 10
9.29672816798558
 20
-0.6947342485784153
 10
9.29002005725002
 20
-0.7059713008981781
 10
9.192841373864441
 20
-0.8447307150447578
 10
9.176463356551388
 20
-0.8624708823764214
 10
9.079284673165807
 20
-0.9428002399846175
 10
9.040236247431046
 20
-0.9615530540802674
 10
8.943057564045466
 20
-0.9817258872534168
 10
8.91652678242369
 20
-0.9832266758132383
 10
8.890714175388181
 20
-0.9769144608458862
 10
8.793535492002603
 20
-0.9371952749343058
 10
8.76387640005798
 20
-0.9174546549157241
 10
8.666697716672399
 20
-0.8200612336291164
 10
8.654725942447968
 20
-0.8051981422229559
 10
8.557547259062387
 20
-0.6541982770876562
 10
8.552368107067997
 20
-0.6450083813742267
 10
8.455189423682418
 20
-0.4461555078938422
 10
8.452654525103542
 20
-0.44047949894023253
 10
8.355475841717961
 20
-0.2009937952598786
 10
8.354128951946928
 20
-0.197463602969561
 10
8.256950268561347
 20
0.07423308043641696
 10
8.2562232299064
 20
0.07634829434218046
 10
8.159044546520821
 20
0.37093381523757407
 10
8.158695560395053
 20
0.3720145992296034
 10
8.061516877009472
 20
0.679593237279728
 10
8.061445255797832
 20
0.6798209753936875
 10
7.964356810472888
 20
0.9899755195236282
 10
7.867502052435518
 20
1.2922514336722541
 10
7.770993459484239
 20
1.576826982781204
 10
7.675016798553451
 20
1.8345864840370214
 10
7.579980640164152
 20
2.057193442031706
 10
7.486821849160747
 20
2.237160267760041
 10
7.3978344795166
 20
2.3678929168283793
 10
7.318465945275586
 20
2.4449278564080115
 10
7.256069541341617
 20
2.473224044680839
 10
7.201982712678759
 20
2.4697198552444166
 10
7.134122376489034
 20
2.431228738761223
 10
7.05122109308753
 20
2.3452011673350723
 10
6.960812852256034
 20
2.2130506914144235
 10
6.8670853586992395
 20
2.0418510754349497
 10
6.771769444671337
 20
1.8395925889436346
 10
6.6755919425250605
 20
1.6145129103151674
 10
6.578872218423977
 20
1.374986463356125
 10
6.481812555971246
 20
1.1295483635201138
 10
6.481672088818159
 20
1.129195340220084
 10
6.38449340543258
 20
0.8864578245248993
 10
6.3839529237854045
 20
0.8851381811843856
 10
6.286774240399824
 20
0.6531241104463559
 10
6.285719619207777
 20
0.6507062642791801
 10
6.188540935822196
 20
0.4365331726360573
 10
6.186714076063306
 20
0.432744777927569
 10
6.089535392677727
 20
0.24270549845841963
 10
6.086407929424023
 20
0.23709323265074816
 10
5.989229246038443
 20
0.07647074753838917
 10
5.9837173448288
 20
0.06838763765055042
 10
5.886538661443219
 20
-0.05868945515336436
 10
5.876440275819895
 20
-0.06982753954236491
 10
5.779261592434316
 20
-0.16048512960220546
 10
5.760754953189492
 20
-0.17380062331924898
 10
5.663576269803912
 20
-0.22647264663016178
 10
5.633913298315024
 20
-0.23637104816999366
 10
5.536734614929445
 20
-0.25080611470039504
 10
5.50297259692801
 20
-0.24940808297313677
 10
5.405793913542429
 20
-0.22663047681828596
 10
5.380341307701838
 20
-0.2163669608139524
 10
5.283162624316257
 20
-0.1585949102129926
 10
5.268192670691836
 20
-0.1474432320844382
 10
5.1710139873062575
 20
-0.05796878601158685
 10
5.1627503078539565
 20
-0.04927358855771439
 10
5.065571624468376
 20
0.06769032656616666
 10
5.060948550908403
 20
0.07376080216648404
 10
4.963769867522823
 20
0.21325957774447654
 10
4.96115403664056
 20
0.21723465038116185
 10
4.863975353254982
 20
0.373770152758645
 10
4.86256380968998
 20
0.37612317396966843
 10
4.765385126304399
 20
0.543863141683834
 10
4.764793466373082
 20
0.5449002036675918
 10
4.667648365029061
 20
0.7178312487811289
 10
4.5708528061197
 20
0.8895268639654297
 10
4.474743393791212
 20
1.0538755079602327
 10
4.379498777091083
 20
1.2056528242201752
 10
4.285478712207389
 20
1.3401732492458043
 10
4.193315207332644
 20
1.4534704176093625
 10
4.104023186827697
 20
1.542567586538372
 10
4.018964018526315
 20
1.6059844059930652
 10
3.939168354916788
 20
1.6444517054669545
 10
3.8636637584394324
 20
1.6608219022557664
 10
3.788618546076764
 20
1.6577319566723596
 10
3.709904274551075
 20
1.6354130922915122
 10
3.626017238295689
 20
1.5932240366386194
 10
3.5376573829931965
 20
1.5319777157928975
 10
3.4460774501875755
 20
1.4541926256161797
 10
3.3522814964898564
 20
1.3633783296500392
 10
3.2569092520381497
 20
1.263448118266423
 10
3.160316551440775
 20
1.1583832519438952
 10
3.063155689118829
 20
1.0525761162786864
 10
3.0621540259344813
 20
1.051503015465652
 10
2.9649753425489016
 20
0.9490810693257427
 10
2.9628785803640483
 20
0.9469435409835907
 10
2.8656998969784686
 20
0.8511174716573109
 10
2.8623347445354432
 20
0.8479650498768393
 10
2.7651560611498627
 20
0.7614955900610773
 10
2.760249990464464
 20
0.7574319650419447
 10
2.6630713070788845
 20
0.6825774280713889
 10
2.656297617353585
 20
0.6778390182507433
 10
2.5591189339680054
 20
0.6163060201399615
 10
2.550213253332863
 20
0.6113500224966044
 10
2.4530345699472833
 20
0.5642673866465272
 10
2.4420093824177025
 20
0.559799360242119
 10
2.344830699032122
 20
0.5277148748311751
 10
2.3322126241629952
 20
0.5245393850421242
 10
2.2350339407774156
 20
0.5074382225312112
 10
2.2218956927530744
 20
0.5061098531674337
 10
2.1247170093674947
 20
0.5034526905012411
 10
2.1123358630567366
 20
0.5039675702718264
 10
2.015157179671156
 20
0.5147457937440417
 10
2.004516701574289
 20
0.5165775548402393
 10
1.9073380181887092
 20
0.5393824158489094
 10
1.8988801414926189
 20
0.541809039813833
 10
1.8017014581070392
 20
0.5749112610538992
 10
1.7954208242686505
 20
0.5773161028178193
 10
1.6982421408830708
 20
0.6187522262559775
 10
1.693911337482115
 20
0.6207358830493751
 10
1.5967326540965345
 20
0.6683976019174295
 10
1.5940780579404659
 20
0.6697545586211984
 10
1.4968993745548862
 20
0.7214773797206933
 10
1.4956881014368086
 20
0.7221340204274898
 10
1.398542126346138
 20
0.7757637915830337
 10
1.302011757160762
 20
0.8289491933314981
 10
1.2066166178898245
 20
0.879583314173295
 10
1.1123013367010564
 20
0.9261613398670723
 10
1.0190089599620014
 20
0.967489031014765
 10
0.9266481448143161
 20
1.0027059945440056
 10
0.8350637908808615
 20
1.0312833347163668
 10
0.7440219392024624
 20
1.0529939878863732
 10
0.6532195313732388
 20
1.0678637469276475
 10
0.5623207720873298
 20
1.076119586419496
 10
0.4710078528809586
 20
1.078151440482508
 10
0.37902555544598004
 20
1.074492290026004
 10
0.2862041750881459
 20
1.0658081457411137
 10
0.19245852895062254
 20
1.0528847852785337
 10
0.0977715536373824
 20
1.0366031211326268
 10
0.0021735282696687527
 20
1.017903080611362
 10
-0.09427546868745858
 20
0.997740886547343
 10
-0.19129305786386377
 20
0.9770889364224066
 10
-0.19170110622043252
 20
0.9770030635730227
 10
-0.2888797896060122
 20
0.9567870101130953
 10
-0.2899213042974678
 20
0.9565767504010415
 10
-0.38709998768304793
 20
0.937554753420068
 10
-0.3886678743418419
 20
0.937262251950874
 10
-0.485846557727422
 20
0.9200224221037425
 10
-0.48782420103381974
 20
0.9196942565203038
 10
-0.5850028844193994
 20
0.9046787607901786
 10
-0.5872662130682691
 20
0.9043584179604066
 10
-0.6844448964538492
 20
0.8918607936678256
 10
-0.6868665944703604
 20
0.8915826351408934
 10
-0.78404527785594
 20
0.8817520393725521
 10
-0.7865009043445819
 20
0.8815375566075145
 10
-0.883679587730162
 20
0.8743891108340327
 10
-0.8860545548757441
 20
0.8742459434786019
 10
-0.9832332382613242
 20
0.869676117481327
 10
-0.9854292479342565
 20
0.869599703679754
 10
-1.082607931319836
 20
0.867405533298433
 10
-1.084547675118726
 20
0.8673826479690164
 10
-1.181726358504306
 20
0.8672835004868962
 10
-1.1833558766445946
 20
0.8672965907448928
 10
-1.2805345600301743
 20
0.8689571793448678
 10
-1.281823313457936
 20
0.868988435470031
 10
-1.379001996843516
 20
0.8720418362512073
 10
-1.3799411624867959
 20
0.872076254466629
 10
-1.477119845872376
 20
0.8761457892064906
 10
-1.477719496576943
 20
0.8761729041852911
 10
-1.5748981799625226
 20
0.8808919101192326
 10
-1.575183920475425
 20
0.8809062409800131
 10
-1.672362603861005
 20
0.8859349442206942
 10
-1.7694403317118412
 20
0.8909686384277312
 10
-1.8663087008514299
 20
0.895752923135386
 10
-1.9630244607946161
 20
0.900098531001411
 10
-2.059639916959513
 20
0.9038734675459285
 10
-2.1562047684135726
 20
0.9070009319799162
 10
-2.2527636321838607
 20
0.9094544502219322
 10
-2.3493540991083055
 20
0.911251019349316
 10
-2.4460054194066085
 20
0.9124428294406252
 10
-2.542737862559774
 20
0.9131081345800001
 10
-2.6395627358259213
 20
0.9133418450418745
 10
-2.736482993303791
 20
0.9132463998051085
 10
-2.83349433047577
 20
0.9129234423385149
 10
-2.9305866381239825
 20
0.9124667551228817
 10
-3.0277407998155774
 20
0.9119568330475707
 10
-3.1249292453221487
 20
0.9114572727652562
 10
-3.222159168800616
 20
0.9110128435206003
 10
-3.31941345156096
 20
0.9106499808104375
 10
-3.4166766472170957
 20
0.9103784109822699
 10
-3.5139361398323303
 20
0.910194183006306
 10
-3.611182930979414
 20
0.9100835816434647
 10
-3.7084120194188865
 20
0.9100274658767926
 10
-3.8056223683703045
 20
0.910005571928195
 10
-3.9028164859713357
 20
0.9100003538259709
 10
-3.9999996724315587
 20
0.9100000000005961
 10
-4.034441206278852
 20
0.9168507167195196
 10
-4.063639378680501
 20
0.9363601580677663
 10
-4.08314903257045
 20
0.9655581884535919
 10
-4.089999999999404
 20
0.999999672431559
 10
-4.0831492832804805
 20
1.0344412062788517
 10
-4.0636398419322335
 20
1.0636393786805018
 10
-4.034441811546408
 20
1.0831490325704496
 10
-4.000000327568441
 20
1.089999999999404
 10
-3.9028238957192816
 20
1.0900003536875404
 10
-3.805655180980244
 20
1.0900055691028794
 10
-3.7085000474857983
 20
1.0900274450482819
 10
-3.611362399415054
 20
1.0900834939385782
 10
-3.5142429724507354
 20
1.0901939247100483
 10
-3.417138747583482
 20
1.0903778223585119
 10
-3.3200427249704596
 20
1.0906488858087082
 10
-3.222944097408365
 20
1.0910111360567296
 10
-3.1258288337267444
 20
1.0914550266320882
 10
-3.028680651412824
 20
1.091954379427516
 10
-2.9315068490872442
 20
1.0924644045884042
 10
-2.8342791222472914
 20
1.0929217421301365
  0
LWPOLYLINE
  5
48
330
17
100
AcDbEntity
  8
ENGRAVE_LINES
100
AcDbPolyline
 90
18
 70
1
 10
-12.563168139058014
 20
2.333582368398134
 10
-12.597609647970872
 20
2.340433210472118
 10
-12.626807749364803
 20
2.3599427580913446
 10
-12.64631729698403
 20
2.3891408594852757
 10
-12.653168139058014
 20
2.423582368398134
 10
-12.64631729698403
 20
2.458023877310992
 10
-12.626807749364803
 20
2.4872219787049232
 10
-12.597609647970872
 20
2.50673152632415
 10
-10.44958973488213
 20
3.396470506572984
 10
-10.415148225969272
 20
3.403321348646968
 10
-10.380706717056414
 20
3.396470506572984
 10
-10.351508615662484
 20
3.3769609589537573
 10
-10.331999068043256
 20
3.347762857559826
 10
-10.325148225969272
 20
3.313321348646968
 10
-10.331999068043256
 20
3.2788798397341097
 10
-10.351508615662484
 20
3.2496817383401786
 10
-10.380706717056414
 20
3.230172190720952
 10
-12.528726630145156
 20
2.340433210472118
  0
LWPOLYLINE
  5
49
330
17
100
AcDbEntity
  8
ENGRAVE_LINES
100
AcDbPolyline
 90
18
 70
1
 10
-13.404004282898901
 20
3.5472880680879406
 10
-13.433202384292832
 20
3.5667976157071672
 10
-13.45271193191206
 20
3.5959957171010983
 10
-13.459562773986043
 20
3.6304372260139566
 10
-13.45271193191206
 20
3.664878734926815
 10
-13.433202384292832
 20
3.694076836320746
 10
-11.789179118034108
 20
5.338100102579468
 10
-11.759981016640177
 20
5.357609650198695
 10
-11.72553950772732
 20
5.364460492272679
 10
-11.691097998814461
 20
5.357609650198695
 10
-11.66189989742053
 20
5.338100102579468
 10
-11.642390349801303
 20
5.308902001185537
 10
-11.63553950772732
 20
5.274460492272679
 10
-11.642390349801303
 20
5.240018983359821
 10
-11.66189989742053
 20
5.21082088196589
 10
-13.305923163679255
 20
3.5667976157071672
 10
-13.335121265073186
 20
3.5472880680879406
 10
-13.369562773986043
 20
3.5404372260139567
  0
LWPOLYLINE
  5
4A
330
17
100
AcDbEntity
  8
ENGRAVE_LINES
100
AcDbPolyline
 90
18
 70
1
 10
-14.576417631601865
 20
4.346831860941986
 10
-14.610859140514723
 20
4.35368270301597
 10
-14.640057241908654
 20
4.373192250635197
 10
-14.659566789527881
 20
4.402390352029128
 10
-14.666417631601865
 20
4.436831860941986
 10
-14.659566789527881
 20
4.471273369854844
 10
-13.769827809279048
 20
6.619293282943586
 10
-13.750318261659821
 20
6.648491384337517
 10
-13.72112016026589
 20
6.668000931956744
 10
-13.686678651353033
 20
6.674851774030728
 10
-13.652237142440175
 20
6.668000931956744
 10
-13.623039041046244
 20
6.648491384337517
 10
-13.603529493427017
 20
6.619293282943586
 10
-13.596678651353033
 20
6.584851774030728
 10
-13.603529493427017
 20
6.55041026511787
 10
-14.49326847367585
 20
4.402390352029128
 10
-14.512778021295077
 20
4.373192250635197
 10
-14.541976122689007
 20
4.35368270301597
  0
LWPOLYLINE
  5
4B
330
17
100
AcDbEntity
  8
ENGRAVE_FILL
100
AcDbPolyline
 90
10
 70
1
 10
-26.360109375
 20
15.405906250000001
 10
-26.360109375
 20
13.393421875
 10
-25.293796874999998
 20
15.405906250000001
 10
-24.855515625
 20
15.405906250000001
 10
-24.855515625
 20
13.0
 10
-25.171078125
 20
13.0
 10
-25.171078125
 20
15.012484375
 10
-26.23790625
 20
13.0
 10
-26.6761875
 20
13.0
 10
-26.6761875
 20
15.405906250000001
  0
LWPOLYLINE
  5
4C
330
17
100
AcDbEntity
  8
ENGRAVE_FILL
100
AcDbPolyline
 90
13
 70
1
 10
-22.3240546875
 20
13.0
 10
-22.3240546875
 20
15.112515625
 10
-22.9443515625
 20
13.462515625
 10
-23.2712578125
 20
13.462515625
 10
-23.8915546875
 20
15.112515625
 10
-23.8915546875
 20
13.0
 10
-24.2076328125
 20
13.0
 10
-24.2076328125
 20
15.405906250000001
 10
-23.7224296875
 20
15.405906250000001
 10
-23.1088359375
 20
13.768796875
 10
-22.4916328125
 20
15.405906250000001
 10
-22.0064296875
 20
15.405906250000001
 10
-22.0064296875
 20
13.0
  0
LWPOLYLINE
  5
4D
330
17
100
AcDbEntity
  8
ENGRAVE_FILL
100
AcDbPolyline
 90
8
 70
1
 10
-21.360416015625
 20
13.0
 10
-21.360416015625
 20
15.405906250000001
 10
-19.526853515625
 20
15.405906250000001
 10
-19.526853515625
 20
13.0
 10
-19.852212890624997
 20
13.0
 10
-19.852212890624997
 20
15.13159375
 10
-21.035056640625
 20
15.13159375
 10
-21.035056640625
 20
13.0
  0
LWPOLYLINE
  5
4E
330
17
100
AcDbEntity
  8
ENGRAVE_FILL
100
AcDbPolyline
 90
18
 70
1
 10
-18.787189453125002
 20
13.273796875
 10
-18.624767578125
 20
13.28475390625
 10
-18.521126953125
 20
13.317625
 10
-18.480134765625
 20
13.355007812499998
 10
-18.446876953125
 20
13.4125
 10
-18.374689453125
 20
13.583171875
 10
-19.146580078124998
 20
15.405906250000001
 10
-18.796470703125
 20
15.405906250000001
 10
-18.198861328125
 20
13.994125
 10
-17.597642578124997
 20
15.405906250000001
 10
-17.248048828125
 20
15.405906250000001
 10
-18.147298828125
 20
13.29184375
 10
-18.185712890625002
 20
13.215917968749999
 10
-18.232892578125
 20
13.150046875
 10
-18.429474609375
 20
13.03751171875
 10
-18.764501953125
 20
13.0
 10
-18.888767578124998
 20
13.0
 10
-18.888767578124998
 20
13.273796875
  0
LWPOLYLINE
  5
4F
330
17
100
AcDbEntity
  8
ENGRAVE_FILL
100
AcDbPolyline
 90
16
 70
1
 10
-15.036017578125
 20
15.405906250000001
 10
-15.036017578125
 20
13.0
 10
-15.361376953125
 20
13.0
 10
-15.361376953125
 20
15.13159375
 10
-16.143064453125
 20
15.13159375
 10
-16.143064453125
 20
14.835109375
 10
-16.184056640625002
 20
14.04504296875
 10
-16.307033203125002
 20
13.49809375
 10
-16.573482421875
 20
13.169640625
 10
-17.056236328125
 20
13.0
 10
-17.056236328125
 20
13.273796875
 10
-16.769162109375
 20
13.3967734375
 10
-16.607126953125
 20
13.614109375
 10
-16.501939453125
 20
14.167503906250001
 10
-16.466876953125002
 20
14.996500000000001
 10
-16.466876953125002
 20
15.405906250000001
  0
LWPOLYLINE
  5
50
330
17
100
AcDbEntity
  8
ENGRAVE_FILL
100
AcDbPolyline
 90
13
 70
1
 10
-12.734654296875
 20
14.019648437499999
 10
-12.679869140625
 20
13.7074375
 10
-12.734654296875
 20
13.3962578125
 10
-12.899009765625
 20
13.1753125
 10
-13.164556640625
 20
13.043828125000001
 10
-13.522916015624999
 20
13.0
 10
-14.386587890625
 20
13.0
 10
-14.386587890625
 20
15.405906250000001
 10
-14.061228515624999
 20
15.405906250000001
 10
-14.061228515624999
 20
14.416421875000001
 10
-13.522916015624999
 20
14.416421875000001
 10
-13.164556640625
 20
14.37246484375
 10
-12.899009765625
 20
14.24059375
  0
LWPOLYLINE
  5
51
330
17
100
AcDbEntity
  8
ENGRAVE_FILL
100
AcDbPolyline
 90
11
 70
1
 10
-14.061228515624999
 20
13.267609375
 10
-13.538900390624999
 20
13.267609375
 10
-13.310607421874998
 20
13.2949375
 10
-13.150634765625
 20
13.376921875
 10
-13.055115234374998
 20
13.51369140625
 10
-13.023275390624999
 20
13.7074375
 10
-13.055115234374998
 20
13.902730468749999
 10
-13.150634765625
 20
14.041046875
 10
-13.310607421874998
 20
14.121871093749998
 10
-13.538900390624999
 20
14.1488125
 10
-14.061228515624999
 20
14.1488125
  0
LWPOLYLINE
  5
52
330
17
100
AcDbEntity
  8
ENGRAVE_FILL
100
AcDbPolyline
 90
16
 70
1
 10
15.768359375
 20
10.007226562500001
 10
15.52578125
 20
9.41328125
 10
15.1298828125
 20
9.05
 10
14.5890625
 20
8.92890625
 10
14.048828125
 20
9.05
 10
13.653125
 20
9.41328125
 10
13.410546875000001
 20
10.007226562500001
 10
13.3296875
 20
10.81875
 10
13.410546875000001
 20
11.6318359375
 10
13.653125
 20
12.22578125
 10
14.048828125
 20
12.5896484375
 10
14.5890625
 20
12.7109375
 10
15.1298828125
 20
12.5896484375
 10
15.52578125
 20
12.22578125
 10
15.768359375
 20
11.6318359375
 10
15.84921875
 20
10.81875
  0
LWPOLYLINE
  5
53
330
17
100
AcDbEntity
  8
ENGRAVE_FILL
100
AcDbPolyline
 90
16
 70
1
 10
13.825
 20
10.81875
 10
13.8728515625
 20
10.1630859375
 10
14.01640625
 20
9.69453125
 10
14.255664062500001
 20
9.41328125
 10
14.5890625
 20
9.31953125
 10
14.924609375
 20
9.41328125
 10
15.1640625
 20
9.69453125
 10
15.308203124999999
 20
10.1630859375
 10
15.35625
 20
10.81875
 10
15.308203124999999
 20
11.4765625
 10
15.1640625
 20
11.9453125
 10
14.924609375
 20
12.2265625
 10
14.5890625
 20
12.3203125
 10
14.255664062500001
 20
12.2265625
 10
14.01640625
 20
11.9453125
 10
13.8728515625
 20
11.4765625
  0
LWPOLYLINE
  5
54
330
17
100
AcDbEntity
  8
ENGRAVE_FILL
100
AcDbPolyline
 90
11
 70
1
 10
16.73037109375
 20
12.46953125
 10
17.60224609375
 20
12.6453125
 10
18.09521484375
 20
12.6453125
 10
18.09521484375
 20
9.41484375
 10
18.90068359375
 20
9.41484375
 10
18.90068359375
 20
9.0
 10
16.80146484375
 20
9.0
 10
16.80146484375
 20
9.41484375
 10
17.60693359375
 20
9.41484375
 10
17.60693359375
 20
12.19609375
 10
16.73037109375
 20
12.0203125
  0
LWPOLYLINE
  5
55
330
17
100
AcDbEntity
  8
ENGRAVE_FILL
100
AcDbPolyline
 90
34
 70
1
 10
-11.0671875
 20
15.181609375
 10
-11.431347656249999
 20
15.11857421875
 10
-11.698828124999999
 20
14.92946875
 10
-11.86318359375
 20
14.621125
 10
-11.91796875
 20
14.200375
 10
-11.86318359375
 20
13.780785156250001
 10
-11.698828124999999
 20
13.472828125
 10
-11.431347656249999
 20
13.28372265625
 10
-11.0671875
 20
13.2206875
 10
-10.86364453125
 20
13.23963671875
 10
-10.671703125
 20
13.296484375
 10
-10.4909765625
 20
13.3916171875
 10
-10.321078125
 20
13.525421875
 10
-10.321078125
 20
13.185109375
 10
-10.496906249999999
 20
13.08353125
 10
-10.683046874999999
 20
13.010828125
 10
-10.8792421875
 20
12.967515625
 10
-11.086265625
 20
12.953078125
 10
-11.5748203125
 20
13.036609375
 10
-11.947359375
 20
13.287203125
 10
-12.182871093749998
 20
13.68281640625
 10
-12.261375
 20
14.200375
 10
-12.182871093749998
 20
14.718964843750001
 10
-11.947359375
 20
15.114578125
 10
-11.5748203125
 20
15.36555859375
 10
-11.086265625
 20
15.44921875
 10
-10.876921874999999
 20
15.43491015625
 10
-10.679953125
 20
15.391984375
 10
-10.494585937499998
 20
15.32044140625
 10
-10.321078125
 20
15.22028125
 10
-10.321078125
 20
14.877390625
 10
-10.4909765625
 20
15.01106640625
 10
-10.671703125
 20
15.1058125
 10
-10.86364453125
 20
15.16266015625
  0
LWPOLYLINE
  5
56
330
17
100
AcDbEntity
  8
ENGRAVE_FILL
100
AcDbPolyline
 90
8
 70
1
 10
-9.773097656249998
 20
13.0
 10
-10.11650390625
 20
13.0
 10
-9.19817578125
 20
15.405906250000001
 10
-8.828988281249998
 20
15.405906250000001
 10
-7.912207031249999
 20
13.0
 10
-8.25045703125
 20
13.0
 10
-8.469597656249999
 20
13.617203125
 10
-9.55395703125
 20
13.617203125
  0
LWPOLYLINE
  5
57
330
17
100
AcDbEntity
  8
ENGRAVE_FILL
100
AcDbPolyline
 90
3
 70
1
 10
-9.014097656249998
 20
15.0851875
 10
-9.45598828125
 20
13.88790625
 10
-8.571175781249998
 20
13.88790625
  0
LWPOLYLINE
  5
58
330
17
100
AcDbEntity
  8
ENGRAVE_FILL
100
AcDbPolyline
 90
13
 70
1
 10
-6.007423828124999
 20
14.687125
 10
-6.059244140624999
 20
14.3743984375
 10
-6.214705078125
 20
14.1488125
 10
-6.4709707031249994
 20
14.01230078125
 10
-6.826236328124999
 20
13.966796875
 10
-7.235642578124999
 20
13.966796875
 10
-7.235642578124999
 20
13.0
 10
-7.561001953125
 20
13.0
 10
-7.561001953125
 20
15.405906250000001
 10
-6.826236328124999
 20
15.405906250000001
 10
-6.4709707031249994
 20
15.36014453125
 10
-6.214705078125
 20
15.222859375
 10
-6.059244140624999
 20
14.99740234375
  0
LWPOLYLINE
  5
59
330
17
100
AcDbEntity
  8
ENGRAVE_FILL
100
AcDbPolyline
 90
11
 70
1
 10
-6.381896484375
 20
14.4945390625
 10
-6.350830078125
 20
14.687125
 10
-6.381896484375
 20
14.87855078125
 10
-6.475095703125
 20
15.020734375
 10
-6.624755859375
 20
15.10890625
 10
-6.826236328124999
 20
15.138296875
 10
-7.235642578124999
 20
15.138296875
 10
-7.235642578124999
 20
14.23440625
 10
-6.826236328124999
 20
14.23440625
 10
-6.624755859375
 20
14.263796875
 10
-6.475095703125
 20
14.351968750000001
  0
ENDSEC
  0
SECTION
  2
OBJECTS
  0
DICTIONARY
  5
A
330
0
100
AcDbDictionary
281
1
  3
ACAD_COLOR
350
B
  3
ACAD_GROUP
350
C
  3
ACAD_LAYOUT
350
D
  3
ACAD_MATERIAL
350
E
  3
ACAD_MLEADERSTYLE
350
F
  3
ACAD_MLINESTYLE
350
10
  3
ACAD_PLOTSETTINGS
350
11
  3
ACAD_PLOTSTYLENAME
350
12
  3
ACAD_SCALELIST
350
14
  3
ACAD_TABLESTYLE
350
15
  3
ACAD_VISUALSTYLE
350
16
  3
EZDXF_META
350
2D
  0
DICTIONARY
  5
B
330
A
100
AcDbDictionary
281
1
  0
DICTIONARY
  5
C
330
A
100
AcDbDictionary
281
1
  0
DICTIONARY
  5
D
330
A
100
AcDbDictionary
281
1
  3
Model
350
1A
  3
Layout1
350
1E
  0
DICTIONARY
  5
E
330
A
100
AcDbDictionary
281
1
  3
ByBlock
350
1F
  3
ByLayer
350
20
  3
Global
350
21
  0
DICTIONARY
  5
F
330
A
100
AcDbDictionary
281
1
  3
Standard
350
2C
  0
DICTIONARY
  5
10
330
A
100
AcDbDictionary
281
1
  3
Standard
350
22
  0
DICTIONARY
  5
11
330
A
100
AcDbDictionary
281
1
  0
ACDBDICTIONARYWDFLT
  5
12
330
A
100
AcDbDictionary
281
1
  3
Normal
350
13
100
AcDbDictionaryWithDefault
340
13
  0
ACDBPLACEHOLDER
  5
13
330
12
  0
DICTIONARY
  5
14
330
A
100
AcDbDictionary
281
1
  0
DICTIONARY
  5
15
330
A
100
AcDbDictionary
281
1
  0
DICTIONARY
  5
16
330
A
100
AcDbDictionary
281
1
  0
LAYOUT
  5
1A
330
D
100
AcDbPlotSettings
  1

  4
A3
  6

 40
7.5
 41
20.0
 42
7.5
 43
20.0
 44
420.0
 45
297.0
 46
0.0
 47
0.0
 48
0.0
 49
0.0
140
0.0
141
0.0
142
1.0
143
1.0
 70
1024
 72
1
 73
0
 74
5
  7

 75
16
 76
0
 77
2
 78
300
147
1.0
148
0.0
149
0.0
100
AcDbLayout
  1
Model
 70
1
 71
0
 10
0.0
 20
0.0
 11
420.0
 21
297.0
 12
0.0
 22
0.0
 32
0.0
 14
1e+20
 24
1e+20
 34
1e+20
 15
-1e+20
 25
-1e+20
 35
-1e+20
146
0.0
 13
0.0
 23
0.0
 33
0.0
 16
1.0
 26
0.0
 36
0.0
 17
0.0
 27
1.0
 37
0.0
 76
1
330
17
  0
LAYOUT
  5
1E
330
D
100
AcDbPlotSettings
  1

  4
A3
  6

 40
7.5
 41
20.0
 42
7.5
 43
20.0
 44
420.0
 45
297.0
 46
0.0
 47
0.0
 48
0.0
 49
0.0
140
0.0
141
0.0
142
1.0
143
1.0
 70
0
 72
1
 73
0
 74
5
  7

 75
16
 76
0
 77
2
 78
300
147
1.0
148
0.0
149
0.0
100
AcDbLayout
  1
Layout1
 70
1
 71
1
 10
0.0
 20
0.0
 11
420.0
 21
297.0
 12
0.0
 22
0.0
 32
0.0
 14
1e+20
 24
1e+20
 34
1e+20
 15
-1e+20
 25
-1e+20
 35
-1e+20
146
0.0
 13
0.0
 23
0.0
 33
0.0
 16
1.0
 26
0.0
 36
0.0
 17
0.0
 27
1.0
 37
0.0
 76
1
330
1B
  0
MATERIAL
  5
1F
102
{ACAD_REACTORS
330
E
102
}
330
E
100
AcDbMaterial
  1
ByBlock
  2

 70
0
 40
1.0
 71
1
 41
1.0
 91
-1023410177
 42
1.0
 72
1
  3

 73
1
 74
1
 75
1
 44
0.5
 73
0
 45
1.0
 46
1.0
 77
1
  4

 78
1
 79
1
170
1
 48
1.0
171
1
  6

172
1
173
1
174
1
140
1.0
141
1.0
175
1
  7

176
1
177
1
178
1
143
1.0
179
1
  8

270
1
271
1
272
1
145
1.0
146
1.0
273
1
  9

274
1
275
1
276
1
 42
1.0
 72
1
  3

 73
1
 74
1
 75
1
 94
63
  0
MATERIAL
  5
20
102
{ACAD_REACTORS
330
E
102
}
330
E
100
AcDbMaterial
  1
ByLayer
  2

 70
0
 40
1.0
 71
1
 41
1.0
 91
-1023410177
 42
1.0
 72
1
  3

 73
1
 74
1
 75
1
 44
0.5
 73
0
 45
1.0
 46
1.0
 77
1
  4

 78
1
 79
1
170
1
 48
1.0
171
1
  6

172
1
173
1
174
1
140
1.0
141
1.0
175
1
  7

176
1
177
1
178
1
143
1.0
179
1
  8

270
1
271
1
272
1
145
1.0
146
1.0
273
1
  9

274
1
275
1
276
1
 42
1.0
 72
1
  3

 73
1
 74
1
 75
1
 94
63
  0
MATERIAL
  5
21
102
{ACAD_REACTORS
330
E
102
}
330
E
100
AcDbMaterial
  1
Global
  2

 70
0
 40
1.0
 71
1
 41
1.0
 91
-1023410177
 42
1.0
 72
1
  3

 73
1
 74
1
 75
1
 44
0.5
 73
0
 45
1.0
 46
1.0
 77
1
  4

 78
1
 79
1
170
1
 48
1.0
171
1
  6

172
1
173
1
174
1
140
1.0
141
1.0
175
1
  7

176
1
177
1
178
1
143
1.0
179
1
  8

270
1
271
1
272
1
145
1.0
146
1.0
273
1
  9

274
1
275
1
276
1
 42
1.0
 72
1
  3

 73
1
 74
1
 75
1
 94
63
  0
MLINESTYLE
  5
22
102
{ACAD_REACTORS
330
10
102
}
330
10
100
AcDbMlineStyle
  2
Standard
 70
0
  3

 62
256
 51
90.0
 52
90.0
 71
2
 49
0.5
 62
256
  6
BYLAYER
 49
-0.5
 62
256
  6
BYLAYER
  0
MLEADERSTYLE
  5
2C
102
{ACAD_REACTORS
330
F
102
}
330
F
100
AcDbMLeaderStyle
179
2
170
2
171
1
172
0
 90
2
 40
0.0
 41
0.0
173
1
 91
-1056964608
 92
-2
290
1
 42
2.0
291
1
 43
8.0
  3
Standard
 44
4.0
300

342
29
174
1
175
1
176
0
178
1
 93
-1056964608
 45
4.0
292
0
297
0
 46
4.0
 94
-1056964608
 47
1.0
 49
1.0
140
1.0
294
1
141
0.0
177
0
142
1.0
295
0
296
0
143
3.75
271
0
272
9
273
9
  0
DICTIONARY
  5
2D
330
A
100
AcDbDictionary
280
1
281
1
  3
CREATED_BY_EZDXF
350
2E
  3
WRITTEN_BY_EZDXF
350
5C
  0
DICTIONARYVAR
  5
2E
330
2D
100
DictionaryVariables
280
0
  1
1.4.3 @ 2026-09-24T11:47:32.462637+00:00
  0
DICTIONARYVAR
  5
5C
330
2D
100
DictionaryVariables
280
0
  1
1.4.3 @ 2026-09-24T11:47:34.444747+00:00
  0
ENDSEC
  0
EOF
